G75*
%MOIN*%
%OFA0B0*%
%FSLAX25Y25*%
%IPPOS*%
%LPD*%
%AMOC8*
5,1,8,0,0,1.08239X$1,22.5*
%
%ADD10C,0.13398*%
%ADD11C,0.06800*%
%ADD12C,0.06000*%
%ADD13C,0.06800*%
%ADD14OC8,0.07400*%
%ADD15OC8,0.06800*%
%ADD16C,0.09400*%
%ADD17R,0.04737X0.05131*%
%ADD18R,0.05131X0.04737*%
D10*
X0027292Y0085606D03*
X0027292Y0251709D03*
X0252292Y0251709D03*
X0251819Y0086157D03*
D11*
X0194988Y0220933D02*
X0194988Y0226933D01*
X0184988Y0226933D02*
X0184988Y0220933D01*
X0174988Y0220933D02*
X0174988Y0226933D01*
X0129988Y0226933D02*
X0129988Y0220933D01*
X0119988Y0220933D02*
X0119988Y0226933D01*
X0109988Y0226933D02*
X0109988Y0220933D01*
X0064988Y0220933D02*
X0064988Y0226933D01*
X0054988Y0226933D02*
X0054988Y0220933D01*
X0044988Y0220933D02*
X0044988Y0226933D01*
D12*
X0044988Y0151533D02*
X0044988Y0146333D01*
X0034988Y0146333D02*
X0034988Y0151533D01*
X0054988Y0151533D02*
X0054988Y0146333D01*
X0064988Y0146333D02*
X0064988Y0151533D01*
X0074988Y0151533D02*
X0074988Y0146333D01*
X0084988Y0146333D02*
X0084988Y0151533D01*
X0094988Y0151533D02*
X0094988Y0146333D01*
X0124988Y0146533D02*
X0124988Y0141333D01*
X0134988Y0141333D02*
X0134988Y0146533D01*
X0144988Y0146533D02*
X0144988Y0141333D01*
X0154988Y0141333D02*
X0154988Y0146533D01*
X0164988Y0146533D02*
X0164988Y0141333D01*
X0174988Y0141333D02*
X0174988Y0146533D01*
X0184988Y0146533D02*
X0184988Y0141333D01*
X0194988Y0141333D02*
X0194988Y0146533D01*
X0194988Y0116533D02*
X0194988Y0111333D01*
X0184988Y0111333D02*
X0184988Y0116533D01*
X0174988Y0116533D02*
X0174988Y0111333D01*
X0164988Y0111333D02*
X0164988Y0116533D01*
X0154988Y0116533D02*
X0154988Y0111333D01*
X0144988Y0111333D02*
X0144988Y0116533D01*
X0134988Y0116533D02*
X0134988Y0111333D01*
X0124988Y0111333D02*
X0124988Y0116533D01*
X0094988Y0116333D02*
X0094988Y0121533D01*
X0084988Y0121533D02*
X0084988Y0116333D01*
X0074988Y0116333D02*
X0074988Y0121533D01*
X0064988Y0121533D02*
X0064988Y0116333D01*
X0054988Y0116333D02*
X0054988Y0121533D01*
X0044988Y0121533D02*
X0044988Y0116333D01*
X0034988Y0116333D02*
X0034988Y0121533D01*
D13*
X0054988Y0083683D03*
X0064988Y0083683D03*
X0074988Y0083683D03*
D14*
X0124988Y0083933D03*
X0134988Y0083933D03*
X0144988Y0083933D03*
X0154988Y0083933D03*
X0164988Y0083933D03*
X0174988Y0083933D03*
X0184988Y0083933D03*
X0184988Y0158933D03*
X0174988Y0158933D03*
X0164988Y0158933D03*
X0154988Y0158933D03*
X0144988Y0158933D03*
X0134988Y0158933D03*
X0124988Y0158933D03*
X0124988Y0168933D03*
X0134988Y0168933D03*
X0144988Y0168933D03*
X0154988Y0168933D03*
X0164988Y0168933D03*
X0174988Y0168933D03*
X0184988Y0168933D03*
D15*
X0232488Y0223933D03*
X0242488Y0223933D03*
X0194988Y0241433D03*
X0184988Y0241433D03*
X0129988Y0241433D03*
X0119988Y0241433D03*
X0064988Y0241433D03*
X0054988Y0241433D03*
D16*
X0234988Y0189799D03*
X0234988Y0176020D03*
X0234988Y0162240D03*
X0234988Y0134799D03*
X0234988Y0121020D03*
X0234988Y0107240D03*
D17*
X0093335Y0106433D03*
X0086642Y0106433D03*
X0078335Y0106433D03*
X0071642Y0106433D03*
X0058335Y0106433D03*
X0051642Y0106433D03*
X0043335Y0106433D03*
X0036642Y0106433D03*
X0086642Y0133933D03*
X0093335Y0133933D03*
X0091710Y0161583D03*
X0085017Y0161583D03*
D18*
X0124988Y0132280D03*
X0124988Y0125587D03*
X0134988Y0125587D03*
X0134988Y0132280D03*
X0144988Y0132280D03*
X0144988Y0125587D03*
X0154988Y0125587D03*
X0154988Y0132280D03*
X0164988Y0132280D03*
X0164988Y0125587D03*
X0174988Y0125587D03*
X0174988Y0132280D03*
X0184988Y0132280D03*
X0184988Y0125587D03*
X0184988Y0102280D03*
X0184988Y0095587D03*
X0174988Y0095587D03*
X0174988Y0102280D03*
X0164988Y0102280D03*
X0164988Y0095587D03*
X0154988Y0095587D03*
X0154988Y0102280D03*
X0144988Y0102280D03*
X0144988Y0095587D03*
X0134988Y0095587D03*
X0134988Y0102280D03*
X0124988Y0102280D03*
X0124988Y0095587D03*
M02*
