G75*
%MOIN*%
%OFA0B0*%
%FSLAX25Y25*%
%IPPOS*%
%LPD*%
%AMOC8*
5,1,8,0,0,1.08239X$1,22.5*
%
%ADD10C,0.00000*%
%ADD11C,0.06000*%
%ADD12C,0.05200*%
%ADD13C,0.06000*%
%ADD14R,0.03150X0.03150*%
%ADD15R,0.03937X0.04331*%
%ADD16OC8,0.06600*%
%ADD17OC8,0.06000*%
%ADD18C,0.08600*%
%ADD19C,0.01600*%
%ADD20C,0.10000*%
%ADD21C,0.07600*%
%ADD22C,0.03200*%
%ADD23C,0.02400*%
%ADD24C,0.08600*%
%ADD25C,0.05000*%
D10*
X0024988Y0073933D02*
X0254988Y0073933D01*
X0264988Y0083933D01*
X0264988Y0253933D01*
X0254988Y0263933D01*
X0024988Y0263933D01*
X0014988Y0253933D01*
X0014988Y0083933D01*
X0024988Y0073933D01*
X0020993Y0085606D02*
X0020995Y0085764D01*
X0021001Y0085922D01*
X0021011Y0086080D01*
X0021025Y0086238D01*
X0021043Y0086395D01*
X0021064Y0086552D01*
X0021090Y0086708D01*
X0021120Y0086864D01*
X0021153Y0087019D01*
X0021191Y0087172D01*
X0021232Y0087325D01*
X0021277Y0087477D01*
X0021326Y0087628D01*
X0021379Y0087777D01*
X0021435Y0087925D01*
X0021495Y0088071D01*
X0021559Y0088216D01*
X0021627Y0088359D01*
X0021698Y0088501D01*
X0021772Y0088641D01*
X0021850Y0088778D01*
X0021932Y0088914D01*
X0022016Y0089048D01*
X0022105Y0089179D01*
X0022196Y0089308D01*
X0022291Y0089435D01*
X0022388Y0089560D01*
X0022489Y0089682D01*
X0022593Y0089801D01*
X0022700Y0089918D01*
X0022810Y0090032D01*
X0022923Y0090143D01*
X0023038Y0090252D01*
X0023156Y0090357D01*
X0023277Y0090459D01*
X0023400Y0090559D01*
X0023526Y0090655D01*
X0023654Y0090748D01*
X0023784Y0090838D01*
X0023917Y0090924D01*
X0024052Y0091008D01*
X0024188Y0091087D01*
X0024327Y0091164D01*
X0024468Y0091236D01*
X0024610Y0091306D01*
X0024754Y0091371D01*
X0024900Y0091433D01*
X0025047Y0091491D01*
X0025196Y0091546D01*
X0025346Y0091597D01*
X0025497Y0091644D01*
X0025649Y0091687D01*
X0025802Y0091726D01*
X0025957Y0091762D01*
X0026112Y0091793D01*
X0026268Y0091821D01*
X0026424Y0091845D01*
X0026581Y0091865D01*
X0026739Y0091881D01*
X0026896Y0091893D01*
X0027055Y0091901D01*
X0027213Y0091905D01*
X0027371Y0091905D01*
X0027529Y0091901D01*
X0027688Y0091893D01*
X0027845Y0091881D01*
X0028003Y0091865D01*
X0028160Y0091845D01*
X0028316Y0091821D01*
X0028472Y0091793D01*
X0028627Y0091762D01*
X0028782Y0091726D01*
X0028935Y0091687D01*
X0029087Y0091644D01*
X0029238Y0091597D01*
X0029388Y0091546D01*
X0029537Y0091491D01*
X0029684Y0091433D01*
X0029830Y0091371D01*
X0029974Y0091306D01*
X0030116Y0091236D01*
X0030257Y0091164D01*
X0030396Y0091087D01*
X0030532Y0091008D01*
X0030667Y0090924D01*
X0030800Y0090838D01*
X0030930Y0090748D01*
X0031058Y0090655D01*
X0031184Y0090559D01*
X0031307Y0090459D01*
X0031428Y0090357D01*
X0031546Y0090252D01*
X0031661Y0090143D01*
X0031774Y0090032D01*
X0031884Y0089918D01*
X0031991Y0089801D01*
X0032095Y0089682D01*
X0032196Y0089560D01*
X0032293Y0089435D01*
X0032388Y0089308D01*
X0032479Y0089179D01*
X0032568Y0089048D01*
X0032652Y0088914D01*
X0032734Y0088778D01*
X0032812Y0088641D01*
X0032886Y0088501D01*
X0032957Y0088359D01*
X0033025Y0088216D01*
X0033089Y0088071D01*
X0033149Y0087925D01*
X0033205Y0087777D01*
X0033258Y0087628D01*
X0033307Y0087477D01*
X0033352Y0087325D01*
X0033393Y0087172D01*
X0033431Y0087019D01*
X0033464Y0086864D01*
X0033494Y0086708D01*
X0033520Y0086552D01*
X0033541Y0086395D01*
X0033559Y0086238D01*
X0033573Y0086080D01*
X0033583Y0085922D01*
X0033589Y0085764D01*
X0033591Y0085606D01*
X0033589Y0085448D01*
X0033583Y0085290D01*
X0033573Y0085132D01*
X0033559Y0084974D01*
X0033541Y0084817D01*
X0033520Y0084660D01*
X0033494Y0084504D01*
X0033464Y0084348D01*
X0033431Y0084193D01*
X0033393Y0084040D01*
X0033352Y0083887D01*
X0033307Y0083735D01*
X0033258Y0083584D01*
X0033205Y0083435D01*
X0033149Y0083287D01*
X0033089Y0083141D01*
X0033025Y0082996D01*
X0032957Y0082853D01*
X0032886Y0082711D01*
X0032812Y0082571D01*
X0032734Y0082434D01*
X0032652Y0082298D01*
X0032568Y0082164D01*
X0032479Y0082033D01*
X0032388Y0081904D01*
X0032293Y0081777D01*
X0032196Y0081652D01*
X0032095Y0081530D01*
X0031991Y0081411D01*
X0031884Y0081294D01*
X0031774Y0081180D01*
X0031661Y0081069D01*
X0031546Y0080960D01*
X0031428Y0080855D01*
X0031307Y0080753D01*
X0031184Y0080653D01*
X0031058Y0080557D01*
X0030930Y0080464D01*
X0030800Y0080374D01*
X0030667Y0080288D01*
X0030532Y0080204D01*
X0030396Y0080125D01*
X0030257Y0080048D01*
X0030116Y0079976D01*
X0029974Y0079906D01*
X0029830Y0079841D01*
X0029684Y0079779D01*
X0029537Y0079721D01*
X0029388Y0079666D01*
X0029238Y0079615D01*
X0029087Y0079568D01*
X0028935Y0079525D01*
X0028782Y0079486D01*
X0028627Y0079450D01*
X0028472Y0079419D01*
X0028316Y0079391D01*
X0028160Y0079367D01*
X0028003Y0079347D01*
X0027845Y0079331D01*
X0027688Y0079319D01*
X0027529Y0079311D01*
X0027371Y0079307D01*
X0027213Y0079307D01*
X0027055Y0079311D01*
X0026896Y0079319D01*
X0026739Y0079331D01*
X0026581Y0079347D01*
X0026424Y0079367D01*
X0026268Y0079391D01*
X0026112Y0079419D01*
X0025957Y0079450D01*
X0025802Y0079486D01*
X0025649Y0079525D01*
X0025497Y0079568D01*
X0025346Y0079615D01*
X0025196Y0079666D01*
X0025047Y0079721D01*
X0024900Y0079779D01*
X0024754Y0079841D01*
X0024610Y0079906D01*
X0024468Y0079976D01*
X0024327Y0080048D01*
X0024188Y0080125D01*
X0024052Y0080204D01*
X0023917Y0080288D01*
X0023784Y0080374D01*
X0023654Y0080464D01*
X0023526Y0080557D01*
X0023400Y0080653D01*
X0023277Y0080753D01*
X0023156Y0080855D01*
X0023038Y0080960D01*
X0022923Y0081069D01*
X0022810Y0081180D01*
X0022700Y0081294D01*
X0022593Y0081411D01*
X0022489Y0081530D01*
X0022388Y0081652D01*
X0022291Y0081777D01*
X0022196Y0081904D01*
X0022105Y0082033D01*
X0022016Y0082164D01*
X0021932Y0082298D01*
X0021850Y0082434D01*
X0021772Y0082571D01*
X0021698Y0082711D01*
X0021627Y0082853D01*
X0021559Y0082996D01*
X0021495Y0083141D01*
X0021435Y0083287D01*
X0021379Y0083435D01*
X0021326Y0083584D01*
X0021277Y0083735D01*
X0021232Y0083887D01*
X0021191Y0084040D01*
X0021153Y0084193D01*
X0021120Y0084348D01*
X0021090Y0084504D01*
X0021064Y0084660D01*
X0021043Y0084817D01*
X0021025Y0084974D01*
X0021011Y0085132D01*
X0021001Y0085290D01*
X0020995Y0085448D01*
X0020993Y0085606D01*
X0020993Y0251709D02*
X0020995Y0251867D01*
X0021001Y0252025D01*
X0021011Y0252183D01*
X0021025Y0252341D01*
X0021043Y0252498D01*
X0021064Y0252655D01*
X0021090Y0252811D01*
X0021120Y0252967D01*
X0021153Y0253122D01*
X0021191Y0253275D01*
X0021232Y0253428D01*
X0021277Y0253580D01*
X0021326Y0253731D01*
X0021379Y0253880D01*
X0021435Y0254028D01*
X0021495Y0254174D01*
X0021559Y0254319D01*
X0021627Y0254462D01*
X0021698Y0254604D01*
X0021772Y0254744D01*
X0021850Y0254881D01*
X0021932Y0255017D01*
X0022016Y0255151D01*
X0022105Y0255282D01*
X0022196Y0255411D01*
X0022291Y0255538D01*
X0022388Y0255663D01*
X0022489Y0255785D01*
X0022593Y0255904D01*
X0022700Y0256021D01*
X0022810Y0256135D01*
X0022923Y0256246D01*
X0023038Y0256355D01*
X0023156Y0256460D01*
X0023277Y0256562D01*
X0023400Y0256662D01*
X0023526Y0256758D01*
X0023654Y0256851D01*
X0023784Y0256941D01*
X0023917Y0257027D01*
X0024052Y0257111D01*
X0024188Y0257190D01*
X0024327Y0257267D01*
X0024468Y0257339D01*
X0024610Y0257409D01*
X0024754Y0257474D01*
X0024900Y0257536D01*
X0025047Y0257594D01*
X0025196Y0257649D01*
X0025346Y0257700D01*
X0025497Y0257747D01*
X0025649Y0257790D01*
X0025802Y0257829D01*
X0025957Y0257865D01*
X0026112Y0257896D01*
X0026268Y0257924D01*
X0026424Y0257948D01*
X0026581Y0257968D01*
X0026739Y0257984D01*
X0026896Y0257996D01*
X0027055Y0258004D01*
X0027213Y0258008D01*
X0027371Y0258008D01*
X0027529Y0258004D01*
X0027688Y0257996D01*
X0027845Y0257984D01*
X0028003Y0257968D01*
X0028160Y0257948D01*
X0028316Y0257924D01*
X0028472Y0257896D01*
X0028627Y0257865D01*
X0028782Y0257829D01*
X0028935Y0257790D01*
X0029087Y0257747D01*
X0029238Y0257700D01*
X0029388Y0257649D01*
X0029537Y0257594D01*
X0029684Y0257536D01*
X0029830Y0257474D01*
X0029974Y0257409D01*
X0030116Y0257339D01*
X0030257Y0257267D01*
X0030396Y0257190D01*
X0030532Y0257111D01*
X0030667Y0257027D01*
X0030800Y0256941D01*
X0030930Y0256851D01*
X0031058Y0256758D01*
X0031184Y0256662D01*
X0031307Y0256562D01*
X0031428Y0256460D01*
X0031546Y0256355D01*
X0031661Y0256246D01*
X0031774Y0256135D01*
X0031884Y0256021D01*
X0031991Y0255904D01*
X0032095Y0255785D01*
X0032196Y0255663D01*
X0032293Y0255538D01*
X0032388Y0255411D01*
X0032479Y0255282D01*
X0032568Y0255151D01*
X0032652Y0255017D01*
X0032734Y0254881D01*
X0032812Y0254744D01*
X0032886Y0254604D01*
X0032957Y0254462D01*
X0033025Y0254319D01*
X0033089Y0254174D01*
X0033149Y0254028D01*
X0033205Y0253880D01*
X0033258Y0253731D01*
X0033307Y0253580D01*
X0033352Y0253428D01*
X0033393Y0253275D01*
X0033431Y0253122D01*
X0033464Y0252967D01*
X0033494Y0252811D01*
X0033520Y0252655D01*
X0033541Y0252498D01*
X0033559Y0252341D01*
X0033573Y0252183D01*
X0033583Y0252025D01*
X0033589Y0251867D01*
X0033591Y0251709D01*
X0033589Y0251551D01*
X0033583Y0251393D01*
X0033573Y0251235D01*
X0033559Y0251077D01*
X0033541Y0250920D01*
X0033520Y0250763D01*
X0033494Y0250607D01*
X0033464Y0250451D01*
X0033431Y0250296D01*
X0033393Y0250143D01*
X0033352Y0249990D01*
X0033307Y0249838D01*
X0033258Y0249687D01*
X0033205Y0249538D01*
X0033149Y0249390D01*
X0033089Y0249244D01*
X0033025Y0249099D01*
X0032957Y0248956D01*
X0032886Y0248814D01*
X0032812Y0248674D01*
X0032734Y0248537D01*
X0032652Y0248401D01*
X0032568Y0248267D01*
X0032479Y0248136D01*
X0032388Y0248007D01*
X0032293Y0247880D01*
X0032196Y0247755D01*
X0032095Y0247633D01*
X0031991Y0247514D01*
X0031884Y0247397D01*
X0031774Y0247283D01*
X0031661Y0247172D01*
X0031546Y0247063D01*
X0031428Y0246958D01*
X0031307Y0246856D01*
X0031184Y0246756D01*
X0031058Y0246660D01*
X0030930Y0246567D01*
X0030800Y0246477D01*
X0030667Y0246391D01*
X0030532Y0246307D01*
X0030396Y0246228D01*
X0030257Y0246151D01*
X0030116Y0246079D01*
X0029974Y0246009D01*
X0029830Y0245944D01*
X0029684Y0245882D01*
X0029537Y0245824D01*
X0029388Y0245769D01*
X0029238Y0245718D01*
X0029087Y0245671D01*
X0028935Y0245628D01*
X0028782Y0245589D01*
X0028627Y0245553D01*
X0028472Y0245522D01*
X0028316Y0245494D01*
X0028160Y0245470D01*
X0028003Y0245450D01*
X0027845Y0245434D01*
X0027688Y0245422D01*
X0027529Y0245414D01*
X0027371Y0245410D01*
X0027213Y0245410D01*
X0027055Y0245414D01*
X0026896Y0245422D01*
X0026739Y0245434D01*
X0026581Y0245450D01*
X0026424Y0245470D01*
X0026268Y0245494D01*
X0026112Y0245522D01*
X0025957Y0245553D01*
X0025802Y0245589D01*
X0025649Y0245628D01*
X0025497Y0245671D01*
X0025346Y0245718D01*
X0025196Y0245769D01*
X0025047Y0245824D01*
X0024900Y0245882D01*
X0024754Y0245944D01*
X0024610Y0246009D01*
X0024468Y0246079D01*
X0024327Y0246151D01*
X0024188Y0246228D01*
X0024052Y0246307D01*
X0023917Y0246391D01*
X0023784Y0246477D01*
X0023654Y0246567D01*
X0023526Y0246660D01*
X0023400Y0246756D01*
X0023277Y0246856D01*
X0023156Y0246958D01*
X0023038Y0247063D01*
X0022923Y0247172D01*
X0022810Y0247283D01*
X0022700Y0247397D01*
X0022593Y0247514D01*
X0022489Y0247633D01*
X0022388Y0247755D01*
X0022291Y0247880D01*
X0022196Y0248007D01*
X0022105Y0248136D01*
X0022016Y0248267D01*
X0021932Y0248401D01*
X0021850Y0248537D01*
X0021772Y0248674D01*
X0021698Y0248814D01*
X0021627Y0248956D01*
X0021559Y0249099D01*
X0021495Y0249244D01*
X0021435Y0249390D01*
X0021379Y0249538D01*
X0021326Y0249687D01*
X0021277Y0249838D01*
X0021232Y0249990D01*
X0021191Y0250143D01*
X0021153Y0250296D01*
X0021120Y0250451D01*
X0021090Y0250607D01*
X0021064Y0250763D01*
X0021043Y0250920D01*
X0021025Y0251077D01*
X0021011Y0251235D01*
X0021001Y0251393D01*
X0020995Y0251551D01*
X0020993Y0251709D01*
X0245993Y0251709D02*
X0245995Y0251867D01*
X0246001Y0252025D01*
X0246011Y0252183D01*
X0246025Y0252341D01*
X0246043Y0252498D01*
X0246064Y0252655D01*
X0246090Y0252811D01*
X0246120Y0252967D01*
X0246153Y0253122D01*
X0246191Y0253275D01*
X0246232Y0253428D01*
X0246277Y0253580D01*
X0246326Y0253731D01*
X0246379Y0253880D01*
X0246435Y0254028D01*
X0246495Y0254174D01*
X0246559Y0254319D01*
X0246627Y0254462D01*
X0246698Y0254604D01*
X0246772Y0254744D01*
X0246850Y0254881D01*
X0246932Y0255017D01*
X0247016Y0255151D01*
X0247105Y0255282D01*
X0247196Y0255411D01*
X0247291Y0255538D01*
X0247388Y0255663D01*
X0247489Y0255785D01*
X0247593Y0255904D01*
X0247700Y0256021D01*
X0247810Y0256135D01*
X0247923Y0256246D01*
X0248038Y0256355D01*
X0248156Y0256460D01*
X0248277Y0256562D01*
X0248400Y0256662D01*
X0248526Y0256758D01*
X0248654Y0256851D01*
X0248784Y0256941D01*
X0248917Y0257027D01*
X0249052Y0257111D01*
X0249188Y0257190D01*
X0249327Y0257267D01*
X0249468Y0257339D01*
X0249610Y0257409D01*
X0249754Y0257474D01*
X0249900Y0257536D01*
X0250047Y0257594D01*
X0250196Y0257649D01*
X0250346Y0257700D01*
X0250497Y0257747D01*
X0250649Y0257790D01*
X0250802Y0257829D01*
X0250957Y0257865D01*
X0251112Y0257896D01*
X0251268Y0257924D01*
X0251424Y0257948D01*
X0251581Y0257968D01*
X0251739Y0257984D01*
X0251896Y0257996D01*
X0252055Y0258004D01*
X0252213Y0258008D01*
X0252371Y0258008D01*
X0252529Y0258004D01*
X0252688Y0257996D01*
X0252845Y0257984D01*
X0253003Y0257968D01*
X0253160Y0257948D01*
X0253316Y0257924D01*
X0253472Y0257896D01*
X0253627Y0257865D01*
X0253782Y0257829D01*
X0253935Y0257790D01*
X0254087Y0257747D01*
X0254238Y0257700D01*
X0254388Y0257649D01*
X0254537Y0257594D01*
X0254684Y0257536D01*
X0254830Y0257474D01*
X0254974Y0257409D01*
X0255116Y0257339D01*
X0255257Y0257267D01*
X0255396Y0257190D01*
X0255532Y0257111D01*
X0255667Y0257027D01*
X0255800Y0256941D01*
X0255930Y0256851D01*
X0256058Y0256758D01*
X0256184Y0256662D01*
X0256307Y0256562D01*
X0256428Y0256460D01*
X0256546Y0256355D01*
X0256661Y0256246D01*
X0256774Y0256135D01*
X0256884Y0256021D01*
X0256991Y0255904D01*
X0257095Y0255785D01*
X0257196Y0255663D01*
X0257293Y0255538D01*
X0257388Y0255411D01*
X0257479Y0255282D01*
X0257568Y0255151D01*
X0257652Y0255017D01*
X0257734Y0254881D01*
X0257812Y0254744D01*
X0257886Y0254604D01*
X0257957Y0254462D01*
X0258025Y0254319D01*
X0258089Y0254174D01*
X0258149Y0254028D01*
X0258205Y0253880D01*
X0258258Y0253731D01*
X0258307Y0253580D01*
X0258352Y0253428D01*
X0258393Y0253275D01*
X0258431Y0253122D01*
X0258464Y0252967D01*
X0258494Y0252811D01*
X0258520Y0252655D01*
X0258541Y0252498D01*
X0258559Y0252341D01*
X0258573Y0252183D01*
X0258583Y0252025D01*
X0258589Y0251867D01*
X0258591Y0251709D01*
X0258589Y0251551D01*
X0258583Y0251393D01*
X0258573Y0251235D01*
X0258559Y0251077D01*
X0258541Y0250920D01*
X0258520Y0250763D01*
X0258494Y0250607D01*
X0258464Y0250451D01*
X0258431Y0250296D01*
X0258393Y0250143D01*
X0258352Y0249990D01*
X0258307Y0249838D01*
X0258258Y0249687D01*
X0258205Y0249538D01*
X0258149Y0249390D01*
X0258089Y0249244D01*
X0258025Y0249099D01*
X0257957Y0248956D01*
X0257886Y0248814D01*
X0257812Y0248674D01*
X0257734Y0248537D01*
X0257652Y0248401D01*
X0257568Y0248267D01*
X0257479Y0248136D01*
X0257388Y0248007D01*
X0257293Y0247880D01*
X0257196Y0247755D01*
X0257095Y0247633D01*
X0256991Y0247514D01*
X0256884Y0247397D01*
X0256774Y0247283D01*
X0256661Y0247172D01*
X0256546Y0247063D01*
X0256428Y0246958D01*
X0256307Y0246856D01*
X0256184Y0246756D01*
X0256058Y0246660D01*
X0255930Y0246567D01*
X0255800Y0246477D01*
X0255667Y0246391D01*
X0255532Y0246307D01*
X0255396Y0246228D01*
X0255257Y0246151D01*
X0255116Y0246079D01*
X0254974Y0246009D01*
X0254830Y0245944D01*
X0254684Y0245882D01*
X0254537Y0245824D01*
X0254388Y0245769D01*
X0254238Y0245718D01*
X0254087Y0245671D01*
X0253935Y0245628D01*
X0253782Y0245589D01*
X0253627Y0245553D01*
X0253472Y0245522D01*
X0253316Y0245494D01*
X0253160Y0245470D01*
X0253003Y0245450D01*
X0252845Y0245434D01*
X0252688Y0245422D01*
X0252529Y0245414D01*
X0252371Y0245410D01*
X0252213Y0245410D01*
X0252055Y0245414D01*
X0251896Y0245422D01*
X0251739Y0245434D01*
X0251581Y0245450D01*
X0251424Y0245470D01*
X0251268Y0245494D01*
X0251112Y0245522D01*
X0250957Y0245553D01*
X0250802Y0245589D01*
X0250649Y0245628D01*
X0250497Y0245671D01*
X0250346Y0245718D01*
X0250196Y0245769D01*
X0250047Y0245824D01*
X0249900Y0245882D01*
X0249754Y0245944D01*
X0249610Y0246009D01*
X0249468Y0246079D01*
X0249327Y0246151D01*
X0249188Y0246228D01*
X0249052Y0246307D01*
X0248917Y0246391D01*
X0248784Y0246477D01*
X0248654Y0246567D01*
X0248526Y0246660D01*
X0248400Y0246756D01*
X0248277Y0246856D01*
X0248156Y0246958D01*
X0248038Y0247063D01*
X0247923Y0247172D01*
X0247810Y0247283D01*
X0247700Y0247397D01*
X0247593Y0247514D01*
X0247489Y0247633D01*
X0247388Y0247755D01*
X0247291Y0247880D01*
X0247196Y0248007D01*
X0247105Y0248136D01*
X0247016Y0248267D01*
X0246932Y0248401D01*
X0246850Y0248537D01*
X0246772Y0248674D01*
X0246698Y0248814D01*
X0246627Y0248956D01*
X0246559Y0249099D01*
X0246495Y0249244D01*
X0246435Y0249390D01*
X0246379Y0249538D01*
X0246326Y0249687D01*
X0246277Y0249838D01*
X0246232Y0249990D01*
X0246191Y0250143D01*
X0246153Y0250296D01*
X0246120Y0250451D01*
X0246090Y0250607D01*
X0246064Y0250763D01*
X0246043Y0250920D01*
X0246025Y0251077D01*
X0246011Y0251235D01*
X0246001Y0251393D01*
X0245995Y0251551D01*
X0245993Y0251709D01*
X0245520Y0086157D02*
X0245522Y0086315D01*
X0245528Y0086473D01*
X0245538Y0086631D01*
X0245552Y0086789D01*
X0245570Y0086946D01*
X0245591Y0087103D01*
X0245617Y0087259D01*
X0245647Y0087415D01*
X0245680Y0087570D01*
X0245718Y0087723D01*
X0245759Y0087876D01*
X0245804Y0088028D01*
X0245853Y0088179D01*
X0245906Y0088328D01*
X0245962Y0088476D01*
X0246022Y0088622D01*
X0246086Y0088767D01*
X0246154Y0088910D01*
X0246225Y0089052D01*
X0246299Y0089192D01*
X0246377Y0089329D01*
X0246459Y0089465D01*
X0246543Y0089599D01*
X0246632Y0089730D01*
X0246723Y0089859D01*
X0246818Y0089986D01*
X0246915Y0090111D01*
X0247016Y0090233D01*
X0247120Y0090352D01*
X0247227Y0090469D01*
X0247337Y0090583D01*
X0247450Y0090694D01*
X0247565Y0090803D01*
X0247683Y0090908D01*
X0247804Y0091010D01*
X0247927Y0091110D01*
X0248053Y0091206D01*
X0248181Y0091299D01*
X0248311Y0091389D01*
X0248444Y0091475D01*
X0248579Y0091559D01*
X0248715Y0091638D01*
X0248854Y0091715D01*
X0248995Y0091787D01*
X0249137Y0091857D01*
X0249281Y0091922D01*
X0249427Y0091984D01*
X0249574Y0092042D01*
X0249723Y0092097D01*
X0249873Y0092148D01*
X0250024Y0092195D01*
X0250176Y0092238D01*
X0250329Y0092277D01*
X0250484Y0092313D01*
X0250639Y0092344D01*
X0250795Y0092372D01*
X0250951Y0092396D01*
X0251108Y0092416D01*
X0251266Y0092432D01*
X0251423Y0092444D01*
X0251582Y0092452D01*
X0251740Y0092456D01*
X0251898Y0092456D01*
X0252056Y0092452D01*
X0252215Y0092444D01*
X0252372Y0092432D01*
X0252530Y0092416D01*
X0252687Y0092396D01*
X0252843Y0092372D01*
X0252999Y0092344D01*
X0253154Y0092313D01*
X0253309Y0092277D01*
X0253462Y0092238D01*
X0253614Y0092195D01*
X0253765Y0092148D01*
X0253915Y0092097D01*
X0254064Y0092042D01*
X0254211Y0091984D01*
X0254357Y0091922D01*
X0254501Y0091857D01*
X0254643Y0091787D01*
X0254784Y0091715D01*
X0254923Y0091638D01*
X0255059Y0091559D01*
X0255194Y0091475D01*
X0255327Y0091389D01*
X0255457Y0091299D01*
X0255585Y0091206D01*
X0255711Y0091110D01*
X0255834Y0091010D01*
X0255955Y0090908D01*
X0256073Y0090803D01*
X0256188Y0090694D01*
X0256301Y0090583D01*
X0256411Y0090469D01*
X0256518Y0090352D01*
X0256622Y0090233D01*
X0256723Y0090111D01*
X0256820Y0089986D01*
X0256915Y0089859D01*
X0257006Y0089730D01*
X0257095Y0089599D01*
X0257179Y0089465D01*
X0257261Y0089329D01*
X0257339Y0089192D01*
X0257413Y0089052D01*
X0257484Y0088910D01*
X0257552Y0088767D01*
X0257616Y0088622D01*
X0257676Y0088476D01*
X0257732Y0088328D01*
X0257785Y0088179D01*
X0257834Y0088028D01*
X0257879Y0087876D01*
X0257920Y0087723D01*
X0257958Y0087570D01*
X0257991Y0087415D01*
X0258021Y0087259D01*
X0258047Y0087103D01*
X0258068Y0086946D01*
X0258086Y0086789D01*
X0258100Y0086631D01*
X0258110Y0086473D01*
X0258116Y0086315D01*
X0258118Y0086157D01*
X0258116Y0085999D01*
X0258110Y0085841D01*
X0258100Y0085683D01*
X0258086Y0085525D01*
X0258068Y0085368D01*
X0258047Y0085211D01*
X0258021Y0085055D01*
X0257991Y0084899D01*
X0257958Y0084744D01*
X0257920Y0084591D01*
X0257879Y0084438D01*
X0257834Y0084286D01*
X0257785Y0084135D01*
X0257732Y0083986D01*
X0257676Y0083838D01*
X0257616Y0083692D01*
X0257552Y0083547D01*
X0257484Y0083404D01*
X0257413Y0083262D01*
X0257339Y0083122D01*
X0257261Y0082985D01*
X0257179Y0082849D01*
X0257095Y0082715D01*
X0257006Y0082584D01*
X0256915Y0082455D01*
X0256820Y0082328D01*
X0256723Y0082203D01*
X0256622Y0082081D01*
X0256518Y0081962D01*
X0256411Y0081845D01*
X0256301Y0081731D01*
X0256188Y0081620D01*
X0256073Y0081511D01*
X0255955Y0081406D01*
X0255834Y0081304D01*
X0255711Y0081204D01*
X0255585Y0081108D01*
X0255457Y0081015D01*
X0255327Y0080925D01*
X0255194Y0080839D01*
X0255059Y0080755D01*
X0254923Y0080676D01*
X0254784Y0080599D01*
X0254643Y0080527D01*
X0254501Y0080457D01*
X0254357Y0080392D01*
X0254211Y0080330D01*
X0254064Y0080272D01*
X0253915Y0080217D01*
X0253765Y0080166D01*
X0253614Y0080119D01*
X0253462Y0080076D01*
X0253309Y0080037D01*
X0253154Y0080001D01*
X0252999Y0079970D01*
X0252843Y0079942D01*
X0252687Y0079918D01*
X0252530Y0079898D01*
X0252372Y0079882D01*
X0252215Y0079870D01*
X0252056Y0079862D01*
X0251898Y0079858D01*
X0251740Y0079858D01*
X0251582Y0079862D01*
X0251423Y0079870D01*
X0251266Y0079882D01*
X0251108Y0079898D01*
X0250951Y0079918D01*
X0250795Y0079942D01*
X0250639Y0079970D01*
X0250484Y0080001D01*
X0250329Y0080037D01*
X0250176Y0080076D01*
X0250024Y0080119D01*
X0249873Y0080166D01*
X0249723Y0080217D01*
X0249574Y0080272D01*
X0249427Y0080330D01*
X0249281Y0080392D01*
X0249137Y0080457D01*
X0248995Y0080527D01*
X0248854Y0080599D01*
X0248715Y0080676D01*
X0248579Y0080755D01*
X0248444Y0080839D01*
X0248311Y0080925D01*
X0248181Y0081015D01*
X0248053Y0081108D01*
X0247927Y0081204D01*
X0247804Y0081304D01*
X0247683Y0081406D01*
X0247565Y0081511D01*
X0247450Y0081620D01*
X0247337Y0081731D01*
X0247227Y0081845D01*
X0247120Y0081962D01*
X0247016Y0082081D01*
X0246915Y0082203D01*
X0246818Y0082328D01*
X0246723Y0082455D01*
X0246632Y0082584D01*
X0246543Y0082715D01*
X0246459Y0082849D01*
X0246377Y0082985D01*
X0246299Y0083122D01*
X0246225Y0083262D01*
X0246154Y0083404D01*
X0246086Y0083547D01*
X0246022Y0083692D01*
X0245962Y0083838D01*
X0245906Y0083986D01*
X0245853Y0084135D01*
X0245804Y0084286D01*
X0245759Y0084438D01*
X0245718Y0084591D01*
X0245680Y0084744D01*
X0245647Y0084899D01*
X0245617Y0085055D01*
X0245591Y0085211D01*
X0245570Y0085368D01*
X0245552Y0085525D01*
X0245538Y0085683D01*
X0245528Y0085841D01*
X0245522Y0085999D01*
X0245520Y0086157D01*
D11*
X0194988Y0220933D02*
X0194988Y0226933D01*
X0184988Y0226933D02*
X0184988Y0220933D01*
X0174988Y0220933D02*
X0174988Y0226933D01*
X0129988Y0226933D02*
X0129988Y0220933D01*
X0119988Y0220933D02*
X0119988Y0226933D01*
X0109988Y0226933D02*
X0109988Y0220933D01*
X0064988Y0220933D02*
X0064988Y0226933D01*
X0054988Y0226933D02*
X0054988Y0220933D01*
X0044988Y0220933D02*
X0044988Y0226933D01*
D12*
X0044988Y0151533D02*
X0044988Y0146333D01*
X0034988Y0146333D02*
X0034988Y0151533D01*
X0054988Y0151533D02*
X0054988Y0146333D01*
X0064988Y0146333D02*
X0064988Y0151533D01*
X0074988Y0151533D02*
X0074988Y0146333D01*
X0084988Y0146333D02*
X0084988Y0151533D01*
X0094988Y0151533D02*
X0094988Y0146333D01*
X0124988Y0146533D02*
X0124988Y0141333D01*
X0134988Y0141333D02*
X0134988Y0146533D01*
X0144988Y0146533D02*
X0144988Y0141333D01*
X0154988Y0141333D02*
X0154988Y0146533D01*
X0164988Y0146533D02*
X0164988Y0141333D01*
X0174988Y0141333D02*
X0174988Y0146533D01*
X0184988Y0146533D02*
X0184988Y0141333D01*
X0194988Y0141333D02*
X0194988Y0146533D01*
X0194988Y0116533D02*
X0194988Y0111333D01*
X0184988Y0111333D02*
X0184988Y0116533D01*
X0174988Y0116533D02*
X0174988Y0111333D01*
X0164988Y0111333D02*
X0164988Y0116533D01*
X0154988Y0116533D02*
X0154988Y0111333D01*
X0144988Y0111333D02*
X0144988Y0116533D01*
X0134988Y0116533D02*
X0134988Y0111333D01*
X0124988Y0111333D02*
X0124988Y0116533D01*
X0094988Y0116333D02*
X0094988Y0121533D01*
X0084988Y0121533D02*
X0084988Y0116333D01*
X0074988Y0116333D02*
X0074988Y0121533D01*
X0064988Y0121533D02*
X0064988Y0116333D01*
X0054988Y0116333D02*
X0054988Y0121533D01*
X0044988Y0121533D02*
X0044988Y0116333D01*
X0034988Y0116333D02*
X0034988Y0121533D01*
D13*
X0054988Y0083683D03*
X0064988Y0083683D03*
X0074988Y0083683D03*
D14*
X0038416Y0169058D03*
X0032511Y0169058D03*
D15*
X0031642Y0178933D03*
X0038335Y0178933D03*
D16*
X0124988Y0168933D03*
X0134988Y0168933D03*
X0144988Y0168933D03*
X0154988Y0168933D03*
X0164988Y0168933D03*
X0174988Y0168933D03*
X0184988Y0168933D03*
X0184988Y0158933D03*
X0174988Y0158933D03*
X0164988Y0158933D03*
X0154988Y0158933D03*
X0144988Y0158933D03*
X0134988Y0158933D03*
X0124988Y0158933D03*
X0124988Y0083933D03*
X0134988Y0083933D03*
X0144988Y0083933D03*
X0154988Y0083933D03*
X0164988Y0083933D03*
X0174988Y0083933D03*
X0184988Y0083933D03*
D17*
X0232488Y0223933D03*
X0242488Y0223933D03*
X0194988Y0241433D03*
X0184988Y0241433D03*
X0129988Y0241433D03*
X0119988Y0241433D03*
X0064988Y0241433D03*
X0054988Y0241433D03*
D18*
X0234988Y0189799D03*
X0234988Y0176020D03*
X0234988Y0162240D03*
X0234988Y0134799D03*
X0234988Y0121020D03*
X0234988Y0107240D03*
D19*
X0234804Y0107390D02*
X0196942Y0107390D01*
X0196677Y0107255D02*
X0197295Y0107570D01*
X0197855Y0107977D01*
X0198345Y0108467D01*
X0198752Y0109027D01*
X0199066Y0109644D01*
X0199280Y0110303D01*
X0199388Y0110987D01*
X0199388Y0113933D01*
X0194989Y0113933D01*
X0194989Y0113933D01*
X0199388Y0113933D01*
X0199388Y0116879D01*
X0199280Y0117563D01*
X0199066Y0118222D01*
X0198752Y0118839D01*
X0198345Y0119399D01*
X0197855Y0119889D01*
X0197295Y0120296D01*
X0196677Y0120611D01*
X0196019Y0120825D01*
X0195335Y0120933D01*
X0194989Y0120933D01*
X0194989Y0113933D01*
X0194989Y0106933D01*
X0195335Y0106933D01*
X0196019Y0107041D01*
X0196677Y0107255D01*
X0194989Y0107390D02*
X0194988Y0107390D01*
X0194988Y0106933D02*
X0194988Y0113933D01*
X0190588Y0113933D01*
X0190588Y0110987D01*
X0190697Y0110303D01*
X0190911Y0109644D01*
X0191225Y0109027D01*
X0191632Y0108467D01*
X0192122Y0107977D01*
X0192682Y0107570D01*
X0193299Y0107255D01*
X0193958Y0107041D01*
X0194642Y0106933D01*
X0194988Y0106933D01*
X0193035Y0107390D02*
X0188117Y0107390D01*
X0187821Y0107094D02*
X0189227Y0108501D01*
X0189988Y0110338D01*
X0189988Y0117528D01*
X0189227Y0119365D01*
X0187821Y0120772D01*
X0185983Y0121533D01*
X0183994Y0121533D01*
X0182156Y0120772D01*
X0180750Y0119365D01*
X0179988Y0117528D01*
X0179227Y0119365D01*
X0177821Y0120772D01*
X0175983Y0121533D01*
X0173994Y0121533D01*
X0172156Y0120772D01*
X0170750Y0119365D01*
X0169988Y0117528D01*
X0169227Y0119365D01*
X0167821Y0120772D01*
X0165983Y0121533D01*
X0163994Y0121533D01*
X0162156Y0120772D01*
X0160750Y0119365D01*
X0159988Y0117528D01*
X0159227Y0119365D01*
X0157821Y0120772D01*
X0155983Y0121533D01*
X0153994Y0121533D01*
X0152156Y0120772D01*
X0150750Y0119365D01*
X0149988Y0117528D01*
X0149227Y0119365D01*
X0147821Y0120772D01*
X0145983Y0121533D01*
X0143994Y0121533D01*
X0142156Y0120772D01*
X0140750Y0119365D01*
X0139988Y0117528D01*
X0139227Y0119365D01*
X0137821Y0120772D01*
X0135983Y0121533D01*
X0133994Y0121533D01*
X0132156Y0120772D01*
X0130750Y0119365D01*
X0129988Y0117528D01*
X0129227Y0119365D01*
X0127821Y0120772D01*
X0125983Y0121533D01*
X0123994Y0121533D01*
X0122156Y0120772D01*
X0120750Y0119365D01*
X0119988Y0117528D01*
X0119988Y0110338D01*
X0120750Y0108501D01*
X0122156Y0107094D01*
X0123994Y0106333D01*
X0125983Y0106333D01*
X0127821Y0107094D01*
X0129227Y0108501D01*
X0129988Y0110338D01*
X0130750Y0108501D01*
X0132156Y0107094D01*
X0133994Y0106333D01*
X0135983Y0106333D01*
X0137821Y0107094D01*
X0139227Y0108501D01*
X0139988Y0110338D01*
X0140750Y0108501D01*
X0142156Y0107094D01*
X0143994Y0106333D01*
X0145983Y0106333D01*
X0147821Y0107094D01*
X0149227Y0108501D01*
X0149988Y0110338D01*
X0150750Y0108501D01*
X0152156Y0107094D01*
X0153994Y0106333D01*
X0155983Y0106333D01*
X0157821Y0107094D01*
X0159227Y0108501D01*
X0159988Y0110338D01*
X0159988Y0117528D01*
X0159988Y0110338D01*
X0160750Y0108501D01*
X0162156Y0107094D01*
X0163994Y0106333D01*
X0165983Y0106333D01*
X0167821Y0107094D01*
X0169227Y0108501D01*
X0169988Y0110338D01*
X0170750Y0108501D01*
X0172156Y0107094D01*
X0173994Y0106333D01*
X0175983Y0106333D01*
X0177821Y0107094D01*
X0179227Y0108501D01*
X0179988Y0110338D01*
X0180750Y0108501D01*
X0182156Y0107094D01*
X0183994Y0106333D01*
X0185983Y0106333D01*
X0187821Y0107094D01*
X0189429Y0108989D02*
X0191253Y0108989D01*
X0190652Y0110587D02*
X0189988Y0110587D01*
X0189988Y0112186D02*
X0190588Y0112186D01*
X0190588Y0113784D02*
X0189988Y0113784D01*
X0190588Y0113933D02*
X0194988Y0113933D01*
X0194988Y0113933D01*
X0194989Y0113933D01*
X0194988Y0113933D01*
X0194988Y0120933D01*
X0194642Y0120933D01*
X0193958Y0120825D01*
X0193299Y0120611D01*
X0192682Y0120296D01*
X0192122Y0119889D01*
X0191632Y0119399D01*
X0191225Y0118839D01*
X0190911Y0118222D01*
X0190697Y0117563D01*
X0190588Y0116879D01*
X0190588Y0113933D01*
X0190588Y0115383D02*
X0189988Y0115383D01*
X0189988Y0116981D02*
X0190605Y0116981D01*
X0191093Y0118580D02*
X0189553Y0118580D01*
X0188414Y0120178D02*
X0192520Y0120178D01*
X0194988Y0120178D02*
X0194989Y0120178D01*
X0194988Y0118580D02*
X0194989Y0118580D01*
X0194988Y0116981D02*
X0194989Y0116981D01*
X0194988Y0115383D02*
X0194989Y0115383D01*
X0194988Y0113784D02*
X0194989Y0113784D01*
X0194988Y0112186D02*
X0194989Y0112186D01*
X0194988Y0110587D02*
X0194989Y0110587D01*
X0194988Y0108989D02*
X0194989Y0108989D01*
X0198724Y0108989D02*
X0229143Y0108989D01*
X0229039Y0108669D02*
X0229335Y0109582D01*
X0229771Y0110437D01*
X0230336Y0111214D01*
X0231015Y0111893D01*
X0231791Y0112457D01*
X0232647Y0112893D01*
X0233560Y0113190D01*
X0234508Y0113340D01*
X0234804Y0113340D01*
X0234804Y0107424D01*
X0234804Y0107056D01*
X0228888Y0107056D01*
X0228888Y0106760D01*
X0229039Y0105812D01*
X0229335Y0104899D01*
X0229771Y0104043D01*
X0230336Y0103266D01*
X0231015Y0102587D01*
X0231791Y0102023D01*
X0232647Y0101587D01*
X0233560Y0101290D01*
X0234508Y0101140D01*
X0234804Y0101140D01*
X0234804Y0107056D01*
X0235173Y0107056D01*
X0235173Y0107424D01*
X0241088Y0107424D01*
X0241088Y0107720D01*
X0240938Y0108669D01*
X0240642Y0109582D01*
X0240206Y0110437D01*
X0239641Y0111214D01*
X0238962Y0111893D01*
X0238186Y0112457D01*
X0237330Y0112893D01*
X0236417Y0113190D01*
X0235469Y0113340D01*
X0235173Y0113340D01*
X0235173Y0107424D01*
X0234804Y0107424D01*
X0228888Y0107424D01*
X0228888Y0107720D01*
X0229039Y0108669D01*
X0229880Y0110587D02*
X0199325Y0110587D01*
X0199388Y0112186D02*
X0231418Y0112186D01*
X0233119Y0113784D02*
X0199388Y0113784D01*
X0199388Y0115383D02*
X0230160Y0115383D01*
X0230797Y0114746D02*
X0228715Y0116828D01*
X0227588Y0119548D01*
X0227588Y0122492D01*
X0228715Y0125211D01*
X0230797Y0127293D01*
X0232285Y0127909D01*
X0231827Y0128099D01*
X0200290Y0128099D01*
X0197827Y0129119D01*
X0195942Y0131004D01*
X0189309Y0137638D01*
X0189032Y0138305D01*
X0187821Y0137094D01*
X0185983Y0136333D01*
X0183994Y0136333D01*
X0182156Y0137094D01*
X0180750Y0138501D01*
X0179988Y0140338D01*
X0179988Y0147528D01*
X0179888Y0147769D01*
X0179888Y0155772D01*
X0179988Y0155872D01*
X0180088Y0155772D01*
X0180088Y0147769D01*
X0179988Y0147528D01*
X0179988Y0140338D01*
X0179227Y0138501D01*
X0177821Y0137094D01*
X0175983Y0136333D01*
X0173994Y0136333D01*
X0172156Y0137094D01*
X0170750Y0138501D01*
X0169988Y0140338D01*
X0169988Y0147528D01*
X0169888Y0147769D01*
X0169888Y0155772D01*
X0169988Y0155872D01*
X0170088Y0155772D01*
X0170088Y0147769D01*
X0169988Y0147528D01*
X0169988Y0140338D01*
X0169227Y0138501D01*
X0167821Y0137094D01*
X0165983Y0136333D01*
X0163994Y0136333D01*
X0162156Y0137094D01*
X0160750Y0138501D01*
X0159988Y0140338D01*
X0159988Y0147528D01*
X0159888Y0147769D01*
X0159888Y0155772D01*
X0159988Y0155872D01*
X0160088Y0155772D01*
X0160088Y0147769D01*
X0159988Y0147528D01*
X0159988Y0140338D01*
X0159227Y0138501D01*
X0157821Y0137094D01*
X0155983Y0136333D01*
X0153994Y0136333D01*
X0152156Y0137094D01*
X0150750Y0138501D01*
X0149988Y0140338D01*
X0149988Y0147528D01*
X0149888Y0147769D01*
X0149888Y0155772D01*
X0149988Y0155872D01*
X0150088Y0155772D01*
X0150088Y0147769D01*
X0149988Y0147528D01*
X0149988Y0140338D01*
X0149227Y0138501D01*
X0147821Y0137094D01*
X0145983Y0136333D01*
X0143994Y0136333D01*
X0142156Y0137094D01*
X0140750Y0138501D01*
X0139988Y0140338D01*
X0139988Y0147528D01*
X0139888Y0147769D01*
X0139888Y0155772D01*
X0139988Y0155872D01*
X0140088Y0155772D01*
X0140088Y0147769D01*
X0139988Y0147528D01*
X0139988Y0140338D01*
X0139227Y0138501D01*
X0137821Y0137094D01*
X0135983Y0136333D01*
X0133994Y0136333D01*
X0132156Y0137094D01*
X0130750Y0138501D01*
X0129988Y0140338D01*
X0129988Y0147528D01*
X0129888Y0147769D01*
X0129888Y0155772D01*
X0129988Y0155872D01*
X0130088Y0155772D01*
X0130088Y0147769D01*
X0129988Y0147528D01*
X0129988Y0140338D01*
X0129227Y0138501D01*
X0127821Y0137094D01*
X0125983Y0136333D01*
X0123994Y0136333D01*
X0122156Y0137094D01*
X0120750Y0138501D01*
X0119988Y0140338D01*
X0119988Y0147528D01*
X0120088Y0147769D01*
X0120088Y0155772D01*
X0119288Y0156572D01*
X0119288Y0161294D01*
X0121232Y0163237D01*
X0121193Y0163253D01*
X0119309Y0165138D01*
X0118588Y0166876D01*
X0118588Y0158217D01*
X0118040Y0156894D01*
X0117028Y0155881D01*
X0107028Y0145881D01*
X0105705Y0145333D01*
X0099986Y0145333D01*
X0099227Y0143501D01*
X0097821Y0142094D01*
X0095983Y0141333D01*
X0093994Y0141333D01*
X0092156Y0142094D01*
X0090750Y0143501D01*
X0089988Y0145338D01*
X0089988Y0152528D01*
X0089227Y0154365D01*
X0087821Y0155772D01*
X0085983Y0156533D01*
X0083994Y0156533D01*
X0082156Y0155772D01*
X0080750Y0154365D01*
X0079988Y0152528D01*
X0079227Y0154365D01*
X0077821Y0155772D01*
X0075983Y0156533D01*
X0073994Y0156533D01*
X0072156Y0155772D01*
X0070750Y0154365D01*
X0069988Y0152528D01*
X0069988Y0145338D01*
X0070750Y0143501D01*
X0071788Y0142462D01*
X0071788Y0138297D01*
X0072276Y0137120D01*
X0073176Y0136220D01*
X0076788Y0132608D01*
X0076788Y0126199D01*
X0075983Y0126533D01*
X0073994Y0126533D01*
X0072156Y0125772D01*
X0070750Y0124365D01*
X0069988Y0122528D01*
X0069227Y0124365D01*
X0068988Y0124604D01*
X0068988Y0129729D01*
X0068380Y0131199D01*
X0063380Y0136199D01*
X0062254Y0137324D01*
X0060784Y0137933D01*
X0031645Y0137933D01*
X0028988Y0140590D01*
X0028988Y0174454D01*
X0029196Y0174368D01*
X0034088Y0174368D01*
X0034735Y0174636D01*
X0034735Y0172322D01*
X0034323Y0172433D01*
X0032511Y0172433D01*
X0032511Y0169058D01*
X0032511Y0165683D01*
X0034323Y0165683D01*
X0034780Y0165806D01*
X0034999Y0165932D01*
X0035482Y0165449D01*
X0036364Y0165083D01*
X0040468Y0165083D01*
X0041351Y0165449D01*
X0042026Y0166124D01*
X0042391Y0167006D01*
X0042391Y0171110D01*
X0042026Y0171992D01*
X0041935Y0172083D01*
X0041935Y0175005D01*
X0042338Y0175408D01*
X0042703Y0176290D01*
X0042703Y0181576D01*
X0042338Y0182458D01*
X0041663Y0183133D01*
X0040781Y0183498D01*
X0035889Y0183498D01*
X0035007Y0183133D01*
X0034988Y0183115D01*
X0034970Y0183133D01*
X0034088Y0183498D01*
X0029196Y0183498D01*
X0028988Y0183412D01*
X0028988Y0227276D01*
X0051645Y0249933D01*
X0057588Y0249933D01*
X0057588Y0247461D01*
X0057786Y0246985D01*
X0056222Y0247633D01*
X0053755Y0247633D01*
X0051476Y0246689D01*
X0049732Y0244945D01*
X0048788Y0242666D01*
X0048788Y0229869D01*
X0048650Y0230060D01*
X0048115Y0230594D01*
X0047504Y0231038D01*
X0046831Y0231381D01*
X0046112Y0231615D01*
X0045366Y0231733D01*
X0045188Y0231733D01*
X0045188Y0224133D01*
X0044788Y0224133D01*
X0044788Y0223733D01*
X0040188Y0223733D01*
X0040188Y0220555D01*
X0040307Y0219809D01*
X0040540Y0219091D01*
X0040883Y0218417D01*
X0041327Y0217806D01*
X0041861Y0217272D01*
X0042473Y0216828D01*
X0043146Y0216485D01*
X0043864Y0216251D01*
X0044611Y0216133D01*
X0044788Y0216133D01*
X0044788Y0223733D01*
X0045188Y0223733D01*
X0045188Y0216133D01*
X0045366Y0216133D01*
X0046112Y0216251D01*
X0046831Y0216485D01*
X0047504Y0216828D01*
X0048115Y0217272D01*
X0048650Y0217806D01*
X0049094Y0218417D01*
X0049437Y0219091D01*
X0049643Y0219726D01*
X0050411Y0217874D01*
X0051930Y0216355D01*
X0053914Y0215533D01*
X0056063Y0215533D01*
X0058047Y0216355D01*
X0059566Y0217874D01*
X0059988Y0218893D01*
X0060411Y0217874D01*
X0061930Y0216355D01*
X0063914Y0215533D01*
X0066063Y0215533D01*
X0068047Y0216355D01*
X0069566Y0217874D01*
X0070388Y0219859D01*
X0070388Y0228007D01*
X0069566Y0229992D01*
X0068047Y0231511D01*
X0066063Y0232333D01*
X0063914Y0232333D01*
X0061930Y0231511D01*
X0061188Y0230770D01*
X0061188Y0236465D01*
X0061476Y0236177D01*
X0063755Y0235233D01*
X0066222Y0235233D01*
X0068500Y0236177D01*
X0070245Y0237921D01*
X0071188Y0240200D01*
X0071188Y0244668D01*
X0073054Y0246533D01*
X0116320Y0246533D01*
X0114732Y0244945D01*
X0113788Y0242666D01*
X0113788Y0229869D01*
X0113650Y0230060D01*
X0113115Y0230594D01*
X0112504Y0231038D01*
X0111831Y0231381D01*
X0111112Y0231615D01*
X0110366Y0231733D01*
X0110188Y0231733D01*
X0110188Y0224133D01*
X0109788Y0224133D01*
X0109788Y0223733D01*
X0105188Y0223733D01*
X0105188Y0220555D01*
X0105307Y0219809D01*
X0105540Y0219091D01*
X0105883Y0218417D01*
X0106327Y0217806D01*
X0106861Y0217272D01*
X0107473Y0216828D01*
X0108146Y0216485D01*
X0108864Y0216251D01*
X0109611Y0216133D01*
X0109788Y0216133D01*
X0109788Y0223733D01*
X0110188Y0223733D01*
X0110188Y0216133D01*
X0110366Y0216133D01*
X0111112Y0216251D01*
X0111831Y0216485D01*
X0112504Y0216828D01*
X0113115Y0217272D01*
X0113650Y0217806D01*
X0114094Y0218417D01*
X0114437Y0219091D01*
X0114643Y0219726D01*
X0115411Y0217874D01*
X0116930Y0216355D01*
X0118914Y0215533D01*
X0121063Y0215533D01*
X0123047Y0216355D01*
X0124566Y0217874D01*
X0124988Y0218893D01*
X0125411Y0217874D01*
X0126930Y0216355D01*
X0128914Y0215533D01*
X0131063Y0215533D01*
X0133047Y0216355D01*
X0134566Y0217874D01*
X0135388Y0219859D01*
X0135388Y0228007D01*
X0134566Y0229992D01*
X0133047Y0231511D01*
X0131063Y0232333D01*
X0128914Y0232333D01*
X0126930Y0231511D01*
X0126188Y0230770D01*
X0126188Y0236465D01*
X0126476Y0236177D01*
X0128755Y0235233D01*
X0131222Y0235233D01*
X0133500Y0236177D01*
X0135245Y0237921D01*
X0136188Y0240200D01*
X0136188Y0246533D01*
X0181320Y0246533D01*
X0179732Y0244945D01*
X0178788Y0242666D01*
X0178788Y0229869D01*
X0178650Y0230060D01*
X0178115Y0230594D01*
X0177504Y0231038D01*
X0176831Y0231381D01*
X0176112Y0231615D01*
X0175366Y0231733D01*
X0175188Y0231733D01*
X0175188Y0224133D01*
X0174788Y0224133D01*
X0174788Y0223733D01*
X0170188Y0223733D01*
X0170188Y0220555D01*
X0170307Y0219809D01*
X0170540Y0219091D01*
X0170883Y0218417D01*
X0171327Y0217806D01*
X0171861Y0217272D01*
X0172473Y0216828D01*
X0173146Y0216485D01*
X0173864Y0216251D01*
X0174611Y0216133D01*
X0174788Y0216133D01*
X0174788Y0223733D01*
X0175188Y0223733D01*
X0175188Y0216133D01*
X0175366Y0216133D01*
X0176112Y0216251D01*
X0176831Y0216485D01*
X0177504Y0216828D01*
X0178115Y0217272D01*
X0178650Y0217806D01*
X0179094Y0218417D01*
X0179437Y0219091D01*
X0179643Y0219726D01*
X0180411Y0217874D01*
X0181930Y0216355D01*
X0183914Y0215533D01*
X0186063Y0215533D01*
X0188047Y0216355D01*
X0189566Y0217874D01*
X0189988Y0218893D01*
X0190411Y0217874D01*
X0191388Y0216896D01*
X0191388Y0200424D01*
X0178497Y0187533D01*
X0119272Y0187533D01*
X0117949Y0186985D01*
X0116937Y0185972D01*
X0111937Y0180972D01*
X0111388Y0179649D01*
X0111388Y0160424D01*
X0103497Y0152533D01*
X0099986Y0152533D01*
X0099227Y0154365D01*
X0097821Y0155772D01*
X0095983Y0156533D01*
X0093994Y0156533D01*
X0092156Y0155772D01*
X0090750Y0154365D01*
X0089988Y0152528D01*
X0089988Y0145338D01*
X0089227Y0143501D01*
X0087821Y0142094D01*
X0085983Y0141333D01*
X0083994Y0141333D01*
X0082156Y0142094D01*
X0080750Y0143501D01*
X0079988Y0145338D01*
X0079988Y0152528D01*
X0079988Y0145338D01*
X0079227Y0143501D01*
X0078188Y0142462D01*
X0078188Y0140259D01*
X0082701Y0135746D01*
X0083188Y0134570D01*
X0083188Y0126199D01*
X0083994Y0126533D01*
X0085983Y0126533D01*
X0087821Y0125772D01*
X0089227Y0124365D01*
X0089988Y0122528D01*
X0089988Y0115338D01*
X0090750Y0113501D01*
X0092156Y0112094D01*
X0093994Y0111333D01*
X0095983Y0111333D01*
X0097821Y0112094D01*
X0099227Y0113501D01*
X0099988Y0115338D01*
X0099988Y0122528D01*
X0099227Y0124365D01*
X0097821Y0125772D01*
X0095983Y0126533D01*
X0093994Y0126533D01*
X0092156Y0125772D01*
X0090750Y0124365D01*
X0089988Y0122528D01*
X0089988Y0115338D01*
X0089227Y0113501D01*
X0087821Y0112094D01*
X0085983Y0111333D01*
X0083994Y0111333D01*
X0083188Y0111667D01*
X0083188Y0108297D01*
X0082701Y0107120D01*
X0081801Y0106220D01*
X0078188Y0102608D01*
X0078188Y0088120D01*
X0079566Y0086742D01*
X0080388Y0084757D01*
X0080388Y0082609D01*
X0079566Y0080624D01*
X0078047Y0079105D01*
X0077632Y0078933D01*
X0121927Y0078933D01*
X0119288Y0081572D01*
X0119288Y0086294D01*
X0122627Y0089633D01*
X0127349Y0089633D01*
X0129988Y0086994D01*
X0132627Y0089633D01*
X0137349Y0089633D01*
X0139988Y0086994D01*
X0142627Y0089633D01*
X0147349Y0089633D01*
X0149988Y0086994D01*
X0152627Y0089633D01*
X0157349Y0089633D01*
X0159988Y0086994D01*
X0162627Y0089633D01*
X0167349Y0089633D01*
X0169988Y0086994D01*
X0172627Y0089633D01*
X0177349Y0089633D01*
X0179988Y0086994D01*
X0182627Y0089633D01*
X0187349Y0089633D01*
X0190688Y0086294D01*
X0190688Y0081572D01*
X0188049Y0078933D01*
X0243347Y0078933D01*
X0242938Y0079342D01*
X0241476Y0081873D01*
X0240720Y0084696D01*
X0240720Y0087619D01*
X0241476Y0090442D01*
X0242938Y0092973D01*
X0245004Y0095039D01*
X0247535Y0096500D01*
X0250358Y0097257D01*
X0253280Y0097257D01*
X0256103Y0096500D01*
X0258634Y0095039D01*
X0259988Y0093685D01*
X0259988Y0123468D01*
X0259180Y0122660D01*
X0251267Y0114746D01*
X0248547Y0113620D01*
X0233517Y0113620D01*
X0230797Y0114746D01*
X0228652Y0116981D02*
X0199372Y0116981D01*
X0198884Y0118580D02*
X0227989Y0118580D01*
X0227588Y0120178D02*
X0197457Y0120178D01*
X0200117Y0128171D02*
X0083188Y0128171D01*
X0083188Y0129769D02*
X0197177Y0129769D01*
X0195578Y0131368D02*
X0083188Y0131368D01*
X0083188Y0132966D02*
X0193980Y0132966D01*
X0192381Y0134565D02*
X0083188Y0134565D01*
X0082284Y0136163D02*
X0190783Y0136163D01*
X0189257Y0137762D02*
X0188488Y0137762D01*
X0181489Y0137762D02*
X0178488Y0137762D01*
X0179583Y0139360D02*
X0180394Y0139360D01*
X0179988Y0140959D02*
X0179988Y0140959D01*
X0179988Y0142557D02*
X0179988Y0142557D01*
X0179988Y0144156D02*
X0179988Y0144156D01*
X0179988Y0145754D02*
X0179988Y0145754D01*
X0179988Y0147353D02*
X0179988Y0147353D01*
X0179888Y0148951D02*
X0180088Y0148951D01*
X0180088Y0150550D02*
X0179888Y0150550D01*
X0179888Y0152148D02*
X0180088Y0152148D01*
X0180088Y0153747D02*
X0179888Y0153747D01*
X0179888Y0155345D02*
X0180088Y0155345D01*
X0170088Y0155345D02*
X0169888Y0155345D01*
X0169888Y0153747D02*
X0170088Y0153747D01*
X0170088Y0152148D02*
X0169888Y0152148D01*
X0169888Y0150550D02*
X0170088Y0150550D01*
X0170088Y0148951D02*
X0169888Y0148951D01*
X0169988Y0147353D02*
X0169988Y0147353D01*
X0169988Y0145754D02*
X0169988Y0145754D01*
X0169988Y0144156D02*
X0169988Y0144156D01*
X0169988Y0142557D02*
X0169988Y0142557D01*
X0169988Y0140959D02*
X0169988Y0140959D01*
X0169583Y0139360D02*
X0170394Y0139360D01*
X0171489Y0137762D02*
X0168488Y0137762D01*
X0161489Y0137762D02*
X0158488Y0137762D01*
X0159583Y0139360D02*
X0160394Y0139360D01*
X0159988Y0140959D02*
X0159988Y0140959D01*
X0159988Y0142557D02*
X0159988Y0142557D01*
X0159988Y0144156D02*
X0159988Y0144156D01*
X0159988Y0145754D02*
X0159988Y0145754D01*
X0159988Y0147353D02*
X0159988Y0147353D01*
X0159888Y0148951D02*
X0160088Y0148951D01*
X0160088Y0150550D02*
X0159888Y0150550D01*
X0159888Y0152148D02*
X0160088Y0152148D01*
X0160088Y0153747D02*
X0159888Y0153747D01*
X0159888Y0155345D02*
X0160088Y0155345D01*
X0150088Y0155345D02*
X0149888Y0155345D01*
X0149888Y0153747D02*
X0150088Y0153747D01*
X0150088Y0152148D02*
X0149888Y0152148D01*
X0149888Y0150550D02*
X0150088Y0150550D01*
X0150088Y0148951D02*
X0149888Y0148951D01*
X0149988Y0147353D02*
X0149988Y0147353D01*
X0149988Y0145754D02*
X0149988Y0145754D01*
X0149988Y0144156D02*
X0149988Y0144156D01*
X0149988Y0142557D02*
X0149988Y0142557D01*
X0149988Y0140959D02*
X0149988Y0140959D01*
X0149583Y0139360D02*
X0150394Y0139360D01*
X0151489Y0137762D02*
X0148488Y0137762D01*
X0141489Y0137762D02*
X0138488Y0137762D01*
X0139583Y0139360D02*
X0140394Y0139360D01*
X0139988Y0140959D02*
X0139988Y0140959D01*
X0139988Y0142557D02*
X0139988Y0142557D01*
X0139988Y0144156D02*
X0139988Y0144156D01*
X0139988Y0145754D02*
X0139988Y0145754D01*
X0139988Y0147353D02*
X0139988Y0147353D01*
X0139888Y0148951D02*
X0140088Y0148951D01*
X0140088Y0150550D02*
X0139888Y0150550D01*
X0139888Y0152148D02*
X0140088Y0152148D01*
X0140088Y0153747D02*
X0139888Y0153747D01*
X0139888Y0155345D02*
X0140088Y0155345D01*
X0130088Y0155345D02*
X0129888Y0155345D01*
X0129888Y0153747D02*
X0130088Y0153747D01*
X0130088Y0152148D02*
X0129888Y0152148D01*
X0129888Y0150550D02*
X0130088Y0150550D01*
X0130088Y0148951D02*
X0129888Y0148951D01*
X0129988Y0147353D02*
X0129988Y0147353D01*
X0129988Y0145754D02*
X0129988Y0145754D01*
X0129988Y0144156D02*
X0129988Y0144156D01*
X0129988Y0142557D02*
X0129988Y0142557D01*
X0129988Y0140959D02*
X0129988Y0140959D01*
X0129583Y0139360D02*
X0130394Y0139360D01*
X0131489Y0137762D02*
X0128488Y0137762D01*
X0121489Y0137762D02*
X0080685Y0137762D01*
X0079087Y0139360D02*
X0120394Y0139360D01*
X0119988Y0140959D02*
X0078188Y0140959D01*
X0078284Y0142557D02*
X0081693Y0142557D01*
X0080478Y0144156D02*
X0079499Y0144156D01*
X0079988Y0145754D02*
X0079988Y0145754D01*
X0079988Y0147353D02*
X0079988Y0147353D01*
X0079988Y0148951D02*
X0079988Y0148951D01*
X0079988Y0150550D02*
X0079988Y0150550D01*
X0079988Y0152148D02*
X0079988Y0152148D01*
X0079483Y0153747D02*
X0080494Y0153747D01*
X0081730Y0155345D02*
X0078247Y0155345D01*
X0071730Y0155345D02*
X0067198Y0155345D01*
X0067295Y0155296D02*
X0066677Y0155611D01*
X0066019Y0155825D01*
X0065335Y0155933D01*
X0064989Y0155933D01*
X0064989Y0148933D01*
X0064989Y0148933D01*
X0069388Y0148933D01*
X0069388Y0145987D01*
X0069280Y0145303D01*
X0069066Y0144644D01*
X0068752Y0144027D01*
X0068345Y0143467D01*
X0067855Y0142977D01*
X0067295Y0142570D01*
X0066677Y0142255D01*
X0066019Y0142041D01*
X0065335Y0141933D01*
X0064989Y0141933D01*
X0064989Y0148933D01*
X0069388Y0148933D01*
X0069388Y0151879D01*
X0069280Y0152563D01*
X0069066Y0153222D01*
X0068752Y0153839D01*
X0068345Y0154399D01*
X0067855Y0154889D01*
X0067295Y0155296D01*
X0068799Y0153747D02*
X0070494Y0153747D01*
X0069988Y0152148D02*
X0069346Y0152148D01*
X0069388Y0150550D02*
X0069988Y0150550D01*
X0069988Y0148951D02*
X0069388Y0148951D01*
X0069388Y0147353D02*
X0069988Y0147353D01*
X0069988Y0145754D02*
X0069352Y0145754D01*
X0068817Y0144156D02*
X0070478Y0144156D01*
X0071693Y0142557D02*
X0067270Y0142557D01*
X0064989Y0142557D02*
X0064988Y0142557D01*
X0064988Y0141933D02*
X0064988Y0148933D01*
X0060588Y0148933D01*
X0060588Y0145987D01*
X0060697Y0145303D01*
X0060911Y0144644D01*
X0061225Y0144027D01*
X0061632Y0143467D01*
X0062122Y0142977D01*
X0062682Y0142570D01*
X0063299Y0142255D01*
X0063958Y0142041D01*
X0064642Y0141933D01*
X0064988Y0141933D01*
X0064988Y0144156D02*
X0064989Y0144156D01*
X0064988Y0145754D02*
X0064989Y0145754D01*
X0064988Y0147353D02*
X0064989Y0147353D01*
X0064988Y0148933D02*
X0064989Y0148933D01*
X0064988Y0148933D01*
X0064988Y0148933D01*
X0060588Y0148933D01*
X0060588Y0151879D01*
X0060697Y0152563D01*
X0060911Y0153222D01*
X0061225Y0153839D01*
X0061632Y0154399D01*
X0062122Y0154889D01*
X0062682Y0155296D01*
X0063299Y0155611D01*
X0063958Y0155825D01*
X0064642Y0155933D01*
X0064988Y0155933D01*
X0064988Y0148933D01*
X0064988Y0148951D02*
X0064989Y0148951D01*
X0064988Y0150550D02*
X0064989Y0150550D01*
X0064988Y0152148D02*
X0064989Y0152148D01*
X0064988Y0153747D02*
X0064989Y0153747D01*
X0064988Y0155345D02*
X0064989Y0155345D01*
X0062779Y0155345D02*
X0058247Y0155345D01*
X0057821Y0155772D02*
X0055983Y0156533D01*
X0053994Y0156533D01*
X0052156Y0155772D01*
X0050750Y0154365D01*
X0049988Y0152528D01*
X0049227Y0154365D01*
X0047821Y0155772D01*
X0045983Y0156533D01*
X0043994Y0156533D01*
X0042156Y0155772D01*
X0040750Y0154365D01*
X0039988Y0152528D01*
X0039227Y0154365D01*
X0037821Y0155772D01*
X0035983Y0156533D01*
X0033994Y0156533D01*
X0032156Y0155772D01*
X0030750Y0154365D01*
X0029988Y0152528D01*
X0029988Y0145338D01*
X0030750Y0143501D01*
X0032156Y0142094D01*
X0033994Y0141333D01*
X0035983Y0141333D01*
X0037821Y0142094D01*
X0039227Y0143501D01*
X0039988Y0145338D01*
X0039988Y0152528D01*
X0039988Y0145338D01*
X0040750Y0143501D01*
X0042156Y0142094D01*
X0043994Y0141333D01*
X0045983Y0141333D01*
X0047821Y0142094D01*
X0049227Y0143501D01*
X0049988Y0145338D01*
X0049988Y0152528D01*
X0049988Y0145338D01*
X0050750Y0143501D01*
X0052156Y0142094D01*
X0053994Y0141333D01*
X0055983Y0141333D01*
X0057821Y0142094D01*
X0059227Y0143501D01*
X0059988Y0145338D01*
X0059988Y0152528D01*
X0059227Y0154365D01*
X0057821Y0155772D01*
X0059483Y0153747D02*
X0061178Y0153747D01*
X0060631Y0152148D02*
X0059988Y0152148D01*
X0059988Y0150550D02*
X0060588Y0150550D01*
X0060588Y0148951D02*
X0059988Y0148951D01*
X0059988Y0147353D02*
X0060588Y0147353D01*
X0060625Y0145754D02*
X0059988Y0145754D01*
X0059499Y0144156D02*
X0061160Y0144156D01*
X0062707Y0142557D02*
X0058284Y0142557D01*
X0061197Y0137762D02*
X0072010Y0137762D01*
X0071788Y0139360D02*
X0030218Y0139360D01*
X0028988Y0140959D02*
X0071788Y0140959D01*
X0074988Y0138933D02*
X0074988Y0148933D01*
X0074988Y0138933D02*
X0079988Y0133933D01*
X0079988Y0108933D01*
X0074988Y0103933D01*
X0074988Y0083683D01*
X0080059Y0081814D02*
X0119288Y0081814D01*
X0119288Y0083412D02*
X0080388Y0083412D01*
X0080283Y0085011D02*
X0119288Y0085011D01*
X0119604Y0086610D02*
X0079621Y0086610D01*
X0078188Y0088208D02*
X0121202Y0088208D01*
X0128775Y0088208D02*
X0131202Y0088208D01*
X0138775Y0088208D02*
X0141202Y0088208D01*
X0148775Y0088208D02*
X0151202Y0088208D01*
X0158775Y0088208D02*
X0161202Y0088208D01*
X0168775Y0088208D02*
X0171202Y0088208D01*
X0178775Y0088208D02*
X0181202Y0088208D01*
X0188775Y0088208D02*
X0240878Y0088208D01*
X0240720Y0086610D02*
X0190373Y0086610D01*
X0190688Y0085011D02*
X0240720Y0085011D01*
X0241064Y0083412D02*
X0190688Y0083412D01*
X0190688Y0081814D02*
X0241511Y0081814D01*
X0242434Y0080215D02*
X0189332Y0080215D01*
X0181860Y0107390D02*
X0178117Y0107390D01*
X0179429Y0108989D02*
X0180548Y0108989D01*
X0179988Y0110338D02*
X0179988Y0117528D01*
X0179988Y0110338D01*
X0179988Y0110587D02*
X0179988Y0110587D01*
X0179988Y0112186D02*
X0179988Y0112186D01*
X0179988Y0113784D02*
X0179988Y0113784D01*
X0179988Y0115383D02*
X0179988Y0115383D01*
X0179988Y0116981D02*
X0179988Y0116981D01*
X0179553Y0118580D02*
X0180424Y0118580D01*
X0181563Y0120178D02*
X0178414Y0120178D01*
X0171563Y0120178D02*
X0168414Y0120178D01*
X0169553Y0118580D02*
X0170424Y0118580D01*
X0169988Y0117528D02*
X0169988Y0110338D01*
X0169988Y0117528D01*
X0169988Y0116981D02*
X0169988Y0116981D01*
X0169988Y0115383D02*
X0169988Y0115383D01*
X0169988Y0113784D02*
X0169988Y0113784D01*
X0169988Y0112186D02*
X0169988Y0112186D01*
X0169988Y0110587D02*
X0169988Y0110587D01*
X0169429Y0108989D02*
X0170548Y0108989D01*
X0171860Y0107390D02*
X0168117Y0107390D01*
X0161860Y0107390D02*
X0158117Y0107390D01*
X0159429Y0108989D02*
X0160548Y0108989D01*
X0159988Y0110587D02*
X0159988Y0110587D01*
X0159988Y0112186D02*
X0159988Y0112186D01*
X0159988Y0113784D02*
X0159988Y0113784D01*
X0159988Y0115383D02*
X0159988Y0115383D01*
X0159988Y0116981D02*
X0159988Y0116981D01*
X0159553Y0118580D02*
X0160424Y0118580D01*
X0161563Y0120178D02*
X0158414Y0120178D01*
X0151563Y0120178D02*
X0148414Y0120178D01*
X0149553Y0118580D02*
X0150424Y0118580D01*
X0149988Y0117528D02*
X0149988Y0110338D01*
X0149988Y0117528D01*
X0149988Y0116981D02*
X0149988Y0116981D01*
X0149988Y0115383D02*
X0149988Y0115383D01*
X0149988Y0113784D02*
X0149988Y0113784D01*
X0149988Y0112186D02*
X0149988Y0112186D01*
X0149988Y0110587D02*
X0149988Y0110587D01*
X0149429Y0108989D02*
X0150548Y0108989D01*
X0151860Y0107390D02*
X0148117Y0107390D01*
X0141860Y0107390D02*
X0138117Y0107390D01*
X0139429Y0108989D02*
X0140548Y0108989D01*
X0139988Y0110338D02*
X0139988Y0117528D01*
X0139988Y0110338D01*
X0139988Y0110587D02*
X0139988Y0110587D01*
X0139988Y0112186D02*
X0139988Y0112186D01*
X0139988Y0113784D02*
X0139988Y0113784D01*
X0139988Y0115383D02*
X0139988Y0115383D01*
X0139988Y0116981D02*
X0139988Y0116981D01*
X0139553Y0118580D02*
X0140424Y0118580D01*
X0141563Y0120178D02*
X0138414Y0120178D01*
X0131563Y0120178D02*
X0128414Y0120178D01*
X0129553Y0118580D02*
X0130424Y0118580D01*
X0129988Y0117528D02*
X0129988Y0110338D01*
X0129988Y0117528D01*
X0129988Y0116981D02*
X0129988Y0116981D01*
X0129988Y0115383D02*
X0129988Y0115383D01*
X0129988Y0113784D02*
X0129988Y0113784D01*
X0129988Y0112186D02*
X0129988Y0112186D01*
X0129988Y0110587D02*
X0129988Y0110587D01*
X0129429Y0108989D02*
X0130548Y0108989D01*
X0131860Y0107390D02*
X0128117Y0107390D01*
X0121860Y0107390D02*
X0082813Y0107390D01*
X0083188Y0108989D02*
X0120548Y0108989D01*
X0119988Y0110587D02*
X0083188Y0110587D01*
X0087912Y0112186D02*
X0092065Y0112186D01*
X0090632Y0113784D02*
X0089345Y0113784D01*
X0089988Y0115383D02*
X0089988Y0115383D01*
X0089988Y0116981D02*
X0089988Y0116981D01*
X0089988Y0118580D02*
X0089988Y0118580D01*
X0089988Y0120178D02*
X0089988Y0120178D01*
X0089988Y0121777D02*
X0089988Y0121777D01*
X0089637Y0123375D02*
X0090340Y0123375D01*
X0091358Y0124974D02*
X0088619Y0124974D01*
X0083188Y0126572D02*
X0230076Y0126572D01*
X0228617Y0124974D02*
X0098619Y0124974D01*
X0099637Y0123375D02*
X0227955Y0123375D01*
X0227588Y0121777D02*
X0099988Y0121777D01*
X0099988Y0120178D02*
X0121563Y0120178D01*
X0120424Y0118580D02*
X0099988Y0118580D01*
X0099988Y0116981D02*
X0119988Y0116981D01*
X0119988Y0115383D02*
X0099988Y0115383D01*
X0099345Y0113784D02*
X0119988Y0113784D01*
X0119988Y0112186D02*
X0097912Y0112186D01*
X0081373Y0105792D02*
X0229045Y0105792D01*
X0229695Y0104193D02*
X0079774Y0104193D01*
X0078188Y0102595D02*
X0231007Y0102595D01*
X0234804Y0102595D02*
X0235173Y0102595D01*
X0235173Y0101140D02*
X0235469Y0101140D01*
X0236417Y0101290D01*
X0237330Y0101587D01*
X0238186Y0102023D01*
X0238962Y0102587D01*
X0239641Y0103266D01*
X0240206Y0104043D01*
X0240642Y0104899D01*
X0240938Y0105812D01*
X0241088Y0106760D01*
X0241088Y0107056D01*
X0235173Y0107056D01*
X0235173Y0101140D01*
X0235173Y0104193D02*
X0234804Y0104193D01*
X0234804Y0105792D02*
X0235173Y0105792D01*
X0235173Y0107390D02*
X0259988Y0107390D01*
X0259988Y0105792D02*
X0240932Y0105792D01*
X0240282Y0104193D02*
X0259988Y0104193D01*
X0259988Y0102595D02*
X0238970Y0102595D01*
X0247016Y0096201D02*
X0078188Y0096201D01*
X0078188Y0097799D02*
X0259988Y0097799D01*
X0259988Y0096201D02*
X0256622Y0096201D01*
X0259071Y0094602D02*
X0259988Y0094602D01*
X0259988Y0099398D02*
X0078188Y0099398D01*
X0078188Y0100996D02*
X0259988Y0100996D01*
X0259988Y0108989D02*
X0240834Y0108989D01*
X0240097Y0110587D02*
X0259988Y0110587D01*
X0259988Y0112186D02*
X0238559Y0112186D01*
X0235173Y0112186D02*
X0234804Y0112186D01*
X0234804Y0110587D02*
X0235173Y0110587D01*
X0235173Y0108989D02*
X0234804Y0108989D01*
X0248944Y0113784D02*
X0259988Y0113784D01*
X0259988Y0115383D02*
X0251903Y0115383D01*
X0253502Y0116981D02*
X0259988Y0116981D01*
X0259988Y0118580D02*
X0255100Y0118580D01*
X0256699Y0120178D02*
X0259988Y0120178D01*
X0259988Y0121777D02*
X0258297Y0121777D01*
X0259896Y0123375D02*
X0259988Y0123375D01*
X0227588Y0141499D02*
X0204398Y0141499D01*
X0201688Y0144208D01*
X0201688Y0165266D01*
X0200668Y0167728D01*
X0195668Y0172728D01*
X0193784Y0174613D01*
X0191321Y0175633D01*
X0123656Y0175633D01*
X0121193Y0174613D01*
X0119309Y0172728D01*
X0118588Y0170990D01*
X0118588Y0177442D01*
X0121480Y0180333D01*
X0180705Y0180333D01*
X0182028Y0180881D01*
X0197028Y0195881D01*
X0198040Y0196894D01*
X0198588Y0198217D01*
X0198588Y0216896D01*
X0199566Y0217874D01*
X0200388Y0219859D01*
X0200388Y0228007D01*
X0199566Y0229992D01*
X0198047Y0231511D01*
X0196063Y0232333D01*
X0193914Y0232333D01*
X0191930Y0231511D01*
X0191188Y0230770D01*
X0191188Y0236465D01*
X0191476Y0236177D01*
X0193755Y0235233D01*
X0196222Y0235233D01*
X0198500Y0236177D01*
X0200245Y0237921D01*
X0201188Y0240200D01*
X0201188Y0246533D01*
X0216923Y0246533D01*
X0225088Y0238368D01*
X0225088Y0209961D01*
X0226215Y0207241D01*
X0233715Y0199741D01*
X0235797Y0197660D01*
X0238517Y0196533D01*
X0246923Y0196533D01*
X0247588Y0195868D01*
X0247588Y0183420D01*
X0233517Y0183420D01*
X0230797Y0182293D01*
X0228715Y0180211D01*
X0227588Y0177492D01*
X0227588Y0174548D01*
X0228715Y0171828D01*
X0230797Y0169746D01*
X0232285Y0169130D01*
X0230797Y0168514D01*
X0228715Y0166432D01*
X0227588Y0163712D01*
X0227588Y0141499D01*
X0227588Y0142557D02*
X0203339Y0142557D01*
X0201741Y0144156D02*
X0227588Y0144156D01*
X0227588Y0145754D02*
X0201688Y0145754D01*
X0201688Y0147353D02*
X0227588Y0147353D01*
X0227588Y0148951D02*
X0201688Y0148951D01*
X0201688Y0150550D02*
X0227588Y0150550D01*
X0227588Y0152148D02*
X0201688Y0152148D01*
X0201688Y0153747D02*
X0227588Y0153747D01*
X0227588Y0155345D02*
X0201688Y0155345D01*
X0201688Y0156944D02*
X0227588Y0156944D01*
X0227588Y0158543D02*
X0201688Y0158543D01*
X0201688Y0160141D02*
X0227588Y0160141D01*
X0227588Y0161740D02*
X0201688Y0161740D01*
X0201688Y0163338D02*
X0227588Y0163338D01*
X0228096Y0164937D02*
X0201688Y0164937D01*
X0201163Y0166535D02*
X0228818Y0166535D01*
X0230417Y0168134D02*
X0200263Y0168134D01*
X0198665Y0169732D02*
X0230831Y0169732D01*
X0229212Y0171331D02*
X0197066Y0171331D01*
X0195468Y0172929D02*
X0228259Y0172929D01*
X0227597Y0174528D02*
X0193869Y0174528D01*
X0183667Y0182520D02*
X0231345Y0182520D01*
X0232647Y0184146D02*
X0233560Y0183849D01*
X0234508Y0183699D01*
X0234804Y0183699D01*
X0234804Y0189615D01*
X0228888Y0189615D01*
X0228888Y0189319D01*
X0229039Y0188371D01*
X0229335Y0187458D01*
X0229771Y0186602D01*
X0230336Y0185825D01*
X0231015Y0185146D01*
X0231791Y0184582D01*
X0232647Y0184146D01*
X0232731Y0184119D02*
X0185265Y0184119D01*
X0186864Y0185717D02*
X0230444Y0185717D01*
X0229408Y0187316D02*
X0188462Y0187316D01*
X0190061Y0188914D02*
X0228953Y0188914D01*
X0228888Y0189983D02*
X0234804Y0189983D01*
X0234804Y0189615D01*
X0235173Y0189615D01*
X0235173Y0189983D01*
X0241088Y0189983D01*
X0241088Y0190279D01*
X0240938Y0191228D01*
X0240642Y0192141D01*
X0240206Y0192996D01*
X0239641Y0193773D01*
X0238962Y0194452D01*
X0238186Y0195016D01*
X0237330Y0195452D01*
X0236417Y0195749D01*
X0235469Y0195899D01*
X0235173Y0195899D01*
X0235173Y0189984D01*
X0234804Y0189984D01*
X0234804Y0195899D01*
X0234508Y0195899D01*
X0233560Y0195749D01*
X0232647Y0195452D01*
X0231791Y0195016D01*
X0231015Y0194452D01*
X0230336Y0193773D01*
X0229771Y0192996D01*
X0229335Y0192141D01*
X0229039Y0191228D01*
X0228888Y0190279D01*
X0228888Y0189983D01*
X0228925Y0190513D02*
X0191659Y0190513D01*
X0193258Y0192111D02*
X0229326Y0192111D01*
X0230290Y0193710D02*
X0194856Y0193710D01*
X0196455Y0195308D02*
X0232364Y0195308D01*
X0234804Y0195308D02*
X0235173Y0195308D01*
X0235173Y0193710D02*
X0234804Y0193710D01*
X0234804Y0192111D02*
X0235173Y0192111D01*
X0235173Y0190513D02*
X0234804Y0190513D01*
X0235173Y0189615D02*
X0241088Y0189615D01*
X0241088Y0189319D01*
X0240938Y0188371D01*
X0240642Y0187458D01*
X0240206Y0186602D01*
X0239641Y0185825D01*
X0238962Y0185146D01*
X0238186Y0184582D01*
X0237330Y0184146D01*
X0236417Y0183849D01*
X0235469Y0183699D01*
X0235173Y0183699D01*
X0235173Y0189615D01*
X0235173Y0188914D02*
X0234804Y0188914D01*
X0234804Y0187316D02*
X0235173Y0187316D01*
X0235173Y0185717D02*
X0234804Y0185717D01*
X0234804Y0184119D02*
X0235173Y0184119D01*
X0237246Y0184119D02*
X0247588Y0184119D01*
X0247588Y0185717D02*
X0239533Y0185717D01*
X0240569Y0187316D02*
X0247588Y0187316D01*
X0247588Y0188914D02*
X0241024Y0188914D01*
X0241052Y0190513D02*
X0247588Y0190513D01*
X0247588Y0192111D02*
X0240651Y0192111D01*
X0239687Y0193710D02*
X0247588Y0193710D01*
X0247588Y0195308D02*
X0237613Y0195308D01*
X0237614Y0196907D02*
X0198046Y0196907D01*
X0198588Y0198505D02*
X0234951Y0198505D01*
X0233353Y0200104D02*
X0198588Y0200104D01*
X0198588Y0201702D02*
X0231754Y0201702D01*
X0230156Y0203301D02*
X0198588Y0203301D01*
X0198588Y0204899D02*
X0228557Y0204899D01*
X0226959Y0206498D02*
X0198588Y0206498D01*
X0198588Y0208096D02*
X0225861Y0208096D01*
X0225199Y0209695D02*
X0198588Y0209695D01*
X0198588Y0211293D02*
X0225088Y0211293D01*
X0225088Y0212892D02*
X0198588Y0212892D01*
X0198588Y0214490D02*
X0225088Y0214490D01*
X0225088Y0216089D02*
X0198588Y0216089D01*
X0199380Y0217687D02*
X0225088Y0217687D01*
X0225088Y0219286D02*
X0200151Y0219286D01*
X0200388Y0220884D02*
X0225088Y0220884D01*
X0225088Y0222483D02*
X0200388Y0222483D01*
X0200388Y0224081D02*
X0225088Y0224081D01*
X0225088Y0225680D02*
X0200388Y0225680D01*
X0200388Y0227279D02*
X0225088Y0227279D01*
X0225088Y0228877D02*
X0200028Y0228877D01*
X0199083Y0230476D02*
X0225088Y0230476D01*
X0225088Y0232074D02*
X0196688Y0232074D01*
X0196313Y0235271D02*
X0225088Y0235271D01*
X0225088Y0233673D02*
X0191188Y0233673D01*
X0191188Y0235271D02*
X0193663Y0235271D01*
X0193289Y0232074D02*
X0191188Y0232074D01*
X0199193Y0236870D02*
X0225088Y0236870D01*
X0224988Y0238468D02*
X0200471Y0238468D01*
X0201133Y0240067D02*
X0223390Y0240067D01*
X0221791Y0241665D02*
X0201188Y0241665D01*
X0201188Y0243264D02*
X0220193Y0243264D01*
X0218594Y0244862D02*
X0201188Y0244862D01*
X0201188Y0246461D02*
X0216996Y0246461D01*
X0229934Y0254453D02*
X0241536Y0254453D01*
X0241192Y0253170D02*
X0241192Y0250247D01*
X0241949Y0247425D01*
X0243410Y0244894D01*
X0245477Y0242827D01*
X0248007Y0241366D01*
X0250830Y0240609D01*
X0253753Y0240609D01*
X0256576Y0241366D01*
X0259107Y0242827D01*
X0259988Y0243709D01*
X0259988Y0204398D01*
X0259180Y0205206D01*
X0254180Y0210206D01*
X0251460Y0211333D01*
X0243054Y0211333D01*
X0239888Y0214498D01*
X0239888Y0219745D01*
X0240500Y0219133D01*
X0242288Y0219133D01*
X0242288Y0223733D01*
X0242688Y0223733D01*
X0242688Y0219133D01*
X0244477Y0219133D01*
X0247288Y0221945D01*
X0247288Y0223733D01*
X0242689Y0223733D01*
X0242689Y0224133D01*
X0247288Y0224133D01*
X0247288Y0225921D01*
X0244477Y0228733D01*
X0242688Y0228733D01*
X0242688Y0224133D01*
X0242288Y0224133D01*
X0242288Y0228733D01*
X0240500Y0228733D01*
X0239888Y0228121D01*
X0239888Y0242905D01*
X0238762Y0245625D01*
X0236680Y0247706D01*
X0225454Y0258933D01*
X0243819Y0258933D01*
X0243410Y0258524D01*
X0241949Y0255993D01*
X0241192Y0253170D01*
X0241192Y0252855D02*
X0231532Y0252855D01*
X0233131Y0251256D02*
X0241192Y0251256D01*
X0241350Y0249658D02*
X0234729Y0249658D01*
X0236328Y0248059D02*
X0241779Y0248059D01*
X0242505Y0246461D02*
X0237926Y0246461D01*
X0236680Y0247706D02*
X0236680Y0247706D01*
X0239078Y0244862D02*
X0243441Y0244862D01*
X0245040Y0243264D02*
X0239740Y0243264D01*
X0239888Y0241665D02*
X0247489Y0241665D01*
X0257094Y0241665D02*
X0259988Y0241665D01*
X0259988Y0240067D02*
X0239888Y0240067D01*
X0239888Y0238468D02*
X0259988Y0238468D01*
X0259988Y0236870D02*
X0239888Y0236870D01*
X0239888Y0235271D02*
X0259988Y0235271D01*
X0259988Y0233673D02*
X0239888Y0233673D01*
X0239888Y0232074D02*
X0259988Y0232074D01*
X0259988Y0230476D02*
X0239888Y0230476D01*
X0239888Y0228877D02*
X0259988Y0228877D01*
X0259988Y0227279D02*
X0245931Y0227279D01*
X0247288Y0225680D02*
X0259988Y0225680D01*
X0259988Y0224081D02*
X0242689Y0224081D01*
X0242688Y0222483D02*
X0242288Y0222483D01*
X0242288Y0220884D02*
X0242688Y0220884D01*
X0242688Y0219286D02*
X0242288Y0219286D01*
X0240347Y0219286D02*
X0239888Y0219286D01*
X0239888Y0217687D02*
X0259988Y0217687D01*
X0259988Y0216089D02*
X0239888Y0216089D01*
X0239896Y0214490D02*
X0259988Y0214490D01*
X0259988Y0212892D02*
X0241495Y0212892D01*
X0244630Y0219286D02*
X0259988Y0219286D01*
X0259988Y0220884D02*
X0246228Y0220884D01*
X0247288Y0222483D02*
X0259988Y0222483D01*
X0259988Y0211293D02*
X0251556Y0211293D01*
X0254692Y0209695D02*
X0259988Y0209695D01*
X0259988Y0208096D02*
X0256290Y0208096D01*
X0257889Y0206498D02*
X0259988Y0206498D01*
X0259988Y0204899D02*
X0259487Y0204899D01*
X0242688Y0225680D02*
X0242288Y0225680D01*
X0242288Y0227279D02*
X0242688Y0227279D01*
X0259543Y0243264D02*
X0259988Y0243264D01*
X0241983Y0256052D02*
X0228335Y0256052D01*
X0226736Y0257650D02*
X0242906Y0257650D01*
X0190597Y0217687D02*
X0189380Y0217687D01*
X0187405Y0216089D02*
X0191388Y0216089D01*
X0191388Y0214490D02*
X0028988Y0214490D01*
X0028988Y0212892D02*
X0191388Y0212892D01*
X0191388Y0211293D02*
X0028988Y0211293D01*
X0028988Y0209695D02*
X0191388Y0209695D01*
X0191388Y0208096D02*
X0028988Y0208096D01*
X0028988Y0206498D02*
X0191388Y0206498D01*
X0191388Y0204899D02*
X0028988Y0204899D01*
X0028988Y0203301D02*
X0191388Y0203301D01*
X0191388Y0201702D02*
X0028988Y0201702D01*
X0028988Y0200104D02*
X0191068Y0200104D01*
X0189470Y0198505D02*
X0028988Y0198505D01*
X0028988Y0196907D02*
X0187871Y0196907D01*
X0186273Y0195308D02*
X0028988Y0195308D01*
X0028988Y0193710D02*
X0184674Y0193710D01*
X0183076Y0192111D02*
X0028988Y0192111D01*
X0028988Y0190513D02*
X0181477Y0190513D01*
X0179878Y0188914D02*
X0028988Y0188914D01*
X0028988Y0187316D02*
X0118748Y0187316D01*
X0116681Y0185717D02*
X0028988Y0185717D01*
X0028988Y0184119D02*
X0115083Y0184119D01*
X0113484Y0182520D02*
X0042276Y0182520D01*
X0042703Y0180922D02*
X0111916Y0180922D01*
X0111388Y0179323D02*
X0042703Y0179323D01*
X0042703Y0177725D02*
X0111388Y0177725D01*
X0111388Y0176126D02*
X0042635Y0176126D01*
X0041935Y0174528D02*
X0111388Y0174528D01*
X0111388Y0172929D02*
X0041935Y0172929D01*
X0042300Y0171331D02*
X0111388Y0171331D01*
X0111388Y0169732D02*
X0042391Y0169732D01*
X0042391Y0168134D02*
X0111388Y0168134D01*
X0111388Y0166535D02*
X0042196Y0166535D01*
X0032511Y0166535D02*
X0032511Y0166535D01*
X0032511Y0165683D02*
X0032511Y0169058D01*
X0032511Y0169058D01*
X0032511Y0169058D01*
X0032511Y0172433D01*
X0030699Y0172433D01*
X0030241Y0172310D01*
X0029831Y0172073D01*
X0029496Y0171738D01*
X0029259Y0171328D01*
X0029136Y0170870D01*
X0029136Y0169058D01*
X0029136Y0167246D01*
X0029259Y0166788D01*
X0029496Y0166378D01*
X0029831Y0166043D01*
X0030241Y0165806D01*
X0030699Y0165683D01*
X0032511Y0165683D01*
X0032511Y0168134D02*
X0032511Y0168134D01*
X0032511Y0169058D02*
X0029136Y0169058D01*
X0032511Y0169058D01*
X0032511Y0169058D01*
X0032511Y0169732D02*
X0032511Y0169732D01*
X0032511Y0171331D02*
X0032511Y0171331D01*
X0034735Y0172929D02*
X0028988Y0172929D01*
X0028988Y0171331D02*
X0029260Y0171331D01*
X0029136Y0169732D02*
X0028988Y0169732D01*
X0028988Y0168134D02*
X0029136Y0168134D01*
X0028988Y0166535D02*
X0029405Y0166535D01*
X0028988Y0164937D02*
X0111388Y0164937D01*
X0111388Y0163338D02*
X0028988Y0163338D01*
X0028988Y0161740D02*
X0111388Y0161740D01*
X0111105Y0160141D02*
X0028988Y0160141D01*
X0028988Y0158543D02*
X0109507Y0158543D01*
X0107908Y0156944D02*
X0028988Y0156944D01*
X0028988Y0155345D02*
X0031730Y0155345D01*
X0030494Y0153747D02*
X0028988Y0153747D01*
X0028988Y0152148D02*
X0029988Y0152148D01*
X0029988Y0150550D02*
X0028988Y0150550D01*
X0028988Y0148951D02*
X0029988Y0148951D01*
X0029988Y0147353D02*
X0028988Y0147353D01*
X0028988Y0145754D02*
X0029988Y0145754D01*
X0030478Y0144156D02*
X0028988Y0144156D01*
X0028988Y0142557D02*
X0031693Y0142557D01*
X0038284Y0142557D02*
X0041693Y0142557D01*
X0040478Y0144156D02*
X0039499Y0144156D01*
X0039988Y0145754D02*
X0039988Y0145754D01*
X0039988Y0147353D02*
X0039988Y0147353D01*
X0039988Y0148951D02*
X0039988Y0148951D01*
X0039988Y0150550D02*
X0039988Y0150550D01*
X0039988Y0152148D02*
X0039988Y0152148D01*
X0039483Y0153747D02*
X0040494Y0153747D01*
X0041730Y0155345D02*
X0038247Y0155345D01*
X0048247Y0155345D02*
X0051730Y0155345D01*
X0050494Y0153747D02*
X0049483Y0153747D01*
X0049988Y0152148D02*
X0049988Y0152148D01*
X0049988Y0150550D02*
X0049988Y0150550D01*
X0049988Y0148951D02*
X0049988Y0148951D01*
X0049988Y0147353D02*
X0049988Y0147353D01*
X0049988Y0145754D02*
X0049988Y0145754D01*
X0049499Y0144156D02*
X0050478Y0144156D01*
X0051693Y0142557D02*
X0048284Y0142557D01*
X0063415Y0136163D02*
X0073233Y0136163D01*
X0074831Y0134565D02*
X0065014Y0134565D01*
X0066612Y0132966D02*
X0076430Y0132966D01*
X0076788Y0131368D02*
X0068211Y0131368D01*
X0068972Y0129769D02*
X0076788Y0129769D01*
X0076788Y0128171D02*
X0068988Y0128171D01*
X0068988Y0126572D02*
X0076788Y0126572D01*
X0071358Y0124974D02*
X0068988Y0124974D01*
X0069637Y0123375D02*
X0070340Y0123375D01*
X0069988Y0122528D02*
X0069988Y0115338D01*
X0069988Y0122528D01*
X0069988Y0121777D02*
X0069988Y0121777D01*
X0069988Y0120178D02*
X0069988Y0120178D01*
X0069988Y0118580D02*
X0069988Y0118580D01*
X0069988Y0116981D02*
X0069988Y0116981D01*
X0069988Y0115383D02*
X0069988Y0115383D01*
X0069988Y0115338D02*
X0069227Y0113501D01*
X0067821Y0112094D01*
X0065983Y0111333D01*
X0063994Y0111333D01*
X0062156Y0112094D01*
X0060750Y0113501D01*
X0059988Y0115338D01*
X0059988Y0122528D01*
X0059227Y0124365D01*
X0057821Y0125772D01*
X0055983Y0126533D01*
X0053994Y0126533D01*
X0052156Y0125772D01*
X0050750Y0124365D01*
X0049988Y0122528D01*
X0049227Y0124365D01*
X0047821Y0125772D01*
X0045983Y0126533D01*
X0043994Y0126533D01*
X0042156Y0125772D01*
X0040750Y0124365D01*
X0039988Y0122528D01*
X0039227Y0124365D01*
X0037821Y0125772D01*
X0035983Y0126533D01*
X0033994Y0126533D01*
X0032156Y0125772D01*
X0030750Y0124365D01*
X0029988Y0122528D01*
X0029988Y0115338D01*
X0030750Y0113501D01*
X0032156Y0112094D01*
X0033994Y0111333D01*
X0035983Y0111333D01*
X0037821Y0112094D01*
X0039227Y0113501D01*
X0039988Y0115338D01*
X0039988Y0122528D01*
X0039988Y0115338D01*
X0040750Y0113501D01*
X0042156Y0112094D01*
X0043994Y0111333D01*
X0045983Y0111333D01*
X0047821Y0112094D01*
X0049227Y0113501D01*
X0049988Y0115338D01*
X0049988Y0122528D01*
X0049988Y0115338D01*
X0050750Y0113501D01*
X0051388Y0112862D01*
X0051388Y0087720D01*
X0050411Y0086742D01*
X0049588Y0084757D01*
X0049588Y0082609D01*
X0050411Y0080624D01*
X0051930Y0079105D01*
X0052345Y0078933D01*
X0036255Y0078933D01*
X0037634Y0081322D01*
X0038391Y0084145D01*
X0038391Y0087068D01*
X0037634Y0089890D01*
X0036173Y0092421D01*
X0034107Y0094488D01*
X0031576Y0095949D01*
X0028753Y0096705D01*
X0025830Y0096705D01*
X0023007Y0095949D01*
X0020477Y0094488D01*
X0019988Y0094000D01*
X0019988Y0243315D01*
X0020477Y0242827D01*
X0023007Y0241366D01*
X0025830Y0240609D01*
X0028753Y0240609D01*
X0031576Y0241366D01*
X0032022Y0241624D01*
X0022723Y0232324D01*
X0022723Y0232324D01*
X0021597Y0231199D01*
X0020988Y0229729D01*
X0020988Y0138137D01*
X0021597Y0136667D01*
X0022723Y0135542D01*
X0027723Y0130542D01*
X0029193Y0129933D01*
X0058332Y0129933D01*
X0060988Y0127276D01*
X0060988Y0124604D01*
X0060750Y0124365D01*
X0059988Y0122528D01*
X0059988Y0115338D01*
X0059227Y0113501D01*
X0058588Y0112862D01*
X0058588Y0087720D01*
X0059566Y0086742D01*
X0059988Y0085723D01*
X0060411Y0086742D01*
X0061388Y0087720D01*
X0061388Y0104649D01*
X0061937Y0105972D01*
X0062949Y0106985D01*
X0070373Y0114409D01*
X0069988Y0115338D01*
X0069748Y0113784D02*
X0069345Y0113784D01*
X0068150Y0112186D02*
X0067912Y0112186D01*
X0066551Y0110587D02*
X0058588Y0110587D01*
X0058588Y0108989D02*
X0064953Y0108989D01*
X0063354Y0107390D02*
X0058588Y0107390D01*
X0058588Y0105792D02*
X0061862Y0105792D01*
X0061388Y0104193D02*
X0058588Y0104193D01*
X0058588Y0102595D02*
X0061388Y0102595D01*
X0061388Y0100996D02*
X0058588Y0100996D01*
X0058588Y0099398D02*
X0061388Y0099398D01*
X0061388Y0097799D02*
X0058588Y0097799D01*
X0058588Y0096201D02*
X0061388Y0096201D01*
X0061388Y0094602D02*
X0058588Y0094602D01*
X0058588Y0093004D02*
X0061388Y0093004D01*
X0061388Y0091405D02*
X0058588Y0091405D01*
X0058588Y0089807D02*
X0061388Y0089807D01*
X0061388Y0088208D02*
X0058588Y0088208D01*
X0059621Y0086610D02*
X0060356Y0086610D01*
X0051388Y0088208D02*
X0038085Y0088208D01*
X0038391Y0086610D02*
X0050356Y0086610D01*
X0049694Y0085011D02*
X0038391Y0085011D01*
X0038195Y0083412D02*
X0049588Y0083412D01*
X0049918Y0081814D02*
X0037766Y0081814D01*
X0036995Y0080215D02*
X0050819Y0080215D01*
X0051388Y0089807D02*
X0037657Y0089807D01*
X0036760Y0091405D02*
X0051388Y0091405D01*
X0051388Y0093004D02*
X0035591Y0093004D01*
X0033909Y0094602D02*
X0051388Y0094602D01*
X0051388Y0096201D02*
X0030637Y0096201D01*
X0023946Y0096201D02*
X0019988Y0096201D01*
X0019988Y0097799D02*
X0051388Y0097799D01*
X0051388Y0099398D02*
X0019988Y0099398D01*
X0019988Y0100996D02*
X0051388Y0100996D01*
X0051388Y0102595D02*
X0019988Y0102595D01*
X0019988Y0104193D02*
X0051388Y0104193D01*
X0051388Y0105792D02*
X0019988Y0105792D01*
X0019988Y0107390D02*
X0051388Y0107390D01*
X0051388Y0108989D02*
X0019988Y0108989D01*
X0019988Y0110587D02*
X0051388Y0110587D01*
X0051388Y0112186D02*
X0047912Y0112186D01*
X0049345Y0113784D02*
X0050632Y0113784D01*
X0049988Y0115383D02*
X0049988Y0115383D01*
X0049988Y0116981D02*
X0049988Y0116981D01*
X0049988Y0118580D02*
X0049988Y0118580D01*
X0049988Y0120178D02*
X0049988Y0120178D01*
X0049988Y0121777D02*
X0049988Y0121777D01*
X0049637Y0123375D02*
X0050340Y0123375D01*
X0051358Y0124974D02*
X0048619Y0124974D01*
X0041358Y0124974D02*
X0038619Y0124974D01*
X0039637Y0123375D02*
X0040340Y0123375D01*
X0039988Y0121777D02*
X0039988Y0121777D01*
X0039988Y0120178D02*
X0039988Y0120178D01*
X0039988Y0118580D02*
X0039988Y0118580D01*
X0039988Y0116981D02*
X0039988Y0116981D01*
X0039988Y0115383D02*
X0039988Y0115383D01*
X0039345Y0113784D02*
X0040632Y0113784D01*
X0042065Y0112186D02*
X0037912Y0112186D01*
X0032065Y0112186D02*
X0019988Y0112186D01*
X0019988Y0113784D02*
X0030632Y0113784D01*
X0029988Y0115383D02*
X0019988Y0115383D01*
X0019988Y0116981D02*
X0029988Y0116981D01*
X0029988Y0118580D02*
X0019988Y0118580D01*
X0019988Y0120178D02*
X0029988Y0120178D01*
X0029988Y0121777D02*
X0019988Y0121777D01*
X0019988Y0123375D02*
X0030340Y0123375D01*
X0031358Y0124974D02*
X0019988Y0124974D01*
X0019988Y0126572D02*
X0060988Y0126572D01*
X0060988Y0124974D02*
X0058619Y0124974D01*
X0059637Y0123375D02*
X0060340Y0123375D01*
X0059988Y0121777D02*
X0059988Y0121777D01*
X0059988Y0120178D02*
X0059988Y0120178D01*
X0059988Y0118580D02*
X0059988Y0118580D01*
X0059988Y0116981D02*
X0059988Y0116981D01*
X0059988Y0115383D02*
X0059988Y0115383D01*
X0059345Y0113784D02*
X0060632Y0113784D01*
X0062065Y0112186D02*
X0058588Y0112186D01*
X0060094Y0128171D02*
X0019988Y0128171D01*
X0019988Y0129769D02*
X0058495Y0129769D01*
X0088284Y0142557D02*
X0091693Y0142557D01*
X0090478Y0144156D02*
X0089499Y0144156D01*
X0089988Y0145754D02*
X0089988Y0145754D01*
X0089988Y0147353D02*
X0089988Y0147353D01*
X0089988Y0148951D02*
X0089988Y0148951D01*
X0089988Y0150550D02*
X0089988Y0150550D01*
X0089988Y0152148D02*
X0089988Y0152148D01*
X0089483Y0153747D02*
X0090494Y0153747D01*
X0091730Y0155345D02*
X0088247Y0155345D01*
X0098247Y0155345D02*
X0106310Y0155345D01*
X0104711Y0153747D02*
X0099483Y0153747D01*
X0099499Y0144156D02*
X0119988Y0144156D01*
X0119988Y0145754D02*
X0106722Y0145754D01*
X0108500Y0147353D02*
X0119988Y0147353D01*
X0120088Y0148951D02*
X0110098Y0148951D01*
X0111697Y0150550D02*
X0120088Y0150550D01*
X0120088Y0152148D02*
X0113295Y0152148D01*
X0114894Y0153747D02*
X0120088Y0153747D01*
X0120088Y0155345D02*
X0116492Y0155345D01*
X0118061Y0156944D02*
X0119288Y0156944D01*
X0119288Y0158543D02*
X0118588Y0158543D01*
X0118588Y0160141D02*
X0119288Y0160141D01*
X0119734Y0161740D02*
X0118588Y0161740D01*
X0118588Y0163338D02*
X0121108Y0163338D01*
X0119510Y0164937D02*
X0118588Y0164937D01*
X0118588Y0166535D02*
X0118730Y0166535D01*
X0118730Y0171331D02*
X0118588Y0171331D01*
X0118588Y0172929D02*
X0119509Y0172929D01*
X0118588Y0174528D02*
X0121108Y0174528D01*
X0118588Y0176126D02*
X0227588Y0176126D01*
X0227685Y0177725D02*
X0118871Y0177725D01*
X0120470Y0179323D02*
X0228347Y0179323D01*
X0229425Y0180922D02*
X0182068Y0180922D01*
X0182572Y0216089D02*
X0132405Y0216089D01*
X0134380Y0217687D02*
X0171446Y0217687D01*
X0170477Y0219286D02*
X0135151Y0219286D01*
X0135388Y0220884D02*
X0170188Y0220884D01*
X0170188Y0222483D02*
X0135388Y0222483D01*
X0135388Y0224081D02*
X0174788Y0224081D01*
X0174788Y0224133D02*
X0170188Y0224133D01*
X0170188Y0227311D01*
X0170307Y0228057D01*
X0170540Y0228776D01*
X0170883Y0229449D01*
X0171327Y0230060D01*
X0171861Y0230594D01*
X0172473Y0231038D01*
X0173146Y0231381D01*
X0173864Y0231615D01*
X0174611Y0231733D01*
X0174788Y0231733D01*
X0174788Y0224133D01*
X0174788Y0225680D02*
X0175188Y0225680D01*
X0175188Y0227279D02*
X0174788Y0227279D01*
X0174788Y0228877D02*
X0175188Y0228877D01*
X0175188Y0230476D02*
X0174788Y0230476D01*
X0171743Y0230476D02*
X0134083Y0230476D01*
X0135028Y0228877D02*
X0170592Y0228877D01*
X0170188Y0227279D02*
X0135388Y0227279D01*
X0135388Y0225680D02*
X0170188Y0225680D01*
X0174788Y0222483D02*
X0175188Y0222483D01*
X0175188Y0220884D02*
X0174788Y0220884D01*
X0174788Y0219286D02*
X0175188Y0219286D01*
X0175188Y0217687D02*
X0174788Y0217687D01*
X0178531Y0217687D02*
X0180597Y0217687D01*
X0179826Y0219286D02*
X0179500Y0219286D01*
X0178788Y0230476D02*
X0178234Y0230476D01*
X0178788Y0232074D02*
X0131688Y0232074D01*
X0131313Y0235271D02*
X0178788Y0235271D01*
X0178788Y0233673D02*
X0126188Y0233673D01*
X0126188Y0235271D02*
X0128663Y0235271D01*
X0128289Y0232074D02*
X0126188Y0232074D01*
X0134193Y0236870D02*
X0178788Y0236870D01*
X0178788Y0238468D02*
X0135471Y0238468D01*
X0136133Y0240067D02*
X0178788Y0240067D01*
X0178788Y0241665D02*
X0136188Y0241665D01*
X0136188Y0243264D02*
X0179036Y0243264D01*
X0179698Y0244862D02*
X0136188Y0244862D01*
X0136188Y0246461D02*
X0181248Y0246461D01*
X0127572Y0216089D02*
X0122405Y0216089D01*
X0124380Y0217687D02*
X0125597Y0217687D01*
X0117572Y0216089D02*
X0067405Y0216089D01*
X0069380Y0217687D02*
X0106446Y0217687D01*
X0105477Y0219286D02*
X0070151Y0219286D01*
X0070388Y0220884D02*
X0105188Y0220884D01*
X0105188Y0222483D02*
X0070388Y0222483D01*
X0070388Y0224081D02*
X0109788Y0224081D01*
X0109788Y0224133D02*
X0105188Y0224133D01*
X0105188Y0227311D01*
X0105307Y0228057D01*
X0105540Y0228776D01*
X0105883Y0229449D01*
X0106327Y0230060D01*
X0106861Y0230594D01*
X0107473Y0231038D01*
X0108146Y0231381D01*
X0108864Y0231615D01*
X0109611Y0231733D01*
X0109788Y0231733D01*
X0109788Y0224133D01*
X0109788Y0225680D02*
X0110188Y0225680D01*
X0110188Y0227279D02*
X0109788Y0227279D01*
X0109788Y0228877D02*
X0110188Y0228877D01*
X0110188Y0230476D02*
X0109788Y0230476D01*
X0106743Y0230476D02*
X0069083Y0230476D01*
X0070028Y0228877D02*
X0105592Y0228877D01*
X0105188Y0227279D02*
X0070388Y0227279D01*
X0070388Y0225680D02*
X0105188Y0225680D01*
X0109788Y0222483D02*
X0110188Y0222483D01*
X0110188Y0220884D02*
X0109788Y0220884D01*
X0109788Y0219286D02*
X0110188Y0219286D01*
X0110188Y0217687D02*
X0109788Y0217687D01*
X0113531Y0217687D02*
X0115597Y0217687D01*
X0114826Y0219286D02*
X0114500Y0219286D01*
X0113788Y0230476D02*
X0113234Y0230476D01*
X0113788Y0232074D02*
X0066688Y0232074D01*
X0066313Y0235271D02*
X0113788Y0235271D01*
X0113788Y0233673D02*
X0061188Y0233673D01*
X0061188Y0235271D02*
X0063663Y0235271D01*
X0063289Y0232074D02*
X0061188Y0232074D01*
X0069193Y0236870D02*
X0113788Y0236870D01*
X0113788Y0238468D02*
X0070471Y0238468D01*
X0071133Y0240067D02*
X0113788Y0240067D01*
X0113788Y0241665D02*
X0071188Y0241665D01*
X0071188Y0243264D02*
X0114036Y0243264D01*
X0114698Y0244862D02*
X0071383Y0244862D01*
X0072981Y0246461D02*
X0116248Y0246461D01*
X0062572Y0216089D02*
X0057405Y0216089D01*
X0059380Y0217687D02*
X0060597Y0217687D01*
X0052572Y0216089D02*
X0028988Y0216089D01*
X0028988Y0217687D02*
X0041446Y0217687D01*
X0040477Y0219286D02*
X0028988Y0219286D01*
X0028988Y0220884D02*
X0040188Y0220884D01*
X0040188Y0222483D02*
X0028988Y0222483D01*
X0028988Y0224081D02*
X0044788Y0224081D01*
X0044788Y0224133D02*
X0040188Y0224133D01*
X0040188Y0227311D01*
X0040307Y0228057D01*
X0040540Y0228776D01*
X0040883Y0229449D01*
X0041327Y0230060D01*
X0041861Y0230594D01*
X0042473Y0231038D01*
X0043146Y0231381D01*
X0043864Y0231615D01*
X0044611Y0231733D01*
X0044788Y0231733D01*
X0044788Y0224133D01*
X0044788Y0225680D02*
X0045188Y0225680D01*
X0045188Y0227279D02*
X0044788Y0227279D01*
X0044788Y0228877D02*
X0045188Y0228877D01*
X0045188Y0230476D02*
X0044788Y0230476D01*
X0041743Y0230476D02*
X0032188Y0230476D01*
X0033786Y0232074D02*
X0048788Y0232074D01*
X0048788Y0230476D02*
X0048234Y0230476D01*
X0048788Y0233673D02*
X0035385Y0233673D01*
X0036983Y0235271D02*
X0048788Y0235271D01*
X0048788Y0236870D02*
X0038582Y0236870D01*
X0040180Y0238468D02*
X0048788Y0238468D01*
X0048788Y0240067D02*
X0041779Y0240067D01*
X0043377Y0241665D02*
X0048788Y0241665D01*
X0049036Y0243264D02*
X0044976Y0243264D01*
X0046574Y0244862D02*
X0049698Y0244862D01*
X0048173Y0246461D02*
X0051248Y0246461D01*
X0049771Y0248059D02*
X0057588Y0248059D01*
X0057588Y0249658D02*
X0051370Y0249658D01*
X0030465Y0240067D02*
X0019988Y0240067D01*
X0019988Y0241665D02*
X0022489Y0241665D01*
X0020040Y0243264D02*
X0019988Y0243264D01*
X0019988Y0238468D02*
X0028867Y0238468D01*
X0027268Y0236870D02*
X0019988Y0236870D01*
X0019988Y0235271D02*
X0025670Y0235271D01*
X0024071Y0233673D02*
X0019988Y0233673D01*
X0019988Y0232074D02*
X0022473Y0232074D01*
X0021298Y0230476D02*
X0019988Y0230476D01*
X0019988Y0228877D02*
X0020988Y0228877D01*
X0020988Y0227279D02*
X0019988Y0227279D01*
X0019988Y0225680D02*
X0020988Y0225680D01*
X0020988Y0224081D02*
X0019988Y0224081D01*
X0019988Y0222483D02*
X0020988Y0222483D01*
X0020988Y0220884D02*
X0019988Y0220884D01*
X0019988Y0219286D02*
X0020988Y0219286D01*
X0020988Y0217687D02*
X0019988Y0217687D01*
X0019988Y0216089D02*
X0020988Y0216089D01*
X0020988Y0214490D02*
X0019988Y0214490D01*
X0019988Y0212892D02*
X0020988Y0212892D01*
X0020988Y0211293D02*
X0019988Y0211293D01*
X0019988Y0209695D02*
X0020988Y0209695D01*
X0020988Y0208096D02*
X0019988Y0208096D01*
X0019988Y0206498D02*
X0020988Y0206498D01*
X0020988Y0204899D02*
X0019988Y0204899D01*
X0019988Y0203301D02*
X0020988Y0203301D01*
X0020988Y0201702D02*
X0019988Y0201702D01*
X0019988Y0200104D02*
X0020988Y0200104D01*
X0020988Y0198505D02*
X0019988Y0198505D01*
X0019988Y0196907D02*
X0020988Y0196907D01*
X0020988Y0195308D02*
X0019988Y0195308D01*
X0019988Y0193710D02*
X0020988Y0193710D01*
X0020988Y0192111D02*
X0019988Y0192111D01*
X0019988Y0190513D02*
X0020988Y0190513D01*
X0020988Y0188914D02*
X0019988Y0188914D01*
X0019988Y0187316D02*
X0020988Y0187316D01*
X0020988Y0185717D02*
X0019988Y0185717D01*
X0019988Y0184119D02*
X0020988Y0184119D01*
X0020988Y0182520D02*
X0019988Y0182520D01*
X0019988Y0180922D02*
X0020988Y0180922D01*
X0020988Y0179323D02*
X0019988Y0179323D01*
X0019988Y0177725D02*
X0020988Y0177725D01*
X0020988Y0176126D02*
X0019988Y0176126D01*
X0019988Y0174528D02*
X0020988Y0174528D01*
X0020988Y0172929D02*
X0019988Y0172929D01*
X0019988Y0171331D02*
X0020988Y0171331D01*
X0020988Y0169732D02*
X0019988Y0169732D01*
X0019988Y0168134D02*
X0020988Y0168134D01*
X0020988Y0166535D02*
X0019988Y0166535D01*
X0019988Y0164937D02*
X0020988Y0164937D01*
X0020988Y0163338D02*
X0019988Y0163338D01*
X0019988Y0161740D02*
X0020988Y0161740D01*
X0020988Y0160141D02*
X0019988Y0160141D01*
X0019988Y0158543D02*
X0020988Y0158543D01*
X0020988Y0156944D02*
X0019988Y0156944D01*
X0019988Y0155345D02*
X0020988Y0155345D01*
X0020988Y0153747D02*
X0019988Y0153747D01*
X0019988Y0152148D02*
X0020988Y0152148D01*
X0020988Y0150550D02*
X0019988Y0150550D01*
X0019988Y0148951D02*
X0020988Y0148951D01*
X0020988Y0147353D02*
X0019988Y0147353D01*
X0019988Y0145754D02*
X0020988Y0145754D01*
X0020988Y0144156D02*
X0019988Y0144156D01*
X0019988Y0142557D02*
X0020988Y0142557D01*
X0020988Y0140959D02*
X0019988Y0140959D01*
X0019988Y0139360D02*
X0020988Y0139360D01*
X0021144Y0137762D02*
X0019988Y0137762D01*
X0019988Y0136163D02*
X0022101Y0136163D01*
X0023700Y0134565D02*
X0019988Y0134565D01*
X0019988Y0132966D02*
X0025298Y0132966D01*
X0026897Y0131368D02*
X0019988Y0131368D01*
X0019988Y0094602D02*
X0020674Y0094602D01*
X0078188Y0094602D02*
X0244567Y0094602D01*
X0242969Y0093004D02*
X0078188Y0093004D01*
X0078188Y0091405D02*
X0242033Y0091405D01*
X0241306Y0089807D02*
X0078188Y0089807D01*
X0079158Y0080215D02*
X0120645Y0080215D01*
X0119988Y0142557D02*
X0098284Y0142557D01*
X0034735Y0174528D02*
X0034474Y0174528D01*
X0044788Y0217687D02*
X0045188Y0217687D01*
X0045188Y0219286D02*
X0044788Y0219286D01*
X0044788Y0220884D02*
X0045188Y0220884D01*
X0045188Y0222483D02*
X0044788Y0222483D01*
X0049500Y0219286D02*
X0049826Y0219286D01*
X0050597Y0217687D02*
X0048531Y0217687D01*
X0040188Y0225680D02*
X0028988Y0225680D01*
X0028991Y0227279D02*
X0040188Y0227279D01*
X0040592Y0228877D02*
X0030589Y0228877D01*
D20*
X0064988Y0248933D02*
X0069988Y0253933D01*
X0129988Y0253933D01*
X0194988Y0253933D01*
X0219988Y0253933D01*
X0232488Y0241433D01*
X0232488Y0223933D01*
X0232488Y0211433D01*
X0239988Y0203933D01*
X0249988Y0203933D01*
X0254988Y0198933D01*
X0254988Y0178933D01*
X0249988Y0173933D01*
X0247902Y0176020D01*
X0234988Y0176020D01*
X0249988Y0173933D02*
X0254988Y0168933D01*
X0254988Y0128933D01*
X0247075Y0121020D01*
X0234988Y0121020D01*
X0234988Y0134799D02*
X0234988Y0162240D01*
D21*
X0184988Y0223933D02*
X0184988Y0241433D01*
X0194988Y0241433D02*
X0194988Y0253933D01*
X0129988Y0253933D02*
X0129988Y0241433D01*
X0119988Y0241433D02*
X0119988Y0223933D01*
X0064988Y0241433D02*
X0064988Y0248933D01*
X0054988Y0241433D02*
X0054988Y0223933D01*
D22*
X0024988Y0228933D02*
X0024988Y0178933D01*
X0024988Y0138933D01*
X0029988Y0133933D01*
X0059988Y0133933D01*
X0064988Y0128933D01*
X0064988Y0118933D01*
X0024988Y0228933D02*
X0049988Y0253933D01*
X0069988Y0253933D01*
D23*
X0119988Y0183933D02*
X0179988Y0183933D01*
X0194988Y0198933D01*
X0194988Y0223933D01*
X0119988Y0183933D02*
X0114988Y0178933D01*
X0114988Y0158933D01*
X0104988Y0148933D01*
X0094988Y0148933D01*
X0074988Y0118933D02*
X0074988Y0113933D01*
X0064988Y0103933D01*
X0064988Y0083683D01*
X0054988Y0083683D02*
X0054988Y0118933D01*
X0038416Y0169058D02*
X0038335Y0169139D01*
X0038335Y0178933D01*
X0031642Y0178933D02*
X0024988Y0178933D01*
D24*
X0124988Y0168933D02*
X0134988Y0168933D01*
X0144988Y0168933D01*
X0154988Y0168933D01*
X0164988Y0168933D01*
X0174988Y0168933D01*
X0184988Y0168933D01*
X0189988Y0168933D01*
X0194988Y0163933D01*
X0194988Y0143933D01*
X0194988Y0141433D01*
X0201622Y0134799D01*
X0234988Y0134799D01*
D25*
X0184988Y0143933D02*
X0184988Y0158933D01*
X0174988Y0158933D02*
X0174988Y0143933D01*
X0164988Y0143933D02*
X0164988Y0158933D01*
X0154988Y0158933D02*
X0154988Y0143933D01*
X0144988Y0143933D02*
X0144988Y0158933D01*
X0134988Y0158933D02*
X0134988Y0143933D01*
X0124988Y0143933D02*
X0124988Y0158933D01*
M02*
