G75*
%MOIN*%
%OFA0B0*%
%FSLAX25Y25*%
%IPPOS*%
%LPD*%
%AMOC8*
5,1,8,0,0,1.08239X$1,22.5*
%
%ADD10C,0.00500*%
%ADD11C,0.00400*%
D10*
X0038738Y0131683D02*
X0041741Y0131683D01*
X0043342Y0131683D02*
X0043342Y0136187D01*
X0044844Y0134686D01*
X0046345Y0136187D01*
X0046345Y0131683D01*
X0047946Y0132434D02*
X0048697Y0131683D01*
X0050198Y0131683D01*
X0050949Y0132434D01*
X0050949Y0133184D01*
X0050198Y0133935D01*
X0049448Y0133935D01*
X0050198Y0133935D02*
X0050949Y0134686D01*
X0050949Y0135436D01*
X0050198Y0136187D01*
X0048697Y0136187D01*
X0047946Y0135436D01*
X0052550Y0135436D02*
X0053301Y0136187D01*
X0054802Y0136187D01*
X0055553Y0135436D01*
X0055553Y0134686D01*
X0052550Y0131683D01*
X0055553Y0131683D01*
X0057154Y0133935D02*
X0060157Y0133935D01*
X0059406Y0131683D02*
X0059406Y0136187D01*
X0057154Y0133935D01*
X0061758Y0131683D02*
X0061758Y0136187D01*
X0064761Y0131683D01*
X0064761Y0136187D01*
X0066362Y0136187D02*
X0068614Y0136187D01*
X0069365Y0135436D01*
X0069365Y0132434D01*
X0068614Y0131683D01*
X0066362Y0131683D01*
X0066362Y0136187D01*
X0070966Y0136187D02*
X0072467Y0136187D01*
X0071717Y0136187D02*
X0071717Y0131683D01*
X0072467Y0131683D02*
X0070966Y0131683D01*
X0074035Y0131683D02*
X0077038Y0131683D01*
X0074035Y0131683D02*
X0074035Y0136187D01*
X0038738Y0136187D02*
X0038738Y0131683D01*
X0087940Y0192048D02*
X0088957Y0192048D01*
X0087940Y0192048D02*
X0086922Y0193066D01*
X0086922Y0198153D01*
X0086922Y0194083D02*
X0089975Y0194083D01*
X0090992Y0195101D01*
X0090992Y0198153D01*
X0092999Y0197136D02*
X0092999Y0195101D01*
X0094017Y0194083D01*
X0097070Y0194083D01*
X0097070Y0200188D01*
X0097070Y0198153D02*
X0094017Y0198153D01*
X0092999Y0197136D01*
X0105154Y0198153D02*
X0108206Y0198153D01*
X0109224Y0197136D01*
X0109224Y0195101D01*
X0108206Y0194083D01*
X0105154Y0194083D01*
X0105154Y0200188D01*
X0111231Y0197136D02*
X0111231Y0196118D01*
X0115301Y0196118D01*
X0115301Y0195101D02*
X0115301Y0197136D01*
X0114284Y0198153D01*
X0112248Y0198153D01*
X0111231Y0197136D01*
X0112248Y0194083D02*
X0114284Y0194083D01*
X0115301Y0195101D01*
X0117308Y0194083D02*
X0117308Y0197136D01*
X0118326Y0198153D01*
X0121378Y0198153D01*
X0121378Y0194083D01*
X0123385Y0194083D02*
X0126438Y0194083D01*
X0127455Y0195101D01*
X0127455Y0197136D01*
X0126438Y0198153D01*
X0123385Y0198153D01*
X0123385Y0193066D01*
X0124403Y0192048D01*
X0125420Y0192048D01*
X0127437Y0190288D02*
X0127437Y0189271D01*
X0131507Y0185201D01*
X0131507Y0184183D01*
X0133514Y0184183D02*
X0137584Y0184183D01*
X0135549Y0184183D02*
X0135549Y0190288D01*
X0137584Y0188253D01*
X0139591Y0189271D02*
X0139591Y0185201D01*
X0140609Y0184183D01*
X0142644Y0184183D01*
X0143661Y0185201D01*
X0139591Y0189271D01*
X0140609Y0190288D01*
X0142644Y0190288D01*
X0143661Y0189271D01*
X0143661Y0185201D01*
X0145668Y0184183D02*
X0149738Y0184183D01*
X0145668Y0188253D01*
X0145668Y0189271D01*
X0146686Y0190288D01*
X0148721Y0190288D01*
X0149738Y0189271D01*
X0149738Y0194083D02*
X0146686Y0194083D01*
X0145668Y0195101D01*
X0145668Y0199171D01*
X0146686Y0200188D01*
X0149738Y0200188D01*
X0149738Y0194083D01*
X0143661Y0195101D02*
X0143661Y0197136D01*
X0142644Y0198153D01*
X0140609Y0198153D01*
X0139591Y0197136D01*
X0139591Y0196118D01*
X0143661Y0196118D01*
X0143661Y0195101D02*
X0142644Y0194083D01*
X0140609Y0194083D01*
X0137584Y0194083D02*
X0134531Y0194083D01*
X0133514Y0195101D01*
X0134531Y0196118D01*
X0136567Y0196118D01*
X0137584Y0197136D01*
X0136567Y0198153D01*
X0133514Y0198153D01*
X0131507Y0198153D02*
X0130489Y0198153D01*
X0130489Y0194083D01*
X0129472Y0194083D02*
X0131507Y0194083D01*
X0131507Y0190288D02*
X0127437Y0190288D01*
X0130489Y0200188D02*
X0130489Y0201206D01*
X0131031Y0239183D02*
X0133282Y0239183D01*
X0134033Y0239934D01*
X0134033Y0240684D01*
X0133282Y0241435D01*
X0131031Y0241435D01*
X0129429Y0241435D02*
X0128679Y0240684D01*
X0126427Y0240684D01*
X0126427Y0239183D02*
X0126427Y0243687D01*
X0128679Y0243687D01*
X0129429Y0242936D01*
X0129429Y0241435D01*
X0131031Y0243687D02*
X0133282Y0243687D01*
X0134033Y0242936D01*
X0134033Y0242186D01*
X0133282Y0241435D01*
X0135634Y0241435D02*
X0137136Y0241435D01*
X0135634Y0243687D02*
X0138637Y0243687D01*
X0135634Y0243687D02*
X0135634Y0239183D01*
X0131031Y0239183D02*
X0131031Y0243687D01*
X0124825Y0242936D02*
X0124825Y0239934D01*
X0124075Y0239183D01*
X0122573Y0239183D01*
X0121823Y0239934D01*
X0124825Y0242936D01*
X0124075Y0243687D01*
X0122573Y0243687D01*
X0121823Y0242936D01*
X0121823Y0239934D01*
X0120221Y0241435D02*
X0117219Y0241435D01*
X0119471Y0243687D01*
X0119471Y0239183D01*
X0115617Y0239934D02*
X0115617Y0241435D01*
X0114867Y0242186D01*
X0114116Y0242186D01*
X0112615Y0241435D01*
X0112615Y0243687D01*
X0115617Y0243687D01*
X0115617Y0239934D02*
X0114867Y0239183D01*
X0113365Y0239183D01*
X0112615Y0239934D01*
X0111013Y0239183D02*
X0108011Y0239183D01*
X0108011Y0243687D01*
X0106410Y0242936D02*
X0106410Y0241435D01*
X0105659Y0240684D01*
X0103407Y0240684D01*
X0103407Y0239183D02*
X0103407Y0243687D01*
X0105659Y0243687D01*
X0106410Y0242936D01*
X0104908Y0240684D02*
X0106410Y0239183D01*
X0101839Y0239183D02*
X0100338Y0239183D01*
X0101088Y0239183D02*
X0101088Y0243687D01*
X0100338Y0243687D02*
X0101839Y0243687D01*
X0073637Y0243687D02*
X0070634Y0243687D01*
X0070634Y0239183D01*
X0069033Y0239934D02*
X0068282Y0239183D01*
X0066031Y0239183D01*
X0066031Y0243687D01*
X0068282Y0243687D01*
X0069033Y0242936D01*
X0069033Y0242186D01*
X0068282Y0241435D01*
X0066031Y0241435D01*
X0064429Y0241435D02*
X0063679Y0240684D01*
X0061427Y0240684D01*
X0061427Y0239183D02*
X0061427Y0243687D01*
X0063679Y0243687D01*
X0064429Y0242936D01*
X0064429Y0241435D01*
X0068282Y0241435D02*
X0069033Y0240684D01*
X0069033Y0239934D01*
X0070634Y0241435D02*
X0072136Y0241435D01*
X0059825Y0242936D02*
X0059825Y0239934D01*
X0059075Y0239183D01*
X0057573Y0239183D01*
X0056823Y0239934D01*
X0059825Y0242936D01*
X0059075Y0243687D01*
X0057573Y0243687D01*
X0056823Y0242936D01*
X0056823Y0239934D01*
X0055221Y0241435D02*
X0052219Y0241435D01*
X0054471Y0243687D01*
X0054471Y0239183D01*
X0050617Y0239934D02*
X0049867Y0239183D01*
X0048365Y0239183D01*
X0047615Y0239934D01*
X0047615Y0241435D02*
X0049116Y0242186D01*
X0049867Y0242186D01*
X0050617Y0241435D01*
X0050617Y0239934D01*
X0047615Y0241435D02*
X0047615Y0243687D01*
X0050617Y0243687D01*
X0046013Y0239183D02*
X0043011Y0239183D01*
X0043011Y0243687D01*
X0041410Y0242936D02*
X0041410Y0241435D01*
X0040659Y0240684D01*
X0038407Y0240684D01*
X0038407Y0239183D02*
X0038407Y0243687D01*
X0040659Y0243687D01*
X0041410Y0242936D01*
X0039908Y0240684D02*
X0041410Y0239183D01*
X0036839Y0239183D02*
X0035338Y0239183D01*
X0036088Y0239183D02*
X0036088Y0243687D01*
X0035338Y0243687D02*
X0036839Y0243687D01*
X0041357Y0201206D02*
X0041357Y0200188D01*
X0041357Y0198153D02*
X0041357Y0194083D01*
X0040340Y0194083D02*
X0042375Y0194083D01*
X0044382Y0194083D02*
X0048452Y0194083D01*
X0048452Y0200188D01*
X0042375Y0198153D02*
X0041357Y0198153D01*
X0038323Y0198153D02*
X0038323Y0194083D01*
X0036288Y0194083D02*
X0036288Y0197136D01*
X0035271Y0198153D01*
X0034253Y0197136D01*
X0034253Y0194083D01*
X0036288Y0197136D02*
X0037306Y0198153D01*
X0038323Y0198153D01*
X0056536Y0197136D02*
X0056536Y0194083D01*
X0056536Y0197136D02*
X0057554Y0198153D01*
X0060606Y0198153D01*
X0060606Y0194083D01*
X0062613Y0194083D02*
X0062613Y0197136D01*
X0063631Y0198153D01*
X0065666Y0198153D01*
X0066684Y0197136D01*
X0068691Y0197136D02*
X0068691Y0195101D01*
X0069708Y0194083D01*
X0071743Y0194083D01*
X0072761Y0195101D01*
X0072761Y0197136D01*
X0071743Y0198153D01*
X0069708Y0198153D01*
X0068691Y0197136D01*
X0066684Y0200188D02*
X0066684Y0194083D01*
X0075785Y0195101D02*
X0075785Y0200188D01*
X0074768Y0200188D02*
X0076803Y0200188D01*
X0075785Y0195101D02*
X0076803Y0194083D01*
X0077820Y0194083D01*
X0078838Y0195101D01*
X0165338Y0239183D02*
X0166839Y0239183D01*
X0166088Y0239183D02*
X0166088Y0243687D01*
X0165338Y0243687D02*
X0166839Y0243687D01*
X0168407Y0243687D02*
X0170659Y0243687D01*
X0171410Y0242936D01*
X0171410Y0241435D01*
X0170659Y0240684D01*
X0168407Y0240684D01*
X0168407Y0239183D02*
X0168407Y0243687D01*
X0169908Y0240684D02*
X0171410Y0239183D01*
X0173011Y0239183D02*
X0173011Y0243687D01*
X0173011Y0239183D02*
X0176013Y0239183D01*
X0177615Y0239934D02*
X0178365Y0239183D01*
X0179867Y0239183D01*
X0180617Y0239934D01*
X0180617Y0241435D01*
X0179867Y0242186D01*
X0179116Y0242186D01*
X0177615Y0241435D01*
X0177615Y0243687D01*
X0180617Y0243687D01*
X0182219Y0241435D02*
X0185221Y0241435D01*
X0186823Y0239934D02*
X0186823Y0242936D01*
X0187573Y0243687D01*
X0189075Y0243687D01*
X0189825Y0242936D01*
X0186823Y0239934D01*
X0187573Y0239183D01*
X0189075Y0239183D01*
X0189825Y0239934D01*
X0189825Y0242936D01*
X0191427Y0243687D02*
X0193679Y0243687D01*
X0194429Y0242936D01*
X0194429Y0241435D01*
X0193679Y0240684D01*
X0191427Y0240684D01*
X0191427Y0239183D02*
X0191427Y0243687D01*
X0196031Y0243687D02*
X0196031Y0239183D01*
X0198282Y0239183D01*
X0199033Y0239934D01*
X0199033Y0240684D01*
X0198282Y0241435D01*
X0196031Y0241435D01*
X0198282Y0241435D02*
X0199033Y0242186D01*
X0199033Y0242936D01*
X0198282Y0243687D01*
X0196031Y0243687D01*
X0200634Y0243687D02*
X0200634Y0239183D01*
X0200634Y0241435D02*
X0202136Y0241435D01*
X0200634Y0243687D02*
X0203637Y0243687D01*
X0184471Y0243687D02*
X0184471Y0239183D01*
X0182219Y0241435D02*
X0184471Y0243687D01*
D11*
X0039594Y0174702D02*
X0037292Y0173168D01*
X0039594Y0171633D01*
X0037292Y0171633D02*
X0037292Y0176237D01*
X0034223Y0176237D02*
X0034223Y0171633D01*
X0032688Y0171633D02*
X0035758Y0171633D01*
X0032688Y0174702D02*
X0034223Y0176237D01*
M02*
