%
M48
M72
T01C0.03200
T02C0.03937
T03C0.04000
T04C0.12598
%
T01
X124988Y113933
X134988Y113933
X144988Y113933
X154988Y113933
X164988Y113933
X174988Y113933
X184988Y113933
X194988Y113933
X194988Y143933
X184988Y143933
X174988Y143933
X164988Y143933
X154988Y143933
X144988Y143933
X134988Y143933
X124988Y143933
X94988Y148933
X84988Y148933
X74988Y148933
X64988Y148933
X54988Y148933
X44988Y148933
X34988Y148933
X34988Y118933
X44988Y118933
X54988Y118933
X64988Y118933
X74988Y118933
X84988Y118933
X94988Y118933
T02
X234988Y121020
X234988Y134799
X234988Y107240
X234988Y162240
X234988Y176020
X234988Y189799
T03
X54988Y83683
X64988Y83683
X74988Y83683
X124988Y83933
X134988Y83933
X144988Y83933
X154988Y83933
X164988Y83933
X174988Y83933
X184988Y83933
X184988Y158933
X174988Y158933
X164988Y158933
X154988Y158933
X144988Y158933
X134988Y158933
X124988Y158933
X124988Y168933
X134988Y168933
X144988Y168933
X154988Y168933
X164988Y168933
X174988Y168933
X184988Y168933
X184988Y223933
X174988Y223933
X194988Y223933
X194988Y241433
X184988Y241433
X232488Y223933
X242488Y223933
X129988Y223933
X119988Y223933
X109988Y223933
X119988Y241433
X129988Y241433
X64988Y241433
X54988Y241433
X54988Y223933
X44988Y223933
X64988Y223933
T04
X27292Y251709
X27292Y85606
X251819Y86157
X252292Y251709
M30
