G75*
%MOIN*%
%OFA0B0*%
%FSLAX25Y25*%
%IPPOS*%
%LPD*%
%AMOC8*
5,1,8,0,0,1.08239X$1,22.5*
%
%ADD10C,0.00400*%
%ADD11C,0.00600*%
%ADD12R,0.00320X0.00080*%
%ADD13R,0.01920X0.00080*%
%ADD14R,0.00800X0.00080*%
%ADD15R,0.00320X0.00080*%
%ADD16R,0.00640X0.00080*%
%ADD17R,0.00720X0.00080*%
%ADD18R,0.00400X0.00080*%
%ADD19R,0.00480X0.00080*%
%ADD20R,0.01840X0.00080*%
%ADD21R,0.00560X0.00080*%
%ADD22R,0.00160X0.00080*%
%ADD23R,0.01920X0.00080*%
%ADD24R,0.00640X0.00080*%
%ADD25R,0.01200X0.00080*%
%ADD26R,0.01280X0.00080*%
%ADD27R,0.00240X0.00080*%
%ADD28R,0.01440X0.00080*%
%ADD29R,0.01520X0.00080*%
%ADD30R,0.00880X0.00080*%
%ADD31R,0.01760X0.00080*%
%ADD32R,0.01840X0.00080*%
%ADD33R,0.00720X0.00080*%
%ADD34R,0.02000X0.00080*%
%ADD35R,0.01360X0.00080*%
%ADD36R,0.02160X0.00080*%
%ADD37R,0.02240X0.00080*%
%ADD38R,0.01040X0.00080*%
%ADD39R,0.02400X0.00080*%
%ADD40R,0.02560X0.00080*%
%ADD41R,0.00960X0.00080*%
%ADD42R,0.02480X0.00080*%
%ADD43R,0.02640X0.00080*%
%ADD44R,0.01120X0.00080*%
%ADD45R,0.01040X0.00080*%
%ADD46R,0.01120X0.00080*%
%ADD47R,0.00080X0.00080*%
%ADD48R,0.02080X0.00080*%
%ADD49R,0.01520X0.00080*%
%ADD50R,0.01600X0.00080*%
%ADD51R,0.01680X0.00080*%
%ADD52R,0.03360X0.00080*%
%ADD53R,0.00240X0.00080*%
%ADD54R,0.02720X0.00080*%
%ADD55R,0.02320X0.00080*%
%ADD56R,0.03760X0.00080*%
%ADD57R,0.03680X0.00080*%
%ADD58R,0.03840X0.00080*%
%ADD59R,0.01440X0.00080*%
%ADD60R,0.02800X0.00080*%
%ADD61R,0.02960X0.00080*%
%ADD62R,0.05440X0.00080*%
%ADD63R,0.05360X0.00080*%
%ADD64R,0.03120X0.00080*%
%ADD65R,0.05280X0.00080*%
%ADD66R,0.03200X0.00080*%
%ADD67R,0.05200X0.00080*%
%ADD68R,0.03280X0.00080*%
%ADD69R,0.05040X0.00080*%
%ADD70R,0.03440X0.00080*%
%ADD71R,0.04960X0.00080*%
%ADD72R,0.04880X0.00080*%
%ADD73R,0.04720X0.00080*%
%ADD74R,0.04240X0.00080*%
%ADD75R,0.04560X0.00080*%
%ADD76R,0.04160X0.00080*%
%ADD77R,0.02320X0.00080*%
%ADD78R,0.03440X0.00080*%
%ADD79R,0.04480X0.00080*%
%ADD80R,0.04080X0.00080*%
%ADD81R,0.03520X0.00080*%
%ADD82R,0.04320X0.00080*%
%ADD83R,0.04000X0.00080*%
%ADD84R,0.02640X0.00080*%
%ADD85R,0.02720X0.00080*%
%ADD86R,0.02880X0.00080*%
%ADD87R,0.03040X0.00080*%
%ADD88R,0.04320X0.00080*%
%ADD89R,0.03120X0.00080*%
%ADD90R,0.04400X0.00080*%
%ADD91R,0.05040X0.00080*%
%ADD92R,0.04720X0.00080*%
%ADD93R,0.03920X0.00080*%
%ADD94R,0.03920X0.00080*%
%ADD95R,0.03600X0.00080*%
%ADD96C,0.00500*%
%ADD97C,0.00300*%
%ADD98C,0.01000*%
%ADD99C,0.00800*%
%ADD100C,0.01600*%
%ADD101R,0.42000X0.03000*%
%ADD102R,0.07500X0.02000*%
%ADD103R,0.03000X0.02000*%
%ADD104R,0.01181X0.00591*%
%ADD105R,0.01181X0.01181*%
D10*
X0052084Y0091633D02*
X0057288Y0091633D01*
X0054686Y0091633D02*
X0054686Y0095103D01*
X0055554Y0096789D02*
X0052084Y0096789D01*
X0052084Y0095103D02*
X0057288Y0095103D01*
X0055554Y0096789D02*
X0057288Y0098524D01*
X0055554Y0100259D01*
X0052084Y0100259D01*
X0053819Y0101946D02*
X0052084Y0103681D01*
X0057288Y0103681D01*
X0057288Y0105415D02*
X0057288Y0101946D01*
X0062084Y0102813D02*
X0062951Y0101946D01*
X0062084Y0102813D02*
X0062084Y0104548D01*
X0062951Y0105415D01*
X0063819Y0105415D01*
X0067288Y0101946D01*
X0067288Y0105415D01*
X0072084Y0104548D02*
X0072084Y0102813D01*
X0072951Y0101946D01*
X0072084Y0100259D02*
X0075554Y0100259D01*
X0077288Y0098524D01*
X0075554Y0096789D01*
X0072084Y0096789D01*
X0072084Y0095103D02*
X0077288Y0095103D01*
X0074686Y0095103D02*
X0074686Y0091633D01*
X0077288Y0091633D02*
X0072084Y0091633D01*
X0067288Y0091633D02*
X0062084Y0091633D01*
X0064686Y0091633D02*
X0064686Y0095103D01*
X0065554Y0096789D02*
X0062084Y0096789D01*
X0062084Y0095103D02*
X0067288Y0095103D01*
X0065554Y0096789D02*
X0067288Y0098524D01*
X0065554Y0100259D01*
X0062084Y0100259D01*
X0072084Y0104548D02*
X0072951Y0105415D01*
X0073819Y0105415D01*
X0074686Y0104548D01*
X0075554Y0105415D01*
X0076421Y0105415D01*
X0077288Y0104548D01*
X0077288Y0102813D01*
X0076421Y0101946D01*
X0074686Y0103681D02*
X0074686Y0104548D01*
X0070386Y0131633D02*
X0070386Y0136237D01*
X0068085Y0133935D01*
X0071154Y0133935D01*
X0066550Y0134702D02*
X0066550Y0135470D01*
X0065783Y0136237D01*
X0064248Y0136237D01*
X0063481Y0135470D01*
X0061946Y0135470D02*
X0061946Y0134702D01*
X0061179Y0133935D01*
X0061946Y0133168D01*
X0061946Y0132400D01*
X0061179Y0131633D01*
X0059644Y0131633D01*
X0058877Y0132400D01*
X0057342Y0131633D02*
X0057342Y0136237D01*
X0055807Y0134702D01*
X0054273Y0136237D01*
X0054273Y0131633D01*
X0052738Y0131633D02*
X0049669Y0131633D01*
X0049669Y0136237D01*
X0058877Y0135470D02*
X0059644Y0136237D01*
X0061179Y0136237D01*
X0061946Y0135470D01*
X0061179Y0133935D02*
X0060411Y0133935D01*
X0063481Y0131633D02*
X0066550Y0134702D01*
X0066550Y0131633D02*
X0063481Y0131633D01*
X0064631Y0173093D02*
X0066933Y0173093D01*
X0067700Y0173860D01*
X0067700Y0176930D01*
X0066933Y0177697D01*
X0064631Y0177697D01*
X0064631Y0173093D01*
X0069235Y0173093D02*
X0069235Y0176162D01*
X0069235Y0174628D02*
X0070770Y0176162D01*
X0071537Y0176162D01*
X0073072Y0176162D02*
X0073839Y0176162D01*
X0073839Y0173093D01*
X0073072Y0173093D02*
X0074606Y0173093D01*
X0077675Y0173093D02*
X0079210Y0176162D01*
X0080745Y0175395D02*
X0081512Y0176162D01*
X0083047Y0176162D01*
X0083814Y0175395D01*
X0083814Y0174628D01*
X0080745Y0174628D01*
X0080745Y0175395D02*
X0080745Y0173860D01*
X0081512Y0173093D01*
X0083047Y0173093D01*
X0085349Y0173093D02*
X0085349Y0176162D01*
X0086883Y0176162D02*
X0087651Y0176162D01*
X0086883Y0176162D02*
X0085349Y0174628D01*
X0093789Y0175395D02*
X0096091Y0175395D01*
X0096858Y0174628D01*
X0096858Y0173860D01*
X0096091Y0173093D01*
X0093789Y0173093D01*
X0093789Y0177697D01*
X0096091Y0177697D01*
X0096858Y0176930D01*
X0096858Y0176162D01*
X0096091Y0175395D01*
X0098393Y0175395D02*
X0098393Y0173860D01*
X0099160Y0173093D01*
X0100695Y0173093D01*
X0101462Y0173860D01*
X0101462Y0175395D01*
X0100695Y0176162D01*
X0099160Y0176162D01*
X0098393Y0175395D01*
X0102997Y0173860D02*
X0103764Y0174628D01*
X0106066Y0174628D01*
X0106066Y0175395D02*
X0106066Y0173093D01*
X0103764Y0173093D01*
X0102997Y0173860D01*
X0103764Y0176162D02*
X0105299Y0176162D01*
X0106066Y0175395D01*
X0107601Y0174628D02*
X0109136Y0176162D01*
X0109903Y0176162D01*
X0111438Y0175395D02*
X0112205Y0176162D01*
X0114507Y0176162D01*
X0114507Y0177697D02*
X0114507Y0173093D01*
X0112205Y0173093D01*
X0111438Y0173860D01*
X0111438Y0175395D01*
X0107601Y0176162D02*
X0107601Y0173093D01*
X0077675Y0173093D02*
X0076141Y0176162D01*
X0073839Y0177697D02*
X0073839Y0178464D01*
X0058492Y0176930D02*
X0057725Y0177697D01*
X0056190Y0177697D01*
X0055423Y0176930D01*
X0055423Y0173860D01*
X0056190Y0173093D01*
X0057725Y0173093D01*
X0058492Y0173860D01*
X0053889Y0177697D02*
X0050819Y0177697D01*
X0050819Y0173093D01*
X0050819Y0175395D02*
X0052354Y0175395D01*
X0049285Y0175395D02*
X0048517Y0174628D01*
X0046215Y0174628D01*
X0046215Y0173093D02*
X0046215Y0177697D01*
X0048517Y0177697D01*
X0049285Y0176930D01*
X0049285Y0175395D01*
X0136253Y0131237D02*
X0136253Y0127400D01*
X0137020Y0126633D01*
X0138555Y0126633D01*
X0139322Y0127400D01*
X0139322Y0131237D01*
X0140857Y0131237D02*
X0140857Y0126633D01*
X0143926Y0126633D01*
X0145461Y0126633D02*
X0145461Y0131237D01*
X0148530Y0126633D01*
X0148530Y0131237D01*
X0150065Y0130470D02*
X0150832Y0131237D01*
X0152367Y0131237D01*
X0153134Y0130470D01*
X0153134Y0129702D01*
X0150065Y0126633D01*
X0153134Y0126633D01*
X0154669Y0127400D02*
X0155436Y0126633D01*
X0156971Y0126633D01*
X0157738Y0127400D01*
X0157738Y0130470D01*
X0154669Y0127400D01*
X0154669Y0130470D01*
X0155436Y0131237D01*
X0156971Y0131237D01*
X0157738Y0130470D01*
X0159273Y0130470D02*
X0160040Y0131237D01*
X0161575Y0131237D01*
X0162342Y0130470D01*
X0159273Y0127400D01*
X0160040Y0126633D01*
X0161575Y0126633D01*
X0162342Y0127400D01*
X0162342Y0130470D01*
X0163877Y0130470D02*
X0164644Y0131237D01*
X0166179Y0131237D01*
X0166946Y0130470D01*
X0166946Y0129702D01*
X0166179Y0128935D01*
X0166946Y0128168D01*
X0166946Y0127400D01*
X0166179Y0126633D01*
X0164644Y0126633D01*
X0163877Y0127400D01*
X0165411Y0128935D02*
X0166179Y0128935D01*
X0168481Y0128935D02*
X0171550Y0128935D01*
X0171550Y0129702D02*
X0171550Y0126633D01*
X0173084Y0126633D02*
X0173084Y0131237D01*
X0176154Y0126633D01*
X0176154Y0131237D01*
X0171550Y0129702D02*
X0170015Y0131237D01*
X0168481Y0129702D01*
X0168481Y0126633D01*
X0159273Y0127400D02*
X0159273Y0130470D01*
X0162084Y0105415D02*
X0162084Y0101946D01*
X0164686Y0101946D01*
X0163819Y0103681D01*
X0163819Y0104548D01*
X0164686Y0105415D01*
X0166421Y0105415D01*
X0167288Y0104548D01*
X0167288Y0102813D01*
X0166421Y0101946D01*
X0165554Y0100259D02*
X0162084Y0100259D01*
X0162084Y0096789D02*
X0165554Y0096789D01*
X0167288Y0098524D01*
X0165554Y0100259D01*
X0167288Y0095103D02*
X0167288Y0091633D01*
X0162084Y0091633D01*
X0157288Y0091633D02*
X0157288Y0095103D01*
X0155554Y0096789D02*
X0157288Y0098524D01*
X0155554Y0100259D01*
X0152084Y0100259D01*
X0154686Y0101946D02*
X0154686Y0105415D01*
X0152084Y0104548D02*
X0154686Y0101946D01*
X0157288Y0104548D02*
X0152084Y0104548D01*
X0147288Y0104548D02*
X0147288Y0102813D01*
X0146421Y0101946D01*
X0145554Y0100259D02*
X0142084Y0100259D01*
X0142951Y0101946D02*
X0142084Y0102813D01*
X0142084Y0104548D01*
X0142951Y0105415D01*
X0143819Y0105415D01*
X0144686Y0104548D01*
X0145554Y0105415D01*
X0146421Y0105415D01*
X0147288Y0104548D01*
X0144686Y0104548D02*
X0144686Y0103681D01*
X0145554Y0100259D02*
X0147288Y0098524D01*
X0145554Y0096789D01*
X0142084Y0096789D01*
X0137288Y0095103D02*
X0137288Y0091633D01*
X0132084Y0091633D01*
X0127288Y0091633D02*
X0127288Y0095103D01*
X0125554Y0096789D02*
X0122084Y0096789D01*
X0125554Y0096789D02*
X0127288Y0098524D01*
X0125554Y0100259D01*
X0122084Y0100259D01*
X0123819Y0101946D02*
X0122084Y0103681D01*
X0127288Y0103681D01*
X0127288Y0105415D02*
X0127288Y0101946D01*
X0132084Y0102813D02*
X0132084Y0104548D01*
X0132951Y0105415D01*
X0133819Y0105415D01*
X0137288Y0101946D01*
X0137288Y0105415D01*
X0132951Y0101946D02*
X0132084Y0102813D01*
X0132084Y0100259D02*
X0135554Y0100259D01*
X0137288Y0098524D01*
X0135554Y0096789D01*
X0132084Y0096789D01*
X0127288Y0091633D02*
X0122084Y0091633D01*
X0142084Y0091633D02*
X0147288Y0091633D01*
X0147288Y0095103D01*
X0152084Y0096789D02*
X0155554Y0096789D01*
X0157288Y0091633D02*
X0152084Y0091633D01*
X0172084Y0091633D02*
X0177288Y0091633D01*
X0177288Y0095103D01*
X0175554Y0096789D02*
X0177288Y0098524D01*
X0175554Y0100259D01*
X0172084Y0100259D01*
X0174686Y0101946D02*
X0174686Y0104548D01*
X0175554Y0105415D01*
X0176421Y0105415D01*
X0177288Y0104548D01*
X0177288Y0102813D01*
X0176421Y0101946D01*
X0174686Y0101946D01*
X0172951Y0103681D01*
X0172084Y0105415D01*
X0172084Y0096789D02*
X0175554Y0096789D01*
X0182084Y0096789D02*
X0185554Y0096789D01*
X0187288Y0098524D01*
X0185554Y0100259D01*
X0182084Y0100259D01*
X0182084Y0101946D02*
X0182084Y0105415D01*
X0182951Y0105415D01*
X0186421Y0101946D01*
X0187288Y0101946D01*
X0187288Y0095103D02*
X0187288Y0091633D01*
X0182084Y0091633D01*
D11*
X0052488Y0078683D02*
X0049988Y0081183D01*
X0049988Y0086183D01*
X0052488Y0088683D01*
X0057488Y0088683D01*
X0059988Y0086183D01*
X0062488Y0088683D01*
X0067488Y0088683D01*
X0069988Y0086183D01*
X0072488Y0088683D01*
X0077488Y0088683D01*
X0079988Y0086183D01*
X0079988Y0081183D01*
X0077488Y0078683D01*
X0072488Y0078683D01*
X0069988Y0081183D01*
X0067488Y0078683D01*
X0062488Y0078683D01*
X0059988Y0081183D01*
X0057488Y0078683D01*
X0052488Y0078683D01*
X0059988Y0081183D02*
X0059988Y0086183D01*
X0069988Y0086183D02*
X0069988Y0081183D01*
X0119988Y0108933D02*
X0119988Y0118933D01*
X0119988Y0124933D01*
X0120114Y0124935D01*
X0120239Y0124941D01*
X0120364Y0124951D01*
X0120489Y0124965D01*
X0120614Y0124982D01*
X0120738Y0125004D01*
X0120861Y0125029D01*
X0120983Y0125059D01*
X0121104Y0125092D01*
X0121224Y0125129D01*
X0121343Y0125169D01*
X0121460Y0125214D01*
X0121577Y0125262D01*
X0121691Y0125314D01*
X0121804Y0125369D01*
X0121915Y0125428D01*
X0122024Y0125490D01*
X0122131Y0125556D01*
X0122236Y0125625D01*
X0122339Y0125697D01*
X0122440Y0125772D01*
X0122538Y0125851D01*
X0122633Y0125933D01*
X0122726Y0126017D01*
X0122816Y0126105D01*
X0122904Y0126195D01*
X0122988Y0126288D01*
X0123070Y0126383D01*
X0123149Y0126481D01*
X0123224Y0126582D01*
X0123296Y0126685D01*
X0123365Y0126790D01*
X0123431Y0126897D01*
X0123493Y0127006D01*
X0123552Y0127117D01*
X0123607Y0127230D01*
X0123659Y0127344D01*
X0123707Y0127461D01*
X0123752Y0127578D01*
X0123792Y0127697D01*
X0123829Y0127817D01*
X0123862Y0127938D01*
X0123892Y0128060D01*
X0123917Y0128183D01*
X0123939Y0128307D01*
X0123956Y0128432D01*
X0123970Y0128557D01*
X0123980Y0128682D01*
X0123986Y0128807D01*
X0123988Y0128933D01*
X0123986Y0129059D01*
X0123980Y0129184D01*
X0123970Y0129309D01*
X0123956Y0129434D01*
X0123939Y0129559D01*
X0123917Y0129683D01*
X0123892Y0129806D01*
X0123862Y0129928D01*
X0123829Y0130049D01*
X0123792Y0130169D01*
X0123752Y0130288D01*
X0123707Y0130405D01*
X0123659Y0130522D01*
X0123607Y0130636D01*
X0123552Y0130749D01*
X0123493Y0130860D01*
X0123431Y0130969D01*
X0123365Y0131076D01*
X0123296Y0131181D01*
X0123224Y0131284D01*
X0123149Y0131385D01*
X0123070Y0131483D01*
X0122988Y0131578D01*
X0122904Y0131671D01*
X0122816Y0131761D01*
X0122726Y0131849D01*
X0122633Y0131933D01*
X0122538Y0132015D01*
X0122440Y0132094D01*
X0122339Y0132169D01*
X0122236Y0132241D01*
X0122131Y0132310D01*
X0122024Y0132376D01*
X0121915Y0132438D01*
X0121804Y0132497D01*
X0121691Y0132552D01*
X0121577Y0132604D01*
X0121460Y0132652D01*
X0121343Y0132697D01*
X0121224Y0132737D01*
X0121104Y0132774D01*
X0120983Y0132807D01*
X0120861Y0132837D01*
X0120738Y0132862D01*
X0120614Y0132884D01*
X0120489Y0132901D01*
X0120364Y0132915D01*
X0120239Y0132925D01*
X0120114Y0132931D01*
X0119988Y0132933D01*
X0119988Y0138933D01*
X0119988Y0148933D01*
X0122488Y0153933D02*
X0119988Y0156433D01*
X0119988Y0171433D01*
X0122488Y0173933D01*
X0127488Y0173933D01*
X0129988Y0171433D01*
X0129988Y0156433D01*
X0132488Y0153933D01*
X0137488Y0153933D01*
X0139988Y0156433D01*
X0139988Y0171433D01*
X0142488Y0173933D01*
X0147488Y0173933D01*
X0149988Y0171433D01*
X0149988Y0156433D01*
X0152488Y0153933D01*
X0157488Y0153933D01*
X0159988Y0156433D01*
X0159988Y0171433D01*
X0162488Y0173933D01*
X0167488Y0173933D01*
X0169988Y0171433D01*
X0169988Y0156433D01*
X0172488Y0153933D01*
X0177488Y0153933D01*
X0179988Y0156433D01*
X0179988Y0171433D01*
X0182488Y0173933D01*
X0187488Y0173933D01*
X0189988Y0171433D01*
X0189988Y0156433D01*
X0187488Y0153933D01*
X0182488Y0153933D01*
X0179988Y0156433D01*
X0169988Y0156433D02*
X0167488Y0153933D01*
X0162488Y0153933D01*
X0159988Y0156433D01*
X0149988Y0156433D02*
X0147488Y0153933D01*
X0142488Y0153933D01*
X0139988Y0156433D01*
X0129988Y0156433D02*
X0127488Y0153933D01*
X0122488Y0153933D01*
X0129988Y0171433D02*
X0132488Y0173933D01*
X0137488Y0173933D01*
X0139988Y0171433D01*
X0149988Y0171433D02*
X0152488Y0173933D01*
X0157488Y0173933D01*
X0159988Y0171433D01*
X0169988Y0171433D02*
X0172488Y0173933D01*
X0177488Y0173933D01*
X0179988Y0171433D01*
X0179559Y0186733D02*
X0179559Y0193139D01*
X0181734Y0193139D02*
X0181734Y0188868D01*
X0183869Y0186733D01*
X0186004Y0188868D01*
X0186004Y0193139D01*
X0188179Y0192071D02*
X0189247Y0193139D01*
X0191382Y0193139D01*
X0192450Y0192071D01*
X0192450Y0191003D01*
X0191382Y0189936D01*
X0192450Y0188868D01*
X0192450Y0187801D01*
X0191382Y0186733D01*
X0189247Y0186733D01*
X0188179Y0187801D01*
X0190315Y0189936D02*
X0191382Y0189936D01*
X0179559Y0189936D02*
X0175288Y0189936D01*
X0175288Y0186733D02*
X0175288Y0193139D01*
X0164988Y0218433D02*
X0165488Y0229933D01*
X0166488Y0230933D01*
X0203488Y0230933D01*
X0204488Y0229933D01*
X0204988Y0218433D01*
X0201688Y0228533D02*
X0201690Y0228596D01*
X0201696Y0228658D01*
X0201706Y0228720D01*
X0201719Y0228782D01*
X0201737Y0228842D01*
X0201758Y0228901D01*
X0201783Y0228959D01*
X0201812Y0229015D01*
X0201844Y0229069D01*
X0201879Y0229121D01*
X0201917Y0229170D01*
X0201959Y0229218D01*
X0202003Y0229262D01*
X0202051Y0229304D01*
X0202100Y0229342D01*
X0202152Y0229377D01*
X0202206Y0229409D01*
X0202262Y0229438D01*
X0202320Y0229463D01*
X0202379Y0229484D01*
X0202439Y0229502D01*
X0202501Y0229515D01*
X0202563Y0229525D01*
X0202625Y0229531D01*
X0202688Y0229533D01*
X0202751Y0229531D01*
X0202813Y0229525D01*
X0202875Y0229515D01*
X0202937Y0229502D01*
X0202997Y0229484D01*
X0203056Y0229463D01*
X0203114Y0229438D01*
X0203170Y0229409D01*
X0203224Y0229377D01*
X0203276Y0229342D01*
X0203325Y0229304D01*
X0203373Y0229262D01*
X0203417Y0229218D01*
X0203459Y0229170D01*
X0203497Y0229121D01*
X0203532Y0229069D01*
X0203564Y0229015D01*
X0203593Y0228959D01*
X0203618Y0228901D01*
X0203639Y0228842D01*
X0203657Y0228782D01*
X0203670Y0228720D01*
X0203680Y0228658D01*
X0203686Y0228596D01*
X0203688Y0228533D01*
X0203686Y0228470D01*
X0203680Y0228408D01*
X0203670Y0228346D01*
X0203657Y0228284D01*
X0203639Y0228224D01*
X0203618Y0228165D01*
X0203593Y0228107D01*
X0203564Y0228051D01*
X0203532Y0227997D01*
X0203497Y0227945D01*
X0203459Y0227896D01*
X0203417Y0227848D01*
X0203373Y0227804D01*
X0203325Y0227762D01*
X0203276Y0227724D01*
X0203224Y0227689D01*
X0203170Y0227657D01*
X0203114Y0227628D01*
X0203056Y0227603D01*
X0202997Y0227582D01*
X0202937Y0227564D01*
X0202875Y0227551D01*
X0202813Y0227541D01*
X0202751Y0227535D01*
X0202688Y0227533D01*
X0202625Y0227535D01*
X0202563Y0227541D01*
X0202501Y0227551D01*
X0202439Y0227564D01*
X0202379Y0227582D01*
X0202320Y0227603D01*
X0202262Y0227628D01*
X0202206Y0227657D01*
X0202152Y0227689D01*
X0202100Y0227724D01*
X0202051Y0227762D01*
X0202003Y0227804D01*
X0201959Y0227848D01*
X0201917Y0227896D01*
X0201879Y0227945D01*
X0201844Y0227997D01*
X0201812Y0228051D01*
X0201783Y0228107D01*
X0201758Y0228165D01*
X0201737Y0228224D01*
X0201719Y0228284D01*
X0201706Y0228346D01*
X0201696Y0228408D01*
X0201690Y0228470D01*
X0201688Y0228533D01*
X0197488Y0236433D02*
X0182488Y0236433D01*
X0179988Y0238933D01*
X0179988Y0243933D01*
X0182488Y0246433D01*
X0197488Y0246433D01*
X0199988Y0243933D01*
X0199988Y0238933D01*
X0197488Y0236433D01*
X0227488Y0226433D02*
X0227488Y0221433D01*
X0229988Y0218933D01*
X0244988Y0218933D01*
X0247488Y0221433D01*
X0247488Y0226433D01*
X0244988Y0228933D01*
X0229988Y0228933D01*
X0227488Y0226433D01*
X0139988Y0218433D02*
X0139488Y0229933D01*
X0138488Y0230933D01*
X0101488Y0230933D01*
X0100488Y0229933D01*
X0099988Y0218433D01*
X0074988Y0218433D02*
X0074488Y0229933D01*
X0073488Y0230933D01*
X0036488Y0230933D01*
X0035488Y0229933D01*
X0034988Y0218433D01*
X0052488Y0236433D02*
X0049988Y0238933D01*
X0049988Y0243933D01*
X0052488Y0246433D01*
X0067488Y0246433D01*
X0069988Y0243933D01*
X0069988Y0238933D01*
X0067488Y0236433D01*
X0052488Y0236433D01*
X0071688Y0228533D02*
X0071690Y0228596D01*
X0071696Y0228658D01*
X0071706Y0228720D01*
X0071719Y0228782D01*
X0071737Y0228842D01*
X0071758Y0228901D01*
X0071783Y0228959D01*
X0071812Y0229015D01*
X0071844Y0229069D01*
X0071879Y0229121D01*
X0071917Y0229170D01*
X0071959Y0229218D01*
X0072003Y0229262D01*
X0072051Y0229304D01*
X0072100Y0229342D01*
X0072152Y0229377D01*
X0072206Y0229409D01*
X0072262Y0229438D01*
X0072320Y0229463D01*
X0072379Y0229484D01*
X0072439Y0229502D01*
X0072501Y0229515D01*
X0072563Y0229525D01*
X0072625Y0229531D01*
X0072688Y0229533D01*
X0072751Y0229531D01*
X0072813Y0229525D01*
X0072875Y0229515D01*
X0072937Y0229502D01*
X0072997Y0229484D01*
X0073056Y0229463D01*
X0073114Y0229438D01*
X0073170Y0229409D01*
X0073224Y0229377D01*
X0073276Y0229342D01*
X0073325Y0229304D01*
X0073373Y0229262D01*
X0073417Y0229218D01*
X0073459Y0229170D01*
X0073497Y0229121D01*
X0073532Y0229069D01*
X0073564Y0229015D01*
X0073593Y0228959D01*
X0073618Y0228901D01*
X0073639Y0228842D01*
X0073657Y0228782D01*
X0073670Y0228720D01*
X0073680Y0228658D01*
X0073686Y0228596D01*
X0073688Y0228533D01*
X0073686Y0228470D01*
X0073680Y0228408D01*
X0073670Y0228346D01*
X0073657Y0228284D01*
X0073639Y0228224D01*
X0073618Y0228165D01*
X0073593Y0228107D01*
X0073564Y0228051D01*
X0073532Y0227997D01*
X0073497Y0227945D01*
X0073459Y0227896D01*
X0073417Y0227848D01*
X0073373Y0227804D01*
X0073325Y0227762D01*
X0073276Y0227724D01*
X0073224Y0227689D01*
X0073170Y0227657D01*
X0073114Y0227628D01*
X0073056Y0227603D01*
X0072997Y0227582D01*
X0072937Y0227564D01*
X0072875Y0227551D01*
X0072813Y0227541D01*
X0072751Y0227535D01*
X0072688Y0227533D01*
X0072625Y0227535D01*
X0072563Y0227541D01*
X0072501Y0227551D01*
X0072439Y0227564D01*
X0072379Y0227582D01*
X0072320Y0227603D01*
X0072262Y0227628D01*
X0072206Y0227657D01*
X0072152Y0227689D01*
X0072100Y0227724D01*
X0072051Y0227762D01*
X0072003Y0227804D01*
X0071959Y0227848D01*
X0071917Y0227896D01*
X0071879Y0227945D01*
X0071844Y0227997D01*
X0071812Y0228051D01*
X0071783Y0228107D01*
X0071758Y0228165D01*
X0071737Y0228224D01*
X0071719Y0228284D01*
X0071706Y0228346D01*
X0071696Y0228408D01*
X0071690Y0228470D01*
X0071688Y0228533D01*
X0114988Y0238933D02*
X0114988Y0243933D01*
X0117488Y0246433D01*
X0132488Y0246433D01*
X0134988Y0243933D01*
X0134988Y0238933D01*
X0132488Y0236433D01*
X0117488Y0236433D01*
X0114988Y0238933D01*
X0136688Y0228533D02*
X0136690Y0228596D01*
X0136696Y0228658D01*
X0136706Y0228720D01*
X0136719Y0228782D01*
X0136737Y0228842D01*
X0136758Y0228901D01*
X0136783Y0228959D01*
X0136812Y0229015D01*
X0136844Y0229069D01*
X0136879Y0229121D01*
X0136917Y0229170D01*
X0136959Y0229218D01*
X0137003Y0229262D01*
X0137051Y0229304D01*
X0137100Y0229342D01*
X0137152Y0229377D01*
X0137206Y0229409D01*
X0137262Y0229438D01*
X0137320Y0229463D01*
X0137379Y0229484D01*
X0137439Y0229502D01*
X0137501Y0229515D01*
X0137563Y0229525D01*
X0137625Y0229531D01*
X0137688Y0229533D01*
X0137751Y0229531D01*
X0137813Y0229525D01*
X0137875Y0229515D01*
X0137937Y0229502D01*
X0137997Y0229484D01*
X0138056Y0229463D01*
X0138114Y0229438D01*
X0138170Y0229409D01*
X0138224Y0229377D01*
X0138276Y0229342D01*
X0138325Y0229304D01*
X0138373Y0229262D01*
X0138417Y0229218D01*
X0138459Y0229170D01*
X0138497Y0229121D01*
X0138532Y0229069D01*
X0138564Y0229015D01*
X0138593Y0228959D01*
X0138618Y0228901D01*
X0138639Y0228842D01*
X0138657Y0228782D01*
X0138670Y0228720D01*
X0138680Y0228658D01*
X0138686Y0228596D01*
X0138688Y0228533D01*
X0138686Y0228470D01*
X0138680Y0228408D01*
X0138670Y0228346D01*
X0138657Y0228284D01*
X0138639Y0228224D01*
X0138618Y0228165D01*
X0138593Y0228107D01*
X0138564Y0228051D01*
X0138532Y0227997D01*
X0138497Y0227945D01*
X0138459Y0227896D01*
X0138417Y0227848D01*
X0138373Y0227804D01*
X0138325Y0227762D01*
X0138276Y0227724D01*
X0138224Y0227689D01*
X0138170Y0227657D01*
X0138114Y0227628D01*
X0138056Y0227603D01*
X0137997Y0227582D01*
X0137937Y0227564D01*
X0137875Y0227551D01*
X0137813Y0227541D01*
X0137751Y0227535D01*
X0137688Y0227533D01*
X0137625Y0227535D01*
X0137563Y0227541D01*
X0137501Y0227551D01*
X0137439Y0227564D01*
X0137379Y0227582D01*
X0137320Y0227603D01*
X0137262Y0227628D01*
X0137206Y0227657D01*
X0137152Y0227689D01*
X0137100Y0227724D01*
X0137051Y0227762D01*
X0137003Y0227804D01*
X0136959Y0227848D01*
X0136917Y0227896D01*
X0136879Y0227945D01*
X0136844Y0227997D01*
X0136812Y0228051D01*
X0136783Y0228107D01*
X0136758Y0228165D01*
X0136737Y0228224D01*
X0136719Y0228284D01*
X0136706Y0228346D01*
X0136696Y0228408D01*
X0136690Y0228470D01*
X0136688Y0228533D01*
X0128882Y0193139D02*
X0126747Y0193139D01*
X0125679Y0192071D01*
X0123504Y0193139D02*
X0123504Y0188868D01*
X0121369Y0186733D01*
X0119234Y0188868D01*
X0119234Y0193139D01*
X0117059Y0193139D02*
X0117059Y0186733D01*
X0117059Y0189936D02*
X0112788Y0189936D01*
X0112788Y0186733D02*
X0112788Y0193139D01*
X0125679Y0186733D02*
X0129950Y0191003D01*
X0129950Y0192071D01*
X0128882Y0193139D01*
X0129950Y0186733D02*
X0125679Y0186733D01*
X0099988Y0145433D02*
X0099988Y0122433D01*
X0029988Y0122433D01*
X0029988Y0129933D01*
X0030114Y0129935D01*
X0030239Y0129941D01*
X0030364Y0129951D01*
X0030489Y0129965D01*
X0030614Y0129982D01*
X0030738Y0130004D01*
X0030861Y0130029D01*
X0030983Y0130059D01*
X0031104Y0130092D01*
X0031224Y0130129D01*
X0031343Y0130169D01*
X0031460Y0130214D01*
X0031577Y0130262D01*
X0031691Y0130314D01*
X0031804Y0130369D01*
X0031915Y0130428D01*
X0032024Y0130490D01*
X0032131Y0130556D01*
X0032236Y0130625D01*
X0032339Y0130697D01*
X0032440Y0130772D01*
X0032538Y0130851D01*
X0032633Y0130933D01*
X0032726Y0131017D01*
X0032816Y0131105D01*
X0032904Y0131195D01*
X0032988Y0131288D01*
X0033070Y0131383D01*
X0033149Y0131481D01*
X0033224Y0131582D01*
X0033296Y0131685D01*
X0033365Y0131790D01*
X0033431Y0131897D01*
X0033493Y0132006D01*
X0033552Y0132117D01*
X0033607Y0132230D01*
X0033659Y0132344D01*
X0033707Y0132461D01*
X0033752Y0132578D01*
X0033792Y0132697D01*
X0033829Y0132817D01*
X0033862Y0132938D01*
X0033892Y0133060D01*
X0033917Y0133183D01*
X0033939Y0133307D01*
X0033956Y0133432D01*
X0033970Y0133557D01*
X0033980Y0133682D01*
X0033986Y0133807D01*
X0033988Y0133933D01*
X0033986Y0134059D01*
X0033980Y0134184D01*
X0033970Y0134309D01*
X0033956Y0134434D01*
X0033939Y0134559D01*
X0033917Y0134683D01*
X0033892Y0134806D01*
X0033862Y0134928D01*
X0033829Y0135049D01*
X0033792Y0135169D01*
X0033752Y0135288D01*
X0033707Y0135405D01*
X0033659Y0135522D01*
X0033607Y0135636D01*
X0033552Y0135749D01*
X0033493Y0135860D01*
X0033431Y0135969D01*
X0033365Y0136076D01*
X0033296Y0136181D01*
X0033224Y0136284D01*
X0033149Y0136385D01*
X0033070Y0136483D01*
X0032988Y0136578D01*
X0032904Y0136671D01*
X0032816Y0136761D01*
X0032726Y0136849D01*
X0032633Y0136933D01*
X0032538Y0137015D01*
X0032440Y0137094D01*
X0032339Y0137169D01*
X0032236Y0137241D01*
X0032131Y0137310D01*
X0032024Y0137376D01*
X0031915Y0137438D01*
X0031804Y0137497D01*
X0031691Y0137552D01*
X0031577Y0137604D01*
X0031460Y0137652D01*
X0031343Y0137697D01*
X0031224Y0137737D01*
X0031104Y0137774D01*
X0030983Y0137807D01*
X0030861Y0137837D01*
X0030738Y0137862D01*
X0030614Y0137884D01*
X0030489Y0137901D01*
X0030364Y0137915D01*
X0030239Y0137925D01*
X0030114Y0137931D01*
X0029988Y0137933D01*
X0029988Y0145433D01*
X0099988Y0145433D01*
X0064950Y0186733D02*
X0060679Y0186733D01*
X0062815Y0186733D02*
X0062815Y0193139D01*
X0060679Y0191003D01*
X0058504Y0188868D02*
X0058504Y0193139D01*
X0054234Y0193139D02*
X0054234Y0188868D01*
X0056369Y0186733D01*
X0058504Y0188868D01*
X0052059Y0189936D02*
X0047788Y0189936D01*
X0047788Y0186733D02*
X0047788Y0193139D01*
X0052059Y0193139D02*
X0052059Y0186733D01*
X0199988Y0148933D02*
X0199988Y0138933D01*
X0199988Y0118933D01*
X0199988Y0108933D01*
D12*
X0109808Y0159573D03*
X0102768Y0159333D03*
X0086608Y0158773D03*
X0081808Y0161413D03*
X0081808Y0161493D03*
X0063808Y0158533D03*
D13*
X0065728Y0158533D03*
X0065728Y0158613D03*
X0065728Y0158693D03*
X0065728Y0158773D03*
X0065728Y0158853D03*
X0065728Y0158933D03*
X0065728Y0159013D03*
X0065728Y0159093D03*
X0065728Y0159173D03*
X0072688Y0159013D03*
X0072688Y0158933D03*
X0072688Y0158853D03*
X0072688Y0158773D03*
X0072688Y0158693D03*
X0072688Y0158613D03*
X0072688Y0158533D03*
X0072688Y0161173D03*
X0072688Y0161253D03*
X0072688Y0161333D03*
X0072688Y0161413D03*
X0072688Y0161493D03*
X0072688Y0161573D03*
X0072688Y0161653D03*
X0072688Y0161733D03*
X0075488Y0161413D03*
X0086448Y0168853D03*
X0094528Y0161413D03*
X0105648Y0161413D03*
X0110848Y0164613D03*
D14*
X0111088Y0161253D03*
X0111088Y0160133D03*
X0109808Y0159813D03*
X0108528Y0160133D03*
X0108528Y0161253D03*
X0106848Y0160453D03*
X0106848Y0160373D03*
X0106768Y0160613D03*
X0106848Y0159893D03*
X0106848Y0159813D03*
X0106848Y0159733D03*
X0106768Y0159653D03*
X0106768Y0159573D03*
X0105648Y0158533D03*
X0104528Y0159653D03*
X0104448Y0159893D03*
X0104448Y0160373D03*
X0104528Y0160533D03*
X0104528Y0160613D03*
X0101088Y0160613D03*
X0101008Y0160453D03*
X0101008Y0160373D03*
X0101008Y0159893D03*
X0101008Y0159813D03*
X0101008Y0159733D03*
X0101088Y0159653D03*
X0098288Y0159893D03*
X0097888Y0158693D03*
X0091248Y0159893D03*
X0086368Y0159253D03*
X0084528Y0161013D03*
X0081808Y0161013D03*
X0072128Y0161093D03*
X0072128Y0159813D03*
X0072128Y0159093D03*
X0069408Y0159093D03*
X0069408Y0159013D03*
X0069408Y0158933D03*
X0069408Y0158853D03*
X0069408Y0158773D03*
X0069408Y0158693D03*
X0069408Y0158613D03*
X0069408Y0158533D03*
X0069408Y0159173D03*
X0069408Y0159253D03*
X0069408Y0159333D03*
X0069408Y0159413D03*
X0069408Y0159493D03*
X0069408Y0159573D03*
X0069408Y0159653D03*
X0069408Y0159733D03*
X0069408Y0159813D03*
X0069408Y0160533D03*
X0069408Y0160613D03*
X0069408Y0160693D03*
X0069408Y0160773D03*
X0069408Y0160853D03*
X0069408Y0160933D03*
X0069408Y0161013D03*
X0069408Y0161093D03*
X0067808Y0161093D03*
X0067808Y0161013D03*
X0067808Y0160933D03*
X0067808Y0160853D03*
X0067808Y0160773D03*
X0067808Y0160693D03*
X0067808Y0160613D03*
X0067808Y0160533D03*
X0067808Y0160453D03*
X0067808Y0160373D03*
X0067808Y0160293D03*
X0067808Y0160213D03*
X0067808Y0160133D03*
X0067808Y0160053D03*
X0067808Y0159973D03*
X0067808Y0159893D03*
X0067808Y0159813D03*
X0067808Y0159733D03*
X0067808Y0159653D03*
X0067808Y0159573D03*
X0067808Y0159493D03*
X0067808Y0159413D03*
X0067808Y0159333D03*
X0067808Y0159253D03*
X0067808Y0159173D03*
X0067808Y0159093D03*
X0067808Y0159013D03*
X0067808Y0158933D03*
X0067808Y0158853D03*
X0067808Y0158773D03*
X0067808Y0158693D03*
X0067808Y0158613D03*
X0067808Y0158533D03*
X0067808Y0161173D03*
X0067808Y0161253D03*
X0067808Y0161333D03*
X0067808Y0161413D03*
X0067808Y0161493D03*
X0067808Y0161573D03*
X0067808Y0161653D03*
X0067808Y0161733D03*
X0060528Y0160293D03*
X0060528Y0160213D03*
X0059568Y0159013D03*
X0055728Y0159013D03*
X0054848Y0160213D03*
X0054848Y0160293D03*
X0053968Y0159093D03*
X0053968Y0159013D03*
X0048368Y0159013D03*
X0048368Y0159093D03*
X0081248Y0170053D03*
X0085888Y0169973D03*
D15*
X0084288Y0161493D03*
X0076688Y0160853D03*
X0076688Y0160293D03*
X0060448Y0160773D03*
X0054848Y0160853D03*
X0095728Y0160853D03*
X0099728Y0158533D03*
X0105648Y0161733D03*
X0111328Y0161733D03*
X0110848Y0170293D03*
D16*
X0111168Y0161413D03*
X0109808Y0159733D03*
X0108448Y0161413D03*
X0102208Y0158533D03*
X0095728Y0158773D03*
X0095648Y0158933D03*
X0095568Y0159013D03*
X0095408Y0159333D03*
X0091168Y0159333D03*
X0091168Y0159253D03*
X0091168Y0159173D03*
X0091168Y0159093D03*
X0091168Y0159413D03*
X0091168Y0159493D03*
X0091168Y0159573D03*
X0091168Y0159653D03*
X0091168Y0159733D03*
X0091168Y0159813D03*
X0091168Y0160453D03*
X0091168Y0160533D03*
X0091168Y0160613D03*
X0091168Y0160693D03*
X0091168Y0160773D03*
X0091168Y0160853D03*
X0091168Y0160933D03*
X0091168Y0161013D03*
X0091168Y0161093D03*
X0091168Y0161173D03*
X0088848Y0161013D03*
X0088848Y0160933D03*
X0088848Y0160853D03*
X0088848Y0160773D03*
X0088848Y0160693D03*
X0088848Y0160613D03*
X0088848Y0160533D03*
X0088848Y0160453D03*
X0088848Y0160373D03*
X0088848Y0160293D03*
X0088848Y0160213D03*
X0088848Y0160133D03*
X0088848Y0160053D03*
X0088848Y0159973D03*
X0088848Y0159893D03*
X0088848Y0159813D03*
X0088848Y0159733D03*
X0088848Y0159653D03*
X0088848Y0159573D03*
X0088848Y0159493D03*
X0088848Y0159413D03*
X0088848Y0159333D03*
X0088848Y0159253D03*
X0088848Y0159173D03*
X0088848Y0159093D03*
X0088848Y0159013D03*
X0088848Y0158933D03*
X0088848Y0158853D03*
X0088848Y0158773D03*
X0088848Y0158693D03*
X0088848Y0158613D03*
X0086448Y0159093D03*
X0086448Y0160613D03*
X0086448Y0160693D03*
X0086448Y0160773D03*
X0086448Y0160853D03*
X0086448Y0160933D03*
X0086448Y0161013D03*
X0086448Y0161093D03*
X0086448Y0161173D03*
X0086448Y0161253D03*
X0086448Y0161333D03*
X0086448Y0161413D03*
X0086448Y0161493D03*
X0086448Y0161573D03*
X0086448Y0161653D03*
X0084448Y0161173D03*
X0084448Y0160053D03*
X0084448Y0159973D03*
X0084448Y0159893D03*
X0084448Y0159813D03*
X0084448Y0159733D03*
X0084448Y0159653D03*
X0084448Y0159573D03*
X0084448Y0159493D03*
X0084448Y0159413D03*
X0084448Y0159333D03*
X0084448Y0159253D03*
X0084448Y0159173D03*
X0084448Y0159093D03*
X0084448Y0159013D03*
X0084448Y0158933D03*
X0084448Y0158853D03*
X0084448Y0158773D03*
X0084448Y0158693D03*
X0084448Y0158613D03*
X0081008Y0159573D03*
X0081808Y0161173D03*
X0077968Y0159253D03*
X0077968Y0159173D03*
X0074848Y0159173D03*
X0074848Y0159093D03*
X0074848Y0159013D03*
X0074848Y0158933D03*
X0074848Y0158853D03*
X0074848Y0158773D03*
X0074848Y0158693D03*
X0074848Y0158613D03*
X0074848Y0159253D03*
X0074848Y0159333D03*
X0074848Y0159413D03*
X0074848Y0159493D03*
X0074848Y0159973D03*
X0074848Y0160053D03*
X0074848Y0160133D03*
X0074848Y0160213D03*
X0074848Y0160293D03*
X0074848Y0160373D03*
X0074848Y0160453D03*
X0074848Y0160533D03*
X0074848Y0160613D03*
X0074848Y0160693D03*
X0074848Y0160773D03*
X0074848Y0160853D03*
X0074848Y0160933D03*
X0074848Y0161013D03*
X0074848Y0161093D03*
X0081328Y0170293D03*
X0085808Y0170133D03*
X0062368Y0161013D03*
X0062368Y0160933D03*
X0062208Y0160693D03*
X0062208Y0160613D03*
X0062128Y0160453D03*
X0061968Y0160053D03*
X0061408Y0158853D03*
X0060528Y0160373D03*
X0060528Y0160453D03*
X0059168Y0159733D03*
X0058768Y0160533D03*
X0058768Y0160613D03*
X0058608Y0160853D03*
X0058608Y0160933D03*
X0058528Y0161173D03*
X0058368Y0161493D03*
X0058368Y0161573D03*
X0057008Y0161573D03*
X0057008Y0161493D03*
X0056928Y0161413D03*
X0056928Y0161333D03*
X0056848Y0161173D03*
X0056608Y0160773D03*
X0056528Y0160613D03*
X0056368Y0160213D03*
X0056368Y0160133D03*
X0056208Y0159813D03*
X0055728Y0158853D03*
X0055728Y0158773D03*
X0053968Y0158773D03*
X0053968Y0158853D03*
X0053968Y0158933D03*
X0053408Y0159973D03*
X0053408Y0160053D03*
X0053328Y0160133D03*
X0053328Y0160213D03*
X0053248Y0160293D03*
X0053248Y0160373D03*
X0052848Y0161173D03*
X0052768Y0161333D03*
X0052768Y0161413D03*
X0052608Y0161653D03*
X0051408Y0161493D03*
X0051328Y0161333D03*
X0051248Y0161173D03*
X0051168Y0160933D03*
X0050928Y0160373D03*
X0050608Y0159813D03*
X0049248Y0160373D03*
X0047968Y0159813D03*
X0047728Y0160213D03*
X0047648Y0160373D03*
X0047568Y0160533D03*
X0047568Y0160613D03*
X0047568Y0160693D03*
X0047408Y0160933D03*
X0047408Y0161013D03*
X0047328Y0161173D03*
X0047248Y0161333D03*
X0054848Y0160453D03*
X0054848Y0160373D03*
X0059568Y0158853D03*
D17*
X0055688Y0158933D03*
X0065128Y0159253D03*
X0065128Y0159333D03*
X0065128Y0159413D03*
X0065128Y0159493D03*
X0065128Y0159573D03*
X0065128Y0159653D03*
X0065128Y0159733D03*
X0065128Y0159813D03*
X0065128Y0159893D03*
X0065128Y0159973D03*
X0065128Y0160053D03*
X0065128Y0160133D03*
X0065128Y0160213D03*
X0065128Y0160293D03*
X0065128Y0160373D03*
X0065128Y0160453D03*
X0065128Y0160533D03*
X0065128Y0160613D03*
X0065128Y0160693D03*
X0065128Y0160773D03*
X0065128Y0160853D03*
X0065128Y0160933D03*
X0065128Y0161013D03*
X0065128Y0161093D03*
X0065128Y0161173D03*
X0065128Y0161253D03*
X0065128Y0161333D03*
X0065128Y0161413D03*
X0065128Y0161493D03*
X0065128Y0161573D03*
X0065128Y0161653D03*
X0065128Y0161733D03*
X0072088Y0161013D03*
X0072088Y0160933D03*
X0072088Y0160853D03*
X0072088Y0160773D03*
X0072088Y0160693D03*
X0072088Y0160613D03*
X0072088Y0160533D03*
X0072088Y0159733D03*
X0072088Y0159653D03*
X0072088Y0159573D03*
X0072088Y0159493D03*
X0072088Y0159413D03*
X0072088Y0159333D03*
X0072088Y0159253D03*
X0072088Y0159173D03*
X0074888Y0161173D03*
X0084488Y0161093D03*
X0084488Y0160133D03*
X0093928Y0159493D03*
X0093928Y0159413D03*
X0093928Y0161173D03*
X0097928Y0161493D03*
X0104488Y0160453D03*
X0104488Y0159813D03*
X0104488Y0159733D03*
X0106888Y0159973D03*
X0106888Y0160053D03*
X0106888Y0160133D03*
X0106888Y0160213D03*
X0106888Y0160293D03*
X0108488Y0160053D03*
X0108488Y0159973D03*
X0108488Y0159893D03*
X0108488Y0159813D03*
X0108488Y0159733D03*
X0108488Y0159653D03*
X0108488Y0159573D03*
X0108488Y0159493D03*
X0108488Y0159413D03*
X0108488Y0159333D03*
X0108488Y0159253D03*
X0108488Y0159173D03*
X0108488Y0159093D03*
X0108488Y0159013D03*
X0108488Y0158933D03*
X0108488Y0158853D03*
X0108488Y0158773D03*
X0108488Y0158693D03*
X0108488Y0158613D03*
X0108488Y0158533D03*
X0111128Y0158533D03*
X0111128Y0158613D03*
X0111128Y0158693D03*
X0111128Y0158773D03*
X0111128Y0158853D03*
X0111128Y0158933D03*
X0111128Y0159013D03*
X0111128Y0159093D03*
X0111128Y0159173D03*
X0111128Y0159253D03*
X0111128Y0159333D03*
X0111128Y0159413D03*
X0111128Y0159493D03*
X0111128Y0159573D03*
X0111128Y0159653D03*
X0111128Y0159733D03*
X0111128Y0159813D03*
X0111128Y0159893D03*
X0111128Y0159973D03*
X0111128Y0160053D03*
X0111128Y0161333D03*
X0108488Y0161333D03*
X0110888Y0164373D03*
X0085848Y0170053D03*
X0081288Y0170133D03*
X0081288Y0170213D03*
D18*
X0084328Y0161413D03*
X0086568Y0158853D03*
X0081208Y0160053D03*
X0081128Y0159893D03*
X0076728Y0160373D03*
X0076728Y0160453D03*
X0076728Y0160533D03*
X0076728Y0160613D03*
X0076728Y0160693D03*
X0076728Y0160773D03*
X0076648Y0160933D03*
X0076648Y0160213D03*
X0063768Y0159013D03*
X0060488Y0160693D03*
X0059608Y0158693D03*
X0059608Y0158613D03*
X0054808Y0160693D03*
X0054808Y0160773D03*
X0053928Y0158613D03*
X0050168Y0158613D03*
X0048408Y0158613D03*
X0049288Y0160613D03*
X0049288Y0160693D03*
X0095688Y0160933D03*
X0095768Y0160773D03*
X0095768Y0160693D03*
X0095768Y0160613D03*
X0095768Y0160533D03*
X0095768Y0160453D03*
X0095768Y0160373D03*
X0097288Y0160693D03*
X0097288Y0160773D03*
X0097288Y0160853D03*
X0097288Y0160933D03*
X0097368Y0161013D03*
X0099688Y0159013D03*
X0102728Y0160933D03*
X0102248Y0161733D03*
X0108328Y0161653D03*
X0111288Y0161653D03*
X0101048Y0167973D03*
X0100328Y0167973D03*
D19*
X0098448Y0161093D03*
X0098528Y0161013D03*
X0097408Y0161093D03*
X0097328Y0160613D03*
X0097328Y0160533D03*
X0097328Y0160453D03*
X0097328Y0159253D03*
X0097408Y0159173D03*
X0098528Y0159253D03*
X0098528Y0159333D03*
X0098528Y0159413D03*
X0098528Y0159493D03*
X0098528Y0159573D03*
X0098528Y0159653D03*
X0098448Y0159813D03*
X0099728Y0158933D03*
X0099728Y0158613D03*
X0095728Y0160293D03*
X0095648Y0160213D03*
X0095648Y0161013D03*
X0095568Y0161093D03*
X0090288Y0164373D03*
X0086528Y0158933D03*
X0084368Y0161333D03*
X0082288Y0160293D03*
X0082288Y0160213D03*
X0082368Y0160133D03*
X0082368Y0160053D03*
X0082448Y0159813D03*
X0082528Y0159733D03*
X0082528Y0159653D03*
X0082208Y0160373D03*
X0081328Y0160293D03*
X0081328Y0160213D03*
X0081248Y0160133D03*
X0081168Y0159973D03*
X0081088Y0159813D03*
X0081088Y0159733D03*
X0081088Y0159653D03*
X0080688Y0158933D03*
X0080688Y0158853D03*
X0080608Y0158693D03*
X0080528Y0158613D03*
X0082928Y0158853D03*
X0081808Y0161253D03*
X0081808Y0161333D03*
X0076608Y0161013D03*
X0076528Y0161093D03*
X0076608Y0160133D03*
X0076528Y0160053D03*
X0063808Y0158613D03*
X0061408Y0158613D03*
X0060448Y0160613D03*
X0059008Y0160053D03*
X0058928Y0160213D03*
X0055728Y0158693D03*
X0055728Y0158613D03*
X0053968Y0158693D03*
X0054848Y0160533D03*
X0054848Y0160613D03*
X0053088Y0160693D03*
X0053008Y0160853D03*
X0052928Y0161013D03*
X0050128Y0158693D03*
X0047168Y0161493D03*
X0047088Y0161653D03*
X0062608Y0161493D03*
X0108368Y0161573D03*
X0109808Y0159653D03*
X0111248Y0161573D03*
D20*
X0091768Y0161253D03*
X0089608Y0165733D03*
X0086408Y0168933D03*
X0075448Y0159653D03*
X0072648Y0159893D03*
X0072648Y0159973D03*
X0072648Y0160053D03*
X0072648Y0160133D03*
X0072648Y0160213D03*
X0072648Y0160293D03*
X0072648Y0160373D03*
X0069928Y0160373D03*
X0069928Y0160293D03*
X0069928Y0160213D03*
X0069928Y0160133D03*
X0069928Y0160053D03*
X0069928Y0159973D03*
X0069928Y0159893D03*
X0069928Y0160453D03*
X0078568Y0159093D03*
X0078568Y0159013D03*
X0078568Y0158933D03*
X0078568Y0158853D03*
X0078568Y0158773D03*
X0078568Y0158693D03*
X0078568Y0158613D03*
D21*
X0077928Y0159333D03*
X0077928Y0159413D03*
X0077928Y0159493D03*
X0077928Y0159573D03*
X0077928Y0159653D03*
X0077928Y0159733D03*
X0077928Y0159813D03*
X0077928Y0159893D03*
X0077928Y0159973D03*
X0077928Y0160053D03*
X0077928Y0160133D03*
X0077928Y0160213D03*
X0077928Y0160293D03*
X0077928Y0160373D03*
X0077928Y0160453D03*
X0077928Y0160533D03*
X0077928Y0160613D03*
X0077928Y0160693D03*
X0077928Y0160773D03*
X0077928Y0160853D03*
X0077928Y0160933D03*
X0077928Y0161013D03*
X0077928Y0161093D03*
X0077928Y0161173D03*
X0077928Y0161253D03*
X0077928Y0161333D03*
X0077928Y0161413D03*
X0077928Y0161493D03*
X0077928Y0161573D03*
X0077928Y0161653D03*
X0076408Y0161173D03*
X0076408Y0159973D03*
X0080648Y0158773D03*
X0081368Y0160373D03*
X0082408Y0159973D03*
X0082408Y0159893D03*
X0082568Y0159573D03*
X0082888Y0158933D03*
X0082968Y0158773D03*
X0082968Y0158693D03*
X0083048Y0158613D03*
X0084408Y0161253D03*
X0086488Y0160533D03*
X0086488Y0160453D03*
X0086488Y0160373D03*
X0086488Y0160293D03*
X0086488Y0160213D03*
X0086488Y0159013D03*
X0090248Y0164453D03*
X0095448Y0161173D03*
X0095608Y0160133D03*
X0095528Y0160053D03*
X0095528Y0159973D03*
X0095528Y0159093D03*
X0095688Y0158853D03*
X0095768Y0158693D03*
X0095848Y0158613D03*
X0097448Y0159093D03*
X0098408Y0159093D03*
X0098488Y0159173D03*
X0098488Y0159733D03*
X0099688Y0158853D03*
X0099688Y0158773D03*
X0099688Y0158693D03*
X0097928Y0161573D03*
X0108408Y0161493D03*
X0111208Y0161493D03*
X0085768Y0170213D03*
X0085768Y0170293D03*
X0062648Y0161653D03*
X0062648Y0161573D03*
X0062568Y0161413D03*
X0062488Y0161333D03*
X0062488Y0161253D03*
X0062408Y0161173D03*
X0062408Y0161093D03*
X0062168Y0160533D03*
X0062088Y0160373D03*
X0062088Y0160293D03*
X0062008Y0160213D03*
X0062008Y0160133D03*
X0061928Y0159973D03*
X0061848Y0159893D03*
X0061848Y0159813D03*
X0061768Y0159733D03*
X0061368Y0158773D03*
X0061368Y0158693D03*
X0059608Y0158773D03*
X0059128Y0159813D03*
X0059128Y0159893D03*
X0059048Y0159973D03*
X0058968Y0160133D03*
X0058888Y0160293D03*
X0058888Y0160373D03*
X0058808Y0160453D03*
X0058568Y0161013D03*
X0058568Y0161093D03*
X0058488Y0161253D03*
X0058408Y0161333D03*
X0058408Y0161413D03*
X0057048Y0161653D03*
X0056888Y0161253D03*
X0056808Y0161093D03*
X0056728Y0161013D03*
X0056728Y0160933D03*
X0056648Y0160853D03*
X0056568Y0160693D03*
X0056488Y0160533D03*
X0056488Y0160453D03*
X0056408Y0160373D03*
X0056408Y0160293D03*
X0056248Y0159893D03*
X0056168Y0159733D03*
X0053528Y0159733D03*
X0053448Y0159813D03*
X0053448Y0159893D03*
X0053208Y0160453D03*
X0053208Y0160533D03*
X0053128Y0160613D03*
X0053048Y0160773D03*
X0052968Y0160933D03*
X0052888Y0161093D03*
X0052808Y0161253D03*
X0051528Y0161653D03*
X0051448Y0161573D03*
X0051368Y0161413D03*
X0051288Y0161253D03*
X0051208Y0161093D03*
X0051208Y0161013D03*
X0051048Y0160693D03*
X0051048Y0160613D03*
X0050968Y0160533D03*
X0050968Y0160453D03*
X0050888Y0160293D03*
X0050808Y0160213D03*
X0050808Y0160133D03*
X0050728Y0160053D03*
X0050648Y0159893D03*
X0050568Y0159733D03*
X0050168Y0158773D03*
X0048408Y0158773D03*
X0048408Y0158693D03*
X0048008Y0159733D03*
X0047928Y0159893D03*
X0047848Y0159973D03*
X0047848Y0160053D03*
X0047768Y0160133D03*
X0047688Y0160293D03*
X0047608Y0160453D03*
X0047448Y0160853D03*
X0047368Y0161093D03*
X0047288Y0161253D03*
X0047208Y0161413D03*
X0047128Y0161573D03*
X0049288Y0160533D03*
X0049288Y0160453D03*
X0060488Y0160533D03*
X0063768Y0158933D03*
X0063768Y0158853D03*
X0063768Y0158773D03*
X0063768Y0158693D03*
D22*
X0060448Y0160933D03*
X0054848Y0161013D03*
X0081808Y0161573D03*
X0081808Y0161653D03*
X0084208Y0161653D03*
X0086688Y0158613D03*
X0102768Y0159413D03*
X0102768Y0160853D03*
X0109808Y0159493D03*
D23*
X0102208Y0161413D03*
X0091808Y0161413D03*
X0091808Y0161333D03*
X0091808Y0161493D03*
X0091808Y0161573D03*
X0091808Y0161653D03*
X0091808Y0158933D03*
X0091808Y0158853D03*
X0091808Y0158773D03*
X0091808Y0158693D03*
X0091808Y0158613D03*
X0089568Y0165813D03*
X0069968Y0161173D03*
D24*
X0062288Y0160853D03*
X0062288Y0160773D03*
X0058688Y0160773D03*
X0058688Y0160693D03*
X0058288Y0161653D03*
X0056288Y0160053D03*
X0056288Y0159973D03*
X0052688Y0161493D03*
X0052688Y0161573D03*
X0051088Y0160853D03*
X0051088Y0160773D03*
X0050688Y0159973D03*
X0047488Y0160773D03*
X0093888Y0160773D03*
X0093888Y0160693D03*
X0093888Y0160613D03*
X0093888Y0160533D03*
X0093888Y0160453D03*
X0093888Y0160373D03*
X0093888Y0160293D03*
X0093888Y0160213D03*
X0093888Y0160133D03*
X0093888Y0160053D03*
X0093888Y0159973D03*
X0093888Y0159333D03*
X0093888Y0159253D03*
X0093888Y0159173D03*
X0093888Y0159093D03*
X0093888Y0159013D03*
X0093888Y0158933D03*
X0093888Y0158853D03*
X0093888Y0158773D03*
X0093888Y0158693D03*
X0093888Y0158613D03*
X0095488Y0159173D03*
X0095488Y0159253D03*
X0093888Y0160853D03*
X0093888Y0160933D03*
X0093888Y0161013D03*
X0093888Y0161093D03*
X0097888Y0158613D03*
D25*
X0097928Y0161333D03*
X0102248Y0158613D03*
X0104888Y0159253D03*
X0106408Y0159253D03*
X0109768Y0159973D03*
X0110888Y0160933D03*
X0106888Y0167653D03*
X0106968Y0167813D03*
X0106968Y0167893D03*
X0106968Y0167973D03*
X0106968Y0168053D03*
X0106968Y0168133D03*
X0106968Y0168213D03*
X0106968Y0168293D03*
X0106968Y0168373D03*
X0106968Y0168453D03*
X0106968Y0168533D03*
X0106888Y0168693D03*
X0106888Y0168773D03*
X0110888Y0170213D03*
X0112088Y0168693D03*
X0089928Y0165093D03*
X0089928Y0165013D03*
X0086088Y0169573D03*
X0084728Y0160613D03*
X0086168Y0159653D03*
X0081768Y0160533D03*
X0071768Y0167733D03*
X0071768Y0167813D03*
X0071768Y0167893D03*
X0071688Y0167653D03*
X0071768Y0168533D03*
X0071768Y0168613D03*
X0071688Y0168693D03*
X0071688Y0168773D03*
X0061368Y0159413D03*
X0060488Y0159813D03*
X0059608Y0159493D03*
X0059608Y0159413D03*
X0059608Y0159333D03*
X0055688Y0159493D03*
X0054808Y0159813D03*
X0053928Y0159413D03*
X0050168Y0159413D03*
X0050168Y0159493D03*
X0049288Y0159733D03*
X0049288Y0159813D03*
X0049288Y0159893D03*
X0048408Y0159493D03*
X0048408Y0159413D03*
D26*
X0050128Y0159573D03*
X0053968Y0159573D03*
X0053968Y0159493D03*
X0054768Y0159733D03*
X0055728Y0159573D03*
X0059648Y0159573D03*
X0060448Y0159733D03*
X0061328Y0159493D03*
X0071648Y0167573D03*
X0071648Y0168853D03*
X0071568Y0168933D03*
X0079168Y0165093D03*
X0080448Y0167733D03*
X0082288Y0167413D03*
X0082368Y0167253D03*
X0082368Y0167173D03*
X0081248Y0169573D03*
X0081248Y0169653D03*
X0083488Y0164773D03*
X0086128Y0169493D03*
X0084768Y0160533D03*
X0086128Y0159733D03*
X0081808Y0160453D03*
X0081088Y0159013D03*
X0097888Y0158853D03*
X0105648Y0158613D03*
X0108768Y0160853D03*
X0110848Y0160853D03*
X0110848Y0164453D03*
X0109808Y0165733D03*
X0109728Y0165813D03*
X0109728Y0165893D03*
X0109728Y0165973D03*
X0109728Y0166053D03*
X0109808Y0168053D03*
X0109808Y0168133D03*
X0109728Y0168293D03*
X0109728Y0168373D03*
X0109728Y0168453D03*
X0109728Y0168533D03*
X0109728Y0168613D03*
X0109728Y0168693D03*
X0109728Y0168773D03*
X0109728Y0168853D03*
X0109808Y0168933D03*
X0112048Y0168853D03*
X0112048Y0168773D03*
X0111968Y0166533D03*
X0112048Y0166453D03*
X0112048Y0166373D03*
X0112048Y0166293D03*
X0112048Y0166213D03*
X0112048Y0166133D03*
X0112048Y0166053D03*
X0112048Y0165973D03*
X0112048Y0165893D03*
X0106848Y0167493D03*
X0106848Y0167573D03*
X0106928Y0167733D03*
X0106848Y0168853D03*
X0106768Y0168933D03*
D27*
X0108248Y0161733D03*
X0097928Y0161653D03*
X0086648Y0158693D03*
X0084248Y0161573D03*
X0054808Y0160933D03*
D28*
X0054608Y0164293D03*
X0054608Y0164773D03*
X0054608Y0164853D03*
X0054608Y0164933D03*
X0054608Y0165013D03*
X0054608Y0165093D03*
X0054608Y0165173D03*
X0054608Y0165253D03*
X0054608Y0165333D03*
X0054608Y0165413D03*
X0054608Y0165493D03*
X0054608Y0165573D03*
X0054608Y0165653D03*
X0054608Y0165733D03*
X0054608Y0165813D03*
X0054608Y0165893D03*
X0054608Y0165973D03*
X0054608Y0166053D03*
X0054608Y0166133D03*
X0054608Y0166213D03*
X0054608Y0166293D03*
X0054608Y0166453D03*
X0054608Y0166533D03*
X0054608Y0168293D03*
X0054608Y0168373D03*
X0054608Y0168453D03*
X0054608Y0168533D03*
X0054608Y0168613D03*
X0054608Y0168693D03*
X0054608Y0168773D03*
X0054608Y0168853D03*
X0054608Y0168933D03*
X0051728Y0164293D03*
X0068448Y0164373D03*
X0068448Y0164453D03*
X0068448Y0164533D03*
X0068448Y0164613D03*
X0068448Y0164693D03*
X0068448Y0164773D03*
X0068448Y0164853D03*
X0068448Y0164933D03*
X0068448Y0165013D03*
X0068448Y0165093D03*
X0068448Y0165173D03*
X0068448Y0165253D03*
X0068448Y0165333D03*
X0068448Y0165413D03*
X0068448Y0165493D03*
X0068448Y0165573D03*
X0068448Y0165653D03*
X0068448Y0165733D03*
X0068448Y0165813D03*
X0068448Y0165893D03*
X0068448Y0167253D03*
X0068448Y0167333D03*
X0068448Y0167413D03*
X0068448Y0167493D03*
X0068448Y0167573D03*
X0068448Y0167653D03*
X0068448Y0167733D03*
X0068448Y0167813D03*
X0068448Y0167893D03*
X0068448Y0167973D03*
X0068448Y0168053D03*
X0068448Y0168133D03*
X0068448Y0168213D03*
X0068448Y0168293D03*
X0068448Y0168373D03*
X0068448Y0168453D03*
X0068448Y0168533D03*
X0068448Y0168613D03*
X0068448Y0168693D03*
X0068448Y0168773D03*
X0068448Y0168853D03*
X0068448Y0168933D03*
X0068448Y0169013D03*
X0068448Y0169093D03*
X0068448Y0169173D03*
X0074208Y0169173D03*
X0074208Y0169093D03*
X0074208Y0169013D03*
X0074208Y0168933D03*
X0074208Y0168853D03*
X0074208Y0168773D03*
X0074208Y0168693D03*
X0074208Y0168613D03*
X0074208Y0168533D03*
X0074208Y0168453D03*
X0074208Y0168373D03*
X0074208Y0168293D03*
X0074208Y0168213D03*
X0074208Y0168133D03*
X0074208Y0168053D03*
X0074208Y0167973D03*
X0074208Y0167893D03*
X0074208Y0167813D03*
X0074208Y0167733D03*
X0074208Y0167653D03*
X0074208Y0167573D03*
X0074208Y0167493D03*
X0074208Y0167413D03*
X0074208Y0167333D03*
X0074208Y0167253D03*
X0074208Y0167173D03*
X0074208Y0167093D03*
X0074208Y0167013D03*
X0074208Y0166933D03*
X0074208Y0166853D03*
X0074208Y0166773D03*
X0074208Y0166693D03*
X0074208Y0166613D03*
X0074208Y0166533D03*
X0074208Y0166453D03*
X0074208Y0166373D03*
X0074208Y0166293D03*
X0074208Y0166213D03*
X0074208Y0166133D03*
X0074208Y0166053D03*
X0074208Y0165973D03*
X0074208Y0165893D03*
X0074208Y0165813D03*
X0074208Y0169253D03*
X0074208Y0169333D03*
X0074208Y0169413D03*
X0074208Y0169493D03*
X0074208Y0169573D03*
X0074208Y0169653D03*
X0074208Y0169733D03*
X0074208Y0169813D03*
X0074208Y0169893D03*
X0074208Y0169973D03*
X0074208Y0170053D03*
X0074208Y0170133D03*
X0074208Y0170213D03*
X0074208Y0170293D03*
X0079968Y0166693D03*
X0082208Y0167493D03*
X0082608Y0166613D03*
X0082608Y0166533D03*
X0083568Y0164613D03*
X0083568Y0164533D03*
X0083648Y0164453D03*
X0086208Y0164453D03*
X0086208Y0164373D03*
X0086208Y0164533D03*
X0086208Y0164613D03*
X0086208Y0164693D03*
X0086208Y0164773D03*
X0086208Y0164853D03*
X0086208Y0164933D03*
X0086208Y0165013D03*
X0086208Y0165093D03*
X0086208Y0165173D03*
X0086208Y0165253D03*
X0086208Y0165333D03*
X0086208Y0165413D03*
X0086208Y0165493D03*
X0086208Y0165573D03*
X0086208Y0165653D03*
X0086208Y0165733D03*
X0086208Y0165813D03*
X0086208Y0165893D03*
X0086208Y0165973D03*
X0086208Y0166053D03*
X0086208Y0166133D03*
X0086208Y0166213D03*
X0086208Y0166293D03*
X0086208Y0166373D03*
X0086208Y0166453D03*
X0086208Y0166533D03*
X0086208Y0166613D03*
X0086208Y0166693D03*
X0086208Y0166773D03*
X0086208Y0166853D03*
X0086208Y0166933D03*
X0086208Y0167013D03*
X0086208Y0167093D03*
X0086208Y0169333D03*
X0089808Y0169333D03*
X0089808Y0169253D03*
X0089808Y0169173D03*
X0089808Y0169093D03*
X0089808Y0169013D03*
X0089808Y0168933D03*
X0089808Y0168853D03*
X0089808Y0168773D03*
X0089808Y0168693D03*
X0089808Y0168613D03*
X0089808Y0168533D03*
X0089808Y0168453D03*
X0089808Y0168373D03*
X0089808Y0168293D03*
X0089808Y0168213D03*
X0089808Y0168133D03*
X0089808Y0168053D03*
X0089808Y0167973D03*
X0089808Y0167893D03*
X0089808Y0167813D03*
X0089808Y0167733D03*
X0089808Y0167653D03*
X0089808Y0169413D03*
X0089808Y0169493D03*
X0089808Y0169573D03*
X0089808Y0169653D03*
X0089808Y0169733D03*
X0089808Y0169813D03*
X0089808Y0169893D03*
X0089808Y0169973D03*
X0089808Y0170053D03*
X0089808Y0170133D03*
X0089808Y0170213D03*
X0089808Y0170293D03*
X0094208Y0168853D03*
X0094208Y0168773D03*
X0094208Y0168693D03*
X0094208Y0168613D03*
X0094208Y0168533D03*
X0094208Y0168453D03*
X0094208Y0168373D03*
X0094208Y0168293D03*
X0094208Y0168213D03*
X0094208Y0168133D03*
X0094208Y0168053D03*
X0094208Y0167973D03*
X0094208Y0167893D03*
X0094208Y0167813D03*
X0094208Y0167733D03*
X0094208Y0167653D03*
X0094208Y0167573D03*
X0094208Y0167493D03*
X0094208Y0167413D03*
X0094208Y0167333D03*
X0094208Y0167253D03*
X0094208Y0167173D03*
X0094208Y0167093D03*
X0094208Y0167013D03*
X0094208Y0166933D03*
X0094208Y0166853D03*
X0094208Y0166773D03*
X0094208Y0166693D03*
X0094208Y0166613D03*
X0094208Y0166533D03*
X0094208Y0166453D03*
X0094208Y0166373D03*
X0094208Y0166293D03*
X0094208Y0166213D03*
X0094208Y0166133D03*
X0094208Y0166053D03*
X0094208Y0165973D03*
X0094208Y0165893D03*
X0094208Y0165813D03*
X0094208Y0165733D03*
X0094208Y0165653D03*
X0094208Y0165573D03*
X0094208Y0165493D03*
X0094208Y0165413D03*
X0094208Y0165333D03*
X0094208Y0165253D03*
X0094208Y0165173D03*
X0094208Y0165093D03*
X0094208Y0165013D03*
X0094208Y0164933D03*
X0094208Y0164853D03*
X0094208Y0164773D03*
X0094208Y0164693D03*
X0094208Y0164613D03*
X0094208Y0164533D03*
X0094208Y0164453D03*
X0094208Y0164373D03*
X0089808Y0165253D03*
X0086048Y0159893D03*
X0084848Y0160373D03*
X0081248Y0169413D03*
X0098608Y0169173D03*
X0098608Y0169093D03*
X0098608Y0169013D03*
X0098608Y0168933D03*
X0098608Y0168853D03*
X0098608Y0168773D03*
X0098608Y0168693D03*
X0098608Y0168613D03*
X0098608Y0168533D03*
X0098608Y0168453D03*
X0098608Y0168373D03*
X0098608Y0168293D03*
X0098608Y0168213D03*
X0098608Y0168133D03*
X0098608Y0168053D03*
X0098608Y0166693D03*
X0098608Y0166613D03*
X0098608Y0166533D03*
X0098608Y0166453D03*
X0098608Y0166373D03*
X0098608Y0166293D03*
X0098608Y0166213D03*
X0098608Y0166133D03*
X0098608Y0166053D03*
X0098608Y0165973D03*
X0098608Y0165893D03*
X0098608Y0165813D03*
X0098608Y0165733D03*
X0098608Y0165653D03*
X0098608Y0165573D03*
X0098608Y0165493D03*
X0103568Y0165493D03*
X0103568Y0165413D03*
X0103568Y0165333D03*
X0103568Y0165253D03*
X0103568Y0165173D03*
X0103568Y0165093D03*
X0103568Y0165013D03*
X0103568Y0164933D03*
X0103568Y0164853D03*
X0103568Y0164773D03*
X0103568Y0164693D03*
X0103568Y0164613D03*
X0103568Y0164533D03*
X0103568Y0164453D03*
X0103568Y0164373D03*
X0103568Y0165573D03*
X0103568Y0165653D03*
X0103568Y0165733D03*
X0103568Y0165813D03*
X0103568Y0167333D03*
X0103568Y0167413D03*
X0103568Y0167493D03*
X0103568Y0167573D03*
X0103568Y0167653D03*
X0103568Y0167733D03*
X0103568Y0167813D03*
X0103568Y0167893D03*
X0103568Y0167973D03*
X0103568Y0168053D03*
X0103568Y0168133D03*
X0103568Y0168213D03*
X0103568Y0168293D03*
X0103568Y0168373D03*
X0103568Y0168453D03*
X0103568Y0168533D03*
X0103568Y0168613D03*
X0103568Y0168693D03*
X0103568Y0168773D03*
X0103568Y0168853D03*
X0103568Y0168933D03*
X0103568Y0169013D03*
X0103568Y0169093D03*
X0102208Y0161573D03*
X0102208Y0158693D03*
X0108848Y0160693D03*
X0110768Y0160693D03*
D29*
X0110728Y0160613D03*
X0108888Y0160613D03*
X0105688Y0158693D03*
X0106888Y0164933D03*
X0106648Y0167253D03*
X0109928Y0169093D03*
X0110888Y0170133D03*
X0098648Y0167973D03*
X0098648Y0166773D03*
X0097928Y0161173D03*
X0094328Y0161653D03*
X0084888Y0160293D03*
X0082648Y0166373D03*
X0082648Y0166453D03*
X0079928Y0166373D03*
X0081288Y0169333D03*
X0086248Y0169253D03*
X0075288Y0161653D03*
X0075288Y0159573D03*
X0059688Y0165573D03*
X0059688Y0165653D03*
X0059688Y0165733D03*
X0059688Y0165813D03*
X0059688Y0165893D03*
X0059688Y0165973D03*
X0059688Y0166053D03*
X0059688Y0166133D03*
X0059688Y0166213D03*
X0059688Y0166293D03*
X0059688Y0166373D03*
X0059688Y0166453D03*
X0059688Y0166533D03*
X0059688Y0166613D03*
X0059688Y0166693D03*
X0059688Y0168133D03*
X0059688Y0168213D03*
X0059688Y0168293D03*
X0059688Y0168373D03*
X0059688Y0168453D03*
X0059688Y0168533D03*
X0059688Y0168613D03*
X0059688Y0168693D03*
X0059688Y0168773D03*
X0059688Y0168853D03*
X0059688Y0168933D03*
X0059688Y0169013D03*
X0059688Y0169093D03*
X0054648Y0169093D03*
X0054648Y0169013D03*
X0054648Y0168213D03*
X0054648Y0168133D03*
X0054648Y0168053D03*
X0054648Y0166693D03*
X0054648Y0166613D03*
X0054648Y0166373D03*
X0054648Y0164693D03*
X0054648Y0164613D03*
X0054648Y0164533D03*
X0054648Y0164453D03*
X0054648Y0164373D03*
D30*
X0060488Y0160133D03*
X0061368Y0159173D03*
X0061368Y0159093D03*
X0059608Y0159093D03*
X0055688Y0159093D03*
X0050168Y0159093D03*
X0050168Y0159013D03*
X0049288Y0160213D03*
X0049288Y0160293D03*
X0072168Y0160453D03*
X0084568Y0160933D03*
X0090088Y0164693D03*
X0085928Y0169893D03*
X0097608Y0160373D03*
X0097928Y0158773D03*
X0101128Y0159573D03*
X0101048Y0160533D03*
X0101128Y0160693D03*
X0101208Y0160773D03*
X0104568Y0160693D03*
X0104648Y0160773D03*
X0104568Y0159573D03*
X0106728Y0159493D03*
X0106728Y0160693D03*
X0106648Y0160773D03*
X0108568Y0161173D03*
X0111048Y0161173D03*
D31*
X0102208Y0158773D03*
X0091728Y0159973D03*
X0091728Y0160053D03*
X0091728Y0160133D03*
X0091728Y0160213D03*
X0091728Y0160293D03*
X0091728Y0160373D03*
X0089648Y0165573D03*
X0089648Y0165653D03*
X0086368Y0169013D03*
X0081328Y0169093D03*
X0075408Y0161493D03*
D32*
X0081288Y0168933D03*
X0081288Y0169013D03*
X0094488Y0161493D03*
X0105688Y0158773D03*
X0110888Y0170053D03*
D33*
X0106808Y0160533D03*
X0104408Y0160293D03*
X0104408Y0160213D03*
X0104408Y0160133D03*
X0104408Y0160053D03*
X0104408Y0159973D03*
X0100968Y0159973D03*
X0100968Y0160053D03*
X0100968Y0160133D03*
X0100968Y0160213D03*
X0100968Y0160293D03*
X0095368Y0159413D03*
X0091208Y0159013D03*
X0086408Y0159173D03*
X0081768Y0161093D03*
X0090168Y0164533D03*
X0090168Y0164613D03*
X0061368Y0159013D03*
X0061368Y0158933D03*
X0059608Y0158933D03*
X0050168Y0158933D03*
X0050168Y0158853D03*
X0048408Y0158853D03*
X0048408Y0158933D03*
D34*
X0070008Y0161253D03*
X0070008Y0161333D03*
X0070008Y0161413D03*
X0070008Y0161493D03*
X0070008Y0161573D03*
X0070008Y0161653D03*
X0070008Y0161733D03*
X0075528Y0161333D03*
X0075528Y0159733D03*
X0081288Y0168773D03*
X0081288Y0168853D03*
X0086488Y0168773D03*
X0102248Y0158853D03*
X0105688Y0158853D03*
X0110888Y0169973D03*
D35*
X0111928Y0169013D03*
X0112008Y0168933D03*
X0111928Y0166613D03*
X0112008Y0165813D03*
X0111928Y0165733D03*
X0111928Y0165653D03*
X0109848Y0165653D03*
X0109768Y0168213D03*
X0106728Y0167413D03*
X0105688Y0161573D03*
X0108808Y0160773D03*
X0109768Y0160053D03*
X0110808Y0160773D03*
X0097928Y0161253D03*
X0097928Y0159013D03*
X0097928Y0158933D03*
X0089848Y0165173D03*
X0086168Y0169413D03*
X0082328Y0167333D03*
X0082408Y0167093D03*
X0082408Y0167013D03*
X0082488Y0166933D03*
X0082488Y0166853D03*
X0082568Y0166773D03*
X0082568Y0166693D03*
X0082168Y0167573D03*
X0082168Y0167653D03*
X0082088Y0167733D03*
X0080408Y0167653D03*
X0080408Y0167573D03*
X0080328Y0167493D03*
X0080328Y0167413D03*
X0080248Y0167333D03*
X0080248Y0167253D03*
X0080168Y0167173D03*
X0080168Y0167093D03*
X0080088Y0167013D03*
X0080088Y0166933D03*
X0080008Y0166853D03*
X0080008Y0166773D03*
X0079928Y0166613D03*
X0079128Y0165013D03*
X0079128Y0164933D03*
X0079048Y0164773D03*
X0079048Y0164693D03*
X0078968Y0164613D03*
X0078968Y0164533D03*
X0078888Y0164453D03*
X0078888Y0164373D03*
X0083368Y0165013D03*
X0083368Y0165093D03*
X0083448Y0164933D03*
X0083448Y0164853D03*
X0083528Y0164693D03*
X0083688Y0164373D03*
X0084808Y0160453D03*
X0086088Y0159813D03*
X0081288Y0169493D03*
X0071608Y0167493D03*
X0071528Y0167413D03*
X0071448Y0167253D03*
X0061368Y0159653D03*
X0061368Y0159573D03*
X0059608Y0159653D03*
X0055768Y0159653D03*
X0053928Y0159653D03*
X0050168Y0159653D03*
X0048408Y0159653D03*
X0048408Y0159573D03*
D36*
X0075608Y0159893D03*
X0081768Y0159493D03*
X0089448Y0165973D03*
X0086568Y0168613D03*
X0081288Y0168613D03*
X0094648Y0161253D03*
X0094648Y0159893D03*
X0101928Y0159253D03*
X0102008Y0159173D03*
X0102168Y0158933D03*
X0101928Y0161013D03*
X0102008Y0161093D03*
X0102088Y0161173D03*
X0102168Y0161253D03*
X0111528Y0166773D03*
D37*
X0110368Y0167813D03*
X0110928Y0169893D03*
X0105648Y0158933D03*
X0102128Y0159013D03*
X0102048Y0159093D03*
X0089408Y0166053D03*
X0086608Y0168533D03*
X0081248Y0168533D03*
D38*
X0086008Y0169733D03*
X0090008Y0164853D03*
X0086248Y0159493D03*
X0084648Y0160773D03*
X0082568Y0159013D03*
X0095128Y0159493D03*
X0101368Y0160933D03*
X0104728Y0160853D03*
X0104808Y0160933D03*
X0104728Y0159333D03*
X0106568Y0159333D03*
X0108648Y0161013D03*
X0110968Y0161093D03*
X0061368Y0159333D03*
X0061368Y0159253D03*
X0059608Y0159253D03*
X0059608Y0159173D03*
X0050168Y0159173D03*
X0048408Y0159333D03*
D39*
X0081248Y0168373D03*
X0086688Y0168373D03*
X0089328Y0166213D03*
X0088848Y0161573D03*
X0088848Y0161493D03*
X0088848Y0161413D03*
X0088848Y0161333D03*
X0088848Y0161253D03*
X0088848Y0161173D03*
X0088848Y0161093D03*
X0081808Y0159413D03*
X0081808Y0159333D03*
X0081808Y0159253D03*
X0105648Y0159013D03*
X0105648Y0161173D03*
X0111248Y0167013D03*
D40*
X0110608Y0167653D03*
X0110848Y0169813D03*
X0105648Y0161093D03*
X0105648Y0159093D03*
X0089248Y0166373D03*
X0086768Y0168213D03*
X0081248Y0168213D03*
X0081248Y0168293D03*
X0081808Y0159093D03*
D41*
X0081808Y0160773D03*
X0081808Y0160853D03*
X0081808Y0160933D03*
X0084608Y0160853D03*
X0086288Y0159413D03*
X0086288Y0159333D03*
X0090048Y0164773D03*
X0085968Y0169813D03*
X0081248Y0169893D03*
X0081248Y0169973D03*
X0101248Y0160853D03*
X0101168Y0159493D03*
X0101248Y0159413D03*
X0104608Y0159493D03*
X0104688Y0159413D03*
X0106608Y0159413D03*
X0106608Y0160853D03*
X0108608Y0161093D03*
X0109808Y0159893D03*
X0055728Y0159173D03*
X0054848Y0160053D03*
X0054848Y0160133D03*
X0053968Y0159253D03*
X0053968Y0159173D03*
X0048368Y0159173D03*
X0048368Y0159253D03*
D42*
X0081768Y0159173D03*
X0089288Y0166293D03*
X0086728Y0168293D03*
X0110488Y0167733D03*
X0111288Y0166933D03*
X0110888Y0164853D03*
D43*
X0110888Y0164933D03*
X0110888Y0167333D03*
X0105688Y0159173D03*
X0081288Y0168133D03*
D44*
X0081248Y0169733D03*
X0081248Y0169813D03*
X0086048Y0169653D03*
X0084688Y0160693D03*
X0097888Y0160133D03*
X0097888Y0161413D03*
X0101328Y0159333D03*
X0105648Y0161653D03*
X0106528Y0160933D03*
X0108688Y0160933D03*
X0110928Y0161013D03*
X0106928Y0168613D03*
X0060448Y0159893D03*
X0055728Y0159413D03*
X0054848Y0159893D03*
X0054848Y0159973D03*
X0050128Y0159333D03*
X0050128Y0159253D03*
D45*
X0049288Y0159973D03*
X0049288Y0160053D03*
X0049288Y0160133D03*
X0055688Y0159333D03*
X0055688Y0159253D03*
X0060488Y0159973D03*
X0060488Y0160053D03*
X0097688Y0160293D03*
X0098088Y0159973D03*
D46*
X0097968Y0160053D03*
X0097808Y0160213D03*
X0102208Y0161653D03*
X0089968Y0164933D03*
X0086208Y0159573D03*
X0081808Y0160613D03*
X0081808Y0160693D03*
X0071808Y0167973D03*
X0071808Y0168053D03*
X0071808Y0168133D03*
X0071808Y0168213D03*
X0071808Y0168293D03*
X0071808Y0168373D03*
X0071808Y0168453D03*
X0053968Y0159333D03*
D47*
X0049288Y0161013D03*
X0049608Y0165813D03*
X0051048Y0170373D03*
X0052408Y0170373D03*
X0053928Y0170373D03*
X0057528Y0170373D03*
X0058968Y0170373D03*
X0062568Y0170373D03*
X0060488Y0161013D03*
X0047368Y0170373D03*
X0046008Y0170373D03*
X0095288Y0161573D03*
X0097128Y0159333D03*
X0097448Y0159333D03*
X0101128Y0166773D03*
D48*
X0102208Y0161333D03*
X0105648Y0161333D03*
X0110848Y0164693D03*
X0110208Y0167893D03*
X0094608Y0161333D03*
X0094608Y0159813D03*
X0094608Y0159733D03*
X0094608Y0159653D03*
X0094608Y0159573D03*
X0089488Y0165893D03*
X0086528Y0168693D03*
X0081248Y0168693D03*
X0075568Y0161253D03*
X0075568Y0159813D03*
D49*
X0086008Y0159973D03*
X0089768Y0165333D03*
X0103608Y0165893D03*
X0103608Y0167253D03*
X0103608Y0169173D03*
X0109768Y0160133D03*
X0051768Y0164373D03*
X0051768Y0164453D03*
X0051768Y0164533D03*
X0051768Y0164613D03*
X0051768Y0164693D03*
X0051768Y0164773D03*
X0051768Y0164853D03*
X0051768Y0164933D03*
X0051768Y0165013D03*
X0051768Y0165093D03*
X0051768Y0165173D03*
X0051768Y0165253D03*
X0051768Y0165333D03*
X0051768Y0165413D03*
X0051768Y0165493D03*
X0051768Y0165573D03*
X0051768Y0165653D03*
X0051768Y0165733D03*
X0051768Y0165813D03*
X0051768Y0165893D03*
X0051768Y0165973D03*
X0051768Y0166053D03*
X0051768Y0166133D03*
X0051768Y0166213D03*
X0051768Y0166293D03*
X0051768Y0166373D03*
X0051768Y0166453D03*
X0051768Y0166533D03*
X0051768Y0166613D03*
X0051768Y0166693D03*
X0051768Y0166773D03*
X0051768Y0166853D03*
X0051768Y0166933D03*
X0051768Y0167013D03*
X0051768Y0167093D03*
X0051768Y0167173D03*
X0051768Y0167253D03*
X0051768Y0167333D03*
X0051768Y0167413D03*
X0051768Y0167493D03*
X0051768Y0167573D03*
X0051768Y0167653D03*
X0051768Y0167733D03*
X0051768Y0167813D03*
X0051768Y0167893D03*
X0051768Y0167973D03*
X0051768Y0168053D03*
X0051768Y0168133D03*
X0051768Y0168213D03*
X0051768Y0168293D03*
X0051768Y0168373D03*
X0051768Y0168453D03*
X0051768Y0168533D03*
X0051768Y0168613D03*
X0051768Y0168693D03*
X0051768Y0168773D03*
X0051768Y0168853D03*
X0051768Y0168933D03*
X0051768Y0169013D03*
X0051768Y0169093D03*
X0051768Y0169173D03*
X0051768Y0169253D03*
X0051768Y0169333D03*
X0051768Y0169413D03*
X0051768Y0169493D03*
X0051768Y0169573D03*
X0051768Y0169653D03*
X0051768Y0169733D03*
X0051768Y0169813D03*
X0051768Y0169893D03*
X0051768Y0169973D03*
X0051768Y0170053D03*
X0051768Y0170133D03*
X0051768Y0170213D03*
D50*
X0051728Y0170293D03*
X0046688Y0170293D03*
X0046688Y0170213D03*
X0046688Y0170133D03*
X0046688Y0170053D03*
X0046688Y0169973D03*
X0046688Y0169893D03*
X0046688Y0169813D03*
X0046688Y0169733D03*
X0046688Y0169653D03*
X0046688Y0169573D03*
X0046688Y0169493D03*
X0046688Y0169413D03*
X0046688Y0169333D03*
X0046688Y0169253D03*
X0046688Y0169173D03*
X0046688Y0169093D03*
X0046688Y0169013D03*
X0046688Y0168933D03*
X0046688Y0168853D03*
X0046688Y0168773D03*
X0046688Y0168693D03*
X0046688Y0168613D03*
X0046688Y0168533D03*
X0046688Y0168453D03*
X0046688Y0168373D03*
X0046688Y0168293D03*
X0046688Y0168213D03*
X0046688Y0168133D03*
X0046688Y0168053D03*
X0046688Y0167973D03*
X0046688Y0167893D03*
X0046688Y0167813D03*
X0046688Y0167733D03*
X0046688Y0167653D03*
X0046688Y0167573D03*
X0046688Y0167493D03*
X0046688Y0167413D03*
X0046688Y0167333D03*
X0046688Y0167253D03*
X0046688Y0167173D03*
X0046688Y0167093D03*
X0046688Y0167013D03*
X0046688Y0166933D03*
X0046688Y0166853D03*
X0046688Y0166773D03*
X0046688Y0166693D03*
X0046688Y0166613D03*
X0046688Y0166533D03*
X0046688Y0166453D03*
X0046688Y0166373D03*
X0046688Y0166293D03*
X0046688Y0166213D03*
X0046688Y0166133D03*
X0046688Y0166053D03*
X0046688Y0165973D03*
X0046688Y0165893D03*
X0059728Y0168053D03*
X0071328Y0169093D03*
X0081248Y0169253D03*
X0086288Y0169173D03*
X0089728Y0165413D03*
X0094368Y0161573D03*
X0085968Y0160053D03*
X0084928Y0160213D03*
X0102208Y0161493D03*
X0107248Y0164373D03*
X0107168Y0164453D03*
X0107088Y0164533D03*
X0107088Y0164613D03*
X0107008Y0164773D03*
X0106848Y0165013D03*
X0106848Y0165093D03*
X0106768Y0165173D03*
X0106608Y0165493D03*
X0106528Y0165573D03*
X0106528Y0165653D03*
X0106448Y0165733D03*
X0106448Y0165813D03*
X0106368Y0165893D03*
X0106608Y0169093D03*
X0109968Y0167973D03*
X0111808Y0166693D03*
X0110848Y0164533D03*
X0110688Y0160533D03*
X0108928Y0160533D03*
D51*
X0105688Y0161493D03*
X0107048Y0164693D03*
X0106968Y0164853D03*
X0106728Y0165253D03*
X0106648Y0165333D03*
X0106648Y0165413D03*
X0106488Y0169173D03*
X0089688Y0165493D03*
X0086328Y0169093D03*
X0081288Y0169173D03*
X0071288Y0169173D03*
X0075368Y0161573D03*
X0085928Y0160133D03*
X0046728Y0165813D03*
D52*
X0069408Y0170133D03*
X0099568Y0167893D03*
X0099568Y0167813D03*
X0099568Y0167733D03*
X0099568Y0167653D03*
X0099568Y0167573D03*
X0099568Y0167493D03*
X0099568Y0167413D03*
X0099568Y0167333D03*
X0099568Y0167253D03*
X0099568Y0167173D03*
X0099568Y0167093D03*
X0099568Y0167013D03*
X0099568Y0166933D03*
X0099568Y0166853D03*
X0110848Y0165493D03*
X0110928Y0169173D03*
X0109808Y0160453D03*
X0109808Y0160373D03*
X0109808Y0160293D03*
X0109808Y0160213D03*
D53*
X0060488Y0160853D03*
X0049288Y0160853D03*
X0049288Y0160773D03*
X0049288Y0160933D03*
D54*
X0069088Y0170293D03*
X0081248Y0168053D03*
X0086848Y0168053D03*
X0105648Y0161013D03*
X0110928Y0167253D03*
X0110848Y0169733D03*
D55*
X0110888Y0164773D03*
X0105688Y0161253D03*
X0088888Y0161653D03*
X0086648Y0168453D03*
X0081288Y0168453D03*
D56*
X0069608Y0169893D03*
X0069608Y0166453D03*
X0069608Y0166373D03*
X0060808Y0165413D03*
X0060808Y0165333D03*
X0060808Y0165253D03*
X0060808Y0165173D03*
X0060808Y0165093D03*
X0060808Y0165013D03*
X0060808Y0164933D03*
X0060808Y0164853D03*
X0060808Y0164773D03*
X0060808Y0164693D03*
X0060808Y0164613D03*
X0060808Y0164533D03*
X0060808Y0164453D03*
X0060808Y0164373D03*
X0060808Y0169253D03*
X0060808Y0169333D03*
X0060808Y0169413D03*
X0060808Y0169493D03*
X0060808Y0169573D03*
X0060808Y0169653D03*
X0060808Y0169733D03*
X0060808Y0169813D03*
X0060808Y0169893D03*
X0060808Y0169973D03*
X0060808Y0170053D03*
X0060808Y0170133D03*
X0060808Y0170213D03*
X0060808Y0170293D03*
X0055768Y0170293D03*
X0055768Y0170213D03*
X0055768Y0170133D03*
X0055768Y0170053D03*
X0055768Y0169973D03*
X0055768Y0169893D03*
X0055768Y0169813D03*
X0055768Y0169733D03*
X0055768Y0169653D03*
X0055768Y0169573D03*
X0055768Y0169493D03*
X0055768Y0169413D03*
X0055768Y0169333D03*
X0055768Y0169253D03*
X0055768Y0169173D03*
X0047848Y0164293D03*
X0099688Y0170293D03*
X0104728Y0169973D03*
D57*
X0099728Y0169973D03*
X0099728Y0169893D03*
X0099728Y0169813D03*
X0099728Y0169733D03*
X0099728Y0169653D03*
X0099728Y0169573D03*
X0099728Y0169493D03*
X0099728Y0169413D03*
X0099728Y0169333D03*
X0099728Y0169253D03*
X0099728Y0170053D03*
X0099728Y0170133D03*
X0099728Y0170213D03*
X0099728Y0165413D03*
X0099728Y0165333D03*
X0099728Y0165253D03*
X0099728Y0165173D03*
X0099728Y0165093D03*
X0099728Y0165013D03*
X0099728Y0164933D03*
X0099728Y0164853D03*
X0099728Y0164773D03*
X0099728Y0164693D03*
X0099728Y0164613D03*
X0099728Y0164533D03*
X0099728Y0164453D03*
X0099728Y0164373D03*
X0075328Y0164373D03*
X0075328Y0164453D03*
X0075328Y0164533D03*
X0075328Y0164613D03*
X0075328Y0164693D03*
X0075328Y0164773D03*
X0075328Y0164853D03*
X0075328Y0164933D03*
X0075328Y0165013D03*
X0075328Y0165093D03*
X0075328Y0165173D03*
X0075328Y0165253D03*
X0075328Y0165333D03*
X0075328Y0165413D03*
X0075328Y0165493D03*
X0075328Y0165573D03*
X0075328Y0165653D03*
X0075328Y0165733D03*
X0060768Y0165493D03*
X0060768Y0164293D03*
X0060768Y0169173D03*
D58*
X0069648Y0169813D03*
X0069648Y0166533D03*
X0047808Y0165733D03*
X0047808Y0165653D03*
X0047808Y0165573D03*
X0047808Y0165493D03*
X0047808Y0165413D03*
X0047808Y0165333D03*
X0047808Y0165253D03*
X0047808Y0165173D03*
X0047808Y0165093D03*
X0047808Y0165013D03*
X0047808Y0164933D03*
X0047808Y0164853D03*
X0047808Y0164773D03*
X0047808Y0164693D03*
X0047808Y0164613D03*
X0047808Y0164533D03*
X0047808Y0164453D03*
X0047808Y0164373D03*
X0104768Y0169893D03*
D59*
X0106688Y0169013D03*
X0106688Y0167333D03*
X0109888Y0169013D03*
X0111888Y0169093D03*
X0079888Y0166533D03*
X0079888Y0166453D03*
X0079088Y0164853D03*
X0071488Y0167333D03*
X0071488Y0169013D03*
D60*
X0069128Y0165973D03*
X0081288Y0167973D03*
X0086888Y0167973D03*
X0089128Y0166613D03*
X0104248Y0170293D03*
X0110888Y0169653D03*
X0110888Y0169573D03*
X0110888Y0165013D03*
D61*
X0110888Y0165093D03*
X0110888Y0165173D03*
X0110888Y0169493D03*
X0089048Y0166853D03*
X0089048Y0166773D03*
X0086968Y0167813D03*
X0081288Y0167813D03*
D62*
X0081248Y0165173D03*
D63*
X0081288Y0165253D03*
D64*
X0087048Y0167653D03*
X0069288Y0166053D03*
X0069288Y0170213D03*
X0110888Y0169413D03*
X0110888Y0169333D03*
X0110888Y0165253D03*
D65*
X0081248Y0165333D03*
D66*
X0104448Y0170213D03*
X0110848Y0165333D03*
D67*
X0081288Y0165413D03*
D68*
X0088888Y0167093D03*
X0069368Y0166133D03*
X0110888Y0165413D03*
X0110888Y0169253D03*
D69*
X0081288Y0165573D03*
X0081288Y0165493D03*
D70*
X0110888Y0165573D03*
D71*
X0081328Y0165653D03*
D72*
X0081288Y0165733D03*
X0081288Y0165813D03*
D73*
X0081288Y0165893D03*
X0081288Y0165973D03*
D74*
X0069848Y0166853D03*
X0069848Y0166933D03*
X0069848Y0169413D03*
X0104968Y0169493D03*
X0104968Y0166853D03*
X0104968Y0165973D03*
D75*
X0081288Y0166053D03*
X0081288Y0166133D03*
D76*
X0069808Y0166773D03*
X0069808Y0169493D03*
X0104928Y0169573D03*
X0104928Y0166773D03*
X0104928Y0166133D03*
X0104928Y0166053D03*
D77*
X0111368Y0166853D03*
X0089368Y0166133D03*
D78*
X0104568Y0170133D03*
X0069448Y0166213D03*
X0060648Y0166773D03*
X0060648Y0167333D03*
X0060648Y0167573D03*
X0060648Y0167653D03*
X0060648Y0167733D03*
X0055608Y0166773D03*
D79*
X0081248Y0166213D03*
X0105088Y0167173D03*
D80*
X0104888Y0166693D03*
X0104888Y0166613D03*
X0104888Y0166213D03*
X0104888Y0169653D03*
X0069768Y0169573D03*
X0069768Y0166693D03*
D81*
X0069488Y0166293D03*
X0069488Y0170053D03*
X0060688Y0167973D03*
X0060688Y0167893D03*
X0060688Y0167813D03*
X0060688Y0167493D03*
X0060688Y0167413D03*
X0060688Y0167253D03*
X0060688Y0167173D03*
X0060688Y0167093D03*
X0060688Y0167013D03*
X0060688Y0166933D03*
X0060688Y0166853D03*
X0055648Y0166853D03*
X0055648Y0166933D03*
X0055648Y0167013D03*
X0055648Y0167093D03*
X0055648Y0167173D03*
X0055648Y0167253D03*
X0055648Y0167333D03*
X0055648Y0167413D03*
X0055648Y0167493D03*
X0055648Y0167573D03*
X0055648Y0167653D03*
X0055648Y0167733D03*
X0055648Y0167813D03*
X0055648Y0167893D03*
X0055648Y0167973D03*
D82*
X0069888Y0167093D03*
X0069888Y0167013D03*
X0069888Y0169253D03*
X0069888Y0169333D03*
X0081248Y0166293D03*
D83*
X0069728Y0166613D03*
X0069728Y0169653D03*
X0104848Y0169733D03*
X0104848Y0166533D03*
X0104848Y0166453D03*
X0104848Y0166373D03*
X0104848Y0166293D03*
D84*
X0110648Y0167573D03*
X0110728Y0167493D03*
X0110808Y0167413D03*
X0111048Y0167173D03*
X0111128Y0167093D03*
X0089208Y0166453D03*
X0086808Y0168133D03*
D85*
X0089168Y0166533D03*
D86*
X0089088Y0166693D03*
X0086928Y0167893D03*
X0081248Y0167893D03*
D87*
X0087008Y0167733D03*
X0089008Y0166933D03*
D88*
X0105008Y0166933D03*
X0105008Y0169333D03*
X0105008Y0169413D03*
D89*
X0088968Y0167013D03*
D90*
X0105048Y0167013D03*
X0105048Y0167093D03*
X0105048Y0169253D03*
X0069928Y0167173D03*
D91*
X0088008Y0167173D03*
X0088008Y0167253D03*
X0088008Y0167333D03*
X0088008Y0167413D03*
X0088008Y0167493D03*
X0088008Y0167573D03*
D92*
X0094168Y0168933D03*
X0094168Y0169013D03*
X0094168Y0169093D03*
X0094168Y0169173D03*
X0094168Y0169253D03*
X0094168Y0169333D03*
X0094168Y0169413D03*
X0094168Y0169493D03*
X0094168Y0169573D03*
X0094168Y0169653D03*
X0094168Y0169733D03*
X0094168Y0169813D03*
X0094168Y0169893D03*
X0094168Y0169973D03*
X0094168Y0170053D03*
X0094168Y0170133D03*
X0094168Y0170213D03*
X0094168Y0170293D03*
D93*
X0069688Y0169733D03*
D94*
X0104808Y0169813D03*
D95*
X0104648Y0170053D03*
X0069528Y0169973D03*
D96*
X0070737Y0193185D02*
X0066800Y0193185D01*
X0066800Y0208933D01*
X0058925Y0208933D01*
X0058925Y0193185D01*
X0051051Y0193185D01*
X0051051Y0208933D01*
X0043177Y0208933D01*
X0043177Y0193185D01*
X0039240Y0193185D01*
X0039240Y0208933D01*
X0031366Y0208933D01*
X0031366Y0193185D01*
X0027429Y0193185D01*
X0027429Y0228618D01*
X0031366Y0228618D01*
X0031366Y0212870D01*
X0078611Y0212870D01*
X0078611Y0228618D01*
X0082548Y0228618D01*
X0082548Y0193185D01*
X0078611Y0193185D01*
X0078611Y0208933D01*
X0070737Y0208933D01*
X0070737Y0193185D01*
X0092429Y0193185D02*
X0092429Y0228618D01*
X0096366Y0228618D01*
X0096366Y0212870D01*
X0143611Y0212870D01*
X0143611Y0228618D01*
X0147548Y0228618D01*
X0147548Y0193185D01*
X0143611Y0193185D01*
X0143611Y0208933D01*
X0135737Y0208933D01*
X0135737Y0193185D01*
X0131800Y0193185D01*
X0131800Y0208933D01*
X0123925Y0208933D01*
X0123925Y0193185D01*
X0116051Y0193185D01*
X0116051Y0208933D01*
X0108177Y0208933D01*
X0108177Y0193185D01*
X0104240Y0193185D01*
X0104240Y0208933D01*
X0096366Y0208933D01*
X0096366Y0193185D01*
X0092429Y0193185D01*
X0157429Y0193185D02*
X0157429Y0228618D01*
X0161366Y0228618D01*
X0161366Y0212870D01*
X0208611Y0212870D01*
X0208611Y0228618D01*
X0212548Y0228618D01*
X0212548Y0193185D01*
X0208611Y0193185D01*
X0208611Y0208933D01*
X0200737Y0208933D01*
X0200737Y0193185D01*
X0196800Y0193185D01*
X0196800Y0208933D01*
X0188925Y0208933D01*
X0188925Y0193185D01*
X0181051Y0193185D01*
X0181051Y0208933D01*
X0173177Y0208933D01*
X0173177Y0193185D01*
X0169240Y0193185D01*
X0169240Y0208933D01*
X0161366Y0208933D01*
X0161366Y0193185D01*
X0157429Y0193185D01*
X0221603Y0196606D02*
X0221603Y0155547D01*
X0243650Y0155547D01*
X0243650Y0196606D01*
X0221603Y0196606D01*
X0243650Y0196606D02*
X0249162Y0196606D01*
X0249162Y0155547D01*
X0243650Y0155547D01*
X0253633Y0154390D02*
X0253633Y0151337D01*
X0259738Y0151337D01*
X0259738Y0154390D01*
X0258721Y0155408D01*
X0254651Y0155408D01*
X0253633Y0154390D01*
X0253633Y0149330D02*
X0259738Y0149330D01*
X0253633Y0145260D01*
X0259738Y0145260D01*
X0258721Y0143253D02*
X0256686Y0143253D01*
X0256686Y0141218D01*
X0254651Y0139183D02*
X0258721Y0139183D01*
X0259738Y0140201D01*
X0259738Y0142236D01*
X0258721Y0143253D01*
X0254651Y0143253D02*
X0253633Y0142236D01*
X0253633Y0140201D01*
X0254651Y0139183D01*
X0249162Y0141606D02*
X0243650Y0141606D01*
X0243650Y0100547D01*
X0249162Y0100547D01*
X0249162Y0141606D01*
X0243650Y0141606D02*
X0221603Y0141606D01*
X0221603Y0100547D01*
X0243650Y0100547D01*
X0253633Y0100260D02*
X0253633Y0103313D01*
X0254651Y0104330D01*
X0258721Y0104330D01*
X0259738Y0103313D01*
X0259738Y0100260D01*
X0253633Y0100260D01*
X0255668Y0098253D02*
X0253633Y0096218D01*
X0255668Y0094183D01*
X0259738Y0094183D01*
X0256686Y0094183D02*
X0256686Y0098253D01*
X0255668Y0098253D02*
X0259738Y0098253D01*
X0258721Y0106337D02*
X0259738Y0107355D01*
X0259738Y0108373D01*
X0258721Y0109390D01*
X0253633Y0109390D01*
X0253633Y0108373D02*
X0253633Y0110408D01*
X0255668Y0114183D02*
X0253633Y0116218D01*
X0259738Y0116218D01*
X0259738Y0114183D02*
X0259738Y0118253D01*
X0259738Y0120260D02*
X0255668Y0124330D01*
X0254651Y0124330D01*
X0253633Y0123313D01*
X0253633Y0121278D01*
X0254651Y0120260D01*
X0259738Y0120260D02*
X0259738Y0124330D01*
X0257703Y0126337D02*
X0259738Y0128373D01*
X0257703Y0130408D01*
X0253633Y0130408D01*
X0253633Y0126337D02*
X0257703Y0126337D01*
X0255668Y0164183D02*
X0253633Y0166218D01*
X0259738Y0166218D01*
X0259738Y0164183D02*
X0259738Y0168253D01*
X0259738Y0170260D02*
X0255668Y0174330D01*
X0254651Y0174330D01*
X0253633Y0173313D01*
X0253633Y0171278D01*
X0254651Y0170260D01*
X0259738Y0170260D02*
X0259738Y0174330D01*
X0257703Y0176337D02*
X0259738Y0178373D01*
X0257703Y0180408D01*
X0253633Y0180408D01*
X0253633Y0176337D02*
X0257703Y0176337D01*
X0256686Y0186683D02*
X0256686Y0190753D01*
X0255668Y0190753D02*
X0259738Y0190753D01*
X0259738Y0192760D02*
X0259738Y0195813D01*
X0258721Y0196830D01*
X0254651Y0196830D01*
X0253633Y0195813D01*
X0253633Y0192760D01*
X0259738Y0192760D01*
X0255668Y0190753D02*
X0253633Y0188718D01*
X0255668Y0186683D01*
X0259738Y0186683D01*
X0258721Y0198837D02*
X0259738Y0199855D01*
X0259738Y0200873D01*
X0258721Y0201890D01*
X0253633Y0201890D01*
X0253633Y0200873D02*
X0253633Y0202908D01*
X0189988Y0088933D02*
X0119988Y0088933D01*
X0119988Y0078933D01*
X0189988Y0078933D01*
X0189988Y0088933D01*
D97*
X0193756Y0210333D02*
X0193138Y0210950D01*
X0193138Y0213419D01*
X0193756Y0214036D01*
X0194990Y0214036D01*
X0195607Y0213419D01*
X0195607Y0212185D02*
X0194373Y0212185D01*
X0195607Y0212185D02*
X0195607Y0210950D01*
X0194990Y0210333D01*
X0193756Y0210333D01*
X0185607Y0210950D02*
X0185607Y0213419D01*
X0184990Y0214036D01*
X0183138Y0214036D01*
X0183138Y0210333D01*
X0184990Y0210333D01*
X0185607Y0210950D01*
X0175607Y0210950D02*
X0174990Y0210333D01*
X0173756Y0210333D01*
X0173138Y0210950D01*
X0173756Y0212185D02*
X0174990Y0212185D01*
X0175607Y0211567D01*
X0175607Y0210950D01*
X0173756Y0212185D02*
X0173138Y0212802D01*
X0173138Y0213419D01*
X0173756Y0214036D01*
X0174990Y0214036D01*
X0175607Y0213419D01*
X0130607Y0213419D02*
X0129990Y0214036D01*
X0128756Y0214036D01*
X0128138Y0213419D01*
X0128138Y0210950D01*
X0128756Y0210333D01*
X0129990Y0210333D01*
X0130607Y0210950D01*
X0130607Y0212185D01*
X0129373Y0212185D01*
X0120607Y0210950D02*
X0120607Y0213419D01*
X0119990Y0214036D01*
X0118138Y0214036D01*
X0118138Y0210333D01*
X0119990Y0210333D01*
X0120607Y0210950D01*
X0110607Y0210950D02*
X0109990Y0210333D01*
X0108756Y0210333D01*
X0108138Y0210950D01*
X0108756Y0212185D02*
X0108138Y0212802D01*
X0108138Y0213419D01*
X0108756Y0214036D01*
X0109990Y0214036D01*
X0110607Y0213419D01*
X0109990Y0212185D02*
X0110607Y0211567D01*
X0110607Y0210950D01*
X0109990Y0212185D02*
X0108756Y0212185D01*
X0065607Y0212185D02*
X0065607Y0210950D01*
X0064990Y0210333D01*
X0063756Y0210333D01*
X0063138Y0210950D01*
X0063138Y0213419D01*
X0063756Y0214036D01*
X0064990Y0214036D01*
X0065607Y0213419D01*
X0065607Y0212185D02*
X0064373Y0212185D01*
X0055607Y0210950D02*
X0055607Y0213419D01*
X0054990Y0214036D01*
X0053138Y0214036D01*
X0053138Y0210333D01*
X0054990Y0210333D01*
X0055607Y0210950D01*
X0045607Y0210950D02*
X0044990Y0210333D01*
X0043756Y0210333D01*
X0043138Y0210950D01*
X0043756Y0212185D02*
X0044990Y0212185D01*
X0045607Y0211567D01*
X0045607Y0210950D01*
X0043756Y0212185D02*
X0043138Y0212802D01*
X0043138Y0213419D01*
X0043756Y0214036D01*
X0044990Y0214036D01*
X0045607Y0213419D01*
X0225138Y0231583D02*
X0227607Y0231583D01*
X0228822Y0231583D02*
X0231290Y0234052D01*
X0231290Y0234669D01*
X0230673Y0235286D01*
X0229439Y0235286D01*
X0228822Y0234669D01*
X0226373Y0235286D02*
X0226373Y0231583D01*
X0228822Y0231583D02*
X0231290Y0231583D01*
X0232505Y0232817D02*
X0233739Y0231583D01*
X0234974Y0232817D01*
X0234974Y0235286D01*
X0232505Y0235286D02*
X0232505Y0232817D01*
X0226373Y0235286D02*
X0225138Y0234052D01*
X0240138Y0234669D02*
X0240138Y0232200D01*
X0240756Y0231583D01*
X0241990Y0231583D01*
X0242607Y0232200D01*
X0242607Y0233435D01*
X0241373Y0233435D01*
X0242607Y0234669D02*
X0241990Y0235286D01*
X0240756Y0235286D01*
X0240138Y0234669D01*
X0243822Y0235286D02*
X0243822Y0231583D01*
X0246290Y0231583D02*
X0243822Y0235286D01*
X0246290Y0235286D02*
X0246290Y0231583D01*
X0247505Y0231583D02*
X0247505Y0235286D01*
X0249356Y0235286D01*
X0249974Y0234669D01*
X0249974Y0232200D01*
X0249356Y0231583D01*
X0247505Y0231583D01*
X0242974Y0215786D02*
X0242974Y0212083D01*
X0240505Y0215786D01*
X0240505Y0212083D01*
X0239290Y0212083D02*
X0239290Y0214552D01*
X0238056Y0215786D01*
X0236822Y0214552D01*
X0236822Y0212083D01*
X0236822Y0213935D02*
X0239290Y0213935D01*
X0235607Y0215786D02*
X0233138Y0215786D01*
X0233138Y0212083D01*
X0233138Y0213935D02*
X0234373Y0213935D01*
D98*
X0237488Y0228933D02*
X0237488Y0236433D01*
D99*
X0198173Y0251437D02*
X0192035Y0251437D01*
X0195104Y0254506D02*
X0195104Y0248368D01*
X0132923Y0251437D02*
X0126785Y0251437D01*
X0129854Y0254506D02*
X0129854Y0248368D01*
X0068173Y0251437D02*
X0062035Y0251437D01*
X0065104Y0254506D02*
X0065104Y0248368D01*
D100*
X0057488Y0251433D02*
X0052488Y0251433D01*
X0117488Y0251433D02*
X0122488Y0251433D01*
X0182488Y0251433D02*
X0187488Y0251433D01*
D101*
X0184988Y0215433D03*
X0119988Y0215433D03*
X0054988Y0215433D03*
D102*
X0037738Y0217933D03*
X0072238Y0217933D03*
X0102738Y0217933D03*
X0137238Y0217933D03*
X0167738Y0217933D03*
X0202238Y0217933D03*
D103*
X0189988Y0217933D03*
X0179988Y0217933D03*
X0124988Y0217933D03*
X0114988Y0217933D03*
X0059988Y0217933D03*
X0049988Y0217933D03*
D104*
X0034873Y0170534D03*
X0034873Y0167582D03*
D105*
X0034873Y0169058D03*
M02*
