G75*
%MOIN*%
%OFA0B0*%
%FSLAX25Y25*%
%IPPOS*%
%LPD*%
%AMOC8*
5,1,8,0,0,1.08239X$1,22.5*
%
%ADD10C,0.06000*%
%ADD11C,0.05200*%
%ADD12C,0.06000*%
%ADD13OC8,0.06600*%
%ADD14OC8,0.06000*%
%ADD15C,0.08600*%
%ADD16R,0.03937X0.04331*%
%ADD17R,0.04331X0.03937*%
%ADD18C,0.01600*%
%ADD19C,0.02400*%
%ADD20C,0.03200*%
D10*
X0044988Y0220933D02*
X0044988Y0226933D01*
X0054988Y0226933D02*
X0054988Y0220933D01*
X0064988Y0220933D02*
X0064988Y0226933D01*
X0109988Y0226933D02*
X0109988Y0220933D01*
X0119988Y0220933D02*
X0119988Y0226933D01*
X0129988Y0226933D02*
X0129988Y0220933D01*
X0174988Y0220933D02*
X0174988Y0226933D01*
X0184988Y0226933D02*
X0184988Y0220933D01*
X0194988Y0220933D02*
X0194988Y0226933D01*
D11*
X0094988Y0151533D02*
X0094988Y0146333D01*
X0084988Y0146333D02*
X0084988Y0151533D01*
X0074988Y0151533D02*
X0074988Y0146333D01*
X0064988Y0146333D02*
X0064988Y0151533D01*
X0054988Y0151533D02*
X0054988Y0146333D01*
X0044988Y0146333D02*
X0044988Y0151533D01*
X0034988Y0151533D02*
X0034988Y0146333D01*
X0034988Y0121533D02*
X0034988Y0116333D01*
X0044988Y0116333D02*
X0044988Y0121533D01*
X0054988Y0121533D02*
X0054988Y0116333D01*
X0064988Y0116333D02*
X0064988Y0121533D01*
X0074988Y0121533D02*
X0074988Y0116333D01*
X0084988Y0116333D02*
X0084988Y0121533D01*
X0094988Y0121533D02*
X0094988Y0116333D01*
X0124988Y0116533D02*
X0124988Y0111333D01*
X0134988Y0111333D02*
X0134988Y0116533D01*
X0144988Y0116533D02*
X0144988Y0111333D01*
X0154988Y0111333D02*
X0154988Y0116533D01*
X0164988Y0116533D02*
X0164988Y0111333D01*
X0174988Y0111333D02*
X0174988Y0116533D01*
X0184988Y0116533D02*
X0184988Y0111333D01*
X0194988Y0111333D02*
X0194988Y0116533D01*
X0194988Y0141333D02*
X0194988Y0146533D01*
X0184988Y0146533D02*
X0184988Y0141333D01*
X0174988Y0141333D02*
X0174988Y0146533D01*
X0164988Y0146533D02*
X0164988Y0141333D01*
X0154988Y0141333D02*
X0154988Y0146533D01*
X0144988Y0146533D02*
X0144988Y0141333D01*
X0134988Y0141333D02*
X0134988Y0146533D01*
X0124988Y0146533D02*
X0124988Y0141333D01*
D12*
X0074988Y0083683D03*
X0064988Y0083683D03*
X0054988Y0083683D03*
D13*
X0124988Y0083933D03*
X0134988Y0083933D03*
X0144988Y0083933D03*
X0154988Y0083933D03*
X0164988Y0083933D03*
X0174988Y0083933D03*
X0184988Y0083933D03*
X0184988Y0158933D03*
X0174988Y0158933D03*
X0164988Y0158933D03*
X0154988Y0158933D03*
X0144988Y0158933D03*
X0134988Y0158933D03*
X0124988Y0158933D03*
X0124988Y0168933D03*
X0134988Y0168933D03*
X0144988Y0168933D03*
X0154988Y0168933D03*
X0164988Y0168933D03*
X0174988Y0168933D03*
X0184988Y0168933D03*
D14*
X0232488Y0223933D03*
X0242488Y0223933D03*
X0194988Y0241433D03*
X0184988Y0241433D03*
X0129988Y0241433D03*
X0119988Y0241433D03*
X0064988Y0241433D03*
X0054988Y0241433D03*
D15*
X0234988Y0189799D03*
X0234988Y0176020D03*
X0234988Y0162240D03*
X0234988Y0134799D03*
X0234988Y0121020D03*
X0234988Y0107240D03*
D16*
X0093335Y0106433D03*
X0086642Y0106433D03*
X0078335Y0106433D03*
X0071642Y0106433D03*
X0058335Y0106433D03*
X0051642Y0106433D03*
X0043335Y0106433D03*
X0036642Y0106433D03*
X0086642Y0133933D03*
X0093335Y0133933D03*
X0091710Y0161583D03*
X0085017Y0161583D03*
D17*
X0124988Y0132280D03*
X0124988Y0125587D03*
X0134988Y0125587D03*
X0134988Y0132280D03*
X0144988Y0132280D03*
X0144988Y0125587D03*
X0154988Y0125587D03*
X0154988Y0132280D03*
X0164988Y0132280D03*
X0164988Y0125587D03*
X0174988Y0125587D03*
X0174988Y0132280D03*
X0184988Y0132280D03*
X0184988Y0125587D03*
X0184988Y0102280D03*
X0184988Y0095587D03*
X0174988Y0095587D03*
X0174988Y0102280D03*
X0164988Y0102280D03*
X0164988Y0095587D03*
X0154988Y0095587D03*
X0154988Y0102280D03*
X0144988Y0102280D03*
X0144988Y0095587D03*
X0134988Y0095587D03*
X0134988Y0102280D03*
X0124988Y0102280D03*
X0124988Y0095587D03*
D18*
X0037634Y0081322D02*
X0036255Y0078933D01*
X0052345Y0078933D01*
X0051930Y0079105D01*
X0050411Y0080624D01*
X0049588Y0082609D01*
X0049588Y0084757D01*
X0050411Y0086742D01*
X0051930Y0088261D01*
X0053914Y0089083D01*
X0056063Y0089083D01*
X0058047Y0088261D01*
X0059566Y0086742D01*
X0059988Y0085723D01*
X0060411Y0086742D01*
X0061930Y0088261D01*
X0063914Y0089083D01*
X0066063Y0089083D01*
X0068047Y0088261D01*
X0069566Y0086742D01*
X0069988Y0085723D01*
X0070411Y0086742D01*
X0071930Y0088261D01*
X0073914Y0089083D01*
X0076063Y0089083D01*
X0078047Y0088261D01*
X0079566Y0086742D01*
X0080388Y0084757D01*
X0080388Y0082609D01*
X0079566Y0080624D01*
X0078047Y0079105D01*
X0077632Y0078933D01*
X0121927Y0078933D01*
X0119288Y0081572D01*
X0119288Y0086294D01*
X0121388Y0088394D01*
X0121388Y0091659D01*
X0120789Y0092259D01*
X0120423Y0093141D01*
X0120423Y0098033D01*
X0120789Y0098915D01*
X0120807Y0098933D01*
X0120789Y0098952D01*
X0120423Y0099834D01*
X0120423Y0104725D01*
X0120789Y0105608D01*
X0121388Y0106207D01*
X0121388Y0107862D01*
X0120750Y0108501D01*
X0119988Y0110338D01*
X0119988Y0117528D01*
X0120750Y0119365D01*
X0121388Y0120004D01*
X0121388Y0121659D01*
X0120789Y0122259D01*
X0120423Y0123141D01*
X0120423Y0128033D01*
X0120789Y0128915D01*
X0121272Y0129398D01*
X0121146Y0129616D01*
X0121023Y0130074D01*
X0121023Y0132095D01*
X0124804Y0132095D01*
X0124804Y0132464D01*
X0124804Y0136048D01*
X0122586Y0136048D01*
X0122128Y0135925D01*
X0121718Y0135688D01*
X0121383Y0135353D01*
X0121146Y0134943D01*
X0121023Y0134485D01*
X0121023Y0132464D01*
X0124804Y0132464D01*
X0125173Y0132464D01*
X0128954Y0132464D01*
X0128954Y0134485D01*
X0128831Y0134943D01*
X0128594Y0135353D01*
X0128259Y0135688D01*
X0127849Y0135925D01*
X0127391Y0136048D01*
X0125173Y0136048D01*
X0125173Y0132464D01*
X0125173Y0132095D01*
X0128954Y0132095D01*
X0128954Y0130074D01*
X0128831Y0129616D01*
X0128705Y0129398D01*
X0129188Y0128915D01*
X0129554Y0128033D01*
X0129554Y0123141D01*
X0129188Y0122259D01*
X0128588Y0121659D01*
X0128588Y0120004D01*
X0129227Y0119365D01*
X0129988Y0117528D01*
X0129988Y0110338D01*
X0129227Y0108501D01*
X0128588Y0107862D01*
X0128588Y0106207D01*
X0129188Y0105608D01*
X0129554Y0104725D01*
X0129554Y0099834D01*
X0129188Y0098952D01*
X0129170Y0098933D01*
X0129188Y0098915D01*
X0129554Y0098033D01*
X0129554Y0093141D01*
X0129188Y0092259D01*
X0128588Y0091659D01*
X0128588Y0088394D01*
X0129988Y0086994D01*
X0131388Y0088394D01*
X0131388Y0091659D01*
X0130789Y0092259D01*
X0130423Y0093141D01*
X0130423Y0098033D01*
X0130789Y0098915D01*
X0130807Y0098933D01*
X0130789Y0098952D01*
X0130423Y0099834D01*
X0130423Y0104725D01*
X0130789Y0105608D01*
X0131388Y0106207D01*
X0131388Y0107862D01*
X0130750Y0108501D01*
X0129988Y0110338D01*
X0129988Y0117528D01*
X0130750Y0119365D01*
X0131388Y0120004D01*
X0131388Y0121659D01*
X0130789Y0122259D01*
X0130423Y0123141D01*
X0130423Y0128033D01*
X0130789Y0128915D01*
X0131272Y0129398D01*
X0131146Y0129616D01*
X0131023Y0130074D01*
X0131023Y0132095D01*
X0134804Y0132095D01*
X0134804Y0132464D01*
X0134804Y0136048D01*
X0132586Y0136048D01*
X0132128Y0135925D01*
X0131718Y0135688D01*
X0131383Y0135353D01*
X0131146Y0134943D01*
X0131023Y0134485D01*
X0131023Y0132464D01*
X0134804Y0132464D01*
X0135173Y0132464D01*
X0138954Y0132464D01*
X0138954Y0134485D01*
X0138831Y0134943D01*
X0138594Y0135353D01*
X0138259Y0135688D01*
X0137849Y0135925D01*
X0137391Y0136048D01*
X0135173Y0136048D01*
X0135173Y0132464D01*
X0135173Y0132095D01*
X0138954Y0132095D01*
X0138954Y0130074D01*
X0138831Y0129616D01*
X0138705Y0129398D01*
X0139188Y0128915D01*
X0139554Y0128033D01*
X0139554Y0123141D01*
X0139188Y0122259D01*
X0138588Y0121659D01*
X0138588Y0120004D01*
X0139227Y0119365D01*
X0139988Y0117528D01*
X0139988Y0110338D01*
X0139227Y0108501D01*
X0138588Y0107862D01*
X0138588Y0106207D01*
X0139188Y0105608D01*
X0139554Y0104725D01*
X0139554Y0099834D01*
X0139188Y0098952D01*
X0139170Y0098933D01*
X0139188Y0098915D01*
X0139554Y0098033D01*
X0139554Y0093141D01*
X0139188Y0092259D01*
X0138588Y0091659D01*
X0138588Y0088394D01*
X0139988Y0086994D01*
X0141388Y0088394D01*
X0141388Y0091659D01*
X0140789Y0092259D01*
X0140423Y0093141D01*
X0140423Y0098033D01*
X0140789Y0098915D01*
X0140807Y0098933D01*
X0140789Y0098952D01*
X0140423Y0099834D01*
X0140423Y0104725D01*
X0140789Y0105608D01*
X0141388Y0106207D01*
X0141388Y0107862D01*
X0140750Y0108501D01*
X0139988Y0110338D01*
X0139988Y0117528D01*
X0140750Y0119365D01*
X0141388Y0120004D01*
X0141388Y0121659D01*
X0140789Y0122259D01*
X0140423Y0123141D01*
X0140423Y0128033D01*
X0140789Y0128915D01*
X0141272Y0129398D01*
X0141146Y0129616D01*
X0141023Y0130074D01*
X0141023Y0132095D01*
X0144804Y0132095D01*
X0144804Y0132464D01*
X0144804Y0136048D01*
X0142586Y0136048D01*
X0142128Y0135925D01*
X0141718Y0135688D01*
X0141383Y0135353D01*
X0141146Y0134943D01*
X0141023Y0134485D01*
X0141023Y0132464D01*
X0144804Y0132464D01*
X0145173Y0132464D01*
X0148954Y0132464D01*
X0148954Y0134485D01*
X0148831Y0134943D01*
X0148594Y0135353D01*
X0148259Y0135688D01*
X0147849Y0135925D01*
X0147391Y0136048D01*
X0145173Y0136048D01*
X0145173Y0132464D01*
X0145173Y0132095D01*
X0148954Y0132095D01*
X0148954Y0130074D01*
X0148831Y0129616D01*
X0148705Y0129398D01*
X0149188Y0128915D01*
X0149554Y0128033D01*
X0149554Y0123141D01*
X0149188Y0122259D01*
X0148588Y0121659D01*
X0148588Y0120004D01*
X0149227Y0119365D01*
X0149988Y0117528D01*
X0149988Y0110338D01*
X0149227Y0108501D01*
X0148588Y0107862D01*
X0148588Y0106207D01*
X0149188Y0105608D01*
X0149554Y0104725D01*
X0149554Y0099834D01*
X0149188Y0098952D01*
X0149170Y0098933D01*
X0149188Y0098915D01*
X0149554Y0098033D01*
X0149554Y0093141D01*
X0149188Y0092259D01*
X0148588Y0091659D01*
X0148588Y0088394D01*
X0149988Y0086994D01*
X0151388Y0088394D01*
X0151388Y0091659D01*
X0150789Y0092259D01*
X0150423Y0093141D01*
X0150423Y0098033D01*
X0150789Y0098915D01*
X0150807Y0098933D01*
X0150789Y0098952D01*
X0150423Y0099834D01*
X0150423Y0104725D01*
X0150789Y0105608D01*
X0151388Y0106207D01*
X0151388Y0107862D01*
X0150750Y0108501D01*
X0149988Y0110338D01*
X0149988Y0117528D01*
X0150750Y0119365D01*
X0151388Y0120004D01*
X0151388Y0121659D01*
X0150789Y0122259D01*
X0150423Y0123141D01*
X0150423Y0128033D01*
X0150789Y0128915D01*
X0151272Y0129398D01*
X0151146Y0129616D01*
X0151023Y0130074D01*
X0151023Y0132095D01*
X0154804Y0132095D01*
X0154804Y0132464D01*
X0154804Y0136048D01*
X0152586Y0136048D01*
X0152128Y0135925D01*
X0151718Y0135688D01*
X0151383Y0135353D01*
X0151146Y0134943D01*
X0151023Y0134485D01*
X0151023Y0132464D01*
X0154804Y0132464D01*
X0155173Y0132464D01*
X0158954Y0132464D01*
X0158954Y0134485D01*
X0158831Y0134943D01*
X0158594Y0135353D01*
X0158259Y0135688D01*
X0157849Y0135925D01*
X0157391Y0136048D01*
X0155173Y0136048D01*
X0155173Y0132464D01*
X0155173Y0132095D01*
X0158954Y0132095D01*
X0158954Y0130074D01*
X0158831Y0129616D01*
X0158705Y0129398D01*
X0159188Y0128915D01*
X0159554Y0128033D01*
X0159554Y0123141D01*
X0159188Y0122259D01*
X0158588Y0121659D01*
X0158588Y0120004D01*
X0159227Y0119365D01*
X0159988Y0117528D01*
X0159988Y0110338D01*
X0159227Y0108501D01*
X0158588Y0107862D01*
X0158588Y0106207D01*
X0159188Y0105608D01*
X0159554Y0104725D01*
X0159554Y0099834D01*
X0159188Y0098952D01*
X0159170Y0098933D01*
X0159188Y0098915D01*
X0159554Y0098033D01*
X0159554Y0093141D01*
X0159188Y0092259D01*
X0158588Y0091659D01*
X0158588Y0088394D01*
X0159988Y0086994D01*
X0161388Y0088394D01*
X0161388Y0091659D01*
X0160789Y0092259D01*
X0160423Y0093141D01*
X0160423Y0098033D01*
X0160789Y0098915D01*
X0160807Y0098933D01*
X0160789Y0098952D01*
X0160423Y0099834D01*
X0160423Y0104725D01*
X0160789Y0105608D01*
X0161388Y0106207D01*
X0161388Y0107862D01*
X0160750Y0108501D01*
X0159988Y0110338D01*
X0159988Y0117528D01*
X0160750Y0119365D01*
X0161388Y0120004D01*
X0161388Y0121659D01*
X0160789Y0122259D01*
X0160423Y0123141D01*
X0160423Y0128033D01*
X0160789Y0128915D01*
X0161272Y0129398D01*
X0161146Y0129616D01*
X0161023Y0130074D01*
X0161023Y0132095D01*
X0164804Y0132095D01*
X0164804Y0132464D01*
X0164804Y0136048D01*
X0162586Y0136048D01*
X0162128Y0135925D01*
X0161718Y0135688D01*
X0161383Y0135353D01*
X0161146Y0134943D01*
X0161023Y0134485D01*
X0161023Y0132464D01*
X0164804Y0132464D01*
X0165173Y0132464D01*
X0168954Y0132464D01*
X0168954Y0134485D01*
X0168831Y0134943D01*
X0168594Y0135353D01*
X0168259Y0135688D01*
X0167849Y0135925D01*
X0167391Y0136048D01*
X0165173Y0136048D01*
X0165173Y0132464D01*
X0165173Y0132095D01*
X0168954Y0132095D01*
X0168954Y0130074D01*
X0168831Y0129616D01*
X0168705Y0129398D01*
X0169188Y0128915D01*
X0169554Y0128033D01*
X0169554Y0123141D01*
X0169188Y0122259D01*
X0168588Y0121659D01*
X0168588Y0120004D01*
X0169227Y0119365D01*
X0169988Y0117528D01*
X0169988Y0110338D01*
X0169227Y0108501D01*
X0168588Y0107862D01*
X0168588Y0106207D01*
X0169188Y0105608D01*
X0169554Y0104725D01*
X0169554Y0099834D01*
X0169188Y0098952D01*
X0169170Y0098933D01*
X0169188Y0098915D01*
X0169554Y0098033D01*
X0169554Y0093141D01*
X0169188Y0092259D01*
X0168588Y0091659D01*
X0168588Y0088394D01*
X0169988Y0086994D01*
X0171388Y0088394D01*
X0171388Y0091659D01*
X0170789Y0092259D01*
X0170423Y0093141D01*
X0170423Y0098033D01*
X0170789Y0098915D01*
X0170807Y0098933D01*
X0170789Y0098952D01*
X0170423Y0099834D01*
X0170423Y0104725D01*
X0170789Y0105608D01*
X0171388Y0106207D01*
X0171388Y0107862D01*
X0170750Y0108501D01*
X0169988Y0110338D01*
X0169988Y0117528D01*
X0170750Y0119365D01*
X0171388Y0120004D01*
X0171388Y0121659D01*
X0170789Y0122259D01*
X0170423Y0123141D01*
X0170423Y0128033D01*
X0170789Y0128915D01*
X0171272Y0129398D01*
X0171146Y0129616D01*
X0171023Y0130074D01*
X0171023Y0132095D01*
X0174804Y0132095D01*
X0174804Y0132464D01*
X0174804Y0136048D01*
X0172586Y0136048D01*
X0172128Y0135925D01*
X0171718Y0135688D01*
X0171383Y0135353D01*
X0171146Y0134943D01*
X0171023Y0134485D01*
X0171023Y0132464D01*
X0174804Y0132464D01*
X0175173Y0132464D01*
X0178954Y0132464D01*
X0178954Y0134485D01*
X0178831Y0134943D01*
X0178594Y0135353D01*
X0178259Y0135688D01*
X0177849Y0135925D01*
X0177391Y0136048D01*
X0175173Y0136048D01*
X0175173Y0132464D01*
X0175173Y0132095D01*
X0178954Y0132095D01*
X0178954Y0130074D01*
X0178831Y0129616D01*
X0178705Y0129398D01*
X0179188Y0128915D01*
X0179554Y0128033D01*
X0179554Y0123141D01*
X0179188Y0122259D01*
X0178588Y0121659D01*
X0178588Y0120004D01*
X0179227Y0119365D01*
X0179988Y0117528D01*
X0179988Y0110338D01*
X0180750Y0108501D01*
X0181388Y0107862D01*
X0181388Y0106207D01*
X0180789Y0105608D01*
X0180423Y0104725D01*
X0180423Y0099834D01*
X0180789Y0098952D01*
X0180807Y0098933D01*
X0180789Y0098915D01*
X0180423Y0098033D01*
X0180423Y0093141D01*
X0180789Y0092259D01*
X0181388Y0091659D01*
X0181388Y0088394D01*
X0179988Y0086994D01*
X0178588Y0088394D01*
X0178588Y0091659D01*
X0179188Y0092259D01*
X0179554Y0093141D01*
X0179554Y0098033D01*
X0179188Y0098915D01*
X0179170Y0098933D01*
X0179188Y0098952D01*
X0179554Y0099834D01*
X0179554Y0104725D01*
X0179188Y0105608D01*
X0178588Y0106207D01*
X0178588Y0107862D01*
X0179227Y0108501D01*
X0179988Y0110338D01*
X0179988Y0117528D01*
X0180750Y0119365D01*
X0181388Y0120004D01*
X0181388Y0121659D01*
X0180789Y0122259D01*
X0180423Y0123141D01*
X0180423Y0128033D01*
X0180789Y0128915D01*
X0181272Y0129398D01*
X0181146Y0129616D01*
X0181023Y0130074D01*
X0181023Y0132095D01*
X0184804Y0132095D01*
X0184804Y0132464D01*
X0184804Y0136048D01*
X0182586Y0136048D01*
X0182128Y0135925D01*
X0181718Y0135688D01*
X0181383Y0135353D01*
X0181146Y0134943D01*
X0181023Y0134485D01*
X0181023Y0132464D01*
X0184804Y0132464D01*
X0185173Y0132464D01*
X0188954Y0132464D01*
X0188954Y0134485D01*
X0188831Y0134943D01*
X0188594Y0135353D01*
X0188259Y0135688D01*
X0187849Y0135925D01*
X0187391Y0136048D01*
X0185173Y0136048D01*
X0185173Y0132464D01*
X0185173Y0132095D01*
X0188954Y0132095D01*
X0188954Y0130074D01*
X0188831Y0129616D01*
X0188705Y0129398D01*
X0189188Y0128915D01*
X0189554Y0128033D01*
X0189554Y0123141D01*
X0189188Y0122259D01*
X0188588Y0121659D01*
X0188588Y0120004D01*
X0189227Y0119365D01*
X0189988Y0117528D01*
X0189988Y0110338D01*
X0189227Y0108501D01*
X0188588Y0107862D01*
X0188588Y0106207D01*
X0189188Y0105608D01*
X0189554Y0104725D01*
X0189554Y0099834D01*
X0189188Y0098952D01*
X0189170Y0098933D01*
X0189188Y0098915D01*
X0189554Y0098033D01*
X0189554Y0093141D01*
X0189188Y0092259D01*
X0188588Y0091659D01*
X0188588Y0088394D01*
X0190688Y0086294D01*
X0190688Y0081572D01*
X0188049Y0078933D01*
X0243347Y0078933D01*
X0242938Y0079342D01*
X0241476Y0081873D01*
X0240720Y0084696D01*
X0240720Y0087619D01*
X0241476Y0090442D01*
X0242938Y0092973D01*
X0245004Y0095039D01*
X0247535Y0096500D01*
X0250358Y0097257D01*
X0253280Y0097257D01*
X0256103Y0096500D01*
X0258634Y0095039D01*
X0259988Y0093685D01*
X0259988Y0243709D01*
X0259107Y0242827D01*
X0256576Y0241366D01*
X0253753Y0240609D01*
X0250830Y0240609D01*
X0248007Y0241366D01*
X0245477Y0242827D01*
X0243410Y0244894D01*
X0241949Y0247425D01*
X0241192Y0250247D01*
X0241192Y0253170D01*
X0241949Y0255993D01*
X0243410Y0258524D01*
X0243819Y0258933D01*
X0035764Y0258933D01*
X0036173Y0258524D01*
X0037634Y0255993D01*
X0038391Y0253170D01*
X0038391Y0250247D01*
X0037634Y0247425D01*
X0036173Y0244894D01*
X0034107Y0242827D01*
X0031576Y0241366D01*
X0028753Y0240609D01*
X0025830Y0240609D01*
X0023007Y0241366D01*
X0020477Y0242827D01*
X0019988Y0243315D01*
X0019988Y0094000D01*
X0020477Y0094488D01*
X0023007Y0095949D01*
X0025830Y0096705D01*
X0028753Y0096705D01*
X0031576Y0095949D01*
X0034107Y0094488D01*
X0036173Y0092421D01*
X0037634Y0089890D01*
X0038391Y0087068D01*
X0038391Y0084145D01*
X0037634Y0081322D01*
X0037766Y0081814D02*
X0049918Y0081814D01*
X0049588Y0083412D02*
X0038195Y0083412D01*
X0038391Y0085011D02*
X0049694Y0085011D01*
X0050356Y0086610D02*
X0038391Y0086610D01*
X0038085Y0088208D02*
X0051877Y0088208D01*
X0058100Y0088208D02*
X0061877Y0088208D01*
X0060356Y0086610D02*
X0059621Y0086610D01*
X0068100Y0088208D02*
X0071877Y0088208D01*
X0070356Y0086610D02*
X0069621Y0086610D01*
X0078100Y0088208D02*
X0121202Y0088208D01*
X0121388Y0089807D02*
X0037657Y0089807D01*
X0036760Y0091405D02*
X0121388Y0091405D01*
X0120480Y0093004D02*
X0035591Y0093004D01*
X0033909Y0094602D02*
X0120423Y0094602D01*
X0120423Y0096201D02*
X0030637Y0096201D01*
X0033314Y0102233D02*
X0034196Y0101868D01*
X0039088Y0101868D01*
X0039970Y0102233D01*
X0039988Y0102252D01*
X0040007Y0102233D01*
X0040889Y0101868D01*
X0045781Y0101868D01*
X0046663Y0102233D01*
X0047263Y0102833D01*
X0047714Y0102833D01*
X0048314Y0102233D01*
X0049196Y0101868D01*
X0054088Y0101868D01*
X0054970Y0102233D01*
X0055453Y0102716D01*
X0055672Y0102590D01*
X0056129Y0102468D01*
X0058151Y0102468D01*
X0058151Y0106249D01*
X0058519Y0106249D01*
X0058519Y0106617D01*
X0062103Y0106617D01*
X0062103Y0108835D01*
X0061981Y0109293D01*
X0061744Y0109704D01*
X0061409Y0110039D01*
X0060998Y0110276D01*
X0060540Y0110398D01*
X0058519Y0110398D01*
X0058519Y0106617D01*
X0058151Y0106617D01*
X0058151Y0110398D01*
X0056129Y0110398D01*
X0055672Y0110276D01*
X0055453Y0110150D01*
X0054970Y0110633D01*
X0054088Y0110998D01*
X0049196Y0110998D01*
X0048314Y0110633D01*
X0047714Y0110033D01*
X0047263Y0110033D01*
X0046935Y0110361D01*
X0046935Y0110788D01*
X0048040Y0111894D01*
X0048337Y0112611D01*
X0049227Y0113501D01*
X0049988Y0115338D01*
X0049988Y0122528D01*
X0049227Y0124365D01*
X0047821Y0125772D01*
X0045983Y0126533D01*
X0043994Y0126533D01*
X0042156Y0125772D01*
X0040750Y0124365D01*
X0039988Y0122528D01*
X0039227Y0124365D01*
X0037821Y0125772D01*
X0035983Y0126533D01*
X0033994Y0126533D01*
X0032923Y0126090D01*
X0028588Y0130424D01*
X0028588Y0162172D01*
X0028988Y0163137D01*
X0028988Y0192276D01*
X0041645Y0204933D01*
X0060784Y0204933D01*
X0062254Y0205542D01*
X0063380Y0206667D01*
X0068380Y0211667D01*
X0068988Y0213137D01*
X0068988Y0217296D01*
X0069566Y0217874D01*
X0070388Y0219859D01*
X0070388Y0228007D01*
X0069566Y0229992D01*
X0068047Y0231511D01*
X0066063Y0232333D01*
X0063914Y0232333D01*
X0061930Y0231511D01*
X0060411Y0229992D01*
X0059988Y0228973D01*
X0059566Y0229992D01*
X0058047Y0231511D01*
X0056063Y0232333D01*
X0053914Y0232333D01*
X0051930Y0231511D01*
X0050411Y0229992D01*
X0049643Y0228140D01*
X0049437Y0228776D01*
X0049094Y0229449D01*
X0048650Y0230060D01*
X0048115Y0230594D01*
X0047504Y0231038D01*
X0046831Y0231381D01*
X0046112Y0231615D01*
X0045366Y0231733D01*
X0045188Y0231733D01*
X0045188Y0224133D01*
X0044788Y0224133D01*
X0044788Y0223733D01*
X0040188Y0223733D01*
X0040188Y0220555D01*
X0040307Y0219809D01*
X0040540Y0219091D01*
X0040883Y0218417D01*
X0041327Y0217806D01*
X0041861Y0217272D01*
X0042473Y0216828D01*
X0043146Y0216485D01*
X0043864Y0216251D01*
X0044611Y0216133D01*
X0044788Y0216133D01*
X0044788Y0223733D01*
X0045188Y0223733D01*
X0045188Y0216133D01*
X0045366Y0216133D01*
X0046112Y0216251D01*
X0046831Y0216485D01*
X0047504Y0216828D01*
X0048115Y0217272D01*
X0048650Y0217806D01*
X0049094Y0218417D01*
X0049437Y0219091D01*
X0049643Y0219726D01*
X0050411Y0217874D01*
X0051930Y0216355D01*
X0053914Y0215533D01*
X0056063Y0215533D01*
X0058047Y0216355D01*
X0059566Y0217874D01*
X0059988Y0218893D01*
X0060411Y0217874D01*
X0060988Y0217296D01*
X0060988Y0215590D01*
X0058332Y0212933D01*
X0039193Y0212933D01*
X0037723Y0212324D01*
X0022723Y0197324D01*
X0021597Y0196199D01*
X0020988Y0194729D01*
X0020988Y0163137D01*
X0021388Y0162172D01*
X0021388Y0128217D01*
X0021937Y0126894D01*
X0022949Y0125881D01*
X0029988Y0118842D01*
X0029988Y0115338D01*
X0030750Y0113501D01*
X0031639Y0112611D01*
X0031937Y0111894D01*
X0033042Y0110788D01*
X0033042Y0110361D01*
X0032639Y0109958D01*
X0032274Y0109076D01*
X0032274Y0103790D01*
X0032639Y0102908D01*
X0033314Y0102233D01*
X0032952Y0102595D02*
X0019988Y0102595D01*
X0019988Y0104193D02*
X0032274Y0104193D01*
X0032274Y0105792D02*
X0019988Y0105792D01*
X0019988Y0107390D02*
X0032274Y0107390D01*
X0032274Y0108989D02*
X0019988Y0108989D01*
X0019988Y0110587D02*
X0033042Y0110587D01*
X0031816Y0112186D02*
X0019988Y0112186D01*
X0019988Y0113784D02*
X0030632Y0113784D01*
X0029988Y0115383D02*
X0019988Y0115383D01*
X0019988Y0116981D02*
X0029988Y0116981D01*
X0029988Y0118580D02*
X0019988Y0118580D01*
X0019988Y0120178D02*
X0028652Y0120178D01*
X0027054Y0121777D02*
X0019988Y0121777D01*
X0019988Y0123375D02*
X0025455Y0123375D01*
X0023857Y0124974D02*
X0019988Y0124974D01*
X0019988Y0126572D02*
X0022258Y0126572D01*
X0021408Y0128171D02*
X0019988Y0128171D01*
X0019988Y0129769D02*
X0021388Y0129769D01*
X0021388Y0131368D02*
X0019988Y0131368D01*
X0019988Y0132966D02*
X0021388Y0132966D01*
X0021388Y0134565D02*
X0019988Y0134565D01*
X0019988Y0136163D02*
X0021388Y0136163D01*
X0021388Y0137762D02*
X0019988Y0137762D01*
X0019988Y0139360D02*
X0021388Y0139360D01*
X0021388Y0140959D02*
X0019988Y0140959D01*
X0019988Y0142557D02*
X0021388Y0142557D01*
X0021388Y0144156D02*
X0019988Y0144156D01*
X0019988Y0145754D02*
X0021388Y0145754D01*
X0021388Y0147353D02*
X0019988Y0147353D01*
X0019988Y0148951D02*
X0021388Y0148951D01*
X0021388Y0150550D02*
X0019988Y0150550D01*
X0019988Y0152148D02*
X0021388Y0152148D01*
X0021388Y0153747D02*
X0019988Y0153747D01*
X0019988Y0155345D02*
X0021388Y0155345D01*
X0021388Y0156944D02*
X0019988Y0156944D01*
X0019988Y0158543D02*
X0021388Y0158543D01*
X0021388Y0160141D02*
X0019988Y0160141D01*
X0019988Y0161740D02*
X0021388Y0161740D01*
X0020988Y0163338D02*
X0019988Y0163338D01*
X0019988Y0164937D02*
X0020988Y0164937D01*
X0020988Y0166535D02*
X0019988Y0166535D01*
X0019988Y0168134D02*
X0020988Y0168134D01*
X0020988Y0169732D02*
X0019988Y0169732D01*
X0019988Y0171331D02*
X0020988Y0171331D01*
X0020988Y0172929D02*
X0019988Y0172929D01*
X0019988Y0174528D02*
X0020988Y0174528D01*
X0020988Y0176126D02*
X0019988Y0176126D01*
X0019988Y0177725D02*
X0020988Y0177725D01*
X0020988Y0179323D02*
X0019988Y0179323D01*
X0019988Y0180922D02*
X0020988Y0180922D01*
X0020988Y0182520D02*
X0019988Y0182520D01*
X0019988Y0184119D02*
X0020988Y0184119D01*
X0020988Y0185717D02*
X0019988Y0185717D01*
X0019988Y0187316D02*
X0020988Y0187316D01*
X0020988Y0188914D02*
X0019988Y0188914D01*
X0019988Y0190513D02*
X0020988Y0190513D01*
X0020988Y0192111D02*
X0019988Y0192111D01*
X0019988Y0193710D02*
X0020988Y0193710D01*
X0021229Y0195308D02*
X0019988Y0195308D01*
X0019988Y0196907D02*
X0022305Y0196907D01*
X0023904Y0198505D02*
X0019988Y0198505D01*
X0019988Y0200104D02*
X0025502Y0200104D01*
X0027101Y0201702D02*
X0019988Y0201702D01*
X0019988Y0203301D02*
X0028699Y0203301D01*
X0030298Y0204899D02*
X0019988Y0204899D01*
X0019988Y0206498D02*
X0031896Y0206498D01*
X0033495Y0208096D02*
X0019988Y0208096D01*
X0019988Y0209695D02*
X0035093Y0209695D01*
X0036692Y0211293D02*
X0019988Y0211293D01*
X0019988Y0212892D02*
X0039093Y0212892D01*
X0041446Y0217687D02*
X0019988Y0217687D01*
X0019988Y0216089D02*
X0052572Y0216089D01*
X0050597Y0217687D02*
X0048531Y0217687D01*
X0049500Y0219286D02*
X0049826Y0219286D01*
X0045188Y0219286D02*
X0044788Y0219286D01*
X0044788Y0220884D02*
X0045188Y0220884D01*
X0045188Y0222483D02*
X0044788Y0222483D01*
X0044788Y0224081D02*
X0019988Y0224081D01*
X0019988Y0222483D02*
X0040188Y0222483D01*
X0040188Y0220884D02*
X0019988Y0220884D01*
X0019988Y0219286D02*
X0040477Y0219286D01*
X0044788Y0217687D02*
X0045188Y0217687D01*
X0044788Y0224133D02*
X0040188Y0224133D01*
X0040188Y0227311D01*
X0040307Y0228057D01*
X0040540Y0228776D01*
X0040883Y0229449D01*
X0041327Y0230060D01*
X0041861Y0230594D01*
X0042473Y0231038D01*
X0043146Y0231381D01*
X0043864Y0231615D01*
X0044611Y0231733D01*
X0044788Y0231733D01*
X0044788Y0224133D01*
X0044788Y0225680D02*
X0045188Y0225680D01*
X0045188Y0227279D02*
X0044788Y0227279D01*
X0044788Y0228877D02*
X0045188Y0228877D01*
X0045188Y0230476D02*
X0044788Y0230476D01*
X0041743Y0230476D02*
X0019988Y0230476D01*
X0019988Y0232074D02*
X0053289Y0232074D01*
X0050894Y0230476D02*
X0048234Y0230476D01*
X0049385Y0228877D02*
X0049949Y0228877D01*
X0056688Y0232074D02*
X0063289Y0232074D01*
X0060894Y0230476D02*
X0059083Y0230476D01*
X0066688Y0232074D02*
X0118289Y0232074D01*
X0118914Y0232333D02*
X0116930Y0231511D01*
X0115411Y0229992D01*
X0114643Y0228140D01*
X0114437Y0228776D01*
X0114094Y0229449D01*
X0113650Y0230060D01*
X0113115Y0230594D01*
X0112504Y0231038D01*
X0111831Y0231381D01*
X0111112Y0231615D01*
X0110366Y0231733D01*
X0110188Y0231733D01*
X0110188Y0224133D01*
X0109788Y0224133D01*
X0109788Y0223733D01*
X0105188Y0223733D01*
X0105188Y0220555D01*
X0105307Y0219809D01*
X0105540Y0219091D01*
X0105883Y0218417D01*
X0106327Y0217806D01*
X0106861Y0217272D01*
X0107473Y0216828D01*
X0108146Y0216485D01*
X0108864Y0216251D01*
X0109611Y0216133D01*
X0109788Y0216133D01*
X0109788Y0223733D01*
X0110188Y0223733D01*
X0110188Y0216133D01*
X0110366Y0216133D01*
X0111112Y0216251D01*
X0111831Y0216485D01*
X0112504Y0216828D01*
X0113115Y0217272D01*
X0113650Y0217806D01*
X0114094Y0218417D01*
X0114437Y0219091D01*
X0114643Y0219726D01*
X0115411Y0217874D01*
X0116930Y0216355D01*
X0118914Y0215533D01*
X0121063Y0215533D01*
X0123047Y0216355D01*
X0124566Y0217874D01*
X0124988Y0218893D01*
X0125411Y0217874D01*
X0126388Y0216896D01*
X0126388Y0210424D01*
X0102949Y0186985D01*
X0101937Y0185972D01*
X0101388Y0184649D01*
X0101388Y0125424D01*
X0099550Y0123586D01*
X0099227Y0124365D01*
X0097821Y0125772D01*
X0095983Y0126533D01*
X0093994Y0126533D01*
X0092156Y0125772D01*
X0090750Y0124365D01*
X0089988Y0122528D01*
X0089227Y0124365D01*
X0087821Y0125772D01*
X0085983Y0126533D01*
X0083994Y0126533D01*
X0082156Y0125772D01*
X0080750Y0124365D01*
X0079988Y0122528D01*
X0079227Y0124365D01*
X0077821Y0125772D01*
X0075983Y0126533D01*
X0073994Y0126533D01*
X0072156Y0125772D01*
X0070750Y0124365D01*
X0069988Y0122528D01*
X0069227Y0124365D01*
X0067821Y0125772D01*
X0065983Y0126533D01*
X0063994Y0126533D01*
X0062156Y0125772D01*
X0060750Y0124365D01*
X0059988Y0122528D01*
X0059227Y0124365D01*
X0057821Y0125772D01*
X0055983Y0126533D01*
X0053994Y0126533D01*
X0052156Y0125772D01*
X0050750Y0124365D01*
X0049988Y0122528D01*
X0049988Y0115338D01*
X0050750Y0113501D01*
X0052156Y0112094D01*
X0053994Y0111333D01*
X0055983Y0111333D01*
X0057821Y0112094D01*
X0059227Y0113501D01*
X0059988Y0115338D01*
X0059988Y0122528D01*
X0059988Y0115338D01*
X0060750Y0113501D01*
X0062156Y0112094D01*
X0063994Y0111333D01*
X0065983Y0111333D01*
X0067821Y0112094D01*
X0069227Y0113501D01*
X0069988Y0115338D01*
X0069988Y0122528D01*
X0069988Y0115338D01*
X0070750Y0113501D01*
X0072156Y0112094D01*
X0073994Y0111333D01*
X0075983Y0111333D01*
X0077821Y0112094D01*
X0079227Y0113501D01*
X0079988Y0115338D01*
X0080750Y0113501D01*
X0081639Y0112611D01*
X0081937Y0111894D01*
X0083042Y0110788D01*
X0083042Y0110361D01*
X0082714Y0110033D01*
X0082263Y0110033D01*
X0081663Y0110633D01*
X0080781Y0110998D01*
X0075889Y0110998D01*
X0075007Y0110633D01*
X0074524Y0110150D01*
X0074305Y0110276D01*
X0073848Y0110398D01*
X0071826Y0110398D01*
X0071826Y0106617D01*
X0071458Y0106617D01*
X0071458Y0106249D01*
X0071826Y0106249D01*
X0071826Y0102468D01*
X0073848Y0102468D01*
X0074305Y0102590D01*
X0074524Y0102716D01*
X0075007Y0102233D01*
X0075889Y0101868D01*
X0080781Y0101868D01*
X0081663Y0102233D01*
X0082263Y0102833D01*
X0082714Y0102833D01*
X0083314Y0102233D01*
X0084196Y0101868D01*
X0089088Y0101868D01*
X0089970Y0102233D01*
X0089988Y0102252D01*
X0090007Y0102233D01*
X0090889Y0101868D01*
X0095781Y0101868D01*
X0096663Y0102233D01*
X0097338Y0102908D01*
X0097703Y0103790D01*
X0097703Y0109076D01*
X0097338Y0109958D01*
X0096935Y0110361D01*
X0096935Y0110788D01*
X0098040Y0111894D01*
X0098337Y0112611D01*
X0099227Y0113501D01*
X0099986Y0115333D01*
X0100705Y0115333D01*
X0102028Y0115881D01*
X0103040Y0116894D01*
X0108040Y0121894D01*
X0108588Y0123217D01*
X0108588Y0182442D01*
X0133040Y0206894D01*
X0133588Y0208217D01*
X0133588Y0216896D01*
X0134566Y0217874D01*
X0135388Y0219859D01*
X0135388Y0228007D01*
X0134566Y0229992D01*
X0133047Y0231511D01*
X0131063Y0232333D01*
X0128914Y0232333D01*
X0126930Y0231511D01*
X0125411Y0229992D01*
X0124988Y0228973D01*
X0124566Y0229992D01*
X0123047Y0231511D01*
X0121063Y0232333D01*
X0118914Y0232333D01*
X0121688Y0232074D02*
X0128289Y0232074D01*
X0125894Y0230476D02*
X0124083Y0230476D01*
X0131688Y0232074D02*
X0183289Y0232074D01*
X0183914Y0232333D02*
X0181930Y0231511D01*
X0180411Y0229992D01*
X0179643Y0228140D01*
X0179437Y0228776D01*
X0179094Y0229449D01*
X0178650Y0230060D01*
X0178115Y0230594D01*
X0177504Y0231038D01*
X0176831Y0231381D01*
X0176112Y0231615D01*
X0175366Y0231733D01*
X0175188Y0231733D01*
X0175188Y0224133D01*
X0174788Y0224133D01*
X0174788Y0223733D01*
X0170188Y0223733D01*
X0170188Y0220555D01*
X0170307Y0219809D01*
X0170540Y0219091D01*
X0170883Y0218417D01*
X0171327Y0217806D01*
X0171861Y0217272D01*
X0172473Y0216828D01*
X0173146Y0216485D01*
X0173864Y0216251D01*
X0174611Y0216133D01*
X0174788Y0216133D01*
X0174788Y0223733D01*
X0175188Y0223733D01*
X0175188Y0216133D01*
X0175366Y0216133D01*
X0176112Y0216251D01*
X0176831Y0216485D01*
X0177504Y0216828D01*
X0178115Y0217272D01*
X0178650Y0217806D01*
X0179094Y0218417D01*
X0179437Y0219091D01*
X0179643Y0219726D01*
X0180411Y0217874D01*
X0181930Y0216355D01*
X0183914Y0215533D01*
X0186063Y0215533D01*
X0188047Y0216355D01*
X0189566Y0217874D01*
X0189988Y0218893D01*
X0190411Y0217874D01*
X0191930Y0216355D01*
X0193914Y0215533D01*
X0196063Y0215533D01*
X0198047Y0216355D01*
X0199566Y0217874D01*
X0200388Y0219859D01*
X0200388Y0228007D01*
X0199566Y0229992D01*
X0198047Y0231511D01*
X0196063Y0232333D01*
X0193914Y0232333D01*
X0191930Y0231511D01*
X0190411Y0229992D01*
X0189988Y0228973D01*
X0189566Y0229992D01*
X0188047Y0231511D01*
X0186063Y0232333D01*
X0183914Y0232333D01*
X0186688Y0232074D02*
X0193289Y0232074D01*
X0190894Y0230476D02*
X0189083Y0230476D01*
X0180894Y0230476D02*
X0178234Y0230476D01*
X0179385Y0228877D02*
X0179949Y0228877D01*
X0175188Y0228877D02*
X0174788Y0228877D01*
X0174788Y0227279D02*
X0175188Y0227279D01*
X0175188Y0225680D02*
X0174788Y0225680D01*
X0174788Y0224133D02*
X0174788Y0231733D01*
X0174611Y0231733D01*
X0173864Y0231615D01*
X0173146Y0231381D01*
X0172473Y0231038D01*
X0171861Y0230594D01*
X0171327Y0230060D01*
X0170883Y0229449D01*
X0170540Y0228776D01*
X0170307Y0228057D01*
X0170188Y0227311D01*
X0170188Y0224133D01*
X0174788Y0224133D01*
X0174788Y0224081D02*
X0135388Y0224081D01*
X0135388Y0222483D02*
X0170188Y0222483D01*
X0170188Y0220884D02*
X0135388Y0220884D01*
X0135151Y0219286D02*
X0170477Y0219286D01*
X0171446Y0217687D02*
X0134380Y0217687D01*
X0133588Y0216089D02*
X0182572Y0216089D01*
X0180597Y0217687D02*
X0178531Y0217687D01*
X0179500Y0219286D02*
X0179826Y0219286D01*
X0175188Y0219286D02*
X0174788Y0219286D01*
X0174788Y0220884D02*
X0175188Y0220884D01*
X0175188Y0222483D02*
X0174788Y0222483D01*
X0174788Y0217687D02*
X0175188Y0217687D01*
X0170188Y0225680D02*
X0135388Y0225680D01*
X0135388Y0227279D02*
X0170188Y0227279D01*
X0170592Y0228877D02*
X0135028Y0228877D01*
X0134083Y0230476D02*
X0171743Y0230476D01*
X0174788Y0230476D02*
X0175188Y0230476D01*
X0181915Y0236870D02*
X0133062Y0236870D01*
X0132225Y0236033D02*
X0135388Y0239196D01*
X0135388Y0243670D01*
X0132225Y0246833D01*
X0127752Y0246833D01*
X0124988Y0244070D01*
X0122225Y0246833D01*
X0117752Y0246833D01*
X0114588Y0243670D01*
X0114588Y0239196D01*
X0117752Y0236033D01*
X0122225Y0236033D01*
X0124988Y0238796D01*
X0127752Y0236033D01*
X0132225Y0236033D01*
X0134660Y0238468D02*
X0180317Y0238468D01*
X0179588Y0239196D02*
X0182752Y0236033D01*
X0187225Y0236033D01*
X0189988Y0238796D01*
X0192752Y0236033D01*
X0197225Y0236033D01*
X0200388Y0239196D01*
X0200388Y0243670D01*
X0197225Y0246833D01*
X0192752Y0246833D01*
X0189988Y0244070D01*
X0187225Y0246833D01*
X0182752Y0246833D01*
X0179588Y0243670D01*
X0179588Y0239196D01*
X0179588Y0240067D02*
X0135388Y0240067D01*
X0135388Y0241665D02*
X0179588Y0241665D01*
X0179588Y0243264D02*
X0135388Y0243264D01*
X0134196Y0244862D02*
X0180781Y0244862D01*
X0182379Y0246461D02*
X0132598Y0246461D01*
X0127379Y0246461D02*
X0122598Y0246461D01*
X0124196Y0244862D02*
X0125781Y0244862D01*
X0125317Y0238468D02*
X0124660Y0238468D01*
X0123062Y0236870D02*
X0126915Y0236870D01*
X0116915Y0236870D02*
X0068062Y0236870D01*
X0067225Y0236033D02*
X0070388Y0239196D01*
X0070388Y0243670D01*
X0067225Y0246833D01*
X0062752Y0246833D01*
X0059988Y0244070D01*
X0057225Y0246833D01*
X0052752Y0246833D01*
X0049588Y0243670D01*
X0049588Y0239196D01*
X0052752Y0236033D01*
X0057225Y0236033D01*
X0059988Y0238796D01*
X0062752Y0236033D01*
X0067225Y0236033D01*
X0069660Y0238468D02*
X0115317Y0238468D01*
X0114588Y0240067D02*
X0070388Y0240067D01*
X0070388Y0241665D02*
X0114588Y0241665D01*
X0114588Y0243264D02*
X0070388Y0243264D01*
X0069196Y0244862D02*
X0115781Y0244862D01*
X0117379Y0246461D02*
X0067598Y0246461D01*
X0062379Y0246461D02*
X0057598Y0246461D01*
X0059196Y0244862D02*
X0060781Y0244862D01*
X0052379Y0246461D02*
X0037078Y0246461D01*
X0037804Y0248059D02*
X0241779Y0248059D01*
X0241350Y0249658D02*
X0038233Y0249658D01*
X0038391Y0251256D02*
X0241192Y0251256D01*
X0241192Y0252855D02*
X0038391Y0252855D01*
X0038047Y0254453D02*
X0241536Y0254453D01*
X0241983Y0256052D02*
X0037600Y0256052D01*
X0036678Y0257650D02*
X0242906Y0257650D01*
X0242505Y0246461D02*
X0197598Y0246461D01*
X0199196Y0244862D02*
X0243441Y0244862D01*
X0245040Y0243264D02*
X0200388Y0243264D01*
X0200388Y0241665D02*
X0247489Y0241665D01*
X0257094Y0241665D02*
X0259988Y0241665D01*
X0259988Y0240067D02*
X0200388Y0240067D01*
X0199660Y0238468D02*
X0259988Y0238468D01*
X0259988Y0236870D02*
X0198062Y0236870D01*
X0196688Y0232074D02*
X0259988Y0232074D01*
X0259988Y0230476D02*
X0199083Y0230476D01*
X0200028Y0228877D02*
X0229796Y0228877D01*
X0230252Y0229333D02*
X0227088Y0226170D01*
X0227088Y0221696D01*
X0230252Y0218533D01*
X0234725Y0218533D01*
X0237888Y0221696D01*
X0237888Y0221745D01*
X0240500Y0219133D01*
X0242288Y0219133D01*
X0242288Y0223733D01*
X0242688Y0223733D01*
X0242688Y0219133D01*
X0244477Y0219133D01*
X0247288Y0221945D01*
X0247288Y0223733D01*
X0242689Y0223733D01*
X0242689Y0224133D01*
X0247288Y0224133D01*
X0247288Y0225921D01*
X0244477Y0228733D01*
X0242688Y0228733D01*
X0242688Y0224133D01*
X0242288Y0224133D01*
X0242288Y0228733D01*
X0240500Y0228733D01*
X0237888Y0226121D01*
X0237888Y0226170D01*
X0234725Y0229333D01*
X0230252Y0229333D01*
X0228197Y0227279D02*
X0200388Y0227279D01*
X0200388Y0225680D02*
X0227088Y0225680D01*
X0227088Y0224081D02*
X0200388Y0224081D01*
X0200388Y0222483D02*
X0227088Y0222483D01*
X0227900Y0220884D02*
X0200388Y0220884D01*
X0200151Y0219286D02*
X0229499Y0219286D01*
X0235478Y0219286D02*
X0240347Y0219286D01*
X0242288Y0219286D02*
X0242688Y0219286D01*
X0242688Y0220884D02*
X0242288Y0220884D01*
X0242288Y0222483D02*
X0242688Y0222483D01*
X0242689Y0224081D02*
X0259988Y0224081D01*
X0259988Y0222483D02*
X0247288Y0222483D01*
X0246228Y0220884D02*
X0259988Y0220884D01*
X0259988Y0219286D02*
X0244630Y0219286D01*
X0238749Y0220884D02*
X0237077Y0220884D01*
X0236780Y0227279D02*
X0239046Y0227279D01*
X0242288Y0227279D02*
X0242688Y0227279D01*
X0242688Y0225680D02*
X0242288Y0225680D01*
X0245931Y0227279D02*
X0259988Y0227279D01*
X0259988Y0228877D02*
X0235181Y0228877D01*
X0247288Y0225680D02*
X0259988Y0225680D01*
X0259988Y0217687D02*
X0199380Y0217687D01*
X0197405Y0216089D02*
X0259988Y0216089D01*
X0259988Y0214490D02*
X0133588Y0214490D01*
X0133588Y0212892D02*
X0259988Y0212892D01*
X0259988Y0211293D02*
X0133588Y0211293D01*
X0133588Y0209695D02*
X0259988Y0209695D01*
X0259988Y0208096D02*
X0133539Y0208096D01*
X0132644Y0206498D02*
X0259988Y0206498D01*
X0259988Y0204899D02*
X0131046Y0204899D01*
X0129447Y0203301D02*
X0259988Y0203301D01*
X0259988Y0201702D02*
X0127849Y0201702D01*
X0126250Y0200104D02*
X0259988Y0200104D01*
X0259988Y0198505D02*
X0124652Y0198505D01*
X0123053Y0196907D02*
X0259988Y0196907D01*
X0259988Y0195308D02*
X0237613Y0195308D01*
X0237330Y0195452D02*
X0236417Y0195749D01*
X0235469Y0195899D01*
X0235173Y0195899D01*
X0235173Y0189984D01*
X0234804Y0189984D01*
X0234804Y0195899D01*
X0234508Y0195899D01*
X0233560Y0195749D01*
X0232647Y0195452D01*
X0231791Y0195016D01*
X0231015Y0194452D01*
X0230336Y0193773D01*
X0229771Y0192996D01*
X0229335Y0192141D01*
X0229039Y0191228D01*
X0228888Y0190279D01*
X0228888Y0189983D01*
X0234804Y0189983D01*
X0234804Y0189615D01*
X0228888Y0189615D01*
X0228888Y0189319D01*
X0229039Y0188371D01*
X0229335Y0187458D01*
X0229771Y0186602D01*
X0230336Y0185825D01*
X0231015Y0185146D01*
X0231791Y0184582D01*
X0232647Y0184146D01*
X0233560Y0183849D01*
X0234508Y0183699D01*
X0234804Y0183699D01*
X0234804Y0189615D01*
X0235173Y0189615D01*
X0235173Y0189983D01*
X0241088Y0189983D01*
X0241088Y0190279D01*
X0240938Y0191228D01*
X0240642Y0192141D01*
X0240206Y0192996D01*
X0239641Y0193773D01*
X0238962Y0194452D01*
X0238186Y0195016D01*
X0237330Y0195452D01*
X0235173Y0195308D02*
X0234804Y0195308D01*
X0234804Y0193710D02*
X0235173Y0193710D01*
X0235173Y0192111D02*
X0234804Y0192111D01*
X0234804Y0190513D02*
X0235173Y0190513D01*
X0235173Y0189615D02*
X0241088Y0189615D01*
X0241088Y0189319D01*
X0240938Y0188371D01*
X0240642Y0187458D01*
X0240206Y0186602D01*
X0239641Y0185825D01*
X0238962Y0185146D01*
X0238186Y0184582D01*
X0237330Y0184146D01*
X0236417Y0183849D01*
X0235469Y0183699D01*
X0235173Y0183699D01*
X0235173Y0189615D01*
X0235173Y0188914D02*
X0234804Y0188914D01*
X0234804Y0187316D02*
X0235173Y0187316D01*
X0235173Y0185717D02*
X0234804Y0185717D01*
X0234804Y0184119D02*
X0235173Y0184119D01*
X0236321Y0182720D02*
X0233656Y0182720D01*
X0231193Y0181700D01*
X0229309Y0179815D01*
X0228288Y0177352D01*
X0228288Y0174687D01*
X0229309Y0172224D01*
X0231193Y0170340D01*
X0233656Y0169320D01*
X0236321Y0169320D01*
X0238784Y0170340D01*
X0240668Y0172224D01*
X0241688Y0174687D01*
X0241688Y0177352D01*
X0240668Y0179815D01*
X0238784Y0181700D01*
X0236321Y0182720D01*
X0236803Y0182520D02*
X0259988Y0182520D01*
X0259988Y0180922D02*
X0239562Y0180922D01*
X0240872Y0179323D02*
X0259988Y0179323D01*
X0259988Y0177725D02*
X0241534Y0177725D01*
X0241688Y0176126D02*
X0259988Y0176126D01*
X0259988Y0174528D02*
X0241622Y0174528D01*
X0240960Y0172929D02*
X0259988Y0172929D01*
X0259988Y0171331D02*
X0239775Y0171331D01*
X0237317Y0169732D02*
X0259988Y0169732D01*
X0259988Y0168134D02*
X0238268Y0168134D01*
X0238784Y0167920D02*
X0236321Y0168940D01*
X0233656Y0168940D01*
X0231193Y0167920D01*
X0229309Y0166035D01*
X0228288Y0163573D01*
X0228288Y0160907D01*
X0229309Y0158445D01*
X0231193Y0156560D01*
X0233656Y0155540D01*
X0236321Y0155540D01*
X0238784Y0156560D01*
X0240668Y0158445D01*
X0241688Y0160907D01*
X0241688Y0163573D01*
X0240668Y0166035D01*
X0238784Y0167920D01*
X0240169Y0166535D02*
X0259988Y0166535D01*
X0259988Y0164937D02*
X0241124Y0164937D01*
X0241688Y0163338D02*
X0259988Y0163338D01*
X0259988Y0161740D02*
X0241688Y0161740D01*
X0241371Y0160141D02*
X0259988Y0160141D01*
X0259988Y0158543D02*
X0240709Y0158543D01*
X0239168Y0156944D02*
X0259988Y0156944D01*
X0259988Y0155345D02*
X0189462Y0155345D01*
X0190688Y0156572D02*
X0187349Y0153233D01*
X0182627Y0153233D01*
X0179988Y0155872D01*
X0177349Y0153233D01*
X0172627Y0153233D01*
X0169988Y0155872D01*
X0167349Y0153233D01*
X0162627Y0153233D01*
X0159988Y0155872D01*
X0157349Y0153233D01*
X0152627Y0153233D01*
X0149988Y0155872D01*
X0147349Y0153233D01*
X0142627Y0153233D01*
X0139988Y0155872D01*
X0137349Y0153233D01*
X0132627Y0153233D01*
X0129988Y0155872D01*
X0127349Y0153233D01*
X0122627Y0153233D01*
X0119288Y0156572D01*
X0119288Y0161294D01*
X0121927Y0163933D01*
X0119288Y0166572D01*
X0119288Y0171294D01*
X0122627Y0174633D01*
X0127349Y0174633D01*
X0129988Y0171994D01*
X0132627Y0174633D01*
X0137349Y0174633D01*
X0139988Y0171994D01*
X0142627Y0174633D01*
X0147349Y0174633D01*
X0149988Y0171994D01*
X0152627Y0174633D01*
X0157349Y0174633D01*
X0159988Y0171994D01*
X0162627Y0174633D01*
X0167349Y0174633D01*
X0169988Y0171994D01*
X0172627Y0174633D01*
X0177349Y0174633D01*
X0179988Y0171994D01*
X0182627Y0174633D01*
X0187349Y0174633D01*
X0190688Y0171294D01*
X0190688Y0166572D01*
X0188049Y0163933D01*
X0190688Y0161294D01*
X0190688Y0156572D01*
X0190688Y0156944D02*
X0230809Y0156944D01*
X0229268Y0158543D02*
X0190688Y0158543D01*
X0190688Y0160141D02*
X0228606Y0160141D01*
X0228288Y0161740D02*
X0190243Y0161740D01*
X0188645Y0163338D02*
X0228288Y0163338D01*
X0228853Y0164937D02*
X0189053Y0164937D01*
X0190652Y0166535D02*
X0229808Y0166535D01*
X0231709Y0168134D02*
X0190688Y0168134D01*
X0190688Y0169732D02*
X0232660Y0169732D01*
X0230202Y0171331D02*
X0190652Y0171331D01*
X0189053Y0172929D02*
X0229017Y0172929D01*
X0228354Y0174528D02*
X0187455Y0174528D01*
X0182522Y0174528D02*
X0177455Y0174528D01*
X0179053Y0172929D02*
X0180924Y0172929D01*
X0172522Y0174528D02*
X0167455Y0174528D01*
X0169053Y0172929D02*
X0170924Y0172929D01*
X0162522Y0174528D02*
X0157455Y0174528D01*
X0159053Y0172929D02*
X0160924Y0172929D01*
X0152522Y0174528D02*
X0147455Y0174528D01*
X0149053Y0172929D02*
X0150924Y0172929D01*
X0142522Y0174528D02*
X0137455Y0174528D01*
X0139053Y0172929D02*
X0140924Y0172929D01*
X0132522Y0174528D02*
X0127455Y0174528D01*
X0129053Y0172929D02*
X0130924Y0172929D01*
X0122522Y0174528D02*
X0108588Y0174528D01*
X0108588Y0176126D02*
X0228288Y0176126D01*
X0228443Y0177725D02*
X0108588Y0177725D01*
X0108588Y0179323D02*
X0229105Y0179323D01*
X0230415Y0180922D02*
X0108588Y0180922D01*
X0108667Y0182520D02*
X0233174Y0182520D01*
X0232731Y0184119D02*
X0110265Y0184119D01*
X0111864Y0185717D02*
X0230444Y0185717D01*
X0229408Y0187316D02*
X0113462Y0187316D01*
X0115061Y0188914D02*
X0228953Y0188914D01*
X0228925Y0190513D02*
X0116659Y0190513D01*
X0118258Y0192111D02*
X0229326Y0192111D01*
X0230290Y0193710D02*
X0119856Y0193710D01*
X0121455Y0195308D02*
X0232364Y0195308D01*
X0239687Y0193710D02*
X0259988Y0193710D01*
X0259988Y0192111D02*
X0240651Y0192111D01*
X0241052Y0190513D02*
X0259988Y0190513D01*
X0259988Y0188914D02*
X0241024Y0188914D01*
X0240569Y0187316D02*
X0259988Y0187316D01*
X0259988Y0185717D02*
X0239533Y0185717D01*
X0237246Y0184119D02*
X0259988Y0184119D01*
X0259988Y0153747D02*
X0187863Y0153747D01*
X0185983Y0151533D02*
X0187821Y0150772D01*
X0189227Y0149365D01*
X0189988Y0147528D01*
X0189988Y0140338D01*
X0190750Y0138501D01*
X0192156Y0137094D01*
X0193994Y0136333D01*
X0195983Y0136333D01*
X0197821Y0137094D01*
X0199227Y0138501D01*
X0199988Y0140338D01*
X0199988Y0147528D01*
X0199227Y0149365D01*
X0197821Y0150772D01*
X0195983Y0151533D01*
X0193994Y0151533D01*
X0192156Y0150772D01*
X0190750Y0149365D01*
X0189988Y0147528D01*
X0189988Y0140338D01*
X0189227Y0138501D01*
X0187821Y0137094D01*
X0185983Y0136333D01*
X0183994Y0136333D01*
X0182156Y0137094D01*
X0180750Y0138501D01*
X0179988Y0140338D01*
X0179988Y0147528D01*
X0179227Y0149365D01*
X0177821Y0150772D01*
X0175983Y0151533D01*
X0173994Y0151533D01*
X0172156Y0150772D01*
X0170750Y0149365D01*
X0169988Y0147528D01*
X0169227Y0149365D01*
X0167821Y0150772D01*
X0165983Y0151533D01*
X0163994Y0151533D01*
X0162156Y0150772D01*
X0160750Y0149365D01*
X0159988Y0147528D01*
X0159227Y0149365D01*
X0157821Y0150772D01*
X0155983Y0151533D01*
X0153994Y0151533D01*
X0152156Y0150772D01*
X0150750Y0149365D01*
X0149988Y0147528D01*
X0149227Y0149365D01*
X0147821Y0150772D01*
X0145983Y0151533D01*
X0143994Y0151533D01*
X0142156Y0150772D01*
X0140750Y0149365D01*
X0139988Y0147528D01*
X0139227Y0149365D01*
X0137821Y0150772D01*
X0135983Y0151533D01*
X0133994Y0151533D01*
X0132156Y0150772D01*
X0130750Y0149365D01*
X0129988Y0147528D01*
X0129227Y0149365D01*
X0127821Y0150772D01*
X0125983Y0151533D01*
X0123994Y0151533D01*
X0122156Y0150772D01*
X0120750Y0149365D01*
X0119988Y0147528D01*
X0119988Y0140338D01*
X0120750Y0138501D01*
X0122156Y0137094D01*
X0123994Y0136333D01*
X0125983Y0136333D01*
X0127821Y0137094D01*
X0129227Y0138501D01*
X0129988Y0140338D01*
X0130750Y0138501D01*
X0132156Y0137094D01*
X0133994Y0136333D01*
X0135983Y0136333D01*
X0137821Y0137094D01*
X0139227Y0138501D01*
X0139988Y0140338D01*
X0140750Y0138501D01*
X0142156Y0137094D01*
X0143994Y0136333D01*
X0145983Y0136333D01*
X0147821Y0137094D01*
X0149227Y0138501D01*
X0149988Y0140338D01*
X0150750Y0138501D01*
X0152156Y0137094D01*
X0153994Y0136333D01*
X0155983Y0136333D01*
X0157821Y0137094D01*
X0159227Y0138501D01*
X0159988Y0140338D01*
X0160750Y0138501D01*
X0162156Y0137094D01*
X0163994Y0136333D01*
X0165983Y0136333D01*
X0167821Y0137094D01*
X0169227Y0138501D01*
X0169988Y0140338D01*
X0170750Y0138501D01*
X0172156Y0137094D01*
X0173994Y0136333D01*
X0175983Y0136333D01*
X0177821Y0137094D01*
X0179227Y0138501D01*
X0179988Y0140338D01*
X0179988Y0147528D01*
X0180750Y0149365D01*
X0182156Y0150772D01*
X0183994Y0151533D01*
X0185983Y0151533D01*
X0188043Y0150550D02*
X0191934Y0150550D01*
X0190578Y0148951D02*
X0189399Y0148951D01*
X0189988Y0147353D02*
X0189988Y0147353D01*
X0189988Y0145754D02*
X0189988Y0145754D01*
X0189988Y0144156D02*
X0189988Y0144156D01*
X0189988Y0142557D02*
X0189988Y0142557D01*
X0189988Y0140959D02*
X0189988Y0140959D01*
X0189583Y0139360D02*
X0190394Y0139360D01*
X0191489Y0137762D02*
X0188488Y0137762D01*
X0188932Y0134565D02*
X0228288Y0134565D01*
X0228288Y0133466D02*
X0229309Y0131004D01*
X0231193Y0129119D01*
X0233656Y0128099D01*
X0236321Y0128099D01*
X0238784Y0129119D01*
X0240668Y0131004D01*
X0241688Y0133466D01*
X0241688Y0136132D01*
X0240668Y0138594D01*
X0238784Y0140479D01*
X0236321Y0141499D01*
X0233656Y0141499D01*
X0231193Y0140479D01*
X0229309Y0138594D01*
X0228288Y0136132D01*
X0228288Y0133466D01*
X0228496Y0132966D02*
X0188954Y0132966D01*
X0188954Y0131368D02*
X0229158Y0131368D01*
X0230543Y0129769D02*
X0188872Y0129769D01*
X0189497Y0128171D02*
X0233483Y0128171D01*
X0233656Y0127720D02*
X0231193Y0126700D01*
X0229309Y0124815D01*
X0228288Y0122352D01*
X0228288Y0119687D01*
X0229309Y0117224D01*
X0231193Y0115340D01*
X0233656Y0114320D01*
X0236321Y0114320D01*
X0238784Y0115340D01*
X0240668Y0117224D01*
X0241688Y0119687D01*
X0241688Y0122352D01*
X0240668Y0124815D01*
X0238784Y0126700D01*
X0236321Y0127720D01*
X0233656Y0127720D01*
X0231066Y0126572D02*
X0189554Y0126572D01*
X0189554Y0124974D02*
X0229467Y0124974D01*
X0228712Y0123375D02*
X0189554Y0123375D01*
X0188707Y0121777D02*
X0228288Y0121777D01*
X0228288Y0120178D02*
X0197457Y0120178D01*
X0197295Y0120296D02*
X0196677Y0120611D01*
X0196019Y0120825D01*
X0195335Y0120933D01*
X0194989Y0120933D01*
X0194989Y0113933D01*
X0194989Y0113933D01*
X0199388Y0113933D01*
X0199388Y0110987D01*
X0199280Y0110303D01*
X0199066Y0109644D01*
X0198752Y0109027D01*
X0198345Y0108467D01*
X0197855Y0107977D01*
X0197295Y0107570D01*
X0196677Y0107255D01*
X0196019Y0107041D01*
X0195335Y0106933D01*
X0194989Y0106933D01*
X0194989Y0113933D01*
X0199388Y0113933D01*
X0199388Y0116879D01*
X0199280Y0117563D01*
X0199066Y0118222D01*
X0198752Y0118839D01*
X0198345Y0119399D01*
X0197855Y0119889D01*
X0197295Y0120296D01*
X0194989Y0120178D02*
X0194988Y0120178D01*
X0194988Y0120933D02*
X0194642Y0120933D01*
X0193958Y0120825D01*
X0193299Y0120611D01*
X0192682Y0120296D01*
X0192122Y0119889D01*
X0191632Y0119399D01*
X0191225Y0118839D01*
X0190911Y0118222D01*
X0190697Y0117563D01*
X0190588Y0116879D01*
X0190588Y0113933D01*
X0190588Y0110987D01*
X0190697Y0110303D01*
X0190911Y0109644D01*
X0191225Y0109027D01*
X0191632Y0108467D01*
X0192122Y0107977D01*
X0192682Y0107570D01*
X0193299Y0107255D01*
X0193958Y0107041D01*
X0194642Y0106933D01*
X0194988Y0106933D01*
X0194988Y0113933D01*
X0190588Y0113933D01*
X0194988Y0113933D01*
X0194988Y0113933D01*
X0194989Y0113933D01*
X0194988Y0113933D01*
X0194988Y0120933D01*
X0194988Y0118580D02*
X0194989Y0118580D01*
X0194988Y0116981D02*
X0194989Y0116981D01*
X0194988Y0115383D02*
X0194989Y0115383D01*
X0194988Y0113784D02*
X0194989Y0113784D01*
X0194988Y0112186D02*
X0194989Y0112186D01*
X0194988Y0110587D02*
X0194989Y0110587D01*
X0194988Y0108989D02*
X0194989Y0108989D01*
X0194988Y0107390D02*
X0194989Y0107390D01*
X0196942Y0107390D02*
X0234804Y0107390D01*
X0234804Y0107424D02*
X0234804Y0107056D01*
X0228888Y0107056D01*
X0228888Y0106760D01*
X0229039Y0105812D01*
X0229335Y0104899D01*
X0229771Y0104043D01*
X0230336Y0103266D01*
X0231015Y0102587D01*
X0231791Y0102023D01*
X0232647Y0101587D01*
X0233560Y0101290D01*
X0234508Y0101140D01*
X0234804Y0101140D01*
X0234804Y0107056D01*
X0235173Y0107056D01*
X0235173Y0107424D01*
X0241088Y0107424D01*
X0241088Y0107720D01*
X0240938Y0108669D01*
X0240642Y0109582D01*
X0240206Y0110437D01*
X0239641Y0111214D01*
X0238962Y0111893D01*
X0238186Y0112457D01*
X0237330Y0112893D01*
X0236417Y0113190D01*
X0235469Y0113340D01*
X0235173Y0113340D01*
X0235173Y0107424D01*
X0234804Y0107424D01*
X0228888Y0107424D01*
X0228888Y0107720D01*
X0229039Y0108669D01*
X0229335Y0109582D01*
X0229771Y0110437D01*
X0230336Y0111214D01*
X0231015Y0111893D01*
X0231791Y0112457D01*
X0232647Y0112893D01*
X0233560Y0113190D01*
X0234508Y0113340D01*
X0234804Y0113340D01*
X0234804Y0107424D01*
X0235173Y0107390D02*
X0259988Y0107390D01*
X0259988Y0105792D02*
X0240932Y0105792D01*
X0240938Y0105812D02*
X0241088Y0106760D01*
X0241088Y0107056D01*
X0235173Y0107056D01*
X0235173Y0101140D01*
X0235469Y0101140D01*
X0236417Y0101290D01*
X0237330Y0101587D01*
X0238186Y0102023D01*
X0238962Y0102587D01*
X0239641Y0103266D01*
X0240206Y0104043D01*
X0240642Y0104899D01*
X0240938Y0105812D01*
X0240282Y0104193D02*
X0259988Y0104193D01*
X0259988Y0102595D02*
X0238970Y0102595D01*
X0235173Y0102595D02*
X0234804Y0102595D01*
X0234804Y0104193D02*
X0235173Y0104193D01*
X0235173Y0105792D02*
X0234804Y0105792D01*
X0231007Y0102595D02*
X0189554Y0102595D01*
X0189554Y0104193D02*
X0229695Y0104193D01*
X0229045Y0105792D02*
X0189004Y0105792D01*
X0188588Y0107390D02*
X0193035Y0107390D01*
X0191253Y0108989D02*
X0189429Y0108989D01*
X0189988Y0110587D02*
X0190652Y0110587D01*
X0190588Y0112186D02*
X0189988Y0112186D01*
X0189988Y0113784D02*
X0190588Y0113784D01*
X0190588Y0115383D02*
X0189988Y0115383D01*
X0189988Y0116981D02*
X0190605Y0116981D01*
X0191093Y0118580D02*
X0189553Y0118580D01*
X0188588Y0120178D02*
X0192520Y0120178D01*
X0198884Y0118580D02*
X0228747Y0118580D01*
X0229552Y0116981D02*
X0199372Y0116981D01*
X0199388Y0115383D02*
X0231150Y0115383D01*
X0231418Y0112186D02*
X0199388Y0112186D01*
X0199388Y0113784D02*
X0259988Y0113784D01*
X0259988Y0112186D02*
X0238559Y0112186D01*
X0240097Y0110587D02*
X0259988Y0110587D01*
X0259988Y0108989D02*
X0240834Y0108989D01*
X0235173Y0108989D02*
X0234804Y0108989D01*
X0234804Y0110587D02*
X0235173Y0110587D01*
X0235173Y0112186D02*
X0234804Y0112186D01*
X0238827Y0115383D02*
X0259988Y0115383D01*
X0259988Y0116981D02*
X0240425Y0116981D01*
X0241230Y0118580D02*
X0259988Y0118580D01*
X0259988Y0120178D02*
X0241688Y0120178D01*
X0241688Y0121777D02*
X0259988Y0121777D01*
X0259988Y0123375D02*
X0241265Y0123375D01*
X0240510Y0124974D02*
X0259988Y0124974D01*
X0259988Y0126572D02*
X0238911Y0126572D01*
X0236494Y0128171D02*
X0259988Y0128171D01*
X0259988Y0129769D02*
X0239434Y0129769D01*
X0240819Y0131368D02*
X0259988Y0131368D01*
X0259988Y0132966D02*
X0241481Y0132966D01*
X0241688Y0134565D02*
X0259988Y0134565D01*
X0259988Y0136163D02*
X0241675Y0136163D01*
X0241013Y0137762D02*
X0259988Y0137762D01*
X0259988Y0139360D02*
X0239903Y0139360D01*
X0237626Y0140959D02*
X0259988Y0140959D01*
X0259988Y0142557D02*
X0199988Y0142557D01*
X0199988Y0140959D02*
X0232351Y0140959D01*
X0230074Y0139360D02*
X0199583Y0139360D01*
X0198488Y0137762D02*
X0228964Y0137762D01*
X0228302Y0136163D02*
X0108588Y0136163D01*
X0108588Y0134565D02*
X0121045Y0134565D01*
X0121023Y0132966D02*
X0108588Y0132966D01*
X0108588Y0131368D02*
X0121023Y0131368D01*
X0121105Y0129769D02*
X0108588Y0129769D01*
X0108588Y0128171D02*
X0120480Y0128171D01*
X0120423Y0126572D02*
X0108588Y0126572D01*
X0108588Y0124974D02*
X0120423Y0124974D01*
X0120423Y0123375D02*
X0108588Y0123375D01*
X0107923Y0121777D02*
X0121270Y0121777D01*
X0121388Y0120178D02*
X0106325Y0120178D01*
X0104726Y0118580D02*
X0120424Y0118580D01*
X0119988Y0116981D02*
X0103128Y0116981D01*
X0100824Y0115383D02*
X0119988Y0115383D01*
X0119988Y0113784D02*
X0099345Y0113784D01*
X0098161Y0112186D02*
X0119988Y0112186D01*
X0119988Y0110587D02*
X0096935Y0110587D01*
X0097703Y0108989D02*
X0120548Y0108989D01*
X0121388Y0107390D02*
X0097703Y0107390D01*
X0097703Y0105792D02*
X0120973Y0105792D01*
X0120423Y0104193D02*
X0097703Y0104193D01*
X0097024Y0102595D02*
X0120423Y0102595D01*
X0120423Y0100996D02*
X0019988Y0100996D01*
X0019988Y0099398D02*
X0120604Y0099398D01*
X0120423Y0097799D02*
X0019988Y0097799D01*
X0019988Y0096201D02*
X0023946Y0096201D01*
X0020674Y0094602D02*
X0019988Y0094602D01*
X0036995Y0080215D02*
X0050819Y0080215D01*
X0047952Y0102595D02*
X0047024Y0102595D01*
X0046935Y0110587D02*
X0048268Y0110587D01*
X0048161Y0112186D02*
X0052065Y0112186D01*
X0050632Y0113784D02*
X0049345Y0113784D01*
X0049988Y0115383D02*
X0049988Y0115383D01*
X0049988Y0116981D02*
X0049988Y0116981D01*
X0049988Y0118580D02*
X0049988Y0118580D01*
X0049988Y0120178D02*
X0049988Y0120178D01*
X0049988Y0121777D02*
X0049988Y0121777D01*
X0049637Y0123375D02*
X0050340Y0123375D01*
X0051358Y0124974D02*
X0048619Y0124974D01*
X0041358Y0124974D02*
X0038619Y0124974D01*
X0039637Y0123375D02*
X0040340Y0123375D01*
X0039988Y0122528D02*
X0039988Y0115338D01*
X0039988Y0122528D01*
X0039988Y0121777D02*
X0039988Y0121777D01*
X0039988Y0120178D02*
X0039988Y0120178D01*
X0039988Y0118580D02*
X0039988Y0118580D01*
X0039988Y0116981D02*
X0039988Y0116981D01*
X0039988Y0115383D02*
X0039988Y0115383D01*
X0039988Y0115338D02*
X0039604Y0114409D01*
X0039694Y0114319D01*
X0039988Y0113608D01*
X0040283Y0114319D01*
X0040373Y0114409D01*
X0039988Y0115338D01*
X0039915Y0113784D02*
X0040062Y0113784D01*
X0032440Y0126572D02*
X0101388Y0126572D01*
X0101388Y0128171D02*
X0030842Y0128171D01*
X0029243Y0129769D02*
X0083278Y0129769D01*
X0083314Y0129733D02*
X0084196Y0129368D01*
X0089088Y0129368D01*
X0089970Y0129733D01*
X0089988Y0129752D01*
X0090007Y0129733D01*
X0090889Y0129368D01*
X0095781Y0129368D01*
X0096663Y0129733D01*
X0097338Y0130408D01*
X0097703Y0131290D01*
X0097703Y0136576D01*
X0097543Y0136962D01*
X0097701Y0137120D01*
X0098188Y0138297D01*
X0098188Y0142462D01*
X0099227Y0143501D01*
X0099988Y0145338D01*
X0099988Y0152528D01*
X0099227Y0154365D01*
X0097821Y0155772D01*
X0095983Y0156533D01*
X0093994Y0156533D01*
X0092156Y0155772D01*
X0090750Y0154365D01*
X0089988Y0152528D01*
X0089227Y0154365D01*
X0088188Y0155404D01*
X0088188Y0157318D01*
X0088345Y0157383D01*
X0088828Y0157866D01*
X0089047Y0157740D01*
X0089504Y0157618D01*
X0091526Y0157618D01*
X0091526Y0161399D01*
X0091894Y0161399D01*
X0091894Y0161767D01*
X0095478Y0161767D01*
X0095478Y0163985D01*
X0095356Y0164443D01*
X0095119Y0164854D01*
X0094784Y0165189D01*
X0094373Y0165426D01*
X0093915Y0165548D01*
X0091894Y0165548D01*
X0091894Y0161767D01*
X0091526Y0161767D01*
X0091526Y0165548D01*
X0089504Y0165548D01*
X0089047Y0165426D01*
X0088828Y0165300D01*
X0088345Y0165783D01*
X0087463Y0166148D01*
X0082571Y0166148D01*
X0081689Y0165783D01*
X0081014Y0165108D01*
X0080649Y0164226D01*
X0080649Y0158940D01*
X0081014Y0158058D01*
X0081689Y0157383D01*
X0081788Y0157342D01*
X0081788Y0155404D01*
X0080750Y0154365D01*
X0079988Y0152528D01*
X0079227Y0154365D01*
X0077821Y0155772D01*
X0075983Y0156533D01*
X0073994Y0156533D01*
X0072156Y0155772D01*
X0070750Y0154365D01*
X0069988Y0152528D01*
X0069988Y0145338D01*
X0070750Y0143501D01*
X0072156Y0142094D01*
X0073994Y0141333D01*
X0075983Y0141333D01*
X0077821Y0142094D01*
X0079227Y0143501D01*
X0079988Y0145338D01*
X0080750Y0143501D01*
X0081788Y0142462D01*
X0081788Y0138297D01*
X0082276Y0137120D01*
X0082434Y0136962D01*
X0082274Y0136576D01*
X0082274Y0131290D01*
X0082639Y0130408D01*
X0083314Y0129733D01*
X0082274Y0131368D02*
X0028588Y0131368D01*
X0028588Y0132966D02*
X0082274Y0132966D01*
X0082274Y0134565D02*
X0028588Y0134565D01*
X0028588Y0136163D02*
X0082274Y0136163D01*
X0082010Y0137762D02*
X0028588Y0137762D01*
X0028588Y0139360D02*
X0081788Y0139360D01*
X0081788Y0140959D02*
X0028588Y0140959D01*
X0028588Y0142557D02*
X0031693Y0142557D01*
X0032156Y0142094D02*
X0033994Y0141333D01*
X0035983Y0141333D01*
X0037821Y0142094D01*
X0039227Y0143501D01*
X0039988Y0145338D01*
X0039988Y0152528D01*
X0039227Y0154365D01*
X0037821Y0155772D01*
X0035983Y0156533D01*
X0033994Y0156533D01*
X0032156Y0155772D01*
X0030750Y0154365D01*
X0029988Y0152528D01*
X0029988Y0145338D01*
X0030750Y0143501D01*
X0032156Y0142094D01*
X0030478Y0144156D02*
X0028588Y0144156D01*
X0028588Y0145754D02*
X0029988Y0145754D01*
X0029988Y0147353D02*
X0028588Y0147353D01*
X0028588Y0148951D02*
X0029988Y0148951D01*
X0029988Y0150550D02*
X0028588Y0150550D01*
X0028588Y0152148D02*
X0029988Y0152148D01*
X0030494Y0153747D02*
X0028588Y0153747D01*
X0028588Y0155345D02*
X0031730Y0155345D01*
X0028588Y0156944D02*
X0081788Y0156944D01*
X0081730Y0155345D02*
X0078247Y0155345D01*
X0079483Y0153747D02*
X0080494Y0153747D01*
X0079988Y0152528D02*
X0079988Y0145338D01*
X0079988Y0152528D01*
X0079988Y0152148D02*
X0079988Y0152148D01*
X0079988Y0150550D02*
X0079988Y0150550D01*
X0079988Y0148951D02*
X0079988Y0148951D01*
X0079988Y0147353D02*
X0079988Y0147353D01*
X0079988Y0145754D02*
X0079988Y0145754D01*
X0079499Y0144156D02*
X0080478Y0144156D01*
X0081693Y0142557D02*
X0078284Y0142557D01*
X0071693Y0142557D02*
X0067270Y0142557D01*
X0067295Y0142570D02*
X0067855Y0142977D01*
X0068345Y0143467D01*
X0068752Y0144027D01*
X0069066Y0144644D01*
X0069280Y0145303D01*
X0069388Y0145987D01*
X0069388Y0148933D01*
X0064989Y0148933D01*
X0064989Y0148933D01*
X0069388Y0148933D01*
X0069388Y0151879D01*
X0069280Y0152563D01*
X0069066Y0153222D01*
X0068752Y0153839D01*
X0068345Y0154399D01*
X0067855Y0154889D01*
X0067295Y0155296D01*
X0066677Y0155611D01*
X0066019Y0155825D01*
X0065335Y0155933D01*
X0064989Y0155933D01*
X0064989Y0148933D01*
X0064989Y0141933D01*
X0065335Y0141933D01*
X0066019Y0142041D01*
X0066677Y0142255D01*
X0067295Y0142570D01*
X0068817Y0144156D02*
X0070478Y0144156D01*
X0069988Y0145754D02*
X0069352Y0145754D01*
X0069388Y0147353D02*
X0069988Y0147353D01*
X0069988Y0148951D02*
X0069388Y0148951D01*
X0069388Y0150550D02*
X0069988Y0150550D01*
X0069988Y0152148D02*
X0069346Y0152148D01*
X0068799Y0153747D02*
X0070494Y0153747D01*
X0071730Y0155345D02*
X0067198Y0155345D01*
X0064989Y0155345D02*
X0064988Y0155345D01*
X0064988Y0155933D02*
X0064642Y0155933D01*
X0063958Y0155825D01*
X0063299Y0155611D01*
X0062682Y0155296D01*
X0062122Y0154889D01*
X0061632Y0154399D01*
X0061225Y0153839D01*
X0060911Y0153222D01*
X0060697Y0152563D01*
X0060588Y0151879D01*
X0060588Y0148933D01*
X0060588Y0145987D01*
X0060697Y0145303D01*
X0060911Y0144644D01*
X0061225Y0144027D01*
X0061632Y0143467D01*
X0062122Y0142977D01*
X0062682Y0142570D01*
X0063299Y0142255D01*
X0063958Y0142041D01*
X0064642Y0141933D01*
X0064988Y0141933D01*
X0064988Y0148933D01*
X0060588Y0148933D01*
X0064988Y0148933D01*
X0064988Y0148933D01*
X0064989Y0148933D01*
X0064988Y0148933D01*
X0064988Y0155933D01*
X0064988Y0153747D02*
X0064989Y0153747D01*
X0064988Y0152148D02*
X0064989Y0152148D01*
X0064988Y0150550D02*
X0064989Y0150550D01*
X0064988Y0148951D02*
X0064989Y0148951D01*
X0064988Y0147353D02*
X0064989Y0147353D01*
X0064988Y0145754D02*
X0064989Y0145754D01*
X0064988Y0144156D02*
X0064989Y0144156D01*
X0064988Y0142557D02*
X0064989Y0142557D01*
X0062707Y0142557D02*
X0058284Y0142557D01*
X0057821Y0142094D02*
X0059227Y0143501D01*
X0059988Y0145338D01*
X0059988Y0152528D01*
X0059227Y0154365D01*
X0057821Y0155772D01*
X0055983Y0156533D01*
X0053994Y0156533D01*
X0052156Y0155772D01*
X0050750Y0154365D01*
X0049988Y0152528D01*
X0049227Y0154365D01*
X0047821Y0155772D01*
X0045983Y0156533D01*
X0043994Y0156533D01*
X0042156Y0155772D01*
X0040750Y0154365D01*
X0039988Y0152528D01*
X0039988Y0145338D01*
X0040750Y0143501D01*
X0042156Y0142094D01*
X0043994Y0141333D01*
X0045983Y0141333D01*
X0047821Y0142094D01*
X0049227Y0143501D01*
X0049988Y0145338D01*
X0049988Y0152528D01*
X0049988Y0145338D01*
X0050750Y0143501D01*
X0052156Y0142094D01*
X0053994Y0141333D01*
X0055983Y0141333D01*
X0057821Y0142094D01*
X0059499Y0144156D02*
X0061160Y0144156D01*
X0060625Y0145754D02*
X0059988Y0145754D01*
X0059988Y0147353D02*
X0060588Y0147353D01*
X0060588Y0148951D02*
X0059988Y0148951D01*
X0059988Y0150550D02*
X0060588Y0150550D01*
X0060631Y0152148D02*
X0059988Y0152148D01*
X0059483Y0153747D02*
X0061178Y0153747D01*
X0062779Y0155345D02*
X0058247Y0155345D01*
X0051730Y0155345D02*
X0048247Y0155345D01*
X0049483Y0153747D02*
X0050494Y0153747D01*
X0049988Y0152148D02*
X0049988Y0152148D01*
X0049988Y0150550D02*
X0049988Y0150550D01*
X0049988Y0148951D02*
X0049988Y0148951D01*
X0049988Y0147353D02*
X0049988Y0147353D01*
X0049988Y0145754D02*
X0049988Y0145754D01*
X0049499Y0144156D02*
X0050478Y0144156D01*
X0051693Y0142557D02*
X0048284Y0142557D01*
X0041693Y0142557D02*
X0038284Y0142557D01*
X0039499Y0144156D02*
X0040478Y0144156D01*
X0039988Y0145754D02*
X0039988Y0145754D01*
X0039988Y0147353D02*
X0039988Y0147353D01*
X0039988Y0148951D02*
X0039988Y0148951D01*
X0039988Y0150550D02*
X0039988Y0150550D01*
X0039988Y0152148D02*
X0039988Y0152148D01*
X0039483Y0153747D02*
X0040494Y0153747D01*
X0041730Y0155345D02*
X0038247Y0155345D01*
X0028588Y0158543D02*
X0080813Y0158543D01*
X0080649Y0160141D02*
X0028588Y0160141D01*
X0028588Y0161740D02*
X0080649Y0161740D01*
X0080649Y0163338D02*
X0028988Y0163338D01*
X0028988Y0164937D02*
X0080943Y0164937D01*
X0084988Y0161555D02*
X0085017Y0161583D01*
X0084988Y0161555D02*
X0084988Y0148933D01*
X0084988Y0138933D01*
X0086642Y0137280D01*
X0086642Y0133933D01*
X0089707Y0138242D02*
X0089355Y0139092D01*
X0088188Y0140259D01*
X0088188Y0142462D01*
X0089227Y0143501D01*
X0089988Y0145338D01*
X0089988Y0152528D01*
X0089988Y0145338D01*
X0090750Y0143501D01*
X0091788Y0142462D01*
X0091788Y0140259D01*
X0090622Y0139092D01*
X0090270Y0138242D01*
X0090007Y0138133D01*
X0089988Y0138115D01*
X0089970Y0138133D01*
X0089707Y0138242D01*
X0089087Y0139360D02*
X0090890Y0139360D01*
X0091788Y0140959D02*
X0088188Y0140959D01*
X0088284Y0142557D02*
X0091693Y0142557D01*
X0090478Y0144156D02*
X0089499Y0144156D01*
X0089988Y0145754D02*
X0089988Y0145754D01*
X0089988Y0147353D02*
X0089988Y0147353D01*
X0089988Y0148951D02*
X0089988Y0148951D01*
X0089988Y0150550D02*
X0089988Y0150550D01*
X0089988Y0152148D02*
X0089988Y0152148D01*
X0089483Y0153747D02*
X0090494Y0153747D01*
X0091730Y0155345D02*
X0088247Y0155345D01*
X0088188Y0156944D02*
X0101388Y0156944D01*
X0101388Y0155345D02*
X0098247Y0155345D01*
X0099483Y0153747D02*
X0101388Y0153747D01*
X0101388Y0152148D02*
X0099988Y0152148D01*
X0099988Y0150550D02*
X0101388Y0150550D01*
X0101388Y0148951D02*
X0099988Y0148951D01*
X0099988Y0147353D02*
X0101388Y0147353D01*
X0101388Y0145754D02*
X0099988Y0145754D01*
X0099499Y0144156D02*
X0101388Y0144156D01*
X0101388Y0142557D02*
X0098284Y0142557D01*
X0098188Y0140959D02*
X0101388Y0140959D01*
X0101388Y0139360D02*
X0098188Y0139360D01*
X0097967Y0137762D02*
X0101388Y0137762D01*
X0101388Y0136163D02*
X0097703Y0136163D01*
X0097703Y0134565D02*
X0101388Y0134565D01*
X0101388Y0132966D02*
X0097703Y0132966D01*
X0097703Y0131368D02*
X0101388Y0131368D01*
X0101388Y0129769D02*
X0096699Y0129769D01*
X0098619Y0124974D02*
X0100938Y0124974D01*
X0091358Y0124974D02*
X0088619Y0124974D01*
X0089637Y0123375D02*
X0090340Y0123375D01*
X0089988Y0122528D02*
X0089988Y0115338D01*
X0089988Y0122528D01*
X0089988Y0121777D02*
X0089988Y0121777D01*
X0089988Y0120178D02*
X0089988Y0120178D01*
X0089988Y0118580D02*
X0089988Y0118580D01*
X0089988Y0116981D02*
X0089988Y0116981D01*
X0089988Y0115383D02*
X0089988Y0115383D01*
X0089988Y0115338D02*
X0089604Y0114409D01*
X0089694Y0114319D01*
X0089988Y0113608D01*
X0090283Y0114319D01*
X0090373Y0114409D01*
X0089988Y0115338D01*
X0089915Y0113784D02*
X0090062Y0113784D01*
X0083042Y0110587D02*
X0081709Y0110587D01*
X0081816Y0112186D02*
X0077912Y0112186D01*
X0079345Y0113784D02*
X0080632Y0113784D01*
X0079988Y0115338D02*
X0079988Y0122528D01*
X0079988Y0115338D01*
X0079988Y0115383D02*
X0079988Y0115383D01*
X0079988Y0116981D02*
X0079988Y0116981D01*
X0079988Y0118580D02*
X0079988Y0118580D01*
X0079988Y0120178D02*
X0079988Y0120178D01*
X0079988Y0121777D02*
X0079988Y0121777D01*
X0079637Y0123375D02*
X0080340Y0123375D01*
X0081358Y0124974D02*
X0078619Y0124974D01*
X0071358Y0124974D02*
X0068619Y0124974D01*
X0069637Y0123375D02*
X0070340Y0123375D01*
X0069988Y0121777D02*
X0069988Y0121777D01*
X0069988Y0120178D02*
X0069988Y0120178D01*
X0069988Y0118580D02*
X0069988Y0118580D01*
X0069988Y0116981D02*
X0069988Y0116981D01*
X0069988Y0115383D02*
X0069988Y0115383D01*
X0069345Y0113784D02*
X0070632Y0113784D01*
X0072065Y0112186D02*
X0067912Y0112186D01*
X0068979Y0110276D02*
X0068568Y0110039D01*
X0068233Y0109704D01*
X0067996Y0109293D01*
X0067874Y0108835D01*
X0067874Y0106617D01*
X0071458Y0106617D01*
X0071458Y0110398D01*
X0069437Y0110398D01*
X0068979Y0110276D01*
X0067915Y0108989D02*
X0062062Y0108989D01*
X0062103Y0107390D02*
X0067874Y0107390D01*
X0067874Y0106249D02*
X0067874Y0104031D01*
X0067996Y0103573D01*
X0068233Y0103162D01*
X0068568Y0102827D01*
X0068979Y0102590D01*
X0069437Y0102468D01*
X0071458Y0102468D01*
X0071458Y0106249D01*
X0067874Y0106249D01*
X0067874Y0105792D02*
X0062103Y0105792D01*
X0062103Y0106249D02*
X0062103Y0104031D01*
X0061981Y0103573D01*
X0061744Y0103162D01*
X0061409Y0102827D01*
X0060998Y0102590D01*
X0060540Y0102468D01*
X0058519Y0102468D01*
X0058519Y0106249D01*
X0062103Y0106249D01*
X0062103Y0104193D02*
X0067874Y0104193D01*
X0068971Y0102595D02*
X0061006Y0102595D01*
X0058519Y0102595D02*
X0058151Y0102595D01*
X0058151Y0104193D02*
X0058519Y0104193D01*
X0058519Y0105792D02*
X0058151Y0105792D01*
X0058151Y0107390D02*
X0058519Y0107390D01*
X0058519Y0108989D02*
X0058151Y0108989D01*
X0057912Y0112186D02*
X0062065Y0112186D01*
X0060632Y0113784D02*
X0059345Y0113784D01*
X0059988Y0115383D02*
X0059988Y0115383D01*
X0059988Y0116981D02*
X0059988Y0116981D01*
X0059988Y0118580D02*
X0059988Y0118580D01*
X0059988Y0120178D02*
X0059988Y0120178D01*
X0059988Y0121777D02*
X0059988Y0121777D01*
X0059637Y0123375D02*
X0060340Y0123375D01*
X0061358Y0124974D02*
X0058619Y0124974D01*
X0055016Y0110587D02*
X0074961Y0110587D01*
X0071826Y0108989D02*
X0071458Y0108989D01*
X0071458Y0107390D02*
X0071826Y0107390D01*
X0071826Y0105792D02*
X0071458Y0105792D01*
X0071458Y0104193D02*
X0071826Y0104193D01*
X0071826Y0102595D02*
X0071458Y0102595D01*
X0074313Y0102595D02*
X0074645Y0102595D01*
X0082024Y0102595D02*
X0082952Y0102595D01*
X0079621Y0086610D02*
X0119604Y0086610D01*
X0119288Y0085011D02*
X0080283Y0085011D01*
X0080388Y0083412D02*
X0119288Y0083412D01*
X0119288Y0081814D02*
X0080059Y0081814D01*
X0079158Y0080215D02*
X0120645Y0080215D01*
X0128775Y0088208D02*
X0131202Y0088208D01*
X0131388Y0089807D02*
X0128588Y0089807D01*
X0128588Y0091405D02*
X0131388Y0091405D01*
X0130480Y0093004D02*
X0129497Y0093004D01*
X0129554Y0094602D02*
X0130423Y0094602D01*
X0130423Y0096201D02*
X0129554Y0096201D01*
X0129554Y0097799D02*
X0130423Y0097799D01*
X0130604Y0099398D02*
X0129373Y0099398D01*
X0129554Y0100996D02*
X0130423Y0100996D01*
X0130423Y0102595D02*
X0129554Y0102595D01*
X0129554Y0104193D02*
X0130423Y0104193D01*
X0130973Y0105792D02*
X0129004Y0105792D01*
X0128588Y0107390D02*
X0131388Y0107390D01*
X0130548Y0108989D02*
X0129429Y0108989D01*
X0129988Y0110587D02*
X0129988Y0110587D01*
X0129988Y0112186D02*
X0129988Y0112186D01*
X0129988Y0113784D02*
X0129988Y0113784D01*
X0129988Y0115383D02*
X0129988Y0115383D01*
X0129988Y0116981D02*
X0129988Y0116981D01*
X0129553Y0118580D02*
X0130424Y0118580D01*
X0131388Y0120178D02*
X0128588Y0120178D01*
X0128707Y0121777D02*
X0131270Y0121777D01*
X0130423Y0123375D02*
X0129554Y0123375D01*
X0129554Y0124974D02*
X0130423Y0124974D01*
X0130423Y0126572D02*
X0129554Y0126572D01*
X0129497Y0128171D02*
X0130480Y0128171D01*
X0131105Y0129769D02*
X0128872Y0129769D01*
X0128954Y0131368D02*
X0131023Y0131368D01*
X0131023Y0132966D02*
X0128954Y0132966D01*
X0128932Y0134565D02*
X0131045Y0134565D01*
X0131489Y0137762D02*
X0128488Y0137762D01*
X0129583Y0139360D02*
X0130394Y0139360D01*
X0129988Y0140338D02*
X0129988Y0147528D01*
X0129988Y0140338D01*
X0129988Y0140959D02*
X0129988Y0140959D01*
X0129988Y0142557D02*
X0129988Y0142557D01*
X0129988Y0144156D02*
X0129988Y0144156D01*
X0129988Y0145754D02*
X0129988Y0145754D01*
X0129988Y0147353D02*
X0129988Y0147353D01*
X0129399Y0148951D02*
X0130578Y0148951D01*
X0131934Y0150550D02*
X0128043Y0150550D01*
X0127863Y0153747D02*
X0132114Y0153747D01*
X0130515Y0155345D02*
X0129462Y0155345D01*
X0122114Y0153747D02*
X0108588Y0153747D01*
X0108588Y0155345D02*
X0120515Y0155345D01*
X0119288Y0156944D02*
X0108588Y0156944D01*
X0108588Y0158543D02*
X0119288Y0158543D01*
X0119288Y0160141D02*
X0108588Y0160141D01*
X0108588Y0161740D02*
X0119734Y0161740D01*
X0121332Y0163338D02*
X0108588Y0163338D01*
X0108588Y0164937D02*
X0120924Y0164937D01*
X0119325Y0166535D02*
X0108588Y0166535D01*
X0108588Y0168134D02*
X0119288Y0168134D01*
X0119288Y0169732D02*
X0108588Y0169732D01*
X0108588Y0171331D02*
X0119325Y0171331D01*
X0120924Y0172929D02*
X0108588Y0172929D01*
X0101388Y0172929D02*
X0028988Y0172929D01*
X0028988Y0171331D02*
X0101388Y0171331D01*
X0101388Y0169732D02*
X0028988Y0169732D01*
X0028988Y0168134D02*
X0101388Y0168134D01*
X0101388Y0166535D02*
X0028988Y0166535D01*
X0028988Y0174528D02*
X0101388Y0174528D01*
X0101388Y0176126D02*
X0028988Y0176126D01*
X0028988Y0177725D02*
X0101388Y0177725D01*
X0101388Y0179323D02*
X0028988Y0179323D01*
X0028988Y0180922D02*
X0101388Y0180922D01*
X0101388Y0182520D02*
X0028988Y0182520D01*
X0028988Y0184119D02*
X0101388Y0184119D01*
X0101831Y0185717D02*
X0028988Y0185717D01*
X0028988Y0187316D02*
X0103280Y0187316D01*
X0104878Y0188914D02*
X0028988Y0188914D01*
X0028988Y0190513D02*
X0106477Y0190513D01*
X0108076Y0192111D02*
X0028988Y0192111D01*
X0030422Y0193710D02*
X0109674Y0193710D01*
X0111273Y0195308D02*
X0032021Y0195308D01*
X0033619Y0196907D02*
X0112871Y0196907D01*
X0114470Y0198505D02*
X0035218Y0198505D01*
X0036816Y0200104D02*
X0116068Y0200104D01*
X0117667Y0201702D02*
X0038415Y0201702D01*
X0040013Y0203301D02*
X0119265Y0203301D01*
X0120864Y0204899D02*
X0041612Y0204899D01*
X0057405Y0216089D02*
X0060988Y0216089D01*
X0060597Y0217687D02*
X0059380Y0217687D01*
X0059889Y0214490D02*
X0019988Y0214490D01*
X0019988Y0225680D02*
X0040188Y0225680D01*
X0040188Y0227279D02*
X0019988Y0227279D01*
X0019988Y0228877D02*
X0040592Y0228877D01*
X0050317Y0238468D02*
X0019988Y0238468D01*
X0019988Y0236870D02*
X0051915Y0236870D01*
X0049588Y0240067D02*
X0019988Y0240067D01*
X0019988Y0241665D02*
X0022489Y0241665D01*
X0020040Y0243264D02*
X0019988Y0243264D01*
X0019988Y0235271D02*
X0259988Y0235271D01*
X0259988Y0233673D02*
X0019988Y0233673D01*
X0032094Y0241665D02*
X0049588Y0241665D01*
X0049588Y0243264D02*
X0034543Y0243264D01*
X0036142Y0244862D02*
X0050781Y0244862D01*
X0058062Y0236870D02*
X0061915Y0236870D01*
X0060317Y0238468D02*
X0059660Y0238468D01*
X0069083Y0230476D02*
X0106743Y0230476D01*
X0106861Y0230594D02*
X0106327Y0230060D01*
X0105883Y0229449D01*
X0105540Y0228776D01*
X0105307Y0228057D01*
X0105188Y0227311D01*
X0105188Y0224133D01*
X0109788Y0224133D01*
X0109788Y0231733D01*
X0109611Y0231733D01*
X0108864Y0231615D01*
X0108146Y0231381D01*
X0107473Y0231038D01*
X0106861Y0230594D01*
X0105592Y0228877D02*
X0070028Y0228877D01*
X0070388Y0227279D02*
X0105188Y0227279D01*
X0105188Y0225680D02*
X0070388Y0225680D01*
X0070388Y0224081D02*
X0109788Y0224081D01*
X0109788Y0222483D02*
X0110188Y0222483D01*
X0110188Y0220884D02*
X0109788Y0220884D01*
X0109788Y0219286D02*
X0110188Y0219286D01*
X0110188Y0217687D02*
X0109788Y0217687D01*
X0106446Y0217687D02*
X0069380Y0217687D01*
X0068988Y0216089D02*
X0117572Y0216089D01*
X0115597Y0217687D02*
X0113531Y0217687D01*
X0114500Y0219286D02*
X0114826Y0219286D01*
X0105477Y0219286D02*
X0070151Y0219286D01*
X0070388Y0220884D02*
X0105188Y0220884D01*
X0105188Y0222483D02*
X0070388Y0222483D01*
X0068988Y0214490D02*
X0126388Y0214490D01*
X0126388Y0212892D02*
X0068887Y0212892D01*
X0068006Y0211293D02*
X0126388Y0211293D01*
X0125659Y0209695D02*
X0066407Y0209695D01*
X0064809Y0208096D02*
X0124061Y0208096D01*
X0122462Y0206498D02*
X0063210Y0206498D01*
X0109788Y0225680D02*
X0110188Y0225680D01*
X0110188Y0227279D02*
X0109788Y0227279D01*
X0109788Y0228877D02*
X0110188Y0228877D01*
X0110188Y0230476D02*
X0109788Y0230476D01*
X0113234Y0230476D02*
X0115894Y0230476D01*
X0114949Y0228877D02*
X0114385Y0228877D01*
X0124380Y0217687D02*
X0125597Y0217687D01*
X0126388Y0216089D02*
X0122405Y0216089D01*
X0101388Y0164937D02*
X0095036Y0164937D01*
X0095478Y0163338D02*
X0101388Y0163338D01*
X0101388Y0161740D02*
X0091894Y0161740D01*
X0091894Y0161399D02*
X0095478Y0161399D01*
X0095478Y0159181D01*
X0095356Y0158723D01*
X0095119Y0158312D01*
X0094784Y0157977D01*
X0094373Y0157740D01*
X0093915Y0157618D01*
X0091894Y0157618D01*
X0091894Y0161399D01*
X0091894Y0160141D02*
X0091526Y0160141D01*
X0091526Y0158543D02*
X0091894Y0158543D01*
X0095252Y0158543D02*
X0101388Y0158543D01*
X0101388Y0160141D02*
X0095478Y0160141D01*
X0091894Y0163338D02*
X0091526Y0163338D01*
X0091526Y0164937D02*
X0091894Y0164937D01*
X0108588Y0152148D02*
X0259988Y0152148D01*
X0259988Y0150550D02*
X0198043Y0150550D01*
X0199399Y0148951D02*
X0259988Y0148951D01*
X0259988Y0147353D02*
X0199988Y0147353D01*
X0199988Y0145754D02*
X0259988Y0145754D01*
X0259988Y0144156D02*
X0199988Y0144156D01*
X0185173Y0134565D02*
X0184804Y0134565D01*
X0184804Y0132966D02*
X0185173Y0132966D01*
X0181023Y0132966D02*
X0178954Y0132966D01*
X0178954Y0131368D02*
X0181023Y0131368D01*
X0181105Y0129769D02*
X0178872Y0129769D01*
X0179497Y0128171D02*
X0180480Y0128171D01*
X0180423Y0126572D02*
X0179554Y0126572D01*
X0179554Y0124974D02*
X0180423Y0124974D01*
X0180423Y0123375D02*
X0179554Y0123375D01*
X0178707Y0121777D02*
X0181270Y0121777D01*
X0181388Y0120178D02*
X0178588Y0120178D01*
X0179553Y0118580D02*
X0180424Y0118580D01*
X0179988Y0116981D02*
X0179988Y0116981D01*
X0179988Y0115383D02*
X0179988Y0115383D01*
X0179988Y0113784D02*
X0179988Y0113784D01*
X0179988Y0112186D02*
X0179988Y0112186D01*
X0179988Y0110587D02*
X0179988Y0110587D01*
X0179429Y0108989D02*
X0180548Y0108989D01*
X0181388Y0107390D02*
X0178588Y0107390D01*
X0179004Y0105792D02*
X0180973Y0105792D01*
X0180423Y0104193D02*
X0179554Y0104193D01*
X0179554Y0102595D02*
X0180423Y0102595D01*
X0180423Y0100996D02*
X0179554Y0100996D01*
X0179373Y0099398D02*
X0180604Y0099398D01*
X0180423Y0097799D02*
X0179554Y0097799D01*
X0179554Y0096201D02*
X0180423Y0096201D01*
X0180423Y0094602D02*
X0179554Y0094602D01*
X0179497Y0093004D02*
X0180480Y0093004D01*
X0181388Y0091405D02*
X0178588Y0091405D01*
X0178588Y0089807D02*
X0181388Y0089807D01*
X0181202Y0088208D02*
X0178775Y0088208D01*
X0171388Y0089807D02*
X0168588Y0089807D01*
X0168588Y0091405D02*
X0171388Y0091405D01*
X0170480Y0093004D02*
X0169497Y0093004D01*
X0169554Y0094602D02*
X0170423Y0094602D01*
X0170423Y0096201D02*
X0169554Y0096201D01*
X0169554Y0097799D02*
X0170423Y0097799D01*
X0170604Y0099398D02*
X0169373Y0099398D01*
X0169554Y0100996D02*
X0170423Y0100996D01*
X0170423Y0102595D02*
X0169554Y0102595D01*
X0169554Y0104193D02*
X0170423Y0104193D01*
X0170973Y0105792D02*
X0169004Y0105792D01*
X0168588Y0107390D02*
X0171388Y0107390D01*
X0170548Y0108989D02*
X0169429Y0108989D01*
X0169988Y0110587D02*
X0169988Y0110587D01*
X0169988Y0112186D02*
X0169988Y0112186D01*
X0169988Y0113784D02*
X0169988Y0113784D01*
X0169988Y0115383D02*
X0169988Y0115383D01*
X0169988Y0116981D02*
X0169988Y0116981D01*
X0169553Y0118580D02*
X0170424Y0118580D01*
X0171388Y0120178D02*
X0168588Y0120178D01*
X0168707Y0121777D02*
X0171270Y0121777D01*
X0170423Y0123375D02*
X0169554Y0123375D01*
X0169554Y0124974D02*
X0170423Y0124974D01*
X0170423Y0126572D02*
X0169554Y0126572D01*
X0169497Y0128171D02*
X0170480Y0128171D01*
X0171105Y0129769D02*
X0168872Y0129769D01*
X0168954Y0131368D02*
X0171023Y0131368D01*
X0171023Y0132966D02*
X0168954Y0132966D01*
X0168932Y0134565D02*
X0171045Y0134565D01*
X0171489Y0137762D02*
X0168488Y0137762D01*
X0169583Y0139360D02*
X0170394Y0139360D01*
X0169988Y0140338D02*
X0169988Y0147528D01*
X0169988Y0140338D01*
X0169988Y0140959D02*
X0169988Y0140959D01*
X0169988Y0142557D02*
X0169988Y0142557D01*
X0169988Y0144156D02*
X0169988Y0144156D01*
X0169988Y0145754D02*
X0169988Y0145754D01*
X0169988Y0147353D02*
X0169988Y0147353D01*
X0169399Y0148951D02*
X0170578Y0148951D01*
X0171934Y0150550D02*
X0168043Y0150550D01*
X0167863Y0153747D02*
X0172114Y0153747D01*
X0170515Y0155345D02*
X0169462Y0155345D01*
X0177863Y0153747D02*
X0182114Y0153747D01*
X0180515Y0155345D02*
X0179462Y0155345D01*
X0178043Y0150550D02*
X0181934Y0150550D01*
X0180578Y0148951D02*
X0179399Y0148951D01*
X0179988Y0147353D02*
X0179988Y0147353D01*
X0179988Y0145754D02*
X0179988Y0145754D01*
X0179988Y0144156D02*
X0179988Y0144156D01*
X0179988Y0142557D02*
X0179988Y0142557D01*
X0179988Y0140959D02*
X0179988Y0140959D01*
X0179583Y0139360D02*
X0180394Y0139360D01*
X0181489Y0137762D02*
X0178488Y0137762D01*
X0178932Y0134565D02*
X0181045Y0134565D01*
X0175173Y0134565D02*
X0174804Y0134565D01*
X0174804Y0132966D02*
X0175173Y0132966D01*
X0165173Y0132966D02*
X0164804Y0132966D01*
X0164804Y0134565D02*
X0165173Y0134565D01*
X0161045Y0134565D02*
X0158932Y0134565D01*
X0158954Y0132966D02*
X0161023Y0132966D01*
X0161023Y0131368D02*
X0158954Y0131368D01*
X0158872Y0129769D02*
X0161105Y0129769D01*
X0160480Y0128171D02*
X0159497Y0128171D01*
X0159554Y0126572D02*
X0160423Y0126572D01*
X0160423Y0124974D02*
X0159554Y0124974D01*
X0159554Y0123375D02*
X0160423Y0123375D01*
X0161270Y0121777D02*
X0158707Y0121777D01*
X0158588Y0120178D02*
X0161388Y0120178D01*
X0160424Y0118580D02*
X0159553Y0118580D01*
X0159988Y0116981D02*
X0159988Y0116981D01*
X0159988Y0115383D02*
X0159988Y0115383D01*
X0159988Y0113784D02*
X0159988Y0113784D01*
X0159988Y0112186D02*
X0159988Y0112186D01*
X0159988Y0110587D02*
X0159988Y0110587D01*
X0159429Y0108989D02*
X0160548Y0108989D01*
X0161388Y0107390D02*
X0158588Y0107390D01*
X0159004Y0105792D02*
X0160973Y0105792D01*
X0160423Y0104193D02*
X0159554Y0104193D01*
X0159554Y0102595D02*
X0160423Y0102595D01*
X0160423Y0100996D02*
X0159554Y0100996D01*
X0159373Y0099398D02*
X0160604Y0099398D01*
X0160423Y0097799D02*
X0159554Y0097799D01*
X0159554Y0096201D02*
X0160423Y0096201D01*
X0160423Y0094602D02*
X0159554Y0094602D01*
X0159497Y0093004D02*
X0160480Y0093004D01*
X0161388Y0091405D02*
X0158588Y0091405D01*
X0158588Y0089807D02*
X0161388Y0089807D01*
X0161202Y0088208D02*
X0158775Y0088208D01*
X0151388Y0089807D02*
X0148588Y0089807D01*
X0148588Y0091405D02*
X0151388Y0091405D01*
X0150480Y0093004D02*
X0149497Y0093004D01*
X0149554Y0094602D02*
X0150423Y0094602D01*
X0150423Y0096201D02*
X0149554Y0096201D01*
X0149554Y0097799D02*
X0150423Y0097799D01*
X0150604Y0099398D02*
X0149373Y0099398D01*
X0149554Y0100996D02*
X0150423Y0100996D01*
X0150423Y0102595D02*
X0149554Y0102595D01*
X0149554Y0104193D02*
X0150423Y0104193D01*
X0150973Y0105792D02*
X0149004Y0105792D01*
X0148588Y0107390D02*
X0151388Y0107390D01*
X0150548Y0108989D02*
X0149429Y0108989D01*
X0149988Y0110587D02*
X0149988Y0110587D01*
X0149988Y0112186D02*
X0149988Y0112186D01*
X0149988Y0113784D02*
X0149988Y0113784D01*
X0149988Y0115383D02*
X0149988Y0115383D01*
X0149988Y0116981D02*
X0149988Y0116981D01*
X0149553Y0118580D02*
X0150424Y0118580D01*
X0151388Y0120178D02*
X0148588Y0120178D01*
X0148707Y0121777D02*
X0151270Y0121777D01*
X0150423Y0123375D02*
X0149554Y0123375D01*
X0149554Y0124974D02*
X0150423Y0124974D01*
X0150423Y0126572D02*
X0149554Y0126572D01*
X0149497Y0128171D02*
X0150480Y0128171D01*
X0151105Y0129769D02*
X0148872Y0129769D01*
X0148954Y0131368D02*
X0151023Y0131368D01*
X0151023Y0132966D02*
X0148954Y0132966D01*
X0148932Y0134565D02*
X0151045Y0134565D01*
X0151489Y0137762D02*
X0148488Y0137762D01*
X0149583Y0139360D02*
X0150394Y0139360D01*
X0149988Y0140338D02*
X0149988Y0147528D01*
X0149988Y0140338D01*
X0149988Y0140959D02*
X0149988Y0140959D01*
X0149988Y0142557D02*
X0149988Y0142557D01*
X0149988Y0144156D02*
X0149988Y0144156D01*
X0149988Y0145754D02*
X0149988Y0145754D01*
X0149988Y0147353D02*
X0149988Y0147353D01*
X0149399Y0148951D02*
X0150578Y0148951D01*
X0151934Y0150550D02*
X0148043Y0150550D01*
X0147863Y0153747D02*
X0152114Y0153747D01*
X0150515Y0155345D02*
X0149462Y0155345D01*
X0157863Y0153747D02*
X0162114Y0153747D01*
X0160515Y0155345D02*
X0159462Y0155345D01*
X0158043Y0150550D02*
X0161934Y0150550D01*
X0160578Y0148951D02*
X0159399Y0148951D01*
X0159988Y0147528D02*
X0159988Y0140338D01*
X0159988Y0147528D01*
X0159988Y0147353D02*
X0159988Y0147353D01*
X0159988Y0145754D02*
X0159988Y0145754D01*
X0159988Y0144156D02*
X0159988Y0144156D01*
X0159988Y0142557D02*
X0159988Y0142557D01*
X0159988Y0140959D02*
X0159988Y0140959D01*
X0159583Y0139360D02*
X0160394Y0139360D01*
X0161489Y0137762D02*
X0158488Y0137762D01*
X0155173Y0134565D02*
X0154804Y0134565D01*
X0154804Y0132966D02*
X0155173Y0132966D01*
X0145173Y0132966D02*
X0144804Y0132966D01*
X0144804Y0134565D02*
X0145173Y0134565D01*
X0141045Y0134565D02*
X0138932Y0134565D01*
X0138954Y0132966D02*
X0141023Y0132966D01*
X0141023Y0131368D02*
X0138954Y0131368D01*
X0138872Y0129769D02*
X0141105Y0129769D01*
X0140480Y0128171D02*
X0139497Y0128171D01*
X0139554Y0126572D02*
X0140423Y0126572D01*
X0140423Y0124974D02*
X0139554Y0124974D01*
X0139554Y0123375D02*
X0140423Y0123375D01*
X0141270Y0121777D02*
X0138707Y0121777D01*
X0138588Y0120178D02*
X0141388Y0120178D01*
X0140424Y0118580D02*
X0139553Y0118580D01*
X0139988Y0116981D02*
X0139988Y0116981D01*
X0139988Y0115383D02*
X0139988Y0115383D01*
X0139988Y0113784D02*
X0139988Y0113784D01*
X0139988Y0112186D02*
X0139988Y0112186D01*
X0139988Y0110587D02*
X0139988Y0110587D01*
X0139429Y0108989D02*
X0140548Y0108989D01*
X0141388Y0107390D02*
X0138588Y0107390D01*
X0139004Y0105792D02*
X0140973Y0105792D01*
X0140423Y0104193D02*
X0139554Y0104193D01*
X0139554Y0102595D02*
X0140423Y0102595D01*
X0140423Y0100996D02*
X0139554Y0100996D01*
X0139373Y0099398D02*
X0140604Y0099398D01*
X0140423Y0097799D02*
X0139554Y0097799D01*
X0139554Y0096201D02*
X0140423Y0096201D01*
X0140423Y0094602D02*
X0139554Y0094602D01*
X0139497Y0093004D02*
X0140480Y0093004D01*
X0141388Y0091405D02*
X0138588Y0091405D01*
X0138588Y0089807D02*
X0141388Y0089807D01*
X0141202Y0088208D02*
X0138775Y0088208D01*
X0148775Y0088208D02*
X0151202Y0088208D01*
X0168775Y0088208D02*
X0171202Y0088208D01*
X0188588Y0089807D02*
X0241306Y0089807D01*
X0240878Y0088208D02*
X0188775Y0088208D01*
X0190373Y0086610D02*
X0240720Y0086610D01*
X0240720Y0085011D02*
X0190688Y0085011D01*
X0190688Y0083412D02*
X0241064Y0083412D01*
X0241511Y0081814D02*
X0190688Y0081814D01*
X0189332Y0080215D02*
X0242434Y0080215D01*
X0242033Y0091405D02*
X0188588Y0091405D01*
X0189497Y0093004D02*
X0242969Y0093004D01*
X0244567Y0094602D02*
X0189554Y0094602D01*
X0189554Y0096201D02*
X0247016Y0096201D01*
X0256622Y0096201D02*
X0259988Y0096201D01*
X0259988Y0097799D02*
X0189554Y0097799D01*
X0189373Y0099398D02*
X0259988Y0099398D01*
X0259988Y0100996D02*
X0189554Y0100996D01*
X0198724Y0108989D02*
X0229143Y0108989D01*
X0229880Y0110587D02*
X0199325Y0110587D01*
X0141489Y0137762D02*
X0138488Y0137762D01*
X0139583Y0139360D02*
X0140394Y0139360D01*
X0139988Y0140338D02*
X0139988Y0147528D01*
X0139988Y0140338D01*
X0139988Y0140959D02*
X0139988Y0140959D01*
X0139988Y0142557D02*
X0139988Y0142557D01*
X0139988Y0144156D02*
X0139988Y0144156D01*
X0139988Y0145754D02*
X0139988Y0145754D01*
X0139988Y0147353D02*
X0139988Y0147353D01*
X0139399Y0148951D02*
X0140578Y0148951D01*
X0141934Y0150550D02*
X0138043Y0150550D01*
X0137863Y0153747D02*
X0142114Y0153747D01*
X0140515Y0155345D02*
X0139462Y0155345D01*
X0121934Y0150550D02*
X0108588Y0150550D01*
X0108588Y0148951D02*
X0120578Y0148951D01*
X0119988Y0147353D02*
X0108588Y0147353D01*
X0108588Y0145754D02*
X0119988Y0145754D01*
X0119988Y0144156D02*
X0108588Y0144156D01*
X0108588Y0142557D02*
X0119988Y0142557D01*
X0119988Y0140959D02*
X0108588Y0140959D01*
X0108588Y0139360D02*
X0120394Y0139360D01*
X0121489Y0137762D02*
X0108588Y0137762D01*
X0094988Y0138933D02*
X0093335Y0137280D01*
X0093335Y0133933D01*
X0094988Y0138933D02*
X0094988Y0148933D01*
X0124804Y0134565D02*
X0125173Y0134565D01*
X0125173Y0132966D02*
X0124804Y0132966D01*
X0134804Y0132966D02*
X0135173Y0132966D01*
X0135173Y0134565D02*
X0134804Y0134565D01*
X0055664Y0102595D02*
X0055332Y0102595D01*
X0187405Y0216089D02*
X0192572Y0216089D01*
X0190597Y0217687D02*
X0189380Y0217687D01*
X0188062Y0236870D02*
X0191915Y0236870D01*
X0190317Y0238468D02*
X0189660Y0238468D01*
X0189196Y0244862D02*
X0190781Y0244862D01*
X0192379Y0246461D02*
X0187598Y0246461D01*
X0259543Y0243264D02*
X0259988Y0243264D01*
X0259988Y0094602D02*
X0259071Y0094602D01*
D19*
X0184988Y0095587D02*
X0184988Y0083933D01*
X0174988Y0083933D02*
X0174988Y0095587D01*
X0174988Y0102280D02*
X0174988Y0113933D01*
X0174988Y0125587D01*
X0164988Y0125587D02*
X0164988Y0113933D01*
X0164988Y0102280D01*
X0164988Y0095587D02*
X0164988Y0083933D01*
X0154988Y0083933D02*
X0154988Y0095587D01*
X0154988Y0102280D02*
X0154988Y0113933D01*
X0154988Y0125587D01*
X0144988Y0125587D02*
X0144988Y0113933D01*
X0144988Y0102280D01*
X0144988Y0095587D02*
X0144988Y0083933D01*
X0134988Y0083933D02*
X0134988Y0095587D01*
X0134988Y0102280D02*
X0134988Y0113933D01*
X0134988Y0125587D01*
X0124988Y0125587D02*
X0124988Y0113933D01*
X0124988Y0102280D01*
X0124988Y0095587D02*
X0124988Y0083933D01*
X0093335Y0106433D02*
X0093335Y0112280D01*
X0094988Y0113933D01*
X0094988Y0118933D01*
X0099988Y0118933D01*
X0104988Y0123933D01*
X0104988Y0183933D01*
X0129988Y0208933D01*
X0129988Y0223933D01*
X0024988Y0163933D02*
X0024988Y0128933D01*
X0034988Y0118933D01*
X0034988Y0113933D01*
X0036642Y0112280D01*
X0036642Y0106433D01*
X0043335Y0106433D02*
X0043335Y0112280D01*
X0044988Y0113933D01*
X0044988Y0118933D01*
X0043335Y0106433D02*
X0051642Y0106433D01*
X0078335Y0106433D02*
X0086642Y0106433D01*
X0086642Y0112280D01*
X0084988Y0113933D01*
X0084988Y0118933D01*
X0184988Y0113933D02*
X0184988Y0102280D01*
X0184988Y0113933D02*
X0184988Y0125587D01*
D20*
X0064988Y0213933D02*
X0059988Y0208933D01*
X0039988Y0208933D01*
X0024988Y0193933D01*
X0024988Y0163933D01*
X0064988Y0213933D02*
X0064988Y0223933D01*
M02*
