G75*
%MOIN*%
%OFA0B0*%
%FSLAX25Y25*%
%IPPOS*%
%LPD*%
%AMOC8*
5,1,8,0,0,1.08239X$1,22.5*
%
%ADD10OC8,0.07000*%
%ADD11C,0.07000*%
%ADD12R,0.03937X0.04331*%
%ADD13C,0.05150*%
%ADD14OC8,0.06600*%
%ADD15R,0.04331X0.03937*%
%ADD16C,0.06000*%
%ADD17C,0.08600*%
%ADD18C,0.06600*%
%ADD19C,0.04000*%
%ADD20C,0.02400*%
%ADD21C,0.03200*%
%ADD22C,0.06600*%
D10*
X0107713Y0016295D03*
X0107621Y0026289D03*
X0117621Y0026289D03*
X0127621Y0026289D03*
X0137621Y0026289D03*
X0137713Y0016295D03*
X0127713Y0016295D03*
X0117713Y0016295D03*
X0117603Y0036283D03*
X0127603Y0036283D03*
X0137603Y0036283D03*
X0147603Y0036283D03*
X0157603Y0036283D03*
X0167603Y0036283D03*
X0177603Y0036283D03*
X0177621Y0026289D03*
X0167621Y0026289D03*
X0167713Y0016295D03*
X0177713Y0016295D03*
X0157713Y0016295D03*
X0147713Y0016295D03*
X0147621Y0026289D03*
X0157621Y0026289D03*
X0107603Y0036283D03*
D11*
X0095095Y0036256D03*
X0085095Y0036256D03*
X0075095Y0036256D03*
X0065095Y0036256D03*
X0065095Y0046256D03*
X0075095Y0046256D03*
X0085095Y0046256D03*
X0095095Y0046256D03*
X0095095Y0026256D03*
X0085095Y0026256D03*
X0075095Y0026256D03*
X0065095Y0026256D03*
X0064859Y0016217D03*
X0074859Y0016217D03*
X0084859Y0016217D03*
X0094859Y0016217D03*
X0097438Y0151531D03*
X0107438Y0151531D03*
X0117438Y0151531D03*
X0127438Y0151531D03*
X0137438Y0151531D03*
X0147438Y0151531D03*
X0157438Y0151531D03*
X0167438Y0151531D03*
X0177438Y0151531D03*
X0177438Y0161531D03*
X0167438Y0161531D03*
X0157438Y0161531D03*
X0147438Y0161531D03*
X0137438Y0161531D03*
X0127438Y0161531D03*
X0117438Y0161531D03*
X0107438Y0161531D03*
X0097438Y0161531D03*
X0087438Y0161531D03*
X0077438Y0161531D03*
X0067438Y0161531D03*
X0067438Y0151531D03*
X0077438Y0151531D03*
X0087438Y0151531D03*
X0087438Y0171531D03*
X0077438Y0171531D03*
X0067438Y0171531D03*
X0097438Y0171531D03*
X0107438Y0171531D03*
X0117438Y0171531D03*
X0127438Y0171531D03*
X0137438Y0171531D03*
X0147438Y0171531D03*
X0157438Y0171531D03*
X0167438Y0171531D03*
X0177438Y0171531D03*
D12*
X0242867Y0166448D03*
X0249560Y0166448D03*
X0279493Y0131193D03*
X0286186Y0131193D03*
X0262733Y0059081D03*
X0262733Y0052389D03*
D13*
X0217595Y0063642D02*
X0217595Y0068791D01*
X0207595Y0068791D02*
X0207595Y0063642D01*
X0197595Y0063642D02*
X0197595Y0068791D01*
X0187595Y0068791D02*
X0187595Y0063642D01*
X0177595Y0063642D02*
X0177595Y0068791D01*
X0167595Y0068791D02*
X0167595Y0063642D01*
X0157595Y0063642D02*
X0157595Y0068791D01*
X0147595Y0068791D02*
X0147595Y0063642D01*
X0137595Y0063642D02*
X0137595Y0068791D01*
X0127595Y0068791D02*
X0127595Y0063642D01*
X0117595Y0063642D02*
X0117595Y0068791D01*
X0107595Y0068791D02*
X0107595Y0063642D01*
X0097595Y0063642D02*
X0097595Y0068791D01*
X0087595Y0068791D02*
X0087595Y0063642D01*
X0077595Y0063642D02*
X0077595Y0068791D01*
X0077595Y0123642D02*
X0077595Y0128791D01*
X0087595Y0128791D02*
X0087595Y0123642D01*
X0097595Y0123642D02*
X0097595Y0128791D01*
X0107595Y0128791D02*
X0107595Y0123642D01*
X0117595Y0123642D02*
X0117595Y0128791D01*
X0127595Y0128791D02*
X0127595Y0123642D01*
X0137595Y0123642D02*
X0137595Y0128791D01*
X0147595Y0128791D02*
X0147595Y0123642D01*
X0157595Y0123642D02*
X0157595Y0128791D01*
X0167595Y0128791D02*
X0167595Y0123642D01*
X0177595Y0123642D02*
X0177595Y0128791D01*
X0187595Y0128791D02*
X0187595Y0123642D01*
X0197595Y0123642D02*
X0197595Y0128791D01*
X0207595Y0128791D02*
X0207595Y0123642D01*
X0217595Y0123642D02*
X0217595Y0128791D01*
D14*
X0262438Y0156177D03*
X0272438Y0166177D03*
X0282438Y0156177D03*
D15*
X0279320Y0121193D03*
X0286013Y0121193D03*
X0192394Y0026173D03*
X0185701Y0026173D03*
D16*
X0259595Y0076256D02*
X0265595Y0076256D01*
X0265595Y0086256D02*
X0259595Y0086256D01*
X0259595Y0096256D02*
X0265595Y0096256D01*
D17*
X0317595Y0095390D03*
X0317595Y0109169D03*
X0317595Y0122949D03*
X0317595Y0060449D03*
X0317595Y0046669D03*
D18*
X0282584Y0026231D03*
X0272584Y0026231D03*
X0272595Y0016256D03*
X0282595Y0016256D03*
X0262595Y0016256D03*
X0262584Y0026231D03*
D19*
X0043595Y0007256D02*
X0043595Y0180256D01*
X0341595Y0180256D01*
X0341595Y0180062D01*
X0341595Y0007256D01*
X0043595Y0007256D01*
X0043595Y0010202D02*
X0062393Y0010202D01*
X0062765Y0010048D02*
X0061978Y0010374D01*
X0061240Y0010800D01*
X0060564Y0011319D01*
X0059961Y0011922D01*
X0059443Y0012598D01*
X0059017Y0013335D01*
X0058691Y0014123D01*
X0058470Y0014946D01*
X0058359Y0015790D01*
X0058359Y0016216D01*
X0064859Y0016216D01*
X0064859Y0009717D01*
X0065285Y0009717D01*
X0066130Y0009828D01*
X0066953Y0010048D01*
X0067740Y0010374D01*
X0068478Y0010800D01*
X0069154Y0011319D01*
X0069756Y0011922D01*
X0069859Y0012055D01*
X0069961Y0011922D01*
X0070564Y0011319D01*
X0071240Y0010800D01*
X0071978Y0010374D01*
X0072765Y0010048D01*
X0073588Y0009828D01*
X0074433Y0009717D01*
X0074859Y0009717D01*
X0075285Y0009717D01*
X0076130Y0009828D01*
X0076953Y0010048D01*
X0077740Y0010374D01*
X0078478Y0010800D01*
X0079154Y0011319D01*
X0079756Y0011922D01*
X0079859Y0012055D01*
X0079961Y0011922D01*
X0080564Y0011319D01*
X0081240Y0010800D01*
X0081978Y0010374D01*
X0082765Y0010048D01*
X0083588Y0009828D01*
X0084433Y0009717D01*
X0084859Y0009717D01*
X0085285Y0009717D01*
X0086130Y0009828D01*
X0086953Y0010048D01*
X0087740Y0010374D01*
X0088478Y0010800D01*
X0089154Y0011319D01*
X0089756Y0011922D01*
X0089859Y0012055D01*
X0089961Y0011922D01*
X0090564Y0011319D01*
X0091240Y0010800D01*
X0091978Y0010374D01*
X0092765Y0010048D01*
X0093588Y0009828D01*
X0094433Y0009717D01*
X0094859Y0009717D01*
X0095285Y0009717D01*
X0096130Y0009828D01*
X0096953Y0010048D01*
X0097740Y0010374D01*
X0098478Y0010800D01*
X0099154Y0011319D01*
X0099756Y0011922D01*
X0100275Y0012598D01*
X0100701Y0013335D01*
X0101027Y0014123D01*
X0101213Y0014817D01*
X0101213Y0013603D01*
X0105021Y0009795D01*
X0107713Y0009795D01*
X0107713Y0016295D01*
X0107713Y0016295D01*
X0107713Y0009795D01*
X0110406Y0009795D01*
X0112713Y0012103D01*
X0115021Y0009795D01*
X0117713Y0009795D01*
X0117713Y0016295D01*
X0117713Y0016295D01*
X0111213Y0016295D01*
X0107713Y0016295D01*
X0107713Y0016295D01*
X0117713Y0016295D01*
X0117713Y0016295D01*
X0117713Y0009795D01*
X0120406Y0009795D01*
X0122713Y0012103D01*
X0125021Y0009795D01*
X0127713Y0009795D01*
X0127713Y0016295D01*
X0127713Y0016295D01*
X0121213Y0016295D01*
X0117713Y0016295D01*
X0117713Y0016295D01*
X0127713Y0016295D01*
X0127713Y0016295D01*
X0127713Y0009795D01*
X0130406Y0009795D01*
X0132713Y0012103D01*
X0135021Y0009795D01*
X0137713Y0009795D01*
X0137713Y0016295D01*
X0137713Y0016295D01*
X0131213Y0016295D01*
X0127713Y0016295D01*
X0127713Y0016295D01*
X0137713Y0016295D01*
X0137713Y0016295D01*
X0137713Y0009795D01*
X0140406Y0009795D01*
X0142713Y0012103D01*
X0145021Y0009795D01*
X0147713Y0009795D01*
X0147713Y0016295D01*
X0147713Y0016295D01*
X0141213Y0016295D01*
X0137713Y0016295D01*
X0137713Y0016295D01*
X0147713Y0016295D01*
X0147713Y0016295D01*
X0147713Y0009795D01*
X0150406Y0009795D01*
X0152713Y0012103D01*
X0155021Y0009795D01*
X0157713Y0009795D01*
X0157713Y0016295D01*
X0157713Y0016295D01*
X0151213Y0016295D01*
X0147713Y0016295D01*
X0147713Y0016295D01*
X0157713Y0016295D01*
X0157713Y0016295D01*
X0157713Y0009795D01*
X0160406Y0009795D01*
X0162713Y0012103D01*
X0165021Y0009795D01*
X0167713Y0009795D01*
X0167713Y0016295D01*
X0167713Y0016295D01*
X0161213Y0016295D01*
X0157713Y0016295D01*
X0157713Y0016295D01*
X0167713Y0016295D01*
X0167713Y0016295D01*
X0167713Y0009795D01*
X0170406Y0009795D01*
X0172713Y0012103D01*
X0175021Y0009795D01*
X0177713Y0009795D01*
X0177713Y0016295D01*
X0177713Y0016295D01*
X0174213Y0016295D01*
X0167713Y0016295D01*
X0167713Y0016295D01*
X0177713Y0016295D01*
X0177713Y0016295D01*
X0177713Y0009795D01*
X0180406Y0009795D01*
X0184213Y0013603D01*
X0184213Y0016295D01*
X0177713Y0016295D01*
X0177713Y0016295D01*
X0184213Y0016295D01*
X0184213Y0018988D01*
X0183396Y0019805D01*
X0188742Y0019805D01*
X0190359Y0020475D01*
X0191089Y0021205D01*
X0192394Y0021205D01*
X0192394Y0026173D01*
X0192394Y0026173D01*
X0192394Y0021205D01*
X0194855Y0021205D01*
X0195435Y0021320D01*
X0195981Y0021546D01*
X0196472Y0021874D01*
X0196890Y0022292D01*
X0197218Y0022784D01*
X0197444Y0023330D01*
X0197559Y0023909D01*
X0197559Y0026173D01*
X0192394Y0026173D01*
X0192394Y0026173D01*
X0192394Y0031142D01*
X0191089Y0031142D01*
X0190359Y0031872D01*
X0188742Y0032542D01*
X0185033Y0032542D01*
X0185503Y0033011D01*
X0185503Y0039556D01*
X0183265Y0041794D01*
X0183218Y0058155D01*
X0183644Y0057729D01*
X0186208Y0056667D01*
X0188983Y0056667D01*
X0191546Y0057729D01*
X0192595Y0058778D01*
X0193644Y0057729D01*
X0196208Y0056667D01*
X0198983Y0056667D01*
X0201546Y0057729D01*
X0203508Y0059691D01*
X0203553Y0059800D01*
X0203963Y0059390D01*
X0204673Y0058874D01*
X0205455Y0058475D01*
X0206290Y0058204D01*
X0207156Y0058067D01*
X0207595Y0058067D01*
X0207595Y0066216D01*
X0207595Y0066216D01*
X0207595Y0058067D01*
X0208034Y0058067D01*
X0208901Y0058204D01*
X0209735Y0058475D01*
X0210517Y0058874D01*
X0211227Y0059390D01*
X0211637Y0059800D01*
X0211682Y0059691D01*
X0213644Y0057729D01*
X0216208Y0056667D01*
X0218983Y0056667D01*
X0221546Y0057729D01*
X0223508Y0059691D01*
X0224570Y0062254D01*
X0224570Y0070179D01*
X0223508Y0072742D01*
X0221546Y0074704D01*
X0218983Y0075766D01*
X0216208Y0075766D01*
X0213644Y0074704D01*
X0211682Y0072742D01*
X0211637Y0072633D01*
X0211227Y0073044D01*
X0210517Y0073559D01*
X0209735Y0073958D01*
X0208901Y0074229D01*
X0208034Y0074366D01*
X0207595Y0074366D01*
X0207156Y0074366D01*
X0206290Y0074229D01*
X0205455Y0073958D01*
X0204673Y0073559D01*
X0203963Y0073044D01*
X0203553Y0072633D01*
X0203508Y0072742D01*
X0201546Y0074704D01*
X0198983Y0075766D01*
X0196208Y0075766D01*
X0193644Y0074704D01*
X0192595Y0073655D01*
X0191546Y0074704D01*
X0188983Y0075766D01*
X0186208Y0075766D01*
X0183644Y0074704D01*
X0182595Y0073655D01*
X0181546Y0074704D01*
X0178983Y0075766D01*
X0176208Y0075766D01*
X0173644Y0074704D01*
X0172595Y0073655D01*
X0171546Y0074704D01*
X0168983Y0075766D01*
X0166208Y0075766D01*
X0163644Y0074704D01*
X0162643Y0073703D01*
X0162343Y0074428D01*
X0150767Y0086003D01*
X0148709Y0086856D01*
X0072935Y0086856D01*
X0075022Y0088943D01*
X0076641Y0091748D01*
X0077479Y0094876D01*
X0077479Y0098114D01*
X0076641Y0101242D01*
X0075022Y0104047D01*
X0072732Y0106337D01*
X0069927Y0107956D01*
X0066799Y0108794D01*
X0063561Y0108794D01*
X0060433Y0107956D01*
X0057628Y0106337D01*
X0055338Y0104047D01*
X0053719Y0101242D01*
X0052881Y0098114D01*
X0052881Y0094876D01*
X0053719Y0091748D01*
X0055338Y0088943D01*
X0057628Y0086653D01*
X0060433Y0085034D01*
X0062815Y0084395D01*
X0050348Y0071928D01*
X0049495Y0069870D01*
X0049495Y0037642D01*
X0050348Y0035584D01*
X0051923Y0034008D01*
X0054423Y0031508D01*
X0056481Y0030656D01*
X0058367Y0030656D01*
X0057195Y0027827D01*
X0057195Y0024684D01*
X0058398Y0021781D01*
X0059834Y0020345D01*
X0059443Y0019835D01*
X0059017Y0019098D01*
X0058691Y0018310D01*
X0058470Y0017487D01*
X0058359Y0016643D01*
X0058359Y0016217D01*
X0064859Y0016217D01*
X0074859Y0016217D01*
X0084859Y0016217D01*
X0094859Y0016217D01*
X0094859Y0016216D01*
X0094859Y0009717D01*
X0094859Y0016216D01*
X0094859Y0016216D01*
X0091359Y0016216D01*
X0084859Y0016216D01*
X0084859Y0009717D01*
X0084859Y0016216D01*
X0084859Y0016216D01*
X0084859Y0016217D01*
X0084859Y0016216D01*
X0078359Y0016216D01*
X0074859Y0016216D01*
X0074859Y0009717D01*
X0074859Y0016216D01*
X0074859Y0016216D01*
X0074859Y0016217D01*
X0074859Y0016216D01*
X0068359Y0016216D01*
X0064859Y0016216D01*
X0064859Y0016216D01*
X0064859Y0009717D01*
X0064433Y0009717D01*
X0063588Y0009828D01*
X0062765Y0010048D01*
X0064859Y0010202D02*
X0064859Y0010202D01*
X0067325Y0010202D02*
X0072393Y0010202D01*
X0074859Y0010202D02*
X0074859Y0010202D01*
X0077325Y0010202D02*
X0082393Y0010202D01*
X0084859Y0010202D02*
X0084859Y0010202D01*
X0087325Y0010202D02*
X0092393Y0010202D01*
X0094859Y0010202D02*
X0094859Y0010202D01*
X0097325Y0010202D02*
X0104614Y0010202D01*
X0107713Y0010202D02*
X0107713Y0010202D01*
X0110813Y0010202D02*
X0114614Y0010202D01*
X0117713Y0010202D02*
X0117713Y0010202D01*
X0120813Y0010202D02*
X0124614Y0010202D01*
X0127713Y0010202D02*
X0127713Y0010202D01*
X0130813Y0010202D02*
X0134614Y0010202D01*
X0137713Y0010202D02*
X0137713Y0010202D01*
X0140813Y0010202D02*
X0144614Y0010202D01*
X0147713Y0010202D02*
X0147713Y0010202D01*
X0150813Y0010202D02*
X0154614Y0010202D01*
X0157713Y0010202D02*
X0157713Y0010202D01*
X0160813Y0010202D02*
X0164614Y0010202D01*
X0167713Y0010202D02*
X0167713Y0010202D01*
X0170813Y0010202D02*
X0174614Y0010202D01*
X0177713Y0010202D02*
X0177713Y0010202D01*
X0180813Y0010202D02*
X0257759Y0010202D01*
X0258233Y0009728D02*
X0261064Y0008556D01*
X0264127Y0008556D01*
X0266957Y0009728D01*
X0268600Y0011371D01*
X0269293Y0010868D01*
X0270177Y0010417D01*
X0271120Y0010111D01*
X0272099Y0009956D01*
X0272595Y0009956D01*
X0272595Y0016256D01*
X0272595Y0016256D01*
X0272595Y0009956D01*
X0273091Y0009956D01*
X0274070Y0010111D01*
X0275013Y0010417D01*
X0275897Y0010868D01*
X0276590Y0011371D01*
X0278233Y0009728D01*
X0281064Y0008556D01*
X0284127Y0008556D01*
X0286957Y0009728D01*
X0289123Y0011894D01*
X0290295Y0014724D01*
X0290295Y0017788D01*
X0290284Y0017814D01*
X0290284Y0024684D01*
X0290295Y0024710D01*
X0290295Y0077788D01*
X0289123Y0080618D01*
X0286957Y0082784D01*
X0276957Y0092784D01*
X0274127Y0093956D01*
X0272652Y0093956D01*
X0272995Y0094784D01*
X0272995Y0097728D01*
X0271869Y0100448D01*
X0269787Y0102529D01*
X0267067Y0103656D01*
X0258123Y0103656D01*
X0255403Y0102529D01*
X0253322Y0100448D01*
X0252195Y0097728D01*
X0252195Y0094784D01*
X0253322Y0092064D01*
X0254130Y0091256D01*
X0253322Y0090448D01*
X0252195Y0087728D01*
X0252195Y0084784D01*
X0253322Y0082064D01*
X0254130Y0081256D01*
X0253322Y0080448D01*
X0252195Y0077728D01*
X0252195Y0074784D01*
X0253322Y0072064D01*
X0255403Y0069982D01*
X0257133Y0069266D01*
X0257133Y0063838D01*
X0257034Y0063739D01*
X0256364Y0062122D01*
X0256364Y0056041D01*
X0257034Y0054424D01*
X0257764Y0053694D01*
X0257764Y0052389D01*
X0262733Y0052389D01*
X0267701Y0052389D01*
X0267701Y0053694D01*
X0268432Y0054424D01*
X0269101Y0056041D01*
X0269101Y0062122D01*
X0268432Y0063739D01*
X0268333Y0063838D01*
X0268333Y0069380D01*
X0269787Y0069982D01*
X0271869Y0072064D01*
X0272995Y0074784D01*
X0272995Y0074966D01*
X0274895Y0073066D01*
X0274895Y0032104D01*
X0274059Y0032376D01*
X0273080Y0032531D01*
X0272584Y0032531D01*
X0272088Y0032531D01*
X0271109Y0032376D01*
X0270166Y0032069D01*
X0269282Y0031619D01*
X0268589Y0031115D01*
X0266946Y0032759D01*
X0264116Y0033931D01*
X0261053Y0033931D01*
X0258222Y0032759D01*
X0256056Y0030593D01*
X0254884Y0027763D01*
X0254884Y0024699D01*
X0256056Y0021869D01*
X0256688Y0021238D01*
X0256067Y0020618D01*
X0254895Y0017788D01*
X0254895Y0014724D01*
X0256067Y0011894D01*
X0258233Y0009728D01*
X0255112Y0014201D02*
X0184213Y0014201D01*
X0184213Y0018199D02*
X0255066Y0018199D01*
X0255920Y0022198D02*
X0196795Y0022198D01*
X0197559Y0026173D02*
X0192394Y0026173D01*
X0192394Y0026173D01*
X0192394Y0031142D01*
X0194855Y0031142D01*
X0195435Y0031026D01*
X0195981Y0030800D01*
X0196472Y0030472D01*
X0196890Y0030054D01*
X0197218Y0029563D01*
X0197444Y0029017D01*
X0197559Y0028437D01*
X0197559Y0026173D01*
X0197559Y0026196D02*
X0254884Y0026196D01*
X0255892Y0030195D02*
X0196749Y0030195D01*
X0192394Y0030195D02*
X0192394Y0030195D01*
X0192394Y0026196D02*
X0192394Y0026196D01*
X0192394Y0022198D02*
X0192394Y0022198D01*
X0185503Y0034193D02*
X0274895Y0034193D01*
X0272584Y0032531D02*
X0272584Y0026231D01*
X0272584Y0032531D01*
X0272584Y0030195D02*
X0272584Y0030195D01*
X0272584Y0026231D02*
X0272584Y0026231D01*
X0272595Y0014201D02*
X0272595Y0014201D01*
X0272595Y0010202D02*
X0272595Y0010202D01*
X0270839Y0010202D02*
X0267431Y0010202D01*
X0274351Y0010202D02*
X0277759Y0010202D01*
X0287431Y0010202D02*
X0319642Y0010202D01*
X0320425Y0009750D02*
X0323553Y0008912D01*
X0326792Y0008912D01*
X0329920Y0009750D01*
X0332724Y0011370D01*
X0335014Y0013660D01*
X0336634Y0016464D01*
X0337472Y0019592D01*
X0337472Y0022831D01*
X0336634Y0025959D01*
X0335014Y0028763D01*
X0332724Y0031053D01*
X0329920Y0032672D01*
X0326792Y0033511D01*
X0323553Y0033511D01*
X0320425Y0032672D01*
X0317621Y0031053D01*
X0315331Y0028763D01*
X0313711Y0025959D01*
X0312873Y0022831D01*
X0312873Y0019592D01*
X0313711Y0016464D01*
X0315331Y0013660D01*
X0317621Y0011370D01*
X0320425Y0009750D01*
X0315018Y0014201D02*
X0290078Y0014201D01*
X0290284Y0018199D02*
X0313246Y0018199D01*
X0312873Y0022198D02*
X0290284Y0022198D01*
X0290295Y0026196D02*
X0313849Y0026196D01*
X0316762Y0030195D02*
X0290295Y0030195D01*
X0290295Y0034193D02*
X0341595Y0034193D01*
X0341595Y0030195D02*
X0333583Y0030195D01*
X0336496Y0026196D02*
X0341595Y0026196D01*
X0341595Y0022198D02*
X0337472Y0022198D01*
X0337098Y0018199D02*
X0341595Y0018199D01*
X0341595Y0014201D02*
X0335327Y0014201D01*
X0330703Y0010202D02*
X0341595Y0010202D01*
X0341595Y0038192D02*
X0290295Y0038192D01*
X0290295Y0042190D02*
X0311830Y0042190D01*
X0312095Y0041846D02*
X0312772Y0041169D01*
X0313531Y0040587D01*
X0314359Y0040108D01*
X0315244Y0039742D01*
X0316168Y0039494D01*
X0317117Y0039369D01*
X0317595Y0039369D01*
X0317595Y0046669D01*
X0317595Y0046669D01*
X0310295Y0046669D01*
X0310295Y0046191D01*
X0310420Y0045242D01*
X0310668Y0044318D01*
X0311034Y0043434D01*
X0311512Y0042605D01*
X0312095Y0041846D01*
X0310295Y0046189D02*
X0290295Y0046189D01*
X0290295Y0050187D02*
X0311197Y0050187D01*
X0311034Y0049905D02*
X0311512Y0050734D01*
X0312095Y0051493D01*
X0312772Y0052169D01*
X0313500Y0052728D01*
X0312667Y0053073D01*
X0310220Y0055521D01*
X0308895Y0058718D01*
X0308895Y0062179D01*
X0310220Y0065377D01*
X0312667Y0067824D01*
X0315865Y0069149D01*
X0319326Y0069149D01*
X0322523Y0067824D01*
X0324971Y0065377D01*
X0326295Y0062179D01*
X0326295Y0058718D01*
X0324971Y0055521D01*
X0322523Y0053073D01*
X0321690Y0052728D01*
X0322419Y0052169D01*
X0323095Y0051493D01*
X0323678Y0050734D01*
X0324156Y0049905D01*
X0324523Y0049021D01*
X0324770Y0048097D01*
X0324895Y0047148D01*
X0324895Y0046669D01*
X0317595Y0046669D01*
X0317595Y0046669D01*
X0317595Y0039369D01*
X0318074Y0039369D01*
X0319022Y0039494D01*
X0319947Y0039742D01*
X0320831Y0040108D01*
X0321659Y0040587D01*
X0322419Y0041169D01*
X0323095Y0041846D01*
X0323678Y0042605D01*
X0324156Y0043434D01*
X0324523Y0044318D01*
X0324770Y0045242D01*
X0324895Y0046191D01*
X0324895Y0046669D01*
X0317595Y0046669D01*
X0317595Y0046669D01*
X0310295Y0046669D01*
X0310295Y0047148D01*
X0310420Y0048097D01*
X0310668Y0049021D01*
X0311034Y0049905D01*
X0311554Y0054186D02*
X0290295Y0054186D01*
X0290295Y0058184D02*
X0309116Y0058184D01*
X0308897Y0062183D02*
X0290295Y0062183D01*
X0290295Y0066181D02*
X0311024Y0066181D01*
X0324166Y0066181D02*
X0341595Y0066181D01*
X0341595Y0070180D02*
X0290295Y0070180D01*
X0290295Y0074178D02*
X0341595Y0074178D01*
X0341595Y0078177D02*
X0290134Y0078177D01*
X0287565Y0082176D02*
X0341595Y0082176D01*
X0341595Y0086174D02*
X0283566Y0086174D01*
X0279568Y0090173D02*
X0310509Y0090173D01*
X0310220Y0090462D02*
X0312667Y0088014D01*
X0315865Y0086690D01*
X0319326Y0086690D01*
X0322523Y0088014D01*
X0324971Y0090462D01*
X0326295Y0093659D01*
X0326295Y0097120D01*
X0324971Y0100318D01*
X0323009Y0102280D01*
X0324971Y0104241D01*
X0326295Y0107439D01*
X0326295Y0110900D01*
X0324971Y0114097D01*
X0322523Y0116545D01*
X0321690Y0116890D01*
X0322419Y0117449D01*
X0323095Y0118125D01*
X0323678Y0118884D01*
X0324156Y0119713D01*
X0324523Y0120597D01*
X0324770Y0121522D01*
X0324895Y0122470D01*
X0324895Y0122949D01*
X0324895Y0123427D01*
X0324770Y0124376D01*
X0324523Y0125300D01*
X0324156Y0126184D01*
X0323678Y0127013D01*
X0323095Y0127772D01*
X0322419Y0128449D01*
X0321659Y0129032D01*
X0320831Y0129510D01*
X0319947Y0129876D01*
X0319022Y0130124D01*
X0318074Y0130249D01*
X0317595Y0130249D01*
X0317117Y0130249D01*
X0316168Y0130124D01*
X0315244Y0129876D01*
X0314359Y0129510D01*
X0313531Y0129032D01*
X0312772Y0128449D01*
X0312095Y0127772D01*
X0311512Y0127013D01*
X0311034Y0126184D01*
X0310668Y0125300D01*
X0310420Y0124376D01*
X0310295Y0123427D01*
X0310295Y0122949D01*
X0317595Y0122949D01*
X0317595Y0130249D01*
X0317595Y0122949D01*
X0317595Y0122949D01*
X0317595Y0122949D01*
X0310295Y0122949D01*
X0310295Y0122470D01*
X0310420Y0121522D01*
X0310668Y0120597D01*
X0311034Y0119713D01*
X0311512Y0118884D01*
X0312095Y0118125D01*
X0312772Y0117449D01*
X0313500Y0116890D01*
X0312667Y0116545D01*
X0311291Y0115169D01*
X0292167Y0115169D01*
X0292013Y0115323D01*
X0292013Y0116984D01*
X0292579Y0118349D01*
X0292579Y0124037D01*
X0291909Y0125654D01*
X0291613Y0125949D01*
X0291613Y0126264D01*
X0291884Y0126535D01*
X0292554Y0128152D01*
X0292554Y0134233D01*
X0291884Y0135851D01*
X0290647Y0137088D01*
X0289029Y0137758D01*
X0283342Y0137758D01*
X0282839Y0137550D01*
X0282336Y0137758D01*
X0276649Y0137758D01*
X0275032Y0137088D01*
X0274799Y0136856D01*
X0273935Y0136856D01*
X0268038Y0139850D01*
X0268038Y0150888D01*
X0270138Y0152988D01*
X0270138Y0158477D01*
X0274738Y0158477D01*
X0274738Y0152988D01*
X0279248Y0148477D01*
X0285627Y0148477D01*
X0290138Y0152988D01*
X0290138Y0159367D01*
X0285627Y0163877D01*
X0280138Y0163877D01*
X0280138Y0169367D01*
X0275627Y0173877D01*
X0269248Y0173877D01*
X0267419Y0172048D01*
X0254316Y0172048D01*
X0254021Y0172344D01*
X0252403Y0173013D01*
X0246716Y0173013D01*
X0245099Y0172344D01*
X0244369Y0171613D01*
X0242867Y0171613D01*
X0242867Y0166448D01*
X0242867Y0161283D01*
X0244369Y0161283D01*
X0245099Y0160553D01*
X0246716Y0159883D01*
X0252403Y0159883D01*
X0254021Y0160553D01*
X0254316Y0160848D01*
X0256219Y0160848D01*
X0254738Y0159367D01*
X0254738Y0152988D01*
X0256838Y0150888D01*
X0256838Y0136629D01*
X0256768Y0135734D01*
X0256838Y0135522D01*
X0256838Y0135299D01*
X0257181Y0134470D01*
X0257460Y0133616D01*
X0257605Y0133447D01*
X0257690Y0133241D01*
X0258325Y0132606D01*
X0258909Y0131924D01*
X0259108Y0131824D01*
X0259266Y0131666D01*
X0260095Y0131322D01*
X0269265Y0126666D01*
X0269423Y0126508D01*
X0270252Y0126165D01*
X0271053Y0125758D01*
X0271275Y0125741D01*
X0271481Y0125656D01*
X0272379Y0125656D01*
X0273274Y0125587D01*
X0273486Y0125656D01*
X0274673Y0125656D01*
X0275032Y0125297D01*
X0275044Y0125293D01*
X0274825Y0125074D01*
X0274496Y0124582D01*
X0274270Y0124036D01*
X0274155Y0123457D01*
X0274155Y0121193D01*
X0279320Y0121193D01*
X0279320Y0121193D01*
X0274155Y0121193D01*
X0274155Y0118929D01*
X0274270Y0118349D01*
X0274496Y0117803D01*
X0274825Y0117312D01*
X0275243Y0116894D01*
X0275734Y0116566D01*
X0276280Y0116340D01*
X0276859Y0116224D01*
X0279320Y0116224D01*
X0279320Y0121193D01*
X0279320Y0121193D01*
X0279320Y0116224D01*
X0280013Y0116224D01*
X0280013Y0111644D01*
X0280927Y0109439D01*
X0282615Y0107751D01*
X0286283Y0104083D01*
X0288488Y0103169D01*
X0311291Y0103169D01*
X0312181Y0102280D01*
X0310220Y0100318D01*
X0308895Y0097120D01*
X0308895Y0093659D01*
X0310220Y0090462D01*
X0308895Y0094171D02*
X0272741Y0094171D01*
X0272812Y0098170D02*
X0309330Y0098170D01*
X0312070Y0102168D02*
X0270148Y0102168D01*
X0280626Y0110165D02*
X0043595Y0110165D01*
X0043595Y0106167D02*
X0057458Y0106167D01*
X0054253Y0102168D02*
X0043595Y0102168D01*
X0043595Y0098170D02*
X0052896Y0098170D01*
X0053070Y0094171D02*
X0043595Y0094171D01*
X0043595Y0090173D02*
X0054628Y0090173D01*
X0058458Y0086174D02*
X0043595Y0086174D01*
X0043595Y0082176D02*
X0060595Y0082176D01*
X0056597Y0078177D02*
X0043595Y0078177D01*
X0043595Y0074178D02*
X0052598Y0074178D01*
X0049624Y0070180D02*
X0043595Y0070180D01*
X0043595Y0066181D02*
X0049495Y0066181D01*
X0049495Y0062183D02*
X0043595Y0062183D01*
X0043595Y0058184D02*
X0049495Y0058184D01*
X0049495Y0054186D02*
X0043595Y0054186D01*
X0043595Y0050187D02*
X0049495Y0050187D01*
X0049495Y0046189D02*
X0043595Y0046189D01*
X0043595Y0042190D02*
X0049495Y0042190D01*
X0049495Y0038192D02*
X0043595Y0038192D01*
X0043595Y0034193D02*
X0051738Y0034193D01*
X0058176Y0030195D02*
X0043595Y0030195D01*
X0043595Y0026196D02*
X0057195Y0026196D01*
X0058225Y0022198D02*
X0043595Y0022198D01*
X0043595Y0018199D02*
X0058661Y0018199D01*
X0058670Y0014201D02*
X0043595Y0014201D01*
X0064859Y0014201D02*
X0064859Y0014201D01*
X0064859Y0016216D02*
X0064859Y0016217D01*
X0064859Y0016216D01*
X0074859Y0014201D02*
X0074859Y0014201D01*
X0084859Y0014201D02*
X0084859Y0014201D01*
X0094859Y0014201D02*
X0094859Y0014201D01*
X0101048Y0014201D02*
X0101213Y0014201D01*
X0107713Y0014201D02*
X0107713Y0014201D01*
X0117713Y0014201D02*
X0117713Y0014201D01*
X0127713Y0014201D02*
X0127713Y0014201D01*
X0137713Y0014201D02*
X0137713Y0014201D01*
X0147713Y0014201D02*
X0147713Y0014201D01*
X0157713Y0014201D02*
X0157713Y0014201D01*
X0167713Y0014201D02*
X0167713Y0014201D01*
X0177713Y0014201D02*
X0177713Y0014201D01*
X0185503Y0038192D02*
X0274895Y0038192D01*
X0274895Y0042190D02*
X0183264Y0042190D01*
X0183252Y0046189D02*
X0274895Y0046189D01*
X0267586Y0049348D02*
X0267701Y0049928D01*
X0267701Y0052388D01*
X0262733Y0052388D01*
X0262733Y0047223D01*
X0264997Y0047223D01*
X0265577Y0047339D01*
X0266122Y0047565D01*
X0266614Y0047893D01*
X0267032Y0048311D01*
X0267360Y0048802D01*
X0267586Y0049348D01*
X0267701Y0050187D02*
X0274895Y0050187D01*
X0274895Y0054186D02*
X0268194Y0054186D01*
X0269101Y0058184D02*
X0274895Y0058184D01*
X0274895Y0062183D02*
X0269076Y0062183D01*
X0268333Y0066181D02*
X0274895Y0066181D01*
X0274895Y0070180D02*
X0269984Y0070180D01*
X0272744Y0074178D02*
X0273783Y0074178D01*
X0257133Y0066181D02*
X0224570Y0066181D01*
X0224569Y0070180D02*
X0255206Y0070180D01*
X0252446Y0074178D02*
X0222072Y0074178D01*
X0213118Y0074178D02*
X0209056Y0074178D01*
X0207595Y0074178D02*
X0207595Y0074178D01*
X0207595Y0074366D02*
X0207595Y0066217D01*
X0207595Y0074366D01*
X0206135Y0074178D02*
X0202072Y0074178D01*
X0207595Y0070180D02*
X0207595Y0070180D01*
X0207595Y0066217D02*
X0207595Y0066217D01*
X0207595Y0066181D02*
X0207595Y0066181D01*
X0207595Y0062183D02*
X0207595Y0062183D01*
X0207595Y0058184D02*
X0207595Y0058184D01*
X0206414Y0058184D02*
X0202002Y0058184D01*
X0208776Y0058184D02*
X0213189Y0058184D01*
X0222002Y0058184D02*
X0256364Y0058184D01*
X0256390Y0062183D02*
X0224540Y0062183D01*
X0193189Y0058184D02*
X0192002Y0058184D01*
X0183229Y0054186D02*
X0257272Y0054186D01*
X0257764Y0052388D02*
X0257764Y0049928D01*
X0257880Y0049348D01*
X0258106Y0048802D01*
X0258434Y0048311D01*
X0258852Y0047893D01*
X0259343Y0047565D01*
X0259889Y0047339D01*
X0260469Y0047223D01*
X0262733Y0047223D01*
X0262733Y0052388D01*
X0262733Y0052388D01*
X0262733Y0052389D01*
X0262733Y0052388D01*
X0257764Y0052388D01*
X0257764Y0050187D02*
X0183241Y0050187D01*
X0183118Y0074178D02*
X0182072Y0074178D01*
X0173118Y0074178D02*
X0172072Y0074178D01*
X0163118Y0074178D02*
X0162446Y0074178D01*
X0158594Y0078177D02*
X0252381Y0078177D01*
X0253276Y0082176D02*
X0154595Y0082176D01*
X0150355Y0086174D02*
X0252195Y0086174D01*
X0253208Y0090173D02*
X0075732Y0090173D01*
X0077290Y0094171D02*
X0252449Y0094171D01*
X0252378Y0098170D02*
X0077464Y0098170D01*
X0076106Y0102168D02*
X0255042Y0102168D01*
X0274348Y0118162D02*
X0221979Y0118162D01*
X0221546Y0117729D02*
X0223508Y0119691D01*
X0224570Y0122254D01*
X0224570Y0130179D01*
X0223508Y0132742D01*
X0221546Y0134704D01*
X0218983Y0135766D01*
X0216208Y0135766D01*
X0213644Y0134704D01*
X0212595Y0133655D01*
X0211546Y0134704D01*
X0208983Y0135766D01*
X0206208Y0135766D01*
X0203644Y0134704D01*
X0202595Y0133655D01*
X0201546Y0134704D01*
X0198983Y0135766D01*
X0196208Y0135766D01*
X0193644Y0134704D01*
X0191682Y0132742D01*
X0191637Y0132633D01*
X0191227Y0133044D01*
X0190517Y0133559D01*
X0189735Y0133958D01*
X0188901Y0134229D01*
X0188034Y0134366D01*
X0187595Y0134366D01*
X0187156Y0134366D01*
X0186290Y0134229D01*
X0185455Y0133958D01*
X0184673Y0133559D01*
X0183963Y0133044D01*
X0183553Y0132633D01*
X0183508Y0132742D01*
X0181546Y0134704D01*
X0178983Y0135766D01*
X0176208Y0135766D01*
X0173644Y0134704D01*
X0172595Y0133655D01*
X0171546Y0134704D01*
X0168983Y0135766D01*
X0166208Y0135766D01*
X0163644Y0134704D01*
X0162595Y0133655D01*
X0161546Y0134704D01*
X0158983Y0135766D01*
X0156208Y0135766D01*
X0153644Y0134704D01*
X0152595Y0133655D01*
X0151546Y0134704D01*
X0148983Y0135766D01*
X0146208Y0135766D01*
X0143644Y0134704D01*
X0142595Y0133655D01*
X0141546Y0134704D01*
X0138983Y0135766D01*
X0136208Y0135766D01*
X0133644Y0134704D01*
X0132595Y0133655D01*
X0131546Y0134704D01*
X0128983Y0135766D01*
X0126208Y0135766D01*
X0123644Y0134704D01*
X0122595Y0133655D01*
X0121546Y0134704D01*
X0118983Y0135766D01*
X0116208Y0135766D01*
X0113644Y0134704D01*
X0112595Y0133655D01*
X0111546Y0134704D01*
X0108983Y0135766D01*
X0106208Y0135766D01*
X0103644Y0134704D01*
X0102595Y0133655D01*
X0101546Y0134704D01*
X0098983Y0135766D01*
X0096208Y0135766D01*
X0093644Y0134704D01*
X0092595Y0133655D01*
X0091546Y0134704D01*
X0088983Y0135766D01*
X0086208Y0135766D01*
X0083644Y0134704D01*
X0082595Y0133655D01*
X0081546Y0134704D01*
X0078983Y0135766D01*
X0076208Y0135766D01*
X0073644Y0134704D01*
X0071682Y0132742D01*
X0070620Y0130179D01*
X0070620Y0122254D01*
X0071682Y0119691D01*
X0073644Y0117729D01*
X0076208Y0116667D01*
X0078983Y0116667D01*
X0081546Y0117729D01*
X0082595Y0118778D01*
X0083644Y0117729D01*
X0086208Y0116667D01*
X0088983Y0116667D01*
X0091546Y0117729D01*
X0092595Y0118778D01*
X0093644Y0117729D01*
X0096208Y0116667D01*
X0098983Y0116667D01*
X0101546Y0117729D01*
X0102595Y0118778D01*
X0103644Y0117729D01*
X0106208Y0116667D01*
X0108983Y0116667D01*
X0111546Y0117729D01*
X0112595Y0118778D01*
X0113644Y0117729D01*
X0116208Y0116667D01*
X0118983Y0116667D01*
X0121546Y0117729D01*
X0122595Y0118778D01*
X0123644Y0117729D01*
X0126208Y0116667D01*
X0128983Y0116667D01*
X0131546Y0117729D01*
X0132595Y0118778D01*
X0133644Y0117729D01*
X0136208Y0116667D01*
X0138983Y0116667D01*
X0141546Y0117729D01*
X0142595Y0118778D01*
X0143644Y0117729D01*
X0146208Y0116667D01*
X0148983Y0116667D01*
X0151546Y0117729D01*
X0152595Y0118778D01*
X0153644Y0117729D01*
X0156208Y0116667D01*
X0158983Y0116667D01*
X0161546Y0117729D01*
X0162595Y0118778D01*
X0163644Y0117729D01*
X0166208Y0116667D01*
X0168983Y0116667D01*
X0171546Y0117729D01*
X0172595Y0118778D01*
X0173644Y0117729D01*
X0176208Y0116667D01*
X0178983Y0116667D01*
X0181546Y0117729D01*
X0183508Y0119691D01*
X0183553Y0119800D01*
X0183963Y0119390D01*
X0184673Y0118874D01*
X0185455Y0118475D01*
X0186290Y0118204D01*
X0187156Y0118067D01*
X0187595Y0118067D01*
X0187595Y0126216D01*
X0187595Y0126216D01*
X0187595Y0118067D01*
X0188034Y0118067D01*
X0188901Y0118204D01*
X0189735Y0118475D01*
X0190517Y0118874D01*
X0191227Y0119390D01*
X0191637Y0119800D01*
X0191682Y0119691D01*
X0193644Y0117729D01*
X0196208Y0116667D01*
X0198983Y0116667D01*
X0201546Y0117729D01*
X0202595Y0118778D01*
X0203644Y0117729D01*
X0206208Y0116667D01*
X0208983Y0116667D01*
X0211546Y0117729D01*
X0212595Y0118778D01*
X0213644Y0117729D01*
X0216208Y0116667D01*
X0218983Y0116667D01*
X0221546Y0117729D01*
X0224531Y0122161D02*
X0274155Y0122161D01*
X0270264Y0126159D02*
X0224570Y0126159D01*
X0224570Y0130158D02*
X0262389Y0130158D01*
X0257284Y0134156D02*
X0222094Y0134156D01*
X0213096Y0134156D02*
X0212094Y0134156D01*
X0203096Y0134156D02*
X0202094Y0134156D01*
X0193096Y0134156D02*
X0189124Y0134156D01*
X0187595Y0134156D02*
X0187595Y0134156D01*
X0187595Y0134366D02*
X0187595Y0126217D01*
X0187595Y0134366D01*
X0186066Y0134156D02*
X0182094Y0134156D01*
X0187595Y0130158D02*
X0187595Y0130158D01*
X0187595Y0126217D02*
X0187595Y0126217D01*
X0187595Y0126159D02*
X0187595Y0126159D01*
X0187595Y0122161D02*
X0187595Y0122161D01*
X0187595Y0118162D02*
X0187595Y0118162D01*
X0186555Y0118162D02*
X0181979Y0118162D01*
X0188635Y0118162D02*
X0193211Y0118162D01*
X0201979Y0118162D02*
X0203211Y0118162D01*
X0211979Y0118162D02*
X0213211Y0118162D01*
X0173211Y0118162D02*
X0171979Y0118162D01*
X0163211Y0118162D02*
X0161979Y0118162D01*
X0153211Y0118162D02*
X0151979Y0118162D01*
X0143211Y0118162D02*
X0141979Y0118162D01*
X0133211Y0118162D02*
X0131979Y0118162D01*
X0123211Y0118162D02*
X0121979Y0118162D01*
X0113211Y0118162D02*
X0111979Y0118162D01*
X0103211Y0118162D02*
X0101979Y0118162D01*
X0093211Y0118162D02*
X0091979Y0118162D01*
X0083211Y0118162D02*
X0081979Y0118162D01*
X0073211Y0118162D02*
X0043595Y0118162D01*
X0043595Y0114164D02*
X0280013Y0114164D01*
X0279320Y0118162D02*
X0279320Y0118162D01*
X0291613Y0126159D02*
X0311023Y0126159D01*
X0310336Y0122161D02*
X0292579Y0122161D01*
X0292501Y0118162D02*
X0312067Y0118162D01*
X0317595Y0122949D02*
X0317595Y0122949D01*
X0324895Y0122949D01*
X0317595Y0122949D01*
X0317595Y0126159D02*
X0317595Y0126159D01*
X0324167Y0126159D02*
X0341595Y0126159D01*
X0341595Y0122161D02*
X0324854Y0122161D01*
X0323124Y0118162D02*
X0341595Y0118162D01*
X0341595Y0114164D02*
X0324904Y0114164D01*
X0326295Y0110165D02*
X0341595Y0110165D01*
X0341595Y0106167D02*
X0325768Y0106167D01*
X0323120Y0102168D02*
X0341595Y0102168D01*
X0341595Y0098170D02*
X0325861Y0098170D01*
X0326295Y0094171D02*
X0341595Y0094171D01*
X0341595Y0090173D02*
X0324682Y0090173D01*
X0284199Y0106167D02*
X0072902Y0106167D01*
X0070659Y0122161D02*
X0043595Y0122161D01*
X0043595Y0126159D02*
X0070620Y0126159D01*
X0070620Y0130158D02*
X0043595Y0130158D01*
X0043595Y0134156D02*
X0073096Y0134156D01*
X0082094Y0134156D02*
X0083096Y0134156D01*
X0092094Y0134156D02*
X0093096Y0134156D01*
X0102094Y0134156D02*
X0103096Y0134156D01*
X0112094Y0134156D02*
X0113096Y0134156D01*
X0122094Y0134156D02*
X0123096Y0134156D01*
X0132094Y0134156D02*
X0133096Y0134156D01*
X0142094Y0134156D02*
X0143096Y0134156D01*
X0152094Y0134156D02*
X0153096Y0134156D01*
X0162094Y0134156D02*
X0163096Y0134156D01*
X0172094Y0134156D02*
X0173096Y0134156D01*
X0175866Y0143631D02*
X0172963Y0144834D01*
X0172438Y0145359D01*
X0171913Y0144834D01*
X0169009Y0143631D01*
X0165866Y0143631D01*
X0162963Y0144834D01*
X0162438Y0145359D01*
X0161913Y0144834D01*
X0159009Y0143631D01*
X0155866Y0143631D01*
X0152963Y0144834D01*
X0152438Y0145359D01*
X0151913Y0144834D01*
X0149009Y0143631D01*
X0145866Y0143631D01*
X0142963Y0144834D01*
X0142438Y0145359D01*
X0141913Y0144834D01*
X0139009Y0143631D01*
X0135866Y0143631D01*
X0132963Y0144834D01*
X0132438Y0145359D01*
X0131913Y0144834D01*
X0129009Y0143631D01*
X0125866Y0143631D01*
X0122963Y0144834D01*
X0122438Y0145359D01*
X0121913Y0144834D01*
X0119009Y0143631D01*
X0115866Y0143631D01*
X0112963Y0144834D01*
X0112438Y0145359D01*
X0111913Y0144834D01*
X0109009Y0143631D01*
X0105866Y0143631D01*
X0102963Y0144834D01*
X0102438Y0145359D01*
X0101913Y0144834D01*
X0099009Y0143631D01*
X0095866Y0143631D01*
X0092963Y0144834D01*
X0092438Y0145359D01*
X0091913Y0144834D01*
X0089009Y0143631D01*
X0085866Y0143631D01*
X0082963Y0144834D01*
X0082438Y0145359D01*
X0081913Y0144834D01*
X0079009Y0143631D01*
X0075866Y0143631D01*
X0072963Y0144834D01*
X0072438Y0145359D01*
X0071913Y0144834D01*
X0069009Y0143631D01*
X0065866Y0143631D01*
X0062963Y0144834D01*
X0060740Y0147056D01*
X0059538Y0149960D01*
X0059538Y0153103D01*
X0060740Y0156006D01*
X0061265Y0156531D01*
X0060740Y0157056D01*
X0059538Y0159960D01*
X0059538Y0163103D01*
X0060740Y0166006D01*
X0062293Y0167559D01*
X0062022Y0167913D01*
X0061595Y0168650D01*
X0061269Y0169438D01*
X0061049Y0170261D01*
X0060938Y0171105D01*
X0060938Y0171531D01*
X0067438Y0171531D01*
X0067438Y0171532D01*
X0067438Y0171532D01*
X0067438Y0178031D01*
X0067864Y0178031D01*
X0068708Y0177920D01*
X0069531Y0177700D01*
X0070319Y0177374D01*
X0071057Y0176948D01*
X0071733Y0176429D01*
X0072335Y0175826D01*
X0072438Y0175693D01*
X0072540Y0175826D01*
X0073143Y0176429D01*
X0073819Y0176948D01*
X0074557Y0177374D01*
X0075344Y0177700D01*
X0076167Y0177920D01*
X0077012Y0178031D01*
X0077438Y0178031D01*
X0077438Y0171532D01*
X0077438Y0171532D01*
X0087438Y0171532D01*
X0087438Y0171532D01*
X0087438Y0178031D01*
X0087864Y0178031D01*
X0088708Y0177920D01*
X0089531Y0177700D01*
X0090319Y0177374D01*
X0091057Y0176948D01*
X0091733Y0176429D01*
X0092335Y0175826D01*
X0092438Y0175693D01*
X0092540Y0175826D01*
X0093143Y0176429D01*
X0093819Y0176948D01*
X0094557Y0177374D01*
X0095344Y0177700D01*
X0096167Y0177920D01*
X0097012Y0178031D01*
X0097438Y0178031D01*
X0097438Y0171532D01*
X0097438Y0171532D01*
X0107438Y0171532D01*
X0107438Y0171532D01*
X0107438Y0178031D01*
X0107864Y0178031D01*
X0108708Y0177920D01*
X0109531Y0177700D01*
X0110319Y0177374D01*
X0111057Y0176948D01*
X0111733Y0176429D01*
X0112335Y0175826D01*
X0112438Y0175693D01*
X0112540Y0175826D01*
X0113143Y0176429D01*
X0113819Y0176948D01*
X0114557Y0177374D01*
X0115344Y0177700D01*
X0116167Y0177920D01*
X0117012Y0178031D01*
X0117438Y0178031D01*
X0117438Y0171532D01*
X0117438Y0171532D01*
X0127438Y0171532D01*
X0127438Y0171532D01*
X0127438Y0178031D01*
X0127864Y0178031D01*
X0128708Y0177920D01*
X0129531Y0177700D01*
X0130319Y0177374D01*
X0131057Y0176948D01*
X0131733Y0176429D01*
X0132335Y0175826D01*
X0132438Y0175693D01*
X0132540Y0175826D01*
X0133143Y0176429D01*
X0133819Y0176948D01*
X0134557Y0177374D01*
X0135344Y0177700D01*
X0136167Y0177920D01*
X0137012Y0178031D01*
X0137438Y0178031D01*
X0137438Y0171532D01*
X0137438Y0171532D01*
X0147438Y0171532D01*
X0147438Y0171532D01*
X0147438Y0178031D01*
X0147864Y0178031D01*
X0148708Y0177920D01*
X0149531Y0177700D01*
X0150319Y0177374D01*
X0151057Y0176948D01*
X0151733Y0176429D01*
X0152335Y0175826D01*
X0152438Y0175693D01*
X0152540Y0175826D01*
X0153143Y0176429D01*
X0153819Y0176948D01*
X0154557Y0177374D01*
X0155344Y0177700D01*
X0156167Y0177920D01*
X0157012Y0178031D01*
X0157438Y0178031D01*
X0157438Y0171532D01*
X0157438Y0171532D01*
X0167438Y0171532D01*
X0167438Y0171532D01*
X0167438Y0178031D01*
X0167864Y0178031D01*
X0168708Y0177920D01*
X0169531Y0177700D01*
X0170319Y0177374D01*
X0171057Y0176948D01*
X0171733Y0176429D01*
X0172335Y0175826D01*
X0172438Y0175693D01*
X0172540Y0175826D01*
X0173143Y0176429D01*
X0173819Y0176948D01*
X0174557Y0177374D01*
X0175344Y0177700D01*
X0176167Y0177920D01*
X0177012Y0178031D01*
X0177438Y0178031D01*
X0177438Y0171532D01*
X0177438Y0171532D01*
X0183938Y0171532D01*
X0183938Y0171958D01*
X0183826Y0172802D01*
X0183606Y0173625D01*
X0183280Y0174413D01*
X0182854Y0175150D01*
X0182335Y0175826D01*
X0181733Y0176429D01*
X0181057Y0176948D01*
X0180319Y0177374D01*
X0179531Y0177700D01*
X0178708Y0177920D01*
X0177864Y0178031D01*
X0177438Y0178031D01*
X0177438Y0171532D01*
X0177438Y0171531D01*
X0183938Y0171531D01*
X0183938Y0171105D01*
X0183826Y0170261D01*
X0183606Y0169438D01*
X0183280Y0168650D01*
X0182854Y0167913D01*
X0182582Y0167559D01*
X0184135Y0166006D01*
X0185338Y0163103D01*
X0185338Y0159960D01*
X0184135Y0157056D01*
X0183610Y0156531D01*
X0184135Y0156006D01*
X0185338Y0153103D01*
X0185338Y0149960D01*
X0184135Y0147056D01*
X0181913Y0144834D01*
X0179009Y0143631D01*
X0175866Y0143631D01*
X0183230Y0146152D02*
X0256838Y0146152D01*
X0256838Y0150150D02*
X0185338Y0150150D01*
X0184904Y0154149D02*
X0254738Y0154149D01*
X0254738Y0158147D02*
X0184587Y0158147D01*
X0185338Y0162146D02*
X0238793Y0162146D01*
X0238986Y0161952D02*
X0239477Y0161624D01*
X0240023Y0161398D01*
X0240603Y0161283D01*
X0242867Y0161283D01*
X0242867Y0166448D01*
X0242867Y0166448D01*
X0242867Y0166448D01*
X0242867Y0171613D01*
X0240603Y0171613D01*
X0240023Y0171498D01*
X0239477Y0171272D01*
X0238986Y0170944D01*
X0238568Y0170526D01*
X0238240Y0170034D01*
X0238014Y0169488D01*
X0237898Y0168909D01*
X0237898Y0166448D01*
X0237898Y0163987D01*
X0238014Y0163408D01*
X0238240Y0162862D01*
X0238568Y0162370D01*
X0238986Y0161952D01*
X0242867Y0162146D02*
X0242867Y0162146D01*
X0242867Y0166144D02*
X0242867Y0166144D01*
X0242867Y0166448D02*
X0237898Y0166448D01*
X0242867Y0166448D01*
X0242867Y0166448D01*
X0242867Y0170143D02*
X0242867Y0170143D01*
X0238312Y0170143D02*
X0183795Y0170143D01*
X0183392Y0174141D02*
X0315711Y0174141D01*
X0315342Y0173772D02*
X0313723Y0170967D01*
X0312885Y0167839D01*
X0312885Y0164601D01*
X0313723Y0161473D01*
X0315342Y0158668D01*
X0317632Y0156378D01*
X0320436Y0154759D01*
X0323564Y0153921D01*
X0326803Y0153921D01*
X0329931Y0154759D01*
X0332736Y0156378D01*
X0335026Y0158668D01*
X0336645Y0161473D01*
X0337483Y0164601D01*
X0337483Y0167839D01*
X0336645Y0170967D01*
X0335026Y0173772D01*
X0332736Y0176062D01*
X0329931Y0177681D01*
X0326803Y0178519D01*
X0323564Y0178519D01*
X0320436Y0177681D01*
X0317632Y0176062D01*
X0315342Y0173772D01*
X0313502Y0170143D02*
X0279361Y0170143D01*
X0280138Y0166144D02*
X0312885Y0166144D01*
X0313542Y0162146D02*
X0287359Y0162146D01*
X0290138Y0158147D02*
X0315863Y0158147D01*
X0322713Y0154149D02*
X0290138Y0154149D01*
X0287300Y0150150D02*
X0341595Y0150150D01*
X0341595Y0146152D02*
X0268038Y0146152D01*
X0268038Y0150150D02*
X0277575Y0150150D01*
X0274738Y0154149D02*
X0270138Y0154149D01*
X0270138Y0158147D02*
X0274738Y0158147D01*
X0268038Y0142153D02*
X0341595Y0142153D01*
X0341595Y0138155D02*
X0271378Y0138155D01*
X0256838Y0138155D02*
X0043595Y0138155D01*
X0043595Y0142153D02*
X0256838Y0142153D01*
X0237898Y0166144D02*
X0183997Y0166144D01*
X0177438Y0171531D02*
X0170938Y0171531D01*
X0167438Y0171531D01*
X0167438Y0171532D01*
X0177438Y0171532D01*
X0177438Y0171531D01*
X0177438Y0174141D02*
X0177438Y0174141D01*
X0167438Y0174141D02*
X0167438Y0174141D01*
X0167438Y0171532D02*
X0167438Y0178031D01*
X0167012Y0178031D01*
X0166167Y0177920D01*
X0165344Y0177700D01*
X0164557Y0177374D01*
X0163819Y0176948D01*
X0163143Y0176429D01*
X0162540Y0175826D01*
X0162438Y0175693D01*
X0162335Y0175826D01*
X0161733Y0176429D01*
X0161057Y0176948D01*
X0160319Y0177374D01*
X0159531Y0177700D01*
X0158708Y0177920D01*
X0157864Y0178031D01*
X0157438Y0178031D01*
X0157438Y0171532D01*
X0157438Y0171531D01*
X0163938Y0171531D01*
X0167438Y0171531D01*
X0167438Y0171532D01*
X0157438Y0171531D02*
X0150938Y0171531D01*
X0147438Y0171531D01*
X0147438Y0171532D01*
X0157438Y0171532D01*
X0157438Y0171531D01*
X0157438Y0174141D02*
X0157438Y0174141D01*
X0147438Y0174141D02*
X0147438Y0174141D01*
X0147438Y0171532D02*
X0147438Y0178031D01*
X0147012Y0178031D01*
X0146167Y0177920D01*
X0145344Y0177700D01*
X0144557Y0177374D01*
X0143819Y0176948D01*
X0143143Y0176429D01*
X0142540Y0175826D01*
X0142438Y0175693D01*
X0142335Y0175826D01*
X0141733Y0176429D01*
X0141057Y0176948D01*
X0140319Y0177374D01*
X0139531Y0177700D01*
X0138708Y0177920D01*
X0137864Y0178031D01*
X0137438Y0178031D01*
X0137438Y0171532D01*
X0137438Y0171531D01*
X0140938Y0171531D01*
X0147438Y0171531D01*
X0147438Y0171532D01*
X0137438Y0171531D02*
X0130938Y0171531D01*
X0127438Y0171531D01*
X0127438Y0171532D01*
X0137438Y0171532D01*
X0137438Y0171531D01*
X0137438Y0174141D02*
X0137438Y0174141D01*
X0127438Y0174141D02*
X0127438Y0174141D01*
X0127438Y0171532D02*
X0127438Y0178031D01*
X0127012Y0178031D01*
X0126167Y0177920D01*
X0125344Y0177700D01*
X0124557Y0177374D01*
X0123819Y0176948D01*
X0123143Y0176429D01*
X0122540Y0175826D01*
X0122438Y0175693D01*
X0122335Y0175826D01*
X0121733Y0176429D01*
X0121057Y0176948D01*
X0120319Y0177374D01*
X0119531Y0177700D01*
X0118708Y0177920D01*
X0117864Y0178031D01*
X0117438Y0178031D01*
X0117438Y0171532D01*
X0117438Y0171531D01*
X0120938Y0171531D01*
X0127438Y0171531D01*
X0127438Y0171532D01*
X0117438Y0171531D02*
X0110938Y0171531D01*
X0107438Y0171531D01*
X0107438Y0171532D01*
X0117438Y0171532D01*
X0117438Y0171531D01*
X0117438Y0174141D02*
X0117438Y0174141D01*
X0107438Y0174141D02*
X0107438Y0174141D01*
X0107438Y0171532D02*
X0107438Y0178031D01*
X0107012Y0178031D01*
X0106167Y0177920D01*
X0105344Y0177700D01*
X0104557Y0177374D01*
X0103819Y0176948D01*
X0103143Y0176429D01*
X0102540Y0175826D01*
X0102438Y0175693D01*
X0102335Y0175826D01*
X0101733Y0176429D01*
X0101057Y0176948D01*
X0100319Y0177374D01*
X0099531Y0177700D01*
X0098708Y0177920D01*
X0097864Y0178031D01*
X0097438Y0178031D01*
X0097438Y0171532D01*
X0097438Y0171531D01*
X0100938Y0171531D01*
X0107438Y0171531D01*
X0107438Y0171532D01*
X0097438Y0171531D02*
X0093938Y0171531D01*
X0087438Y0171531D01*
X0087438Y0171532D01*
X0097438Y0171532D01*
X0097438Y0171531D01*
X0097438Y0174141D02*
X0097438Y0174141D01*
X0087438Y0174141D02*
X0087438Y0174141D01*
X0087438Y0171532D02*
X0087438Y0178031D01*
X0087012Y0178031D01*
X0086167Y0177920D01*
X0085344Y0177700D01*
X0084557Y0177374D01*
X0083819Y0176948D01*
X0083143Y0176429D01*
X0082540Y0175826D01*
X0082438Y0175693D01*
X0082335Y0175826D01*
X0081733Y0176429D01*
X0081057Y0176948D01*
X0080319Y0177374D01*
X0079531Y0177700D01*
X0078708Y0177920D01*
X0077864Y0178031D01*
X0077438Y0178031D01*
X0077438Y0171532D01*
X0077438Y0171531D01*
X0080938Y0171531D01*
X0087438Y0171531D01*
X0087438Y0171532D01*
X0077438Y0171531D02*
X0070938Y0171531D01*
X0067438Y0171531D01*
X0067438Y0171532D02*
X0077438Y0171532D01*
X0077438Y0171531D01*
X0077438Y0174141D02*
X0077438Y0174141D01*
X0067438Y0174141D02*
X0067438Y0174141D01*
X0067438Y0171532D02*
X0067438Y0178031D01*
X0067012Y0178031D01*
X0066167Y0177920D01*
X0065344Y0177700D01*
X0064557Y0177374D01*
X0063819Y0176948D01*
X0063143Y0176429D01*
X0062540Y0175826D01*
X0062022Y0175150D01*
X0061595Y0174413D01*
X0061269Y0173625D01*
X0061049Y0172802D01*
X0060938Y0171958D01*
X0060938Y0171532D01*
X0067438Y0171532D01*
X0067438Y0171531D01*
X0061483Y0174141D02*
X0043595Y0174141D01*
X0043595Y0170143D02*
X0061080Y0170143D01*
X0060878Y0166144D02*
X0043595Y0166144D01*
X0043595Y0162146D02*
X0059538Y0162146D01*
X0060289Y0158147D02*
X0043595Y0158147D01*
X0043595Y0154149D02*
X0059971Y0154149D01*
X0059538Y0150150D02*
X0043595Y0150150D01*
X0043595Y0146152D02*
X0061645Y0146152D01*
X0043595Y0178140D02*
X0322149Y0178140D01*
X0328219Y0178140D02*
X0341595Y0178140D01*
X0341595Y0174141D02*
X0334656Y0174141D01*
X0336866Y0170143D02*
X0341595Y0170143D01*
X0341595Y0166144D02*
X0337483Y0166144D01*
X0336825Y0162146D02*
X0341595Y0162146D01*
X0341595Y0158147D02*
X0334505Y0158147D01*
X0327654Y0154149D02*
X0341595Y0154149D01*
X0341595Y0134156D02*
X0292554Y0134156D01*
X0292554Y0130158D02*
X0316424Y0130158D01*
X0317595Y0130158D02*
X0317595Y0130158D01*
X0318766Y0130158D02*
X0341595Y0130158D01*
X0341595Y0062183D02*
X0326294Y0062183D01*
X0326074Y0058184D02*
X0341595Y0058184D01*
X0341595Y0054186D02*
X0323636Y0054186D01*
X0323993Y0050187D02*
X0341595Y0050187D01*
X0341595Y0046189D02*
X0324895Y0046189D01*
X0317595Y0046189D02*
X0317595Y0046189D01*
X0317595Y0042190D02*
X0317595Y0042190D01*
X0323360Y0042190D02*
X0341595Y0042190D01*
X0262733Y0050187D02*
X0262733Y0050187D01*
X0193118Y0074178D02*
X0192072Y0074178D01*
D20*
X0177595Y0066217D02*
X0177674Y0038588D01*
X0167722Y0038637D02*
X0167595Y0066217D01*
X0157595Y0066217D02*
X0157595Y0071256D01*
X0147595Y0081256D01*
X0067595Y0081256D01*
X0055095Y0068756D01*
X0055095Y0038756D01*
X0057595Y0036256D01*
X0065095Y0036256D01*
X0065095Y0046256D02*
X0065095Y0068756D01*
X0072595Y0076256D01*
X0142595Y0076256D01*
X0147595Y0071256D01*
X0147595Y0066217D01*
X0147722Y0038637D01*
X0157674Y0038588D02*
X0157595Y0066217D01*
X0137595Y0066217D02*
X0137674Y0038588D01*
X0127674Y0038588D02*
X0127595Y0066217D01*
X0117595Y0066217D02*
X0117674Y0038588D01*
X0107722Y0038637D02*
X0107595Y0066217D01*
X0262733Y0059081D02*
X0262733Y0076118D01*
X0262595Y0076256D01*
X0286013Y0121193D02*
X0286013Y0131020D01*
X0286186Y0131193D01*
X0279493Y0131193D02*
X0279430Y0131256D01*
X0272595Y0131256D01*
X0262438Y0136413D01*
X0262438Y0156177D01*
X0272438Y0166177D02*
X0272167Y0166448D01*
X0249560Y0166448D01*
D21*
X0286013Y0121193D02*
X0286013Y0112838D01*
X0289682Y0109169D01*
X0317595Y0109169D01*
X0185701Y0026173D02*
X0177737Y0026173D01*
X0177621Y0026289D01*
D22*
X0262595Y0086256D02*
X0272595Y0086256D01*
X0282595Y0076256D01*
X0282595Y0026242D01*
X0282584Y0026231D01*
X0282584Y0016267D01*
X0282595Y0016256D01*
M02*
