G75*
%MOIN*%
%OFA0B0*%
%FSLAX25Y25*%
%IPPOS*%
%LPD*%
%AMOC8*
5,1,8,0,0,1.08239X$1,22.5*
%
%ADD10C,0.00000*%
%ADD11R,0.24409X0.21260*%
%ADD12R,0.06299X0.03937*%
%ADD13OC8,0.07000*%
%ADD14C,0.07000*%
%ADD15R,0.03937X0.04331*%
%ADD16C,0.05150*%
%ADD17R,0.03150X0.03150*%
%ADD18OC8,0.06600*%
%ADD19C,0.06000*%
%ADD20C,0.08600*%
%ADD21C,0.06600*%
%ADD22C,0.04000*%
%ADD23C,0.02400*%
%ADD24C,0.07600*%
%ADD25C,0.03200*%
%ADD26C,0.08600*%
%ADD27C,0.06600*%
%ADD28C,0.05600*%
%ADD29C,0.01600*%
D10*
X0037595Y0006256D02*
X0037595Y0181256D01*
X0037597Y0181396D01*
X0037603Y0181536D01*
X0037613Y0181676D01*
X0037626Y0181816D01*
X0037644Y0181955D01*
X0037666Y0182094D01*
X0037691Y0182231D01*
X0037720Y0182369D01*
X0037753Y0182505D01*
X0037790Y0182640D01*
X0037831Y0182774D01*
X0037876Y0182907D01*
X0037924Y0183039D01*
X0037976Y0183169D01*
X0038031Y0183298D01*
X0038090Y0183425D01*
X0038153Y0183551D01*
X0038219Y0183675D01*
X0038288Y0183796D01*
X0038361Y0183916D01*
X0038438Y0184034D01*
X0038517Y0184149D01*
X0038600Y0184263D01*
X0038686Y0184373D01*
X0038775Y0184482D01*
X0038867Y0184588D01*
X0038962Y0184691D01*
X0039059Y0184792D01*
X0039160Y0184889D01*
X0039263Y0184984D01*
X0039369Y0185076D01*
X0039478Y0185165D01*
X0039588Y0185251D01*
X0039702Y0185334D01*
X0039817Y0185413D01*
X0039935Y0185490D01*
X0040055Y0185563D01*
X0040176Y0185632D01*
X0040300Y0185698D01*
X0040426Y0185761D01*
X0040553Y0185820D01*
X0040682Y0185875D01*
X0040812Y0185927D01*
X0040944Y0185975D01*
X0041077Y0186020D01*
X0041211Y0186061D01*
X0041346Y0186098D01*
X0041482Y0186131D01*
X0041620Y0186160D01*
X0041757Y0186185D01*
X0041896Y0186207D01*
X0042035Y0186225D01*
X0042175Y0186238D01*
X0042315Y0186248D01*
X0042455Y0186254D01*
X0042595Y0186256D01*
X0342595Y0186256D01*
X0342735Y0186254D01*
X0342875Y0186248D01*
X0343015Y0186238D01*
X0343155Y0186225D01*
X0343294Y0186207D01*
X0343433Y0186185D01*
X0343570Y0186160D01*
X0343708Y0186131D01*
X0343844Y0186098D01*
X0343979Y0186061D01*
X0344113Y0186020D01*
X0344246Y0185975D01*
X0344378Y0185927D01*
X0344508Y0185875D01*
X0344637Y0185820D01*
X0344764Y0185761D01*
X0344890Y0185698D01*
X0345014Y0185632D01*
X0345135Y0185563D01*
X0345255Y0185490D01*
X0345373Y0185413D01*
X0345488Y0185334D01*
X0345602Y0185251D01*
X0345712Y0185165D01*
X0345821Y0185076D01*
X0345927Y0184984D01*
X0346030Y0184889D01*
X0346131Y0184792D01*
X0346228Y0184691D01*
X0346323Y0184588D01*
X0346415Y0184482D01*
X0346504Y0184373D01*
X0346590Y0184263D01*
X0346673Y0184149D01*
X0346752Y0184034D01*
X0346829Y0183916D01*
X0346902Y0183796D01*
X0346971Y0183675D01*
X0347037Y0183551D01*
X0347100Y0183425D01*
X0347159Y0183298D01*
X0347214Y0183169D01*
X0347266Y0183039D01*
X0347314Y0182907D01*
X0347359Y0182774D01*
X0347400Y0182640D01*
X0347437Y0182505D01*
X0347470Y0182369D01*
X0347499Y0182231D01*
X0347524Y0182094D01*
X0347546Y0181955D01*
X0347564Y0181816D01*
X0347577Y0181676D01*
X0347587Y0181536D01*
X0347593Y0181396D01*
X0347595Y0181256D01*
X0347595Y0006256D01*
X0347593Y0006116D01*
X0347587Y0005976D01*
X0347577Y0005836D01*
X0347564Y0005696D01*
X0347546Y0005557D01*
X0347524Y0005418D01*
X0347499Y0005281D01*
X0347470Y0005143D01*
X0347437Y0005007D01*
X0347400Y0004872D01*
X0347359Y0004738D01*
X0347314Y0004605D01*
X0347266Y0004473D01*
X0347214Y0004343D01*
X0347159Y0004214D01*
X0347100Y0004087D01*
X0347037Y0003961D01*
X0346971Y0003837D01*
X0346902Y0003716D01*
X0346829Y0003596D01*
X0346752Y0003478D01*
X0346673Y0003363D01*
X0346590Y0003249D01*
X0346504Y0003139D01*
X0346415Y0003030D01*
X0346323Y0002924D01*
X0346228Y0002821D01*
X0346131Y0002720D01*
X0346030Y0002623D01*
X0345927Y0002528D01*
X0345821Y0002436D01*
X0345712Y0002347D01*
X0345602Y0002261D01*
X0345488Y0002178D01*
X0345373Y0002099D01*
X0345255Y0002022D01*
X0345135Y0001949D01*
X0345014Y0001880D01*
X0344890Y0001814D01*
X0344764Y0001751D01*
X0344637Y0001692D01*
X0344508Y0001637D01*
X0344378Y0001585D01*
X0344246Y0001537D01*
X0344113Y0001492D01*
X0343979Y0001451D01*
X0343844Y0001414D01*
X0343708Y0001381D01*
X0343570Y0001352D01*
X0343433Y0001327D01*
X0343294Y0001305D01*
X0343155Y0001287D01*
X0343015Y0001274D01*
X0342875Y0001264D01*
X0342735Y0001258D01*
X0342595Y0001256D01*
X0042595Y0001256D01*
X0042455Y0001258D01*
X0042315Y0001264D01*
X0042175Y0001274D01*
X0042035Y0001287D01*
X0041896Y0001305D01*
X0041757Y0001327D01*
X0041620Y0001352D01*
X0041482Y0001381D01*
X0041346Y0001414D01*
X0041211Y0001451D01*
X0041077Y0001492D01*
X0040944Y0001537D01*
X0040812Y0001585D01*
X0040682Y0001637D01*
X0040553Y0001692D01*
X0040426Y0001751D01*
X0040300Y0001814D01*
X0040176Y0001880D01*
X0040055Y0001949D01*
X0039935Y0002022D01*
X0039817Y0002099D01*
X0039702Y0002178D01*
X0039588Y0002261D01*
X0039478Y0002347D01*
X0039369Y0002436D01*
X0039263Y0002528D01*
X0039160Y0002623D01*
X0039059Y0002720D01*
X0038962Y0002821D01*
X0038867Y0002924D01*
X0038775Y0003030D01*
X0038686Y0003139D01*
X0038600Y0003249D01*
X0038517Y0003363D01*
X0038438Y0003478D01*
X0038361Y0003596D01*
X0038288Y0003716D01*
X0038219Y0003837D01*
X0038153Y0003961D01*
X0038090Y0004087D01*
X0038031Y0004214D01*
X0037976Y0004343D01*
X0037924Y0004473D01*
X0037876Y0004605D01*
X0037831Y0004738D01*
X0037790Y0004872D01*
X0037753Y0005007D01*
X0037720Y0005143D01*
X0037691Y0005281D01*
X0037666Y0005418D01*
X0037644Y0005557D01*
X0037626Y0005696D01*
X0037613Y0005836D01*
X0037603Y0005976D01*
X0037597Y0006116D01*
X0037595Y0006256D01*
X0058881Y0096495D02*
X0058883Y0096653D01*
X0058889Y0096811D01*
X0058899Y0096969D01*
X0058913Y0097127D01*
X0058931Y0097284D01*
X0058952Y0097441D01*
X0058978Y0097597D01*
X0059008Y0097753D01*
X0059041Y0097908D01*
X0059079Y0098061D01*
X0059120Y0098214D01*
X0059165Y0098366D01*
X0059214Y0098517D01*
X0059267Y0098666D01*
X0059323Y0098814D01*
X0059383Y0098960D01*
X0059447Y0099105D01*
X0059515Y0099248D01*
X0059586Y0099390D01*
X0059660Y0099530D01*
X0059738Y0099667D01*
X0059820Y0099803D01*
X0059904Y0099937D01*
X0059993Y0100068D01*
X0060084Y0100197D01*
X0060179Y0100324D01*
X0060276Y0100449D01*
X0060377Y0100571D01*
X0060481Y0100690D01*
X0060588Y0100807D01*
X0060698Y0100921D01*
X0060811Y0101032D01*
X0060926Y0101141D01*
X0061044Y0101246D01*
X0061165Y0101348D01*
X0061288Y0101448D01*
X0061414Y0101544D01*
X0061542Y0101637D01*
X0061672Y0101727D01*
X0061805Y0101813D01*
X0061940Y0101897D01*
X0062076Y0101976D01*
X0062215Y0102053D01*
X0062356Y0102125D01*
X0062498Y0102195D01*
X0062642Y0102260D01*
X0062788Y0102322D01*
X0062935Y0102380D01*
X0063084Y0102435D01*
X0063234Y0102486D01*
X0063385Y0102533D01*
X0063537Y0102576D01*
X0063690Y0102615D01*
X0063845Y0102651D01*
X0064000Y0102682D01*
X0064156Y0102710D01*
X0064312Y0102734D01*
X0064469Y0102754D01*
X0064627Y0102770D01*
X0064784Y0102782D01*
X0064943Y0102790D01*
X0065101Y0102794D01*
X0065259Y0102794D01*
X0065417Y0102790D01*
X0065576Y0102782D01*
X0065733Y0102770D01*
X0065891Y0102754D01*
X0066048Y0102734D01*
X0066204Y0102710D01*
X0066360Y0102682D01*
X0066515Y0102651D01*
X0066670Y0102615D01*
X0066823Y0102576D01*
X0066975Y0102533D01*
X0067126Y0102486D01*
X0067276Y0102435D01*
X0067425Y0102380D01*
X0067572Y0102322D01*
X0067718Y0102260D01*
X0067862Y0102195D01*
X0068004Y0102125D01*
X0068145Y0102053D01*
X0068284Y0101976D01*
X0068420Y0101897D01*
X0068555Y0101813D01*
X0068688Y0101727D01*
X0068818Y0101637D01*
X0068946Y0101544D01*
X0069072Y0101448D01*
X0069195Y0101348D01*
X0069316Y0101246D01*
X0069434Y0101141D01*
X0069549Y0101032D01*
X0069662Y0100921D01*
X0069772Y0100807D01*
X0069879Y0100690D01*
X0069983Y0100571D01*
X0070084Y0100449D01*
X0070181Y0100324D01*
X0070276Y0100197D01*
X0070367Y0100068D01*
X0070456Y0099937D01*
X0070540Y0099803D01*
X0070622Y0099667D01*
X0070700Y0099530D01*
X0070774Y0099390D01*
X0070845Y0099248D01*
X0070913Y0099105D01*
X0070977Y0098960D01*
X0071037Y0098814D01*
X0071093Y0098666D01*
X0071146Y0098517D01*
X0071195Y0098366D01*
X0071240Y0098214D01*
X0071281Y0098061D01*
X0071319Y0097908D01*
X0071352Y0097753D01*
X0071382Y0097597D01*
X0071408Y0097441D01*
X0071429Y0097284D01*
X0071447Y0097127D01*
X0071461Y0096969D01*
X0071471Y0096811D01*
X0071477Y0096653D01*
X0071479Y0096495D01*
X0071477Y0096337D01*
X0071471Y0096179D01*
X0071461Y0096021D01*
X0071447Y0095863D01*
X0071429Y0095706D01*
X0071408Y0095549D01*
X0071382Y0095393D01*
X0071352Y0095237D01*
X0071319Y0095082D01*
X0071281Y0094929D01*
X0071240Y0094776D01*
X0071195Y0094624D01*
X0071146Y0094473D01*
X0071093Y0094324D01*
X0071037Y0094176D01*
X0070977Y0094030D01*
X0070913Y0093885D01*
X0070845Y0093742D01*
X0070774Y0093600D01*
X0070700Y0093460D01*
X0070622Y0093323D01*
X0070540Y0093187D01*
X0070456Y0093053D01*
X0070367Y0092922D01*
X0070276Y0092793D01*
X0070181Y0092666D01*
X0070084Y0092541D01*
X0069983Y0092419D01*
X0069879Y0092300D01*
X0069772Y0092183D01*
X0069662Y0092069D01*
X0069549Y0091958D01*
X0069434Y0091849D01*
X0069316Y0091744D01*
X0069195Y0091642D01*
X0069072Y0091542D01*
X0068946Y0091446D01*
X0068818Y0091353D01*
X0068688Y0091263D01*
X0068555Y0091177D01*
X0068420Y0091093D01*
X0068284Y0091014D01*
X0068145Y0090937D01*
X0068004Y0090865D01*
X0067862Y0090795D01*
X0067718Y0090730D01*
X0067572Y0090668D01*
X0067425Y0090610D01*
X0067276Y0090555D01*
X0067126Y0090504D01*
X0066975Y0090457D01*
X0066823Y0090414D01*
X0066670Y0090375D01*
X0066515Y0090339D01*
X0066360Y0090308D01*
X0066204Y0090280D01*
X0066048Y0090256D01*
X0065891Y0090236D01*
X0065733Y0090220D01*
X0065576Y0090208D01*
X0065417Y0090200D01*
X0065259Y0090196D01*
X0065101Y0090196D01*
X0064943Y0090200D01*
X0064784Y0090208D01*
X0064627Y0090220D01*
X0064469Y0090236D01*
X0064312Y0090256D01*
X0064156Y0090280D01*
X0064000Y0090308D01*
X0063845Y0090339D01*
X0063690Y0090375D01*
X0063537Y0090414D01*
X0063385Y0090457D01*
X0063234Y0090504D01*
X0063084Y0090555D01*
X0062935Y0090610D01*
X0062788Y0090668D01*
X0062642Y0090730D01*
X0062498Y0090795D01*
X0062356Y0090865D01*
X0062215Y0090937D01*
X0062076Y0091014D01*
X0061940Y0091093D01*
X0061805Y0091177D01*
X0061672Y0091263D01*
X0061542Y0091353D01*
X0061414Y0091446D01*
X0061288Y0091542D01*
X0061165Y0091642D01*
X0061044Y0091744D01*
X0060926Y0091849D01*
X0060811Y0091958D01*
X0060698Y0092069D01*
X0060588Y0092183D01*
X0060481Y0092300D01*
X0060377Y0092419D01*
X0060276Y0092541D01*
X0060179Y0092666D01*
X0060084Y0092793D01*
X0059993Y0092922D01*
X0059904Y0093053D01*
X0059820Y0093187D01*
X0059738Y0093323D01*
X0059660Y0093460D01*
X0059586Y0093600D01*
X0059515Y0093742D01*
X0059447Y0093885D01*
X0059383Y0094030D01*
X0059323Y0094176D01*
X0059267Y0094324D01*
X0059214Y0094473D01*
X0059165Y0094624D01*
X0059120Y0094776D01*
X0059079Y0094929D01*
X0059041Y0095082D01*
X0059008Y0095237D01*
X0058978Y0095393D01*
X0058952Y0095549D01*
X0058931Y0095706D01*
X0058913Y0095863D01*
X0058899Y0096021D01*
X0058889Y0096179D01*
X0058883Y0096337D01*
X0058881Y0096495D01*
X0318885Y0166220D02*
X0318887Y0166378D01*
X0318893Y0166536D01*
X0318903Y0166694D01*
X0318917Y0166852D01*
X0318935Y0167009D01*
X0318956Y0167166D01*
X0318982Y0167322D01*
X0319012Y0167478D01*
X0319045Y0167633D01*
X0319083Y0167786D01*
X0319124Y0167939D01*
X0319169Y0168091D01*
X0319218Y0168242D01*
X0319271Y0168391D01*
X0319327Y0168539D01*
X0319387Y0168685D01*
X0319451Y0168830D01*
X0319519Y0168973D01*
X0319590Y0169115D01*
X0319664Y0169255D01*
X0319742Y0169392D01*
X0319824Y0169528D01*
X0319908Y0169662D01*
X0319997Y0169793D01*
X0320088Y0169922D01*
X0320183Y0170049D01*
X0320280Y0170174D01*
X0320381Y0170296D01*
X0320485Y0170415D01*
X0320592Y0170532D01*
X0320702Y0170646D01*
X0320815Y0170757D01*
X0320930Y0170866D01*
X0321048Y0170971D01*
X0321169Y0171073D01*
X0321292Y0171173D01*
X0321418Y0171269D01*
X0321546Y0171362D01*
X0321676Y0171452D01*
X0321809Y0171538D01*
X0321944Y0171622D01*
X0322080Y0171701D01*
X0322219Y0171778D01*
X0322360Y0171850D01*
X0322502Y0171920D01*
X0322646Y0171985D01*
X0322792Y0172047D01*
X0322939Y0172105D01*
X0323088Y0172160D01*
X0323238Y0172211D01*
X0323389Y0172258D01*
X0323541Y0172301D01*
X0323694Y0172340D01*
X0323849Y0172376D01*
X0324004Y0172407D01*
X0324160Y0172435D01*
X0324316Y0172459D01*
X0324473Y0172479D01*
X0324631Y0172495D01*
X0324788Y0172507D01*
X0324947Y0172515D01*
X0325105Y0172519D01*
X0325263Y0172519D01*
X0325421Y0172515D01*
X0325580Y0172507D01*
X0325737Y0172495D01*
X0325895Y0172479D01*
X0326052Y0172459D01*
X0326208Y0172435D01*
X0326364Y0172407D01*
X0326519Y0172376D01*
X0326674Y0172340D01*
X0326827Y0172301D01*
X0326979Y0172258D01*
X0327130Y0172211D01*
X0327280Y0172160D01*
X0327429Y0172105D01*
X0327576Y0172047D01*
X0327722Y0171985D01*
X0327866Y0171920D01*
X0328008Y0171850D01*
X0328149Y0171778D01*
X0328288Y0171701D01*
X0328424Y0171622D01*
X0328559Y0171538D01*
X0328692Y0171452D01*
X0328822Y0171362D01*
X0328950Y0171269D01*
X0329076Y0171173D01*
X0329199Y0171073D01*
X0329320Y0170971D01*
X0329438Y0170866D01*
X0329553Y0170757D01*
X0329666Y0170646D01*
X0329776Y0170532D01*
X0329883Y0170415D01*
X0329987Y0170296D01*
X0330088Y0170174D01*
X0330185Y0170049D01*
X0330280Y0169922D01*
X0330371Y0169793D01*
X0330460Y0169662D01*
X0330544Y0169528D01*
X0330626Y0169392D01*
X0330704Y0169255D01*
X0330778Y0169115D01*
X0330849Y0168973D01*
X0330917Y0168830D01*
X0330981Y0168685D01*
X0331041Y0168539D01*
X0331097Y0168391D01*
X0331150Y0168242D01*
X0331199Y0168091D01*
X0331244Y0167939D01*
X0331285Y0167786D01*
X0331323Y0167633D01*
X0331356Y0167478D01*
X0331386Y0167322D01*
X0331412Y0167166D01*
X0331433Y0167009D01*
X0331451Y0166852D01*
X0331465Y0166694D01*
X0331475Y0166536D01*
X0331481Y0166378D01*
X0331483Y0166220D01*
X0331481Y0166062D01*
X0331475Y0165904D01*
X0331465Y0165746D01*
X0331451Y0165588D01*
X0331433Y0165431D01*
X0331412Y0165274D01*
X0331386Y0165118D01*
X0331356Y0164962D01*
X0331323Y0164807D01*
X0331285Y0164654D01*
X0331244Y0164501D01*
X0331199Y0164349D01*
X0331150Y0164198D01*
X0331097Y0164049D01*
X0331041Y0163901D01*
X0330981Y0163755D01*
X0330917Y0163610D01*
X0330849Y0163467D01*
X0330778Y0163325D01*
X0330704Y0163185D01*
X0330626Y0163048D01*
X0330544Y0162912D01*
X0330460Y0162778D01*
X0330371Y0162647D01*
X0330280Y0162518D01*
X0330185Y0162391D01*
X0330088Y0162266D01*
X0329987Y0162144D01*
X0329883Y0162025D01*
X0329776Y0161908D01*
X0329666Y0161794D01*
X0329553Y0161683D01*
X0329438Y0161574D01*
X0329320Y0161469D01*
X0329199Y0161367D01*
X0329076Y0161267D01*
X0328950Y0161171D01*
X0328822Y0161078D01*
X0328692Y0160988D01*
X0328559Y0160902D01*
X0328424Y0160818D01*
X0328288Y0160739D01*
X0328149Y0160662D01*
X0328008Y0160590D01*
X0327866Y0160520D01*
X0327722Y0160455D01*
X0327576Y0160393D01*
X0327429Y0160335D01*
X0327280Y0160280D01*
X0327130Y0160229D01*
X0326979Y0160182D01*
X0326827Y0160139D01*
X0326674Y0160100D01*
X0326519Y0160064D01*
X0326364Y0160033D01*
X0326208Y0160005D01*
X0326052Y0159981D01*
X0325895Y0159961D01*
X0325737Y0159945D01*
X0325580Y0159933D01*
X0325421Y0159925D01*
X0325263Y0159921D01*
X0325105Y0159921D01*
X0324947Y0159925D01*
X0324788Y0159933D01*
X0324631Y0159945D01*
X0324473Y0159961D01*
X0324316Y0159981D01*
X0324160Y0160005D01*
X0324004Y0160033D01*
X0323849Y0160064D01*
X0323694Y0160100D01*
X0323541Y0160139D01*
X0323389Y0160182D01*
X0323238Y0160229D01*
X0323088Y0160280D01*
X0322939Y0160335D01*
X0322792Y0160393D01*
X0322646Y0160455D01*
X0322502Y0160520D01*
X0322360Y0160590D01*
X0322219Y0160662D01*
X0322080Y0160739D01*
X0321944Y0160818D01*
X0321809Y0160902D01*
X0321676Y0160988D01*
X0321546Y0161078D01*
X0321418Y0161171D01*
X0321292Y0161267D01*
X0321169Y0161367D01*
X0321048Y0161469D01*
X0320930Y0161574D01*
X0320815Y0161683D01*
X0320702Y0161794D01*
X0320592Y0161908D01*
X0320485Y0162025D01*
X0320381Y0162144D01*
X0320280Y0162266D01*
X0320183Y0162391D01*
X0320088Y0162518D01*
X0319997Y0162647D01*
X0319908Y0162778D01*
X0319824Y0162912D01*
X0319742Y0163048D01*
X0319664Y0163185D01*
X0319590Y0163325D01*
X0319519Y0163467D01*
X0319451Y0163610D01*
X0319387Y0163755D01*
X0319327Y0163901D01*
X0319271Y0164049D01*
X0319218Y0164198D01*
X0319169Y0164349D01*
X0319124Y0164501D01*
X0319083Y0164654D01*
X0319045Y0164807D01*
X0319012Y0164962D01*
X0318982Y0165118D01*
X0318956Y0165274D01*
X0318935Y0165431D01*
X0318917Y0165588D01*
X0318903Y0165746D01*
X0318893Y0165904D01*
X0318887Y0166062D01*
X0318885Y0166220D01*
X0318874Y0021211D02*
X0318876Y0021369D01*
X0318882Y0021527D01*
X0318892Y0021685D01*
X0318906Y0021843D01*
X0318924Y0022000D01*
X0318945Y0022157D01*
X0318971Y0022313D01*
X0319001Y0022469D01*
X0319034Y0022624D01*
X0319072Y0022777D01*
X0319113Y0022930D01*
X0319158Y0023082D01*
X0319207Y0023233D01*
X0319260Y0023382D01*
X0319316Y0023530D01*
X0319376Y0023676D01*
X0319440Y0023821D01*
X0319508Y0023964D01*
X0319579Y0024106D01*
X0319653Y0024246D01*
X0319731Y0024383D01*
X0319813Y0024519D01*
X0319897Y0024653D01*
X0319986Y0024784D01*
X0320077Y0024913D01*
X0320172Y0025040D01*
X0320269Y0025165D01*
X0320370Y0025287D01*
X0320474Y0025406D01*
X0320581Y0025523D01*
X0320691Y0025637D01*
X0320804Y0025748D01*
X0320919Y0025857D01*
X0321037Y0025962D01*
X0321158Y0026064D01*
X0321281Y0026164D01*
X0321407Y0026260D01*
X0321535Y0026353D01*
X0321665Y0026443D01*
X0321798Y0026529D01*
X0321933Y0026613D01*
X0322069Y0026692D01*
X0322208Y0026769D01*
X0322349Y0026841D01*
X0322491Y0026911D01*
X0322635Y0026976D01*
X0322781Y0027038D01*
X0322928Y0027096D01*
X0323077Y0027151D01*
X0323227Y0027202D01*
X0323378Y0027249D01*
X0323530Y0027292D01*
X0323683Y0027331D01*
X0323838Y0027367D01*
X0323993Y0027398D01*
X0324149Y0027426D01*
X0324305Y0027450D01*
X0324462Y0027470D01*
X0324620Y0027486D01*
X0324777Y0027498D01*
X0324936Y0027506D01*
X0325094Y0027510D01*
X0325252Y0027510D01*
X0325410Y0027506D01*
X0325569Y0027498D01*
X0325726Y0027486D01*
X0325884Y0027470D01*
X0326041Y0027450D01*
X0326197Y0027426D01*
X0326353Y0027398D01*
X0326508Y0027367D01*
X0326663Y0027331D01*
X0326816Y0027292D01*
X0326968Y0027249D01*
X0327119Y0027202D01*
X0327269Y0027151D01*
X0327418Y0027096D01*
X0327565Y0027038D01*
X0327711Y0026976D01*
X0327855Y0026911D01*
X0327997Y0026841D01*
X0328138Y0026769D01*
X0328277Y0026692D01*
X0328413Y0026613D01*
X0328548Y0026529D01*
X0328681Y0026443D01*
X0328811Y0026353D01*
X0328939Y0026260D01*
X0329065Y0026164D01*
X0329188Y0026064D01*
X0329309Y0025962D01*
X0329427Y0025857D01*
X0329542Y0025748D01*
X0329655Y0025637D01*
X0329765Y0025523D01*
X0329872Y0025406D01*
X0329976Y0025287D01*
X0330077Y0025165D01*
X0330174Y0025040D01*
X0330269Y0024913D01*
X0330360Y0024784D01*
X0330449Y0024653D01*
X0330533Y0024519D01*
X0330615Y0024383D01*
X0330693Y0024246D01*
X0330767Y0024106D01*
X0330838Y0023964D01*
X0330906Y0023821D01*
X0330970Y0023676D01*
X0331030Y0023530D01*
X0331086Y0023382D01*
X0331139Y0023233D01*
X0331188Y0023082D01*
X0331233Y0022930D01*
X0331274Y0022777D01*
X0331312Y0022624D01*
X0331345Y0022469D01*
X0331375Y0022313D01*
X0331401Y0022157D01*
X0331422Y0022000D01*
X0331440Y0021843D01*
X0331454Y0021685D01*
X0331464Y0021527D01*
X0331470Y0021369D01*
X0331472Y0021211D01*
X0331470Y0021053D01*
X0331464Y0020895D01*
X0331454Y0020737D01*
X0331440Y0020579D01*
X0331422Y0020422D01*
X0331401Y0020265D01*
X0331375Y0020109D01*
X0331345Y0019953D01*
X0331312Y0019798D01*
X0331274Y0019645D01*
X0331233Y0019492D01*
X0331188Y0019340D01*
X0331139Y0019189D01*
X0331086Y0019040D01*
X0331030Y0018892D01*
X0330970Y0018746D01*
X0330906Y0018601D01*
X0330838Y0018458D01*
X0330767Y0018316D01*
X0330693Y0018176D01*
X0330615Y0018039D01*
X0330533Y0017903D01*
X0330449Y0017769D01*
X0330360Y0017638D01*
X0330269Y0017509D01*
X0330174Y0017382D01*
X0330077Y0017257D01*
X0329976Y0017135D01*
X0329872Y0017016D01*
X0329765Y0016899D01*
X0329655Y0016785D01*
X0329542Y0016674D01*
X0329427Y0016565D01*
X0329309Y0016460D01*
X0329188Y0016358D01*
X0329065Y0016258D01*
X0328939Y0016162D01*
X0328811Y0016069D01*
X0328681Y0015979D01*
X0328548Y0015893D01*
X0328413Y0015809D01*
X0328277Y0015730D01*
X0328138Y0015653D01*
X0327997Y0015581D01*
X0327855Y0015511D01*
X0327711Y0015446D01*
X0327565Y0015384D01*
X0327418Y0015326D01*
X0327269Y0015271D01*
X0327119Y0015220D01*
X0326968Y0015173D01*
X0326816Y0015130D01*
X0326663Y0015091D01*
X0326508Y0015055D01*
X0326353Y0015024D01*
X0326197Y0014996D01*
X0326041Y0014972D01*
X0325884Y0014952D01*
X0325726Y0014936D01*
X0325569Y0014924D01*
X0325410Y0014916D01*
X0325252Y0014912D01*
X0325094Y0014912D01*
X0324936Y0014916D01*
X0324777Y0014924D01*
X0324620Y0014936D01*
X0324462Y0014952D01*
X0324305Y0014972D01*
X0324149Y0014996D01*
X0323993Y0015024D01*
X0323838Y0015055D01*
X0323683Y0015091D01*
X0323530Y0015130D01*
X0323378Y0015173D01*
X0323227Y0015220D01*
X0323077Y0015271D01*
X0322928Y0015326D01*
X0322781Y0015384D01*
X0322635Y0015446D01*
X0322491Y0015511D01*
X0322349Y0015581D01*
X0322208Y0015653D01*
X0322069Y0015730D01*
X0321933Y0015809D01*
X0321798Y0015893D01*
X0321665Y0015979D01*
X0321535Y0016069D01*
X0321407Y0016162D01*
X0321281Y0016258D01*
X0321158Y0016358D01*
X0321037Y0016460D01*
X0320919Y0016565D01*
X0320804Y0016674D01*
X0320691Y0016785D01*
X0320581Y0016899D01*
X0320474Y0017016D01*
X0320370Y0017135D01*
X0320269Y0017257D01*
X0320172Y0017382D01*
X0320077Y0017509D01*
X0319986Y0017638D01*
X0319897Y0017769D01*
X0319813Y0017903D01*
X0319731Y0018039D01*
X0319653Y0018176D01*
X0319579Y0018316D01*
X0319508Y0018458D01*
X0319440Y0018601D01*
X0319376Y0018746D01*
X0319316Y0018892D01*
X0319260Y0019040D01*
X0319207Y0019189D01*
X0319158Y0019340D01*
X0319113Y0019492D01*
X0319072Y0019645D01*
X0319034Y0019798D01*
X0319001Y0019953D01*
X0318971Y0020109D01*
X0318945Y0020265D01*
X0318924Y0020422D01*
X0318906Y0020579D01*
X0318892Y0020737D01*
X0318882Y0020895D01*
X0318876Y0021053D01*
X0318874Y0021211D01*
D11*
X0225981Y0035469D03*
D12*
X0197241Y0044445D03*
X0197241Y0026492D03*
D13*
X0177621Y0026289D03*
X0167621Y0026289D03*
X0167713Y0016295D03*
X0177713Y0016295D03*
X0157713Y0016295D03*
X0147713Y0016295D03*
X0147621Y0026289D03*
X0157621Y0026289D03*
X0157603Y0036283D03*
X0147603Y0036283D03*
X0137603Y0036283D03*
X0127603Y0036283D03*
X0117603Y0036283D03*
X0107603Y0036283D03*
X0107621Y0026289D03*
X0107713Y0016295D03*
X0117713Y0016295D03*
X0127713Y0016295D03*
X0137713Y0016295D03*
X0137621Y0026289D03*
X0127621Y0026289D03*
X0117621Y0026289D03*
X0167603Y0036283D03*
X0177603Y0036283D03*
D14*
X0095095Y0036256D03*
X0085095Y0036256D03*
X0075095Y0036256D03*
X0065095Y0036256D03*
X0065095Y0046256D03*
X0075095Y0046256D03*
X0085095Y0046256D03*
X0095095Y0046256D03*
X0095095Y0026256D03*
X0085095Y0026256D03*
X0075095Y0026256D03*
X0065095Y0026256D03*
X0064859Y0016217D03*
X0074859Y0016217D03*
X0084859Y0016217D03*
X0094859Y0016217D03*
X0097438Y0151531D03*
X0107438Y0151531D03*
X0117438Y0151531D03*
X0127438Y0151531D03*
X0137438Y0151531D03*
X0147438Y0151531D03*
X0157438Y0151531D03*
X0167438Y0151531D03*
X0177438Y0151531D03*
X0177438Y0161531D03*
X0167438Y0161531D03*
X0157438Y0161531D03*
X0147438Y0161531D03*
X0137438Y0161531D03*
X0127438Y0161531D03*
X0117438Y0161531D03*
X0107438Y0161531D03*
X0097438Y0161531D03*
X0087438Y0161531D03*
X0077438Y0161531D03*
X0067438Y0161531D03*
X0067438Y0151531D03*
X0077438Y0151531D03*
X0087438Y0151531D03*
X0087438Y0171531D03*
X0077438Y0171531D03*
X0067438Y0171531D03*
X0097438Y0171531D03*
X0107438Y0171531D03*
X0117438Y0171531D03*
X0127438Y0171531D03*
X0137438Y0171531D03*
X0147438Y0171531D03*
X0157438Y0171531D03*
X0167438Y0171531D03*
X0177438Y0171531D03*
D15*
X0203068Y0161295D03*
X0209760Y0161295D03*
D16*
X0207595Y0128791D02*
X0207595Y0123642D01*
X0197595Y0123642D02*
X0197595Y0128791D01*
X0187595Y0128791D02*
X0187595Y0123642D01*
X0177595Y0123642D02*
X0177595Y0128791D01*
X0167595Y0128791D02*
X0167595Y0123642D01*
X0157595Y0123642D02*
X0157595Y0128791D01*
X0147595Y0128791D02*
X0147595Y0123642D01*
X0137595Y0123642D02*
X0137595Y0128791D01*
X0127595Y0128791D02*
X0127595Y0123642D01*
X0117595Y0123642D02*
X0117595Y0128791D01*
X0107595Y0128791D02*
X0107595Y0123642D01*
X0097595Y0123642D02*
X0097595Y0128791D01*
X0087595Y0128791D02*
X0087595Y0123642D01*
X0077595Y0123642D02*
X0077595Y0128791D01*
X0077595Y0068791D02*
X0077595Y0063642D01*
X0087595Y0063642D02*
X0087595Y0068791D01*
X0097595Y0068791D02*
X0097595Y0063642D01*
X0107595Y0063642D02*
X0107595Y0068791D01*
X0117595Y0068791D02*
X0117595Y0063642D01*
X0127595Y0063642D02*
X0127595Y0068791D01*
X0137595Y0068791D02*
X0137595Y0063642D01*
X0147595Y0063642D02*
X0147595Y0068791D01*
X0157595Y0068791D02*
X0157595Y0063642D01*
X0167595Y0063642D02*
X0167595Y0068791D01*
X0177595Y0068791D02*
X0177595Y0063642D01*
X0187595Y0063642D02*
X0187595Y0068791D01*
X0197595Y0068791D02*
X0197595Y0063642D01*
X0207595Y0063642D02*
X0207595Y0068791D01*
X0217595Y0068791D02*
X0217595Y0063642D01*
X0217595Y0123642D02*
X0217595Y0128791D01*
D17*
X0209800Y0171846D03*
X0203894Y0171846D03*
D18*
X0262438Y0156177D03*
X0272438Y0166177D03*
X0282438Y0156177D03*
D19*
X0265595Y0096256D02*
X0259595Y0096256D01*
X0259595Y0086256D02*
X0265595Y0086256D01*
X0265595Y0076256D02*
X0259595Y0076256D01*
D20*
X0317595Y0060449D03*
X0317595Y0046669D03*
X0317595Y0095390D03*
X0317595Y0109169D03*
X0317595Y0122949D03*
D21*
X0282584Y0026231D03*
X0272584Y0026231D03*
X0272595Y0016256D03*
X0282595Y0016256D03*
X0262595Y0016256D03*
X0262584Y0026231D03*
D22*
X0254884Y0026196D02*
X0241186Y0026196D01*
X0241186Y0024543D02*
X0241186Y0033469D01*
X0227981Y0033469D01*
X0227981Y0037468D01*
X0241186Y0037468D01*
X0241186Y0046394D01*
X0241070Y0046973D01*
X0240844Y0047519D01*
X0240516Y0048011D01*
X0240098Y0048429D01*
X0239607Y0048757D01*
X0239061Y0048983D01*
X0238481Y0049098D01*
X0232034Y0049098D01*
X0237240Y0054304D01*
X0239547Y0056611D01*
X0240795Y0059625D01*
X0240795Y0067859D01*
X0240992Y0068056D01*
X0254884Y0068056D01*
X0254884Y0024699D01*
X0254895Y0024673D01*
X0254895Y0014724D01*
X0256067Y0011894D01*
X0258233Y0009728D01*
X0261064Y0008556D01*
X0264127Y0008556D01*
X0266957Y0009728D01*
X0268600Y0011371D01*
X0269293Y0010868D01*
X0270177Y0010417D01*
X0271120Y0010111D01*
X0272099Y0009956D01*
X0272595Y0009956D01*
X0272595Y0016256D01*
X0272595Y0016256D01*
X0272595Y0009956D01*
X0273091Y0009956D01*
X0274070Y0010111D01*
X0275013Y0010417D01*
X0275897Y0010868D01*
X0276590Y0011371D01*
X0278233Y0009728D01*
X0281064Y0008556D01*
X0284127Y0008556D01*
X0286957Y0009728D01*
X0289123Y0011894D01*
X0290295Y0014724D01*
X0290295Y0017788D01*
X0289123Y0020618D01*
X0288492Y0021249D01*
X0289112Y0021869D01*
X0290284Y0024699D01*
X0290284Y0027763D01*
X0289112Y0030593D01*
X0286946Y0032759D01*
X0284116Y0033931D01*
X0281053Y0033931D01*
X0278222Y0032759D01*
X0276579Y0031115D01*
X0275886Y0031619D01*
X0275002Y0032069D01*
X0274059Y0032376D01*
X0273080Y0032531D01*
X0272584Y0032531D01*
X0272088Y0032531D01*
X0271109Y0032376D01*
X0270284Y0032108D01*
X0270284Y0067556D01*
X0308895Y0067556D01*
X0308895Y0058718D01*
X0310220Y0055521D01*
X0312667Y0053073D01*
X0313500Y0052728D01*
X0312772Y0052169D01*
X0312095Y0051493D01*
X0311512Y0050734D01*
X0311034Y0049905D01*
X0310668Y0049021D01*
X0310420Y0048097D01*
X0310295Y0047148D01*
X0310295Y0046669D01*
X0310295Y0046191D01*
X0310420Y0045242D01*
X0310668Y0044318D01*
X0311034Y0043434D01*
X0311512Y0042605D01*
X0312095Y0041846D01*
X0312772Y0041169D01*
X0313531Y0040587D01*
X0314359Y0040108D01*
X0315244Y0039742D01*
X0316168Y0039494D01*
X0317117Y0039369D01*
X0317595Y0039369D01*
X0317595Y0046669D01*
X0317595Y0046669D01*
X0310295Y0046669D01*
X0317595Y0046669D01*
X0317595Y0046669D01*
X0317595Y0039369D01*
X0318074Y0039369D01*
X0319022Y0039494D01*
X0319947Y0039742D01*
X0320831Y0040108D01*
X0321659Y0040587D01*
X0322419Y0041169D01*
X0323095Y0041846D01*
X0323678Y0042605D01*
X0324156Y0043434D01*
X0324523Y0044318D01*
X0324770Y0045242D01*
X0324895Y0046191D01*
X0324895Y0046669D01*
X0317595Y0046669D01*
X0317595Y0046669D01*
X0324895Y0046669D01*
X0324895Y0047148D01*
X0324770Y0048097D01*
X0324523Y0049021D01*
X0324156Y0049905D01*
X0323678Y0050734D01*
X0323095Y0051493D01*
X0322419Y0052169D01*
X0321690Y0052728D01*
X0322523Y0053073D01*
X0324971Y0055521D01*
X0326295Y0058718D01*
X0326295Y0072986D01*
X0324971Y0076184D01*
X0324899Y0076256D01*
X0324971Y0076328D01*
X0326295Y0079525D01*
X0326295Y0097120D01*
X0324971Y0100318D01*
X0323009Y0102280D01*
X0324971Y0104241D01*
X0326295Y0107439D01*
X0326295Y0110900D01*
X0324971Y0114097D01*
X0322523Y0116545D01*
X0321690Y0116890D01*
X0322419Y0117449D01*
X0323095Y0118125D01*
X0323678Y0118884D01*
X0324156Y0119713D01*
X0324523Y0120597D01*
X0324770Y0121522D01*
X0324895Y0122470D01*
X0324895Y0122949D01*
X0324895Y0123427D01*
X0324770Y0124376D01*
X0324523Y0125300D01*
X0324156Y0126184D01*
X0323678Y0127013D01*
X0323095Y0127772D01*
X0322419Y0128449D01*
X0321659Y0129032D01*
X0320831Y0129510D01*
X0319947Y0129876D01*
X0319022Y0130124D01*
X0318074Y0130249D01*
X0317595Y0130249D01*
X0317117Y0130249D01*
X0316168Y0130124D01*
X0315244Y0129876D01*
X0314359Y0129510D01*
X0313531Y0129032D01*
X0312772Y0128449D01*
X0312095Y0127772D01*
X0311512Y0127013D01*
X0311034Y0126184D01*
X0310668Y0125300D01*
X0310420Y0124376D01*
X0310295Y0123427D01*
X0310295Y0122949D01*
X0317595Y0122949D01*
X0317595Y0130249D01*
X0317595Y0122949D01*
X0317595Y0122949D01*
X0317595Y0122949D01*
X0310295Y0122949D01*
X0310295Y0122470D01*
X0310420Y0121522D01*
X0310668Y0120597D01*
X0311034Y0119713D01*
X0311512Y0118884D01*
X0312095Y0118125D01*
X0312772Y0117449D01*
X0313500Y0116890D01*
X0313450Y0116869D01*
X0305886Y0116869D01*
X0304738Y0116982D01*
X0304366Y0116869D01*
X0303977Y0116869D01*
X0302911Y0116428D01*
X0301807Y0116093D01*
X0301506Y0115846D01*
X0301147Y0115697D01*
X0300331Y0114881D01*
X0274840Y0093956D01*
X0272652Y0093956D01*
X0272995Y0094784D01*
X0272995Y0097728D01*
X0271869Y0100448D01*
X0269787Y0102529D01*
X0268195Y0103189D01*
X0268195Y0151045D01*
X0270138Y0152988D01*
X0270138Y0158477D01*
X0274738Y0158477D01*
X0274738Y0152988D01*
X0279248Y0148477D01*
X0285627Y0148477D01*
X0290138Y0152988D01*
X0290138Y0159367D01*
X0285627Y0163877D01*
X0280138Y0163877D01*
X0280138Y0169367D01*
X0275627Y0173877D01*
X0269248Y0173877D01*
X0264738Y0169367D01*
X0264738Y0163877D01*
X0259248Y0163877D01*
X0254738Y0159367D01*
X0254738Y0152988D01*
X0256995Y0150730D01*
X0256995Y0103189D01*
X0255403Y0102529D01*
X0253322Y0100448D01*
X0252195Y0097728D01*
X0252195Y0094784D01*
X0253322Y0092064D01*
X0254130Y0091256D01*
X0253322Y0090448D01*
X0252195Y0087728D01*
X0252195Y0084784D01*
X0252331Y0084456D01*
X0235964Y0084456D01*
X0232950Y0083208D01*
X0230644Y0080901D01*
X0225644Y0075901D01*
X0224395Y0072887D01*
X0224395Y0070601D01*
X0223508Y0072742D01*
X0221546Y0074704D01*
X0218983Y0075766D01*
X0216208Y0075766D01*
X0213644Y0074704D01*
X0211682Y0072742D01*
X0211637Y0072633D01*
X0211227Y0073044D01*
X0210517Y0073559D01*
X0209735Y0073958D01*
X0208901Y0074229D01*
X0208034Y0074366D01*
X0207595Y0074366D01*
X0207156Y0074366D01*
X0206290Y0074229D01*
X0205455Y0073958D01*
X0204673Y0073559D01*
X0203963Y0073044D01*
X0203553Y0072633D01*
X0203508Y0072742D01*
X0201546Y0074704D01*
X0198983Y0075766D01*
X0196208Y0075766D01*
X0193644Y0074704D01*
X0192595Y0073655D01*
X0191546Y0074704D01*
X0188983Y0075766D01*
X0186208Y0075766D01*
X0183644Y0074704D01*
X0182595Y0073655D01*
X0181546Y0074704D01*
X0178983Y0075766D01*
X0176208Y0075766D01*
X0173644Y0074704D01*
X0172595Y0073655D01*
X0171546Y0074704D01*
X0168983Y0075766D01*
X0166208Y0075766D01*
X0163644Y0074704D01*
X0162595Y0073655D01*
X0161546Y0074704D01*
X0158983Y0075766D01*
X0156208Y0075766D01*
X0153644Y0074704D01*
X0152595Y0073655D01*
X0151546Y0074704D01*
X0148983Y0075766D01*
X0146208Y0075766D01*
X0143644Y0074704D01*
X0142595Y0073655D01*
X0141546Y0074704D01*
X0138983Y0075766D01*
X0136208Y0075766D01*
X0133644Y0074704D01*
X0132595Y0073655D01*
X0131546Y0074704D01*
X0128983Y0075766D01*
X0126208Y0075766D01*
X0123644Y0074704D01*
X0122595Y0073655D01*
X0121546Y0074704D01*
X0118983Y0075766D01*
X0116208Y0075766D01*
X0113644Y0074704D01*
X0112595Y0073655D01*
X0111546Y0074704D01*
X0108983Y0075766D01*
X0106208Y0075766D01*
X0103644Y0074704D01*
X0102595Y0073655D01*
X0101546Y0074704D01*
X0098983Y0075766D01*
X0096208Y0075766D01*
X0093644Y0074704D01*
X0092595Y0073655D01*
X0091546Y0074704D01*
X0088983Y0075766D01*
X0086208Y0075766D01*
X0083644Y0074704D01*
X0083195Y0074255D01*
X0083195Y0107370D01*
X0082343Y0109428D01*
X0074323Y0117448D01*
X0076208Y0116667D01*
X0078983Y0116667D01*
X0081546Y0117729D01*
X0082595Y0118778D01*
X0083644Y0117729D01*
X0086208Y0116667D01*
X0088983Y0116667D01*
X0091546Y0117729D01*
X0092595Y0118778D01*
X0093644Y0117729D01*
X0096208Y0116667D01*
X0098983Y0116667D01*
X0101546Y0117729D01*
X0102595Y0118778D01*
X0103644Y0117729D01*
X0106208Y0116667D01*
X0108983Y0116667D01*
X0111546Y0117729D01*
X0112595Y0118778D01*
X0113644Y0117729D01*
X0116208Y0116667D01*
X0118983Y0116667D01*
X0121546Y0117729D01*
X0122595Y0118778D01*
X0123644Y0117729D01*
X0126208Y0116667D01*
X0128983Y0116667D01*
X0131546Y0117729D01*
X0132595Y0118778D01*
X0133644Y0117729D01*
X0136208Y0116667D01*
X0138983Y0116667D01*
X0141546Y0117729D01*
X0142595Y0118778D01*
X0143644Y0117729D01*
X0146208Y0116667D01*
X0148983Y0116667D01*
X0151546Y0117729D01*
X0152595Y0118778D01*
X0153644Y0117729D01*
X0156208Y0116667D01*
X0158983Y0116667D01*
X0161546Y0117729D01*
X0162595Y0118778D01*
X0163644Y0117729D01*
X0166208Y0116667D01*
X0168983Y0116667D01*
X0171546Y0117729D01*
X0172595Y0118778D01*
X0173644Y0117729D01*
X0176208Y0116667D01*
X0178983Y0116667D01*
X0181546Y0117729D01*
X0183508Y0119691D01*
X0183553Y0119800D01*
X0183963Y0119390D01*
X0184673Y0118874D01*
X0185455Y0118475D01*
X0186290Y0118204D01*
X0187156Y0118067D01*
X0187595Y0118067D01*
X0187595Y0126216D01*
X0187595Y0126216D01*
X0187595Y0118067D01*
X0188034Y0118067D01*
X0188901Y0118204D01*
X0189735Y0118475D01*
X0190517Y0118874D01*
X0191227Y0119390D01*
X0191637Y0119800D01*
X0191682Y0119691D01*
X0193644Y0117729D01*
X0196208Y0116667D01*
X0198983Y0116667D01*
X0201546Y0117729D01*
X0202595Y0118778D01*
X0203644Y0117729D01*
X0206208Y0116667D01*
X0208983Y0116667D01*
X0211546Y0117729D01*
X0212595Y0118778D01*
X0213644Y0117729D01*
X0216208Y0116667D01*
X0218983Y0116667D01*
X0221546Y0117729D01*
X0223508Y0119691D01*
X0224570Y0122254D01*
X0224570Y0130179D01*
X0223508Y0132742D01*
X0221546Y0134704D01*
X0218983Y0135766D01*
X0216208Y0135766D01*
X0213644Y0134704D01*
X0212595Y0133655D01*
X0211546Y0134704D01*
X0208983Y0135766D01*
X0206208Y0135766D01*
X0203644Y0134704D01*
X0202595Y0133655D01*
X0201546Y0134704D01*
X0198983Y0135766D01*
X0196208Y0135766D01*
X0193644Y0134704D01*
X0191682Y0132742D01*
X0191637Y0132633D01*
X0191227Y0133044D01*
X0190517Y0133559D01*
X0189735Y0133958D01*
X0188901Y0134229D01*
X0188034Y0134366D01*
X0187595Y0134366D01*
X0187156Y0134366D01*
X0186290Y0134229D01*
X0185455Y0133958D01*
X0184673Y0133559D01*
X0183963Y0133044D01*
X0183553Y0132633D01*
X0183508Y0132742D01*
X0183038Y0133213D01*
X0183038Y0145959D01*
X0184135Y0147056D01*
X0185338Y0149960D01*
X0185338Y0153103D01*
X0184166Y0155931D01*
X0198075Y0155931D01*
X0198607Y0155400D01*
X0200224Y0154730D01*
X0205911Y0154730D01*
X0206414Y0154938D01*
X0206917Y0154730D01*
X0212604Y0154730D01*
X0214221Y0155400D01*
X0215459Y0156638D01*
X0216129Y0158255D01*
X0216129Y0164336D01*
X0215459Y0165953D01*
X0215360Y0166052D01*
X0215360Y0168397D01*
X0215775Y0169396D01*
X0215775Y0174296D01*
X0215105Y0175914D01*
X0213867Y0177151D01*
X0212250Y0177821D01*
X0207350Y0177821D01*
X0205733Y0177151D01*
X0205003Y0176421D01*
X0203894Y0176421D01*
X0202024Y0176421D01*
X0201444Y0176306D01*
X0200899Y0176080D01*
X0200407Y0175752D01*
X0199989Y0175334D01*
X0199661Y0174842D01*
X0199435Y0174296D01*
X0199320Y0173717D01*
X0199320Y0171847D01*
X0203825Y0171847D01*
X0203825Y0171846D01*
X0199320Y0171846D01*
X0199320Y0169976D01*
X0199435Y0169397D01*
X0199661Y0168851D01*
X0199989Y0168359D01*
X0200407Y0167941D01*
X0200528Y0167861D01*
X0200224Y0167861D01*
X0198607Y0167191D01*
X0198547Y0167131D01*
X0183010Y0167131D01*
X0182582Y0167559D01*
X0182854Y0167913D01*
X0183280Y0168650D01*
X0183606Y0169438D01*
X0183826Y0170261D01*
X0183938Y0171105D01*
X0183938Y0171531D01*
X0177438Y0171531D01*
X0177438Y0171532D01*
X0177438Y0171532D01*
X0177438Y0178031D01*
X0177864Y0178031D01*
X0178708Y0177920D01*
X0179531Y0177700D01*
X0180319Y0177374D01*
X0181057Y0176948D01*
X0181733Y0176429D01*
X0182335Y0175826D01*
X0182854Y0175150D01*
X0183280Y0174413D01*
X0183606Y0173625D01*
X0183826Y0172802D01*
X0183938Y0171958D01*
X0183938Y0171532D01*
X0177438Y0171532D01*
X0177438Y0178031D01*
X0177012Y0178031D01*
X0176167Y0177920D01*
X0175344Y0177700D01*
X0174557Y0177374D01*
X0173819Y0176948D01*
X0173143Y0176429D01*
X0172540Y0175826D01*
X0172438Y0175693D01*
X0172335Y0175826D01*
X0171733Y0176429D01*
X0171057Y0176948D01*
X0170319Y0177374D01*
X0169531Y0177700D01*
X0168708Y0177920D01*
X0167864Y0178031D01*
X0167438Y0178031D01*
X0167438Y0171532D01*
X0167438Y0171532D01*
X0177438Y0171532D01*
X0177438Y0171531D01*
X0170938Y0171531D01*
X0167438Y0171531D01*
X0167438Y0171532D01*
X0167438Y0178031D01*
X0167012Y0178031D01*
X0166167Y0177920D01*
X0165344Y0177700D01*
X0164557Y0177374D01*
X0163819Y0176948D01*
X0163143Y0176429D01*
X0162540Y0175826D01*
X0162438Y0175693D01*
X0162335Y0175826D01*
X0161733Y0176429D01*
X0161057Y0176948D01*
X0160319Y0177374D01*
X0159531Y0177700D01*
X0158708Y0177920D01*
X0157864Y0178031D01*
X0157438Y0178031D01*
X0157438Y0171532D01*
X0157438Y0171532D01*
X0167438Y0171532D01*
X0167438Y0171531D01*
X0163938Y0171531D01*
X0157438Y0171531D01*
X0157438Y0171532D01*
X0157438Y0178031D01*
X0157012Y0178031D01*
X0156167Y0177920D01*
X0155344Y0177700D01*
X0154557Y0177374D01*
X0153819Y0176948D01*
X0153143Y0176429D01*
X0152540Y0175826D01*
X0152438Y0175693D01*
X0152335Y0175826D01*
X0151733Y0176429D01*
X0151057Y0176948D01*
X0150319Y0177374D01*
X0149531Y0177700D01*
X0148708Y0177920D01*
X0147864Y0178031D01*
X0147438Y0178031D01*
X0147438Y0171532D01*
X0147438Y0171532D01*
X0157438Y0171532D01*
X0157438Y0171531D01*
X0150938Y0171531D01*
X0147438Y0171531D01*
X0147438Y0171532D01*
X0147438Y0178031D01*
X0147012Y0178031D01*
X0146167Y0177920D01*
X0145344Y0177700D01*
X0144557Y0177374D01*
X0143819Y0176948D01*
X0143143Y0176429D01*
X0142540Y0175826D01*
X0142438Y0175693D01*
X0142335Y0175826D01*
X0141733Y0176429D01*
X0141057Y0176948D01*
X0140319Y0177374D01*
X0139531Y0177700D01*
X0138708Y0177920D01*
X0137864Y0178031D01*
X0137438Y0178031D01*
X0137438Y0171532D01*
X0137438Y0171532D01*
X0147438Y0171532D01*
X0147438Y0171531D01*
X0140938Y0171531D01*
X0137438Y0171531D01*
X0137438Y0171532D01*
X0137438Y0178031D01*
X0137012Y0178031D01*
X0136167Y0177920D01*
X0135344Y0177700D01*
X0134557Y0177374D01*
X0133819Y0176948D01*
X0133143Y0176429D01*
X0132540Y0175826D01*
X0132438Y0175693D01*
X0132335Y0175826D01*
X0131733Y0176429D01*
X0131057Y0176948D01*
X0130319Y0177374D01*
X0129531Y0177700D01*
X0128708Y0177920D01*
X0127864Y0178031D01*
X0127438Y0178031D01*
X0127438Y0171532D01*
X0127438Y0171532D01*
X0137438Y0171532D01*
X0137438Y0171531D01*
X0130938Y0171531D01*
X0127438Y0171531D01*
X0127438Y0171532D01*
X0127438Y0178031D01*
X0127012Y0178031D01*
X0126167Y0177920D01*
X0125344Y0177700D01*
X0124557Y0177374D01*
X0123819Y0176948D01*
X0123143Y0176429D01*
X0122540Y0175826D01*
X0122438Y0175693D01*
X0122335Y0175826D01*
X0121733Y0176429D01*
X0121057Y0176948D01*
X0120319Y0177374D01*
X0119531Y0177700D01*
X0118708Y0177920D01*
X0117864Y0178031D01*
X0117438Y0178031D01*
X0117438Y0171532D01*
X0117438Y0171532D01*
X0127438Y0171532D01*
X0127438Y0171531D01*
X0120938Y0171531D01*
X0117438Y0171531D01*
X0117438Y0171532D01*
X0117438Y0178031D01*
X0117012Y0178031D01*
X0116167Y0177920D01*
X0115344Y0177700D01*
X0114557Y0177374D01*
X0113819Y0176948D01*
X0113143Y0176429D01*
X0112540Y0175826D01*
X0112438Y0175693D01*
X0112335Y0175826D01*
X0111733Y0176429D01*
X0111057Y0176948D01*
X0110319Y0177374D01*
X0109531Y0177700D01*
X0108708Y0177920D01*
X0107864Y0178031D01*
X0107438Y0178031D01*
X0107438Y0171532D01*
X0107438Y0171532D01*
X0117438Y0171532D01*
X0117438Y0171531D01*
X0110938Y0171531D01*
X0107438Y0171531D01*
X0107438Y0171532D01*
X0107438Y0178031D01*
X0107012Y0178031D01*
X0106167Y0177920D01*
X0105344Y0177700D01*
X0104557Y0177374D01*
X0103819Y0176948D01*
X0103143Y0176429D01*
X0102540Y0175826D01*
X0102438Y0175693D01*
X0102335Y0175826D01*
X0101733Y0176429D01*
X0101057Y0176948D01*
X0100319Y0177374D01*
X0099531Y0177700D01*
X0098708Y0177920D01*
X0097864Y0178031D01*
X0097438Y0178031D01*
X0097438Y0171532D01*
X0097438Y0171532D01*
X0107438Y0171532D01*
X0107438Y0171531D01*
X0100938Y0171531D01*
X0097438Y0171531D01*
X0097438Y0171532D01*
X0097438Y0178031D01*
X0097012Y0178031D01*
X0096167Y0177920D01*
X0095344Y0177700D01*
X0094557Y0177374D01*
X0093819Y0176948D01*
X0093143Y0176429D01*
X0092540Y0175826D01*
X0092438Y0175693D01*
X0092335Y0175826D01*
X0091733Y0176429D01*
X0091057Y0176948D01*
X0090319Y0177374D01*
X0089531Y0177700D01*
X0088708Y0177920D01*
X0087864Y0178031D01*
X0087438Y0178031D01*
X0087438Y0171532D01*
X0087438Y0171532D01*
X0097438Y0171532D01*
X0097438Y0171531D01*
X0093938Y0171531D01*
X0087438Y0171531D01*
X0087438Y0171532D01*
X0087438Y0178031D01*
X0087012Y0178031D01*
X0086167Y0177920D01*
X0085344Y0177700D01*
X0084557Y0177374D01*
X0083819Y0176948D01*
X0083143Y0176429D01*
X0082540Y0175826D01*
X0082438Y0175693D01*
X0082335Y0175826D01*
X0081733Y0176429D01*
X0081057Y0176948D01*
X0080319Y0177374D01*
X0079531Y0177700D01*
X0078708Y0177920D01*
X0077864Y0178031D01*
X0077438Y0178031D01*
X0077438Y0171532D01*
X0077438Y0171532D01*
X0087438Y0171532D01*
X0087438Y0171531D01*
X0080938Y0171531D01*
X0077438Y0171531D01*
X0077438Y0171532D01*
X0077438Y0178031D01*
X0077012Y0178031D01*
X0076167Y0177920D01*
X0075344Y0177700D01*
X0074557Y0177374D01*
X0073819Y0176948D01*
X0073143Y0176429D01*
X0072540Y0175826D01*
X0072438Y0175693D01*
X0072335Y0175826D01*
X0071733Y0176429D01*
X0071057Y0176948D01*
X0070319Y0177374D01*
X0069531Y0177700D01*
X0068708Y0177920D01*
X0067864Y0178031D01*
X0067438Y0178031D01*
X0067438Y0171532D01*
X0067438Y0171532D01*
X0077438Y0171532D01*
X0077438Y0171531D01*
X0070938Y0171531D01*
X0067438Y0171531D01*
X0067438Y0171532D01*
X0067438Y0178031D01*
X0067012Y0178031D01*
X0066167Y0177920D01*
X0065344Y0177700D01*
X0064557Y0177374D01*
X0063819Y0176948D01*
X0063143Y0176429D01*
X0062540Y0175826D01*
X0062022Y0175150D01*
X0061595Y0174413D01*
X0061269Y0173625D01*
X0061049Y0172802D01*
X0060938Y0171958D01*
X0060938Y0171532D01*
X0067438Y0171532D01*
X0067438Y0171531D01*
X0060938Y0171531D01*
X0060938Y0171105D01*
X0061049Y0170261D01*
X0061269Y0169438D01*
X0061513Y0168850D01*
X0056557Y0168850D01*
X0053910Y0167753D01*
X0046491Y0160334D01*
X0045395Y0157688D01*
X0045395Y0029824D01*
X0046491Y0027177D01*
X0051491Y0022177D01*
X0053517Y0020152D01*
X0056163Y0019056D01*
X0058999Y0019056D01*
X0058691Y0018310D01*
X0058470Y0017487D01*
X0058359Y0016643D01*
X0058359Y0016217D01*
X0064859Y0016217D01*
X0074859Y0016217D01*
X0084859Y0016217D01*
X0094859Y0016217D01*
X0094859Y0016216D01*
X0094859Y0009717D01*
X0095285Y0009717D01*
X0096130Y0009828D01*
X0096953Y0010048D01*
X0097740Y0010374D01*
X0098478Y0010800D01*
X0099154Y0011319D01*
X0099756Y0011922D01*
X0100275Y0012598D01*
X0100701Y0013335D01*
X0101027Y0014123D01*
X0101213Y0014817D01*
X0101213Y0013603D01*
X0105021Y0009795D01*
X0107713Y0009795D01*
X0107713Y0016295D01*
X0107713Y0016295D01*
X0107713Y0009795D01*
X0110406Y0009795D01*
X0112713Y0012103D01*
X0115021Y0009795D01*
X0117713Y0009795D01*
X0117713Y0016295D01*
X0117713Y0016295D01*
X0111213Y0016295D01*
X0107713Y0016295D01*
X0107713Y0016295D01*
X0117713Y0016295D01*
X0117713Y0016295D01*
X0117713Y0009795D01*
X0120406Y0009795D01*
X0122713Y0012103D01*
X0125021Y0009795D01*
X0127713Y0009795D01*
X0127713Y0016295D01*
X0127713Y0016295D01*
X0121213Y0016295D01*
X0117713Y0016295D01*
X0117713Y0016295D01*
X0127713Y0016295D01*
X0127713Y0016295D01*
X0127713Y0009795D01*
X0130406Y0009795D01*
X0132713Y0012103D01*
X0135021Y0009795D01*
X0137713Y0009795D01*
X0137713Y0016295D01*
X0137713Y0016295D01*
X0131213Y0016295D01*
X0127713Y0016295D01*
X0127713Y0016295D01*
X0137713Y0016295D01*
X0137713Y0016295D01*
X0137713Y0009795D01*
X0140406Y0009795D01*
X0142713Y0012103D01*
X0145021Y0009795D01*
X0147713Y0009795D01*
X0147713Y0016295D01*
X0147713Y0016295D01*
X0141213Y0016295D01*
X0137713Y0016295D01*
X0137713Y0016295D01*
X0147713Y0016295D01*
X0147713Y0016295D01*
X0147713Y0009795D01*
X0150406Y0009795D01*
X0152713Y0012103D01*
X0155021Y0009795D01*
X0157713Y0009795D01*
X0157713Y0016295D01*
X0157713Y0016295D01*
X0154213Y0016295D01*
X0147713Y0016295D01*
X0147713Y0016295D01*
X0157713Y0016295D01*
X0157713Y0016295D01*
X0157713Y0009795D01*
X0160406Y0009795D01*
X0162713Y0012103D01*
X0165021Y0009795D01*
X0167713Y0009795D01*
X0167713Y0016295D01*
X0167713Y0016295D01*
X0161213Y0016295D01*
X0157713Y0016295D01*
X0157713Y0016295D01*
X0167713Y0016295D01*
X0167713Y0016295D01*
X0167713Y0009795D01*
X0170406Y0009795D01*
X0172713Y0012103D01*
X0175021Y0009795D01*
X0177713Y0009795D01*
X0177713Y0016295D01*
X0177713Y0016295D01*
X0171213Y0016295D01*
X0167713Y0016295D01*
X0167713Y0016295D01*
X0177713Y0016295D01*
X0177713Y0016295D01*
X0177713Y0009795D01*
X0180406Y0009795D01*
X0184213Y0013603D01*
X0184213Y0016295D01*
X0177713Y0016295D01*
X0177713Y0016295D01*
X0184213Y0016295D01*
X0184213Y0018988D01*
X0183909Y0019292D01*
X0198673Y0019292D01*
X0200680Y0020124D01*
X0201266Y0020124D01*
X0202883Y0020793D01*
X0204121Y0022031D01*
X0204790Y0023648D01*
X0204790Y0029336D01*
X0204121Y0030953D01*
X0202883Y0032191D01*
X0201266Y0032861D01*
X0200680Y0032861D01*
X0198673Y0033692D01*
X0185503Y0033692D01*
X0185503Y0039556D01*
X0180875Y0044183D01*
X0174330Y0044183D01*
X0172603Y0042456D01*
X0170875Y0044183D01*
X0164330Y0044183D01*
X0162603Y0042456D01*
X0160875Y0044183D01*
X0154330Y0044183D01*
X0152603Y0042456D01*
X0150875Y0044183D01*
X0144330Y0044183D01*
X0142603Y0042456D01*
X0140875Y0044183D01*
X0134330Y0044183D01*
X0132603Y0042456D01*
X0130875Y0044183D01*
X0124330Y0044183D01*
X0122603Y0042456D01*
X0120875Y0044183D01*
X0114330Y0044183D01*
X0112603Y0042456D01*
X0110875Y0044183D01*
X0104330Y0044183D01*
X0101335Y0041188D01*
X0101267Y0041256D01*
X0101792Y0041781D01*
X0102995Y0044684D01*
X0102995Y0047827D01*
X0101792Y0050731D01*
X0099570Y0052953D01*
X0096667Y0054156D01*
X0093524Y0054156D01*
X0090620Y0052953D01*
X0090095Y0052428D01*
X0089570Y0052953D01*
X0086667Y0054156D01*
X0083524Y0054156D01*
X0080620Y0052953D01*
X0080095Y0052428D01*
X0079570Y0052953D01*
X0076667Y0054156D01*
X0073524Y0054156D01*
X0070620Y0052953D01*
X0070095Y0052428D01*
X0069570Y0052953D01*
X0066667Y0054156D01*
X0063524Y0054156D01*
X0060620Y0052953D01*
X0059795Y0052128D01*
X0059795Y0085402D01*
X0060433Y0085034D01*
X0063561Y0084196D01*
X0066799Y0084196D01*
X0069927Y0085034D01*
X0071995Y0086228D01*
X0071995Y0073055D01*
X0071682Y0072742D01*
X0070620Y0070179D01*
X0070620Y0062254D01*
X0071682Y0059691D01*
X0073644Y0057729D01*
X0076208Y0056667D01*
X0078983Y0056667D01*
X0081546Y0057729D01*
X0082595Y0058778D01*
X0083644Y0057729D01*
X0086208Y0056667D01*
X0088983Y0056667D01*
X0091546Y0057729D01*
X0092595Y0058778D01*
X0093644Y0057729D01*
X0096208Y0056667D01*
X0098983Y0056667D01*
X0101546Y0057729D01*
X0102595Y0058778D01*
X0103644Y0057729D01*
X0106208Y0056667D01*
X0108983Y0056667D01*
X0111546Y0057729D01*
X0112595Y0058778D01*
X0113644Y0057729D01*
X0116208Y0056667D01*
X0118983Y0056667D01*
X0121546Y0057729D01*
X0122595Y0058778D01*
X0123644Y0057729D01*
X0126208Y0056667D01*
X0128983Y0056667D01*
X0131546Y0057729D01*
X0132595Y0058778D01*
X0133644Y0057729D01*
X0136208Y0056667D01*
X0138983Y0056667D01*
X0141546Y0057729D01*
X0142595Y0058778D01*
X0143644Y0057729D01*
X0146208Y0056667D01*
X0148983Y0056667D01*
X0151546Y0057729D01*
X0152595Y0058778D01*
X0153644Y0057729D01*
X0156208Y0056667D01*
X0158983Y0056667D01*
X0161546Y0057729D01*
X0162595Y0058778D01*
X0163644Y0057729D01*
X0166208Y0056667D01*
X0168983Y0056667D01*
X0171546Y0057729D01*
X0172595Y0058778D01*
X0173644Y0057729D01*
X0176208Y0056667D01*
X0178983Y0056667D01*
X0181546Y0057729D01*
X0182595Y0058778D01*
X0183644Y0057729D01*
X0186208Y0056667D01*
X0188983Y0056667D01*
X0191546Y0057729D01*
X0192595Y0058778D01*
X0193644Y0057729D01*
X0196208Y0056667D01*
X0198983Y0056667D01*
X0201546Y0057729D01*
X0203508Y0059691D01*
X0203553Y0059800D01*
X0203963Y0059390D01*
X0204673Y0058874D01*
X0205455Y0058475D01*
X0205654Y0058411D01*
X0199888Y0052645D01*
X0195610Y0052645D01*
X0192596Y0051396D01*
X0190289Y0049090D01*
X0189041Y0046076D01*
X0189041Y0042814D01*
X0190289Y0039800D01*
X0192596Y0037493D01*
X0195610Y0036245D01*
X0204915Y0036245D01*
X0207929Y0037493D01*
X0210776Y0040340D01*
X0210776Y0037468D01*
X0223981Y0037468D01*
X0223981Y0033469D01*
X0210776Y0033469D01*
X0210776Y0024543D01*
X0210892Y0023964D01*
X0211118Y0023418D01*
X0211446Y0022926D01*
X0211864Y0022508D01*
X0212355Y0022180D01*
X0212901Y0021954D01*
X0213481Y0021839D01*
X0223981Y0021839D01*
X0223981Y0033468D01*
X0227981Y0033468D01*
X0227981Y0021839D01*
X0238481Y0021839D01*
X0239061Y0021954D01*
X0239607Y0022180D01*
X0240098Y0022508D01*
X0240516Y0022926D01*
X0240844Y0023418D01*
X0241070Y0023964D01*
X0241186Y0024543D01*
X0239633Y0022198D02*
X0254895Y0022198D01*
X0254895Y0018199D02*
X0184213Y0018199D01*
X0184213Y0014201D02*
X0255112Y0014201D01*
X0257759Y0010202D02*
X0180813Y0010202D01*
X0177713Y0010202D02*
X0177713Y0010202D01*
X0174614Y0010202D02*
X0170813Y0010202D01*
X0167713Y0010202D02*
X0167713Y0010202D01*
X0164614Y0010202D02*
X0160813Y0010202D01*
X0157713Y0010202D02*
X0157713Y0010202D01*
X0154614Y0010202D02*
X0150813Y0010202D01*
X0147713Y0010202D02*
X0147713Y0010202D01*
X0144614Y0010202D02*
X0140813Y0010202D01*
X0137713Y0010202D02*
X0137713Y0010202D01*
X0134614Y0010202D02*
X0130813Y0010202D01*
X0127713Y0010202D02*
X0127713Y0010202D01*
X0124614Y0010202D02*
X0120813Y0010202D01*
X0117713Y0010202D02*
X0117713Y0010202D01*
X0114614Y0010202D02*
X0110813Y0010202D01*
X0107713Y0010202D02*
X0107713Y0010202D01*
X0104614Y0010202D02*
X0097325Y0010202D01*
X0094859Y0010202D02*
X0094859Y0010202D01*
X0094859Y0009717D02*
X0094859Y0016216D01*
X0094859Y0016216D01*
X0088359Y0016216D01*
X0084859Y0016216D01*
X0084859Y0009717D01*
X0085285Y0009717D01*
X0086130Y0009828D01*
X0086953Y0010048D01*
X0087740Y0010374D01*
X0088478Y0010800D01*
X0089154Y0011319D01*
X0089756Y0011922D01*
X0089859Y0012055D01*
X0089961Y0011922D01*
X0090564Y0011319D01*
X0091240Y0010800D01*
X0091978Y0010374D01*
X0092765Y0010048D01*
X0093588Y0009828D01*
X0094433Y0009717D01*
X0094859Y0009717D01*
X0092393Y0010202D02*
X0087325Y0010202D01*
X0084859Y0010202D02*
X0084859Y0010202D01*
X0084859Y0009717D02*
X0084859Y0016216D01*
X0084859Y0016216D01*
X0084859Y0016217D01*
X0084859Y0016216D01*
X0078359Y0016216D01*
X0074859Y0016216D01*
X0074859Y0009717D01*
X0075285Y0009717D01*
X0076130Y0009828D01*
X0076953Y0010048D01*
X0077740Y0010374D01*
X0078478Y0010800D01*
X0079154Y0011319D01*
X0079756Y0011922D01*
X0079859Y0012055D01*
X0079961Y0011922D01*
X0080564Y0011319D01*
X0081240Y0010800D01*
X0081978Y0010374D01*
X0082765Y0010048D01*
X0083588Y0009828D01*
X0084433Y0009717D01*
X0084859Y0009717D01*
X0082393Y0010202D02*
X0077325Y0010202D01*
X0074859Y0010202D02*
X0074859Y0010202D01*
X0074859Y0009717D02*
X0074859Y0016216D01*
X0074859Y0016216D01*
X0074859Y0016217D01*
X0074859Y0016216D01*
X0068359Y0016216D01*
X0064859Y0016216D01*
X0064859Y0009717D01*
X0065285Y0009717D01*
X0066130Y0009828D01*
X0066953Y0010048D01*
X0067740Y0010374D01*
X0068478Y0010800D01*
X0069154Y0011319D01*
X0069756Y0011922D01*
X0069859Y0012055D01*
X0069961Y0011922D01*
X0070564Y0011319D01*
X0071240Y0010800D01*
X0071978Y0010374D01*
X0072765Y0010048D01*
X0073588Y0009828D01*
X0074433Y0009717D01*
X0074859Y0009717D01*
X0072393Y0010202D02*
X0067325Y0010202D01*
X0064859Y0010202D02*
X0064859Y0010202D01*
X0064859Y0009717D02*
X0064859Y0016216D01*
X0064859Y0016216D01*
X0064859Y0016217D01*
X0064859Y0016216D01*
X0058359Y0016216D01*
X0058359Y0015790D01*
X0058470Y0014946D01*
X0058691Y0014123D01*
X0059017Y0013335D01*
X0059443Y0012598D01*
X0059961Y0011922D01*
X0060564Y0011319D01*
X0061240Y0010800D01*
X0061978Y0010374D01*
X0062765Y0010048D01*
X0063588Y0009828D01*
X0064433Y0009717D01*
X0064859Y0009717D01*
X0062393Y0010202D02*
X0043595Y0010202D01*
X0043595Y0007256D02*
X0043595Y0180256D01*
X0341595Y0180256D01*
X0341595Y0180062D01*
X0341595Y0007256D01*
X0043595Y0007256D01*
X0043595Y0014201D02*
X0058670Y0014201D01*
X0058661Y0018199D02*
X0043595Y0018199D01*
X0043595Y0022198D02*
X0051471Y0022198D01*
X0047472Y0026196D02*
X0043595Y0026196D01*
X0043595Y0030195D02*
X0045395Y0030195D01*
X0045395Y0034193D02*
X0043595Y0034193D01*
X0043595Y0038192D02*
X0045395Y0038192D01*
X0045395Y0042190D02*
X0043595Y0042190D01*
X0043595Y0046189D02*
X0045395Y0046189D01*
X0045395Y0050187D02*
X0043595Y0050187D01*
X0043595Y0054186D02*
X0045395Y0054186D01*
X0045395Y0058184D02*
X0043595Y0058184D01*
X0043595Y0062183D02*
X0045395Y0062183D01*
X0045395Y0066181D02*
X0043595Y0066181D01*
X0043595Y0070180D02*
X0045395Y0070180D01*
X0045395Y0074178D02*
X0043595Y0074178D01*
X0043595Y0078177D02*
X0045395Y0078177D01*
X0045395Y0082176D02*
X0043595Y0082176D01*
X0043595Y0086174D02*
X0045395Y0086174D01*
X0045395Y0090173D02*
X0043595Y0090173D01*
X0043595Y0094171D02*
X0045395Y0094171D01*
X0045395Y0098170D02*
X0043595Y0098170D01*
X0043595Y0102168D02*
X0045395Y0102168D01*
X0045395Y0106167D02*
X0043595Y0106167D01*
X0043595Y0110165D02*
X0045395Y0110165D01*
X0045395Y0114164D02*
X0043595Y0114164D01*
X0043595Y0118162D02*
X0045395Y0118162D01*
X0045395Y0122161D02*
X0043595Y0122161D01*
X0043595Y0126159D02*
X0045395Y0126159D01*
X0045395Y0130158D02*
X0043595Y0130158D01*
X0043595Y0134156D02*
X0045395Y0134156D01*
X0045395Y0138155D02*
X0043595Y0138155D01*
X0043595Y0142153D02*
X0045395Y0142153D01*
X0045395Y0146152D02*
X0043595Y0146152D01*
X0043595Y0150150D02*
X0045395Y0150150D01*
X0045395Y0154149D02*
X0043595Y0154149D01*
X0043595Y0158147D02*
X0045585Y0158147D01*
X0043595Y0162146D02*
X0048303Y0162146D01*
X0052301Y0166144D02*
X0043595Y0166144D01*
X0043595Y0170143D02*
X0061080Y0170143D01*
X0061483Y0174141D02*
X0043595Y0174141D01*
X0043595Y0178140D02*
X0322149Y0178140D01*
X0323564Y0178519D02*
X0320436Y0177681D01*
X0317632Y0176062D01*
X0315342Y0173772D01*
X0313723Y0170967D01*
X0312885Y0167839D01*
X0312885Y0164601D01*
X0313723Y0161473D01*
X0315342Y0158668D01*
X0317632Y0156378D01*
X0320436Y0154759D01*
X0323564Y0153921D01*
X0326803Y0153921D01*
X0329931Y0154759D01*
X0332736Y0156378D01*
X0335026Y0158668D01*
X0336645Y0161473D01*
X0337483Y0164601D01*
X0337483Y0167839D01*
X0336645Y0170967D01*
X0335026Y0173772D01*
X0332736Y0176062D01*
X0329931Y0177681D01*
X0326803Y0178519D01*
X0323564Y0178519D01*
X0328219Y0178140D02*
X0341595Y0178140D01*
X0341595Y0174141D02*
X0334656Y0174141D01*
X0336866Y0170143D02*
X0341595Y0170143D01*
X0341595Y0166144D02*
X0337483Y0166144D01*
X0336825Y0162146D02*
X0341595Y0162146D01*
X0341595Y0158147D02*
X0334505Y0158147D01*
X0327654Y0154149D02*
X0341595Y0154149D01*
X0341595Y0150150D02*
X0287300Y0150150D01*
X0290138Y0154149D02*
X0322713Y0154149D01*
X0315863Y0158147D02*
X0290138Y0158147D01*
X0287359Y0162146D02*
X0313542Y0162146D01*
X0312885Y0166144D02*
X0280138Y0166144D01*
X0279361Y0170143D02*
X0313502Y0170143D01*
X0315711Y0174141D02*
X0215775Y0174141D01*
X0215775Y0170143D02*
X0265514Y0170143D01*
X0264738Y0166144D02*
X0215360Y0166144D01*
X0216129Y0162146D02*
X0257517Y0162146D01*
X0254738Y0158147D02*
X0216084Y0158147D01*
X0199320Y0170143D02*
X0183795Y0170143D01*
X0183392Y0174141D02*
X0199404Y0174141D01*
X0203894Y0174464D02*
X0203894Y0176421D01*
X0203894Y0174464D01*
X0203894Y0174464D01*
X0177438Y0174141D02*
X0177438Y0174141D01*
X0167438Y0174141D02*
X0167438Y0174141D01*
X0157438Y0174141D02*
X0157438Y0174141D01*
X0147438Y0174141D02*
X0147438Y0174141D01*
X0137438Y0174141D02*
X0137438Y0174141D01*
X0127438Y0174141D02*
X0127438Y0174141D01*
X0117438Y0174141D02*
X0117438Y0174141D01*
X0107438Y0174141D02*
X0107438Y0174141D01*
X0097438Y0174141D02*
X0097438Y0174141D01*
X0087438Y0174141D02*
X0087438Y0174141D01*
X0077438Y0174141D02*
X0077438Y0174141D01*
X0067438Y0174141D02*
X0067438Y0174141D01*
X0081979Y0118162D02*
X0083211Y0118162D01*
X0077607Y0114164D02*
X0256995Y0114164D01*
X0256995Y0118162D02*
X0221979Y0118162D01*
X0224531Y0122161D02*
X0256995Y0122161D01*
X0256995Y0126159D02*
X0224570Y0126159D01*
X0224570Y0130158D02*
X0256995Y0130158D01*
X0256995Y0134156D02*
X0222094Y0134156D01*
X0213096Y0134156D02*
X0212094Y0134156D01*
X0203096Y0134156D02*
X0202094Y0134156D01*
X0193096Y0134156D02*
X0189124Y0134156D01*
X0187595Y0134156D02*
X0187595Y0134156D01*
X0187595Y0134366D02*
X0187595Y0126217D01*
X0187595Y0134366D01*
X0186066Y0134156D02*
X0183038Y0134156D01*
X0187595Y0130158D02*
X0187595Y0130158D01*
X0187595Y0126217D02*
X0187595Y0126217D01*
X0187595Y0126159D02*
X0187595Y0126159D01*
X0187595Y0122161D02*
X0187595Y0122161D01*
X0187595Y0118162D02*
X0187595Y0118162D01*
X0186555Y0118162D02*
X0181979Y0118162D01*
X0188635Y0118162D02*
X0193211Y0118162D01*
X0201979Y0118162D02*
X0203211Y0118162D01*
X0211979Y0118162D02*
X0213211Y0118162D01*
X0183038Y0138155D02*
X0256995Y0138155D01*
X0256995Y0142153D02*
X0183038Y0142153D01*
X0183230Y0146152D02*
X0256995Y0146152D01*
X0256995Y0150150D02*
X0185338Y0150150D01*
X0184904Y0154149D02*
X0254738Y0154149D01*
X0268195Y0150150D02*
X0277575Y0150150D01*
X0274738Y0154149D02*
X0270138Y0154149D01*
X0270138Y0158147D02*
X0274738Y0158147D01*
X0268195Y0146152D02*
X0341595Y0146152D01*
X0341595Y0142153D02*
X0268195Y0142153D01*
X0268195Y0138155D02*
X0341595Y0138155D01*
X0341595Y0134156D02*
X0268195Y0134156D01*
X0268195Y0130158D02*
X0316424Y0130158D01*
X0317595Y0130158D02*
X0317595Y0130158D01*
X0318766Y0130158D02*
X0341595Y0130158D01*
X0341595Y0126159D02*
X0324167Y0126159D01*
X0324895Y0122949D02*
X0317595Y0122949D01*
X0317595Y0122949D01*
X0324895Y0122949D01*
X0324854Y0122161D02*
X0341595Y0122161D01*
X0341595Y0118162D02*
X0323124Y0118162D01*
X0324904Y0114164D02*
X0341595Y0114164D01*
X0341595Y0110165D02*
X0326295Y0110165D01*
X0325768Y0106167D02*
X0341595Y0106167D01*
X0341595Y0102168D02*
X0323120Y0102168D01*
X0325861Y0098170D02*
X0341595Y0098170D01*
X0341595Y0094171D02*
X0326295Y0094171D01*
X0326295Y0090173D02*
X0341595Y0090173D01*
X0341595Y0086174D02*
X0326295Y0086174D01*
X0326295Y0082176D02*
X0341595Y0082176D01*
X0341595Y0078177D02*
X0325737Y0078177D01*
X0325801Y0074178D02*
X0341595Y0074178D01*
X0341595Y0070180D02*
X0326295Y0070180D01*
X0326295Y0066181D02*
X0341595Y0066181D01*
X0341595Y0062183D02*
X0326295Y0062183D01*
X0326074Y0058184D02*
X0341595Y0058184D01*
X0341595Y0054186D02*
X0323636Y0054186D01*
X0323993Y0050187D02*
X0341595Y0050187D01*
X0341595Y0046189D02*
X0324895Y0046189D01*
X0317595Y0046189D02*
X0317595Y0046189D01*
X0317595Y0042190D02*
X0317595Y0042190D01*
X0323360Y0042190D02*
X0341595Y0042190D01*
X0341595Y0038192D02*
X0270284Y0038192D01*
X0270284Y0042190D02*
X0311830Y0042190D01*
X0310295Y0046189D02*
X0270284Y0046189D01*
X0270284Y0050187D02*
X0311197Y0050187D01*
X0311554Y0054186D02*
X0270284Y0054186D01*
X0270284Y0058184D02*
X0309116Y0058184D01*
X0308895Y0062183D02*
X0270284Y0062183D01*
X0270284Y0066181D02*
X0308895Y0066181D01*
X0275102Y0094171D02*
X0272741Y0094171D01*
X0272812Y0098170D02*
X0279973Y0098170D01*
X0284844Y0102168D02*
X0270148Y0102168D01*
X0268195Y0106167D02*
X0289715Y0106167D01*
X0294586Y0110165D02*
X0268195Y0110165D01*
X0268195Y0114164D02*
X0299457Y0114164D01*
X0312067Y0118162D02*
X0268195Y0118162D01*
X0268195Y0122161D02*
X0310336Y0122161D01*
X0311023Y0126159D02*
X0268195Y0126159D01*
X0256995Y0110165D02*
X0081606Y0110165D01*
X0083195Y0106167D02*
X0256995Y0106167D01*
X0255042Y0102168D02*
X0083195Y0102168D01*
X0083195Y0098170D02*
X0252378Y0098170D01*
X0252449Y0094171D02*
X0083195Y0094171D01*
X0083195Y0090173D02*
X0253208Y0090173D01*
X0252195Y0086174D02*
X0083195Y0086174D01*
X0083195Y0082176D02*
X0231918Y0082176D01*
X0227920Y0078177D02*
X0083195Y0078177D01*
X0071995Y0078177D02*
X0059795Y0078177D01*
X0059795Y0074178D02*
X0071995Y0074178D01*
X0070621Y0070180D02*
X0059795Y0070180D01*
X0059795Y0066181D02*
X0070620Y0066181D01*
X0070650Y0062183D02*
X0059795Y0062183D01*
X0059795Y0058184D02*
X0073189Y0058184D01*
X0082002Y0058184D02*
X0083189Y0058184D01*
X0092002Y0058184D02*
X0093189Y0058184D01*
X0102002Y0058184D02*
X0103189Y0058184D01*
X0112002Y0058184D02*
X0113189Y0058184D01*
X0122002Y0058184D02*
X0123189Y0058184D01*
X0132002Y0058184D02*
X0133189Y0058184D01*
X0142002Y0058184D02*
X0143189Y0058184D01*
X0152002Y0058184D02*
X0153189Y0058184D01*
X0162002Y0058184D02*
X0163189Y0058184D01*
X0172002Y0058184D02*
X0173189Y0058184D01*
X0182002Y0058184D02*
X0183189Y0058184D01*
X0192002Y0058184D02*
X0193189Y0058184D01*
X0202002Y0058184D02*
X0205427Y0058184D01*
X0201429Y0054186D02*
X0059795Y0054186D01*
X0092072Y0074178D02*
X0093118Y0074178D01*
X0102072Y0074178D02*
X0103118Y0074178D01*
X0112072Y0074178D02*
X0113118Y0074178D01*
X0122072Y0074178D02*
X0123118Y0074178D01*
X0132072Y0074178D02*
X0133118Y0074178D01*
X0142072Y0074178D02*
X0143118Y0074178D01*
X0152072Y0074178D02*
X0153118Y0074178D01*
X0162072Y0074178D02*
X0163118Y0074178D01*
X0172072Y0074178D02*
X0173118Y0074178D01*
X0182072Y0074178D02*
X0183118Y0074178D01*
X0192072Y0074178D02*
X0193118Y0074178D01*
X0202072Y0074178D02*
X0206135Y0074178D01*
X0207595Y0074178D02*
X0207595Y0074178D01*
X0207595Y0074366D02*
X0207595Y0066217D01*
X0207595Y0074366D01*
X0209056Y0074178D02*
X0213118Y0074178D01*
X0207595Y0070180D02*
X0207595Y0070180D01*
X0207595Y0066217D02*
X0207595Y0066217D01*
X0222072Y0074178D02*
X0224930Y0074178D01*
X0240795Y0066181D02*
X0254884Y0066181D01*
X0254884Y0062183D02*
X0240795Y0062183D01*
X0240198Y0058184D02*
X0254884Y0058184D01*
X0254884Y0054186D02*
X0237122Y0054186D01*
X0233123Y0050187D02*
X0254884Y0050187D01*
X0254884Y0046189D02*
X0241186Y0046189D01*
X0241186Y0042190D02*
X0254884Y0042190D01*
X0254884Y0038192D02*
X0241186Y0038192D01*
X0241186Y0030195D02*
X0254884Y0030195D01*
X0254884Y0034193D02*
X0227981Y0034193D01*
X0227981Y0030195D02*
X0223981Y0030195D01*
X0223981Y0034193D02*
X0185503Y0034193D01*
X0185503Y0038192D02*
X0191897Y0038192D01*
X0189299Y0042190D02*
X0182868Y0042190D01*
X0189088Y0046189D02*
X0102995Y0046189D01*
X0102337Y0042190D02*
X0101962Y0042190D01*
X0102018Y0050187D02*
X0191387Y0050187D01*
X0208628Y0038192D02*
X0210776Y0038192D01*
X0210776Y0030195D02*
X0204435Y0030195D01*
X0204790Y0026196D02*
X0210776Y0026196D01*
X0212329Y0022198D02*
X0204190Y0022198D01*
X0223981Y0022198D02*
X0227981Y0022198D01*
X0227981Y0026196D02*
X0223981Y0026196D01*
X0267431Y0010202D02*
X0270839Y0010202D01*
X0272595Y0010202D02*
X0272595Y0010202D01*
X0274351Y0010202D02*
X0277759Y0010202D01*
X0272595Y0014201D02*
X0272595Y0014201D01*
X0287431Y0010202D02*
X0319642Y0010202D01*
X0320425Y0009750D02*
X0323553Y0008912D01*
X0326792Y0008912D01*
X0329920Y0009750D01*
X0332724Y0011370D01*
X0335014Y0013660D01*
X0336634Y0016464D01*
X0337472Y0019592D01*
X0337472Y0022831D01*
X0336634Y0025959D01*
X0335014Y0028763D01*
X0332724Y0031053D01*
X0329920Y0032672D01*
X0326792Y0033511D01*
X0323553Y0033511D01*
X0320425Y0032672D01*
X0317621Y0031053D01*
X0315331Y0028763D01*
X0313711Y0025959D01*
X0312873Y0022831D01*
X0312873Y0019592D01*
X0313711Y0016464D01*
X0315331Y0013660D01*
X0317621Y0011370D01*
X0320425Y0009750D01*
X0315018Y0014201D02*
X0290078Y0014201D01*
X0290125Y0018199D02*
X0313246Y0018199D01*
X0312873Y0022198D02*
X0289248Y0022198D01*
X0290284Y0026196D02*
X0313849Y0026196D01*
X0316762Y0030195D02*
X0289277Y0030195D01*
X0272584Y0030195D02*
X0272584Y0030195D01*
X0272584Y0032531D02*
X0272584Y0026231D01*
X0272584Y0032531D01*
X0270284Y0034193D02*
X0341595Y0034193D01*
X0341595Y0030195D02*
X0333583Y0030195D01*
X0336496Y0026196D02*
X0341595Y0026196D01*
X0341595Y0022198D02*
X0337472Y0022198D01*
X0337098Y0018199D02*
X0341595Y0018199D01*
X0341595Y0014201D02*
X0335327Y0014201D01*
X0330703Y0010202D02*
X0341595Y0010202D01*
X0272584Y0026231D02*
X0272584Y0026231D01*
X0177713Y0014201D02*
X0177713Y0014201D01*
X0167713Y0014201D02*
X0167713Y0014201D01*
X0157713Y0014201D02*
X0157713Y0014201D01*
X0147713Y0014201D02*
X0147713Y0014201D01*
X0137713Y0014201D02*
X0137713Y0014201D01*
X0127713Y0014201D02*
X0127713Y0014201D01*
X0117713Y0014201D02*
X0117713Y0014201D01*
X0107713Y0014201D02*
X0107713Y0014201D01*
X0101213Y0014201D02*
X0101048Y0014201D01*
X0094859Y0014201D02*
X0094859Y0014201D01*
X0084859Y0014201D02*
X0084859Y0014201D01*
X0074859Y0014201D02*
X0074859Y0014201D01*
X0064859Y0014201D02*
X0064859Y0014201D01*
X0059795Y0082176D02*
X0071995Y0082176D01*
X0071995Y0086174D02*
X0071902Y0086174D01*
X0091979Y0118162D02*
X0093211Y0118162D01*
X0101979Y0118162D02*
X0103211Y0118162D01*
X0111979Y0118162D02*
X0113211Y0118162D01*
X0121979Y0118162D02*
X0123211Y0118162D01*
X0131979Y0118162D02*
X0133211Y0118162D01*
X0141979Y0118162D02*
X0143211Y0118162D01*
X0151979Y0118162D02*
X0153211Y0118162D01*
X0161979Y0118162D02*
X0163211Y0118162D01*
X0171979Y0118162D02*
X0173211Y0118162D01*
X0317595Y0126159D02*
X0317595Y0126159D01*
D23*
X0262595Y0156020D02*
X0262595Y0096256D01*
X0177595Y0126217D02*
X0177438Y0126374D01*
X0177438Y0151531D01*
X0167595Y0151374D02*
X0167438Y0151531D01*
X0167595Y0151374D02*
X0167595Y0126217D01*
X0157595Y0126217D02*
X0157438Y0126374D01*
X0157438Y0151531D01*
X0147595Y0151374D02*
X0147438Y0151531D01*
X0147595Y0151374D02*
X0147595Y0126217D01*
X0137595Y0126217D02*
X0137438Y0126374D01*
X0137438Y0151531D01*
X0127595Y0151374D02*
X0127438Y0151531D01*
X0127595Y0151374D02*
X0127595Y0126217D01*
X0117595Y0126217D02*
X0117438Y0126374D01*
X0117438Y0151531D01*
X0107595Y0151374D02*
X0107438Y0151531D01*
X0107595Y0151374D02*
X0107595Y0126217D01*
X0097595Y0126217D02*
X0097438Y0126374D01*
X0097438Y0151531D01*
X0087595Y0151374D02*
X0087438Y0151531D01*
X0087595Y0151374D02*
X0087595Y0126217D01*
X0077595Y0126217D02*
X0077438Y0126374D01*
X0077438Y0151531D01*
X0067438Y0151531D02*
X0067438Y0116413D01*
X0077595Y0106256D01*
X0077595Y0066217D01*
X0177438Y0161531D02*
X0202831Y0161531D01*
X0203068Y0161295D01*
X0209760Y0161295D02*
X0209760Y0171807D01*
X0209800Y0171846D01*
X0262438Y0156177D02*
X0262595Y0156020D01*
D24*
X0262595Y0076256D02*
X0257595Y0076256D01*
X0252595Y0076256D01*
X0237595Y0076256D01*
X0232595Y0071256D01*
X0232595Y0061256D01*
X0225095Y0053756D01*
X0217595Y0053756D01*
X0212595Y0053756D01*
X0203284Y0044445D01*
X0197241Y0044445D01*
D25*
X0217595Y0053756D02*
X0217595Y0066217D01*
D26*
X0262595Y0076256D02*
X0312595Y0076256D01*
X0317595Y0081256D01*
X0317595Y0095390D01*
X0312595Y0076256D02*
X0317595Y0071256D01*
X0317595Y0060449D01*
X0317595Y0066256D01*
D27*
X0305509Y0109169D02*
X0277595Y0086256D01*
X0262595Y0086256D01*
X0262595Y0076256D02*
X0262584Y0076245D01*
X0262584Y0026231D01*
X0262595Y0026220D01*
X0262595Y0016256D01*
X0305509Y0109169D02*
X0317595Y0109169D01*
X0177438Y0161531D02*
X0167438Y0161531D01*
X0157438Y0161531D01*
X0147438Y0161531D01*
X0137438Y0161531D01*
X0127438Y0161531D01*
X0117438Y0161531D01*
X0107438Y0161531D01*
X0097438Y0161531D01*
X0087438Y0161531D01*
X0077438Y0161531D01*
X0067438Y0161531D01*
X0067320Y0161650D01*
D28*
X0057989Y0161650D01*
X0052595Y0156256D01*
X0052595Y0031256D01*
X0057595Y0026256D01*
X0065095Y0026256D01*
X0075095Y0026256D01*
X0085095Y0026256D01*
X0095095Y0026256D01*
X0092629Y0026289D01*
X0107621Y0026289D01*
X0117621Y0026289D01*
X0127621Y0026289D01*
X0137621Y0026289D01*
X0137655Y0026256D01*
X0147655Y0026256D01*
X0147621Y0026289D01*
X0147655Y0026256D02*
X0157595Y0026256D01*
X0157629Y0026289D01*
X0167621Y0026289D01*
X0177621Y0026289D01*
X0177824Y0026492D01*
X0197241Y0026492D01*
D29*
X0064855Y0151531D02*
X0064791Y0151467D01*
M02*
