%
M48
M72
T01C0.03150
T02C0.03200
T03C0.03937
T04C0.04000
T05C0.12598
%
T01
X77595Y66217
X87595Y66217
X97595Y66217
X107595Y66217
X117595Y66217
X127595Y66217
X137595Y66217
X147595Y66217
X157595Y66217
X167595Y66217
X177595Y66217
X187595Y66217
X197595Y66217
X207595Y66217
X217595Y66217
X217595Y126217
X207595Y126217
X197595Y126217
X187595Y126217
X177595Y126217
X167595Y126217
X157595Y126217
X147595Y126217
X137595Y126217
X127595Y126217
X117595Y126217
X107595Y126217
X97595Y126217
X87595Y126217
X77595Y126217
T02
X262438Y156177
X272438Y166177
X282438Y156177
T03
X317595Y122949
X317595Y109169
X317595Y95390
X317595Y60449
X317595Y46669
T04
X64859Y16217
X74859Y16217
X84859Y16217
X94859Y16217
X95095Y26256
X85095Y26256
X75095Y26256
X65095Y26256
X65095Y36256
X75095Y36256
X85095Y36256
X95095Y36256
X107603Y36283
X117603Y36283
X127603Y36283
X137603Y36283
X147603Y36283
X157603Y36283
X167603Y36283
X177603Y36283
X177621Y26289
X167621Y26289
X167713Y16295
X177713Y16295
X157713Y16295
X147713Y16295
X147621Y26289
X157621Y26289
X137621Y26289
X127621Y26289
X117621Y26289
X117713Y16295
X127713Y16295
X137713Y16295
X107713Y16295
X107621Y26289
X95095Y46256
X85095Y46256
X75095Y46256
X65095Y46256
X67438Y151531
X77438Y151531
X87438Y151531
X97438Y151531
X107438Y151531
X117438Y151531
X127438Y151531
X137438Y151531
X147438Y151531
X157438Y151531
X167438Y151531
X177438Y151531
X177438Y161531
X167438Y161531
X157438Y161531
X147438Y161531
X137438Y161531
X127438Y161531
X117438Y161531
X107438Y161531
X97438Y161531
X87438Y161531
X77438Y161531
X67438Y161531
X67438Y171531
X77438Y171531
X87438Y171531
X97438Y171531
X107438Y171531
X117438Y171531
X127438Y171531
X137438Y171531
X147438Y171531
X157438Y171531
X167438Y171531
X177438Y171531
X262595Y96256
X262595Y86256
X262595Y76256
X262584Y26231
X262595Y16256
X272595Y16256
X282595Y16256
X282584Y26231
X272584Y26231
T05
X325173Y21211
X325184Y166220
X65180Y96495
M30
