G75*
%MOIN*%
%OFA0B0*%
%FSLAX25Y25*%
%IPPOS*%
%LPD*%
%AMOC8*
5,1,8,0,0,1.08239X$1,22.5*
%
%ADD10C,0.00200*%
%ADD11C,0.00400*%
%ADD12R,0.00192X0.00048*%
%ADD13R,0.01152X0.00048*%
%ADD14R,0.00480X0.00048*%
%ADD15R,0.00384X0.00048*%
%ADD16R,0.00432X0.00048*%
%ADD17R,0.00240X0.00048*%
%ADD18R,0.00288X0.00048*%
%ADD19R,0.01152X0.00048*%
%ADD20R,0.00480X0.00048*%
%ADD21R,0.00384X0.00048*%
%ADD22R,0.01104X0.00048*%
%ADD23R,0.00336X0.00048*%
%ADD24R,0.00096X0.00048*%
%ADD25R,0.00720X0.00048*%
%ADD26R,0.00768X0.00048*%
%ADD27R,0.00432X0.00048*%
%ADD28R,0.00336X0.00048*%
%ADD29R,0.00288X0.00048*%
%ADD30R,0.00240X0.00048*%
%ADD31R,0.00384X0.00048*%
%ADD32R,0.01104X0.00048*%
%ADD33R,0.00144X0.00048*%
%ADD34R,0.00864X0.00048*%
%ADD35R,0.00912X0.00048*%
%ADD36R,0.00192X0.00048*%
%ADD37R,0.00528X0.00048*%
%ADD38R,0.01056X0.00048*%
%ADD39R,0.01104X0.00048*%
%ADD40R,0.00240X0.00048*%
%ADD41R,0.00768X0.00048*%
%ADD42R,0.01200X0.00048*%
%ADD43R,0.00816X0.00048*%
%ADD44R,0.01296X0.00048*%
%ADD45R,0.01344X0.00048*%
%ADD46R,0.00528X0.00048*%
%ADD47R,0.00624X0.00048*%
%ADD48R,0.00816X0.00048*%
%ADD49R,0.01344X0.00048*%
%ADD50R,0.01440X0.00048*%
%ADD51R,0.00528X0.00048*%
%ADD52R,0.00528X0.00048*%
%ADD53R,0.01536X0.00048*%
%ADD54R,0.00576X0.00048*%
%ADD55R,0.00576X0.00048*%
%ADD56R,0.01488X0.00048*%
%ADD57R,0.00384X0.00048*%
%ADD58R,0.01296X0.00048*%
%ADD59R,0.01584X0.00048*%
%ADD60R,0.00576X0.00048*%
%ADD61R,0.00672X0.00048*%
%ADD62R,0.00624X0.00048*%
%ADD63R,0.01440X0.00048*%
%ADD64R,0.00720X0.00048*%
%ADD65R,0.00672X0.00048*%
%ADD66R,0.00048X0.00048*%
%ADD67R,0.00720X0.00048*%
%ADD68R,0.00576X0.00048*%
%ADD69R,0.00096X0.00048*%
%ADD70R,0.00912X0.00048*%
%ADD71R,0.01248X0.00048*%
%ADD72R,0.01104X0.00048*%
%ADD73R,0.01248X0.00048*%
%ADD74R,0.01200X0.00048*%
%ADD75R,0.01248X0.00048*%
%ADD76R,0.00864X0.00048*%
%ADD77R,0.00912X0.00048*%
%ADD78R,0.01056X0.00048*%
%ADD79R,0.00960X0.00048*%
%ADD80R,0.01056X0.00048*%
%ADD81R,0.01008X0.00048*%
%ADD82R,0.00960X0.00048*%
%ADD83R,0.02016X0.00048*%
%ADD84R,0.00912X0.00048*%
%ADD85R,0.02016X0.00048*%
%ADD86R,0.00240X0.00048*%
%ADD87R,0.00144X0.00048*%
%ADD88R,0.00048X0.00048*%
%ADD89R,0.01632X0.00048*%
%ADD90R,0.01440X0.00048*%
%ADD91R,0.01440X0.00048*%
%ADD92R,0.01392X0.00048*%
%ADD93R,0.00720X0.00048*%
%ADD94R,0.01008X0.00048*%
%ADD95R,0.00192X0.00048*%
%ADD96R,0.02256X0.00048*%
%ADD97R,0.02208X0.00048*%
%ADD98R,0.02304X0.00048*%
%ADD99R,0.02256X0.00048*%
%ADD100R,0.02208X0.00048*%
%ADD101R,0.02304X0.00048*%
%ADD102R,0.02256X0.00048*%
%ADD103R,0.00864X0.00048*%
%ADD104R,0.01392X0.00048*%
%ADD105R,0.01488X0.00048*%
%ADD106R,0.01584X0.00048*%
%ADD107R,0.01680X0.00048*%
%ADD108R,0.01776X0.00048*%
%ADD109R,0.03264X0.00048*%
%ADD110R,0.01776X0.00048*%
%ADD111R,0.03216X0.00048*%
%ADD112R,0.01872X0.00048*%
%ADD113R,0.03168X0.00048*%
%ADD114R,0.01920X0.00048*%
%ADD115R,0.03120X0.00048*%
%ADD116R,0.01968X0.00048*%
%ADD117R,0.03024X0.00048*%
%ADD118R,0.03024X0.00048*%
%ADD119R,0.02064X0.00048*%
%ADD120R,0.02976X0.00048*%
%ADD121R,0.01056X0.00048*%
%ADD122R,0.02928X0.00048*%
%ADD123R,0.00048X0.00048*%
%ADD124R,0.02928X0.00048*%
%ADD125R,0.02832X0.00048*%
%ADD126R,0.01680X0.00048*%
%ADD127R,0.02832X0.00048*%
%ADD128R,0.02544X0.00048*%
%ADD129R,0.01872X0.00048*%
%ADD130R,0.02736X0.00048*%
%ADD131R,0.02496X0.00048*%
%ADD132R,0.02736X0.00048*%
%ADD133R,0.01392X0.00048*%
%ADD134R,0.02496X0.00048*%
%ADD135R,0.02064X0.00048*%
%ADD136R,0.02688X0.00048*%
%ADD137R,0.02448X0.00048*%
%ADD138R,0.02112X0.00048*%
%ADD139R,0.02592X0.00048*%
%ADD140R,0.02400X0.00048*%
%ADD141R,0.02256X0.00048*%
%ADD142R,0.02400X0.00048*%
%ADD143R,0.01584X0.00048*%
%ADD144R,0.01632X0.00048*%
%ADD145R,0.02448X0.00048*%
%ADD146R,0.02448X0.00048*%
%ADD147R,0.01728X0.00048*%
%ADD148R,0.02064X0.00048*%
%ADD149R,0.02112X0.00048*%
%ADD150R,0.01824X0.00048*%
%ADD151R,0.02592X0.00048*%
%ADD152R,0.02640X0.00048*%
%ADD153R,0.02640X0.00048*%
%ADD154R,0.02688X0.00048*%
%ADD155R,0.00768X0.00048*%
%ADD156R,0.01584X0.00048*%
%ADD157R,0.02064X0.00048*%
%ADD158R,0.01824X0.00048*%
%ADD159R,0.01776X0.00048*%
%ADD160R,0.01728X0.00048*%
%ADD161R,0.01728X0.00048*%
%ADD162R,0.01536X0.00048*%
%ADD163R,0.01392X0.00048*%
%ADD164R,0.02448X0.00048*%
%ADD165R,0.02352X0.00048*%
%ADD166R,0.02352X0.00048*%
%ADD167R,0.02160X0.00048*%
%ADD168R,0.02160X0.00048*%
%ADD169R,0.01920X0.00048*%
%ADD170R,0.00048X0.00048*%
%ADD171R,0.06480X0.00048*%
%ADD172R,0.21072X0.00048*%
%ADD173R,0.21072X0.00048*%
%ADD174R,0.20448X0.00048*%
%ADD175R,0.20400X0.00048*%
%ADD176R,0.20400X0.00048*%
%ADD177R,0.20448X0.00048*%
%ADD178R,0.15456X0.00048*%
%ADD179R,0.15456X0.00048*%
%ADD180R,0.02112X0.00048*%
%ADD181R,0.01920X0.00048*%
%ADD182R,0.07872X0.00048*%
%ADD183R,0.07824X0.00048*%
%ADD184R,0.07728X0.00048*%
%ADD185R,0.07680X0.00048*%
%ADD186R,0.07632X0.00048*%
%ADD187R,0.07632X0.00048*%
%ADD188R,0.07584X0.00048*%
%ADD189R,0.07536X0.00048*%
%ADD190R,0.07536X0.00048*%
%ADD191R,0.07488X0.00048*%
%ADD192R,0.07488X0.00048*%
%ADD193R,0.07440X0.00048*%
%ADD194R,0.07440X0.00048*%
%ADD195R,0.07392X0.00048*%
%ADD196R,0.07392X0.00048*%
%ADD197R,0.07344X0.00048*%
%ADD198R,0.07344X0.00048*%
%ADD199R,0.00192X0.00048*%
%ADD200R,0.02544X0.00048*%
%ADD201R,0.02640X0.00048*%
%ADD202R,0.01776X0.00048*%
%ADD203R,0.03072X0.00048*%
%ADD204R,0.02976X0.00048*%
%ADD205R,0.02880X0.00048*%
%ADD206R,0.02880X0.00048*%
%ADD207R,0.02784X0.00048*%
%ADD208R,0.01968X0.00048*%
%ADD209C,0.00500*%
%ADD210C,0.00600*%
%ADD211C,0.00800*%
%ADD212R,0.03000X0.03400*%
%ADD213R,0.01181X0.00591*%
%ADD214R,0.01181X0.01181*%
%ADD215C,0.00700*%
%ADD216R,0.03000X0.42000*%
%ADD217R,0.02000X0.07500*%
%ADD218R,0.02000X0.03000*%
D10*
X0106720Y0030358D02*
X0107454Y0031092D01*
X0108922Y0031092D01*
X0108922Y0031834D02*
X0108555Y0031834D01*
X0107087Y0033301D01*
X0106720Y0033301D01*
X0106720Y0031834D01*
X0107821Y0031092D02*
X0107821Y0029624D01*
X0107454Y0029624D02*
X0106720Y0030358D01*
X0107454Y0029624D02*
X0108922Y0029624D01*
X0116096Y0030682D02*
X0116830Y0031416D01*
X0118298Y0031416D01*
X0117931Y0032158D02*
X0118298Y0032525D01*
X0118298Y0033258D01*
X0117931Y0033625D01*
X0117564Y0033625D01*
X0117197Y0033258D01*
X0117197Y0032158D01*
X0117931Y0032158D01*
X0117197Y0032158D02*
X0116463Y0032892D01*
X0116096Y0033625D01*
X0117197Y0031416D02*
X0117197Y0029948D01*
X0116830Y0029948D02*
X0118298Y0029948D01*
X0116830Y0029948D02*
X0116096Y0030682D01*
X0126119Y0030599D02*
X0126853Y0031332D01*
X0128321Y0031332D01*
X0127954Y0032074D02*
X0128321Y0032441D01*
X0128321Y0033175D01*
X0127954Y0033542D01*
X0127220Y0033542D01*
X0126853Y0033175D01*
X0126853Y0032808D01*
X0127220Y0032074D01*
X0126119Y0032074D01*
X0126119Y0033542D01*
X0127220Y0031332D02*
X0127220Y0029865D01*
X0126853Y0029865D02*
X0126119Y0030599D01*
X0126853Y0029865D02*
X0128321Y0029865D01*
X0135934Y0030601D02*
X0136668Y0031335D01*
X0138136Y0031335D01*
X0137035Y0031335D02*
X0137035Y0029867D01*
X0136668Y0029867D02*
X0135934Y0030601D01*
X0136668Y0029867D02*
X0138136Y0029867D01*
X0137035Y0032077D02*
X0137035Y0033545D01*
X0138136Y0033178D02*
X0135934Y0033178D01*
X0137035Y0032077D01*
X0146142Y0032351D02*
X0146142Y0031617D01*
X0146509Y0031250D01*
X0146876Y0030508D02*
X0148344Y0030508D01*
X0147977Y0031250D02*
X0148344Y0031617D01*
X0148344Y0032351D01*
X0147977Y0032718D01*
X0147610Y0032718D01*
X0147243Y0032351D01*
X0147243Y0031984D01*
X0147243Y0032351D02*
X0146876Y0032718D01*
X0146509Y0032718D01*
X0146142Y0032351D01*
X0146876Y0030508D02*
X0146142Y0029774D01*
X0146876Y0029040D01*
X0148344Y0029040D01*
X0147243Y0029040D02*
X0147243Y0030508D01*
X0156917Y0030358D02*
X0157651Y0031092D01*
X0159118Y0031092D01*
X0159118Y0031834D02*
X0157651Y0033301D01*
X0157284Y0033301D01*
X0156917Y0032934D01*
X0156917Y0032200D01*
X0157284Y0031834D01*
X0158018Y0031092D02*
X0158018Y0029624D01*
X0157651Y0029624D02*
X0156917Y0030358D01*
X0157651Y0029624D02*
X0159118Y0029624D01*
X0159118Y0031834D02*
X0159118Y0033301D01*
X0166263Y0030680D02*
X0168465Y0030680D01*
X0168465Y0029946D02*
X0168465Y0031414D01*
X0166997Y0029946D02*
X0166263Y0030680D01*
X0166997Y0029204D02*
X0168465Y0029204D01*
X0167364Y0029204D02*
X0167364Y0027736D01*
X0166997Y0027736D02*
X0168465Y0027736D01*
X0166997Y0027736D02*
X0166263Y0028470D01*
X0166997Y0029204D01*
X0176176Y0029832D02*
X0176176Y0030566D01*
X0176543Y0030933D01*
X0178011Y0029465D01*
X0178378Y0029832D01*
X0178378Y0030566D01*
X0178011Y0030933D01*
X0176543Y0030933D01*
X0176176Y0029832D02*
X0176543Y0029465D01*
X0178011Y0029465D01*
X0178378Y0028723D02*
X0176910Y0028723D01*
X0176176Y0027989D01*
X0176910Y0027255D01*
X0178378Y0027255D01*
X0177277Y0027255D02*
X0177277Y0028723D01*
X0271199Y0099255D02*
X0271933Y0098521D01*
X0272667Y0099255D01*
X0272667Y0100723D01*
X0273409Y0100723D02*
X0274143Y0100723D01*
X0273776Y0100723D02*
X0273776Y0098521D01*
X0273409Y0098521D02*
X0274143Y0098521D01*
X0274882Y0098521D02*
X0274882Y0100723D01*
X0276350Y0098521D01*
X0276350Y0100723D01*
X0271199Y0100723D02*
X0271199Y0099255D01*
D11*
X0270758Y0047038D02*
X0269891Y0046171D01*
X0269891Y0043569D01*
X0275095Y0043569D01*
X0275095Y0046171D01*
X0274228Y0047038D01*
X0270758Y0047038D01*
X0265095Y0045320D02*
X0259891Y0045320D01*
X0259891Y0041850D02*
X0265095Y0045320D01*
X0265095Y0041850D02*
X0259891Y0041850D01*
X0259891Y0040147D02*
X0259891Y0038412D01*
X0259891Y0039280D02*
X0265095Y0039280D01*
X0265095Y0040147D02*
X0265095Y0038412D01*
X0263360Y0036726D02*
X0259891Y0036726D01*
X0263360Y0036726D02*
X0265095Y0034991D01*
X0263360Y0033256D01*
X0259891Y0033256D01*
X0269891Y0034123D02*
X0270758Y0033256D01*
X0274228Y0033256D01*
X0275095Y0034123D01*
X0275095Y0035858D01*
X0274228Y0036726D01*
X0272493Y0036726D01*
X0272493Y0034991D01*
X0270758Y0036726D02*
X0269891Y0035858D01*
X0269891Y0034123D01*
X0269891Y0038412D02*
X0275095Y0041882D01*
X0269891Y0041882D01*
X0269891Y0038412D02*
X0275095Y0038412D01*
X0279891Y0038412D02*
X0279891Y0041015D01*
X0280758Y0041882D01*
X0284228Y0041882D01*
X0285095Y0041015D01*
X0285095Y0038412D01*
X0279891Y0038412D01*
X0281626Y0036726D02*
X0279891Y0034991D01*
X0281626Y0033256D01*
X0285095Y0033256D01*
X0282493Y0033256D02*
X0282493Y0036726D01*
X0281626Y0036726D02*
X0285095Y0036726D01*
X0284228Y0043569D02*
X0285095Y0044436D01*
X0285095Y0045304D01*
X0284228Y0046171D01*
X0279891Y0046171D01*
X0279891Y0045304D02*
X0279891Y0047038D01*
X0179623Y0046156D02*
X0176554Y0046156D01*
X0175020Y0047691D01*
X0176554Y0049225D01*
X0179623Y0049225D01*
X0179623Y0050760D02*
X0178856Y0050760D01*
X0175787Y0053829D01*
X0175020Y0053829D01*
X0175020Y0050760D01*
X0177322Y0049225D02*
X0177322Y0046156D01*
X0169623Y0046156D02*
X0166554Y0046156D01*
X0165020Y0047691D01*
X0166554Y0049225D01*
X0169623Y0049225D01*
X0168856Y0050760D02*
X0169623Y0051527D01*
X0169623Y0053062D01*
X0168856Y0053829D01*
X0168089Y0053829D01*
X0167322Y0053062D01*
X0167322Y0050760D01*
X0168856Y0050760D01*
X0167322Y0050760D02*
X0165787Y0052294D01*
X0165020Y0053829D01*
X0167322Y0049225D02*
X0167322Y0046156D01*
X0139623Y0046156D02*
X0136554Y0046156D01*
X0135020Y0047691D01*
X0136554Y0049225D01*
X0139623Y0049225D01*
X0138856Y0050760D02*
X0139623Y0051527D01*
X0139623Y0053062D01*
X0138856Y0053829D01*
X0138089Y0053829D01*
X0137322Y0053062D01*
X0137322Y0052294D01*
X0137322Y0053062D02*
X0136554Y0053829D01*
X0135787Y0053829D01*
X0135020Y0053062D01*
X0135020Y0051527D01*
X0135787Y0050760D01*
X0137322Y0049225D02*
X0137322Y0046156D01*
X0129623Y0046156D02*
X0126554Y0046156D01*
X0125020Y0047691D01*
X0126554Y0049225D01*
X0129623Y0049225D01*
X0129623Y0050760D02*
X0126554Y0053829D01*
X0125787Y0053829D01*
X0125020Y0053062D01*
X0125020Y0051527D01*
X0125787Y0050760D01*
X0127322Y0049225D02*
X0127322Y0046156D01*
X0129623Y0050760D02*
X0129623Y0053829D01*
X0119623Y0053829D02*
X0119623Y0050760D01*
X0119623Y0052294D02*
X0115020Y0052294D01*
X0116554Y0050760D01*
X0116554Y0049225D02*
X0119623Y0049225D01*
X0117322Y0049225D02*
X0117322Y0046156D01*
X0116554Y0046156D02*
X0119623Y0046156D01*
X0116554Y0046156D02*
X0115020Y0047691D01*
X0116554Y0049225D01*
X0109623Y0049225D02*
X0106554Y0049225D01*
X0105020Y0047691D01*
X0106554Y0046156D01*
X0109623Y0046156D01*
X0107322Y0046156D02*
X0107322Y0049225D01*
X0108856Y0050760D02*
X0105787Y0050760D01*
X0105020Y0051527D01*
X0105020Y0053062D01*
X0105787Y0053829D01*
X0108856Y0050760D01*
X0109623Y0051527D01*
X0109623Y0053062D01*
X0108856Y0053829D01*
X0105787Y0053829D01*
X0069623Y0131552D02*
X0065020Y0131552D01*
X0065020Y0133854D01*
X0065787Y0134621D01*
X0068856Y0134621D01*
X0069623Y0133854D01*
X0069623Y0131552D01*
X0074620Y0133102D02*
X0074620Y0135404D01*
X0075387Y0136171D01*
X0078456Y0136171D01*
X0079223Y0135404D01*
X0079223Y0133102D01*
X0074620Y0133102D01*
X0069623Y0136156D02*
X0069623Y0139225D01*
X0069623Y0137691D02*
X0065020Y0137691D01*
X0066554Y0136156D01*
X0065787Y0140760D02*
X0065020Y0141527D01*
X0065020Y0143062D01*
X0065787Y0143829D01*
X0066554Y0143829D01*
X0067322Y0143062D01*
X0068089Y0143829D01*
X0068856Y0143829D01*
X0069623Y0143062D01*
X0069623Y0141527D01*
X0068856Y0140760D01*
X0067322Y0142294D02*
X0067322Y0143062D01*
X0074620Y0143077D02*
X0075387Y0142310D01*
X0074620Y0143077D02*
X0074620Y0144612D01*
X0075387Y0145379D01*
X0076154Y0145379D01*
X0079223Y0142310D01*
X0079223Y0145379D01*
X0079223Y0140775D02*
X0079223Y0137706D01*
X0079223Y0139241D02*
X0074620Y0139241D01*
X0076154Y0137706D01*
X0084820Y0136354D02*
X0084820Y0134052D01*
X0089423Y0134052D01*
X0089423Y0136354D01*
X0088656Y0137121D01*
X0085587Y0137121D01*
X0084820Y0136354D01*
X0086354Y0138656D02*
X0084820Y0140191D01*
X0089423Y0140191D01*
X0089423Y0141725D02*
X0089423Y0138656D01*
X0094620Y0139841D02*
X0099223Y0139841D01*
X0099223Y0141375D02*
X0099223Y0138306D01*
X0098456Y0136771D02*
X0095387Y0136771D01*
X0094620Y0136004D01*
X0094620Y0133702D01*
X0099223Y0133702D01*
X0099223Y0136004D01*
X0098456Y0136771D01*
X0096154Y0138306D02*
X0094620Y0139841D01*
X0095387Y0142910D02*
X0094620Y0143677D01*
X0094620Y0145212D01*
X0095387Y0145979D01*
X0098456Y0142910D01*
X0099223Y0143677D01*
X0099223Y0145212D01*
X0098456Y0145979D01*
X0095387Y0145979D01*
X0095387Y0142910D02*
X0098456Y0142910D01*
X0104820Y0141162D02*
X0104820Y0139627D01*
X0105587Y0138860D01*
X0106354Y0138860D01*
X0107122Y0139627D01*
X0107122Y0141929D01*
X0108656Y0141929D02*
X0105587Y0141929D01*
X0104820Y0141162D01*
X0108656Y0141929D02*
X0109423Y0141162D01*
X0109423Y0139627D01*
X0108656Y0138860D01*
X0108656Y0137325D02*
X0105587Y0137325D01*
X0104820Y0136558D01*
X0104820Y0134256D01*
X0109423Y0134256D01*
X0109423Y0136558D01*
X0108656Y0137325D01*
X0114820Y0136558D02*
X0114820Y0134256D01*
X0119423Y0134256D01*
X0119423Y0136558D01*
X0118656Y0137325D01*
X0115587Y0137325D01*
X0114820Y0136558D01*
X0115587Y0138860D02*
X0116354Y0138860D01*
X0117122Y0139627D01*
X0117122Y0141162D01*
X0117889Y0141929D01*
X0118656Y0141929D01*
X0119423Y0141162D01*
X0119423Y0139627D01*
X0118656Y0138860D01*
X0117889Y0138860D01*
X0117122Y0139627D01*
X0117122Y0141162D02*
X0116354Y0141929D01*
X0115587Y0141929D01*
X0114820Y0141162D01*
X0114820Y0139627D01*
X0115587Y0138860D01*
X0124820Y0138860D02*
X0124820Y0141929D01*
X0125587Y0141929D01*
X0128656Y0138860D01*
X0129423Y0138860D01*
X0128656Y0137325D02*
X0125587Y0137325D01*
X0124820Y0136558D01*
X0124820Y0134256D01*
X0129423Y0134256D01*
X0129423Y0136558D01*
X0128656Y0137325D01*
X0134820Y0136558D02*
X0134820Y0134256D01*
X0139423Y0134256D01*
X0139423Y0136558D01*
X0138656Y0137325D01*
X0135587Y0137325D01*
X0134820Y0136558D01*
X0137122Y0138860D02*
X0137122Y0141162D01*
X0137889Y0141929D01*
X0138656Y0141929D01*
X0139423Y0141162D01*
X0139423Y0139627D01*
X0138656Y0138860D01*
X0137122Y0138860D01*
X0135587Y0140394D01*
X0134820Y0141929D01*
X0144820Y0141929D02*
X0144820Y0138860D01*
X0147122Y0138860D01*
X0146354Y0140394D01*
X0146354Y0141162D01*
X0147122Y0141929D01*
X0148656Y0141929D01*
X0149423Y0141162D01*
X0149423Y0139627D01*
X0148656Y0138860D01*
X0148656Y0137325D02*
X0145587Y0137325D01*
X0144820Y0136558D01*
X0144820Y0134256D01*
X0149423Y0134256D01*
X0149423Y0136558D01*
X0148656Y0137325D01*
X0154820Y0136558D02*
X0154820Y0134256D01*
X0159423Y0134256D01*
X0159423Y0136558D01*
X0158656Y0137325D01*
X0155587Y0137325D01*
X0154820Y0136558D01*
X0157122Y0138860D02*
X0157122Y0141929D01*
X0159423Y0141162D02*
X0154820Y0141162D01*
X0157122Y0138860D01*
X0164820Y0139627D02*
X0164820Y0141162D01*
X0165587Y0141929D01*
X0166354Y0141929D01*
X0167122Y0141162D01*
X0167889Y0141929D01*
X0168656Y0141929D01*
X0169423Y0141162D01*
X0169423Y0139627D01*
X0168656Y0138860D01*
X0168656Y0137325D02*
X0165587Y0137325D01*
X0164820Y0136558D01*
X0164820Y0134256D01*
X0169423Y0134256D01*
X0169423Y0136558D01*
X0168656Y0137325D01*
X0165587Y0138860D02*
X0164820Y0139627D01*
X0167122Y0140394D02*
X0167122Y0141162D01*
X0174820Y0141162D02*
X0174820Y0139627D01*
X0175587Y0138860D01*
X0175587Y0137325D02*
X0174820Y0136558D01*
X0174820Y0134256D01*
X0179423Y0134256D01*
X0179423Y0136558D01*
X0178656Y0137325D01*
X0175587Y0137325D01*
X0174820Y0141162D02*
X0175587Y0141929D01*
X0176354Y0141929D01*
X0179423Y0138860D01*
X0179423Y0141929D01*
X0089423Y0143260D02*
X0089423Y0146329D01*
X0089423Y0144794D02*
X0084820Y0144794D01*
X0086354Y0143260D01*
D12*
X0138115Y0112112D03*
X0155347Y0105968D03*
X0157123Y0105968D03*
X0155539Y0102944D03*
X0151411Y0077648D03*
X0149923Y0077648D03*
X0149923Y0077600D03*
X0146851Y0077264D03*
X0139123Y0075872D03*
X0133747Y0077264D03*
X0158275Y0077264D03*
X0160675Y0075872D03*
D13*
X0162163Y0077600D03*
X0164227Y0077600D03*
X0157555Y0077600D03*
X0155923Y0077600D03*
X0155923Y0077648D03*
X0155923Y0077744D03*
X0155923Y0076112D03*
X0155923Y0076064D03*
X0155923Y0075968D03*
X0154579Y0080240D03*
X0152707Y0082064D03*
X0146131Y0077600D03*
X0144451Y0077600D03*
X0144451Y0077648D03*
X0144451Y0077744D03*
X0144451Y0077504D03*
X0144451Y0076112D03*
X0144451Y0076064D03*
X0144451Y0075968D03*
X0144451Y0075872D03*
X0140275Y0075872D03*
X0140275Y0075968D03*
X0140275Y0076064D03*
X0140275Y0076112D03*
X0140275Y0076208D03*
X0156259Y0104000D03*
X0158179Y0103712D03*
X0158179Y0103664D03*
D14*
X0137683Y0115040D03*
X0152371Y0082736D03*
X0144115Y0077408D03*
X0144115Y0076640D03*
X0144115Y0076208D03*
X0142483Y0076208D03*
X0142483Y0076304D03*
X0142483Y0076400D03*
X0142483Y0076448D03*
X0142483Y0076544D03*
X0142483Y0076640D03*
X0142483Y0077072D03*
X0142483Y0077168D03*
X0142483Y0077264D03*
X0142483Y0077312D03*
X0142483Y0077408D03*
X0141523Y0077408D03*
X0141523Y0077504D03*
X0141523Y0077600D03*
X0141523Y0077648D03*
X0141523Y0077744D03*
X0141523Y0077312D03*
X0141523Y0077264D03*
X0141523Y0077168D03*
X0141523Y0077072D03*
X0141523Y0076976D03*
X0141523Y0076880D03*
X0141523Y0076832D03*
X0141523Y0076736D03*
X0141523Y0076640D03*
X0141523Y0076544D03*
X0141523Y0076448D03*
X0141523Y0076400D03*
X0141523Y0076304D03*
X0141523Y0076208D03*
X0141523Y0076112D03*
X0141523Y0076064D03*
X0141523Y0075968D03*
X0141523Y0075872D03*
X0142483Y0075872D03*
X0142483Y0075968D03*
X0142483Y0076064D03*
X0142483Y0076112D03*
X0137155Y0076880D03*
X0133747Y0076880D03*
X0133219Y0076208D03*
X0129859Y0076208D03*
X0152659Y0076304D03*
X0159571Y0075968D03*
X0161443Y0076640D03*
X0161491Y0076544D03*
X0161443Y0076976D03*
X0163507Y0076976D03*
X0163555Y0077072D03*
X0163555Y0076544D03*
X0164227Y0075872D03*
X0164899Y0076544D03*
X0164947Y0076640D03*
X0164947Y0076976D03*
X0165955Y0076832D03*
X0165955Y0077504D03*
X0166723Y0076640D03*
X0167491Y0076832D03*
X0167491Y0077504D03*
D15*
X0162163Y0075872D03*
X0158227Y0076112D03*
X0158131Y0076304D03*
X0152323Y0082832D03*
X0138259Y0077312D03*
X0138163Y0077168D03*
X0137155Y0076976D03*
X0136099Y0077072D03*
X0135859Y0077648D03*
X0134995Y0077600D03*
X0134659Y0076880D03*
X0134659Y0076832D03*
X0134563Y0076640D03*
X0132835Y0076832D03*
X0132835Y0076880D03*
X0132787Y0076976D03*
X0132499Y0077600D03*
X0131491Y0077264D03*
X0131395Y0076976D03*
X0130387Y0076976D03*
X0129427Y0076976D03*
X0137731Y0114800D03*
X0137731Y0114848D03*
D16*
X0137707Y0114944D03*
X0149611Y0082880D03*
X0149611Y0082832D03*
X0149899Y0077408D03*
X0151531Y0077408D03*
X0151531Y0076832D03*
X0154939Y0079472D03*
X0159595Y0077648D03*
X0158059Y0076400D03*
X0157195Y0076400D03*
X0157195Y0076448D03*
X0161419Y0076736D03*
X0161419Y0076832D03*
X0161419Y0076880D03*
X0163483Y0076880D03*
X0163483Y0076832D03*
X0163483Y0076736D03*
X0163531Y0076640D03*
X0164971Y0076736D03*
X0164971Y0076832D03*
X0164971Y0076880D03*
X0164923Y0077072D03*
X0165931Y0076736D03*
X0165931Y0076640D03*
X0165931Y0076544D03*
X0165931Y0076448D03*
X0165931Y0076400D03*
X0165931Y0076304D03*
X0165931Y0076208D03*
X0165931Y0076112D03*
X0165931Y0076064D03*
X0165931Y0075968D03*
X0165931Y0075872D03*
X0167515Y0075872D03*
X0167515Y0075968D03*
X0167515Y0076064D03*
X0167515Y0076112D03*
X0167515Y0076208D03*
X0167515Y0076304D03*
X0167515Y0076400D03*
X0167515Y0076448D03*
X0167515Y0076544D03*
X0167515Y0076640D03*
X0167515Y0076736D03*
X0167371Y0079376D03*
X0144091Y0077312D03*
X0144091Y0077264D03*
X0144091Y0077168D03*
X0144091Y0077072D03*
X0144091Y0076544D03*
X0144091Y0076448D03*
X0144091Y0076400D03*
X0144091Y0076304D03*
X0139915Y0076304D03*
X0139915Y0076400D03*
X0139915Y0076448D03*
X0139915Y0076544D03*
X0139915Y0076640D03*
X0139915Y0076736D03*
X0139915Y0076832D03*
X0139915Y0076880D03*
X0139915Y0076976D03*
X0139915Y0077072D03*
X0139915Y0077168D03*
X0139915Y0077264D03*
X0139915Y0077312D03*
X0139915Y0077408D03*
X0139915Y0077504D03*
X0139915Y0077600D03*
X0139915Y0077648D03*
X0139915Y0077744D03*
X0137659Y0076112D03*
X0136603Y0076112D03*
X0134251Y0076112D03*
X0130939Y0076112D03*
X0130939Y0076064D03*
X0129883Y0076064D03*
X0129883Y0076112D03*
D17*
X0129883Y0075920D03*
X0130939Y0075920D03*
X0133195Y0075920D03*
X0133723Y0077216D03*
X0136603Y0075920D03*
X0139099Y0076160D03*
X0149515Y0076688D03*
X0149563Y0076784D03*
X0158299Y0077024D03*
X0158299Y0077120D03*
X0158299Y0077216D03*
X0159259Y0077360D03*
X0160651Y0076160D03*
X0162187Y0077792D03*
X0137803Y0094160D03*
X0137803Y0094256D03*
X0137803Y0094352D03*
X0137803Y0094496D03*
X0137803Y0094592D03*
X0137803Y0094688D03*
X0137803Y0094784D03*
X0137803Y0094928D03*
X0137803Y0095024D03*
X0137803Y0095120D03*
X0137803Y0095216D03*
X0137803Y0095360D03*
X0137803Y0095456D03*
X0137803Y0095552D03*
X0137803Y0095696D03*
X0137803Y0095792D03*
X0137803Y0095888D03*
X0137803Y0095984D03*
X0137803Y0096128D03*
X0137803Y0096224D03*
X0137803Y0096320D03*
X0137803Y0096416D03*
X0137803Y0096560D03*
X0137803Y0096656D03*
X0137803Y0096752D03*
X0137803Y0096896D03*
X0137803Y0096992D03*
X0137803Y0097088D03*
X0137803Y0097184D03*
X0137803Y0097328D03*
X0137803Y0097424D03*
X0137803Y0097520D03*
X0137803Y0097616D03*
X0137803Y0097760D03*
X0137803Y0097856D03*
X0137803Y0097952D03*
X0137803Y0098096D03*
X0137803Y0098192D03*
X0137803Y0098288D03*
X0137803Y0098384D03*
X0137803Y0098528D03*
X0137803Y0098624D03*
X0137803Y0098720D03*
X0137803Y0098816D03*
X0137803Y0098960D03*
X0137803Y0099056D03*
X0137803Y0099152D03*
X0137803Y0099296D03*
X0137803Y0099392D03*
X0137803Y0099488D03*
X0137803Y0099584D03*
X0137803Y0099728D03*
X0137803Y0099824D03*
X0137803Y0099920D03*
X0137803Y0100016D03*
X0137803Y0100160D03*
X0137803Y0100256D03*
X0137803Y0100352D03*
X0137803Y0100496D03*
X0137803Y0100592D03*
X0137803Y0100688D03*
X0137803Y0100784D03*
X0137803Y0100928D03*
X0137803Y0101024D03*
X0137803Y0101120D03*
X0137803Y0101216D03*
X0137803Y0101360D03*
X0137803Y0101456D03*
X0137803Y0101552D03*
X0137803Y0101696D03*
X0137803Y0101792D03*
X0137803Y0101888D03*
X0137803Y0101984D03*
X0137803Y0102128D03*
X0137803Y0102224D03*
X0137803Y0102320D03*
X0137803Y0102416D03*
X0137803Y0102560D03*
X0137803Y0102656D03*
X0137803Y0102752D03*
X0137803Y0102896D03*
X0137803Y0102992D03*
X0137803Y0103088D03*
X0137803Y0103184D03*
X0137803Y0103328D03*
X0137803Y0103424D03*
X0137803Y0103520D03*
X0137803Y0103616D03*
X0137803Y0103760D03*
X0137803Y0103856D03*
X0137803Y0103952D03*
X0137803Y0104096D03*
X0137803Y0104192D03*
X0137803Y0104288D03*
X0137803Y0104384D03*
X0137803Y0104528D03*
X0137803Y0104624D03*
X0137803Y0104720D03*
X0137803Y0104816D03*
X0137803Y0104960D03*
X0137803Y0105056D03*
X0137803Y0105152D03*
X0137803Y0105296D03*
X0137803Y0105392D03*
X0137803Y0105488D03*
X0137803Y0105584D03*
X0137803Y0105728D03*
X0137803Y0105824D03*
X0137803Y0105920D03*
X0137803Y0106016D03*
X0137803Y0106160D03*
X0137803Y0106256D03*
X0137803Y0106352D03*
X0137803Y0106496D03*
X0137803Y0106592D03*
X0137803Y0106688D03*
X0137803Y0106784D03*
X0137803Y0106928D03*
X0137803Y0107024D03*
X0137803Y0107120D03*
X0137803Y0107216D03*
X0137803Y0107360D03*
X0137803Y0107456D03*
X0137803Y0107552D03*
X0137803Y0107696D03*
X0137803Y0107792D03*
X0137803Y0107888D03*
X0137803Y0107984D03*
X0137803Y0108128D03*
X0137803Y0108224D03*
X0137803Y0108320D03*
X0137803Y0108416D03*
X0137803Y0108560D03*
X0137803Y0108656D03*
X0137803Y0108752D03*
X0137803Y0108896D03*
X0137803Y0108992D03*
X0137803Y0109088D03*
X0137803Y0109184D03*
X0137803Y0109328D03*
X0137803Y0109424D03*
X0137803Y0109520D03*
X0137803Y0109616D03*
X0137803Y0109760D03*
X0137803Y0109856D03*
X0137803Y0109952D03*
X0137803Y0110096D03*
X0137803Y0110192D03*
X0137803Y0110288D03*
X0137803Y0110384D03*
X0137803Y0110528D03*
X0137803Y0110624D03*
X0137803Y0110720D03*
X0137803Y0110816D03*
X0137803Y0110960D03*
X0137803Y0111056D03*
X0137803Y0111152D03*
X0137803Y0111296D03*
X0137803Y0111392D03*
X0137803Y0111488D03*
X0137803Y0111584D03*
X0137803Y0111728D03*
X0137803Y0111824D03*
X0137803Y0111920D03*
X0137803Y0112016D03*
X0137803Y0114656D03*
D18*
X0137107Y0077120D03*
X0136243Y0076784D03*
X0137683Y0075920D03*
X0139123Y0075920D03*
X0134275Y0075920D03*
X0133747Y0077120D03*
X0132595Y0077360D03*
X0146755Y0076784D03*
X0146803Y0077360D03*
X0149155Y0075920D03*
X0149491Y0076592D03*
X0149635Y0076928D03*
X0150211Y0076928D03*
X0150259Y0076784D03*
X0150355Y0076592D03*
X0149923Y0077552D03*
X0151459Y0077552D03*
X0158227Y0077360D03*
X0158275Y0076928D03*
X0159235Y0077024D03*
X0159235Y0077120D03*
X0159955Y0077360D03*
X0159955Y0076496D03*
X0159955Y0076352D03*
X0159283Y0076256D03*
X0160675Y0075920D03*
X0165859Y0077696D03*
X0167587Y0077696D03*
D19*
X0167347Y0079520D03*
X0155923Y0077696D03*
X0155923Y0077552D03*
X0155923Y0076016D03*
X0155923Y0075920D03*
X0144451Y0075920D03*
X0144451Y0076016D03*
X0144451Y0076160D03*
X0144451Y0077456D03*
X0144451Y0077552D03*
X0144451Y0077696D03*
X0144451Y0077792D03*
X0142819Y0077456D03*
X0140275Y0076256D03*
X0140275Y0076160D03*
X0140275Y0076016D03*
X0140275Y0075920D03*
X0156259Y0104960D03*
D20*
X0156259Y0103760D03*
X0156259Y0102752D03*
X0137683Y0114992D03*
X0149587Y0082784D03*
X0149923Y0077360D03*
X0151555Y0077360D03*
X0155587Y0076688D03*
X0159811Y0076688D03*
X0161443Y0076688D03*
X0161443Y0076592D03*
X0161443Y0077024D03*
X0161491Y0077120D03*
X0163507Y0076688D03*
X0163555Y0077120D03*
X0164899Y0077120D03*
X0164947Y0077024D03*
X0164947Y0076688D03*
X0164947Y0076592D03*
X0164899Y0076496D03*
X0142483Y0076496D03*
X0142483Y0076592D03*
X0142483Y0076352D03*
X0142483Y0076256D03*
X0142483Y0076160D03*
X0142483Y0076016D03*
X0142483Y0075920D03*
X0141523Y0075920D03*
X0141523Y0076016D03*
X0141523Y0076160D03*
X0141523Y0076256D03*
X0141523Y0076352D03*
X0141523Y0076496D03*
X0141523Y0076592D03*
X0141523Y0076688D03*
X0141523Y0076784D03*
X0141523Y0076928D03*
X0141523Y0077024D03*
X0141523Y0077120D03*
X0141523Y0077216D03*
X0141523Y0077360D03*
X0141523Y0077456D03*
X0141523Y0077552D03*
X0141523Y0077696D03*
X0141523Y0077792D03*
X0142483Y0077360D03*
X0142483Y0077216D03*
X0142483Y0077120D03*
X0137155Y0076928D03*
X0136579Y0076160D03*
X0134275Y0076160D03*
X0133747Y0076928D03*
X0133219Y0076160D03*
X0129859Y0076160D03*
D21*
X0129379Y0077120D03*
X0129283Y0077360D03*
X0132451Y0077696D03*
X0132547Y0077456D03*
X0132883Y0076784D03*
X0133219Y0076016D03*
X0134275Y0076016D03*
X0134611Y0076784D03*
X0134803Y0077216D03*
X0134947Y0077456D03*
X0135043Y0077696D03*
X0136051Y0077216D03*
X0136339Y0076592D03*
X0138019Y0076784D03*
X0138115Y0077024D03*
X0138211Y0077216D03*
X0133747Y0077024D03*
X0145747Y0077024D03*
X0145747Y0077120D03*
X0145747Y0077216D03*
X0145747Y0077360D03*
X0145747Y0076928D03*
X0145747Y0076784D03*
X0145747Y0076352D03*
X0145747Y0076256D03*
X0145747Y0076160D03*
X0145747Y0076016D03*
X0145747Y0075920D03*
X0147619Y0076256D03*
X0149443Y0076496D03*
X0151507Y0076496D03*
X0151507Y0076592D03*
X0151507Y0076688D03*
X0151507Y0076784D03*
X0151507Y0076352D03*
X0151507Y0076256D03*
X0151507Y0076160D03*
X0151507Y0076016D03*
X0151507Y0075920D03*
X0151507Y0077456D03*
X0152707Y0077456D03*
X0152707Y0077552D03*
X0152707Y0077696D03*
X0152707Y0077360D03*
X0152707Y0077216D03*
X0152707Y0077120D03*
X0154147Y0077120D03*
X0154147Y0077216D03*
X0154147Y0077360D03*
X0154147Y0077024D03*
X0154147Y0076928D03*
X0154147Y0076784D03*
X0154147Y0076688D03*
X0154147Y0076592D03*
X0154147Y0076496D03*
X0154147Y0076352D03*
X0154147Y0076256D03*
X0154147Y0076160D03*
X0154147Y0076016D03*
X0154147Y0075920D03*
X0155539Y0076256D03*
X0155539Y0076352D03*
X0155539Y0076496D03*
X0155539Y0076592D03*
X0155539Y0077024D03*
X0155539Y0077120D03*
X0155539Y0077216D03*
X0155539Y0077360D03*
X0155539Y0077456D03*
X0157171Y0077360D03*
X0157171Y0077216D03*
X0157171Y0077120D03*
X0157171Y0077024D03*
X0157171Y0076928D03*
X0157171Y0076784D03*
X0157171Y0076352D03*
X0157171Y0076256D03*
X0157171Y0076160D03*
X0157171Y0076016D03*
X0157171Y0075920D03*
X0158083Y0076352D03*
X0158179Y0076160D03*
X0158275Y0076016D03*
X0159571Y0075920D03*
X0155779Y0106160D03*
D22*
X0149611Y0082160D03*
X0147979Y0076160D03*
X0147979Y0076016D03*
X0147979Y0075920D03*
D23*
X0147595Y0076352D03*
X0147595Y0076496D03*
X0147595Y0076592D03*
X0147595Y0076688D03*
X0147595Y0076784D03*
X0147595Y0076928D03*
X0147595Y0077024D03*
X0147595Y0077120D03*
X0147595Y0077216D03*
X0147595Y0077360D03*
X0147595Y0077456D03*
X0147595Y0077552D03*
X0147595Y0077696D03*
X0146683Y0077456D03*
X0149227Y0076016D03*
X0150379Y0076496D03*
X0150283Y0076688D03*
X0150619Y0076016D03*
X0150667Y0075920D03*
X0152731Y0076160D03*
X0152731Y0076928D03*
X0152731Y0077024D03*
X0154987Y0079424D03*
X0158107Y0077456D03*
X0158155Y0076784D03*
X0158347Y0075920D03*
X0159931Y0076256D03*
X0159931Y0076592D03*
X0160651Y0076016D03*
X0159595Y0077696D03*
X0152299Y0082928D03*
X0138427Y0077696D03*
X0138331Y0077552D03*
X0138283Y0077456D03*
X0138091Y0076928D03*
X0137947Y0076688D03*
X0137899Y0076592D03*
X0137659Y0076016D03*
X0136603Y0076016D03*
X0136315Y0076688D03*
X0136171Y0076928D03*
X0136123Y0077024D03*
X0135979Y0077360D03*
X0135883Y0077552D03*
X0134875Y0077360D03*
X0134731Y0077024D03*
X0134683Y0076928D03*
X0134587Y0076688D03*
X0134539Y0076592D03*
X0132955Y0076592D03*
X0132907Y0076688D03*
X0132763Y0077024D03*
X0132715Y0077120D03*
X0132667Y0077216D03*
X0131707Y0077696D03*
X0131563Y0077360D03*
X0131467Y0077120D03*
X0131419Y0077024D03*
X0131371Y0076928D03*
X0131275Y0076784D03*
X0131227Y0076688D03*
X0131179Y0076592D03*
X0130939Y0076016D03*
X0129883Y0076016D03*
X0129643Y0076592D03*
X0129595Y0076688D03*
X0129547Y0076784D03*
X0129451Y0076928D03*
X0129403Y0077024D03*
X0129115Y0077696D03*
X0130411Y0077024D03*
X0139099Y0076016D03*
X0156715Y0106160D03*
X0137755Y0114752D03*
D24*
X0136435Y0113360D03*
X0134083Y0117728D03*
X0154867Y0105488D03*
X0154819Y0105392D03*
X0154771Y0105296D03*
X0154723Y0105152D03*
X0157411Y0105728D03*
X0157651Y0105392D03*
X0157699Y0105296D03*
X0157747Y0105152D03*
X0157795Y0105056D03*
X0157507Y0093392D03*
X0156547Y0093392D03*
X0149923Y0077696D03*
X0152851Y0075920D03*
X0133747Y0077360D03*
D25*
X0136603Y0076352D03*
X0130411Y0076592D03*
X0130411Y0076688D03*
X0143851Y0082016D03*
X0151675Y0077120D03*
X0162187Y0075920D03*
X0165019Y0081488D03*
X0165019Y0081584D03*
X0165019Y0081728D03*
X0165019Y0081824D03*
X0164971Y0082016D03*
X0137515Y0115328D03*
D26*
X0137443Y0115424D03*
X0149587Y0082496D03*
X0149107Y0081392D03*
X0150259Y0081056D03*
X0150931Y0079616D03*
X0149923Y0077024D03*
X0149491Y0076160D03*
X0152515Y0076592D03*
X0143827Y0081296D03*
X0137107Y0076592D03*
X0136627Y0076496D03*
X0134275Y0076496D03*
X0133699Y0076592D03*
X0133219Y0076496D03*
X0130915Y0076496D03*
X0164227Y0075920D03*
X0167347Y0079424D03*
X0166723Y0080192D03*
X0166675Y0080288D03*
X0166675Y0080384D03*
X0166723Y0081584D03*
X0166675Y0081728D03*
X0166675Y0081824D03*
X0166675Y0081920D03*
X0166675Y0082016D03*
X0168067Y0082016D03*
X0168067Y0080624D03*
X0168067Y0080528D03*
X0168067Y0080384D03*
X0168067Y0080288D03*
X0164995Y0081392D03*
X0164947Y0081296D03*
D27*
X0165931Y0077552D03*
X0165931Y0076784D03*
X0165931Y0076688D03*
X0165931Y0076592D03*
X0165931Y0076496D03*
X0165931Y0076352D03*
X0165931Y0076256D03*
X0165931Y0076160D03*
X0165931Y0076016D03*
X0165931Y0075920D03*
X0164971Y0076784D03*
X0164971Y0076928D03*
X0163531Y0077024D03*
X0163483Y0076928D03*
X0163483Y0076784D03*
X0163531Y0076592D03*
X0161419Y0076784D03*
X0161419Y0076928D03*
X0157195Y0077456D03*
X0155563Y0076160D03*
X0152683Y0076256D03*
X0154939Y0079520D03*
X0152347Y0082784D03*
X0145771Y0077456D03*
X0144091Y0077360D03*
X0144091Y0077216D03*
X0144091Y0077120D03*
X0144091Y0076592D03*
X0144091Y0076496D03*
X0144091Y0076352D03*
X0144091Y0076256D03*
X0139915Y0076352D03*
X0139915Y0076496D03*
X0139915Y0076592D03*
X0139915Y0076688D03*
X0139915Y0076784D03*
X0139915Y0076928D03*
X0139915Y0077024D03*
X0139915Y0077120D03*
X0139915Y0077216D03*
X0139915Y0077360D03*
X0139915Y0077456D03*
X0139915Y0077552D03*
X0139915Y0077696D03*
X0139915Y0077792D03*
X0137659Y0076160D03*
X0167515Y0076160D03*
X0167515Y0076256D03*
X0167515Y0076352D03*
X0167515Y0076496D03*
X0167515Y0076592D03*
X0167515Y0076688D03*
X0167515Y0076784D03*
X0167515Y0077552D03*
X0167515Y0076016D03*
X0167515Y0075920D03*
X0137707Y0114896D03*
D28*
X0134203Y0117632D03*
X0156571Y0106208D03*
X0156283Y0105200D03*
X0156667Y0102848D03*
X0155803Y0102848D03*
X0152299Y0082880D03*
X0151483Y0077504D03*
X0152731Y0077072D03*
X0152731Y0076976D03*
X0152731Y0076880D03*
X0150571Y0076112D03*
X0150619Y0075968D03*
X0150283Y0076736D03*
X0149659Y0076976D03*
X0147595Y0076976D03*
X0147595Y0077072D03*
X0147595Y0077168D03*
X0147595Y0077264D03*
X0147595Y0077312D03*
X0147595Y0077408D03*
X0147595Y0077504D03*
X0147595Y0077600D03*
X0147595Y0077648D03*
X0147595Y0077744D03*
X0147595Y0076880D03*
X0147595Y0076832D03*
X0147595Y0076736D03*
X0147595Y0076640D03*
X0147595Y0076544D03*
X0147595Y0076448D03*
X0147595Y0076400D03*
X0146683Y0076736D03*
X0139099Y0076112D03*
X0139099Y0076064D03*
X0139099Y0075968D03*
X0137947Y0076640D03*
X0137995Y0076736D03*
X0138043Y0076832D03*
X0138043Y0076880D03*
X0138091Y0076976D03*
X0138139Y0077072D03*
X0138283Y0077408D03*
X0138331Y0077504D03*
X0138379Y0077600D03*
X0138427Y0077744D03*
X0137131Y0077072D03*
X0136315Y0076640D03*
X0136267Y0076736D03*
X0136219Y0076832D03*
X0136171Y0076976D03*
X0135979Y0077408D03*
X0135931Y0077504D03*
X0135883Y0077600D03*
X0135067Y0077744D03*
X0134971Y0077504D03*
X0134923Y0077408D03*
X0134875Y0077312D03*
X0134827Y0077264D03*
X0134779Y0077168D03*
X0134731Y0077072D03*
X0134683Y0076976D03*
X0132907Y0076640D03*
X0132763Y0077072D03*
X0132619Y0077312D03*
X0132571Y0077408D03*
X0132523Y0077504D03*
X0131755Y0077744D03*
X0131659Y0077600D03*
X0131611Y0077504D03*
X0131563Y0077408D03*
X0131467Y0077168D03*
X0131419Y0077072D03*
X0131323Y0076880D03*
X0131323Y0076832D03*
X0130411Y0077072D03*
X0129547Y0076736D03*
X0129499Y0076832D03*
X0129307Y0077264D03*
X0129259Y0077408D03*
X0129211Y0077504D03*
X0129163Y0077600D03*
X0129883Y0075968D03*
X0137659Y0075968D03*
X0158155Y0076208D03*
X0158251Y0076064D03*
X0158299Y0075968D03*
X0158155Y0076736D03*
X0158203Y0076832D03*
X0159307Y0076208D03*
X0159883Y0076208D03*
X0160651Y0076064D03*
X0160651Y0075968D03*
X0165883Y0077648D03*
X0167563Y0077648D03*
D29*
X0166723Y0076544D03*
X0160675Y0076112D03*
X0159955Y0076304D03*
X0159955Y0076400D03*
X0159955Y0076448D03*
X0159955Y0076544D03*
X0159907Y0076640D03*
X0159235Y0076304D03*
X0159235Y0077072D03*
X0159283Y0077408D03*
X0159907Y0077408D03*
X0158179Y0077408D03*
X0158227Y0076880D03*
X0155011Y0079376D03*
X0152755Y0076112D03*
X0150595Y0076064D03*
X0150355Y0076544D03*
X0150307Y0076640D03*
X0150259Y0076832D03*
X0150211Y0076880D03*
X0150163Y0076976D03*
X0149635Y0076880D03*
X0149587Y0076832D03*
X0149539Y0076736D03*
X0149491Y0076640D03*
X0149491Y0076544D03*
X0149251Y0076112D03*
X0149251Y0076064D03*
X0149203Y0075968D03*
X0149923Y0077504D03*
X0146755Y0077408D03*
X0146803Y0076832D03*
X0138403Y0077648D03*
X0136195Y0076880D03*
X0134275Y0075968D03*
X0133219Y0075968D03*
X0133747Y0077072D03*
X0132691Y0077168D03*
X0132643Y0077264D03*
X0130915Y0075968D03*
X0129139Y0077648D03*
X0129091Y0077744D03*
X0137827Y0094112D03*
X0137779Y0114704D03*
D30*
X0137803Y0114608D03*
X0137803Y0112112D03*
X0137803Y0112064D03*
X0137803Y0111968D03*
X0137803Y0111872D03*
X0137803Y0111776D03*
X0137803Y0111680D03*
X0137803Y0111632D03*
X0137803Y0111536D03*
X0137803Y0111440D03*
X0137803Y0111344D03*
X0137803Y0111248D03*
X0137803Y0111200D03*
X0137803Y0111104D03*
X0137803Y0111008D03*
X0137803Y0110912D03*
X0137803Y0110864D03*
X0137803Y0110768D03*
X0137803Y0110672D03*
X0137803Y0110576D03*
X0137803Y0110480D03*
X0137803Y0110432D03*
X0137803Y0110336D03*
X0137803Y0110240D03*
X0137803Y0110144D03*
X0137803Y0110048D03*
X0137803Y0110000D03*
X0137803Y0109904D03*
X0137803Y0109808D03*
X0137803Y0109712D03*
X0137803Y0109664D03*
X0137803Y0109568D03*
X0137803Y0109472D03*
X0137803Y0109376D03*
X0137803Y0109280D03*
X0137803Y0109232D03*
X0137803Y0109136D03*
X0137803Y0109040D03*
X0137803Y0108944D03*
X0137803Y0108848D03*
X0137803Y0108800D03*
X0137803Y0108704D03*
X0137803Y0108608D03*
X0137803Y0108512D03*
X0137803Y0108464D03*
X0137803Y0108368D03*
X0137803Y0108272D03*
X0137803Y0108176D03*
X0137803Y0108080D03*
X0137803Y0108032D03*
X0137803Y0107936D03*
X0137803Y0107840D03*
X0137803Y0107744D03*
X0137803Y0107648D03*
X0137803Y0107600D03*
X0137803Y0107504D03*
X0137803Y0107408D03*
X0137803Y0107312D03*
X0137803Y0107264D03*
X0137803Y0107168D03*
X0137803Y0107072D03*
X0137803Y0106976D03*
X0137803Y0106880D03*
X0137803Y0106832D03*
X0137803Y0106736D03*
X0137803Y0106640D03*
X0137803Y0106544D03*
X0137803Y0106448D03*
X0137803Y0106400D03*
X0137803Y0106304D03*
X0137803Y0106208D03*
X0137803Y0106112D03*
X0137803Y0106064D03*
X0137803Y0105968D03*
X0137803Y0105872D03*
X0137803Y0105776D03*
X0137803Y0105680D03*
X0137803Y0105632D03*
X0137803Y0105536D03*
X0137803Y0105440D03*
X0137803Y0105344D03*
X0137803Y0105248D03*
X0137803Y0105200D03*
X0137803Y0105104D03*
X0137803Y0105008D03*
X0137803Y0104912D03*
X0137803Y0104864D03*
X0137803Y0104768D03*
X0137803Y0104672D03*
X0137803Y0104576D03*
X0137803Y0104480D03*
X0137803Y0104432D03*
X0137803Y0104336D03*
X0137803Y0104240D03*
X0137803Y0104144D03*
X0137803Y0104048D03*
X0137803Y0104000D03*
X0137803Y0103904D03*
X0137803Y0103808D03*
X0137803Y0103712D03*
X0137803Y0103664D03*
X0137803Y0103568D03*
X0137803Y0103472D03*
X0137803Y0103376D03*
X0137803Y0103280D03*
X0137803Y0103232D03*
X0137803Y0103136D03*
X0137803Y0103040D03*
X0137803Y0102944D03*
X0137803Y0102848D03*
X0137803Y0102800D03*
X0137803Y0102704D03*
X0137803Y0102608D03*
X0137803Y0102512D03*
X0137803Y0102464D03*
X0137803Y0102368D03*
X0137803Y0102272D03*
X0137803Y0102176D03*
X0137803Y0102080D03*
X0137803Y0102032D03*
X0137803Y0101936D03*
X0137803Y0101840D03*
X0137803Y0101744D03*
X0137803Y0101648D03*
X0137803Y0101600D03*
X0137803Y0101504D03*
X0137803Y0101408D03*
X0137803Y0101312D03*
X0137803Y0101264D03*
X0137803Y0101168D03*
X0137803Y0101072D03*
X0137803Y0100976D03*
X0137803Y0100880D03*
X0137803Y0100832D03*
X0137803Y0100736D03*
X0137803Y0100640D03*
X0137803Y0100544D03*
X0137803Y0100448D03*
X0137803Y0100400D03*
X0137803Y0100304D03*
X0137803Y0100208D03*
X0137803Y0100112D03*
X0137803Y0100064D03*
X0137803Y0099968D03*
X0137803Y0099872D03*
X0137803Y0099776D03*
X0137803Y0099680D03*
X0137803Y0099632D03*
X0137803Y0099536D03*
X0137803Y0099440D03*
X0137803Y0099344D03*
X0137803Y0099248D03*
X0137803Y0099200D03*
X0137803Y0099104D03*
X0137803Y0099008D03*
X0137803Y0098912D03*
X0137803Y0098864D03*
X0137803Y0098768D03*
X0137803Y0098672D03*
X0137803Y0098576D03*
X0137803Y0098480D03*
X0137803Y0098432D03*
X0137803Y0098336D03*
X0137803Y0098240D03*
X0137803Y0098144D03*
X0137803Y0098048D03*
X0137803Y0098000D03*
X0137803Y0097904D03*
X0137803Y0097808D03*
X0137803Y0097712D03*
X0137803Y0097664D03*
X0137803Y0097568D03*
X0137803Y0097472D03*
X0137803Y0097376D03*
X0137803Y0097280D03*
X0137803Y0097232D03*
X0137803Y0097136D03*
X0137803Y0097040D03*
X0137803Y0096944D03*
X0137803Y0096848D03*
X0137803Y0096800D03*
X0137803Y0096704D03*
X0137803Y0096608D03*
X0137803Y0096512D03*
X0137803Y0096464D03*
X0137803Y0096368D03*
X0137803Y0096272D03*
X0137803Y0096176D03*
X0137803Y0096080D03*
X0137803Y0096032D03*
X0137803Y0095936D03*
X0137803Y0095840D03*
X0137803Y0095744D03*
X0137803Y0095648D03*
X0137803Y0095600D03*
X0137803Y0095504D03*
X0137803Y0095408D03*
X0137803Y0095312D03*
X0137803Y0095264D03*
X0137803Y0095168D03*
X0137803Y0095072D03*
X0137803Y0094976D03*
X0137803Y0094880D03*
X0137803Y0094832D03*
X0137803Y0094736D03*
X0137803Y0094640D03*
X0137803Y0094544D03*
X0137803Y0094448D03*
X0137803Y0094400D03*
X0137803Y0094304D03*
X0137803Y0094208D03*
X0155371Y0103040D03*
X0156859Y0106112D03*
X0134155Y0117680D03*
X0161035Y0081536D03*
X0161467Y0081536D03*
X0158251Y0077312D03*
X0158299Y0077168D03*
X0158299Y0077072D03*
X0158299Y0076976D03*
X0151435Y0077600D03*
X0146827Y0077312D03*
X0146827Y0076880D03*
X0137131Y0077168D03*
X0136603Y0075968D03*
X0133723Y0077168D03*
X0165835Y0077744D03*
D31*
X0165907Y0077600D03*
X0167539Y0077600D03*
X0157171Y0077408D03*
X0157171Y0077312D03*
X0157171Y0077264D03*
X0157171Y0077168D03*
X0157171Y0077072D03*
X0157171Y0076976D03*
X0157171Y0076880D03*
X0157171Y0076832D03*
X0157171Y0076736D03*
X0157171Y0076304D03*
X0157171Y0076208D03*
X0157171Y0076112D03*
X0157171Y0076064D03*
X0157171Y0075968D03*
X0155539Y0076208D03*
X0155539Y0076304D03*
X0155539Y0076400D03*
X0155539Y0076448D03*
X0155539Y0076544D03*
X0155539Y0076640D03*
X0155539Y0077072D03*
X0155539Y0077168D03*
X0155539Y0077264D03*
X0155539Y0077312D03*
X0155539Y0077408D03*
X0154147Y0077312D03*
X0154147Y0077264D03*
X0154147Y0077168D03*
X0154147Y0077072D03*
X0154147Y0076976D03*
X0154147Y0076880D03*
X0154147Y0076832D03*
X0154147Y0076736D03*
X0154147Y0076640D03*
X0154147Y0076544D03*
X0154147Y0076448D03*
X0154147Y0076400D03*
X0154147Y0076304D03*
X0154147Y0076208D03*
X0154147Y0076112D03*
X0154147Y0076064D03*
X0154147Y0075968D03*
X0152707Y0076208D03*
X0152707Y0077168D03*
X0152707Y0077264D03*
X0152707Y0077312D03*
X0152707Y0077408D03*
X0152707Y0077504D03*
X0152707Y0077600D03*
X0152707Y0077648D03*
X0152707Y0077744D03*
X0151507Y0076736D03*
X0151507Y0076640D03*
X0151507Y0076544D03*
X0151507Y0076448D03*
X0151507Y0076400D03*
X0151507Y0076304D03*
X0151507Y0076208D03*
X0151507Y0076112D03*
X0151507Y0076064D03*
X0151507Y0075968D03*
X0147619Y0076304D03*
X0145747Y0076304D03*
X0145747Y0076400D03*
X0145747Y0076448D03*
X0145747Y0076208D03*
X0145747Y0076112D03*
X0145747Y0076064D03*
X0145747Y0075968D03*
X0145747Y0076736D03*
X0145747Y0076832D03*
X0145747Y0076880D03*
X0145747Y0076976D03*
X0145747Y0077072D03*
X0145747Y0077168D03*
X0145747Y0077264D03*
X0145747Y0077312D03*
X0145747Y0077408D03*
X0138211Y0077264D03*
X0137683Y0076064D03*
X0136579Y0076064D03*
X0136051Y0077168D03*
X0136003Y0077264D03*
X0136003Y0077312D03*
X0135811Y0077744D03*
X0135043Y0077648D03*
X0134611Y0076736D03*
X0134275Y0076064D03*
X0133747Y0076976D03*
X0132883Y0076736D03*
X0133219Y0076112D03*
X0133219Y0076064D03*
X0132451Y0077648D03*
X0132403Y0077744D03*
X0131683Y0077648D03*
X0131539Y0077312D03*
X0131251Y0076736D03*
X0131203Y0076640D03*
X0129619Y0076640D03*
X0129475Y0076880D03*
X0129379Y0077072D03*
X0129379Y0077168D03*
X0129283Y0077312D03*
X0155875Y0106208D03*
X0156211Y0106304D03*
D32*
X0149611Y0082112D03*
X0147979Y0076208D03*
X0147979Y0076112D03*
X0147979Y0076064D03*
X0147979Y0075968D03*
D33*
X0152827Y0075968D03*
X0159595Y0077744D03*
X0137131Y0077264D03*
X0133723Y0077312D03*
X0130411Y0077312D03*
X0130411Y0077264D03*
X0155227Y0103136D03*
X0155131Y0103232D03*
X0154795Y0105344D03*
X0154843Y0105440D03*
X0154987Y0105632D03*
X0155035Y0105680D03*
X0155083Y0105776D03*
X0155227Y0105872D03*
X0156955Y0106064D03*
X0157243Y0105872D03*
X0157339Y0105776D03*
X0157435Y0105680D03*
X0157483Y0105632D03*
X0157675Y0105344D03*
X0157723Y0105248D03*
X0139531Y0112640D03*
X0137851Y0114464D03*
X0137851Y0114512D03*
X0136123Y0113408D03*
D34*
X0137347Y0115568D03*
X0137299Y0115664D03*
X0134515Y0117440D03*
X0138787Y0111968D03*
X0138787Y0111872D03*
X0138787Y0111776D03*
X0138787Y0111680D03*
X0138787Y0111632D03*
X0138787Y0111536D03*
X0138787Y0111104D03*
X0138787Y0111008D03*
X0145363Y0082880D03*
X0145363Y0082832D03*
X0145363Y0082736D03*
X0145363Y0082640D03*
X0145363Y0082544D03*
X0145363Y0082448D03*
X0145363Y0082400D03*
X0145363Y0082304D03*
X0145363Y0082208D03*
X0145363Y0082112D03*
X0145363Y0082064D03*
X0145363Y0081968D03*
X0145363Y0081872D03*
X0145363Y0081776D03*
X0145363Y0081680D03*
X0145363Y0081632D03*
X0145363Y0081536D03*
X0145363Y0081440D03*
X0145363Y0081344D03*
X0145363Y0081248D03*
X0145363Y0081200D03*
X0145363Y0081104D03*
X0145363Y0081008D03*
X0145363Y0080912D03*
X0145363Y0080864D03*
X0145363Y0080768D03*
X0145363Y0080672D03*
X0145363Y0080576D03*
X0145363Y0080480D03*
X0145363Y0080432D03*
X0145363Y0080336D03*
X0145363Y0080240D03*
X0148291Y0079664D03*
X0148771Y0080672D03*
X0148819Y0080768D03*
X0150163Y0081248D03*
X0150403Y0080672D03*
X0150979Y0079472D03*
X0152563Y0079472D03*
X0152563Y0079568D03*
X0152563Y0079664D03*
X0152563Y0079712D03*
X0152563Y0079808D03*
X0152563Y0079904D03*
X0152563Y0080000D03*
X0152563Y0080048D03*
X0152563Y0080144D03*
X0152563Y0080240D03*
X0152563Y0080336D03*
X0152563Y0080432D03*
X0152563Y0080480D03*
X0152563Y0080576D03*
X0152563Y0080672D03*
X0152563Y0080768D03*
X0152563Y0080864D03*
X0152563Y0080912D03*
X0152563Y0081008D03*
X0152563Y0079376D03*
X0154723Y0079904D03*
X0154723Y0081344D03*
X0154723Y0081440D03*
X0154723Y0081536D03*
X0154723Y0081632D03*
X0154723Y0081680D03*
X0154723Y0081776D03*
X0154723Y0081872D03*
X0154723Y0081968D03*
X0154723Y0082064D03*
X0154723Y0082112D03*
X0154723Y0082208D03*
X0154723Y0082304D03*
X0154723Y0082400D03*
X0154723Y0082448D03*
X0154723Y0082544D03*
X0154723Y0082640D03*
X0154723Y0082736D03*
X0154723Y0082832D03*
X0154723Y0082880D03*
X0157363Y0082064D03*
X0157363Y0081968D03*
X0157363Y0081872D03*
X0157363Y0081776D03*
X0157363Y0081680D03*
X0157363Y0081632D03*
X0157363Y0081536D03*
X0157363Y0081440D03*
X0157363Y0081344D03*
X0157363Y0081248D03*
X0157363Y0081200D03*
X0157363Y0081104D03*
X0157363Y0081008D03*
X0157363Y0080912D03*
X0157363Y0080864D03*
X0157363Y0080768D03*
X0157363Y0080672D03*
X0157363Y0080576D03*
X0157363Y0080480D03*
X0157363Y0080432D03*
X0157363Y0080336D03*
X0157363Y0080240D03*
X0157363Y0080144D03*
X0157363Y0080048D03*
X0157363Y0080000D03*
X0157363Y0079904D03*
X0157363Y0079808D03*
X0157363Y0079712D03*
X0157363Y0079664D03*
X0157363Y0079568D03*
X0157363Y0079472D03*
X0157363Y0079376D03*
X0160003Y0080048D03*
X0160003Y0080144D03*
X0160003Y0080240D03*
X0160003Y0080336D03*
X0160003Y0080432D03*
X0160003Y0080480D03*
X0160003Y0080576D03*
X0160003Y0080672D03*
X0160003Y0080768D03*
X0160003Y0081632D03*
X0160003Y0081680D03*
X0160003Y0081776D03*
X0160003Y0081872D03*
X0160003Y0081968D03*
X0160003Y0082064D03*
X0160003Y0082112D03*
X0160003Y0082208D03*
X0162979Y0082208D03*
X0162979Y0082112D03*
X0162979Y0082064D03*
X0162979Y0081968D03*
X0162979Y0081872D03*
X0162979Y0081776D03*
X0162979Y0081680D03*
X0162979Y0081632D03*
X0162979Y0081536D03*
X0162979Y0081440D03*
X0162979Y0081344D03*
X0162979Y0081248D03*
X0162979Y0081200D03*
X0162979Y0080240D03*
X0162979Y0080144D03*
X0162979Y0080048D03*
X0162979Y0080000D03*
X0162979Y0079904D03*
X0162979Y0079808D03*
X0162979Y0079712D03*
X0162979Y0079664D03*
X0162979Y0079568D03*
X0162979Y0079472D03*
X0162979Y0079376D03*
X0166147Y0077168D03*
X0167299Y0077168D03*
X0167971Y0082208D03*
X0162163Y0075968D03*
X0151747Y0076976D03*
X0149587Y0082400D03*
X0141907Y0082208D03*
X0141907Y0082112D03*
X0141907Y0082064D03*
X0141907Y0081968D03*
X0141907Y0081872D03*
X0141907Y0081776D03*
X0141907Y0081680D03*
X0141907Y0081632D03*
X0141907Y0081536D03*
X0141907Y0081440D03*
X0141907Y0081344D03*
X0141907Y0081248D03*
X0141907Y0081200D03*
X0141907Y0081104D03*
X0141907Y0080240D03*
X0141907Y0080144D03*
X0141907Y0080048D03*
X0141907Y0080000D03*
X0141907Y0079904D03*
X0141907Y0079808D03*
X0141907Y0079712D03*
X0141907Y0079664D03*
X0141907Y0079568D03*
X0141907Y0079472D03*
X0141907Y0079376D03*
X0133603Y0079664D03*
X0133603Y0079712D03*
X0133603Y0079808D03*
X0133603Y0079904D03*
X0133603Y0080000D03*
X0133603Y0080048D03*
X0133603Y0080144D03*
X0133603Y0080240D03*
X0133603Y0080336D03*
X0133603Y0080432D03*
X0133603Y0080480D03*
X0133603Y0080672D03*
X0133603Y0081776D03*
X0133603Y0081872D03*
X0133603Y0081968D03*
X0133603Y0082064D03*
X0133603Y0082112D03*
D35*
X0133627Y0082208D03*
X0133627Y0081680D03*
X0133627Y0081632D03*
X0133627Y0080768D03*
X0133627Y0080576D03*
X0133627Y0079568D03*
X0133627Y0079472D03*
X0133627Y0079376D03*
X0131899Y0079376D03*
X0131899Y0079472D03*
X0131899Y0079568D03*
X0131899Y0079664D03*
X0131899Y0079712D03*
X0131899Y0079808D03*
X0131899Y0079904D03*
X0131899Y0080000D03*
X0131899Y0080048D03*
X0131899Y0080144D03*
X0131899Y0080240D03*
X0131899Y0080336D03*
X0131899Y0080432D03*
X0131899Y0080480D03*
X0131899Y0080576D03*
X0131899Y0080672D03*
X0131899Y0080768D03*
X0131899Y0080864D03*
X0131899Y0080912D03*
X0131899Y0081008D03*
X0131899Y0081104D03*
X0131899Y0081200D03*
X0131899Y0081248D03*
X0131899Y0081344D03*
X0131899Y0081440D03*
X0131899Y0081536D03*
X0131899Y0081632D03*
X0131899Y0081680D03*
X0131899Y0081776D03*
X0131899Y0081872D03*
X0131899Y0081968D03*
X0131899Y0082064D03*
X0131899Y0082112D03*
X0131899Y0082208D03*
X0131899Y0082304D03*
X0131899Y0082400D03*
X0131899Y0082448D03*
X0131899Y0082544D03*
X0131899Y0082640D03*
X0131899Y0082736D03*
X0131899Y0082832D03*
X0131899Y0082880D03*
X0136651Y0082208D03*
X0136651Y0082112D03*
X0136651Y0082064D03*
X0136651Y0081968D03*
X0136651Y0081872D03*
X0136651Y0081776D03*
X0136651Y0081680D03*
X0136651Y0081632D03*
X0136651Y0080768D03*
X0136651Y0080672D03*
X0136651Y0080576D03*
X0136651Y0080480D03*
X0136651Y0080432D03*
X0136651Y0080336D03*
X0136651Y0080240D03*
X0136651Y0080144D03*
X0148795Y0080576D03*
X0150427Y0080576D03*
X0152587Y0082304D03*
X0157435Y0077744D03*
X0160027Y0081536D03*
X0163003Y0081104D03*
X0164827Y0081104D03*
X0164971Y0079712D03*
X0166795Y0082208D03*
X0167371Y0082832D03*
X0166699Y0076832D03*
X0164251Y0075968D03*
X0138763Y0095600D03*
X0138763Y0095648D03*
X0138763Y0095744D03*
X0138763Y0095840D03*
X0138763Y0095936D03*
X0138763Y0096032D03*
X0138763Y0096080D03*
X0138763Y0096176D03*
X0138763Y0096272D03*
X0138763Y0096368D03*
X0138763Y0096464D03*
X0138763Y0096512D03*
X0138763Y0096608D03*
X0138763Y0096704D03*
X0138763Y0096800D03*
X0138763Y0096848D03*
X0138763Y0096944D03*
X0138763Y0097040D03*
X0138763Y0097136D03*
X0138763Y0097232D03*
X0138763Y0097280D03*
X0138763Y0097376D03*
X0138763Y0097472D03*
X0138763Y0097568D03*
X0138763Y0097664D03*
X0138763Y0097712D03*
X0138763Y0097808D03*
X0138763Y0097904D03*
X0138763Y0098000D03*
X0138763Y0098048D03*
X0138763Y0098144D03*
X0138763Y0098240D03*
X0138763Y0098336D03*
X0138763Y0098432D03*
X0138763Y0098480D03*
X0138763Y0098576D03*
X0138763Y0098672D03*
X0138763Y0098768D03*
X0138763Y0098864D03*
X0138763Y0098912D03*
X0138763Y0099008D03*
X0138763Y0099104D03*
X0138763Y0099200D03*
X0138763Y0099248D03*
X0138763Y0099344D03*
X0138763Y0099440D03*
X0138763Y0099536D03*
X0138763Y0099632D03*
X0138763Y0099680D03*
X0138763Y0099776D03*
X0138763Y0099872D03*
X0138763Y0099968D03*
X0138763Y0100064D03*
X0138763Y0100112D03*
X0138763Y0100208D03*
X0138763Y0100304D03*
X0138763Y0100400D03*
X0138763Y0100448D03*
X0138763Y0100544D03*
X0138763Y0100640D03*
X0138763Y0100736D03*
X0138763Y0100832D03*
X0138763Y0100880D03*
X0138763Y0100976D03*
X0138763Y0101072D03*
X0138763Y0101168D03*
X0138763Y0101264D03*
X0138763Y0101312D03*
X0138763Y0101408D03*
X0138763Y0101504D03*
X0138763Y0101600D03*
X0138763Y0101648D03*
X0138763Y0101744D03*
X0138763Y0101840D03*
X0138763Y0101936D03*
X0138763Y0102032D03*
X0138763Y0102080D03*
X0138763Y0102176D03*
X0138763Y0102272D03*
X0138763Y0102368D03*
X0138763Y0102464D03*
X0138763Y0102512D03*
X0138763Y0102608D03*
X0138763Y0102704D03*
X0138763Y0102800D03*
X0138763Y0102848D03*
X0138763Y0102944D03*
X0138763Y0103040D03*
X0138763Y0103136D03*
X0138763Y0103232D03*
X0138763Y0103280D03*
X0138763Y0103376D03*
X0138763Y0103472D03*
X0138763Y0103568D03*
X0138763Y0103664D03*
X0138763Y0103712D03*
X0138763Y0103808D03*
X0138763Y0103904D03*
X0138763Y0104000D03*
X0138763Y0104048D03*
X0138763Y0104144D03*
X0138763Y0104240D03*
X0138763Y0104336D03*
X0138763Y0104432D03*
X0138763Y0104480D03*
X0138763Y0104576D03*
X0138763Y0104672D03*
X0138763Y0104768D03*
X0138763Y0104864D03*
X0138763Y0104912D03*
X0138763Y0105008D03*
X0138763Y0105104D03*
X0138763Y0105200D03*
X0138763Y0105248D03*
X0138763Y0105344D03*
X0138763Y0105440D03*
X0138763Y0105536D03*
X0138763Y0105632D03*
X0138763Y0105680D03*
X0138763Y0105776D03*
X0138763Y0105872D03*
X0138763Y0105968D03*
X0138763Y0106064D03*
X0138763Y0106112D03*
X0138763Y0106208D03*
X0138763Y0106304D03*
X0138763Y0106400D03*
X0138763Y0106448D03*
X0138763Y0106544D03*
X0138763Y0106640D03*
X0138763Y0106736D03*
X0138763Y0106832D03*
X0138763Y0106880D03*
X0138763Y0106976D03*
X0138763Y0107072D03*
X0138763Y0107168D03*
X0138763Y0107264D03*
X0138763Y0107312D03*
X0138763Y0107408D03*
X0138763Y0107504D03*
X0138763Y0107600D03*
X0138763Y0107648D03*
X0138763Y0107744D03*
X0138763Y0107840D03*
X0138763Y0107936D03*
X0138763Y0108032D03*
X0138763Y0108080D03*
X0138763Y0108176D03*
X0138763Y0108272D03*
X0138763Y0108368D03*
X0138763Y0108464D03*
X0138763Y0108512D03*
X0138763Y0108608D03*
X0138763Y0108704D03*
X0138763Y0108800D03*
X0138763Y0108848D03*
X0138763Y0108944D03*
X0138763Y0109040D03*
X0138763Y0109136D03*
X0138763Y0109232D03*
X0138763Y0109280D03*
X0138763Y0109376D03*
X0138763Y0109472D03*
X0138763Y0109568D03*
X0138763Y0109664D03*
X0138763Y0109712D03*
X0138763Y0109808D03*
X0138763Y0109904D03*
X0138763Y0110000D03*
X0138763Y0110048D03*
X0138763Y0110144D03*
X0138763Y0110240D03*
X0138763Y0110336D03*
X0138763Y0110432D03*
X0138763Y0110480D03*
X0138763Y0110576D03*
X0138763Y0110672D03*
X0138763Y0110768D03*
X0138763Y0110864D03*
X0138763Y0110912D03*
X0138763Y0111200D03*
X0138763Y0111248D03*
X0138763Y0111344D03*
X0138763Y0111440D03*
X0138763Y0112064D03*
X0137227Y0115712D03*
X0156235Y0102800D03*
X0158299Y0104336D03*
X0158299Y0104432D03*
X0158299Y0104480D03*
X0158299Y0104576D03*
X0158299Y0104672D03*
X0158299Y0104768D03*
D36*
X0155443Y0106016D03*
X0155155Y0105824D03*
X0155299Y0103088D03*
X0155443Y0102992D03*
X0155635Y0102896D03*
X0167347Y0082928D03*
X0167635Y0077792D03*
X0166723Y0076496D03*
X0162499Y0076352D03*
X0152803Y0076016D03*
X0146851Y0076928D03*
X0137107Y0077216D03*
D37*
X0137659Y0076256D03*
X0152395Y0082688D03*
X0161563Y0077216D03*
X0163627Y0077216D03*
X0164827Y0077216D03*
X0159595Y0076016D03*
X0137659Y0115088D03*
D38*
X0136963Y0115952D03*
X0156259Y0103952D03*
X0158227Y0103856D03*
X0152659Y0082160D03*
X0154627Y0080096D03*
X0162163Y0076016D03*
D39*
X0164251Y0076016D03*
X0154603Y0080192D03*
X0144427Y0076928D03*
X0144427Y0076784D03*
X0144427Y0076688D03*
X0142795Y0076688D03*
X0142795Y0076784D03*
X0142795Y0076928D03*
X0142795Y0077024D03*
X0167371Y0082784D03*
X0158203Y0103760D03*
X0134635Y0117296D03*
D40*
X0155611Y0106112D03*
X0159211Y0077312D03*
X0159211Y0077264D03*
X0159211Y0077168D03*
X0162475Y0077312D03*
X0167611Y0077744D03*
X0152779Y0076064D03*
X0146875Y0076976D03*
X0146875Y0077072D03*
X0146875Y0077168D03*
X0130411Y0077168D03*
D41*
X0133219Y0076448D03*
X0137635Y0076448D03*
X0143779Y0082112D03*
X0143827Y0082064D03*
X0148339Y0079808D03*
X0150259Y0081104D03*
X0149587Y0082544D03*
X0152515Y0082448D03*
X0151699Y0077072D03*
X0159571Y0076064D03*
X0166099Y0077264D03*
X0167347Y0077264D03*
X0166675Y0080240D03*
X0166675Y0080336D03*
X0166723Y0081632D03*
X0166675Y0081776D03*
X0166675Y0081872D03*
X0166675Y0081968D03*
X0166675Y0082064D03*
X0166723Y0082112D03*
X0168067Y0082064D03*
X0168019Y0080672D03*
X0168067Y0080576D03*
X0168067Y0080480D03*
X0168067Y0080432D03*
X0168067Y0080336D03*
X0164947Y0081248D03*
X0164947Y0082064D03*
X0164899Y0082112D03*
D42*
X0167371Y0082736D03*
X0164251Y0076064D03*
X0162187Y0076064D03*
X0149611Y0082064D03*
X0142843Y0077744D03*
X0142843Y0077648D03*
X0142843Y0077600D03*
X0142843Y0077504D03*
X0158155Y0103568D03*
X0156283Y0104912D03*
D43*
X0156283Y0105104D03*
X0137419Y0115472D03*
X0149611Y0082448D03*
X0149083Y0081344D03*
X0149035Y0081248D03*
X0149035Y0081200D03*
X0148987Y0081104D03*
X0148939Y0081008D03*
X0148891Y0080912D03*
X0148843Y0080864D03*
X0148315Y0079712D03*
X0148267Y0079568D03*
X0148219Y0079472D03*
X0148171Y0079376D03*
X0150379Y0080768D03*
X0150331Y0080864D03*
X0150331Y0080912D03*
X0150283Y0081008D03*
X0150139Y0081344D03*
X0150859Y0079808D03*
X0150907Y0079712D03*
X0150907Y0079664D03*
X0150955Y0079568D03*
X0151051Y0079376D03*
X0152491Y0076640D03*
X0152539Y0082400D03*
X0159595Y0077504D03*
X0159595Y0076112D03*
X0164875Y0081200D03*
X0166699Y0081680D03*
X0168043Y0082112D03*
X0168043Y0080240D03*
X0167995Y0080144D03*
X0166747Y0080144D03*
X0143803Y0081248D03*
X0143755Y0081200D03*
X0143707Y0081104D03*
X0137659Y0076544D03*
X0136603Y0076544D03*
X0134299Y0076544D03*
X0133195Y0076544D03*
X0130939Y0076544D03*
X0129883Y0076544D03*
D44*
X0149899Y0076448D03*
X0154507Y0080336D03*
X0157627Y0077504D03*
X0162043Y0077408D03*
X0162139Y0077504D03*
X0161995Y0076304D03*
X0162139Y0076112D03*
X0158107Y0103472D03*
D45*
X0158083Y0103376D03*
X0156259Y0104144D03*
X0156259Y0104768D03*
X0134755Y0117248D03*
X0149587Y0081872D03*
X0152803Y0081872D03*
X0162067Y0076208D03*
X0164227Y0076112D03*
X0167059Y0081440D03*
D46*
X0167467Y0077456D03*
X0165979Y0077456D03*
X0163579Y0076496D03*
X0161515Y0076496D03*
X0144139Y0077024D03*
X0130939Y0076160D03*
X0130411Y0076928D03*
X0134299Y0117584D03*
D47*
X0137611Y0115184D03*
X0156283Y0105152D03*
X0152443Y0082592D03*
X0151627Y0077216D03*
X0150379Y0076160D03*
X0159451Y0076928D03*
X0163675Y0076352D03*
X0164779Y0076352D03*
X0166027Y0077360D03*
X0137659Y0076352D03*
X0137131Y0076784D03*
X0136603Y0076256D03*
X0134251Y0076352D03*
X0130939Y0076256D03*
X0130411Y0076784D03*
X0129883Y0076352D03*
D48*
X0129883Y0076496D03*
X0137659Y0076496D03*
X0148171Y0079424D03*
X0148219Y0079520D03*
X0148267Y0079616D03*
X0148315Y0079760D03*
X0148795Y0080720D03*
X0148843Y0080816D03*
X0148891Y0080960D03*
X0148939Y0081056D03*
X0148987Y0081152D03*
X0149083Y0081296D03*
X0150091Y0081392D03*
X0150139Y0081296D03*
X0150235Y0081152D03*
X0150283Y0080960D03*
X0150379Y0080816D03*
X0150859Y0079760D03*
X0151723Y0077024D03*
X0154747Y0079856D03*
X0159595Y0076160D03*
X0164251Y0077696D03*
X0166123Y0077216D03*
X0166699Y0076784D03*
X0167323Y0077216D03*
X0167995Y0080192D03*
X0167995Y0080720D03*
X0167995Y0082160D03*
X0156283Y0103856D03*
X0156235Y0106256D03*
X0137419Y0115520D03*
D49*
X0167395Y0082688D03*
X0162115Y0076160D03*
X0154483Y0080384D03*
D50*
X0149923Y0076352D03*
X0164227Y0076160D03*
X0164227Y0077456D03*
X0167587Y0080960D03*
X0156259Y0104624D03*
D51*
X0154891Y0079568D03*
X0151579Y0077312D03*
X0159403Y0076976D03*
X0161467Y0077072D03*
X0161515Y0077168D03*
X0163579Y0077168D03*
X0164875Y0077168D03*
X0164875Y0076448D03*
X0137131Y0076832D03*
X0136603Y0076208D03*
X0134251Y0076208D03*
X0130939Y0076208D03*
X0130411Y0076880D03*
D52*
X0137659Y0076208D03*
D53*
X0149923Y0076208D03*
X0149587Y0081680D03*
X0152899Y0081680D03*
X0154387Y0080576D03*
X0164227Y0077408D03*
X0164227Y0076208D03*
X0167203Y0081344D03*
X0167347Y0082640D03*
X0143395Y0093344D03*
X0143395Y0095648D03*
X0138451Y0112208D03*
X0138451Y0112304D03*
X0138451Y0112400D03*
X0138451Y0112448D03*
X0138451Y0112544D03*
D54*
X0137491Y0113456D03*
X0149587Y0082688D03*
X0149923Y0077216D03*
X0154867Y0079616D03*
X0166723Y0076688D03*
X0133219Y0076256D03*
X0129859Y0076256D03*
D55*
X0133747Y0076784D03*
X0134275Y0076256D03*
X0152611Y0076352D03*
D56*
X0149899Y0076256D03*
X0154411Y0080528D03*
X0152875Y0081728D03*
X0167131Y0081392D03*
X0143371Y0095696D03*
X0156283Y0104384D03*
X0156283Y0104528D03*
X0134827Y0117152D03*
D57*
X0149635Y0082928D03*
X0149923Y0077456D03*
X0158131Y0076256D03*
X0166723Y0076592D03*
X0138259Y0077360D03*
X0138163Y0077120D03*
X0137155Y0077024D03*
X0136099Y0077120D03*
X0135955Y0077456D03*
X0135859Y0077696D03*
X0134995Y0077552D03*
X0134755Y0077120D03*
X0132787Y0076928D03*
X0132499Y0077552D03*
X0131635Y0077552D03*
X0131587Y0077456D03*
X0131491Y0077216D03*
X0129331Y0077216D03*
X0129235Y0077456D03*
X0129187Y0077552D03*
D58*
X0146203Y0076688D03*
X0149611Y0081920D03*
X0152779Y0081920D03*
X0157627Y0076688D03*
X0161995Y0077360D03*
X0162091Y0077456D03*
X0162043Y0076256D03*
X0167755Y0080816D03*
X0158107Y0103424D03*
X0156283Y0104096D03*
X0156283Y0104816D03*
D59*
X0167371Y0081152D03*
X0164251Y0076256D03*
D60*
X0164803Y0076400D03*
X0164803Y0077264D03*
X0166003Y0077408D03*
X0163651Y0076400D03*
X0163603Y0076448D03*
X0161587Y0076400D03*
X0161539Y0076448D03*
X0161587Y0077264D03*
X0151603Y0077264D03*
X0149923Y0077264D03*
X0149923Y0077312D03*
X0149587Y0082736D03*
X0152419Y0082640D03*
X0133219Y0076304D03*
X0129859Y0076304D03*
X0136531Y0113408D03*
X0137539Y0113408D03*
X0137635Y0115136D03*
D61*
X0137587Y0115232D03*
X0137539Y0115280D03*
X0156259Y0103808D03*
X0152467Y0082544D03*
X0149587Y0082640D03*
X0143923Y0081776D03*
X0143923Y0081680D03*
X0143923Y0081632D03*
X0143923Y0081536D03*
X0149923Y0077168D03*
X0151651Y0077168D03*
X0154819Y0079712D03*
X0159571Y0077600D03*
X0159523Y0076880D03*
X0159571Y0076832D03*
X0162163Y0077744D03*
X0164227Y0077744D03*
X0164755Y0077312D03*
X0166051Y0077312D03*
X0134275Y0076400D03*
X0133747Y0076736D03*
X0130915Y0076304D03*
D62*
X0130411Y0076736D03*
X0130411Y0076832D03*
X0134251Y0076304D03*
X0136603Y0076304D03*
X0137131Y0076736D03*
X0137659Y0076304D03*
X0152587Y0076448D03*
X0157915Y0076448D03*
X0159691Y0076736D03*
X0161659Y0077312D03*
X0163675Y0077264D03*
X0163723Y0077312D03*
X0167419Y0077408D03*
X0154843Y0079664D03*
X0134347Y0117536D03*
D63*
X0156259Y0104576D03*
X0156259Y0104336D03*
X0158035Y0103280D03*
X0152851Y0081776D03*
X0154435Y0080480D03*
X0149587Y0081776D03*
X0149923Y0076400D03*
X0149923Y0076304D03*
D64*
X0152539Y0076544D03*
X0143851Y0081344D03*
X0143851Y0081968D03*
X0136603Y0076448D03*
X0136603Y0076400D03*
X0134251Y0076448D03*
X0130939Y0076448D03*
X0130939Y0076400D03*
X0130411Y0076640D03*
X0129883Y0076448D03*
X0129883Y0076400D03*
X0163771Y0076304D03*
X0164683Y0076304D03*
X0167371Y0077312D03*
X0164971Y0081344D03*
X0165019Y0081440D03*
X0165019Y0081536D03*
X0165019Y0081632D03*
X0165019Y0081680D03*
X0165019Y0081776D03*
X0165019Y0081872D03*
X0164971Y0081968D03*
X0167371Y0082880D03*
D65*
X0164995Y0081920D03*
X0167395Y0077360D03*
X0161635Y0076352D03*
X0159619Y0076784D03*
X0152563Y0076496D03*
X0149923Y0077120D03*
X0143923Y0081584D03*
X0143923Y0081728D03*
X0143923Y0081824D03*
X0149587Y0082592D03*
X0137107Y0076688D03*
X0133747Y0076688D03*
X0133219Y0076352D03*
X0130915Y0076352D03*
D66*
X0130411Y0077360D03*
X0158011Y0077696D03*
X0159115Y0076352D03*
X0159307Y0076352D03*
X0161515Y0080816D03*
X0155851Y0093392D03*
X0155371Y0093392D03*
X0154507Y0093392D03*
D67*
X0143899Y0081872D03*
X0143899Y0081440D03*
X0149899Y0077072D03*
X0154795Y0079808D03*
X0166699Y0076736D03*
X0168091Y0081968D03*
X0137659Y0076400D03*
X0137131Y0076640D03*
X0133723Y0076640D03*
X0133195Y0076400D03*
X0137467Y0115376D03*
D68*
X0133747Y0076832D03*
X0152611Y0076400D03*
D69*
X0151363Y0077744D03*
X0149923Y0077744D03*
X0162499Y0077264D03*
X0162499Y0076400D03*
X0166723Y0076448D03*
X0137107Y0077312D03*
X0154675Y0105104D03*
X0154723Y0105200D03*
X0154771Y0105248D03*
X0154915Y0105536D03*
X0157555Y0105536D03*
X0157603Y0105440D03*
X0157747Y0105200D03*
X0157795Y0105104D03*
X0137875Y0114368D03*
X0137347Y0112640D03*
D70*
X0137179Y0115760D03*
X0149611Y0082352D03*
X0146011Y0076496D03*
X0167275Y0077120D03*
D71*
X0164227Y0077552D03*
X0162163Y0077552D03*
X0157603Y0077552D03*
X0157603Y0076592D03*
X0157603Y0076496D03*
X0154531Y0080288D03*
X0166963Y0081488D03*
X0158131Y0103520D03*
D72*
X0136939Y0116000D03*
X0134635Y0117344D03*
X0152683Y0082112D03*
X0155899Y0077504D03*
X0157531Y0077648D03*
X0146107Y0076544D03*
X0144427Y0076736D03*
X0144427Y0076832D03*
X0144427Y0076880D03*
X0144427Y0076976D03*
X0142795Y0076976D03*
X0142795Y0076880D03*
X0142795Y0076832D03*
X0142795Y0076736D03*
D73*
X0149587Y0081968D03*
X0152755Y0081968D03*
X0157603Y0076640D03*
X0157603Y0076544D03*
X0156259Y0104048D03*
X0156259Y0104864D03*
D74*
X0158155Y0103616D03*
X0152731Y0082016D03*
X0149611Y0082016D03*
X0146155Y0077552D03*
X0146155Y0076592D03*
X0142843Y0077552D03*
X0142843Y0077696D03*
X0142843Y0077792D03*
D75*
X0146179Y0077504D03*
X0146179Y0076640D03*
X0167347Y0079568D03*
D76*
X0166771Y0082160D03*
X0164851Y0082160D03*
X0164851Y0081152D03*
X0162979Y0081152D03*
X0162979Y0081296D03*
X0162979Y0081392D03*
X0162979Y0081488D03*
X0162979Y0081584D03*
X0162979Y0081728D03*
X0162979Y0081824D03*
X0162979Y0081920D03*
X0162979Y0082016D03*
X0162979Y0082160D03*
X0162979Y0080192D03*
X0162979Y0080096D03*
X0162979Y0079952D03*
X0162979Y0079856D03*
X0162979Y0079760D03*
X0162979Y0079616D03*
X0162979Y0079520D03*
X0162979Y0079424D03*
X0162163Y0077696D03*
X0160003Y0080096D03*
X0160003Y0080192D03*
X0160003Y0080288D03*
X0160003Y0080384D03*
X0160003Y0080528D03*
X0160003Y0080624D03*
X0160003Y0080720D03*
X0160003Y0081584D03*
X0160003Y0081728D03*
X0160003Y0081824D03*
X0160003Y0081920D03*
X0160003Y0082016D03*
X0160003Y0082160D03*
X0160003Y0082256D03*
X0157363Y0082016D03*
X0157363Y0081920D03*
X0157363Y0081824D03*
X0157363Y0081728D03*
X0157363Y0081584D03*
X0157363Y0081488D03*
X0157363Y0081392D03*
X0157363Y0081296D03*
X0157363Y0081152D03*
X0157363Y0081056D03*
X0157363Y0080960D03*
X0157363Y0080816D03*
X0157363Y0080720D03*
X0157363Y0080624D03*
X0157363Y0080528D03*
X0157363Y0080384D03*
X0157363Y0080288D03*
X0157363Y0080192D03*
X0157363Y0080096D03*
X0157363Y0079952D03*
X0157363Y0079856D03*
X0157363Y0079760D03*
X0157363Y0079616D03*
X0157363Y0079520D03*
X0157363Y0079424D03*
X0154723Y0081392D03*
X0154723Y0081488D03*
X0154723Y0081584D03*
X0154723Y0081728D03*
X0154723Y0081824D03*
X0154723Y0081920D03*
X0154723Y0082016D03*
X0154723Y0082160D03*
X0154723Y0082256D03*
X0154723Y0082352D03*
X0154723Y0082496D03*
X0154723Y0082592D03*
X0154723Y0082688D03*
X0154723Y0082784D03*
X0154723Y0082928D03*
X0152563Y0082352D03*
X0152563Y0080960D03*
X0152563Y0080816D03*
X0152563Y0080720D03*
X0152563Y0080624D03*
X0152563Y0080528D03*
X0152563Y0080384D03*
X0152563Y0080288D03*
X0152563Y0080192D03*
X0152563Y0080096D03*
X0152563Y0079952D03*
X0152563Y0079856D03*
X0152563Y0079760D03*
X0152563Y0079616D03*
X0152563Y0079520D03*
X0152563Y0079424D03*
X0150979Y0079520D03*
X0150403Y0080720D03*
X0148771Y0080624D03*
X0145363Y0080624D03*
X0145363Y0080720D03*
X0145363Y0080816D03*
X0145363Y0080960D03*
X0145363Y0081056D03*
X0145363Y0081152D03*
X0145363Y0081296D03*
X0145363Y0081392D03*
X0145363Y0081488D03*
X0145363Y0081584D03*
X0145363Y0081728D03*
X0145363Y0081824D03*
X0145363Y0081920D03*
X0145363Y0082016D03*
X0145363Y0082160D03*
X0145363Y0082256D03*
X0145363Y0082352D03*
X0145363Y0082496D03*
X0145363Y0082592D03*
X0145363Y0082688D03*
X0145363Y0082784D03*
X0145363Y0082928D03*
X0143731Y0082160D03*
X0143731Y0081152D03*
X0145363Y0080528D03*
X0145363Y0080384D03*
X0145363Y0080288D03*
X0141907Y0080288D03*
X0141907Y0080192D03*
X0141907Y0080096D03*
X0141907Y0079952D03*
X0141907Y0079856D03*
X0141907Y0079760D03*
X0141907Y0079616D03*
X0141907Y0079520D03*
X0141907Y0079424D03*
X0141907Y0081152D03*
X0141907Y0081296D03*
X0141907Y0081392D03*
X0141907Y0081488D03*
X0141907Y0081584D03*
X0141907Y0081728D03*
X0141907Y0081824D03*
X0141907Y0081920D03*
X0141907Y0082016D03*
X0141907Y0082160D03*
X0141907Y0082256D03*
X0133603Y0082016D03*
X0133603Y0081920D03*
X0133603Y0081824D03*
X0133603Y0081728D03*
X0133603Y0080624D03*
X0133603Y0080528D03*
X0133603Y0080384D03*
X0133603Y0080288D03*
X0133603Y0080192D03*
X0133603Y0080096D03*
X0133603Y0079952D03*
X0133603Y0079856D03*
X0133603Y0079760D03*
X0133603Y0079616D03*
X0133603Y0079328D03*
X0131875Y0079328D03*
X0152467Y0076688D03*
X0138787Y0111056D03*
X0138787Y0111584D03*
X0138787Y0111728D03*
X0138787Y0111824D03*
X0138787Y0111920D03*
X0138787Y0112016D03*
D77*
X0146011Y0077744D03*
X0152443Y0076736D03*
D78*
X0155875Y0076736D03*
X0155875Y0076832D03*
X0155875Y0076880D03*
X0155875Y0076976D03*
X0149635Y0082208D03*
X0146083Y0077648D03*
X0136915Y0116048D03*
D79*
X0137107Y0115856D03*
X0156259Y0105056D03*
X0158275Y0104960D03*
X0158275Y0104816D03*
X0158275Y0104192D03*
X0158275Y0104096D03*
X0152611Y0082256D03*
X0152419Y0076784D03*
X0157459Y0077696D03*
X0164659Y0080288D03*
X0164707Y0080192D03*
X0164755Y0080096D03*
X0164899Y0079856D03*
X0164947Y0079760D03*
X0165043Y0079616D03*
X0165091Y0079520D03*
X0165139Y0079424D03*
X0136675Y0081584D03*
X0131875Y0082928D03*
X0128851Y0082928D03*
X0128851Y0082784D03*
X0128851Y0082688D03*
X0128851Y0082592D03*
X0128851Y0082496D03*
X0128851Y0082352D03*
X0128851Y0082256D03*
X0128851Y0082160D03*
X0128851Y0082016D03*
X0128851Y0081920D03*
X0128851Y0081824D03*
X0128851Y0081728D03*
X0128851Y0081584D03*
X0128851Y0081488D03*
X0128851Y0081392D03*
X0128851Y0081296D03*
X0128851Y0081152D03*
X0128851Y0081056D03*
X0128851Y0080960D03*
X0128851Y0080816D03*
X0128851Y0080720D03*
X0128851Y0080624D03*
X0128851Y0080528D03*
X0128851Y0080384D03*
X0128851Y0080288D03*
D80*
X0155875Y0076928D03*
X0155875Y0076784D03*
X0136483Y0113456D03*
D81*
X0158251Y0105008D03*
X0158251Y0104048D03*
X0158251Y0104000D03*
X0158251Y0103904D03*
X0152635Y0082208D03*
X0154651Y0080048D03*
X0152395Y0076832D03*
X0164251Y0077648D03*
X0165067Y0079568D03*
X0165019Y0079664D03*
X0164875Y0079904D03*
X0164827Y0080000D03*
X0128875Y0080240D03*
D82*
X0128851Y0080336D03*
X0128851Y0080432D03*
X0128851Y0080480D03*
X0128851Y0080576D03*
X0128851Y0080672D03*
X0128851Y0080768D03*
X0128851Y0080864D03*
X0128851Y0080912D03*
X0128851Y0081008D03*
X0128851Y0081104D03*
X0128851Y0081200D03*
X0128851Y0081248D03*
X0128851Y0081344D03*
X0128851Y0081440D03*
X0128851Y0081536D03*
X0128851Y0081632D03*
X0128851Y0081680D03*
X0128851Y0081776D03*
X0128851Y0081872D03*
X0128851Y0081968D03*
X0128851Y0082064D03*
X0128851Y0082112D03*
X0128851Y0082208D03*
X0128851Y0082304D03*
X0128851Y0082400D03*
X0128851Y0082448D03*
X0128851Y0082544D03*
X0128851Y0082640D03*
X0128851Y0082736D03*
X0128851Y0082832D03*
X0128851Y0082880D03*
X0143635Y0082208D03*
X0149587Y0082304D03*
X0154675Y0080000D03*
X0151795Y0076880D03*
X0162163Y0077648D03*
X0165091Y0079472D03*
X0165187Y0079376D03*
X0164947Y0079808D03*
X0164803Y0080048D03*
X0164755Y0080144D03*
X0164707Y0080240D03*
X0164803Y0082208D03*
X0166819Y0081536D03*
X0167923Y0080768D03*
X0167347Y0079472D03*
X0167251Y0077072D03*
X0166195Y0077072D03*
X0158275Y0104144D03*
X0158275Y0104240D03*
X0158275Y0104864D03*
X0158275Y0104912D03*
X0156259Y0103904D03*
X0138739Y0112112D03*
X0137155Y0115808D03*
X0137059Y0115904D03*
D83*
X0136723Y0113504D03*
X0148339Y0104576D03*
X0148339Y0104480D03*
X0148339Y0104432D03*
X0148339Y0104336D03*
X0148339Y0104240D03*
X0142483Y0082832D03*
X0160579Y0081440D03*
X0160579Y0081344D03*
X0160579Y0081248D03*
X0160579Y0081200D03*
X0160579Y0081104D03*
X0160579Y0081008D03*
X0160579Y0080912D03*
X0160579Y0080864D03*
X0166723Y0076976D03*
X0166723Y0076880D03*
X0167347Y0080048D03*
D84*
X0166171Y0077120D03*
X0163003Y0080288D03*
X0163003Y0082256D03*
X0160027Y0080816D03*
X0159595Y0077456D03*
X0154699Y0079952D03*
X0151771Y0076928D03*
X0150427Y0080624D03*
X0136651Y0080624D03*
X0136651Y0080720D03*
X0136651Y0080528D03*
X0136651Y0080384D03*
X0136651Y0080288D03*
X0136651Y0080192D03*
X0136651Y0080096D03*
X0136651Y0081728D03*
X0136651Y0081824D03*
X0136651Y0081920D03*
X0136651Y0082016D03*
X0136651Y0082160D03*
X0133627Y0082160D03*
X0133627Y0081584D03*
X0133627Y0080720D03*
X0133627Y0079520D03*
X0133627Y0079424D03*
X0131899Y0079424D03*
X0131899Y0079520D03*
X0131899Y0079616D03*
X0131899Y0079760D03*
X0131899Y0079856D03*
X0131899Y0079952D03*
X0131899Y0080096D03*
X0131899Y0080192D03*
X0131899Y0080288D03*
X0131899Y0080384D03*
X0131899Y0080528D03*
X0131899Y0080624D03*
X0131899Y0080720D03*
X0131899Y0080816D03*
X0131899Y0080960D03*
X0131899Y0081056D03*
X0131899Y0081152D03*
X0131899Y0081296D03*
X0131899Y0081392D03*
X0131899Y0081488D03*
X0131899Y0081584D03*
X0131899Y0081728D03*
X0131899Y0081824D03*
X0131899Y0081920D03*
X0131899Y0082016D03*
X0131899Y0082160D03*
X0131899Y0082256D03*
X0131899Y0082352D03*
X0131899Y0082496D03*
X0131899Y0082592D03*
X0131899Y0082688D03*
X0131899Y0082784D03*
X0138763Y0095696D03*
X0138763Y0095792D03*
X0138763Y0095888D03*
X0138763Y0095984D03*
X0138763Y0096128D03*
X0138763Y0096224D03*
X0138763Y0096320D03*
X0138763Y0096416D03*
X0138763Y0096560D03*
X0138763Y0096656D03*
X0138763Y0096752D03*
X0138763Y0096896D03*
X0138763Y0096992D03*
X0138763Y0097088D03*
X0138763Y0097184D03*
X0138763Y0097328D03*
X0138763Y0097424D03*
X0138763Y0097520D03*
X0138763Y0097616D03*
X0138763Y0097760D03*
X0138763Y0097856D03*
X0138763Y0097952D03*
X0138763Y0098096D03*
X0138763Y0098192D03*
X0138763Y0098288D03*
X0138763Y0098384D03*
X0138763Y0098528D03*
X0138763Y0098624D03*
X0138763Y0098720D03*
X0138763Y0098816D03*
X0138763Y0098960D03*
X0138763Y0099056D03*
X0138763Y0099152D03*
X0138763Y0099296D03*
X0138763Y0099392D03*
X0138763Y0099488D03*
X0138763Y0099584D03*
X0138763Y0099728D03*
X0138763Y0099824D03*
X0138763Y0099920D03*
X0138763Y0100016D03*
X0138763Y0100160D03*
X0138763Y0100256D03*
X0138763Y0100352D03*
X0138763Y0100496D03*
X0138763Y0100592D03*
X0138763Y0100688D03*
X0138763Y0100784D03*
X0138763Y0100928D03*
X0138763Y0101024D03*
X0138763Y0101120D03*
X0138763Y0101216D03*
X0138763Y0101360D03*
X0138763Y0101456D03*
X0138763Y0101552D03*
X0138763Y0101696D03*
X0138763Y0101792D03*
X0138763Y0101888D03*
X0138763Y0101984D03*
X0138763Y0102128D03*
X0138763Y0102224D03*
X0138763Y0102320D03*
X0138763Y0102416D03*
X0138763Y0102560D03*
X0138763Y0102656D03*
X0138763Y0102752D03*
X0138763Y0102896D03*
X0138763Y0102992D03*
X0138763Y0103088D03*
X0138763Y0103184D03*
X0138763Y0103328D03*
X0138763Y0103424D03*
X0138763Y0103520D03*
X0138763Y0103616D03*
X0138763Y0103760D03*
X0138763Y0103856D03*
X0138763Y0103952D03*
X0138763Y0104096D03*
X0138763Y0104192D03*
X0138763Y0104288D03*
X0138763Y0104384D03*
X0138763Y0104528D03*
X0138763Y0104624D03*
X0138763Y0104720D03*
X0138763Y0104816D03*
X0138763Y0104960D03*
X0138763Y0105056D03*
X0138763Y0105152D03*
X0138763Y0105296D03*
X0138763Y0105392D03*
X0138763Y0105488D03*
X0138763Y0105584D03*
X0138763Y0105728D03*
X0138763Y0105824D03*
X0138763Y0105920D03*
X0138763Y0106016D03*
X0138763Y0106160D03*
X0138763Y0106256D03*
X0138763Y0106352D03*
X0138763Y0106496D03*
X0138763Y0106592D03*
X0138763Y0106688D03*
X0138763Y0106784D03*
X0138763Y0106928D03*
X0138763Y0107024D03*
X0138763Y0107120D03*
X0138763Y0107216D03*
X0138763Y0107360D03*
X0138763Y0107456D03*
X0138763Y0107552D03*
X0138763Y0107696D03*
X0138763Y0107792D03*
X0138763Y0107888D03*
X0138763Y0107984D03*
X0138763Y0108128D03*
X0138763Y0108224D03*
X0138763Y0108320D03*
X0138763Y0108416D03*
X0138763Y0108560D03*
X0138763Y0108656D03*
X0138763Y0108752D03*
X0138763Y0108896D03*
X0138763Y0108992D03*
X0138763Y0109088D03*
X0138763Y0109184D03*
X0138763Y0109328D03*
X0138763Y0109424D03*
X0138763Y0109520D03*
X0138763Y0109616D03*
X0138763Y0109760D03*
X0138763Y0109856D03*
X0138763Y0109952D03*
X0138763Y0110096D03*
X0138763Y0110192D03*
X0138763Y0110288D03*
X0138763Y0110384D03*
X0138763Y0110528D03*
X0138763Y0110624D03*
X0138763Y0110720D03*
X0138763Y0110816D03*
X0138763Y0110960D03*
X0138763Y0111152D03*
X0138763Y0111296D03*
X0138763Y0111392D03*
X0138763Y0111488D03*
X0137323Y0115616D03*
X0158299Y0104720D03*
X0158299Y0104624D03*
X0158299Y0104528D03*
X0158299Y0104384D03*
X0158299Y0104288D03*
D85*
X0148339Y0104288D03*
X0148339Y0104384D03*
X0148339Y0104528D03*
X0148339Y0104624D03*
X0167395Y0082256D03*
X0166723Y0077024D03*
X0166723Y0076928D03*
X0160579Y0080960D03*
X0160579Y0081056D03*
X0160579Y0081152D03*
X0160579Y0081296D03*
X0160579Y0081392D03*
X0160579Y0081488D03*
D86*
X0159211Y0077216D03*
X0146875Y0077216D03*
X0146875Y0077120D03*
X0146875Y0077024D03*
X0130411Y0077120D03*
D87*
X0130411Y0077216D03*
X0151387Y0077696D03*
X0165787Y0077792D03*
X0155179Y0103184D03*
X0154651Y0105056D03*
X0154939Y0105584D03*
X0155035Y0105728D03*
X0155275Y0105920D03*
X0157195Y0105920D03*
X0157291Y0105824D03*
X0157531Y0105584D03*
X0157579Y0105488D03*
X0137851Y0114416D03*
D88*
X0155131Y0093392D03*
X0156331Y0093392D03*
X0156427Y0093392D03*
X0156763Y0093392D03*
X0137131Y0077360D03*
D89*
X0142291Y0082928D03*
X0149587Y0081584D03*
X0152947Y0081584D03*
X0164227Y0077360D03*
X0167347Y0082592D03*
D90*
X0154147Y0077648D03*
X0154147Y0077600D03*
X0154147Y0077504D03*
X0154147Y0077408D03*
X0153043Y0093344D03*
X0153043Y0095648D03*
D91*
X0153043Y0095696D03*
X0154147Y0077696D03*
X0154147Y0077552D03*
X0154147Y0077456D03*
D92*
X0154171Y0077744D03*
X0164251Y0077504D03*
X0156283Y0104240D03*
X0156283Y0104672D03*
X0134779Y0117200D03*
D93*
X0134395Y0117488D03*
X0143899Y0081920D03*
X0143899Y0081488D03*
X0143899Y0081392D03*
X0152491Y0082496D03*
X0154795Y0079760D03*
X0159595Y0077552D03*
D94*
X0164827Y0079952D03*
X0164731Y0082256D03*
X0149611Y0082256D03*
X0143611Y0082256D03*
X0146059Y0077696D03*
X0158251Y0103952D03*
X0134587Y0117392D03*
D95*
X0137827Y0114560D03*
X0157027Y0106016D03*
X0157027Y0093392D03*
X0158659Y0093392D03*
X0164227Y0077792D03*
D96*
X0160651Y0082928D03*
X0142603Y0082688D03*
X0142603Y0080624D03*
X0129547Y0079328D03*
X0136555Y0113696D03*
X0135451Y0115520D03*
D97*
X0137299Y0082256D03*
X0137299Y0079328D03*
X0146035Y0079424D03*
X0146035Y0079520D03*
X0146035Y0079616D03*
X0146035Y0079760D03*
X0146035Y0079856D03*
X0146035Y0079952D03*
X0146035Y0080096D03*
X0146035Y0080192D03*
X0160675Y0079952D03*
X0160675Y0079856D03*
X0160675Y0079760D03*
X0160675Y0079616D03*
X0160675Y0079520D03*
X0160675Y0079424D03*
X0160675Y0082352D03*
X0160675Y0082496D03*
X0160675Y0082592D03*
X0160675Y0082688D03*
X0160675Y0082784D03*
D98*
X0142627Y0082640D03*
X0142627Y0080672D03*
X0129523Y0080144D03*
X0129523Y0080048D03*
X0129523Y0080000D03*
X0129523Y0079904D03*
X0129523Y0079808D03*
X0129523Y0079712D03*
X0129523Y0079664D03*
X0129523Y0079568D03*
X0129523Y0079472D03*
X0129523Y0079376D03*
X0135283Y0116768D03*
D99*
X0135499Y0115472D03*
X0134299Y0082880D03*
X0134299Y0082832D03*
X0134299Y0082736D03*
X0134299Y0082640D03*
X0134299Y0082544D03*
X0134299Y0082448D03*
X0134299Y0082400D03*
X0134299Y0082304D03*
X0137323Y0082304D03*
X0137323Y0082400D03*
X0137323Y0082448D03*
X0137323Y0082544D03*
X0137323Y0082640D03*
X0137323Y0082736D03*
X0137323Y0082832D03*
X0137323Y0082880D03*
X0137323Y0080000D03*
X0137323Y0079904D03*
X0137323Y0079808D03*
X0137323Y0079712D03*
X0137323Y0079664D03*
X0137323Y0079568D03*
X0137323Y0079472D03*
X0137323Y0079376D03*
D100*
X0137299Y0080048D03*
X0146035Y0080048D03*
X0146035Y0080000D03*
X0146035Y0079904D03*
X0146035Y0079808D03*
X0146035Y0079712D03*
X0146035Y0079664D03*
X0146035Y0079568D03*
X0146035Y0079472D03*
X0146035Y0079376D03*
X0146035Y0080144D03*
X0160675Y0080000D03*
X0160675Y0079904D03*
X0160675Y0079808D03*
X0160675Y0079712D03*
X0160675Y0079664D03*
X0160675Y0079568D03*
X0160675Y0079472D03*
X0160675Y0079376D03*
X0160675Y0082304D03*
X0160675Y0082400D03*
X0160675Y0082448D03*
X0160675Y0082544D03*
X0160675Y0082640D03*
X0160675Y0082736D03*
X0160675Y0082832D03*
X0160675Y0082880D03*
X0136579Y0113648D03*
X0135427Y0115568D03*
D101*
X0135523Y0115424D03*
X0163699Y0082688D03*
X0129523Y0080192D03*
X0129523Y0080096D03*
X0129523Y0079952D03*
X0129523Y0079856D03*
X0129523Y0079760D03*
X0129523Y0079616D03*
X0129523Y0079520D03*
X0129523Y0079424D03*
D102*
X0134299Y0082256D03*
X0134299Y0082352D03*
X0134299Y0082496D03*
X0134299Y0082592D03*
X0134299Y0082688D03*
X0134299Y0082784D03*
X0134299Y0082928D03*
X0137323Y0082928D03*
X0137323Y0082784D03*
X0137323Y0082688D03*
X0137323Y0082592D03*
X0137323Y0082496D03*
X0137323Y0082352D03*
X0137323Y0079952D03*
X0137323Y0079856D03*
X0137323Y0079760D03*
X0137323Y0079616D03*
X0137323Y0079520D03*
X0137323Y0079424D03*
D103*
X0151027Y0079424D03*
D104*
X0149611Y0081824D03*
X0167371Y0079616D03*
X0156283Y0104192D03*
X0156283Y0104288D03*
X0156283Y0104720D03*
D105*
X0156283Y0104480D03*
X0156283Y0104432D03*
X0158011Y0103232D03*
X0153019Y0095600D03*
X0143371Y0095600D03*
X0167611Y0080912D03*
X0167371Y0079664D03*
D106*
X0167371Y0079712D03*
X0167515Y0081008D03*
X0167275Y0081248D03*
X0149611Y0081632D03*
X0143371Y0093440D03*
X0134875Y0117104D03*
D107*
X0157915Y0103088D03*
X0148219Y0088256D03*
X0148219Y0088160D03*
X0148219Y0088016D03*
X0148219Y0087920D03*
X0148219Y0087824D03*
X0148219Y0087728D03*
X0148219Y0087584D03*
X0148219Y0087488D03*
X0154315Y0080720D03*
X0163387Y0082928D03*
X0167371Y0082496D03*
X0167371Y0079760D03*
D108*
X0167371Y0079808D03*
X0167371Y0082448D03*
X0154267Y0080864D03*
X0153019Y0081440D03*
X0148219Y0088400D03*
X0148219Y0090272D03*
X0148219Y0090368D03*
X0148219Y0090464D03*
X0148219Y0090512D03*
X0148219Y0090608D03*
X0148219Y0090704D03*
X0148219Y0090800D03*
X0148219Y0090848D03*
X0148219Y0093200D03*
X0148219Y0093248D03*
X0148219Y0093440D03*
X0148219Y0095648D03*
X0148219Y0095840D03*
X0148219Y0096512D03*
X0148219Y0096608D03*
X0148219Y0096704D03*
X0148219Y0096800D03*
X0148219Y0096848D03*
X0148219Y0096944D03*
X0148219Y0097808D03*
X0148219Y0097904D03*
X0148219Y0098000D03*
X0148219Y0098048D03*
X0148219Y0098672D03*
X0148171Y0100448D03*
X0148171Y0100544D03*
X0148171Y0100640D03*
X0148171Y0100736D03*
X0148171Y0100832D03*
X0148171Y0100880D03*
X0148171Y0100976D03*
X0148171Y0101072D03*
X0148171Y0101168D03*
X0148171Y0101264D03*
X0148171Y0101312D03*
X0148171Y0101408D03*
X0148171Y0101504D03*
X0148171Y0101600D03*
X0148171Y0101648D03*
X0148171Y0101744D03*
X0148171Y0101840D03*
X0148171Y0101936D03*
X0148171Y0102176D03*
X0148171Y0102368D03*
X0148171Y0102464D03*
X0148219Y0102608D03*
X0148219Y0102704D03*
X0148219Y0102800D03*
X0148219Y0102848D03*
X0148219Y0102944D03*
X0157867Y0103040D03*
X0157867Y0102800D03*
X0157867Y0102704D03*
X0157867Y0102608D03*
X0157867Y0102512D03*
X0157867Y0102464D03*
X0157867Y0102368D03*
X0157867Y0102272D03*
X0157867Y0102176D03*
X0157867Y0102080D03*
X0157867Y0102032D03*
X0157867Y0101936D03*
X0157867Y0101840D03*
X0157867Y0101744D03*
X0157867Y0101648D03*
X0157867Y0101600D03*
X0157867Y0101504D03*
X0157867Y0101408D03*
X0157867Y0101312D03*
X0157867Y0101264D03*
X0157867Y0101168D03*
X0157867Y0101072D03*
X0157867Y0100976D03*
X0157867Y0100880D03*
X0157867Y0100832D03*
X0157867Y0100736D03*
X0157867Y0100640D03*
X0157867Y0100544D03*
X0157867Y0100448D03*
X0157867Y0100400D03*
X0157867Y0098672D03*
X0157867Y0098480D03*
X0157867Y0098432D03*
X0157867Y0098336D03*
X0157867Y0095648D03*
X0157867Y0095600D03*
D109*
X0149587Y0079856D03*
D110*
X0154267Y0080816D03*
X0148219Y0088352D03*
X0148219Y0088592D03*
X0148219Y0088688D03*
X0148219Y0090320D03*
X0148219Y0090560D03*
X0148219Y0090656D03*
X0148219Y0090752D03*
X0148219Y0090896D03*
X0148219Y0093296D03*
X0148219Y0095696D03*
X0148219Y0095792D03*
X0148219Y0095888D03*
X0148219Y0096560D03*
X0148219Y0096656D03*
X0148219Y0096752D03*
X0148219Y0096992D03*
X0148219Y0097856D03*
X0148219Y0097952D03*
X0148219Y0098096D03*
X0148219Y0098720D03*
X0148171Y0100496D03*
X0148171Y0100592D03*
X0148171Y0100688D03*
X0148171Y0100784D03*
X0148171Y0100928D03*
X0148171Y0101024D03*
X0148171Y0101120D03*
X0148171Y0101216D03*
X0148171Y0101360D03*
X0148171Y0101456D03*
X0148171Y0101552D03*
X0148171Y0101696D03*
X0148171Y0101792D03*
X0148171Y0101888D03*
X0148171Y0101984D03*
X0148171Y0102128D03*
X0148171Y0102224D03*
X0148171Y0102416D03*
X0148219Y0102560D03*
X0148219Y0102656D03*
X0148219Y0102752D03*
X0148219Y0102896D03*
X0157867Y0102752D03*
X0157867Y0102656D03*
X0157867Y0102560D03*
X0157867Y0102416D03*
X0157867Y0102320D03*
X0157867Y0102224D03*
X0157867Y0102128D03*
X0157867Y0101984D03*
X0157867Y0101888D03*
X0157867Y0101792D03*
X0157867Y0101696D03*
X0157867Y0101552D03*
X0157867Y0101456D03*
X0157867Y0101360D03*
X0157867Y0101216D03*
X0157867Y0101120D03*
X0157867Y0101024D03*
X0157867Y0100928D03*
X0157867Y0100784D03*
X0157867Y0100688D03*
X0157867Y0100592D03*
X0157867Y0100496D03*
X0157867Y0100352D03*
X0157867Y0098384D03*
X0167371Y0079856D03*
D111*
X0149611Y0079904D03*
D112*
X0153067Y0081344D03*
X0142411Y0082880D03*
X0167371Y0082400D03*
X0167371Y0079904D03*
X0135019Y0117008D03*
D113*
X0149587Y0079952D03*
D114*
X0167347Y0079952D03*
X0135379Y0115760D03*
D115*
X0149611Y0080000D03*
D116*
X0154171Y0081008D03*
X0142459Y0080432D03*
X0167371Y0080000D03*
X0167371Y0082304D03*
X0135403Y0115712D03*
D117*
X0135835Y0116144D03*
X0149611Y0080048D03*
X0153643Y0081104D03*
X0153643Y0081200D03*
X0153643Y0081248D03*
D118*
X0153643Y0081296D03*
X0153643Y0081152D03*
X0153643Y0081056D03*
X0149611Y0080096D03*
D119*
X0134203Y0080816D03*
X0157723Y0102896D03*
X0136651Y0113552D03*
X0167371Y0080096D03*
D120*
X0149635Y0080144D03*
X0135763Y0116240D03*
D121*
X0156259Y0105008D03*
X0158227Y0103808D03*
X0154627Y0080144D03*
D122*
X0149611Y0080192D03*
X0135739Y0116288D03*
D123*
X0134059Y0117776D03*
X0158923Y0098768D03*
X0136219Y0082976D03*
X0135355Y0082976D03*
X0133195Y0082976D03*
X0131467Y0082976D03*
X0129259Y0082976D03*
X0130603Y0080240D03*
D124*
X0149611Y0080240D03*
D125*
X0149611Y0080288D03*
X0157339Y0082160D03*
X0157339Y0082256D03*
X0157339Y0082352D03*
X0157339Y0082496D03*
X0157339Y0082592D03*
X0157339Y0082688D03*
X0157339Y0082784D03*
X0157339Y0082928D03*
D126*
X0152971Y0081536D03*
X0149611Y0081536D03*
X0142315Y0080336D03*
X0148219Y0087536D03*
X0148219Y0087632D03*
X0148219Y0087680D03*
X0148219Y0087776D03*
X0148219Y0087872D03*
X0148219Y0087968D03*
X0148219Y0088064D03*
X0148219Y0088112D03*
X0148219Y0088208D03*
X0167371Y0082544D03*
D127*
X0157339Y0082544D03*
X0157339Y0082640D03*
X0157339Y0082736D03*
X0157339Y0082832D03*
X0157339Y0082880D03*
X0157339Y0082448D03*
X0157339Y0082400D03*
X0157339Y0082304D03*
X0157339Y0082208D03*
X0157339Y0082112D03*
X0149611Y0080336D03*
D128*
X0142747Y0080864D03*
X0142747Y0080912D03*
X0142747Y0082400D03*
X0163819Y0082448D03*
X0163819Y0080864D03*
X0163819Y0080336D03*
X0136267Y0114080D03*
X0136219Y0114176D03*
X0135835Y0114800D03*
X0135787Y0114944D03*
D129*
X0167371Y0082352D03*
X0154219Y0080960D03*
X0142411Y0080384D03*
D130*
X0149611Y0080384D03*
D131*
X0142723Y0080816D03*
X0163795Y0080816D03*
X0163795Y0080384D03*
X0163795Y0082496D03*
X0136291Y0113984D03*
X0135427Y0116624D03*
D132*
X0135595Y0116432D03*
X0149611Y0080432D03*
D133*
X0154459Y0080432D03*
X0167659Y0080864D03*
D134*
X0163795Y0080432D03*
X0142723Y0082448D03*
X0136291Y0114032D03*
X0135811Y0114848D03*
X0135667Y0115136D03*
X0135379Y0116672D03*
D135*
X0135163Y0116912D03*
X0135403Y0115664D03*
X0163579Y0082832D03*
X0142507Y0080480D03*
D136*
X0149587Y0080480D03*
X0135523Y0116576D03*
D137*
X0163771Y0082544D03*
X0163771Y0080768D03*
X0163771Y0080480D03*
D138*
X0142531Y0080528D03*
X0142531Y0082784D03*
X0137251Y0081488D03*
X0137251Y0081056D03*
X0137251Y0080960D03*
X0134227Y0080960D03*
X0134227Y0081056D03*
X0134227Y0081152D03*
X0134227Y0081296D03*
X0134227Y0081392D03*
X0134227Y0081488D03*
D139*
X0142771Y0080960D03*
X0142771Y0082352D03*
X0149587Y0080528D03*
X0163843Y0082352D03*
X0136243Y0114128D03*
X0136099Y0114320D03*
X0135907Y0114656D03*
D140*
X0136387Y0113888D03*
X0157795Y0100160D03*
X0157795Y0100016D03*
X0157795Y0099920D03*
X0157795Y0099824D03*
X0157795Y0099728D03*
X0157795Y0099584D03*
X0157795Y0099488D03*
X0157795Y0099392D03*
X0157795Y0099296D03*
X0157795Y0099152D03*
X0157795Y0099056D03*
X0157795Y0098960D03*
X0157795Y0098816D03*
X0163747Y0082592D03*
X0163747Y0080624D03*
X0163747Y0080528D03*
X0142675Y0080720D03*
D141*
X0142603Y0080576D03*
X0163675Y0082736D03*
X0136507Y0113744D03*
D142*
X0135619Y0115232D03*
X0157795Y0100208D03*
X0157795Y0100112D03*
X0157795Y0100064D03*
X0157795Y0099968D03*
X0157795Y0099872D03*
X0157795Y0099776D03*
X0157795Y0099680D03*
X0157795Y0099632D03*
X0157795Y0099536D03*
X0157795Y0099440D03*
X0157795Y0099344D03*
X0157795Y0099248D03*
X0157795Y0099200D03*
X0157795Y0099104D03*
X0157795Y0099008D03*
X0157795Y0098912D03*
X0157795Y0098864D03*
X0142675Y0082544D03*
X0163747Y0080672D03*
X0163747Y0080576D03*
D143*
X0167227Y0081296D03*
X0167467Y0081056D03*
X0154363Y0080624D03*
X0157963Y0103184D03*
D144*
X0138451Y0112640D03*
X0154339Y0080672D03*
X0167395Y0081104D03*
D145*
X0163771Y0080720D03*
X0135643Y0115184D03*
D146*
X0135691Y0115040D03*
X0136363Y0113936D03*
X0148219Y0100208D03*
X0148219Y0100112D03*
X0148219Y0100064D03*
X0148219Y0099968D03*
X0148219Y0099872D03*
X0148219Y0099776D03*
X0148219Y0099680D03*
X0148219Y0099632D03*
X0148219Y0099536D03*
X0148219Y0099440D03*
X0148219Y0099344D03*
X0148219Y0099248D03*
X0148219Y0099200D03*
X0148219Y0099104D03*
X0148219Y0099008D03*
X0148219Y0098912D03*
X0148219Y0098864D03*
X0148219Y0090176D03*
X0148219Y0090080D03*
X0148219Y0090032D03*
X0148219Y0089936D03*
X0148219Y0089840D03*
X0148219Y0089744D03*
X0148219Y0089648D03*
X0148219Y0089600D03*
X0148219Y0089504D03*
X0148219Y0089408D03*
X0148219Y0089312D03*
X0148219Y0089264D03*
X0148219Y0089168D03*
X0148219Y0089072D03*
X0148219Y0088976D03*
X0148219Y0088880D03*
X0148219Y0088832D03*
X0148219Y0088736D03*
X0148219Y0084848D03*
X0148219Y0084800D03*
X0148219Y0084704D03*
X0148219Y0084608D03*
X0148219Y0084512D03*
X0148219Y0084464D03*
X0148219Y0084368D03*
X0148219Y0084272D03*
X0142699Y0080768D03*
D147*
X0148243Y0085040D03*
X0148243Y0085136D03*
X0148243Y0085232D03*
X0148243Y0085280D03*
X0148243Y0085376D03*
X0148243Y0085472D03*
X0148243Y0085568D03*
X0148243Y0085664D03*
X0148243Y0085712D03*
X0148243Y0085808D03*
X0148243Y0085904D03*
X0148243Y0086000D03*
X0148243Y0086048D03*
X0148243Y0086144D03*
X0148243Y0086240D03*
X0148243Y0086336D03*
X0148243Y0086432D03*
X0148243Y0086480D03*
X0148243Y0086576D03*
X0148243Y0086672D03*
X0148243Y0086768D03*
X0148243Y0086864D03*
X0148243Y0086912D03*
X0148243Y0087008D03*
X0148243Y0087104D03*
X0148243Y0087200D03*
X0148243Y0087248D03*
X0148243Y0087344D03*
X0148243Y0087440D03*
X0148243Y0088304D03*
X0148243Y0088448D03*
X0148243Y0088544D03*
X0148243Y0088640D03*
X0148243Y0090944D03*
X0148243Y0091040D03*
X0148243Y0091136D03*
X0148243Y0091232D03*
X0148243Y0091280D03*
X0148243Y0091376D03*
X0148243Y0091472D03*
X0148243Y0091568D03*
X0148243Y0091664D03*
X0148243Y0091712D03*
X0148243Y0091808D03*
X0148243Y0091904D03*
X0148243Y0092000D03*
X0148243Y0092048D03*
X0148243Y0092144D03*
X0148243Y0092240D03*
X0148243Y0092336D03*
X0148243Y0092432D03*
X0148243Y0092480D03*
X0148243Y0092576D03*
X0148243Y0092672D03*
X0148243Y0092768D03*
X0148243Y0092864D03*
X0148243Y0092912D03*
X0148243Y0093008D03*
X0148243Y0093104D03*
X0148243Y0093344D03*
X0148243Y0095600D03*
X0148243Y0095744D03*
X0148243Y0095936D03*
X0148243Y0096032D03*
X0148243Y0096080D03*
X0148243Y0096176D03*
X0148243Y0096272D03*
X0148243Y0096368D03*
X0148243Y0096464D03*
X0148243Y0097040D03*
X0148243Y0097136D03*
X0148243Y0097232D03*
X0148243Y0097280D03*
X0148243Y0097376D03*
X0148243Y0097472D03*
X0148243Y0097568D03*
X0148243Y0097664D03*
X0148243Y0097712D03*
X0148243Y0098144D03*
X0148243Y0098240D03*
X0148243Y0098336D03*
X0148243Y0098432D03*
X0148243Y0098480D03*
X0148243Y0098576D03*
X0154291Y0080768D03*
D148*
X0137227Y0080816D03*
X0137227Y0081152D03*
X0137227Y0081296D03*
X0137227Y0081392D03*
D149*
X0137251Y0081440D03*
X0137251Y0081536D03*
X0137251Y0081248D03*
X0137251Y0081200D03*
X0137251Y0081104D03*
X0137251Y0081008D03*
X0137251Y0080912D03*
X0137251Y0080864D03*
X0134227Y0080864D03*
X0134227Y0080912D03*
X0134227Y0081008D03*
X0134227Y0081104D03*
X0134227Y0081200D03*
X0134227Y0081248D03*
X0134227Y0081344D03*
X0134227Y0081440D03*
X0134227Y0081536D03*
X0136627Y0113600D03*
X0135187Y0116864D03*
D150*
X0135283Y0116048D03*
X0135283Y0116000D03*
X0135331Y0115808D03*
X0148195Y0103232D03*
X0148195Y0103136D03*
X0148195Y0103040D03*
X0148195Y0102512D03*
X0148195Y0102272D03*
X0148195Y0102080D03*
X0148195Y0102032D03*
X0148195Y0100400D03*
X0148195Y0100304D03*
X0148243Y0098768D03*
X0157843Y0098576D03*
X0157843Y0098240D03*
X0157843Y0098144D03*
X0157843Y0098048D03*
X0157843Y0098000D03*
X0157843Y0097904D03*
X0157843Y0097808D03*
X0157843Y0097712D03*
X0157843Y0097664D03*
X0157843Y0097568D03*
X0157843Y0097472D03*
X0157843Y0097376D03*
X0157843Y0097280D03*
X0157843Y0097232D03*
X0157843Y0097136D03*
X0157843Y0097040D03*
X0157843Y0096944D03*
X0157843Y0096848D03*
X0157843Y0096800D03*
X0157843Y0096704D03*
X0157843Y0096608D03*
X0157843Y0096512D03*
X0157843Y0096464D03*
X0157843Y0096368D03*
X0157843Y0096272D03*
X0157843Y0096176D03*
X0157843Y0096080D03*
X0157843Y0096032D03*
X0157843Y0095936D03*
X0157843Y0095840D03*
X0157843Y0095744D03*
X0157843Y0095504D03*
X0157843Y0100304D03*
X0157843Y0102848D03*
X0148243Y0084944D03*
X0154243Y0080912D03*
D151*
X0142771Y0081008D03*
X0142771Y0082304D03*
X0163843Y0082400D03*
X0163843Y0080912D03*
X0136147Y0114272D03*
X0136099Y0114368D03*
X0136051Y0114464D03*
X0135955Y0114608D03*
X0135907Y0114704D03*
D152*
X0142795Y0081056D03*
X0163867Y0080960D03*
D153*
X0163867Y0081008D03*
X0163867Y0082304D03*
X0136027Y0114512D03*
D154*
X0135523Y0116528D03*
X0163891Y0081056D03*
D155*
X0150211Y0081200D03*
D156*
X0152923Y0081632D03*
X0167323Y0081200D03*
X0157963Y0103136D03*
D157*
X0137227Y0081344D03*
D158*
X0153043Y0081392D03*
X0157843Y0095456D03*
X0157843Y0095552D03*
X0157843Y0095696D03*
X0157843Y0095792D03*
X0157843Y0095888D03*
X0157843Y0095984D03*
X0157843Y0096128D03*
X0157843Y0096224D03*
X0157843Y0096320D03*
X0157843Y0096416D03*
X0157843Y0096560D03*
X0157843Y0096656D03*
X0157843Y0096752D03*
X0157843Y0096896D03*
X0157843Y0096992D03*
X0157843Y0097088D03*
X0157843Y0097184D03*
X0157843Y0097328D03*
X0157843Y0097424D03*
X0157843Y0097520D03*
X0157843Y0097616D03*
X0157843Y0097760D03*
X0157843Y0097856D03*
X0157843Y0097952D03*
X0157843Y0098096D03*
X0157843Y0098192D03*
X0157843Y0098288D03*
X0157843Y0098528D03*
X0157843Y0098624D03*
X0157843Y0098720D03*
X0157843Y0102992D03*
X0148195Y0102992D03*
X0148195Y0103088D03*
X0148195Y0103184D03*
X0148195Y0102320D03*
X0148195Y0100352D03*
X0135331Y0115856D03*
D159*
X0135307Y0115904D03*
X0149611Y0081440D03*
D160*
X0149587Y0081488D03*
X0148243Y0084992D03*
X0148243Y0085088D03*
X0148243Y0085184D03*
X0148243Y0085328D03*
X0148243Y0085424D03*
X0148243Y0085520D03*
X0148243Y0085616D03*
X0148243Y0085760D03*
X0148243Y0085856D03*
X0148243Y0085952D03*
X0148243Y0086096D03*
X0148243Y0086192D03*
X0148243Y0086288D03*
X0148243Y0086384D03*
X0148243Y0086528D03*
X0148243Y0086624D03*
X0148243Y0086720D03*
X0148243Y0086816D03*
X0148243Y0086960D03*
X0148243Y0087056D03*
X0148243Y0087152D03*
X0148243Y0087296D03*
X0148243Y0087392D03*
X0148243Y0088496D03*
X0148243Y0090416D03*
X0148243Y0090992D03*
X0148243Y0091088D03*
X0148243Y0091184D03*
X0148243Y0091328D03*
X0148243Y0091424D03*
X0148243Y0091520D03*
X0148243Y0091616D03*
X0148243Y0091760D03*
X0148243Y0091856D03*
X0148243Y0091952D03*
X0148243Y0092096D03*
X0148243Y0092192D03*
X0148243Y0092288D03*
X0148243Y0092384D03*
X0148243Y0092528D03*
X0148243Y0092624D03*
X0148243Y0092720D03*
X0148243Y0092816D03*
X0148243Y0092960D03*
X0148243Y0093056D03*
X0148243Y0093152D03*
X0148243Y0093392D03*
X0148243Y0095984D03*
X0148243Y0096128D03*
X0148243Y0096224D03*
X0148243Y0096320D03*
X0148243Y0096416D03*
X0148243Y0096896D03*
X0148243Y0097088D03*
X0148243Y0097184D03*
X0148243Y0097328D03*
X0148243Y0097424D03*
X0148243Y0097520D03*
X0148243Y0097616D03*
X0148243Y0097760D03*
X0148243Y0098192D03*
X0148243Y0098288D03*
X0148243Y0098384D03*
X0148243Y0098528D03*
X0148243Y0098624D03*
X0134947Y0117056D03*
D161*
X0152995Y0081488D03*
D162*
X0149587Y0081728D03*
X0153091Y0093392D03*
X0143395Y0093392D03*
X0138451Y0112160D03*
X0138451Y0112256D03*
X0138451Y0112352D03*
X0138451Y0112496D03*
X0138451Y0112592D03*
D163*
X0158059Y0103328D03*
X0152827Y0081824D03*
D164*
X0148219Y0084320D03*
X0148219Y0084416D03*
X0148219Y0084560D03*
X0148219Y0084656D03*
X0148219Y0084752D03*
X0148219Y0084896D03*
X0148219Y0088784D03*
X0148219Y0088928D03*
X0148219Y0089024D03*
X0148219Y0089120D03*
X0148219Y0089216D03*
X0148219Y0089360D03*
X0148219Y0089456D03*
X0148219Y0089552D03*
X0148219Y0089696D03*
X0148219Y0089792D03*
X0148219Y0089888D03*
X0148219Y0089984D03*
X0148219Y0090128D03*
X0148219Y0090224D03*
X0148219Y0098816D03*
X0148219Y0098960D03*
X0148219Y0099056D03*
X0148219Y0099152D03*
X0148219Y0099296D03*
X0148219Y0099392D03*
X0148219Y0099488D03*
X0148219Y0099584D03*
X0148219Y0099728D03*
X0148219Y0099824D03*
X0148219Y0099920D03*
X0148219Y0100016D03*
X0148219Y0100160D03*
X0148219Y0100256D03*
X0142699Y0082496D03*
X0135691Y0115088D03*
D165*
X0135595Y0115328D03*
X0135307Y0116720D03*
X0136459Y0113792D03*
X0138427Y0113360D03*
X0138427Y0113216D03*
X0138427Y0113120D03*
X0138427Y0113024D03*
X0138427Y0112928D03*
X0138427Y0112784D03*
X0138427Y0112688D03*
X0142651Y0082592D03*
D166*
X0163723Y0082640D03*
X0138427Y0112736D03*
X0138427Y0112832D03*
X0138427Y0112880D03*
X0138427Y0112976D03*
X0138427Y0113072D03*
X0138427Y0113168D03*
X0138427Y0113264D03*
X0138427Y0113312D03*
X0136411Y0113840D03*
X0135595Y0115280D03*
X0135547Y0115376D03*
D167*
X0142555Y0082736D03*
D168*
X0163627Y0082784D03*
X0135403Y0115616D03*
X0135211Y0116816D03*
D169*
X0157843Y0098768D03*
X0163507Y0082880D03*
D170*
X0138379Y0082976D03*
X0132283Y0082976D03*
X0128443Y0082976D03*
D171*
X0155515Y0093440D03*
D172*
X0148219Y0093488D03*
X0148219Y0093584D03*
X0148219Y0093728D03*
X0148219Y0093824D03*
X0148219Y0093920D03*
X0148219Y0094016D03*
D173*
X0148219Y0094064D03*
X0148219Y0093968D03*
X0148219Y0093872D03*
X0148219Y0093776D03*
X0148219Y0093680D03*
X0148219Y0093632D03*
X0148219Y0093536D03*
D174*
X0148531Y0094112D03*
X0148531Y0094304D03*
X0148531Y0094400D03*
X0148531Y0094448D03*
X0148531Y0094640D03*
X0148531Y0094736D03*
X0148531Y0094832D03*
X0148531Y0094880D03*
X0148531Y0094976D03*
X0148531Y0095072D03*
X0148531Y0095168D03*
X0148531Y0095264D03*
X0148531Y0095312D03*
X0148531Y0095408D03*
D175*
X0148555Y0094496D03*
X0148555Y0094160D03*
D176*
X0148555Y0094208D03*
X0148555Y0094544D03*
D177*
X0148531Y0094592D03*
X0148531Y0094688D03*
X0148531Y0094784D03*
X0148531Y0094928D03*
X0148531Y0095024D03*
X0148531Y0095120D03*
X0148531Y0095216D03*
X0148531Y0095360D03*
X0148531Y0094352D03*
X0148531Y0094256D03*
D178*
X0146035Y0095456D03*
X0146035Y0095552D03*
D179*
X0146035Y0095504D03*
D180*
X0157939Y0100256D03*
D181*
X0157795Y0102944D03*
D182*
X0151219Y0103280D03*
D183*
X0151195Y0103328D03*
D184*
X0151195Y0103376D03*
D185*
X0151171Y0103424D03*
D186*
X0151147Y0103472D03*
D187*
X0151147Y0103520D03*
D188*
X0151123Y0103568D03*
D189*
X0151099Y0103616D03*
D190*
X0151099Y0103664D03*
D191*
X0151075Y0103712D03*
D192*
X0151075Y0103760D03*
D193*
X0151051Y0103808D03*
X0151051Y0103904D03*
D194*
X0151051Y0103856D03*
D195*
X0151027Y0103952D03*
D196*
X0151027Y0104000D03*
X0151027Y0104048D03*
X0151027Y0105008D03*
D197*
X0151003Y0104960D03*
X0151003Y0104816D03*
X0151003Y0104720D03*
X0151003Y0104192D03*
X0151003Y0104096D03*
D198*
X0151003Y0104144D03*
X0151003Y0104672D03*
X0151003Y0104768D03*
X0151003Y0104864D03*
X0151003Y0104912D03*
D199*
X0155491Y0106064D03*
D200*
X0136171Y0114224D03*
X0135883Y0114752D03*
X0135787Y0114896D03*
X0135739Y0114992D03*
D201*
X0135979Y0114560D03*
X0136075Y0114416D03*
D202*
X0135307Y0115952D03*
D203*
X0135859Y0116096D03*
D204*
X0135811Y0116192D03*
D205*
X0135715Y0116336D03*
D206*
X0135667Y0116384D03*
D207*
X0135571Y0116480D03*
D208*
X0135067Y0116960D03*
D209*
X0045795Y0015107D02*
X0046546Y0014356D01*
X0048047Y0014356D01*
X0048798Y0015107D01*
X0048798Y0016608D01*
X0047296Y0016608D01*
X0045795Y0018109D02*
X0045795Y0015107D01*
X0045795Y0018109D02*
X0046546Y0018860D01*
X0048047Y0018860D01*
X0048798Y0018109D01*
X0050399Y0018860D02*
X0053402Y0014356D01*
X0053402Y0018860D01*
X0055003Y0018860D02*
X0057255Y0018860D01*
X0058006Y0018109D01*
X0058006Y0015107D01*
X0057255Y0014356D01*
X0055003Y0014356D01*
X0055003Y0018860D01*
X0050399Y0018860D02*
X0050399Y0014356D01*
X0051900Y0023706D02*
X0053402Y0025207D01*
X0053402Y0028210D01*
X0050399Y0028210D02*
X0050399Y0025207D01*
X0051900Y0023706D01*
X0048798Y0024457D02*
X0048047Y0023706D01*
X0046546Y0023706D01*
X0045795Y0024457D01*
X0045795Y0025958D02*
X0047296Y0026708D01*
X0048047Y0026708D01*
X0048798Y0025958D01*
X0048798Y0024457D01*
X0045795Y0025958D02*
X0045795Y0028210D01*
X0048798Y0028210D01*
X0047672Y0034356D02*
X0046171Y0034356D01*
X0045420Y0035107D01*
X0046171Y0036608D02*
X0045420Y0037358D01*
X0045420Y0038109D01*
X0046171Y0038860D01*
X0047672Y0038860D01*
X0048423Y0038109D01*
X0047672Y0036608D02*
X0048423Y0035857D01*
X0048423Y0035107D01*
X0047672Y0034356D01*
X0047672Y0036608D02*
X0046171Y0036608D01*
X0050024Y0038860D02*
X0050024Y0034356D01*
X0052276Y0034356D01*
X0053027Y0035107D01*
X0053027Y0038109D01*
X0052276Y0038860D01*
X0050024Y0038860D01*
X0054628Y0037358D02*
X0054628Y0034356D01*
X0054628Y0036608D02*
X0057631Y0036608D01*
X0057631Y0037358D02*
X0057631Y0034356D01*
X0057631Y0037358D02*
X0056129Y0038860D01*
X0054628Y0037358D01*
X0054803Y0045006D02*
X0057806Y0045006D01*
X0054803Y0045006D02*
X0054803Y0049510D01*
X0053202Y0048759D02*
X0052451Y0049510D01*
X0050950Y0049510D01*
X0050199Y0048759D01*
X0050199Y0045757D01*
X0050950Y0045006D01*
X0052451Y0045006D01*
X0053202Y0045757D01*
X0048598Y0045757D02*
X0047847Y0045006D01*
X0046346Y0045006D01*
X0045595Y0045757D01*
X0046346Y0047258D02*
X0045595Y0048008D01*
X0045595Y0048759D01*
X0046346Y0049510D01*
X0047847Y0049510D01*
X0048598Y0048759D01*
X0047847Y0047258D02*
X0048598Y0046507D01*
X0048598Y0045757D01*
X0047847Y0047258D02*
X0046346Y0047258D01*
X0144591Y0047758D02*
X0144591Y0046257D01*
X0145342Y0045506D01*
X0146093Y0045506D01*
X0146843Y0046257D01*
X0146843Y0047758D01*
X0147594Y0048508D01*
X0148345Y0048508D01*
X0149095Y0047758D01*
X0149095Y0046257D01*
X0148345Y0045506D01*
X0145342Y0048508D02*
X0144591Y0047758D01*
X0145342Y0050110D02*
X0148345Y0050110D01*
X0149095Y0050860D01*
X0149095Y0052362D01*
X0148345Y0053112D01*
X0149095Y0054714D02*
X0149095Y0057716D01*
X0149095Y0054714D02*
X0144591Y0054714D01*
X0145342Y0053112D02*
X0144591Y0052362D01*
X0144591Y0050860D01*
X0145342Y0050110D01*
X0155091Y0050010D02*
X0155091Y0052262D01*
X0155842Y0053012D01*
X0158845Y0053012D01*
X0159595Y0052262D01*
X0159595Y0050010D01*
X0155091Y0050010D01*
X0155842Y0048408D02*
X0155091Y0047658D01*
X0155091Y0046157D01*
X0155842Y0045406D01*
X0156593Y0045406D01*
X0157343Y0046157D01*
X0157343Y0047658D01*
X0158094Y0048408D01*
X0158845Y0048408D01*
X0159595Y0047658D01*
X0159595Y0046157D01*
X0158845Y0045406D01*
X0159595Y0054614D02*
X0156593Y0054614D01*
X0155091Y0056115D01*
X0156593Y0057616D01*
X0159595Y0057616D01*
X0157343Y0057616D02*
X0157343Y0054614D01*
X0255595Y0067756D02*
X0255595Y0104756D01*
X0256595Y0105756D01*
X0268095Y0106256D01*
X0256995Y0103956D02*
X0256997Y0104019D01*
X0257003Y0104081D01*
X0257013Y0104143D01*
X0257026Y0104205D01*
X0257044Y0104265D01*
X0257065Y0104324D01*
X0257090Y0104382D01*
X0257119Y0104438D01*
X0257151Y0104492D01*
X0257186Y0104544D01*
X0257224Y0104593D01*
X0257266Y0104641D01*
X0257310Y0104685D01*
X0257358Y0104727D01*
X0257407Y0104765D01*
X0257459Y0104800D01*
X0257513Y0104832D01*
X0257569Y0104861D01*
X0257627Y0104886D01*
X0257686Y0104907D01*
X0257746Y0104925D01*
X0257808Y0104938D01*
X0257870Y0104948D01*
X0257932Y0104954D01*
X0257995Y0104956D01*
X0258058Y0104954D01*
X0258120Y0104948D01*
X0258182Y0104938D01*
X0258244Y0104925D01*
X0258304Y0104907D01*
X0258363Y0104886D01*
X0258421Y0104861D01*
X0258477Y0104832D01*
X0258531Y0104800D01*
X0258583Y0104765D01*
X0258632Y0104727D01*
X0258680Y0104685D01*
X0258724Y0104641D01*
X0258766Y0104593D01*
X0258804Y0104544D01*
X0258839Y0104492D01*
X0258871Y0104438D01*
X0258900Y0104382D01*
X0258925Y0104324D01*
X0258946Y0104265D01*
X0258964Y0104205D01*
X0258977Y0104143D01*
X0258987Y0104081D01*
X0258993Y0104019D01*
X0258995Y0103956D01*
X0258993Y0103893D01*
X0258987Y0103831D01*
X0258977Y0103769D01*
X0258964Y0103707D01*
X0258946Y0103647D01*
X0258925Y0103588D01*
X0258900Y0103530D01*
X0258871Y0103474D01*
X0258839Y0103420D01*
X0258804Y0103368D01*
X0258766Y0103319D01*
X0258724Y0103271D01*
X0258680Y0103227D01*
X0258632Y0103185D01*
X0258583Y0103147D01*
X0258531Y0103112D01*
X0258477Y0103080D01*
X0258421Y0103051D01*
X0258363Y0103026D01*
X0258304Y0103005D01*
X0258244Y0102987D01*
X0258182Y0102974D01*
X0258120Y0102964D01*
X0258058Y0102958D01*
X0257995Y0102956D01*
X0257932Y0102958D01*
X0257870Y0102964D01*
X0257808Y0102974D01*
X0257746Y0102987D01*
X0257686Y0103005D01*
X0257627Y0103026D01*
X0257569Y0103051D01*
X0257513Y0103080D01*
X0257459Y0103112D01*
X0257407Y0103147D01*
X0257358Y0103185D01*
X0257310Y0103227D01*
X0257266Y0103271D01*
X0257224Y0103319D01*
X0257186Y0103368D01*
X0257151Y0103420D01*
X0257119Y0103474D01*
X0257090Y0103530D01*
X0257065Y0103588D01*
X0257044Y0103647D01*
X0257026Y0103707D01*
X0257013Y0103769D01*
X0257003Y0103831D01*
X0256997Y0103893D01*
X0256995Y0103956D01*
X0303422Y0088583D02*
X0308934Y0088583D01*
X0308934Y0129642D01*
X0303422Y0129642D01*
X0303422Y0088583D01*
X0308934Y0088583D02*
X0330981Y0088583D01*
X0330981Y0129642D01*
X0308934Y0129642D01*
X0308934Y0067142D02*
X0303422Y0067142D01*
X0303422Y0039583D01*
X0308934Y0039583D01*
X0308934Y0067142D01*
X0330981Y0067142D01*
X0330981Y0039583D01*
X0308934Y0039583D01*
X0268095Y0066256D02*
X0256595Y0066756D01*
X0255595Y0067756D01*
D210*
X0336790Y0067698D02*
X0343195Y0071969D01*
X0336790Y0071969D01*
X0336790Y0067698D02*
X0343195Y0067698D01*
X0343195Y0065537D02*
X0343195Y0063401D01*
X0343195Y0064469D02*
X0336790Y0064469D01*
X0336790Y0063401D02*
X0336790Y0065537D01*
X0336790Y0061226D02*
X0341060Y0061226D01*
X0343195Y0059091D01*
X0341060Y0056956D01*
X0336790Y0056956D01*
X0337857Y0049317D02*
X0336790Y0048250D01*
X0336790Y0045047D01*
X0343195Y0045047D01*
X0343195Y0048250D01*
X0342128Y0049317D01*
X0337857Y0049317D01*
X0336790Y0042872D02*
X0343195Y0042872D01*
X0336790Y0038601D01*
X0343195Y0038601D01*
X0342128Y0036426D02*
X0339992Y0036426D01*
X0339992Y0034291D01*
X0337857Y0032156D02*
X0342128Y0032156D01*
X0343195Y0033223D01*
X0343195Y0035359D01*
X0342128Y0036426D01*
X0337857Y0036426D02*
X0336790Y0035359D01*
X0336790Y0033223D01*
X0337857Y0032156D01*
X0335890Y0080556D02*
X0340160Y0080556D01*
X0342295Y0082691D01*
X0340160Y0084826D01*
X0335890Y0084826D01*
X0335890Y0087001D02*
X0335890Y0089137D01*
X0335890Y0088069D02*
X0342295Y0088069D01*
X0342295Y0087001D02*
X0342295Y0089137D01*
X0342295Y0091298D02*
X0335890Y0091298D01*
X0342295Y0095569D01*
X0335890Y0095569D01*
X0337225Y0100856D02*
X0335090Y0102991D01*
X0337225Y0105126D01*
X0341495Y0105126D01*
X0341495Y0107301D02*
X0335090Y0107301D01*
X0335090Y0110504D01*
X0336157Y0111572D01*
X0340428Y0111572D01*
X0341495Y0110504D01*
X0341495Y0107301D01*
X0338292Y0105126D02*
X0338292Y0100856D01*
X0337225Y0100856D02*
X0341495Y0100856D01*
X0340428Y0113747D02*
X0341495Y0114814D01*
X0341495Y0115882D01*
X0340428Y0116950D01*
X0335090Y0116950D01*
X0335090Y0118017D02*
X0335090Y0115882D01*
X0335657Y0123356D02*
X0339928Y0123356D01*
X0340995Y0124423D01*
X0340995Y0126559D01*
X0339928Y0127626D01*
X0337792Y0127626D01*
X0337792Y0125491D01*
X0335657Y0123356D02*
X0334590Y0124423D01*
X0334590Y0126559D01*
X0335657Y0127626D01*
X0334590Y0129801D02*
X0340995Y0134072D01*
X0334590Y0134072D01*
X0334590Y0136247D02*
X0334590Y0139450D01*
X0335657Y0140517D01*
X0339928Y0140517D01*
X0340995Y0139450D01*
X0340995Y0136247D01*
X0334590Y0136247D01*
X0334590Y0129801D02*
X0340995Y0129801D01*
D211*
X0231238Y0048369D02*
X0207638Y0048370D01*
X0207638Y0022567D01*
X0231238Y0022569D01*
X0100095Y0023756D02*
X0097595Y0021256D01*
X0092595Y0021256D01*
X0090095Y0023756D01*
X0087595Y0021256D01*
X0082595Y0021256D01*
X0080095Y0023756D01*
X0077595Y0021256D01*
X0072595Y0021256D01*
X0070095Y0023756D01*
X0067595Y0021256D01*
X0062595Y0021256D01*
X0060095Y0023756D01*
X0060095Y0028756D01*
X0062595Y0031256D01*
X0067595Y0031256D01*
X0070095Y0028756D01*
X0072595Y0031256D01*
X0077595Y0031256D01*
X0080095Y0028756D01*
X0082595Y0031256D01*
X0087595Y0031256D01*
X0090095Y0028756D01*
X0092595Y0031256D01*
X0097595Y0031256D01*
X0100095Y0028756D01*
X0100095Y0023756D01*
X0097359Y0021217D02*
X0092359Y0021217D01*
X0089859Y0018717D01*
X0087359Y0021217D01*
X0082359Y0021217D01*
X0079859Y0018717D01*
X0077359Y0021217D01*
X0072359Y0021217D01*
X0069859Y0018717D01*
X0067359Y0021217D01*
X0062359Y0021217D01*
X0059859Y0018717D01*
X0059859Y0013717D01*
X0062359Y0011217D01*
X0067359Y0011217D01*
X0069859Y0013717D01*
X0072359Y0011217D01*
X0077359Y0011217D01*
X0079859Y0013717D01*
X0082359Y0011217D01*
X0087359Y0011217D01*
X0089859Y0013717D01*
X0092359Y0011217D01*
X0097359Y0011217D01*
X0099859Y0013717D01*
X0099859Y0018717D01*
X0097359Y0021217D01*
X0097595Y0031256D02*
X0092595Y0031256D01*
X0090095Y0033756D01*
X0087595Y0031256D01*
X0082595Y0031256D01*
X0080095Y0033756D01*
X0077595Y0031256D01*
X0072595Y0031256D01*
X0070095Y0033756D01*
X0067595Y0031256D01*
X0062595Y0031256D01*
X0060095Y0033756D01*
X0060095Y0038756D01*
X0062595Y0041256D01*
X0067595Y0041256D01*
X0070095Y0043756D01*
X0072595Y0041256D01*
X0077595Y0041256D01*
X0080095Y0043756D01*
X0082595Y0041256D01*
X0087595Y0041256D01*
X0090095Y0043756D01*
X0092595Y0041256D01*
X0097595Y0041256D01*
X0100095Y0043756D01*
X0100095Y0048756D01*
X0097595Y0051256D01*
X0092595Y0051256D01*
X0090095Y0048756D01*
X0087595Y0051256D01*
X0082595Y0051256D01*
X0080095Y0048756D01*
X0077595Y0051256D01*
X0072595Y0051256D01*
X0070095Y0048756D01*
X0067595Y0051256D01*
X0062595Y0051256D01*
X0060095Y0048756D01*
X0060095Y0043756D01*
X0062595Y0041256D01*
X0067595Y0041256D01*
X0070095Y0038756D01*
X0072595Y0041256D01*
X0077595Y0041256D01*
X0080095Y0038756D01*
X0082595Y0041256D01*
X0087595Y0041256D01*
X0090095Y0038756D01*
X0092595Y0041256D01*
X0097595Y0041256D01*
X0100095Y0038756D01*
X0100095Y0033756D01*
X0097595Y0031256D01*
D212*
X0205738Y0035469D03*
D213*
X0206257Y0170370D03*
X0206257Y0173323D03*
D214*
X0206257Y0171846D03*
D215*
X0253938Y0174477D02*
X0257438Y0174477D01*
X0257438Y0172427D01*
X0287438Y0172427D01*
X0287438Y0174477D01*
X0290938Y0174477D01*
X0290938Y0137477D01*
X0253938Y0137477D01*
X0253938Y0174477D01*
D216*
X0271095Y0086256D03*
D217*
X0268595Y0069006D03*
X0268595Y0103506D03*
D218*
X0268595Y0091256D03*
X0268595Y0081256D03*
M02*
