G75*
%MOIN*%
%OFA0B0*%
%FSLAX25Y25*%
%IPPOS*%
%LPD*%
%AMOC8*
5,1,8,0,0,1.08239X$1,22.5*
%
%ADD10C,0.00400*%
%ADD11C,0.00500*%
%ADD12C,0.00600*%
D10*
X0119785Y0033554D02*
X0119785Y0036156D01*
X0120653Y0037023D01*
X0121520Y0036156D01*
X0121520Y0033554D01*
X0123255Y0033554D02*
X0123255Y0037023D01*
X0122387Y0037023D01*
X0121520Y0036156D01*
X0124958Y0033554D02*
X0126692Y0033554D01*
X0125825Y0033554D02*
X0125825Y0037023D01*
X0126692Y0037023D01*
X0125825Y0038758D02*
X0125825Y0039625D01*
X0131849Y0038758D02*
X0131849Y0033554D01*
X0128379Y0033554D01*
X0138692Y0033554D02*
X0138692Y0036156D01*
X0139559Y0037023D01*
X0142162Y0037023D01*
X0142162Y0033554D01*
X0143848Y0033554D02*
X0143848Y0036156D01*
X0144716Y0037023D01*
X0146451Y0037023D01*
X0147318Y0036156D01*
X0149005Y0036156D02*
X0149872Y0037023D01*
X0151607Y0037023D01*
X0152474Y0036156D01*
X0152474Y0034421D01*
X0151607Y0033554D01*
X0149872Y0033554D01*
X0149005Y0034421D01*
X0149005Y0036156D01*
X0147318Y0038758D02*
X0147318Y0033554D01*
X0155029Y0034421D02*
X0155029Y0038758D01*
X0155896Y0038758D02*
X0154161Y0038758D01*
X0155029Y0034421D02*
X0155896Y0033554D01*
X0156763Y0033554D01*
X0157631Y0034421D01*
X0164474Y0033554D02*
X0167076Y0033554D01*
X0167944Y0034421D01*
X0167944Y0037023D01*
X0169630Y0036156D02*
X0170498Y0037023D01*
X0173100Y0037023D01*
X0173100Y0038758D02*
X0173100Y0033554D01*
X0170498Y0033554D01*
X0169630Y0034421D01*
X0169630Y0036156D01*
X0164474Y0037023D02*
X0164474Y0032686D01*
X0165341Y0031819D01*
X0166209Y0031819D01*
X0179943Y0033554D02*
X0182545Y0033554D01*
X0183413Y0034421D01*
X0183413Y0036156D01*
X0182545Y0037023D01*
X0179943Y0037023D01*
X0179943Y0038758D02*
X0179943Y0033554D01*
X0185100Y0035288D02*
X0188569Y0035288D01*
X0188569Y0034421D02*
X0188569Y0036156D01*
X0187702Y0037023D01*
X0185967Y0037023D01*
X0185100Y0036156D01*
X0185100Y0035288D01*
X0185967Y0033554D02*
X0187702Y0033554D01*
X0188569Y0034421D01*
X0190256Y0033554D02*
X0190256Y0036156D01*
X0191123Y0037023D01*
X0193726Y0037023D01*
X0193726Y0033554D01*
X0195412Y0033554D02*
X0198015Y0033554D01*
X0198882Y0034421D01*
X0198882Y0036156D01*
X0198015Y0037023D01*
X0195412Y0037023D01*
X0195412Y0032686D01*
X0196280Y0031819D01*
X0197147Y0031819D01*
X0198850Y0030358D02*
X0198850Y0029491D01*
X0202320Y0026021D01*
X0202320Y0025154D01*
X0204006Y0025154D02*
X0207476Y0025154D01*
X0205741Y0025154D02*
X0205741Y0030358D01*
X0207476Y0028623D01*
X0209163Y0029491D02*
X0212632Y0026021D01*
X0211765Y0025154D01*
X0210030Y0025154D01*
X0209163Y0026021D01*
X0209163Y0029491D01*
X0210030Y0030358D01*
X0211765Y0030358D01*
X0212632Y0029491D01*
X0212632Y0026021D01*
X0214319Y0025154D02*
X0217789Y0025154D01*
X0214319Y0028623D01*
X0214319Y0029491D01*
X0215187Y0030358D01*
X0216921Y0030358D01*
X0217789Y0029491D01*
X0217789Y0033554D02*
X0215187Y0033554D01*
X0214319Y0034421D01*
X0214319Y0037891D01*
X0215187Y0038758D01*
X0217789Y0038758D01*
X0217789Y0033554D01*
X0212632Y0034421D02*
X0212632Y0036156D01*
X0211765Y0037023D01*
X0210030Y0037023D01*
X0209163Y0036156D01*
X0209163Y0035288D01*
X0212632Y0035288D01*
X0212632Y0034421D02*
X0211765Y0033554D01*
X0210030Y0033554D01*
X0207476Y0033554D02*
X0204874Y0033554D01*
X0204006Y0034421D01*
X0204874Y0035288D01*
X0206609Y0035288D01*
X0207476Y0036156D01*
X0206609Y0037023D01*
X0204006Y0037023D01*
X0202320Y0037023D02*
X0201452Y0037023D01*
X0201452Y0033554D01*
X0200585Y0033554D02*
X0202320Y0033554D01*
X0202320Y0030358D02*
X0198850Y0030358D01*
X0201452Y0038758D02*
X0201452Y0039625D01*
X0201297Y0045732D02*
X0200429Y0046600D01*
X0201297Y0047467D01*
X0203032Y0047467D01*
X0203899Y0048334D01*
X0203032Y0049202D01*
X0200429Y0049202D01*
X0198743Y0049202D02*
X0197875Y0049202D01*
X0197875Y0045732D01*
X0197008Y0045732D02*
X0198743Y0045732D01*
X0201297Y0045732D02*
X0203899Y0045732D01*
X0205594Y0049202D02*
X0206461Y0049202D01*
X0208196Y0047467D01*
X0209883Y0047467D02*
X0213352Y0047467D01*
X0213352Y0048334D02*
X0212485Y0049202D01*
X0210750Y0049202D01*
X0209883Y0048334D01*
X0209883Y0047467D01*
X0210750Y0045732D02*
X0212485Y0045732D01*
X0213352Y0046600D01*
X0213352Y0048334D01*
X0215039Y0047467D02*
X0215039Y0050937D01*
X0218509Y0050937D02*
X0218509Y0047467D01*
X0216774Y0045732D01*
X0215039Y0047467D01*
X0213352Y0054132D02*
X0213352Y0059337D01*
X0209883Y0059337D01*
X0208196Y0058469D02*
X0208196Y0055000D01*
X0207329Y0054132D01*
X0205594Y0054132D01*
X0204726Y0055000D01*
X0204726Y0058469D02*
X0205594Y0059337D01*
X0207329Y0059337D01*
X0208196Y0058469D01*
X0211618Y0056734D02*
X0213352Y0056734D01*
X0215039Y0056734D02*
X0215907Y0055867D01*
X0218509Y0055867D01*
X0218509Y0054132D02*
X0218509Y0059337D01*
X0215907Y0059337D01*
X0215039Y0058469D01*
X0215039Y0056734D01*
X0215039Y0062532D02*
X0218509Y0062532D01*
X0218509Y0067737D01*
X0213352Y0066002D02*
X0212485Y0066002D01*
X0212485Y0062532D01*
X0213352Y0062532D02*
X0211618Y0062532D01*
X0209047Y0062532D02*
X0209047Y0066869D01*
X0208180Y0067737D01*
X0208180Y0065134D02*
X0209915Y0065134D01*
X0206477Y0065134D02*
X0205610Y0066002D01*
X0203875Y0066002D01*
X0203008Y0065134D01*
X0203008Y0064267D01*
X0206477Y0064267D01*
X0206477Y0063400D02*
X0206477Y0065134D01*
X0206477Y0063400D02*
X0205610Y0062532D01*
X0203875Y0062532D01*
X0197883Y0059337D02*
X0195281Y0059337D01*
X0194414Y0058469D01*
X0194414Y0057602D01*
X0195281Y0056734D01*
X0197883Y0056734D01*
X0197883Y0054132D02*
X0195281Y0054132D01*
X0194414Y0055000D01*
X0194414Y0055867D01*
X0195281Y0056734D01*
X0192727Y0055867D02*
X0190992Y0057602D01*
X0190125Y0057602D01*
X0188430Y0056734D02*
X0188430Y0055000D01*
X0187562Y0054132D01*
X0185828Y0054132D01*
X0184960Y0055867D02*
X0188430Y0055867D01*
X0188430Y0056734D02*
X0187562Y0057602D01*
X0185828Y0057602D01*
X0184960Y0056734D01*
X0184960Y0055867D01*
X0183273Y0055000D02*
X0182406Y0055867D01*
X0179804Y0055867D01*
X0179804Y0056734D02*
X0179804Y0054132D01*
X0182406Y0054132D01*
X0183273Y0055000D01*
X0182406Y0057602D02*
X0180671Y0057602D01*
X0179804Y0056734D01*
X0178117Y0055867D02*
X0175515Y0054132D01*
X0173820Y0055000D02*
X0173820Y0056734D01*
X0172953Y0057602D01*
X0171218Y0057602D01*
X0170350Y0056734D01*
X0170350Y0055000D01*
X0171218Y0054132D01*
X0172953Y0054132D01*
X0173820Y0055000D01*
X0175515Y0057602D02*
X0178117Y0055867D01*
X0178117Y0054132D02*
X0178117Y0059337D01*
X0178944Y0062532D02*
X0178944Y0065134D01*
X0179812Y0066002D01*
X0182414Y0066002D01*
X0182414Y0062532D01*
X0184101Y0062532D02*
X0186703Y0062532D01*
X0187570Y0063400D01*
X0186703Y0064267D01*
X0184101Y0064267D01*
X0184101Y0065134D02*
X0184101Y0062532D01*
X0184101Y0065134D02*
X0184968Y0066002D01*
X0186703Y0066002D01*
X0190141Y0067737D02*
X0190141Y0062532D01*
X0191008Y0062532D02*
X0189273Y0062532D01*
X0192695Y0065134D02*
X0193562Y0064267D01*
X0196164Y0064267D01*
X0196164Y0062532D02*
X0196164Y0067737D01*
X0193562Y0067737D01*
X0192695Y0066869D01*
X0192695Y0065134D01*
X0191008Y0067737D02*
X0190141Y0067737D01*
X0197883Y0059337D02*
X0197883Y0054132D01*
X0197875Y0051804D02*
X0197875Y0050937D01*
X0195305Y0048334D02*
X0195305Y0046600D01*
X0194438Y0045732D01*
X0192703Y0045732D01*
X0191835Y0046600D01*
X0191835Y0048334D01*
X0192703Y0049202D01*
X0194438Y0049202D01*
X0195305Y0048334D01*
X0190149Y0049202D02*
X0187546Y0049202D01*
X0186679Y0048334D01*
X0186679Y0045732D01*
X0190149Y0045732D02*
X0190149Y0049202D01*
X0192727Y0054132D02*
X0192727Y0057602D01*
X0179836Y0049202D02*
X0178101Y0050937D01*
X0178101Y0045732D01*
X0179836Y0045732D02*
X0176366Y0045732D01*
X0174679Y0045732D02*
X0173812Y0045732D01*
X0173812Y0046600D01*
X0174679Y0046600D01*
X0174679Y0045732D01*
X0172101Y0046600D02*
X0168632Y0050069D01*
X0168632Y0046600D01*
X0169499Y0045732D01*
X0171234Y0045732D01*
X0172101Y0046600D01*
X0172101Y0050069D01*
X0171234Y0050937D01*
X0169499Y0050937D01*
X0168632Y0050069D01*
X0167796Y0054132D02*
X0165194Y0054132D01*
X0165194Y0057602D01*
X0163507Y0057602D02*
X0161772Y0057602D01*
X0162640Y0058469D02*
X0162640Y0055000D01*
X0161772Y0054132D01*
X0167796Y0054132D02*
X0168664Y0055000D01*
X0168664Y0057602D01*
X0168664Y0062532D02*
X0168664Y0066002D01*
X0168664Y0064267D02*
X0166929Y0066002D01*
X0166061Y0066002D01*
X0164367Y0065134D02*
X0163499Y0066002D01*
X0160897Y0066002D01*
X0161764Y0064267D02*
X0163499Y0064267D01*
X0164367Y0065134D01*
X0164367Y0062532D02*
X0161764Y0062532D01*
X0160897Y0063400D01*
X0161764Y0064267D01*
X0154913Y0059337D02*
X0152311Y0059337D01*
X0151444Y0058469D01*
X0151444Y0057602D01*
X0152311Y0056734D01*
X0154913Y0056734D01*
X0154913Y0054132D02*
X0152311Y0054132D01*
X0151444Y0055000D01*
X0151444Y0055867D01*
X0152311Y0056734D01*
X0149757Y0056734D02*
X0149757Y0055000D01*
X0148889Y0054132D01*
X0147155Y0054132D01*
X0146287Y0055000D01*
X0146287Y0056734D01*
X0147155Y0057602D01*
X0148889Y0057602D01*
X0149757Y0056734D01*
X0144600Y0055000D02*
X0143733Y0055867D01*
X0141131Y0055867D01*
X0141131Y0056734D02*
X0141131Y0054132D01*
X0143733Y0054132D01*
X0144600Y0055000D01*
X0143733Y0057602D02*
X0141998Y0057602D01*
X0141131Y0056734D01*
X0139444Y0055867D02*
X0137709Y0057602D01*
X0136842Y0057602D01*
X0135147Y0056734D02*
X0134280Y0057602D01*
X0131677Y0057602D01*
X0131677Y0059337D02*
X0131677Y0054132D01*
X0134280Y0054132D01*
X0135147Y0055000D01*
X0135147Y0056734D01*
X0139444Y0057602D02*
X0139444Y0054132D01*
X0154913Y0054132D02*
X0154913Y0059337D01*
X0170350Y0064267D02*
X0173820Y0064267D01*
X0173820Y0065134D02*
X0172953Y0066002D01*
X0171218Y0066002D01*
X0170350Y0065134D01*
X0170350Y0064267D01*
X0171218Y0062532D02*
X0172953Y0062532D01*
X0173820Y0063400D01*
X0173820Y0065134D01*
X0175523Y0066002D02*
X0177258Y0066002D01*
X0176390Y0066869D02*
X0176390Y0063400D01*
X0175523Y0062532D01*
X0208196Y0049202D02*
X0208196Y0045732D01*
X0212485Y0067737D02*
X0212485Y0068604D01*
X0379129Y0183953D02*
X0383733Y0183953D01*
X0383733Y0186255D01*
X0382966Y0187022D01*
X0381431Y0187022D01*
X0380664Y0186255D01*
X0380664Y0183953D01*
X0380664Y0185487D02*
X0379129Y0187022D01*
X0379129Y0188557D02*
X0382198Y0191626D01*
X0382966Y0191626D01*
X0383733Y0190859D01*
X0383733Y0189324D01*
X0382966Y0188557D01*
X0379129Y0188557D02*
X0379129Y0191626D01*
X0378362Y0193161D02*
X0378362Y0196230D01*
X0380664Y0197765D02*
X0379129Y0199299D01*
X0380664Y0200834D01*
X0383733Y0200834D01*
X0383733Y0202368D02*
X0379129Y0202368D01*
X0380664Y0202368D02*
X0380664Y0204670D01*
X0381431Y0205438D01*
X0382966Y0205438D01*
X0383733Y0204670D01*
X0383733Y0202368D01*
X0380664Y0203903D02*
X0379129Y0205438D01*
X0379129Y0206972D02*
X0379129Y0210042D01*
X0379896Y0211576D02*
X0379129Y0212344D01*
X0379129Y0213878D01*
X0379896Y0214646D01*
X0381431Y0214646D01*
X0381431Y0213111D01*
X0382966Y0214646D02*
X0383733Y0213878D01*
X0383733Y0212344D01*
X0382966Y0211576D01*
X0379896Y0211576D01*
X0381431Y0208507D02*
X0381431Y0206972D01*
X0383733Y0206972D02*
X0379129Y0206972D01*
X0383733Y0206972D02*
X0383733Y0210042D01*
X0378362Y0216180D02*
X0378362Y0219250D01*
X0379896Y0220784D02*
X0379129Y0221551D01*
X0379129Y0223086D01*
X0379896Y0223853D01*
X0380664Y0223853D01*
X0381431Y0223086D01*
X0381431Y0221551D01*
X0382198Y0220784D01*
X0382966Y0220784D01*
X0383733Y0221551D01*
X0383733Y0223086D01*
X0382966Y0223853D01*
X0383733Y0225388D02*
X0379129Y0225388D01*
X0380664Y0226923D01*
X0379129Y0228457D01*
X0383733Y0228457D01*
X0383733Y0197765D02*
X0380664Y0197765D01*
X0321155Y0194502D02*
X0321155Y0189898D01*
X0321155Y0191432D02*
X0318853Y0191432D01*
X0318086Y0192200D01*
X0318086Y0193734D01*
X0318853Y0194502D01*
X0321155Y0194502D01*
X0319620Y0191432D02*
X0318086Y0189898D01*
X0316551Y0189898D02*
X0313482Y0189898D01*
X0315016Y0189898D02*
X0315016Y0194502D01*
X0316551Y0192967D01*
X0311947Y0189130D02*
X0308878Y0189130D01*
X0307343Y0191432D02*
X0305809Y0189898D01*
X0304274Y0191432D01*
X0304274Y0194502D01*
X0302739Y0194502D02*
X0300437Y0194502D01*
X0299670Y0193734D01*
X0299670Y0192200D01*
X0300437Y0191432D01*
X0302739Y0191432D01*
X0301205Y0191432D02*
X0299670Y0189898D01*
X0298135Y0189898D02*
X0298135Y0194502D01*
X0295066Y0194502D01*
X0293531Y0193734D02*
X0293531Y0190665D01*
X0292764Y0189898D01*
X0291229Y0189898D01*
X0290462Y0190665D01*
X0290462Y0192200D01*
X0291997Y0192200D01*
X0293531Y0193734D02*
X0292764Y0194502D01*
X0291229Y0194502D01*
X0290462Y0193734D01*
X0288928Y0189130D02*
X0285858Y0189130D01*
X0284324Y0190665D02*
X0283556Y0189898D01*
X0282022Y0189898D01*
X0281254Y0190665D01*
X0281254Y0191432D01*
X0282022Y0192200D01*
X0283556Y0192200D01*
X0284324Y0192967D01*
X0284324Y0193734D01*
X0283556Y0194502D01*
X0282022Y0194502D01*
X0281254Y0193734D01*
X0279720Y0194502D02*
X0279720Y0189898D01*
X0278185Y0191432D01*
X0276650Y0189898D01*
X0276650Y0194502D01*
X0295066Y0189898D02*
X0298135Y0189898D01*
X0298135Y0192200D02*
X0296601Y0192200D01*
X0302739Y0189898D02*
X0302739Y0194502D01*
X0307343Y0194502D02*
X0307343Y0191432D01*
X0296986Y0256104D02*
X0292382Y0256104D01*
X0293916Y0256104D02*
X0293916Y0258406D01*
X0294684Y0259173D01*
X0296218Y0259173D01*
X0296986Y0258406D01*
X0296986Y0256104D01*
X0293916Y0257639D02*
X0292382Y0259173D01*
X0292382Y0260708D02*
X0292382Y0263777D01*
X0292382Y0262243D02*
X0296986Y0262243D01*
X0295451Y0260708D01*
X0291614Y0265312D02*
X0291614Y0268381D01*
X0293916Y0269916D02*
X0292382Y0271450D01*
X0293916Y0272985D01*
X0296986Y0272985D01*
X0296986Y0274520D02*
X0296986Y0276822D01*
X0296218Y0277589D01*
X0294684Y0277589D01*
X0293916Y0276822D01*
X0293916Y0274520D01*
X0292382Y0274520D02*
X0296986Y0274520D01*
X0293916Y0276054D02*
X0292382Y0277589D01*
X0292382Y0279124D02*
X0292382Y0282193D01*
X0293149Y0283728D02*
X0292382Y0284495D01*
X0292382Y0286029D01*
X0293149Y0286797D01*
X0294684Y0286797D01*
X0294684Y0285262D01*
X0296218Y0283728D02*
X0293149Y0283728D01*
X0296218Y0283728D02*
X0296986Y0284495D01*
X0296986Y0286029D01*
X0296218Y0286797D01*
X0291614Y0288331D02*
X0291614Y0291401D01*
X0292382Y0292935D02*
X0296986Y0292935D01*
X0296986Y0295237D01*
X0296218Y0296005D01*
X0294684Y0296005D01*
X0293916Y0295237D01*
X0293916Y0292935D01*
X0292382Y0297539D02*
X0292382Y0299074D01*
X0292382Y0298307D02*
X0296986Y0298307D01*
X0296986Y0299074D02*
X0296986Y0297539D01*
X0296986Y0300609D02*
X0292382Y0300609D01*
X0292382Y0303678D02*
X0296986Y0303678D01*
X0296986Y0300609D02*
X0292382Y0303678D01*
X0296986Y0282193D02*
X0296986Y0279124D01*
X0292382Y0279124D01*
X0294684Y0279124D02*
X0294684Y0280658D01*
X0293916Y0269916D02*
X0296986Y0269916D01*
X0376201Y0281512D02*
X0380805Y0281512D01*
X0380805Y0283814D01*
X0380037Y0284581D01*
X0378503Y0284581D01*
X0377735Y0283814D01*
X0377735Y0281512D01*
X0377735Y0283046D02*
X0376201Y0284581D01*
X0376201Y0286116D02*
X0379270Y0289185D01*
X0380037Y0289185D01*
X0380805Y0288418D01*
X0380805Y0286883D01*
X0380037Y0286116D01*
X0376201Y0286116D02*
X0376201Y0289185D01*
X0375433Y0290720D02*
X0375433Y0293789D01*
X0377735Y0295324D02*
X0376201Y0296858D01*
X0377735Y0298393D01*
X0380805Y0298393D01*
X0380805Y0299928D02*
X0376201Y0299928D01*
X0377735Y0299928D02*
X0377735Y0302229D01*
X0378503Y0302997D01*
X0380037Y0302997D01*
X0380805Y0302229D01*
X0380805Y0299928D01*
X0377735Y0301462D02*
X0376201Y0302997D01*
X0376201Y0304531D02*
X0376201Y0307601D01*
X0376968Y0309135D02*
X0376201Y0309903D01*
X0376201Y0311437D01*
X0376968Y0312205D01*
X0378503Y0312205D01*
X0378503Y0310670D01*
X0380037Y0309135D02*
X0376968Y0309135D01*
X0380037Y0309135D02*
X0380805Y0309903D01*
X0380805Y0311437D01*
X0380037Y0312205D01*
X0380805Y0307601D02*
X0380805Y0304531D01*
X0376201Y0304531D01*
X0378503Y0304531D02*
X0378503Y0306066D01*
X0375433Y0313739D02*
X0375433Y0316809D01*
X0376201Y0318343D02*
X0380805Y0318343D01*
X0380805Y0320645D01*
X0380037Y0321412D01*
X0378503Y0321412D01*
X0377735Y0320645D01*
X0377735Y0318343D01*
X0376201Y0322947D02*
X0376201Y0324482D01*
X0376201Y0323714D02*
X0380805Y0323714D01*
X0380805Y0322947D02*
X0380805Y0324482D01*
X0380805Y0326016D02*
X0376201Y0329086D01*
X0380805Y0329086D01*
X0380805Y0326016D02*
X0376201Y0326016D01*
X0377735Y0295324D02*
X0380805Y0295324D01*
D11*
X0385600Y0248320D02*
X0385600Y0243816D01*
X0388603Y0248320D01*
X0388603Y0243816D01*
X0390171Y0243816D02*
X0391672Y0243816D01*
X0390921Y0243816D02*
X0390921Y0248320D01*
X0390171Y0248320D02*
X0391672Y0248320D01*
X0393273Y0248320D02*
X0393273Y0245317D01*
X0394775Y0243816D01*
X0396276Y0245317D01*
X0396276Y0248320D01*
X0402481Y0247569D02*
X0403232Y0248320D01*
X0404733Y0248320D01*
X0405484Y0247569D01*
X0405484Y0244566D01*
X0404733Y0243816D01*
X0403232Y0243816D01*
X0402481Y0244566D01*
X0400880Y0243065D02*
X0397877Y0243065D01*
X0323133Y0204951D02*
X0323133Y0201948D01*
X0322382Y0201198D01*
X0320881Y0201198D01*
X0320130Y0201948D01*
X0318529Y0200447D02*
X0315526Y0200447D01*
X0313925Y0201198D02*
X0313925Y0204200D01*
X0312423Y0205701D01*
X0310922Y0204200D01*
X0310922Y0201198D01*
X0309321Y0201198D02*
X0307069Y0201198D01*
X0306318Y0201948D01*
X0306318Y0204951D01*
X0307069Y0205701D01*
X0309321Y0205701D01*
X0309321Y0201198D01*
X0310922Y0203450D02*
X0313925Y0203450D01*
X0304717Y0201948D02*
X0303966Y0201198D01*
X0303216Y0201198D01*
X0302465Y0201948D01*
X0302465Y0205701D01*
X0303216Y0205701D02*
X0301714Y0205701D01*
X0295509Y0204951D02*
X0295509Y0204200D01*
X0294758Y0203450D01*
X0293257Y0203450D01*
X0292506Y0202699D01*
X0292506Y0201948D01*
X0293257Y0201198D01*
X0294758Y0201198D01*
X0295509Y0201948D01*
X0297110Y0200447D02*
X0300113Y0200447D01*
X0295509Y0204951D02*
X0294758Y0205701D01*
X0293257Y0205701D01*
X0292506Y0204951D01*
X0290905Y0205701D02*
X0290905Y0201198D01*
X0289404Y0202699D01*
X0287903Y0201198D01*
X0287903Y0205701D01*
X0320130Y0204951D02*
X0320881Y0205701D01*
X0322382Y0205701D01*
X0323133Y0204951D01*
X0193196Y0276734D02*
X0190944Y0276734D01*
X0190194Y0277485D01*
X0190194Y0280487D01*
X0190944Y0281238D01*
X0193196Y0281238D01*
X0193196Y0276734D01*
X0188592Y0275984D02*
X0185590Y0275984D01*
X0183988Y0276734D02*
X0183988Y0281238D01*
X0182487Y0279737D01*
X0180986Y0281238D01*
X0180986Y0276734D01*
X0179385Y0275984D02*
X0176382Y0275984D01*
X0174781Y0276734D02*
X0174781Y0281238D01*
X0172529Y0281238D01*
X0171778Y0280487D01*
X0171778Y0278986D01*
X0172529Y0278236D01*
X0174781Y0278236D01*
X0170177Y0276734D02*
X0168675Y0276734D01*
X0169426Y0276734D02*
X0169426Y0281238D01*
X0170177Y0281238D02*
X0168675Y0281238D01*
X0167107Y0281238D02*
X0164105Y0276734D01*
X0164105Y0281238D01*
X0162503Y0280487D02*
X0162503Y0279737D01*
X0161753Y0278986D01*
X0160252Y0278986D01*
X0159501Y0278236D01*
X0159501Y0277485D01*
X0160252Y0276734D01*
X0161753Y0276734D01*
X0162503Y0277485D01*
X0162503Y0280487D02*
X0161753Y0281238D01*
X0160252Y0281238D01*
X0159501Y0280487D01*
X0167107Y0281238D02*
X0167107Y0276734D01*
X0200188Y0301591D02*
X0200188Y0306095D01*
X0203190Y0306095D02*
X0200188Y0301591D01*
X0203190Y0301591D02*
X0203190Y0306095D01*
X0204758Y0306095D02*
X0206259Y0306095D01*
X0205509Y0306095D02*
X0205509Y0301591D01*
X0206259Y0301591D02*
X0204758Y0301591D01*
X0207861Y0303843D02*
X0208611Y0303093D01*
X0210863Y0303093D01*
X0210863Y0301591D02*
X0210863Y0306095D01*
X0208611Y0306095D01*
X0207861Y0305345D01*
X0207861Y0303843D01*
X0212465Y0300841D02*
X0215467Y0300841D01*
X0217819Y0302342D02*
X0217819Y0306095D01*
X0217069Y0306095D02*
X0218570Y0306095D01*
X0221673Y0305345D02*
X0221673Y0302342D01*
X0222423Y0301591D01*
X0224675Y0301591D01*
X0224675Y0306095D01*
X0222423Y0306095D01*
X0221673Y0305345D01*
X0220071Y0302342D02*
X0219321Y0301591D01*
X0218570Y0301591D01*
X0217819Y0302342D01*
X0226276Y0301591D02*
X0226276Y0304594D01*
X0227778Y0306095D01*
X0229279Y0304594D01*
X0229279Y0301591D01*
X0230880Y0300841D02*
X0233883Y0300841D01*
X0235484Y0302342D02*
X0236235Y0301591D01*
X0237736Y0301591D01*
X0238487Y0302342D01*
X0238487Y0305345D01*
X0237736Y0306095D01*
X0236235Y0306095D01*
X0235484Y0305345D01*
X0229279Y0303843D02*
X0226276Y0303843D01*
X0048614Y0173270D02*
X0048614Y0171768D01*
X0047863Y0171018D01*
X0047112Y0171018D01*
X0046362Y0171768D01*
X0046362Y0173270D01*
X0045611Y0174020D01*
X0044860Y0174020D01*
X0044110Y0173270D01*
X0044110Y0171768D01*
X0044860Y0171018D01*
X0044110Y0169416D02*
X0048614Y0169416D01*
X0048614Y0166414D02*
X0044110Y0166414D01*
X0044110Y0164846D02*
X0044110Y0163344D01*
X0044110Y0164095D02*
X0048614Y0164095D01*
X0048614Y0163344D02*
X0048614Y0164846D01*
X0048614Y0166414D02*
X0044110Y0169416D01*
X0048614Y0173270D02*
X0047863Y0174020D01*
X0047863Y0161743D02*
X0046362Y0161743D01*
X0045611Y0160992D01*
X0045611Y0158741D01*
X0044110Y0158741D02*
X0048614Y0158741D01*
X0048614Y0160992D01*
X0047863Y0161743D01*
X0043359Y0157139D02*
X0043359Y0154137D01*
X0044110Y0152535D02*
X0048614Y0152535D01*
X0047112Y0151034D01*
X0048614Y0149533D01*
X0044110Y0149533D01*
X0043359Y0147931D02*
X0043359Y0144929D01*
X0044110Y0143327D02*
X0047112Y0143327D01*
X0048614Y0141826D01*
X0047112Y0140325D01*
X0044110Y0140325D01*
X0046362Y0140325D02*
X0046362Y0143327D01*
X0327664Y0081156D02*
X0328415Y0081156D01*
X0331417Y0084159D01*
X0332168Y0084159D01*
X0332168Y0081156D01*
X0332668Y0072990D02*
X0328164Y0072990D01*
X0329665Y0071489D01*
X0328164Y0069988D01*
X0332668Y0069988D01*
X0331917Y0068386D02*
X0328915Y0068386D01*
X0328164Y0067636D01*
X0328164Y0066134D01*
X0328915Y0065384D01*
X0331917Y0065384D01*
X0332668Y0066134D01*
X0332668Y0067636D01*
X0331917Y0068386D01*
X0328164Y0063782D02*
X0328164Y0060780D01*
X0332668Y0060780D01*
X0327413Y0059178D02*
X0327413Y0056176D01*
X0328164Y0054575D02*
X0328164Y0051572D01*
X0332668Y0051572D01*
X0332668Y0054575D01*
X0330416Y0053073D02*
X0330416Y0051572D01*
X0332668Y0049971D02*
X0332668Y0046968D01*
X0332668Y0048469D02*
X0328164Y0048469D01*
X0328164Y0045367D02*
X0331167Y0045367D01*
X0332668Y0043865D01*
X0331167Y0042364D01*
X0328164Y0042364D01*
X0328915Y0040763D02*
X0330416Y0040763D01*
X0330416Y0039262D01*
X0331917Y0040763D02*
X0332668Y0040012D01*
X0332668Y0038511D01*
X0331917Y0037760D01*
X0328915Y0037760D01*
X0328164Y0038511D01*
X0328164Y0040012D01*
X0328915Y0040763D01*
X0330416Y0042364D02*
X0330416Y0045367D01*
X0329665Y0036159D02*
X0332668Y0036159D01*
X0329665Y0036159D02*
X0328164Y0034658D01*
X0329665Y0033156D01*
X0332668Y0033156D01*
X0327664Y0024159D02*
X0327664Y0021156D01*
X0327664Y0022658D02*
X0332168Y0022658D01*
X0330667Y0021156D01*
X0395881Y0022681D02*
X0395881Y0025684D01*
X0396631Y0027285D02*
X0395881Y0028036D01*
X0395881Y0029537D01*
X0396631Y0030288D01*
X0399634Y0030288D01*
X0400384Y0029537D01*
X0400384Y0028036D01*
X0399634Y0027285D01*
X0396631Y0027285D01*
X0395881Y0022681D02*
X0400384Y0022681D01*
X0400384Y0021080D02*
X0397382Y0021080D01*
X0395881Y0019579D01*
X0397382Y0018078D01*
X0400384Y0018078D01*
X0400384Y0031889D02*
X0395881Y0031889D01*
X0397382Y0033391D01*
X0395881Y0034892D01*
X0400384Y0034892D01*
D12*
X0394131Y0035328D02*
X0394131Y0030328D01*
X0391631Y0027828D01*
X0394131Y0025328D01*
X0394131Y0020328D01*
X0391631Y0017828D01*
X0376631Y0017828D01*
X0374131Y0020328D01*
X0374131Y0025328D01*
X0376631Y0027828D01*
X0374131Y0030328D01*
X0374131Y0035328D01*
X0376631Y0037828D01*
X0374131Y0040328D01*
X0374131Y0045328D01*
X0376631Y0047828D01*
X0374131Y0050328D01*
X0374131Y0055328D01*
X0376631Y0057828D01*
X0374131Y0060328D01*
X0374131Y0065328D01*
X0376631Y0067828D01*
X0374131Y0070328D01*
X0374131Y0075328D01*
X0376631Y0077828D01*
X0374131Y0080328D01*
X0374131Y0085328D01*
X0376631Y0087828D01*
X0391631Y0087828D01*
X0394131Y0085328D01*
X0394131Y0080328D01*
X0391631Y0077828D01*
X0394131Y0075328D01*
X0394131Y0070328D01*
X0391631Y0067828D01*
X0394131Y0065328D01*
X0394131Y0060328D01*
X0391631Y0057828D01*
X0394131Y0055328D01*
X0394131Y0050328D01*
X0391631Y0047828D01*
X0394131Y0045328D01*
X0394131Y0040328D01*
X0391631Y0037828D01*
X0394131Y0035328D01*
X0326414Y0036906D02*
X0325414Y0037906D01*
X0326414Y0038906D01*
X0326414Y0046906D02*
X0325414Y0047906D01*
X0326414Y0048906D01*
X0326414Y0056906D02*
X0325414Y0057906D01*
X0326414Y0058906D01*
X0317414Y0057906D02*
X0316414Y0058906D01*
X0317414Y0057906D02*
X0316414Y0056906D01*
X0316414Y0048906D02*
X0317414Y0047906D01*
X0316414Y0046906D01*
X0316414Y0038906D02*
X0317414Y0037906D01*
X0316414Y0036906D01*
X0316414Y0028906D02*
X0317414Y0027906D01*
X0316414Y0026906D01*
X0316414Y0017906D02*
X0326414Y0017906D01*
X0326414Y0026906D02*
X0325414Y0027906D01*
X0326414Y0028906D01*
X0326414Y0066906D02*
X0325414Y0067906D01*
X0326414Y0068906D01*
X0317414Y0067906D02*
X0316414Y0068906D01*
X0317414Y0067906D02*
X0316414Y0066906D01*
X0316414Y0076906D02*
X0317414Y0077906D01*
X0316414Y0078906D01*
X0325414Y0077906D02*
X0326414Y0076906D01*
X0325414Y0077906D02*
X0326414Y0078906D01*
X0326414Y0087906D02*
X0316414Y0087906D01*
M02*
