%
M48
M72
T01C0.03150
T02C0.03200
T03C0.03937
T04C0.04000
T05C0.07087
T06C0.12598
T07C0.13000
%
T01
X94460Y120060
X106305Y130072
X106611Y188221
X116611Y188221
X126611Y188221
X136611Y188221
X146611Y188221
X156611Y188221
X166611Y188221
X176611Y188221
X186611Y188221
X196611Y188221
X206611Y188221
X231070Y245249
X241070Y245249
X241070Y255249
X231070Y255249
X231070Y265249
X241070Y265249
X241070Y275249
X231070Y275249
X206611Y248221
X196611Y248221
X186611Y248221
X176611Y248221
X166611Y248221
X156611Y248221
X146611Y248221
X136611Y248221
X126611Y248221
X116611Y248221
X106611Y248221
X96611Y248221
X86611Y248221
X76611Y248221
X66611Y248221
X66611Y188221
X76611Y188221
X86611Y188221
X96611Y188221
X307676Y224478
X368579Y153891
X368579Y130269
X368422Y106174
T02
X364131Y83103
X364131Y73103
X364131Y63103
X364131Y53103
X364131Y43103
X364131Y33103
X364131Y23103
X364131Y13103
X334131Y13103
X334131Y23103
X321414Y22906
X321414Y32906
X334131Y33103
X334131Y43103
X321414Y42906
X321414Y52906
X334131Y53103
X334131Y63103
X334131Y73103
X321414Y72906
X321414Y62906
X321414Y82906
X334131Y83103
X332123Y105111
X332123Y115111
X332123Y125111
X332123Y135111
X332123Y145111
X332123Y155111
X283934Y133103
X283934Y123103
X283934Y113103
X283934Y103103
X283934Y93103
X283934Y83103
X283934Y73103
X283934Y63103
X283934Y53103
X283934Y43103
X283934Y33103
X283934Y23103
X196581Y167846
X186581Y167846
X176581Y167846
X166581Y167846
X156581Y167846
X146581Y167846
X136581Y167846
X126581Y167846
X116581Y167846
X106581Y167846
X96581Y167846
X86581Y167846
X363501Y296607
X373501Y306607
X383501Y296607
X376453Y208182
X366453Y198182
X386453Y198182
T03
X79209Y86307
X79209Y76307
X46138Y76056
X46138Y86056
T04
X35902Y12552
X46138Y12552
X55981Y12552
X66020Y12749
X66020Y22749
X55981Y22552
X46138Y22552
X35902Y22552
X35902Y32552
X46138Y32552
X55981Y32552
X66020Y32749
X66020Y42749
X55981Y42552
X46138Y42552
X35902Y42552
X35902Y52552
X35902Y62552
X46138Y62552
X55981Y62552
X55981Y52552
X46138Y52552
X66020Y52749
X66020Y62749
X56060Y100072
X46060Y100072
X36060Y100072
X36060Y110072
X46060Y110072
X56060Y110072
X56060Y120072
X46060Y120072
X36060Y120072
X36060Y130072
X46060Y130072
X56060Y130072
X56060Y140072
X46060Y140072
X36060Y140072
X36060Y150072
X36060Y160072
X46060Y160072
X56060Y160072
X56060Y150072
X46060Y150072
X46060Y170072
X56060Y170072
X36060Y170072
X36217Y269324
X36217Y279324
X36217Y289324
X64091Y289402
X64091Y279402
X64091Y269402
X78146Y269284
X88146Y269284
X98146Y269284
X108146Y269284
X118146Y269284
X128146Y269284
X138146Y269284
X148146Y269284
X158146Y269284
X168146Y269284
X178146Y269284
X188146Y269284
X188146Y279284
X178146Y279284
X168146Y279284
X158146Y279284
X148146Y279284
X138146Y279284
X128146Y279284
X118146Y279284
X108146Y279284
X98146Y279284
X88146Y279284
X78146Y279284
X78146Y289284
X88146Y289284
X98146Y289284
X108146Y289284
X118146Y289284
X128146Y289284
X138146Y289284
X148146Y289284
X158146Y289284
X168146Y289284
X178146Y289284
X188146Y289284
X278776Y285623
X278776Y295623
X278776Y305623
X341257Y207198
X341257Y197198
X341257Y187198
X379327Y159717
X389327Y159717
X389327Y147906
X379327Y147906
X379327Y136095
X389327Y136095
X389327Y124284
X379327Y124284
X379327Y112473
X389327Y112473
X389327Y100662
X379327Y100662
X379131Y82828
X389131Y82828
X389131Y72828
X379131Y72828
X379131Y62828
X389131Y62828
X389131Y52828
X379131Y52828
X379131Y42828
X389131Y42828
X389131Y32828
X379131Y32828
X379131Y22828
X389131Y22828
T05
X373264Y236883
X373264Y267985
T06
X407949Y306450
X37871Y306450
X407949Y14127
T07
X282257Y197198
X337776Y295623
M30
