G75*
%MOIN*%
%OFA0B0*%
%FSLAX25Y25*%
%IPPOS*%
%LPD*%
%AMOC8*
5,1,8,0,0,1.08239X$1,22.5*
%
%ADD10R,0.24409X0.21260*%
%ADD11R,0.06299X0.03937*%
%ADD12R,0.03150X0.03150*%
%ADD13R,0.04331X0.03937*%
%ADD14R,0.03937X0.04331*%
%ADD15R,0.03937X0.02756*%
D10*
X0304997Y0252473D03*
D11*
X0276257Y0243497D03*
X0276257Y0261450D03*
D12*
X0225509Y0297198D03*
X0219603Y0297198D03*
X0208579Y0272001D03*
X0202674Y0272001D03*
X0330784Y0249324D03*
X0330784Y0243418D03*
X0297773Y0170767D03*
X0291868Y0170767D03*
X0036020Y0176961D03*
X0036020Y0182867D03*
D13*
X0036138Y0189206D03*
X0036138Y0195898D03*
X0330705Y0255190D03*
X0330705Y0261883D03*
D14*
X0035902Y0079442D03*
X0035902Y0086135D03*
X0240233Y0226725D03*
X0246926Y0226725D03*
X0246886Y0236056D03*
X0253579Y0236056D03*
X0271138Y0233024D03*
X0271138Y0226331D03*
X0305254Y0170767D03*
X0311946Y0170767D03*
X0208540Y0279284D03*
X0201847Y0279284D03*
X0232083Y0297158D03*
X0238776Y0297158D03*
D15*
X0345430Y0157788D03*
X0345430Y0154048D03*
X0345430Y0150308D03*
X0355666Y0150308D03*
X0355666Y0154048D03*
X0355666Y0157788D03*
X0355666Y0133851D03*
X0355666Y0130111D03*
X0355666Y0126371D03*
X0345430Y0126371D03*
X0345430Y0130111D03*
X0345430Y0133851D03*
X0345823Y0109914D03*
X0345823Y0106174D03*
X0345823Y0102434D03*
X0356060Y0102434D03*
X0356060Y0106174D03*
X0356060Y0109914D03*
M02*
