G75*
%MOIN*%
%OFA0B0*%
%FSLAX25Y25*%
%IPPOS*%
%LPD*%
%AMOC8*
5,1,8,0,0,1.08239X$1,22.5*
%
%ADD10C,0.00000*%
%ADD11C,0.00512*%
%ADD12C,0.00600*%
%ADD13R,0.24409X0.21260*%
%ADD14R,0.06299X0.03937*%
%ADD15C,0.05200*%
%ADD16OC8,0.07000*%
%ADD17C,0.07000*%
%ADD18C,0.06600*%
%ADD19R,0.03150X0.03150*%
%ADD20R,0.04331X0.03937*%
%ADD21R,0.03937X0.04331*%
%ADD22R,0.03937X0.02756*%
%ADD23OC8,0.06000*%
%ADD24C,0.05150*%
%ADD25C,0.10630*%
%ADD26OC8,0.06600*%
%ADD27R,0.05150X0.05150*%
%ADD28C,0.05150*%
%ADD29C,0.06000*%
%ADD30C,0.04000*%
%ADD31C,0.01200*%
%ADD32C,0.01600*%
%ADD33C,0.02400*%
%ADD34R,0.04750X0.04750*%
%ADD35C,0.07600*%
%ADD36C,0.07000*%
%ADD37C,0.10000*%
%ADD38C,0.06600*%
%ADD39C,0.05600*%
D10*
X0026060Y0003300D02*
X0026060Y0318261D01*
X0419760Y0318261D01*
X0419760Y0003300D01*
X0026060Y0003300D01*
X0275757Y0197198D02*
X0275759Y0197359D01*
X0275765Y0197519D01*
X0275775Y0197680D01*
X0275789Y0197840D01*
X0275807Y0198000D01*
X0275828Y0198159D01*
X0275854Y0198318D01*
X0275884Y0198476D01*
X0275917Y0198633D01*
X0275955Y0198790D01*
X0275996Y0198945D01*
X0276041Y0199099D01*
X0276090Y0199252D01*
X0276143Y0199404D01*
X0276199Y0199555D01*
X0276260Y0199704D01*
X0276323Y0199852D01*
X0276391Y0199998D01*
X0276462Y0200142D01*
X0276536Y0200284D01*
X0276614Y0200425D01*
X0276696Y0200563D01*
X0276781Y0200700D01*
X0276869Y0200834D01*
X0276961Y0200966D01*
X0277056Y0201096D01*
X0277154Y0201224D01*
X0277255Y0201349D01*
X0277359Y0201471D01*
X0277466Y0201591D01*
X0277576Y0201708D01*
X0277689Y0201823D01*
X0277805Y0201934D01*
X0277924Y0202043D01*
X0278045Y0202148D01*
X0278169Y0202251D01*
X0278295Y0202351D01*
X0278423Y0202447D01*
X0278554Y0202540D01*
X0278688Y0202630D01*
X0278823Y0202717D01*
X0278961Y0202800D01*
X0279100Y0202880D01*
X0279242Y0202956D01*
X0279385Y0203029D01*
X0279530Y0203098D01*
X0279677Y0203164D01*
X0279825Y0203226D01*
X0279975Y0203284D01*
X0280126Y0203339D01*
X0280279Y0203390D01*
X0280433Y0203437D01*
X0280588Y0203480D01*
X0280744Y0203519D01*
X0280900Y0203555D01*
X0281058Y0203586D01*
X0281216Y0203614D01*
X0281375Y0203638D01*
X0281535Y0203658D01*
X0281695Y0203674D01*
X0281855Y0203686D01*
X0282016Y0203694D01*
X0282177Y0203698D01*
X0282337Y0203698D01*
X0282498Y0203694D01*
X0282659Y0203686D01*
X0282819Y0203674D01*
X0282979Y0203658D01*
X0283139Y0203638D01*
X0283298Y0203614D01*
X0283456Y0203586D01*
X0283614Y0203555D01*
X0283770Y0203519D01*
X0283926Y0203480D01*
X0284081Y0203437D01*
X0284235Y0203390D01*
X0284388Y0203339D01*
X0284539Y0203284D01*
X0284689Y0203226D01*
X0284837Y0203164D01*
X0284984Y0203098D01*
X0285129Y0203029D01*
X0285272Y0202956D01*
X0285414Y0202880D01*
X0285553Y0202800D01*
X0285691Y0202717D01*
X0285826Y0202630D01*
X0285960Y0202540D01*
X0286091Y0202447D01*
X0286219Y0202351D01*
X0286345Y0202251D01*
X0286469Y0202148D01*
X0286590Y0202043D01*
X0286709Y0201934D01*
X0286825Y0201823D01*
X0286938Y0201708D01*
X0287048Y0201591D01*
X0287155Y0201471D01*
X0287259Y0201349D01*
X0287360Y0201224D01*
X0287458Y0201096D01*
X0287553Y0200966D01*
X0287645Y0200834D01*
X0287733Y0200700D01*
X0287818Y0200563D01*
X0287900Y0200425D01*
X0287978Y0200284D01*
X0288052Y0200142D01*
X0288123Y0199998D01*
X0288191Y0199852D01*
X0288254Y0199704D01*
X0288315Y0199555D01*
X0288371Y0199404D01*
X0288424Y0199252D01*
X0288473Y0199099D01*
X0288518Y0198945D01*
X0288559Y0198790D01*
X0288597Y0198633D01*
X0288630Y0198476D01*
X0288660Y0198318D01*
X0288686Y0198159D01*
X0288707Y0198000D01*
X0288725Y0197840D01*
X0288739Y0197680D01*
X0288749Y0197519D01*
X0288755Y0197359D01*
X0288757Y0197198D01*
X0288755Y0197037D01*
X0288749Y0196877D01*
X0288739Y0196716D01*
X0288725Y0196556D01*
X0288707Y0196396D01*
X0288686Y0196237D01*
X0288660Y0196078D01*
X0288630Y0195920D01*
X0288597Y0195763D01*
X0288559Y0195606D01*
X0288518Y0195451D01*
X0288473Y0195297D01*
X0288424Y0195144D01*
X0288371Y0194992D01*
X0288315Y0194841D01*
X0288254Y0194692D01*
X0288191Y0194544D01*
X0288123Y0194398D01*
X0288052Y0194254D01*
X0287978Y0194112D01*
X0287900Y0193971D01*
X0287818Y0193833D01*
X0287733Y0193696D01*
X0287645Y0193562D01*
X0287553Y0193430D01*
X0287458Y0193300D01*
X0287360Y0193172D01*
X0287259Y0193047D01*
X0287155Y0192925D01*
X0287048Y0192805D01*
X0286938Y0192688D01*
X0286825Y0192573D01*
X0286709Y0192462D01*
X0286590Y0192353D01*
X0286469Y0192248D01*
X0286345Y0192145D01*
X0286219Y0192045D01*
X0286091Y0191949D01*
X0285960Y0191856D01*
X0285826Y0191766D01*
X0285691Y0191679D01*
X0285553Y0191596D01*
X0285414Y0191516D01*
X0285272Y0191440D01*
X0285129Y0191367D01*
X0284984Y0191298D01*
X0284837Y0191232D01*
X0284689Y0191170D01*
X0284539Y0191112D01*
X0284388Y0191057D01*
X0284235Y0191006D01*
X0284081Y0190959D01*
X0283926Y0190916D01*
X0283770Y0190877D01*
X0283614Y0190841D01*
X0283456Y0190810D01*
X0283298Y0190782D01*
X0283139Y0190758D01*
X0282979Y0190738D01*
X0282819Y0190722D01*
X0282659Y0190710D01*
X0282498Y0190702D01*
X0282337Y0190698D01*
X0282177Y0190698D01*
X0282016Y0190702D01*
X0281855Y0190710D01*
X0281695Y0190722D01*
X0281535Y0190738D01*
X0281375Y0190758D01*
X0281216Y0190782D01*
X0281058Y0190810D01*
X0280900Y0190841D01*
X0280744Y0190877D01*
X0280588Y0190916D01*
X0280433Y0190959D01*
X0280279Y0191006D01*
X0280126Y0191057D01*
X0279975Y0191112D01*
X0279825Y0191170D01*
X0279677Y0191232D01*
X0279530Y0191298D01*
X0279385Y0191367D01*
X0279242Y0191440D01*
X0279100Y0191516D01*
X0278961Y0191596D01*
X0278823Y0191679D01*
X0278688Y0191766D01*
X0278554Y0191856D01*
X0278423Y0191949D01*
X0278295Y0192045D01*
X0278169Y0192145D01*
X0278045Y0192248D01*
X0277924Y0192353D01*
X0277805Y0192462D01*
X0277689Y0192573D01*
X0277576Y0192688D01*
X0277466Y0192805D01*
X0277359Y0192925D01*
X0277255Y0193047D01*
X0277154Y0193172D01*
X0277056Y0193300D01*
X0276961Y0193430D01*
X0276869Y0193562D01*
X0276781Y0193696D01*
X0276696Y0193833D01*
X0276614Y0193971D01*
X0276536Y0194112D01*
X0276462Y0194254D01*
X0276391Y0194398D01*
X0276323Y0194544D01*
X0276260Y0194692D01*
X0276199Y0194841D01*
X0276143Y0194992D01*
X0276090Y0195144D01*
X0276041Y0195297D01*
X0275996Y0195451D01*
X0275955Y0195606D01*
X0275917Y0195763D01*
X0275884Y0195920D01*
X0275854Y0196078D01*
X0275828Y0196237D01*
X0275807Y0196396D01*
X0275789Y0196556D01*
X0275775Y0196716D01*
X0275765Y0196877D01*
X0275759Y0197037D01*
X0275757Y0197198D01*
X0331276Y0295623D02*
X0331278Y0295784D01*
X0331284Y0295944D01*
X0331294Y0296105D01*
X0331308Y0296265D01*
X0331326Y0296425D01*
X0331347Y0296584D01*
X0331373Y0296743D01*
X0331403Y0296901D01*
X0331436Y0297058D01*
X0331474Y0297215D01*
X0331515Y0297370D01*
X0331560Y0297524D01*
X0331609Y0297677D01*
X0331662Y0297829D01*
X0331718Y0297980D01*
X0331779Y0298129D01*
X0331842Y0298277D01*
X0331910Y0298423D01*
X0331981Y0298567D01*
X0332055Y0298709D01*
X0332133Y0298850D01*
X0332215Y0298988D01*
X0332300Y0299125D01*
X0332388Y0299259D01*
X0332480Y0299391D01*
X0332575Y0299521D01*
X0332673Y0299649D01*
X0332774Y0299774D01*
X0332878Y0299896D01*
X0332985Y0300016D01*
X0333095Y0300133D01*
X0333208Y0300248D01*
X0333324Y0300359D01*
X0333443Y0300468D01*
X0333564Y0300573D01*
X0333688Y0300676D01*
X0333814Y0300776D01*
X0333942Y0300872D01*
X0334073Y0300965D01*
X0334207Y0301055D01*
X0334342Y0301142D01*
X0334480Y0301225D01*
X0334619Y0301305D01*
X0334761Y0301381D01*
X0334904Y0301454D01*
X0335049Y0301523D01*
X0335196Y0301589D01*
X0335344Y0301651D01*
X0335494Y0301709D01*
X0335645Y0301764D01*
X0335798Y0301815D01*
X0335952Y0301862D01*
X0336107Y0301905D01*
X0336263Y0301944D01*
X0336419Y0301980D01*
X0336577Y0302011D01*
X0336735Y0302039D01*
X0336894Y0302063D01*
X0337054Y0302083D01*
X0337214Y0302099D01*
X0337374Y0302111D01*
X0337535Y0302119D01*
X0337696Y0302123D01*
X0337856Y0302123D01*
X0338017Y0302119D01*
X0338178Y0302111D01*
X0338338Y0302099D01*
X0338498Y0302083D01*
X0338658Y0302063D01*
X0338817Y0302039D01*
X0338975Y0302011D01*
X0339133Y0301980D01*
X0339289Y0301944D01*
X0339445Y0301905D01*
X0339600Y0301862D01*
X0339754Y0301815D01*
X0339907Y0301764D01*
X0340058Y0301709D01*
X0340208Y0301651D01*
X0340356Y0301589D01*
X0340503Y0301523D01*
X0340648Y0301454D01*
X0340791Y0301381D01*
X0340933Y0301305D01*
X0341072Y0301225D01*
X0341210Y0301142D01*
X0341345Y0301055D01*
X0341479Y0300965D01*
X0341610Y0300872D01*
X0341738Y0300776D01*
X0341864Y0300676D01*
X0341988Y0300573D01*
X0342109Y0300468D01*
X0342228Y0300359D01*
X0342344Y0300248D01*
X0342457Y0300133D01*
X0342567Y0300016D01*
X0342674Y0299896D01*
X0342778Y0299774D01*
X0342879Y0299649D01*
X0342977Y0299521D01*
X0343072Y0299391D01*
X0343164Y0299259D01*
X0343252Y0299125D01*
X0343337Y0298988D01*
X0343419Y0298850D01*
X0343497Y0298709D01*
X0343571Y0298567D01*
X0343642Y0298423D01*
X0343710Y0298277D01*
X0343773Y0298129D01*
X0343834Y0297980D01*
X0343890Y0297829D01*
X0343943Y0297677D01*
X0343992Y0297524D01*
X0344037Y0297370D01*
X0344078Y0297215D01*
X0344116Y0297058D01*
X0344149Y0296901D01*
X0344179Y0296743D01*
X0344205Y0296584D01*
X0344226Y0296425D01*
X0344244Y0296265D01*
X0344258Y0296105D01*
X0344268Y0295944D01*
X0344274Y0295784D01*
X0344276Y0295623D01*
X0344274Y0295462D01*
X0344268Y0295302D01*
X0344258Y0295141D01*
X0344244Y0294981D01*
X0344226Y0294821D01*
X0344205Y0294662D01*
X0344179Y0294503D01*
X0344149Y0294345D01*
X0344116Y0294188D01*
X0344078Y0294031D01*
X0344037Y0293876D01*
X0343992Y0293722D01*
X0343943Y0293569D01*
X0343890Y0293417D01*
X0343834Y0293266D01*
X0343773Y0293117D01*
X0343710Y0292969D01*
X0343642Y0292823D01*
X0343571Y0292679D01*
X0343497Y0292537D01*
X0343419Y0292396D01*
X0343337Y0292258D01*
X0343252Y0292121D01*
X0343164Y0291987D01*
X0343072Y0291855D01*
X0342977Y0291725D01*
X0342879Y0291597D01*
X0342778Y0291472D01*
X0342674Y0291350D01*
X0342567Y0291230D01*
X0342457Y0291113D01*
X0342344Y0290998D01*
X0342228Y0290887D01*
X0342109Y0290778D01*
X0341988Y0290673D01*
X0341864Y0290570D01*
X0341738Y0290470D01*
X0341610Y0290374D01*
X0341479Y0290281D01*
X0341345Y0290191D01*
X0341210Y0290104D01*
X0341072Y0290021D01*
X0340933Y0289941D01*
X0340791Y0289865D01*
X0340648Y0289792D01*
X0340503Y0289723D01*
X0340356Y0289657D01*
X0340208Y0289595D01*
X0340058Y0289537D01*
X0339907Y0289482D01*
X0339754Y0289431D01*
X0339600Y0289384D01*
X0339445Y0289341D01*
X0339289Y0289302D01*
X0339133Y0289266D01*
X0338975Y0289235D01*
X0338817Y0289207D01*
X0338658Y0289183D01*
X0338498Y0289163D01*
X0338338Y0289147D01*
X0338178Y0289135D01*
X0338017Y0289127D01*
X0337856Y0289123D01*
X0337696Y0289123D01*
X0337535Y0289127D01*
X0337374Y0289135D01*
X0337214Y0289147D01*
X0337054Y0289163D01*
X0336894Y0289183D01*
X0336735Y0289207D01*
X0336577Y0289235D01*
X0336419Y0289266D01*
X0336263Y0289302D01*
X0336107Y0289341D01*
X0335952Y0289384D01*
X0335798Y0289431D01*
X0335645Y0289482D01*
X0335494Y0289537D01*
X0335344Y0289595D01*
X0335196Y0289657D01*
X0335049Y0289723D01*
X0334904Y0289792D01*
X0334761Y0289865D01*
X0334619Y0289941D01*
X0334480Y0290021D01*
X0334342Y0290104D01*
X0334207Y0290191D01*
X0334073Y0290281D01*
X0333942Y0290374D01*
X0333814Y0290470D01*
X0333688Y0290570D01*
X0333564Y0290673D01*
X0333443Y0290778D01*
X0333324Y0290887D01*
X0333208Y0290998D01*
X0333095Y0291113D01*
X0332985Y0291230D01*
X0332878Y0291350D01*
X0332774Y0291472D01*
X0332673Y0291597D01*
X0332575Y0291725D01*
X0332480Y0291855D01*
X0332388Y0291987D01*
X0332300Y0292121D01*
X0332215Y0292258D01*
X0332133Y0292396D01*
X0332055Y0292537D01*
X0331981Y0292679D01*
X0331910Y0292823D01*
X0331842Y0292969D01*
X0331779Y0293117D01*
X0331718Y0293266D01*
X0331662Y0293417D01*
X0331609Y0293569D01*
X0331560Y0293722D01*
X0331515Y0293876D01*
X0331474Y0294031D01*
X0331436Y0294188D01*
X0331403Y0294345D01*
X0331373Y0294503D01*
X0331347Y0294662D01*
X0331326Y0294821D01*
X0331308Y0294981D01*
X0331294Y0295141D01*
X0331284Y0295302D01*
X0331278Y0295462D01*
X0331276Y0295623D01*
X0401650Y0306450D02*
X0401652Y0306608D01*
X0401658Y0306766D01*
X0401668Y0306924D01*
X0401682Y0307082D01*
X0401700Y0307239D01*
X0401721Y0307396D01*
X0401747Y0307552D01*
X0401777Y0307708D01*
X0401810Y0307863D01*
X0401848Y0308016D01*
X0401889Y0308169D01*
X0401934Y0308321D01*
X0401983Y0308472D01*
X0402036Y0308621D01*
X0402092Y0308769D01*
X0402152Y0308915D01*
X0402216Y0309060D01*
X0402284Y0309203D01*
X0402355Y0309345D01*
X0402429Y0309485D01*
X0402507Y0309622D01*
X0402589Y0309758D01*
X0402673Y0309892D01*
X0402762Y0310023D01*
X0402853Y0310152D01*
X0402948Y0310279D01*
X0403045Y0310404D01*
X0403146Y0310526D01*
X0403250Y0310645D01*
X0403357Y0310762D01*
X0403467Y0310876D01*
X0403580Y0310987D01*
X0403695Y0311096D01*
X0403813Y0311201D01*
X0403934Y0311303D01*
X0404057Y0311403D01*
X0404183Y0311499D01*
X0404311Y0311592D01*
X0404441Y0311682D01*
X0404574Y0311768D01*
X0404709Y0311852D01*
X0404845Y0311931D01*
X0404984Y0312008D01*
X0405125Y0312080D01*
X0405267Y0312150D01*
X0405411Y0312215D01*
X0405557Y0312277D01*
X0405704Y0312335D01*
X0405853Y0312390D01*
X0406003Y0312441D01*
X0406154Y0312488D01*
X0406306Y0312531D01*
X0406459Y0312570D01*
X0406614Y0312606D01*
X0406769Y0312637D01*
X0406925Y0312665D01*
X0407081Y0312689D01*
X0407238Y0312709D01*
X0407396Y0312725D01*
X0407553Y0312737D01*
X0407712Y0312745D01*
X0407870Y0312749D01*
X0408028Y0312749D01*
X0408186Y0312745D01*
X0408345Y0312737D01*
X0408502Y0312725D01*
X0408660Y0312709D01*
X0408817Y0312689D01*
X0408973Y0312665D01*
X0409129Y0312637D01*
X0409284Y0312606D01*
X0409439Y0312570D01*
X0409592Y0312531D01*
X0409744Y0312488D01*
X0409895Y0312441D01*
X0410045Y0312390D01*
X0410194Y0312335D01*
X0410341Y0312277D01*
X0410487Y0312215D01*
X0410631Y0312150D01*
X0410773Y0312080D01*
X0410914Y0312008D01*
X0411053Y0311931D01*
X0411189Y0311852D01*
X0411324Y0311768D01*
X0411457Y0311682D01*
X0411587Y0311592D01*
X0411715Y0311499D01*
X0411841Y0311403D01*
X0411964Y0311303D01*
X0412085Y0311201D01*
X0412203Y0311096D01*
X0412318Y0310987D01*
X0412431Y0310876D01*
X0412541Y0310762D01*
X0412648Y0310645D01*
X0412752Y0310526D01*
X0412853Y0310404D01*
X0412950Y0310279D01*
X0413045Y0310152D01*
X0413136Y0310023D01*
X0413225Y0309892D01*
X0413309Y0309758D01*
X0413391Y0309622D01*
X0413469Y0309485D01*
X0413543Y0309345D01*
X0413614Y0309203D01*
X0413682Y0309060D01*
X0413746Y0308915D01*
X0413806Y0308769D01*
X0413862Y0308621D01*
X0413915Y0308472D01*
X0413964Y0308321D01*
X0414009Y0308169D01*
X0414050Y0308016D01*
X0414088Y0307863D01*
X0414121Y0307708D01*
X0414151Y0307552D01*
X0414177Y0307396D01*
X0414198Y0307239D01*
X0414216Y0307082D01*
X0414230Y0306924D01*
X0414240Y0306766D01*
X0414246Y0306608D01*
X0414248Y0306450D01*
X0414246Y0306292D01*
X0414240Y0306134D01*
X0414230Y0305976D01*
X0414216Y0305818D01*
X0414198Y0305661D01*
X0414177Y0305504D01*
X0414151Y0305348D01*
X0414121Y0305192D01*
X0414088Y0305037D01*
X0414050Y0304884D01*
X0414009Y0304731D01*
X0413964Y0304579D01*
X0413915Y0304428D01*
X0413862Y0304279D01*
X0413806Y0304131D01*
X0413746Y0303985D01*
X0413682Y0303840D01*
X0413614Y0303697D01*
X0413543Y0303555D01*
X0413469Y0303415D01*
X0413391Y0303278D01*
X0413309Y0303142D01*
X0413225Y0303008D01*
X0413136Y0302877D01*
X0413045Y0302748D01*
X0412950Y0302621D01*
X0412853Y0302496D01*
X0412752Y0302374D01*
X0412648Y0302255D01*
X0412541Y0302138D01*
X0412431Y0302024D01*
X0412318Y0301913D01*
X0412203Y0301804D01*
X0412085Y0301699D01*
X0411964Y0301597D01*
X0411841Y0301497D01*
X0411715Y0301401D01*
X0411587Y0301308D01*
X0411457Y0301218D01*
X0411324Y0301132D01*
X0411189Y0301048D01*
X0411053Y0300969D01*
X0410914Y0300892D01*
X0410773Y0300820D01*
X0410631Y0300750D01*
X0410487Y0300685D01*
X0410341Y0300623D01*
X0410194Y0300565D01*
X0410045Y0300510D01*
X0409895Y0300459D01*
X0409744Y0300412D01*
X0409592Y0300369D01*
X0409439Y0300330D01*
X0409284Y0300294D01*
X0409129Y0300263D01*
X0408973Y0300235D01*
X0408817Y0300211D01*
X0408660Y0300191D01*
X0408502Y0300175D01*
X0408345Y0300163D01*
X0408186Y0300155D01*
X0408028Y0300151D01*
X0407870Y0300151D01*
X0407712Y0300155D01*
X0407553Y0300163D01*
X0407396Y0300175D01*
X0407238Y0300191D01*
X0407081Y0300211D01*
X0406925Y0300235D01*
X0406769Y0300263D01*
X0406614Y0300294D01*
X0406459Y0300330D01*
X0406306Y0300369D01*
X0406154Y0300412D01*
X0406003Y0300459D01*
X0405853Y0300510D01*
X0405704Y0300565D01*
X0405557Y0300623D01*
X0405411Y0300685D01*
X0405267Y0300750D01*
X0405125Y0300820D01*
X0404984Y0300892D01*
X0404845Y0300969D01*
X0404709Y0301048D01*
X0404574Y0301132D01*
X0404441Y0301218D01*
X0404311Y0301308D01*
X0404183Y0301401D01*
X0404057Y0301497D01*
X0403934Y0301597D01*
X0403813Y0301699D01*
X0403695Y0301804D01*
X0403580Y0301913D01*
X0403467Y0302024D01*
X0403357Y0302138D01*
X0403250Y0302255D01*
X0403146Y0302374D01*
X0403045Y0302496D01*
X0402948Y0302621D01*
X0402853Y0302748D01*
X0402762Y0302877D01*
X0402673Y0303008D01*
X0402589Y0303142D01*
X0402507Y0303278D01*
X0402429Y0303415D01*
X0402355Y0303555D01*
X0402284Y0303697D01*
X0402216Y0303840D01*
X0402152Y0303985D01*
X0402092Y0304131D01*
X0402036Y0304279D01*
X0401983Y0304428D01*
X0401934Y0304579D01*
X0401889Y0304731D01*
X0401848Y0304884D01*
X0401810Y0305037D01*
X0401777Y0305192D01*
X0401747Y0305348D01*
X0401721Y0305504D01*
X0401700Y0305661D01*
X0401682Y0305818D01*
X0401668Y0305976D01*
X0401658Y0306134D01*
X0401652Y0306292D01*
X0401650Y0306450D01*
X0031572Y0306450D02*
X0031574Y0306608D01*
X0031580Y0306766D01*
X0031590Y0306924D01*
X0031604Y0307082D01*
X0031622Y0307239D01*
X0031643Y0307396D01*
X0031669Y0307552D01*
X0031699Y0307708D01*
X0031732Y0307863D01*
X0031770Y0308016D01*
X0031811Y0308169D01*
X0031856Y0308321D01*
X0031905Y0308472D01*
X0031958Y0308621D01*
X0032014Y0308769D01*
X0032074Y0308915D01*
X0032138Y0309060D01*
X0032206Y0309203D01*
X0032277Y0309345D01*
X0032351Y0309485D01*
X0032429Y0309622D01*
X0032511Y0309758D01*
X0032595Y0309892D01*
X0032684Y0310023D01*
X0032775Y0310152D01*
X0032870Y0310279D01*
X0032967Y0310404D01*
X0033068Y0310526D01*
X0033172Y0310645D01*
X0033279Y0310762D01*
X0033389Y0310876D01*
X0033502Y0310987D01*
X0033617Y0311096D01*
X0033735Y0311201D01*
X0033856Y0311303D01*
X0033979Y0311403D01*
X0034105Y0311499D01*
X0034233Y0311592D01*
X0034363Y0311682D01*
X0034496Y0311768D01*
X0034631Y0311852D01*
X0034767Y0311931D01*
X0034906Y0312008D01*
X0035047Y0312080D01*
X0035189Y0312150D01*
X0035333Y0312215D01*
X0035479Y0312277D01*
X0035626Y0312335D01*
X0035775Y0312390D01*
X0035925Y0312441D01*
X0036076Y0312488D01*
X0036228Y0312531D01*
X0036381Y0312570D01*
X0036536Y0312606D01*
X0036691Y0312637D01*
X0036847Y0312665D01*
X0037003Y0312689D01*
X0037160Y0312709D01*
X0037318Y0312725D01*
X0037475Y0312737D01*
X0037634Y0312745D01*
X0037792Y0312749D01*
X0037950Y0312749D01*
X0038108Y0312745D01*
X0038267Y0312737D01*
X0038424Y0312725D01*
X0038582Y0312709D01*
X0038739Y0312689D01*
X0038895Y0312665D01*
X0039051Y0312637D01*
X0039206Y0312606D01*
X0039361Y0312570D01*
X0039514Y0312531D01*
X0039666Y0312488D01*
X0039817Y0312441D01*
X0039967Y0312390D01*
X0040116Y0312335D01*
X0040263Y0312277D01*
X0040409Y0312215D01*
X0040553Y0312150D01*
X0040695Y0312080D01*
X0040836Y0312008D01*
X0040975Y0311931D01*
X0041111Y0311852D01*
X0041246Y0311768D01*
X0041379Y0311682D01*
X0041509Y0311592D01*
X0041637Y0311499D01*
X0041763Y0311403D01*
X0041886Y0311303D01*
X0042007Y0311201D01*
X0042125Y0311096D01*
X0042240Y0310987D01*
X0042353Y0310876D01*
X0042463Y0310762D01*
X0042570Y0310645D01*
X0042674Y0310526D01*
X0042775Y0310404D01*
X0042872Y0310279D01*
X0042967Y0310152D01*
X0043058Y0310023D01*
X0043147Y0309892D01*
X0043231Y0309758D01*
X0043313Y0309622D01*
X0043391Y0309485D01*
X0043465Y0309345D01*
X0043536Y0309203D01*
X0043604Y0309060D01*
X0043668Y0308915D01*
X0043728Y0308769D01*
X0043784Y0308621D01*
X0043837Y0308472D01*
X0043886Y0308321D01*
X0043931Y0308169D01*
X0043972Y0308016D01*
X0044010Y0307863D01*
X0044043Y0307708D01*
X0044073Y0307552D01*
X0044099Y0307396D01*
X0044120Y0307239D01*
X0044138Y0307082D01*
X0044152Y0306924D01*
X0044162Y0306766D01*
X0044168Y0306608D01*
X0044170Y0306450D01*
X0044168Y0306292D01*
X0044162Y0306134D01*
X0044152Y0305976D01*
X0044138Y0305818D01*
X0044120Y0305661D01*
X0044099Y0305504D01*
X0044073Y0305348D01*
X0044043Y0305192D01*
X0044010Y0305037D01*
X0043972Y0304884D01*
X0043931Y0304731D01*
X0043886Y0304579D01*
X0043837Y0304428D01*
X0043784Y0304279D01*
X0043728Y0304131D01*
X0043668Y0303985D01*
X0043604Y0303840D01*
X0043536Y0303697D01*
X0043465Y0303555D01*
X0043391Y0303415D01*
X0043313Y0303278D01*
X0043231Y0303142D01*
X0043147Y0303008D01*
X0043058Y0302877D01*
X0042967Y0302748D01*
X0042872Y0302621D01*
X0042775Y0302496D01*
X0042674Y0302374D01*
X0042570Y0302255D01*
X0042463Y0302138D01*
X0042353Y0302024D01*
X0042240Y0301913D01*
X0042125Y0301804D01*
X0042007Y0301699D01*
X0041886Y0301597D01*
X0041763Y0301497D01*
X0041637Y0301401D01*
X0041509Y0301308D01*
X0041379Y0301218D01*
X0041246Y0301132D01*
X0041111Y0301048D01*
X0040975Y0300969D01*
X0040836Y0300892D01*
X0040695Y0300820D01*
X0040553Y0300750D01*
X0040409Y0300685D01*
X0040263Y0300623D01*
X0040116Y0300565D01*
X0039967Y0300510D01*
X0039817Y0300459D01*
X0039666Y0300412D01*
X0039514Y0300369D01*
X0039361Y0300330D01*
X0039206Y0300294D01*
X0039051Y0300263D01*
X0038895Y0300235D01*
X0038739Y0300211D01*
X0038582Y0300191D01*
X0038424Y0300175D01*
X0038267Y0300163D01*
X0038108Y0300155D01*
X0037950Y0300151D01*
X0037792Y0300151D01*
X0037634Y0300155D01*
X0037475Y0300163D01*
X0037318Y0300175D01*
X0037160Y0300191D01*
X0037003Y0300211D01*
X0036847Y0300235D01*
X0036691Y0300263D01*
X0036536Y0300294D01*
X0036381Y0300330D01*
X0036228Y0300369D01*
X0036076Y0300412D01*
X0035925Y0300459D01*
X0035775Y0300510D01*
X0035626Y0300565D01*
X0035479Y0300623D01*
X0035333Y0300685D01*
X0035189Y0300750D01*
X0035047Y0300820D01*
X0034906Y0300892D01*
X0034767Y0300969D01*
X0034631Y0301048D01*
X0034496Y0301132D01*
X0034363Y0301218D01*
X0034233Y0301308D01*
X0034105Y0301401D01*
X0033979Y0301497D01*
X0033856Y0301597D01*
X0033735Y0301699D01*
X0033617Y0301804D01*
X0033502Y0301913D01*
X0033389Y0302024D01*
X0033279Y0302138D01*
X0033172Y0302255D01*
X0033068Y0302374D01*
X0032967Y0302496D01*
X0032870Y0302621D01*
X0032775Y0302748D01*
X0032684Y0302877D01*
X0032595Y0303008D01*
X0032511Y0303142D01*
X0032429Y0303278D01*
X0032351Y0303415D01*
X0032277Y0303555D01*
X0032206Y0303697D01*
X0032138Y0303840D01*
X0032074Y0303985D01*
X0032014Y0304131D01*
X0031958Y0304279D01*
X0031905Y0304428D01*
X0031856Y0304579D01*
X0031811Y0304731D01*
X0031770Y0304884D01*
X0031732Y0305037D01*
X0031699Y0305192D01*
X0031669Y0305348D01*
X0031643Y0305504D01*
X0031622Y0305661D01*
X0031604Y0305818D01*
X0031590Y0305976D01*
X0031580Y0306134D01*
X0031574Y0306292D01*
X0031572Y0306450D01*
X0401650Y0014127D02*
X0401652Y0014285D01*
X0401658Y0014443D01*
X0401668Y0014601D01*
X0401682Y0014759D01*
X0401700Y0014916D01*
X0401721Y0015073D01*
X0401747Y0015229D01*
X0401777Y0015385D01*
X0401810Y0015540D01*
X0401848Y0015693D01*
X0401889Y0015846D01*
X0401934Y0015998D01*
X0401983Y0016149D01*
X0402036Y0016298D01*
X0402092Y0016446D01*
X0402152Y0016592D01*
X0402216Y0016737D01*
X0402284Y0016880D01*
X0402355Y0017022D01*
X0402429Y0017162D01*
X0402507Y0017299D01*
X0402589Y0017435D01*
X0402673Y0017569D01*
X0402762Y0017700D01*
X0402853Y0017829D01*
X0402948Y0017956D01*
X0403045Y0018081D01*
X0403146Y0018203D01*
X0403250Y0018322D01*
X0403357Y0018439D01*
X0403467Y0018553D01*
X0403580Y0018664D01*
X0403695Y0018773D01*
X0403813Y0018878D01*
X0403934Y0018980D01*
X0404057Y0019080D01*
X0404183Y0019176D01*
X0404311Y0019269D01*
X0404441Y0019359D01*
X0404574Y0019445D01*
X0404709Y0019529D01*
X0404845Y0019608D01*
X0404984Y0019685D01*
X0405125Y0019757D01*
X0405267Y0019827D01*
X0405411Y0019892D01*
X0405557Y0019954D01*
X0405704Y0020012D01*
X0405853Y0020067D01*
X0406003Y0020118D01*
X0406154Y0020165D01*
X0406306Y0020208D01*
X0406459Y0020247D01*
X0406614Y0020283D01*
X0406769Y0020314D01*
X0406925Y0020342D01*
X0407081Y0020366D01*
X0407238Y0020386D01*
X0407396Y0020402D01*
X0407553Y0020414D01*
X0407712Y0020422D01*
X0407870Y0020426D01*
X0408028Y0020426D01*
X0408186Y0020422D01*
X0408345Y0020414D01*
X0408502Y0020402D01*
X0408660Y0020386D01*
X0408817Y0020366D01*
X0408973Y0020342D01*
X0409129Y0020314D01*
X0409284Y0020283D01*
X0409439Y0020247D01*
X0409592Y0020208D01*
X0409744Y0020165D01*
X0409895Y0020118D01*
X0410045Y0020067D01*
X0410194Y0020012D01*
X0410341Y0019954D01*
X0410487Y0019892D01*
X0410631Y0019827D01*
X0410773Y0019757D01*
X0410914Y0019685D01*
X0411053Y0019608D01*
X0411189Y0019529D01*
X0411324Y0019445D01*
X0411457Y0019359D01*
X0411587Y0019269D01*
X0411715Y0019176D01*
X0411841Y0019080D01*
X0411964Y0018980D01*
X0412085Y0018878D01*
X0412203Y0018773D01*
X0412318Y0018664D01*
X0412431Y0018553D01*
X0412541Y0018439D01*
X0412648Y0018322D01*
X0412752Y0018203D01*
X0412853Y0018081D01*
X0412950Y0017956D01*
X0413045Y0017829D01*
X0413136Y0017700D01*
X0413225Y0017569D01*
X0413309Y0017435D01*
X0413391Y0017299D01*
X0413469Y0017162D01*
X0413543Y0017022D01*
X0413614Y0016880D01*
X0413682Y0016737D01*
X0413746Y0016592D01*
X0413806Y0016446D01*
X0413862Y0016298D01*
X0413915Y0016149D01*
X0413964Y0015998D01*
X0414009Y0015846D01*
X0414050Y0015693D01*
X0414088Y0015540D01*
X0414121Y0015385D01*
X0414151Y0015229D01*
X0414177Y0015073D01*
X0414198Y0014916D01*
X0414216Y0014759D01*
X0414230Y0014601D01*
X0414240Y0014443D01*
X0414246Y0014285D01*
X0414248Y0014127D01*
X0414246Y0013969D01*
X0414240Y0013811D01*
X0414230Y0013653D01*
X0414216Y0013495D01*
X0414198Y0013338D01*
X0414177Y0013181D01*
X0414151Y0013025D01*
X0414121Y0012869D01*
X0414088Y0012714D01*
X0414050Y0012561D01*
X0414009Y0012408D01*
X0413964Y0012256D01*
X0413915Y0012105D01*
X0413862Y0011956D01*
X0413806Y0011808D01*
X0413746Y0011662D01*
X0413682Y0011517D01*
X0413614Y0011374D01*
X0413543Y0011232D01*
X0413469Y0011092D01*
X0413391Y0010955D01*
X0413309Y0010819D01*
X0413225Y0010685D01*
X0413136Y0010554D01*
X0413045Y0010425D01*
X0412950Y0010298D01*
X0412853Y0010173D01*
X0412752Y0010051D01*
X0412648Y0009932D01*
X0412541Y0009815D01*
X0412431Y0009701D01*
X0412318Y0009590D01*
X0412203Y0009481D01*
X0412085Y0009376D01*
X0411964Y0009274D01*
X0411841Y0009174D01*
X0411715Y0009078D01*
X0411587Y0008985D01*
X0411457Y0008895D01*
X0411324Y0008809D01*
X0411189Y0008725D01*
X0411053Y0008646D01*
X0410914Y0008569D01*
X0410773Y0008497D01*
X0410631Y0008427D01*
X0410487Y0008362D01*
X0410341Y0008300D01*
X0410194Y0008242D01*
X0410045Y0008187D01*
X0409895Y0008136D01*
X0409744Y0008089D01*
X0409592Y0008046D01*
X0409439Y0008007D01*
X0409284Y0007971D01*
X0409129Y0007940D01*
X0408973Y0007912D01*
X0408817Y0007888D01*
X0408660Y0007868D01*
X0408502Y0007852D01*
X0408345Y0007840D01*
X0408186Y0007832D01*
X0408028Y0007828D01*
X0407870Y0007828D01*
X0407712Y0007832D01*
X0407553Y0007840D01*
X0407396Y0007852D01*
X0407238Y0007868D01*
X0407081Y0007888D01*
X0406925Y0007912D01*
X0406769Y0007940D01*
X0406614Y0007971D01*
X0406459Y0008007D01*
X0406306Y0008046D01*
X0406154Y0008089D01*
X0406003Y0008136D01*
X0405853Y0008187D01*
X0405704Y0008242D01*
X0405557Y0008300D01*
X0405411Y0008362D01*
X0405267Y0008427D01*
X0405125Y0008497D01*
X0404984Y0008569D01*
X0404845Y0008646D01*
X0404709Y0008725D01*
X0404574Y0008809D01*
X0404441Y0008895D01*
X0404311Y0008985D01*
X0404183Y0009078D01*
X0404057Y0009174D01*
X0403934Y0009274D01*
X0403813Y0009376D01*
X0403695Y0009481D01*
X0403580Y0009590D01*
X0403467Y0009701D01*
X0403357Y0009815D01*
X0403250Y0009932D01*
X0403146Y0010051D01*
X0403045Y0010173D01*
X0402948Y0010298D01*
X0402853Y0010425D01*
X0402762Y0010554D01*
X0402673Y0010685D01*
X0402589Y0010819D01*
X0402507Y0010955D01*
X0402429Y0011092D01*
X0402355Y0011232D01*
X0402284Y0011374D01*
X0402216Y0011517D01*
X0402152Y0011662D01*
X0402092Y0011808D01*
X0402036Y0011956D01*
X0401983Y0012105D01*
X0401934Y0012256D01*
X0401889Y0012408D01*
X0401848Y0012561D01*
X0401810Y0012714D01*
X0401777Y0012869D01*
X0401747Y0013025D01*
X0401721Y0013181D01*
X0401700Y0013338D01*
X0401682Y0013495D01*
X0401668Y0013653D01*
X0401658Y0013811D01*
X0401652Y0013969D01*
X0401650Y0014127D01*
D11*
X0026060Y0003300D02*
X0004918Y0003300D01*
X0012595Y0003556D02*
X0013619Y0013536D01*
X0013852Y0013536D02*
X0012595Y0003556D01*
X0011572Y0013536D01*
X0011338Y0013536D02*
X0013852Y0013536D01*
X0013107Y0013536D02*
X0012595Y0003556D01*
X0012083Y0013536D01*
X0011338Y0013536D02*
X0012595Y0003556D01*
X0012595Y0318005D01*
X0013619Y0308024D01*
X0013852Y0308024D02*
X0012595Y0318005D01*
X0011572Y0308024D01*
X0011338Y0308024D02*
X0013852Y0308024D01*
X0013107Y0308024D02*
X0012595Y0318005D01*
X0012083Y0308024D01*
X0011338Y0308024D02*
X0012595Y0318005D01*
X0004918Y0318261D02*
X0026060Y0318261D01*
X0026060Y0343654D01*
X0026316Y0335977D02*
X0036296Y0334954D01*
X0036296Y0334720D02*
X0026316Y0335977D01*
X0036296Y0337001D01*
X0036296Y0337234D02*
X0036296Y0334720D01*
X0036296Y0335465D02*
X0026316Y0335977D01*
X0036296Y0336489D01*
X0036296Y0337234D02*
X0026316Y0335977D01*
X0419505Y0335977D01*
X0409524Y0334954D01*
X0409524Y0334720D02*
X0419505Y0335977D01*
X0409524Y0337001D01*
X0409524Y0337234D02*
X0409524Y0334720D01*
X0409524Y0335465D02*
X0419505Y0335977D01*
X0409524Y0336489D01*
X0409524Y0337234D02*
X0419505Y0335977D01*
X0419760Y0343654D02*
X0419760Y0318261D01*
X0430973Y0321781D02*
X0431697Y0311748D01*
X0433250Y0321660D01*
X0433483Y0321648D02*
X0431697Y0311748D01*
X0431206Y0321769D01*
X0430973Y0321781D02*
X0433483Y0321648D01*
X0432739Y0321687D02*
X0431697Y0311748D01*
X0431717Y0321742D01*
X0431697Y0311748D02*
X0433266Y0341190D01*
X0439349Y0311084D02*
X0408285Y0312740D01*
X0407949Y0307706D02*
X0407949Y0305193D01*
X0406693Y0306450D02*
X0409206Y0306450D01*
X0407614Y0300159D02*
X0438679Y0298504D01*
X0430999Y0298657D02*
X0431490Y0288636D01*
X0431723Y0288624D02*
X0430999Y0298657D01*
X0429445Y0288745D01*
X0429212Y0288757D02*
X0431723Y0288624D01*
X0430979Y0288663D02*
X0430999Y0298657D01*
X0429956Y0288718D01*
X0429212Y0288757D02*
X0430999Y0298657D01*
X0429923Y0278469D01*
D12*
X0428620Y0322208D02*
X0429744Y0323217D01*
X0429859Y0325349D01*
X0428851Y0326472D01*
X0427785Y0326530D01*
X0426661Y0325522D01*
X0426603Y0324456D01*
X0426661Y0325522D02*
X0425653Y0326646D01*
X0424587Y0326703D01*
X0423463Y0325695D01*
X0423347Y0323563D01*
X0424356Y0322439D01*
X0428968Y0328644D02*
X0429026Y0329710D01*
X0430092Y0329653D01*
X0430034Y0328587D01*
X0428968Y0328644D01*
X0430209Y0331805D02*
X0426176Y0336300D01*
X0425109Y0336357D01*
X0423986Y0335349D01*
X0423870Y0333217D01*
X0424879Y0332093D01*
X0430209Y0331805D02*
X0430440Y0336069D01*
X0429491Y0338298D02*
X0425227Y0338529D01*
X0424219Y0339653D01*
X0424334Y0341785D01*
X0425458Y0342793D01*
X0429491Y0338298D01*
X0430615Y0339307D01*
X0430730Y0341439D01*
X0429722Y0342563D01*
X0425458Y0342793D01*
X0241164Y0343877D02*
X0241164Y0339607D01*
X0240096Y0338539D01*
X0237961Y0338539D01*
X0236893Y0339607D01*
X0241164Y0343877D01*
X0240096Y0344944D01*
X0237961Y0344944D01*
X0236893Y0343877D01*
X0236893Y0339607D01*
X0234718Y0339607D02*
X0233650Y0338539D01*
X0231515Y0338539D01*
X0230448Y0339607D01*
X0234718Y0343877D01*
X0234718Y0339607D01*
X0234718Y0343877D02*
X0233650Y0344944D01*
X0231515Y0344944D01*
X0230448Y0343877D01*
X0230448Y0339607D01*
X0228293Y0339607D02*
X0228293Y0338539D01*
X0227225Y0338539D01*
X0227225Y0339607D01*
X0228293Y0339607D01*
X0225050Y0339607D02*
X0223982Y0338539D01*
X0221847Y0338539D01*
X0220780Y0339607D01*
X0225050Y0343877D01*
X0225050Y0339607D01*
X0225050Y0343877D02*
X0223982Y0344944D01*
X0221847Y0344944D01*
X0220780Y0343877D01*
X0220780Y0339607D01*
X0218604Y0339607D02*
X0218604Y0343877D01*
X0214334Y0339607D01*
X0215402Y0338539D01*
X0217537Y0338539D01*
X0218604Y0339607D01*
X0218604Y0343877D02*
X0217537Y0344944D01*
X0215402Y0344944D01*
X0214334Y0343877D01*
X0214334Y0339607D01*
X0212159Y0338539D02*
X0207889Y0338539D01*
X0210024Y0338539D02*
X0210024Y0344944D01*
X0207889Y0342809D01*
X0010033Y0174314D02*
X0008966Y0175382D01*
X0004695Y0175382D01*
X0008966Y0171112D01*
X0010033Y0172179D01*
X0010033Y0174314D01*
X0008966Y0171112D02*
X0004695Y0171112D01*
X0003628Y0172179D01*
X0003628Y0174314D01*
X0004695Y0175382D01*
X0004695Y0168937D02*
X0008966Y0164666D01*
X0010033Y0165734D01*
X0010033Y0167869D01*
X0008966Y0168937D01*
X0004695Y0168937D01*
X0003628Y0167869D01*
X0003628Y0165734D01*
X0004695Y0164666D01*
X0008966Y0164666D01*
X0008966Y0162511D02*
X0010033Y0162511D01*
X0010033Y0161443D01*
X0008966Y0161443D01*
X0008966Y0162511D01*
X0008966Y0159268D02*
X0004695Y0159268D01*
X0008966Y0154998D01*
X0010033Y0156066D01*
X0010033Y0158201D01*
X0008966Y0159268D01*
X0008966Y0154998D02*
X0004695Y0154998D01*
X0003628Y0156066D01*
X0003628Y0158201D01*
X0004695Y0159268D01*
X0004695Y0152823D02*
X0005763Y0152823D01*
X0006831Y0151755D01*
X0006831Y0149620D01*
X0005763Y0148552D01*
X0004695Y0148552D01*
X0003628Y0149620D01*
X0003628Y0151755D01*
X0004695Y0152823D01*
X0006831Y0151755D02*
X0007898Y0152823D01*
X0008966Y0152823D01*
X0010033Y0151755D01*
X0010033Y0149620D01*
X0008966Y0148552D01*
X0007898Y0148552D01*
X0006831Y0149620D01*
D13*
X0304997Y0252473D03*
D14*
X0276257Y0243497D03*
X0276257Y0261450D03*
D15*
X0196581Y0170446D02*
X0196581Y0165246D01*
X0186581Y0165246D02*
X0186581Y0170446D01*
X0176581Y0170446D02*
X0176581Y0165246D01*
X0166581Y0165246D02*
X0166581Y0170446D01*
X0156581Y0170446D02*
X0156581Y0165246D01*
X0146581Y0165246D02*
X0146581Y0170446D01*
X0136581Y0170446D02*
X0136581Y0165246D01*
X0126581Y0165246D02*
X0126581Y0170446D01*
X0116581Y0170446D02*
X0116581Y0165246D01*
X0106581Y0165246D02*
X0106581Y0170446D01*
X0096581Y0170446D02*
X0096581Y0165246D01*
X0086581Y0165246D02*
X0086581Y0170446D01*
X0281334Y0133103D02*
X0286534Y0133103D01*
X0286534Y0123103D02*
X0281334Y0123103D01*
X0281334Y0113103D02*
X0286534Y0113103D01*
X0286534Y0103103D02*
X0281334Y0103103D01*
X0281334Y0093103D02*
X0286534Y0093103D01*
X0286534Y0083103D02*
X0281334Y0083103D01*
X0281334Y0073103D02*
X0286534Y0073103D01*
X0286534Y0063103D02*
X0281334Y0063103D01*
X0281334Y0053103D02*
X0286534Y0053103D01*
X0286534Y0043103D02*
X0281334Y0043103D01*
X0281334Y0033103D02*
X0286534Y0033103D01*
X0286534Y0023103D02*
X0281334Y0023103D01*
X0318814Y0022906D02*
X0324014Y0022906D01*
X0331531Y0023103D02*
X0336731Y0023103D01*
X0336731Y0013103D02*
X0331531Y0013103D01*
X0331531Y0033103D02*
X0336731Y0033103D01*
X0336731Y0043103D02*
X0331531Y0043103D01*
X0324014Y0042906D02*
X0318814Y0042906D01*
X0318814Y0032906D02*
X0324014Y0032906D01*
X0324014Y0052906D02*
X0318814Y0052906D01*
X0318814Y0062906D02*
X0324014Y0062906D01*
X0331531Y0063103D02*
X0336731Y0063103D01*
X0336731Y0073103D02*
X0331531Y0073103D01*
X0324014Y0072906D02*
X0318814Y0072906D01*
X0318814Y0082906D02*
X0324014Y0082906D01*
X0331531Y0083103D02*
X0336731Y0083103D01*
X0361531Y0083103D02*
X0366731Y0083103D01*
X0366731Y0073103D02*
X0361531Y0073103D01*
X0361531Y0063103D02*
X0366731Y0063103D01*
X0366731Y0053103D02*
X0361531Y0053103D01*
X0361531Y0043103D02*
X0366731Y0043103D01*
X0366731Y0033103D02*
X0361531Y0033103D01*
X0361531Y0023103D02*
X0366731Y0023103D01*
X0366731Y0013103D02*
X0361531Y0013103D01*
X0336731Y0053103D02*
X0331531Y0053103D01*
X0329523Y0105111D02*
X0334723Y0105111D01*
X0334723Y0115111D02*
X0329523Y0115111D01*
X0329523Y0125111D02*
X0334723Y0125111D01*
X0334723Y0135111D02*
X0329523Y0135111D01*
X0329523Y0145111D02*
X0334723Y0145111D01*
X0334723Y0155111D02*
X0329523Y0155111D01*
D16*
X0056060Y0160072D03*
X0046060Y0160072D03*
X0036060Y0160072D03*
X0036060Y0150072D03*
X0046060Y0150072D03*
X0056060Y0150072D03*
X0056060Y0140072D03*
X0046060Y0140072D03*
X0036060Y0140072D03*
X0036060Y0130072D03*
X0046060Y0130072D03*
X0056060Y0130072D03*
X0056060Y0120072D03*
X0046060Y0120072D03*
X0036060Y0120072D03*
X0036060Y0110072D03*
X0046060Y0110072D03*
X0056060Y0110072D03*
X0056060Y0100072D03*
X0046060Y0100072D03*
X0036060Y0100072D03*
X0036060Y0170072D03*
X0046060Y0170072D03*
X0056060Y0170072D03*
D17*
X0078146Y0269284D03*
X0088146Y0269284D03*
X0098146Y0269284D03*
X0108146Y0269284D03*
X0118146Y0269284D03*
X0128146Y0269284D03*
X0138146Y0269284D03*
X0148146Y0269284D03*
X0158146Y0269284D03*
X0168146Y0269284D03*
X0178146Y0269284D03*
X0188146Y0269284D03*
X0188146Y0279284D03*
X0178146Y0279284D03*
X0168146Y0279284D03*
X0158146Y0279284D03*
X0148146Y0279284D03*
X0138146Y0279284D03*
X0128146Y0279284D03*
X0118146Y0279284D03*
X0108146Y0279284D03*
X0098146Y0279284D03*
X0088146Y0279284D03*
X0078146Y0279284D03*
X0078146Y0289284D03*
X0088146Y0289284D03*
X0098146Y0289284D03*
X0108146Y0289284D03*
X0118146Y0289284D03*
X0128146Y0289284D03*
X0138146Y0289284D03*
X0148146Y0289284D03*
X0158146Y0289284D03*
X0168146Y0289284D03*
X0178146Y0289284D03*
X0188146Y0289284D03*
D18*
X0064091Y0289402D03*
X0064091Y0279402D03*
X0064091Y0269402D03*
X0036217Y0269324D03*
X0036217Y0279324D03*
X0036217Y0289324D03*
X0046138Y0086056D03*
X0046138Y0076056D03*
X0079209Y0076307D03*
X0079209Y0086307D03*
D19*
X0036020Y0176961D03*
X0036020Y0182867D03*
X0202674Y0272001D03*
X0208579Y0272001D03*
X0219603Y0297198D03*
X0225509Y0297198D03*
X0330784Y0249324D03*
X0330784Y0243418D03*
X0297773Y0170767D03*
X0291868Y0170767D03*
D20*
X0330705Y0255190D03*
X0330705Y0261883D03*
X0036138Y0195898D03*
X0036138Y0189206D03*
D21*
X0035902Y0086135D03*
X0035902Y0079442D03*
X0240233Y0226725D03*
X0246926Y0226725D03*
X0246886Y0236056D03*
X0253579Y0236056D03*
X0271138Y0233024D03*
X0271138Y0226331D03*
X0305254Y0170767D03*
X0311946Y0170767D03*
X0208540Y0279284D03*
X0201847Y0279284D03*
X0232083Y0297158D03*
X0238776Y0297158D03*
D22*
X0345430Y0157788D03*
X0345430Y0154048D03*
X0345430Y0150308D03*
X0355666Y0150308D03*
X0355666Y0154048D03*
X0355666Y0157788D03*
X0355666Y0133851D03*
X0355666Y0130111D03*
X0355666Y0126371D03*
X0345430Y0126371D03*
X0345430Y0130111D03*
X0345430Y0133851D03*
X0345823Y0109914D03*
X0345823Y0106174D03*
X0345823Y0102434D03*
X0356060Y0102434D03*
X0356060Y0106174D03*
X0356060Y0109914D03*
D23*
X0379327Y0112473D03*
X0389327Y0112473D03*
X0389327Y0124284D03*
X0379327Y0124284D03*
X0379327Y0136095D03*
X0389327Y0136095D03*
X0389327Y0147906D03*
X0379327Y0147906D03*
X0379327Y0159717D03*
X0389327Y0159717D03*
X0389327Y0100662D03*
X0379327Y0100662D03*
X0379131Y0082828D03*
X0389131Y0082828D03*
X0389131Y0072828D03*
X0379131Y0072828D03*
X0379131Y0062828D03*
X0389131Y0062828D03*
X0389131Y0052828D03*
X0379131Y0052828D03*
X0379131Y0042828D03*
X0389131Y0042828D03*
X0389131Y0032828D03*
X0379131Y0032828D03*
X0379131Y0022828D03*
X0389131Y0022828D03*
X0066020Y0022749D03*
X0055981Y0022552D03*
X0046138Y0022552D03*
X0035902Y0022552D03*
X0035902Y0032552D03*
X0046138Y0032552D03*
X0055981Y0032552D03*
X0066020Y0032749D03*
X0066020Y0042749D03*
X0055981Y0042552D03*
X0046138Y0042552D03*
X0035902Y0042552D03*
X0035902Y0052552D03*
X0035902Y0062552D03*
X0046138Y0062552D03*
X0055981Y0062552D03*
X0055981Y0052552D03*
X0046138Y0052552D03*
X0066020Y0052749D03*
X0066020Y0062749D03*
X0066020Y0012749D03*
X0055981Y0012552D03*
X0046138Y0012552D03*
X0035902Y0012552D03*
D24*
X0066611Y0185646D02*
X0066611Y0190796D01*
X0076611Y0190796D02*
X0076611Y0185646D01*
X0086611Y0185646D02*
X0086611Y0190796D01*
X0096611Y0190796D02*
X0096611Y0185646D01*
X0106611Y0185646D02*
X0106611Y0190796D01*
X0116611Y0190796D02*
X0116611Y0185646D01*
X0126611Y0185646D02*
X0126611Y0190796D01*
X0136611Y0190796D02*
X0136611Y0185646D01*
X0146611Y0185646D02*
X0146611Y0190796D01*
X0156611Y0190796D02*
X0156611Y0185646D01*
X0166611Y0185646D02*
X0166611Y0190796D01*
X0176611Y0190796D02*
X0176611Y0185646D01*
X0186611Y0185646D02*
X0186611Y0190796D01*
X0196611Y0190796D02*
X0196611Y0185646D01*
X0206611Y0185646D02*
X0206611Y0190796D01*
X0206611Y0245646D02*
X0206611Y0250796D01*
X0196611Y0250796D02*
X0196611Y0245646D01*
X0186611Y0245646D02*
X0186611Y0250796D01*
X0176611Y0250796D02*
X0176611Y0245646D01*
X0166611Y0245646D02*
X0166611Y0250796D01*
X0156611Y0250796D02*
X0156611Y0245646D01*
X0146611Y0245646D02*
X0146611Y0250796D01*
X0136611Y0250796D02*
X0136611Y0245646D01*
X0126611Y0245646D02*
X0126611Y0250796D01*
X0116611Y0250796D02*
X0116611Y0245646D01*
X0106611Y0245646D02*
X0106611Y0250796D01*
X0096611Y0250796D02*
X0096611Y0245646D01*
X0086611Y0245646D02*
X0086611Y0250796D01*
X0076611Y0250796D02*
X0076611Y0245646D01*
X0066611Y0245646D02*
X0066611Y0250796D01*
D25*
X0367949Y0236883D02*
X0378579Y0236883D01*
X0378579Y0267985D02*
X0367949Y0267985D01*
D26*
X0363501Y0296607D03*
X0373501Y0306607D03*
X0383501Y0296607D03*
X0376453Y0208182D03*
X0366453Y0198182D03*
X0386453Y0198182D03*
D27*
X0241070Y0245249D03*
X0241070Y0275249D03*
D28*
X0241070Y0265249D03*
X0231070Y0265249D03*
X0231070Y0275249D03*
X0231070Y0255249D03*
X0241070Y0255249D03*
X0231070Y0245249D03*
D29*
X0275776Y0285623D02*
X0281776Y0285623D01*
X0281776Y0295623D02*
X0275776Y0295623D01*
X0275776Y0305623D02*
X0281776Y0305623D01*
X0338257Y0207198D02*
X0344257Y0207198D01*
X0344257Y0197198D02*
X0338257Y0197198D01*
X0338257Y0187198D02*
X0344257Y0187198D01*
D30*
X0348667Y0181142D02*
X0348832Y0180742D01*
X0358675Y0170899D01*
X0360982Y0168592D01*
X0363996Y0167344D01*
X0396679Y0167344D01*
X0402702Y0161321D01*
X0402702Y0090728D01*
X0387559Y0090728D01*
X0386352Y0090228D01*
X0386065Y0090228D01*
X0385863Y0090025D01*
X0384656Y0089525D01*
X0383777Y0088646D01*
X0382196Y0090228D01*
X0376065Y0090228D01*
X0375065Y0089228D01*
X0370237Y0089228D01*
X0368123Y0090103D01*
X0360138Y0090103D01*
X0357565Y0089037D01*
X0355596Y0087068D01*
X0354531Y0084496D01*
X0354531Y0081711D01*
X0355596Y0079138D01*
X0356631Y0078103D01*
X0355596Y0077068D01*
X0354531Y0074496D01*
X0354531Y0071711D01*
X0355596Y0069138D01*
X0356631Y0068103D01*
X0355596Y0067068D01*
X0354531Y0064496D01*
X0354531Y0061711D01*
X0355596Y0059138D01*
X0356631Y0058103D01*
X0355596Y0057068D01*
X0354531Y0054496D01*
X0354531Y0051711D01*
X0355596Y0049138D01*
X0356631Y0048103D01*
X0355596Y0047068D01*
X0354531Y0044496D01*
X0354531Y0041711D01*
X0355596Y0039138D01*
X0356631Y0038103D01*
X0355596Y0037068D01*
X0354531Y0034496D01*
X0354531Y0031711D01*
X0355596Y0029138D01*
X0356631Y0028103D01*
X0355596Y0027068D01*
X0354531Y0024496D01*
X0354531Y0021711D01*
X0355596Y0019138D01*
X0356631Y0018103D01*
X0355596Y0017068D01*
X0354531Y0014496D01*
X0354531Y0011711D01*
X0355529Y0009300D01*
X0340847Y0009300D01*
X0341002Y0009455D01*
X0341520Y0010168D01*
X0341920Y0010953D01*
X0342193Y0011792D01*
X0342331Y0012662D01*
X0342331Y0013103D01*
X0334131Y0013103D01*
X0334131Y0013103D01*
X0342331Y0013103D01*
X0342331Y0013544D01*
X0342193Y0014414D01*
X0341920Y0015253D01*
X0341520Y0016038D01*
X0341002Y0016751D01*
X0340617Y0017136D01*
X0340696Y0017169D01*
X0342665Y0019138D01*
X0343731Y0021711D01*
X0343731Y0024496D01*
X0342665Y0027068D01*
X0341630Y0028103D01*
X0342665Y0029138D01*
X0343731Y0031711D01*
X0343731Y0034496D01*
X0342665Y0037068D01*
X0341630Y0038103D01*
X0342665Y0039138D01*
X0343731Y0041711D01*
X0343731Y0044496D01*
X0342665Y0047068D01*
X0341630Y0048103D01*
X0342665Y0049138D01*
X0343731Y0051711D01*
X0343731Y0054496D01*
X0342665Y0057068D01*
X0341630Y0058103D01*
X0342665Y0059138D01*
X0343731Y0061711D01*
X0343731Y0064496D01*
X0342665Y0067068D01*
X0341630Y0068103D01*
X0342665Y0069138D01*
X0343731Y0071711D01*
X0343731Y0074496D01*
X0342665Y0077068D01*
X0341630Y0078103D01*
X0342665Y0079138D01*
X0343731Y0081711D01*
X0343731Y0084496D01*
X0342665Y0087068D01*
X0340696Y0089037D01*
X0338123Y0090103D01*
X0330138Y0090103D01*
X0327565Y0089037D01*
X0327547Y0089019D01*
X0325406Y0089906D01*
X0317422Y0089906D01*
X0314849Y0088841D01*
X0312880Y0086871D01*
X0311814Y0084299D01*
X0311814Y0081514D01*
X0312880Y0078941D01*
X0313915Y0077906D01*
X0312880Y0076871D01*
X0311814Y0074299D01*
X0311814Y0071514D01*
X0312880Y0068941D01*
X0313915Y0067906D01*
X0312880Y0066871D01*
X0311814Y0064299D01*
X0311814Y0061514D01*
X0312880Y0058941D01*
X0313915Y0057906D01*
X0312880Y0056871D01*
X0311814Y0054299D01*
X0311814Y0051514D01*
X0312880Y0048941D01*
X0313915Y0047906D01*
X0312880Y0046871D01*
X0311814Y0044299D01*
X0311814Y0041514D01*
X0312880Y0038941D01*
X0313915Y0037906D01*
X0312880Y0036871D01*
X0311814Y0034299D01*
X0311814Y0031514D01*
X0312880Y0028941D01*
X0313915Y0027906D01*
X0312880Y0026871D01*
X0311814Y0024299D01*
X0311814Y0021514D01*
X0312880Y0018941D01*
X0314849Y0016972D01*
X0317422Y0015906D01*
X0325406Y0015906D01*
X0327179Y0016640D01*
X0326741Y0016038D01*
X0326341Y0015253D01*
X0326068Y0014414D01*
X0325931Y0013544D01*
X0325931Y0013103D01*
X0325931Y0012662D01*
X0326068Y0011792D01*
X0326341Y0010953D01*
X0326741Y0010168D01*
X0327259Y0009455D01*
X0327414Y0009300D01*
X0073037Y0009300D01*
X0073420Y0009684D01*
X0073420Y0015814D01*
X0071485Y0017749D01*
X0073420Y0019684D01*
X0073420Y0025814D01*
X0071485Y0027749D01*
X0073420Y0029684D01*
X0073420Y0035814D01*
X0071485Y0037749D01*
X0073420Y0039684D01*
X0073420Y0045814D01*
X0071485Y0047749D01*
X0073420Y0049684D01*
X0073420Y0055814D01*
X0071485Y0057749D01*
X0073420Y0059684D01*
X0073420Y0065814D01*
X0069086Y0070149D01*
X0062955Y0070149D01*
X0060902Y0068096D01*
X0059046Y0069952D01*
X0052916Y0069952D01*
X0051738Y0068775D01*
X0051738Y0070766D01*
X0052666Y0071694D01*
X0053838Y0074524D01*
X0053838Y0077588D01*
X0052666Y0080418D01*
X0052628Y0080456D01*
X0057764Y0080456D01*
X0059822Y0081308D01*
X0075098Y0096585D01*
X0075951Y0098643D01*
X0075951Y0172721D01*
X0075098Y0174779D01*
X0073523Y0176355D01*
X0070266Y0179611D01*
X0070562Y0179734D01*
X0071611Y0180783D01*
X0072660Y0179734D01*
X0075223Y0178672D01*
X0077998Y0178672D01*
X0080562Y0179734D01*
X0081611Y0180783D01*
X0082660Y0179734D01*
X0085223Y0178672D01*
X0087998Y0178672D01*
X0090562Y0179734D01*
X0091611Y0180783D01*
X0092660Y0179734D01*
X0095223Y0178672D01*
X0097998Y0178672D01*
X0100562Y0179734D01*
X0101611Y0180783D01*
X0102660Y0179734D01*
X0105223Y0178672D01*
X0107998Y0178672D01*
X0110562Y0179734D01*
X0111611Y0180783D01*
X0112660Y0179734D01*
X0115223Y0178672D01*
X0117998Y0178672D01*
X0120562Y0179734D01*
X0121611Y0180783D01*
X0122660Y0179734D01*
X0125223Y0178672D01*
X0127998Y0178672D01*
X0130562Y0179734D01*
X0131611Y0180783D01*
X0132660Y0179734D01*
X0135223Y0178672D01*
X0137998Y0178672D01*
X0140562Y0179734D01*
X0141611Y0180783D01*
X0142660Y0179734D01*
X0145223Y0178672D01*
X0147998Y0178672D01*
X0150562Y0179734D01*
X0151611Y0180783D01*
X0152660Y0179734D01*
X0155223Y0178672D01*
X0157998Y0178672D01*
X0160562Y0179734D01*
X0161611Y0180783D01*
X0162660Y0179734D01*
X0165223Y0178672D01*
X0167998Y0178672D01*
X0170562Y0179734D01*
X0171611Y0180783D01*
X0172660Y0179734D01*
X0175223Y0178672D01*
X0177998Y0178672D01*
X0180562Y0179734D01*
X0181611Y0180783D01*
X0182660Y0179734D01*
X0185223Y0178672D01*
X0187998Y0178672D01*
X0190562Y0179734D01*
X0192524Y0181696D01*
X0192569Y0181804D01*
X0192979Y0181394D01*
X0193689Y0180878D01*
X0194471Y0180480D01*
X0195305Y0180209D01*
X0196172Y0180072D01*
X0196611Y0180072D01*
X0197050Y0180072D01*
X0197916Y0180209D01*
X0198751Y0180480D01*
X0199533Y0180878D01*
X0200243Y0181394D01*
X0200653Y0181804D01*
X0200698Y0181696D01*
X0202660Y0179734D01*
X0205223Y0178672D01*
X0207998Y0178672D01*
X0210562Y0179734D01*
X0212524Y0181696D01*
X0212789Y0182335D01*
X0212789Y0065258D01*
X0213580Y0063347D01*
X0258232Y0018695D01*
X0260143Y0017903D01*
X0276634Y0017903D01*
X0277369Y0017169D01*
X0279941Y0016103D01*
X0287926Y0016103D01*
X0290499Y0017169D01*
X0292468Y0019138D01*
X0293534Y0021711D01*
X0293534Y0024496D01*
X0292468Y0027068D01*
X0291433Y0028103D01*
X0292468Y0029138D01*
X0293534Y0031711D01*
X0293534Y0034496D01*
X0292468Y0037068D01*
X0291433Y0038103D01*
X0292468Y0039138D01*
X0293534Y0041711D01*
X0293534Y0044496D01*
X0292468Y0047068D01*
X0291433Y0048103D01*
X0292468Y0049138D01*
X0293534Y0051711D01*
X0293534Y0054496D01*
X0292468Y0057068D01*
X0291433Y0058103D01*
X0292468Y0059138D01*
X0293534Y0061711D01*
X0293534Y0064496D01*
X0292468Y0067068D01*
X0291433Y0068103D01*
X0292468Y0069138D01*
X0293534Y0071711D01*
X0293534Y0074496D01*
X0292468Y0077068D01*
X0291433Y0078103D01*
X0292468Y0079138D01*
X0293534Y0081711D01*
X0293534Y0084496D01*
X0292468Y0087068D01*
X0291433Y0088103D01*
X0292468Y0089138D01*
X0293534Y0091711D01*
X0293534Y0094496D01*
X0292468Y0097068D01*
X0291433Y0098103D01*
X0292468Y0099138D01*
X0293534Y0101711D01*
X0293534Y0104496D01*
X0292468Y0107068D01*
X0291433Y0108103D01*
X0292468Y0109138D01*
X0293534Y0111711D01*
X0293534Y0114496D01*
X0292468Y0117068D01*
X0291433Y0118103D01*
X0292468Y0119138D01*
X0293534Y0121711D01*
X0293534Y0124496D01*
X0292468Y0127068D01*
X0291433Y0128103D01*
X0292468Y0129138D01*
X0293534Y0131711D01*
X0293534Y0134496D01*
X0292468Y0137068D01*
X0290499Y0139037D01*
X0287926Y0140103D01*
X0279941Y0140103D01*
X0277369Y0139037D01*
X0276634Y0138303D01*
X0261599Y0138303D01*
X0258622Y0141281D01*
X0258622Y0206106D01*
X0257830Y0208017D01*
X0256367Y0209480D01*
X0245688Y0220160D01*
X0249770Y0220160D01*
X0251387Y0220830D01*
X0252624Y0222067D01*
X0253294Y0223685D01*
X0253294Y0229766D01*
X0252828Y0230891D01*
X0253579Y0230891D01*
X0253579Y0236056D01*
X0253579Y0241221D01*
X0252078Y0241221D01*
X0251347Y0241951D01*
X0249730Y0242621D01*
X0248044Y0242621D01*
X0248044Y0248699D01*
X0247374Y0250316D01*
X0246688Y0251003D01*
X0246982Y0251298D01*
X0248044Y0253861D01*
X0248044Y0256636D01*
X0246982Y0259200D01*
X0245933Y0260249D01*
X0246982Y0261298D01*
X0248044Y0263861D01*
X0248044Y0266636D01*
X0246982Y0269200D01*
X0245698Y0270485D01*
X0245975Y0270762D01*
X0246303Y0271253D01*
X0246529Y0271799D01*
X0246644Y0272379D01*
X0246644Y0275249D01*
X0246644Y0278119D01*
X0246529Y0278699D01*
X0246303Y0279245D01*
X0245975Y0279736D01*
X0245557Y0280154D01*
X0245065Y0280482D01*
X0244519Y0280708D01*
X0243940Y0280824D01*
X0241070Y0280824D01*
X0241070Y0275249D01*
X0246644Y0275249D01*
X0241070Y0275249D01*
X0241070Y0275249D01*
X0241069Y0275249D01*
X0241069Y0280824D01*
X0238199Y0280824D01*
X0237620Y0280708D01*
X0237074Y0280482D01*
X0236582Y0280154D01*
X0236305Y0279877D01*
X0235020Y0281162D01*
X0232457Y0282224D01*
X0229682Y0282224D01*
X0227119Y0281162D01*
X0226406Y0280449D01*
X0225124Y0280449D01*
X0223213Y0279657D01*
X0219965Y0276409D01*
X0218502Y0274946D01*
X0217710Y0273035D01*
X0217710Y0258407D01*
X0214851Y0255547D01*
X0211724Y0255547D01*
X0210562Y0256709D01*
X0207998Y0257771D01*
X0205223Y0257771D01*
X0202660Y0256709D01*
X0201611Y0255660D01*
X0200562Y0256709D01*
X0197998Y0257771D01*
X0195223Y0257771D01*
X0192660Y0256709D01*
X0191611Y0255660D01*
X0190562Y0256709D01*
X0187998Y0257771D01*
X0185223Y0257771D01*
X0182660Y0256709D01*
X0180698Y0254747D01*
X0180653Y0254638D01*
X0180493Y0254798D01*
X0180900Y0254967D01*
X0187317Y0261384D01*
X0189718Y0261384D01*
X0192621Y0262587D01*
X0194844Y0264809D01*
X0196046Y0267713D01*
X0196046Y0270856D01*
X0194844Y0273759D01*
X0194319Y0274284D01*
X0196491Y0274284D01*
X0197386Y0273389D01*
X0198099Y0273093D01*
X0198099Y0272001D01*
X0202605Y0272001D01*
X0202605Y0272001D01*
X0198099Y0272001D01*
X0198099Y0270130D01*
X0198214Y0269551D01*
X0198441Y0269005D01*
X0198769Y0268514D01*
X0199187Y0268096D01*
X0199678Y0267767D01*
X0200224Y0267541D01*
X0200804Y0267426D01*
X0202674Y0267426D01*
X0203782Y0267426D01*
X0204512Y0266696D01*
X0206129Y0266026D01*
X0211029Y0266026D01*
X0212647Y0266696D01*
X0213884Y0267934D01*
X0214554Y0269551D01*
X0214554Y0274451D01*
X0214360Y0274920D01*
X0214909Y0276244D01*
X0214909Y0282325D01*
X0214239Y0283942D01*
X0213001Y0285180D01*
X0211384Y0285850D01*
X0205696Y0285850D01*
X0205194Y0285641D01*
X0204691Y0285850D01*
X0199003Y0285850D01*
X0197386Y0285180D01*
X0196491Y0284284D01*
X0194319Y0284284D01*
X0193291Y0285312D01*
X0193562Y0285665D01*
X0193988Y0286403D01*
X0194315Y0287190D01*
X0194535Y0288013D01*
X0194646Y0288858D01*
X0194646Y0289284D01*
X0188146Y0289284D01*
X0181646Y0289284D01*
X0178146Y0289284D01*
X0174646Y0289284D01*
X0168146Y0289284D01*
X0161646Y0289284D01*
X0158146Y0289284D01*
X0151646Y0289284D01*
X0148146Y0289284D01*
X0141646Y0289284D01*
X0138146Y0289284D01*
X0131646Y0289284D01*
X0128146Y0289284D01*
X0121646Y0289284D01*
X0118146Y0289284D01*
X0111646Y0289284D01*
X0108146Y0289284D01*
X0104646Y0289284D01*
X0098146Y0289284D01*
X0091646Y0289284D01*
X0088146Y0289284D01*
X0081646Y0289284D01*
X0078146Y0289284D01*
X0078146Y0295784D01*
X0077720Y0295784D01*
X0076876Y0295673D01*
X0076052Y0295452D01*
X0075265Y0295126D01*
X0074527Y0294700D01*
X0073851Y0294182D01*
X0073249Y0293579D01*
X0072730Y0292903D01*
X0072304Y0292165D01*
X0071978Y0291378D01*
X0071917Y0291152D01*
X0070788Y0293877D01*
X0068566Y0296100D01*
X0065663Y0297302D01*
X0062520Y0297302D01*
X0061950Y0297066D01*
X0061737Y0297066D01*
X0062921Y0298250D01*
X0215028Y0298250D01*
X0215028Y0297198D01*
X0219534Y0297198D01*
X0219534Y0297198D01*
X0215028Y0297198D01*
X0215028Y0295327D01*
X0215144Y0294748D01*
X0215370Y0294202D01*
X0215698Y0293710D01*
X0216116Y0293293D01*
X0216607Y0292964D01*
X0217153Y0292738D01*
X0217733Y0292623D01*
X0219603Y0292623D01*
X0219603Y0294581D01*
X0219603Y0294580D01*
X0219603Y0292623D01*
X0220711Y0292623D01*
X0221441Y0291893D01*
X0223059Y0291223D01*
X0227719Y0291223D01*
X0229240Y0290593D01*
X0234927Y0290593D01*
X0235430Y0290801D01*
X0235933Y0290593D01*
X0241620Y0290593D01*
X0243237Y0291263D01*
X0244475Y0292501D01*
X0244501Y0292563D01*
X0252040Y0285023D01*
X0252040Y0252829D01*
X0253288Y0249815D01*
X0265434Y0237669D01*
X0264770Y0236065D01*
X0264770Y0229984D01*
X0265440Y0228367D01*
X0266170Y0227637D01*
X0266170Y0226332D01*
X0271138Y0226332D01*
X0271138Y0226331D01*
X0271138Y0226331D01*
X0271138Y0221166D01*
X0268874Y0221166D01*
X0268295Y0221281D01*
X0267749Y0221508D01*
X0267258Y0221836D01*
X0266840Y0222254D01*
X0266511Y0222745D01*
X0266285Y0223291D01*
X0266170Y0223871D01*
X0266170Y0226331D01*
X0271138Y0226331D01*
X0271138Y0221166D01*
X0273402Y0221166D01*
X0273982Y0221281D01*
X0274528Y0221508D01*
X0275019Y0221836D01*
X0275437Y0222254D01*
X0275766Y0222745D01*
X0275992Y0223291D01*
X0276107Y0223871D01*
X0276107Y0226331D01*
X0271139Y0226331D01*
X0271139Y0226332D01*
X0276107Y0226332D01*
X0276107Y0227637D01*
X0276837Y0228367D01*
X0277507Y0229984D01*
X0277507Y0235297D01*
X0277888Y0235297D01*
X0280901Y0236545D01*
X0283208Y0238852D01*
X0284457Y0241866D01*
X0284457Y0245128D01*
X0283208Y0248142D01*
X0280901Y0250448D01*
X0277888Y0251697D01*
X0274599Y0251697D01*
X0271930Y0254366D01*
X0274625Y0253250D01*
X0277888Y0253250D01*
X0280901Y0254498D01*
X0289792Y0263389D01*
X0289792Y0254473D01*
X0302997Y0254473D01*
X0302997Y0250473D01*
X0306997Y0250473D01*
X0306997Y0254473D01*
X0320201Y0254473D01*
X0320201Y0263399D01*
X0320086Y0263978D01*
X0319860Y0264524D01*
X0319830Y0264569D01*
X0324140Y0264569D01*
X0324140Y0259039D01*
X0324348Y0258536D01*
X0324140Y0258033D01*
X0324140Y0252346D01*
X0324809Y0250730D01*
X0324809Y0246874D01*
X0325479Y0245256D01*
X0326209Y0244526D01*
X0326209Y0243418D01*
X0326209Y0241548D01*
X0326325Y0240968D01*
X0326551Y0240422D01*
X0326879Y0239931D01*
X0327297Y0239513D01*
X0327788Y0239185D01*
X0328334Y0238959D01*
X0328914Y0238843D01*
X0330784Y0238843D01*
X0330784Y0243349D01*
X0330784Y0243349D01*
X0330784Y0238843D01*
X0332654Y0238843D01*
X0333234Y0238959D01*
X0333780Y0239185D01*
X0334271Y0239513D01*
X0334689Y0239931D01*
X0335017Y0240422D01*
X0335244Y0240968D01*
X0335359Y0241548D01*
X0335359Y0243418D01*
X0333401Y0243418D01*
X0333402Y0243418D01*
X0335359Y0243418D01*
X0335359Y0244526D01*
X0336089Y0245256D01*
X0336759Y0246874D01*
X0336759Y0251110D01*
X0337271Y0252346D01*
X0337271Y0257409D01*
X0358235Y0237991D01*
X0358235Y0234950D01*
X0359714Y0231380D01*
X0359778Y0231315D01*
X0358541Y0230078D01*
X0313048Y0230078D01*
X0312543Y0230583D01*
X0310926Y0231253D01*
X0304426Y0231253D01*
X0302809Y0230583D01*
X0301571Y0229346D01*
X0300901Y0227728D01*
X0300901Y0221228D01*
X0301571Y0219611D01*
X0302809Y0218373D01*
X0304426Y0217704D01*
X0310926Y0217704D01*
X0312543Y0218373D01*
X0313048Y0218878D01*
X0361974Y0218878D01*
X0364032Y0219731D01*
X0371469Y0227168D01*
X0380512Y0227168D01*
X0384082Y0228647D01*
X0386815Y0231380D01*
X0388294Y0234950D01*
X0388294Y0238815D01*
X0386815Y0242386D01*
X0384082Y0245119D01*
X0380512Y0246598D01*
X0376609Y0246598D01*
X0342492Y0278198D01*
X0342492Y0278198D01*
X0339745Y0280743D01*
X0338550Y0281938D01*
X0338378Y0282009D01*
X0338241Y0282136D01*
X0336656Y0282723D01*
X0335095Y0283369D01*
X0334909Y0283369D01*
X0334734Y0283434D01*
X0333045Y0283369D01*
X0304831Y0283369D01*
X0295626Y0292574D01*
X0292612Y0293823D01*
X0289040Y0293823D01*
X0289176Y0294151D01*
X0289176Y0297095D01*
X0288050Y0299815D01*
X0287241Y0300623D01*
X0288050Y0301431D01*
X0289176Y0304151D01*
X0289176Y0307095D01*
X0288050Y0309815D01*
X0285968Y0311896D01*
X0285088Y0312261D01*
X0368265Y0312261D01*
X0365801Y0309797D01*
X0365801Y0304307D01*
X0360311Y0304307D01*
X0355801Y0299797D01*
X0355801Y0293418D01*
X0360311Y0288907D01*
X0366690Y0288907D01*
X0371201Y0293418D01*
X0371201Y0298907D01*
X0375801Y0298907D01*
X0375801Y0293418D01*
X0380311Y0288907D01*
X0386690Y0288907D01*
X0391201Y0293418D01*
X0391201Y0299797D01*
X0386690Y0304307D01*
X0381201Y0304307D01*
X0381201Y0309797D01*
X0378737Y0312261D01*
X0397103Y0312261D01*
X0396488Y0311197D01*
X0395650Y0308069D01*
X0395650Y0304830D01*
X0396488Y0301702D01*
X0398108Y0298898D01*
X0400398Y0296608D01*
X0403202Y0294989D01*
X0404849Y0294547D01*
X0406039Y0293979D01*
X0413760Y0293567D01*
X0413760Y0173456D01*
X0404720Y0182496D01*
X0401707Y0183744D01*
X0369023Y0183744D01*
X0363984Y0188783D01*
X0363984Y0190482D01*
X0369643Y0190482D01*
X0374153Y0194992D01*
X0374153Y0200482D01*
X0378753Y0200482D01*
X0378753Y0194992D01*
X0383264Y0190482D01*
X0389643Y0190482D01*
X0394153Y0194992D01*
X0394153Y0201371D01*
X0389643Y0205882D01*
X0384153Y0205882D01*
X0384153Y0211371D01*
X0379643Y0215882D01*
X0373264Y0215882D01*
X0368753Y0211371D01*
X0368753Y0205882D01*
X0363264Y0205882D01*
X0358753Y0201371D01*
X0358753Y0199919D01*
X0354524Y0204149D01*
X0351519Y0205394D01*
X0351657Y0205726D01*
X0351657Y0208670D01*
X0350530Y0211389D01*
X0348448Y0213471D01*
X0345729Y0214598D01*
X0336785Y0214598D01*
X0334065Y0213471D01*
X0331983Y0211389D01*
X0330857Y0208670D01*
X0330857Y0205726D01*
X0331983Y0203006D01*
X0332791Y0202198D01*
X0320734Y0202198D01*
X0318897Y0201436D01*
X0317490Y0200030D01*
X0309048Y0191587D01*
X0309039Y0191584D01*
X0308345Y0190885D01*
X0307648Y0190187D01*
X0307644Y0190179D01*
X0307637Y0190172D01*
X0307263Y0189259D01*
X0306886Y0188350D01*
X0306886Y0188340D01*
X0306883Y0188332D01*
X0306886Y0187345D01*
X0306886Y0186361D01*
X0306890Y0186352D01*
X0306923Y0177332D01*
X0302410Y0177332D01*
X0300793Y0176663D01*
X0300682Y0176552D01*
X0300223Y0176742D01*
X0295323Y0176742D01*
X0293706Y0176072D01*
X0292976Y0175342D01*
X0291868Y0175342D01*
X0291868Y0173384D01*
X0291868Y0175342D01*
X0289997Y0175342D01*
X0289418Y0175227D01*
X0288872Y0175000D01*
X0288381Y0174672D01*
X0287963Y0174254D01*
X0287634Y0173763D01*
X0287408Y0173217D01*
X0287293Y0172637D01*
X0287293Y0170767D01*
X0287293Y0168897D01*
X0287408Y0168317D01*
X0287634Y0167771D01*
X0287963Y0167280D01*
X0288381Y0166862D01*
X0288872Y0166534D01*
X0289418Y0166308D01*
X0289997Y0166192D01*
X0291868Y0166192D01*
X0292976Y0166192D01*
X0293706Y0165462D01*
X0295323Y0164792D01*
X0300223Y0164792D01*
X0300682Y0164982D01*
X0300793Y0164872D01*
X0302410Y0164202D01*
X0308097Y0164202D01*
X0308600Y0164410D01*
X0309103Y0164202D01*
X0314790Y0164202D01*
X0316407Y0164872D01*
X0317645Y0166109D01*
X0318315Y0167727D01*
X0318315Y0173808D01*
X0317645Y0175425D01*
X0316927Y0176143D01*
X0316894Y0185292D01*
X0323800Y0192198D01*
X0332791Y0192198D01*
X0331983Y0191389D01*
X0330857Y0188670D01*
X0330857Y0185726D01*
X0331983Y0183006D01*
X0334065Y0180924D01*
X0336785Y0179798D01*
X0345729Y0179798D01*
X0348448Y0180924D01*
X0348667Y0181142D01*
X0350340Y0179234D02*
X0316916Y0179234D01*
X0316901Y0183233D02*
X0331889Y0183233D01*
X0330857Y0187232D02*
X0318834Y0187232D01*
X0322832Y0191230D02*
X0331917Y0191230D01*
X0332791Y0192198D02*
X0332791Y0192198D01*
X0331892Y0203226D02*
X0293210Y0203226D01*
X0293905Y0202022D02*
X0292259Y0204873D01*
X0289932Y0207200D01*
X0287081Y0208846D01*
X0283902Y0209698D01*
X0280611Y0209698D01*
X0277432Y0208846D01*
X0274581Y0207200D01*
X0272254Y0204873D01*
X0270608Y0202022D01*
X0269757Y0198843D01*
X0269757Y0195552D01*
X0270608Y0192373D01*
X0272254Y0189522D01*
X0274581Y0187195D01*
X0277432Y0185549D01*
X0280611Y0184698D01*
X0283902Y0184698D01*
X0287081Y0185549D01*
X0289932Y0187195D01*
X0292259Y0189522D01*
X0293905Y0192373D01*
X0294757Y0195552D01*
X0294757Y0198843D01*
X0293905Y0202022D01*
X0294654Y0199227D02*
X0316687Y0199227D01*
X0312689Y0195229D02*
X0294670Y0195229D01*
X0293245Y0191230D02*
X0308688Y0191230D01*
X0306886Y0187232D02*
X0289968Y0187232D01*
X0289465Y0175236D02*
X0258622Y0175236D01*
X0258622Y0179234D02*
X0306916Y0179234D01*
X0306901Y0183233D02*
X0258622Y0183233D01*
X0258622Y0187232D02*
X0274545Y0187232D01*
X0271268Y0191230D02*
X0258622Y0191230D01*
X0258622Y0195229D02*
X0269843Y0195229D01*
X0269859Y0199227D02*
X0258622Y0199227D01*
X0258622Y0203226D02*
X0271303Y0203226D01*
X0274623Y0207224D02*
X0258159Y0207224D01*
X0254625Y0211223D02*
X0331914Y0211223D01*
X0330857Y0207224D02*
X0289890Y0207224D01*
X0301962Y0219220D02*
X0246628Y0219220D01*
X0250626Y0215221D02*
X0372603Y0215221D01*
X0368753Y0211223D02*
X0350599Y0211223D01*
X0351657Y0207224D02*
X0368753Y0207224D01*
X0360608Y0203226D02*
X0355447Y0203226D01*
X0374153Y0199227D02*
X0378753Y0199227D01*
X0378753Y0195229D02*
X0374153Y0195229D01*
X0370391Y0191230D02*
X0382516Y0191230D01*
X0390391Y0191230D02*
X0413760Y0191230D01*
X0413760Y0187232D02*
X0365536Y0187232D01*
X0354338Y0175236D02*
X0317723Y0175236D01*
X0318315Y0171237D02*
X0358337Y0171237D01*
X0356639Y0165396D02*
X0354580Y0164544D01*
X0353603Y0163566D01*
X0352822Y0163566D01*
X0351205Y0162896D01*
X0350548Y0162239D01*
X0349891Y0162896D01*
X0348273Y0163566D01*
X0346723Y0163566D01*
X0344286Y0166003D01*
X0342448Y0166765D01*
X0335105Y0166765D01*
X0333267Y0166003D01*
X0331860Y0164597D01*
X0329374Y0162111D01*
X0328130Y0162111D01*
X0325558Y0161045D01*
X0323588Y0159076D01*
X0322523Y0156503D01*
X0322523Y0153719D01*
X0323588Y0151146D01*
X0324623Y0150111D01*
X0323588Y0149076D01*
X0322523Y0146503D01*
X0322523Y0143719D01*
X0323588Y0141146D01*
X0324623Y0140111D01*
X0323588Y0139076D01*
X0322523Y0136503D01*
X0322523Y0133719D01*
X0323588Y0131146D01*
X0324623Y0130111D01*
X0323588Y0129076D01*
X0322523Y0126503D01*
X0322523Y0123719D01*
X0323588Y0121146D01*
X0324623Y0120111D01*
X0323588Y0119076D01*
X0322523Y0116503D01*
X0322523Y0113719D01*
X0323588Y0111146D01*
X0324623Y0110111D01*
X0323588Y0109076D01*
X0322523Y0106503D01*
X0322523Y0103719D01*
X0323588Y0101146D01*
X0325558Y0099177D01*
X0328130Y0098111D01*
X0332170Y0098111D01*
X0333805Y0097434D01*
X0341254Y0097434D01*
X0341363Y0097326D01*
X0342980Y0096656D01*
X0348667Y0096656D01*
X0350284Y0097326D01*
X0350942Y0097983D01*
X0351599Y0097326D01*
X0353216Y0096656D01*
X0354902Y0096656D01*
X0355565Y0095993D01*
X0357623Y0095141D01*
X0374384Y0095141D01*
X0376262Y0093262D01*
X0382393Y0093262D01*
X0384327Y0095197D01*
X0386262Y0093262D01*
X0392393Y0093262D01*
X0396727Y0097597D01*
X0396727Y0103727D01*
X0393887Y0106568D01*
X0396727Y0109408D01*
X0396727Y0115538D01*
X0393887Y0118379D01*
X0396727Y0121219D01*
X0396727Y0127349D01*
X0393887Y0130190D01*
X0396727Y0133030D01*
X0396727Y0139160D01*
X0393887Y0142001D01*
X0396727Y0144841D01*
X0396727Y0150971D01*
X0393887Y0153812D01*
X0396727Y0156652D01*
X0396727Y0162782D01*
X0392393Y0167117D01*
X0386262Y0167117D01*
X0384327Y0165182D01*
X0382393Y0167117D01*
X0376262Y0167117D01*
X0374541Y0165396D01*
X0356639Y0165396D01*
X0352036Y0163240D02*
X0349060Y0163240D01*
X0361480Y0154196D02*
X0374384Y0154196D01*
X0374768Y0153812D01*
X0374541Y0153585D01*
X0361610Y0153585D01*
X0361419Y0154048D01*
X0361480Y0154196D01*
X0330504Y0163240D02*
X0258622Y0163240D01*
X0258622Y0159242D02*
X0323754Y0159242D01*
X0322523Y0155243D02*
X0258622Y0155243D01*
X0258622Y0151245D02*
X0323547Y0151245D01*
X0322830Y0147246D02*
X0258622Y0147246D01*
X0258622Y0143248D02*
X0322718Y0143248D01*
X0323762Y0139249D02*
X0289987Y0139249D01*
X0293221Y0135251D02*
X0322523Y0135251D01*
X0323544Y0131252D02*
X0293344Y0131252D01*
X0292282Y0127254D02*
X0322834Y0127254D01*
X0322715Y0123255D02*
X0293534Y0123255D01*
X0292517Y0119257D02*
X0323769Y0119257D01*
X0322523Y0115258D02*
X0293218Y0115258D01*
X0293347Y0111260D02*
X0323541Y0111260D01*
X0322837Y0107261D02*
X0292275Y0107261D01*
X0293534Y0103263D02*
X0322712Y0103263D01*
X0325470Y0099264D02*
X0292520Y0099264D01*
X0293215Y0095266D02*
X0357322Y0095266D01*
X0355797Y0087269D02*
X0342464Y0087269D01*
X0343731Y0083270D02*
X0354531Y0083270D01*
X0355541Y0079272D02*
X0342720Y0079272D01*
X0343408Y0075273D02*
X0354853Y0075273D01*
X0354711Y0071275D02*
X0343550Y0071275D01*
X0342457Y0067276D02*
X0355804Y0067276D01*
X0354531Y0063278D02*
X0343731Y0063278D01*
X0342723Y0059279D02*
X0355538Y0059279D01*
X0364131Y0063103D02*
X0364406Y0062828D01*
X0379131Y0062828D01*
X0379131Y0072828D02*
X0364406Y0072828D01*
X0364131Y0073103D01*
X0364406Y0082828D02*
X0364131Y0083103D01*
X0364406Y0082828D02*
X0379131Y0082828D01*
X0394396Y0095266D02*
X0402702Y0095266D01*
X0402702Y0099264D02*
X0396727Y0099264D01*
X0396727Y0103263D02*
X0402702Y0103263D01*
X0402702Y0107261D02*
X0394581Y0107261D01*
X0396727Y0111260D02*
X0402702Y0111260D01*
X0402702Y0115258D02*
X0396727Y0115258D01*
X0394765Y0119257D02*
X0402702Y0119257D01*
X0402702Y0123255D02*
X0396727Y0123255D01*
X0396727Y0127254D02*
X0402702Y0127254D01*
X0402702Y0131252D02*
X0394950Y0131252D01*
X0396727Y0135251D02*
X0402702Y0135251D01*
X0402702Y0139249D02*
X0396638Y0139249D01*
X0395134Y0143248D02*
X0402702Y0143248D01*
X0402702Y0147246D02*
X0396727Y0147246D01*
X0396454Y0151245D02*
X0402702Y0151245D01*
X0402702Y0155243D02*
X0395319Y0155243D01*
X0396727Y0159242D02*
X0402702Y0159242D01*
X0400783Y0163240D02*
X0396269Y0163240D01*
X0396784Y0167239D02*
X0318113Y0167239D01*
X0291868Y0167239D02*
X0291868Y0167239D01*
X0291868Y0168150D02*
X0291868Y0166192D01*
X0291868Y0168150D01*
X0291868Y0168150D01*
X0291798Y0170767D02*
X0287293Y0170767D01*
X0291798Y0170767D01*
X0291798Y0170767D01*
X0291868Y0173384D02*
X0291868Y0173384D01*
X0291868Y0175236D02*
X0291868Y0175236D01*
X0287293Y0171237D02*
X0258622Y0171237D01*
X0258622Y0167239D02*
X0288004Y0167239D01*
X0277880Y0139249D02*
X0260653Y0139249D01*
X0212789Y0139249D02*
X0075951Y0139249D01*
X0075951Y0135251D02*
X0100512Y0135251D01*
X0100200Y0134939D02*
X0099530Y0133322D01*
X0099530Y0126822D01*
X0100138Y0125353D01*
X0099327Y0126165D01*
X0097710Y0126835D01*
X0091210Y0126835D01*
X0089592Y0126165D01*
X0088355Y0124927D01*
X0087685Y0123310D01*
X0087685Y0116810D01*
X0088355Y0115193D01*
X0089260Y0114288D01*
X0089260Y0094674D01*
X0086014Y0091429D01*
X0084977Y0091429D01*
X0083571Y0092835D01*
X0080741Y0094007D01*
X0077678Y0094007D01*
X0074848Y0092835D01*
X0072682Y0090669D01*
X0071509Y0087839D01*
X0071509Y0084776D01*
X0072682Y0081946D01*
X0073320Y0081307D01*
X0072682Y0080669D01*
X0071509Y0077839D01*
X0071509Y0074776D01*
X0072682Y0071946D01*
X0074848Y0069780D01*
X0077678Y0068607D01*
X0080741Y0068607D01*
X0083571Y0069780D01*
X0084899Y0071107D01*
X0091937Y0071107D01*
X0093848Y0071899D01*
X0109251Y0087302D01*
X0110713Y0088765D01*
X0111505Y0090676D01*
X0111505Y0124299D01*
X0112410Y0125204D01*
X0113080Y0126822D01*
X0113080Y0133322D01*
X0112410Y0134939D01*
X0111172Y0136177D01*
X0109555Y0136846D01*
X0103055Y0136846D01*
X0101438Y0136177D01*
X0100200Y0134939D01*
X0099530Y0131252D02*
X0075951Y0131252D01*
X0075951Y0127254D02*
X0099530Y0127254D01*
X0087685Y0123255D02*
X0075951Y0123255D01*
X0075951Y0119257D02*
X0087685Y0119257D01*
X0088328Y0115258D02*
X0075951Y0115258D01*
X0075951Y0111260D02*
X0089260Y0111260D01*
X0089260Y0107261D02*
X0075951Y0107261D01*
X0075951Y0103263D02*
X0089260Y0103263D01*
X0089260Y0099264D02*
X0075951Y0099264D01*
X0073780Y0095266D02*
X0089260Y0095266D01*
X0073280Y0091267D02*
X0069781Y0091267D01*
X0071509Y0087269D02*
X0065783Y0087269D01*
X0061784Y0083270D02*
X0072133Y0083270D01*
X0072103Y0079272D02*
X0053141Y0079272D01*
X0053838Y0075273D02*
X0071509Y0075273D01*
X0073353Y0071275D02*
X0052247Y0071275D01*
X0040538Y0070766D02*
X0040538Y0067417D01*
X0040030Y0066909D01*
X0038388Y0068552D01*
X0035902Y0068552D01*
X0033417Y0068552D01*
X0032060Y0067195D01*
X0032060Y0074920D01*
X0032513Y0074618D01*
X0033059Y0074392D01*
X0033638Y0074276D01*
X0035902Y0074276D01*
X0035902Y0079442D01*
X0035902Y0079442D01*
X0035902Y0074276D01*
X0038166Y0074276D01*
X0038513Y0074345D01*
X0039611Y0071694D01*
X0040538Y0070766D01*
X0040030Y0071275D02*
X0032060Y0071275D01*
X0032060Y0067276D02*
X0032141Y0067276D01*
X0035902Y0067276D02*
X0035902Y0067276D01*
X0035902Y0068552D02*
X0035902Y0062552D01*
X0035902Y0062552D01*
X0035902Y0062552D01*
X0035902Y0052552D01*
X0035902Y0052552D01*
X0035902Y0052552D01*
X0035902Y0048552D01*
X0035902Y0042552D01*
X0035902Y0042552D01*
X0035902Y0042552D01*
X0035902Y0038552D01*
X0035902Y0032552D01*
X0035902Y0032552D01*
X0035902Y0032552D01*
X0035902Y0028552D01*
X0035902Y0022552D01*
X0035902Y0022552D01*
X0035902Y0022552D01*
X0035902Y0018552D01*
X0035902Y0012552D01*
X0035902Y0012552D01*
X0035902Y0022552D01*
X0035902Y0032552D01*
X0035902Y0042552D01*
X0035902Y0052552D01*
X0035902Y0056552D01*
X0035902Y0062552D01*
X0035902Y0068552D01*
X0039663Y0067276D02*
X0040398Y0067276D01*
X0035902Y0063278D02*
X0035902Y0063278D01*
X0035902Y0059279D02*
X0035902Y0059279D01*
X0035902Y0055281D02*
X0035902Y0055281D01*
X0035902Y0051282D02*
X0035902Y0051282D01*
X0035902Y0047284D02*
X0035902Y0047284D01*
X0035902Y0043285D02*
X0035902Y0043285D01*
X0035902Y0039287D02*
X0035902Y0039287D01*
X0035902Y0035288D02*
X0035902Y0035288D01*
X0035902Y0031290D02*
X0035902Y0031290D01*
X0035902Y0027291D02*
X0035902Y0027291D01*
X0035902Y0023293D02*
X0035902Y0023293D01*
X0035902Y0019294D02*
X0035902Y0019294D01*
X0035902Y0015296D02*
X0035902Y0015296D01*
X0073031Y0019294D02*
X0257633Y0019294D01*
X0253634Y0023293D02*
X0073420Y0023293D01*
X0071943Y0027291D02*
X0249636Y0027291D01*
X0245637Y0031290D02*
X0073420Y0031290D01*
X0073420Y0035288D02*
X0241639Y0035288D01*
X0237640Y0039287D02*
X0073023Y0039287D01*
X0073420Y0043285D02*
X0233642Y0043285D01*
X0229643Y0047284D02*
X0071951Y0047284D01*
X0073420Y0051282D02*
X0225645Y0051282D01*
X0221646Y0055281D02*
X0073420Y0055281D01*
X0073016Y0059279D02*
X0217648Y0059279D01*
X0213649Y0063278D02*
X0073420Y0063278D01*
X0071958Y0067276D02*
X0212789Y0067276D01*
X0212789Y0071275D02*
X0092340Y0071275D01*
X0097222Y0075273D02*
X0212789Y0075273D01*
X0212789Y0079272D02*
X0101220Y0079272D01*
X0105219Y0083270D02*
X0212789Y0083270D01*
X0212789Y0087269D02*
X0109217Y0087269D01*
X0111505Y0091267D02*
X0212789Y0091267D01*
X0212789Y0095266D02*
X0111505Y0095266D01*
X0111505Y0099264D02*
X0212789Y0099264D01*
X0212789Y0103263D02*
X0111505Y0103263D01*
X0111505Y0107261D02*
X0212789Y0107261D01*
X0212789Y0111260D02*
X0111505Y0111260D01*
X0111505Y0115258D02*
X0212789Y0115258D01*
X0212789Y0119257D02*
X0111505Y0119257D01*
X0111505Y0123255D02*
X0212789Y0123255D01*
X0212789Y0127254D02*
X0113080Y0127254D01*
X0113080Y0131252D02*
X0212789Y0131252D01*
X0212789Y0135251D02*
X0112098Y0135251D01*
X0115188Y0158246D02*
X0112615Y0159312D01*
X0111581Y0160347D01*
X0110546Y0159312D01*
X0107973Y0158246D01*
X0105188Y0158246D01*
X0102615Y0159312D01*
X0101581Y0160347D01*
X0100546Y0159312D01*
X0097973Y0158246D01*
X0095188Y0158246D01*
X0092615Y0159312D01*
X0091581Y0160347D01*
X0090546Y0159312D01*
X0087973Y0158246D01*
X0085188Y0158246D01*
X0082615Y0159312D01*
X0080646Y0161281D01*
X0079581Y0163854D01*
X0079581Y0171838D01*
X0080646Y0174411D01*
X0082615Y0176380D01*
X0085188Y0177446D01*
X0087973Y0177446D01*
X0090546Y0176380D01*
X0091581Y0175345D01*
X0092615Y0176380D01*
X0095188Y0177446D01*
X0097973Y0177446D01*
X0100546Y0176380D01*
X0101581Y0175345D01*
X0102615Y0176380D01*
X0105188Y0177446D01*
X0107973Y0177446D01*
X0110546Y0176380D01*
X0111581Y0175345D01*
X0112615Y0176380D01*
X0115188Y0177446D01*
X0117973Y0177446D01*
X0120546Y0176380D01*
X0121581Y0175345D01*
X0122615Y0176380D01*
X0125188Y0177446D01*
X0127973Y0177446D01*
X0130546Y0176380D01*
X0131581Y0175345D01*
X0132615Y0176380D01*
X0135188Y0177446D01*
X0137973Y0177446D01*
X0140546Y0176380D01*
X0141581Y0175345D01*
X0142615Y0176380D01*
X0145188Y0177446D01*
X0147973Y0177446D01*
X0150546Y0176380D01*
X0151581Y0175345D01*
X0152615Y0176380D01*
X0155188Y0177446D01*
X0157973Y0177446D01*
X0160546Y0176380D01*
X0161581Y0175345D01*
X0162615Y0176380D01*
X0165188Y0177446D01*
X0167973Y0177446D01*
X0170546Y0176380D01*
X0171581Y0175345D01*
X0172615Y0176380D01*
X0175188Y0177446D01*
X0177973Y0177446D01*
X0180546Y0176380D01*
X0182515Y0174411D01*
X0182548Y0174332D01*
X0182932Y0174717D01*
X0183646Y0175236D01*
X0181690Y0175236D01*
X0183646Y0175236D02*
X0184431Y0175636D01*
X0185269Y0175908D01*
X0186140Y0176046D01*
X0186581Y0176046D01*
X0186581Y0167846D01*
X0186581Y0167846D01*
X0186581Y0159646D01*
X0187021Y0159646D01*
X0187892Y0159784D01*
X0188730Y0160056D01*
X0189516Y0160456D01*
X0190229Y0160975D01*
X0190614Y0161360D01*
X0190646Y0161281D01*
X0192615Y0159312D01*
X0195188Y0158246D01*
X0197973Y0158246D01*
X0200546Y0159312D01*
X0202515Y0161281D01*
X0203581Y0163854D01*
X0203581Y0171838D01*
X0202515Y0174411D01*
X0200546Y0176380D01*
X0197973Y0177446D01*
X0195188Y0177446D01*
X0192615Y0176380D01*
X0190646Y0174411D01*
X0190614Y0174332D01*
X0190229Y0174717D01*
X0189516Y0175236D01*
X0188730Y0175636D01*
X0187892Y0175908D01*
X0187021Y0176046D01*
X0186581Y0176046D01*
X0186581Y0167846D01*
X0186581Y0167846D01*
X0186581Y0159646D01*
X0186140Y0159646D01*
X0185269Y0159784D01*
X0184431Y0160056D01*
X0183646Y0160456D01*
X0182932Y0160975D01*
X0182548Y0161360D01*
X0182515Y0161281D01*
X0180546Y0159312D01*
X0177973Y0158246D01*
X0175188Y0158246D01*
X0172615Y0159312D01*
X0171581Y0160347D01*
X0170546Y0159312D01*
X0167973Y0158246D01*
X0165188Y0158246D01*
X0162615Y0159312D01*
X0161581Y0160347D01*
X0160546Y0159312D01*
X0157973Y0158246D01*
X0155188Y0158246D01*
X0152615Y0159312D01*
X0151581Y0160347D01*
X0150546Y0159312D01*
X0147973Y0158246D01*
X0145188Y0158246D01*
X0142615Y0159312D01*
X0141581Y0160347D01*
X0140546Y0159312D01*
X0137973Y0158246D01*
X0135188Y0158246D01*
X0132615Y0159312D01*
X0131581Y0160347D01*
X0130546Y0159312D01*
X0127973Y0158246D01*
X0125188Y0158246D01*
X0122615Y0159312D01*
X0121581Y0160347D01*
X0120546Y0159312D01*
X0117973Y0158246D01*
X0115188Y0158246D01*
X0112784Y0159242D02*
X0110377Y0159242D01*
X0102784Y0159242D02*
X0100377Y0159242D01*
X0092784Y0159242D02*
X0090377Y0159242D01*
X0082784Y0159242D02*
X0075951Y0159242D01*
X0075951Y0163240D02*
X0079835Y0163240D01*
X0079581Y0167239D02*
X0075951Y0167239D01*
X0075951Y0171237D02*
X0079581Y0171237D01*
X0081471Y0175236D02*
X0074642Y0175236D01*
X0073865Y0179234D02*
X0070643Y0179234D01*
X0079357Y0179234D02*
X0083865Y0179234D01*
X0089357Y0179234D02*
X0093865Y0179234D01*
X0099357Y0179234D02*
X0103865Y0179234D01*
X0109357Y0179234D02*
X0113865Y0179234D01*
X0119357Y0179234D02*
X0123865Y0179234D01*
X0129357Y0179234D02*
X0133865Y0179234D01*
X0139357Y0179234D02*
X0143865Y0179234D01*
X0149357Y0179234D02*
X0153865Y0179234D01*
X0159357Y0179234D02*
X0163865Y0179234D01*
X0169357Y0179234D02*
X0173865Y0179234D01*
X0179357Y0179234D02*
X0183865Y0179234D01*
X0186581Y0175236D02*
X0186581Y0175236D01*
X0189515Y0175236D02*
X0191471Y0175236D01*
X0189357Y0179234D02*
X0203865Y0179234D01*
X0201690Y0175236D02*
X0212789Y0175236D01*
X0212789Y0179234D02*
X0209357Y0179234D01*
X0212789Y0171237D02*
X0203581Y0171237D01*
X0203581Y0167239D02*
X0212789Y0167239D01*
X0212789Y0163240D02*
X0203327Y0163240D01*
X0200377Y0159242D02*
X0212789Y0159242D01*
X0212789Y0155243D02*
X0075951Y0155243D01*
X0075951Y0151245D02*
X0212789Y0151245D01*
X0212789Y0147246D02*
X0075951Y0147246D01*
X0075951Y0143248D02*
X0212789Y0143248D01*
X0192784Y0159242D02*
X0180377Y0159242D01*
X0186581Y0163240D02*
X0186581Y0163240D01*
X0186581Y0167239D02*
X0186581Y0167239D01*
X0186581Y0171237D02*
X0186581Y0171237D01*
X0196611Y0180072D02*
X0196611Y0188221D01*
X0196611Y0180072D01*
X0196611Y0183233D02*
X0196611Y0183233D01*
X0196611Y0187232D02*
X0196611Y0187232D01*
X0196611Y0188221D02*
X0196611Y0188221D01*
X0196611Y0188221D01*
X0196611Y0196371D01*
X0197050Y0196371D01*
X0197916Y0196234D01*
X0198751Y0195962D01*
X0199533Y0195564D01*
X0200243Y0195048D01*
X0200653Y0194638D01*
X0200698Y0194747D01*
X0202660Y0196709D01*
X0203167Y0196919D01*
X0190055Y0196919D01*
X0190562Y0196709D01*
X0192524Y0194747D01*
X0192569Y0194638D01*
X0192979Y0195048D01*
X0193689Y0195564D01*
X0194471Y0195962D01*
X0195305Y0196234D01*
X0196172Y0196371D01*
X0196611Y0196371D01*
X0196611Y0188221D01*
X0196611Y0191230D02*
X0196611Y0191230D01*
X0196611Y0195229D02*
X0196611Y0195229D01*
X0199995Y0195229D02*
X0201180Y0195229D01*
X0193227Y0195229D02*
X0192042Y0195229D01*
X0172784Y0159242D02*
X0170377Y0159242D01*
X0162784Y0159242D02*
X0160377Y0159242D01*
X0152784Y0159242D02*
X0150377Y0159242D01*
X0142784Y0159242D02*
X0140377Y0159242D01*
X0132784Y0159242D02*
X0130377Y0159242D01*
X0122784Y0159242D02*
X0120377Y0159242D01*
X0036060Y0159242D02*
X0036060Y0159242D01*
X0036060Y0160072D02*
X0036060Y0150072D01*
X0036060Y0150072D01*
X0036060Y0156572D01*
X0036060Y0160072D01*
X0036060Y0160072D01*
X0036060Y0170072D01*
X0036060Y0170072D01*
X0036060Y0166572D01*
X0036060Y0160072D01*
X0036060Y0160072D01*
X0036060Y0163240D02*
X0036060Y0163240D01*
X0036060Y0167239D02*
X0036060Y0167239D01*
X0036060Y0155243D02*
X0036060Y0155243D01*
X0036060Y0151245D02*
X0036060Y0151245D01*
X0036060Y0150072D02*
X0036060Y0140072D01*
X0036060Y0140072D01*
X0036060Y0146572D01*
X0036060Y0150072D01*
X0036060Y0150072D01*
X0036060Y0147246D02*
X0036060Y0147246D01*
X0036060Y0143248D02*
X0036060Y0143248D01*
X0036060Y0140072D02*
X0036060Y0130072D01*
X0036060Y0130072D01*
X0036060Y0136572D01*
X0036060Y0140072D01*
X0036060Y0140072D01*
X0036060Y0139249D02*
X0036060Y0139249D01*
X0036060Y0135251D02*
X0036060Y0135251D01*
X0036060Y0131252D02*
X0036060Y0131252D01*
X0036060Y0130072D02*
X0036060Y0120072D01*
X0036060Y0120072D01*
X0036060Y0123572D01*
X0036060Y0130072D01*
X0036060Y0130072D01*
X0036060Y0127254D02*
X0036060Y0127254D01*
X0036060Y0123255D02*
X0036060Y0123255D01*
X0036060Y0120072D02*
X0036060Y0110072D01*
X0036060Y0110072D01*
X0036060Y0116572D01*
X0036060Y0120072D01*
X0036060Y0120072D01*
X0036060Y0119257D02*
X0036060Y0119257D01*
X0036060Y0115258D02*
X0036060Y0115258D01*
X0036060Y0111260D02*
X0036060Y0111260D01*
X0036060Y0110072D02*
X0036060Y0100072D01*
X0036060Y0100072D01*
X0036060Y0106572D01*
X0036060Y0110072D01*
X0036060Y0110072D01*
X0036060Y0107261D02*
X0036060Y0107261D01*
X0036060Y0103263D02*
X0036060Y0103263D01*
X0036060Y0100072D02*
X0036060Y0093572D01*
X0038752Y0093572D01*
X0040070Y0094889D01*
X0042200Y0092759D01*
X0041777Y0092584D01*
X0040793Y0091600D01*
X0040363Y0092030D01*
X0038746Y0092700D01*
X0033059Y0092700D01*
X0032060Y0092286D01*
X0032060Y0094879D01*
X0033367Y0093572D01*
X0036060Y0093572D01*
X0036060Y0100072D01*
X0036060Y0100072D01*
X0036060Y0099264D02*
X0036060Y0099264D01*
X0036060Y0095266D02*
X0036060Y0095266D01*
X0035902Y0079272D02*
X0035902Y0079272D01*
X0035902Y0075273D02*
X0035902Y0075273D01*
X0073420Y0015296D02*
X0326363Y0015296D01*
X0325931Y0013103D02*
X0334130Y0013103D01*
X0325931Y0013103D01*
X0326229Y0011297D02*
X0073420Y0011297D01*
X0292533Y0019294D02*
X0312734Y0019294D01*
X0311814Y0023293D02*
X0293534Y0023293D01*
X0292245Y0027291D02*
X0313299Y0027291D01*
X0311907Y0031290D02*
X0293359Y0031290D01*
X0293205Y0035288D02*
X0312224Y0035288D01*
X0312737Y0039287D02*
X0292530Y0039287D01*
X0293534Y0043285D02*
X0311814Y0043285D01*
X0313292Y0047284D02*
X0292253Y0047284D01*
X0293356Y0051282D02*
X0311910Y0051282D01*
X0312221Y0055281D02*
X0293209Y0055281D01*
X0292527Y0059279D02*
X0312740Y0059279D01*
X0311814Y0063278D02*
X0293534Y0063278D01*
X0292260Y0067276D02*
X0313284Y0067276D01*
X0311913Y0071275D02*
X0293353Y0071275D01*
X0293212Y0075273D02*
X0312218Y0075273D01*
X0312743Y0079272D02*
X0292523Y0079272D01*
X0293534Y0083270D02*
X0311814Y0083270D01*
X0313277Y0087269D02*
X0292268Y0087269D01*
X0293350Y0091267D02*
X0402702Y0091267D01*
X0379131Y0052828D02*
X0364406Y0052828D01*
X0364131Y0053103D01*
X0354856Y0055281D02*
X0343405Y0055281D01*
X0343553Y0051282D02*
X0354708Y0051282D01*
X0355812Y0047284D02*
X0342450Y0047284D01*
X0343731Y0043285D02*
X0354531Y0043285D01*
X0355535Y0039287D02*
X0342726Y0039287D01*
X0343402Y0035288D02*
X0354859Y0035288D01*
X0364131Y0033103D02*
X0364406Y0032828D01*
X0379131Y0032828D01*
X0379131Y0042828D02*
X0364406Y0042828D01*
X0364131Y0043103D01*
X0354705Y0031290D02*
X0343556Y0031290D01*
X0342442Y0027291D02*
X0355819Y0027291D01*
X0354531Y0023293D02*
X0343731Y0023293D01*
X0342730Y0019294D02*
X0355532Y0019294D01*
X0354862Y0015296D02*
X0341899Y0015296D01*
X0342032Y0011297D02*
X0354702Y0011297D01*
X0364406Y0022828D02*
X0364131Y0023103D01*
X0364406Y0022828D02*
X0379131Y0022828D01*
X0334130Y0013103D02*
X0334130Y0013103D01*
X0361480Y0129963D02*
X0361419Y0130111D01*
X0361610Y0130574D01*
X0374384Y0130574D01*
X0374768Y0130190D01*
X0374541Y0129963D01*
X0361480Y0129963D01*
X0411980Y0175236D02*
X0413760Y0175236D01*
X0413760Y0179234D02*
X0407982Y0179234D01*
X0402940Y0183233D02*
X0413760Y0183233D01*
X0413760Y0195229D02*
X0394153Y0195229D01*
X0394153Y0199227D02*
X0413760Y0199227D01*
X0413760Y0203226D02*
X0392299Y0203226D01*
X0384153Y0207224D02*
X0413760Y0207224D01*
X0413760Y0211223D02*
X0384153Y0211223D01*
X0380304Y0215221D02*
X0413760Y0215221D01*
X0413760Y0219220D02*
X0362798Y0219220D01*
X0367519Y0223218D02*
X0413760Y0223218D01*
X0413760Y0227217D02*
X0380630Y0227217D01*
X0386651Y0231215D02*
X0413760Y0231215D01*
X0413760Y0235214D02*
X0388294Y0235214D01*
X0388130Y0239212D02*
X0413760Y0239212D01*
X0413760Y0243211D02*
X0385990Y0243211D01*
X0375949Y0247209D02*
X0413760Y0247209D01*
X0413760Y0251208D02*
X0371632Y0251208D01*
X0367315Y0255206D02*
X0413760Y0255206D01*
X0413760Y0259205D02*
X0362998Y0259205D01*
X0364264Y0260512D02*
X0365271Y0260094D01*
X0366324Y0259812D01*
X0367404Y0259670D01*
X0373264Y0259670D01*
X0373264Y0267985D01*
X0359635Y0267985D01*
X0359635Y0267440D01*
X0359777Y0266359D01*
X0360059Y0265307D01*
X0360476Y0264300D01*
X0361021Y0263356D01*
X0361685Y0262491D01*
X0362455Y0261720D01*
X0363320Y0261057D01*
X0364264Y0260512D01*
X0361138Y0263203D02*
X0358681Y0263203D01*
X0359666Y0267202D02*
X0354364Y0267202D01*
X0350047Y0271200D02*
X0360281Y0271200D01*
X0360476Y0271671D02*
X0360059Y0270664D01*
X0359777Y0269611D01*
X0359635Y0268530D01*
X0359635Y0267985D01*
X0373264Y0267985D01*
X0373264Y0267985D01*
X0373264Y0267985D01*
X0373264Y0276300D01*
X0367404Y0276300D01*
X0366324Y0276158D01*
X0365271Y0275876D01*
X0364264Y0275458D01*
X0363320Y0274913D01*
X0362455Y0274250D01*
X0361685Y0273479D01*
X0361021Y0272614D01*
X0360476Y0271671D01*
X0363814Y0275199D02*
X0345731Y0275199D01*
X0341414Y0279197D02*
X0413760Y0279197D01*
X0413760Y0283196D02*
X0339694Y0283196D01*
X0339422Y0283123D02*
X0342601Y0283975D01*
X0345451Y0285620D01*
X0347779Y0287948D01*
X0349424Y0290798D01*
X0350276Y0293977D01*
X0350276Y0297268D01*
X0349424Y0300448D01*
X0347779Y0303298D01*
X0345451Y0305625D01*
X0342601Y0307271D01*
X0339422Y0308123D01*
X0336131Y0308123D01*
X0332951Y0307271D01*
X0330101Y0305625D01*
X0327774Y0303298D01*
X0326128Y0300448D01*
X0325276Y0297268D01*
X0325276Y0293977D01*
X0326128Y0290798D01*
X0327774Y0287948D01*
X0330101Y0285620D01*
X0332951Y0283975D01*
X0336131Y0283123D01*
X0339422Y0283123D01*
X0335858Y0283196D02*
X0335514Y0283196D01*
X0328527Y0287194D02*
X0301006Y0287194D01*
X0297008Y0291193D02*
X0326022Y0291193D01*
X0325276Y0295191D02*
X0289176Y0295191D01*
X0288308Y0299190D02*
X0325791Y0299190D01*
X0327710Y0303188D02*
X0288778Y0303188D01*
X0289138Y0307187D02*
X0332806Y0307187D01*
X0342747Y0307187D02*
X0365801Y0307187D01*
X0367190Y0311185D02*
X0286679Y0311185D01*
X0249869Y0287194D02*
X0194316Y0287194D01*
X0194646Y0289284D02*
X0194646Y0289710D01*
X0194535Y0290555D01*
X0194315Y0291378D01*
X0193988Y0292165D01*
X0193562Y0292903D01*
X0193044Y0293579D01*
X0192441Y0294182D01*
X0191765Y0294700D01*
X0191027Y0295126D01*
X0190240Y0295452D01*
X0189417Y0295673D01*
X0188572Y0295784D01*
X0188146Y0295784D01*
X0187720Y0295784D01*
X0186876Y0295673D01*
X0186052Y0295452D01*
X0185265Y0295126D01*
X0184527Y0294700D01*
X0183851Y0294182D01*
X0183249Y0293579D01*
X0183146Y0293446D01*
X0183044Y0293579D01*
X0182441Y0294182D01*
X0181765Y0294700D01*
X0181027Y0295126D01*
X0180240Y0295452D01*
X0179417Y0295673D01*
X0178572Y0295784D01*
X0178146Y0295784D01*
X0177720Y0295784D01*
X0176876Y0295673D01*
X0176052Y0295452D01*
X0175265Y0295126D01*
X0174527Y0294700D01*
X0173851Y0294182D01*
X0173249Y0293579D01*
X0173146Y0293446D01*
X0173044Y0293579D01*
X0172441Y0294182D01*
X0171765Y0294700D01*
X0171027Y0295126D01*
X0170240Y0295452D01*
X0169417Y0295673D01*
X0168572Y0295784D01*
X0168146Y0295784D01*
X0167720Y0295784D01*
X0166876Y0295673D01*
X0166052Y0295452D01*
X0165265Y0295126D01*
X0164527Y0294700D01*
X0163851Y0294182D01*
X0163249Y0293579D01*
X0163146Y0293446D01*
X0163044Y0293579D01*
X0162441Y0294182D01*
X0161765Y0294700D01*
X0161027Y0295126D01*
X0160240Y0295452D01*
X0159417Y0295673D01*
X0158572Y0295784D01*
X0158146Y0295784D01*
X0157720Y0295784D01*
X0156876Y0295673D01*
X0156052Y0295452D01*
X0155265Y0295126D01*
X0154527Y0294700D01*
X0153851Y0294182D01*
X0153249Y0293579D01*
X0153146Y0293446D01*
X0153044Y0293579D01*
X0152441Y0294182D01*
X0151765Y0294700D01*
X0151027Y0295126D01*
X0150240Y0295452D01*
X0149417Y0295673D01*
X0148572Y0295784D01*
X0148146Y0295784D01*
X0147720Y0295784D01*
X0146876Y0295673D01*
X0146052Y0295452D01*
X0145265Y0295126D01*
X0144527Y0294700D01*
X0143851Y0294182D01*
X0143249Y0293579D01*
X0143146Y0293446D01*
X0143044Y0293579D01*
X0142441Y0294182D01*
X0141765Y0294700D01*
X0141027Y0295126D01*
X0140240Y0295452D01*
X0139417Y0295673D01*
X0138572Y0295784D01*
X0138146Y0295784D01*
X0137720Y0295784D01*
X0136876Y0295673D01*
X0136052Y0295452D01*
X0135265Y0295126D01*
X0134527Y0294700D01*
X0133851Y0294182D01*
X0133249Y0293579D01*
X0133146Y0293446D01*
X0133044Y0293579D01*
X0132441Y0294182D01*
X0131765Y0294700D01*
X0131027Y0295126D01*
X0130240Y0295452D01*
X0129417Y0295673D01*
X0128572Y0295784D01*
X0128146Y0295784D01*
X0127720Y0295784D01*
X0126876Y0295673D01*
X0126052Y0295452D01*
X0125265Y0295126D01*
X0124527Y0294700D01*
X0123851Y0294182D01*
X0123249Y0293579D01*
X0123146Y0293446D01*
X0123044Y0293579D01*
X0122441Y0294182D01*
X0121765Y0294700D01*
X0121027Y0295126D01*
X0120240Y0295452D01*
X0119417Y0295673D01*
X0118572Y0295784D01*
X0118146Y0295784D01*
X0117720Y0295784D01*
X0116876Y0295673D01*
X0116052Y0295452D01*
X0115265Y0295126D01*
X0114527Y0294700D01*
X0113851Y0294182D01*
X0113249Y0293579D01*
X0113146Y0293446D01*
X0113044Y0293579D01*
X0112441Y0294182D01*
X0111765Y0294700D01*
X0111027Y0295126D01*
X0110240Y0295452D01*
X0109417Y0295673D01*
X0108572Y0295784D01*
X0108146Y0295784D01*
X0107720Y0295784D01*
X0106876Y0295673D01*
X0106052Y0295452D01*
X0105265Y0295126D01*
X0104527Y0294700D01*
X0103851Y0294182D01*
X0103249Y0293579D01*
X0103146Y0293446D01*
X0103044Y0293579D01*
X0102441Y0294182D01*
X0101765Y0294700D01*
X0101027Y0295126D01*
X0100240Y0295452D01*
X0099417Y0295673D01*
X0098572Y0295784D01*
X0098146Y0295784D01*
X0097720Y0295784D01*
X0096876Y0295673D01*
X0096052Y0295452D01*
X0095265Y0295126D01*
X0094527Y0294700D01*
X0093851Y0294182D01*
X0093249Y0293579D01*
X0093146Y0293446D01*
X0093044Y0293579D01*
X0092441Y0294182D01*
X0091765Y0294700D01*
X0091027Y0295126D01*
X0090240Y0295452D01*
X0089417Y0295673D01*
X0088572Y0295784D01*
X0088146Y0295784D01*
X0087720Y0295784D01*
X0086876Y0295673D01*
X0086052Y0295452D01*
X0085265Y0295126D01*
X0084527Y0294700D01*
X0083851Y0294182D01*
X0083249Y0293579D01*
X0083146Y0293446D01*
X0083044Y0293579D01*
X0082441Y0294182D01*
X0081765Y0294700D01*
X0081027Y0295126D01*
X0080240Y0295452D01*
X0079417Y0295673D01*
X0078572Y0295784D01*
X0078146Y0295784D01*
X0078146Y0289284D01*
X0078146Y0289284D01*
X0078146Y0289284D01*
X0088146Y0289284D01*
X0088146Y0289284D01*
X0088146Y0295784D01*
X0088146Y0289284D01*
X0088146Y0289284D01*
X0088146Y0289284D01*
X0098146Y0289284D01*
X0098146Y0289284D01*
X0098146Y0295784D01*
X0098146Y0289284D01*
X0098146Y0289284D01*
X0098146Y0289284D01*
X0108146Y0289284D01*
X0108146Y0289284D01*
X0108146Y0295784D01*
X0108146Y0289284D01*
X0108146Y0289284D01*
X0108146Y0289284D01*
X0118146Y0289284D01*
X0118146Y0289284D01*
X0118146Y0295784D01*
X0118146Y0289284D01*
X0118146Y0289284D01*
X0118146Y0289284D01*
X0128146Y0289284D01*
X0128146Y0289284D01*
X0128146Y0295784D01*
X0128146Y0289284D01*
X0128146Y0289284D01*
X0128146Y0289284D01*
X0138146Y0289284D01*
X0138146Y0289284D01*
X0138146Y0295784D01*
X0138146Y0289284D01*
X0138146Y0289284D01*
X0138146Y0289284D01*
X0148146Y0289284D01*
X0148146Y0289284D01*
X0148146Y0295784D01*
X0148146Y0289284D01*
X0148146Y0289284D01*
X0148146Y0289284D01*
X0158146Y0289284D01*
X0158146Y0289284D01*
X0158146Y0295784D01*
X0158146Y0289284D01*
X0158146Y0289284D01*
X0158146Y0289284D01*
X0168146Y0289284D01*
X0168146Y0289284D01*
X0168146Y0295784D01*
X0168146Y0289284D01*
X0168146Y0289284D01*
X0168146Y0289284D01*
X0178146Y0289284D01*
X0178146Y0289284D01*
X0178146Y0295784D01*
X0178146Y0289284D01*
X0178146Y0289284D01*
X0178146Y0289284D01*
X0188146Y0289284D01*
X0188146Y0289284D01*
X0188146Y0295784D01*
X0188146Y0289284D01*
X0188146Y0289284D01*
X0188146Y0289284D01*
X0194646Y0289284D01*
X0194364Y0291193D02*
X0227791Y0291193D01*
X0215055Y0295191D02*
X0190871Y0295191D01*
X0188146Y0295191D02*
X0188146Y0295191D01*
X0185422Y0295191D02*
X0180871Y0295191D01*
X0178146Y0295191D02*
X0178146Y0295191D01*
X0175422Y0295191D02*
X0170871Y0295191D01*
X0168146Y0295191D02*
X0168146Y0295191D01*
X0165422Y0295191D02*
X0160871Y0295191D01*
X0158146Y0295191D02*
X0158146Y0295191D01*
X0155422Y0295191D02*
X0150871Y0295191D01*
X0148146Y0295191D02*
X0148146Y0295191D01*
X0145422Y0295191D02*
X0140871Y0295191D01*
X0138146Y0295191D02*
X0138146Y0295191D01*
X0135422Y0295191D02*
X0130871Y0295191D01*
X0128146Y0295191D02*
X0128146Y0295191D01*
X0125422Y0295191D02*
X0120871Y0295191D01*
X0118146Y0295191D02*
X0118146Y0295191D01*
X0115422Y0295191D02*
X0110871Y0295191D01*
X0108146Y0295191D02*
X0108146Y0295191D01*
X0105422Y0295191D02*
X0100871Y0295191D01*
X0098146Y0295191D02*
X0098146Y0295191D01*
X0095422Y0295191D02*
X0090871Y0295191D01*
X0088146Y0295191D02*
X0088146Y0295191D01*
X0085422Y0295191D02*
X0080871Y0295191D01*
X0078146Y0295191D02*
X0078146Y0295191D01*
X0075422Y0295191D02*
X0069475Y0295191D01*
X0071900Y0291193D02*
X0071928Y0291193D01*
X0078146Y0291193D02*
X0078146Y0291193D01*
X0088146Y0291193D02*
X0088146Y0291193D01*
X0098146Y0291193D02*
X0098146Y0291193D01*
X0108146Y0291193D02*
X0108146Y0291193D01*
X0118146Y0291193D02*
X0118146Y0291193D01*
X0128146Y0291193D02*
X0128146Y0291193D01*
X0138146Y0291193D02*
X0138146Y0291193D01*
X0148146Y0291193D02*
X0148146Y0291193D01*
X0158146Y0291193D02*
X0158146Y0291193D01*
X0168146Y0291193D02*
X0168146Y0291193D01*
X0178146Y0291193D02*
X0178146Y0291193D01*
X0188146Y0291193D02*
X0188146Y0291193D01*
X0214548Y0283196D02*
X0252040Y0283196D01*
X0252040Y0279197D02*
X0246323Y0279197D01*
X0241070Y0279197D02*
X0241069Y0279197D01*
X0246644Y0275199D02*
X0252040Y0275199D01*
X0252040Y0271200D02*
X0246268Y0271200D01*
X0247810Y0267202D02*
X0252040Y0267202D01*
X0252040Y0263203D02*
X0247772Y0263203D01*
X0246977Y0259205D02*
X0252040Y0259205D01*
X0252040Y0255206D02*
X0248044Y0255206D01*
X0246892Y0251208D02*
X0252711Y0251208D01*
X0255894Y0247209D02*
X0248044Y0247209D01*
X0248044Y0243211D02*
X0259892Y0243211D01*
X0257460Y0240552D02*
X0257878Y0240134D01*
X0258206Y0239642D01*
X0258433Y0239096D01*
X0258548Y0238517D01*
X0258548Y0236056D01*
X0253580Y0236056D01*
X0253580Y0236056D01*
X0258548Y0236056D01*
X0258548Y0233595D01*
X0258433Y0233015D01*
X0258206Y0232470D01*
X0257878Y0231978D01*
X0257460Y0231560D01*
X0256969Y0231232D01*
X0256423Y0231006D01*
X0255843Y0230891D01*
X0253579Y0230891D01*
X0253579Y0236056D01*
X0253579Y0236056D01*
X0253579Y0236056D01*
X0253579Y0241221D01*
X0255843Y0241221D01*
X0256423Y0241106D01*
X0256969Y0240880D01*
X0257460Y0240552D01*
X0258385Y0239212D02*
X0263891Y0239212D01*
X0264770Y0235214D02*
X0258548Y0235214D01*
X0256928Y0231215D02*
X0264770Y0231215D01*
X0266170Y0227217D02*
X0253294Y0227217D01*
X0253101Y0223218D02*
X0266315Y0223218D01*
X0271138Y0223218D02*
X0271138Y0223218D01*
X0275961Y0223218D02*
X0300901Y0223218D01*
X0300901Y0227217D02*
X0276107Y0227217D01*
X0277507Y0231215D02*
X0304334Y0231215D01*
X0311018Y0231215D02*
X0359677Y0231215D01*
X0358235Y0235214D02*
X0277507Y0235214D01*
X0283357Y0239212D02*
X0291330Y0239212D01*
X0291371Y0239185D02*
X0291917Y0238959D01*
X0292497Y0238843D01*
X0302997Y0238843D01*
X0302997Y0250473D01*
X0289792Y0250473D01*
X0289792Y0241548D01*
X0289907Y0240968D01*
X0290133Y0240422D01*
X0290462Y0239931D01*
X0290880Y0239513D01*
X0291371Y0239185D01*
X0289792Y0243211D02*
X0284457Y0243211D01*
X0283594Y0247209D02*
X0289792Y0247209D01*
X0279069Y0251208D02*
X0302997Y0251208D01*
X0306997Y0251208D02*
X0324612Y0251208D01*
X0324140Y0255206D02*
X0320201Y0255206D01*
X0320201Y0259205D02*
X0324140Y0259205D01*
X0324140Y0263203D02*
X0320201Y0263203D01*
X0337271Y0255206D02*
X0339649Y0255206D01*
X0336799Y0251208D02*
X0343966Y0251208D01*
X0348283Y0247209D02*
X0336759Y0247209D01*
X0335359Y0243211D02*
X0352600Y0243211D01*
X0356917Y0239212D02*
X0333821Y0239212D01*
X0330784Y0239212D02*
X0330784Y0239212D01*
X0327747Y0239212D02*
X0318663Y0239212D01*
X0318622Y0239185D02*
X0319114Y0239513D01*
X0319532Y0239931D01*
X0319860Y0240422D01*
X0320086Y0240968D01*
X0320201Y0241548D01*
X0320201Y0250473D01*
X0306997Y0250473D01*
X0306997Y0238843D01*
X0317497Y0238843D01*
X0318077Y0238959D01*
X0318622Y0239185D01*
X0320201Y0243211D02*
X0326209Y0243211D01*
X0326209Y0243418D02*
X0328167Y0243418D01*
X0328167Y0243418D01*
X0326209Y0243418D01*
X0324809Y0247209D02*
X0320201Y0247209D01*
X0330784Y0243211D02*
X0330784Y0243211D01*
X0306997Y0243211D02*
X0302997Y0243211D01*
X0302997Y0247209D02*
X0306997Y0247209D01*
X0306997Y0239212D02*
X0302997Y0239212D01*
X0289792Y0255206D02*
X0281610Y0255206D01*
X0285608Y0259205D02*
X0289792Y0259205D01*
X0289792Y0263203D02*
X0289607Y0263203D01*
X0253579Y0239212D02*
X0253579Y0239212D01*
X0253579Y0235214D02*
X0253579Y0235214D01*
X0253579Y0231215D02*
X0253579Y0231215D01*
X0217710Y0259205D02*
X0185138Y0259205D01*
X0181157Y0255206D02*
X0181139Y0255206D01*
X0193238Y0263203D02*
X0217710Y0263203D01*
X0217710Y0267202D02*
X0213152Y0267202D01*
X0214554Y0271200D02*
X0217710Y0271200D01*
X0218754Y0275199D02*
X0214476Y0275199D01*
X0214909Y0279197D02*
X0222753Y0279197D01*
X0204006Y0267202D02*
X0195835Y0267202D01*
X0195904Y0271200D02*
X0198099Y0271200D01*
X0202674Y0269384D02*
X0202674Y0267426D01*
X0202674Y0269383D01*
X0202674Y0269384D01*
X0243068Y0291193D02*
X0245870Y0291193D01*
X0347025Y0287194D02*
X0413760Y0287194D01*
X0413760Y0291193D02*
X0388976Y0291193D01*
X0391201Y0295191D02*
X0402851Y0295191D01*
X0397939Y0299190D02*
X0391201Y0299190D01*
X0387809Y0303188D02*
X0396090Y0303188D01*
X0395650Y0307187D02*
X0381201Y0307187D01*
X0379812Y0311185D02*
X0396485Y0311185D01*
X0375801Y0295191D02*
X0371201Y0295191D01*
X0368976Y0291193D02*
X0378025Y0291193D01*
X0379124Y0276300D02*
X0373264Y0276300D01*
X0373264Y0267985D01*
X0373264Y0267985D01*
X0373264Y0259670D01*
X0379124Y0259670D01*
X0380205Y0259812D01*
X0381258Y0260094D01*
X0382265Y0260512D01*
X0383209Y0261057D01*
X0384074Y0261720D01*
X0384844Y0262491D01*
X0385508Y0263356D01*
X0386053Y0264300D01*
X0386470Y0265307D01*
X0386752Y0266359D01*
X0386894Y0267440D01*
X0386894Y0267985D01*
X0373265Y0267985D01*
X0386894Y0267985D01*
X0386894Y0268530D01*
X0386752Y0269611D01*
X0386470Y0270664D01*
X0386053Y0271671D01*
X0385508Y0272614D01*
X0384844Y0273479D01*
X0384074Y0274250D01*
X0383209Y0274913D01*
X0382265Y0275458D01*
X0381258Y0275876D01*
X0380205Y0276158D01*
X0379124Y0276300D01*
X0382715Y0275199D02*
X0413760Y0275199D01*
X0413760Y0271200D02*
X0386248Y0271200D01*
X0386863Y0267202D02*
X0413760Y0267202D01*
X0413760Y0263203D02*
X0385391Y0263203D01*
X0373264Y0263203D02*
X0373264Y0263203D01*
X0373264Y0267202D02*
X0373264Y0267202D01*
X0373265Y0267985D02*
X0373265Y0267985D01*
X0373264Y0271200D02*
X0373264Y0271200D01*
X0373264Y0275199D02*
X0373264Y0275199D01*
X0358025Y0291193D02*
X0349530Y0291193D01*
X0350276Y0295191D02*
X0355801Y0295191D01*
X0355801Y0299190D02*
X0349761Y0299190D01*
X0347842Y0303188D02*
X0359192Y0303188D01*
D31*
X0341257Y0197198D02*
X0321729Y0197198D01*
X0311886Y0187355D01*
X0311946Y0170767D01*
X0332123Y0157788D02*
X0332123Y0155111D01*
X0332123Y0157788D02*
X0336099Y0161765D01*
X0341453Y0161765D01*
X0345430Y0157788D01*
X0345430Y0150308D02*
X0340233Y0145111D01*
X0332123Y0145111D01*
X0332123Y0135111D02*
X0333383Y0133851D01*
X0345430Y0133851D01*
X0345430Y0126371D02*
X0333383Y0126371D01*
X0332123Y0125111D01*
X0332123Y0115111D02*
X0340627Y0115111D01*
X0345823Y0109914D01*
X0345823Y0102434D02*
X0334800Y0102434D01*
X0332123Y0105111D01*
X0166611Y0248221D02*
X0166611Y0253103D01*
X0172713Y0259206D01*
X0178068Y0259206D01*
X0188146Y0269284D01*
X0178146Y0269284D02*
X0170036Y0261174D01*
X0165823Y0261174D01*
X0156611Y0251961D01*
X0156611Y0248221D01*
X0146611Y0248221D02*
X0146611Y0254757D01*
X0150075Y0258221D01*
X0157083Y0258221D01*
X0168146Y0269284D01*
X0158146Y0269284D02*
X0150036Y0261174D01*
X0144170Y0261174D01*
X0136611Y0253615D01*
X0136611Y0248221D01*
X0128579Y0251961D02*
X0126611Y0248221D01*
X0126611Y0254442D01*
X0128422Y0256253D01*
X0130390Y0256253D01*
X0133343Y0259206D01*
X0138068Y0259206D01*
X0148146Y0269284D01*
X0138264Y0269166D02*
X0138264Y0266095D01*
X0134327Y0262158D01*
X0129406Y0262158D01*
X0126453Y0259206D01*
X0121532Y0259206D01*
X0116611Y0254284D01*
X0116611Y0248221D01*
X0106611Y0248221D02*
X0106611Y0254127D01*
X0112674Y0260190D01*
X0117595Y0260190D01*
X0121532Y0264127D01*
X0125469Y0264127D01*
X0128146Y0266804D01*
X0128146Y0269284D01*
X0118146Y0269284D02*
X0118146Y0265662D01*
X0116611Y0264127D01*
X0111690Y0264127D01*
X0106768Y0259206D01*
X0101847Y0259206D01*
X0096611Y0253969D01*
X0096611Y0248221D01*
X0086611Y0248221D02*
X0086611Y0254796D01*
X0091020Y0259206D01*
X0095942Y0259206D01*
X0100863Y0264127D01*
X0106768Y0264127D01*
X0108146Y0265505D01*
X0108146Y0269284D01*
X0098146Y0269284D02*
X0097910Y0269048D01*
X0097910Y0266095D01*
X0094957Y0263143D01*
X0090036Y0263143D01*
X0082162Y0255269D01*
X0078225Y0255269D01*
X0076611Y0253654D01*
X0076611Y0248221D01*
X0066611Y0248221D02*
X0066414Y0248418D01*
X0066414Y0257237D01*
X0071335Y0262158D01*
X0085115Y0262158D01*
X0088146Y0265190D01*
X0088146Y0269284D01*
X0138146Y0269284D02*
X0138264Y0269166D01*
X0188146Y0279284D02*
X0201847Y0279284D01*
X0208540Y0279284D02*
X0208540Y0272040D01*
X0208579Y0272001D01*
X0046060Y0201135D02*
X0038855Y0201135D01*
X0036138Y0198418D01*
X0036138Y0195898D01*
X0036138Y0189206D02*
X0036020Y0189087D01*
X0036020Y0182867D01*
X0036020Y0176961D02*
X0036020Y0170111D01*
X0036060Y0170072D01*
D32*
X0066560Y0188272D02*
X0066611Y0188221D01*
X0066560Y0188272D02*
X0066560Y0194160D01*
X0060920Y0199800D01*
X0060920Y0258360D01*
X0064640Y0262080D01*
X0066800Y0262080D01*
X0073940Y0269220D01*
X0075500Y0269220D01*
X0075564Y0269284D01*
X0078146Y0269284D01*
X0076611Y0248221D02*
X0076611Y0218497D01*
X0086099Y0209009D01*
X0211099Y0209009D01*
X0224879Y0195229D01*
X0224879Y0077119D01*
X0258894Y0043103D01*
X0283934Y0043103D01*
X0283934Y0033103D02*
X0260036Y0033103D01*
X0221926Y0071213D01*
X0221926Y0193261D01*
X0209131Y0206056D01*
X0074288Y0206056D01*
X0066611Y0213733D01*
X0066611Y0248221D01*
X0086611Y0248221D02*
X0086611Y0222276D01*
X0096926Y0211961D01*
X0213068Y0211961D01*
X0227831Y0197198D01*
X0227831Y0084009D01*
X0258737Y0053103D01*
X0283934Y0053103D01*
X0283934Y0063103D02*
X0258973Y0063103D01*
X0231768Y0090308D01*
X0231768Y0198182D01*
X0215036Y0214914D01*
X0109721Y0214914D01*
X0096611Y0228024D01*
X0096611Y0248221D01*
X0106611Y0248221D02*
X0106611Y0229835D01*
X0118579Y0217867D01*
X0217005Y0217867D01*
X0235705Y0199166D01*
X0235705Y0093851D01*
X0256453Y0073103D01*
X0283934Y0073103D01*
X0283934Y0083103D02*
X0255312Y0083103D01*
X0238658Y0099757D01*
X0238658Y0200150D01*
X0217989Y0220820D01*
X0127438Y0220820D01*
X0116611Y0231646D01*
X0116611Y0248221D01*
X0126611Y0248221D02*
X0126611Y0233457D01*
X0136296Y0223772D01*
X0136335Y0223772D01*
X0136572Y0223536D01*
X0219209Y0223536D01*
X0241611Y0201135D01*
X0241611Y0105662D01*
X0254170Y0093103D01*
X0283934Y0093103D01*
X0283934Y0103103D02*
X0254012Y0103103D01*
X0244564Y0112552D01*
X0244564Y0202119D01*
X0219957Y0226725D01*
X0141217Y0226725D01*
X0136611Y0231331D01*
X0136611Y0248221D01*
X0146611Y0248221D02*
X0146611Y0236095D01*
X0153028Y0229678D01*
X0220942Y0229678D01*
X0247516Y0203103D01*
X0247516Y0120426D01*
X0254839Y0113103D01*
X0283934Y0113103D01*
X0283934Y0123103D02*
X0256650Y0123103D01*
X0250469Y0129284D01*
X0250469Y0204087D01*
X0221926Y0232631D01*
X0164839Y0232631D01*
X0156611Y0240859D01*
X0156611Y0248221D01*
X0166611Y0248221D02*
X0166611Y0242670D01*
X0173698Y0235583D01*
X0222910Y0235583D01*
X0253422Y0205072D01*
X0253422Y0139127D01*
X0259446Y0133103D01*
X0283934Y0133103D01*
X0320351Y0126331D02*
X0320351Y0114520D01*
X0324918Y0109954D01*
X0338698Y0109954D01*
X0342477Y0106174D01*
X0345823Y0106174D01*
X0324780Y0130761D02*
X0320351Y0126331D01*
X0324780Y0130761D02*
X0325272Y0130269D01*
X0345272Y0130269D01*
X0345430Y0130111D01*
X0324780Y0130761D02*
X0322320Y0133221D01*
X0322320Y0147985D01*
X0324288Y0149954D01*
X0337083Y0149954D01*
X0341178Y0154048D01*
X0345430Y0154048D01*
X0246926Y0226725D02*
X0246926Y0236017D01*
X0246886Y0236056D01*
X0245469Y0236056D01*
X0240115Y0241410D01*
X0240115Y0245219D01*
X0241070Y0245249D01*
X0223894Y0238536D02*
X0235705Y0226725D01*
X0240233Y0226725D01*
X0223894Y0238536D02*
X0202241Y0238536D01*
X0196611Y0244166D01*
X0196611Y0248221D01*
X0206611Y0248221D02*
X0208737Y0250347D01*
X0217005Y0250347D01*
X0222910Y0256253D01*
X0222910Y0272001D01*
X0226158Y0275249D01*
X0231070Y0275249D01*
X0232083Y0297158D02*
X0232044Y0297198D01*
X0225509Y0297198D01*
X0238776Y0297158D02*
X0240194Y0297158D01*
X0246532Y0303497D01*
X0245163Y0303497D01*
X0244130Y0304530D01*
X0272180Y0243497D02*
X0271138Y0242456D01*
X0271138Y0233024D01*
X0217989Y0192276D02*
X0217989Y0066292D01*
X0261178Y0023103D01*
X0283934Y0023103D01*
X0106305Y0091710D02*
X0106305Y0130072D01*
X0094460Y0120060D02*
X0094460Y0092520D01*
X0088168Y0086229D01*
X0079288Y0086229D01*
X0079209Y0086307D01*
X0079209Y0076307D02*
X0090902Y0076307D01*
X0106305Y0091710D01*
X0046138Y0086056D02*
X0046060Y0086135D01*
X0035902Y0086135D01*
X0066560Y0194160D02*
X0074519Y0202119D01*
X0208146Y0202119D01*
X0217989Y0192276D01*
X0330705Y0249402D02*
X0330784Y0249324D01*
X0330705Y0249402D02*
X0330705Y0255190D01*
X0330705Y0261883D02*
X0330705Y0271528D01*
X0331178Y0272001D01*
X0334161Y0272001D01*
X0334733Y0272573D01*
D33*
X0373264Y0236883D02*
X0360860Y0224478D01*
X0307676Y0224478D01*
X0305254Y0170767D02*
X0297773Y0170767D01*
X0355666Y0157788D02*
X0355745Y0157788D01*
X0357753Y0159796D01*
X0379249Y0159796D01*
X0379327Y0159717D01*
X0368579Y0153891D02*
X0368422Y0154048D01*
X0355666Y0154048D01*
X0355666Y0150308D02*
X0355666Y0150072D01*
X0357753Y0147985D01*
X0379249Y0147985D01*
X0379327Y0147906D01*
X0379249Y0136174D02*
X0379327Y0136095D01*
X0379249Y0136174D02*
X0357753Y0136174D01*
X0355666Y0134087D01*
X0355666Y0133851D01*
X0355666Y0130111D02*
X0368422Y0130111D01*
X0368579Y0130269D01*
X0379249Y0124363D02*
X0357753Y0124363D01*
X0355745Y0126371D01*
X0355666Y0126371D01*
X0359721Y0112552D02*
X0379249Y0112552D01*
X0379327Y0112473D01*
X0368422Y0106174D02*
X0356060Y0106174D01*
X0356060Y0102434D02*
X0357044Y0102434D01*
X0358737Y0100741D01*
X0379249Y0100741D01*
X0379327Y0100662D01*
X0359721Y0112552D02*
X0357083Y0109914D01*
X0356060Y0109914D01*
X0379249Y0124363D02*
X0379327Y0124284D01*
X0355666Y0157788D02*
X0355705Y0157828D01*
X0334131Y0083103D02*
X0321611Y0083103D01*
X0321414Y0082906D01*
X0321611Y0073103D02*
X0321414Y0072906D01*
X0321611Y0073103D02*
X0334131Y0073103D01*
X0334131Y0063103D02*
X0321611Y0063103D01*
X0321414Y0062906D01*
X0321611Y0053103D02*
X0321414Y0052906D01*
X0321611Y0053103D02*
X0334131Y0053103D01*
X0334131Y0043103D02*
X0321611Y0043103D01*
X0321414Y0042906D01*
X0321611Y0033103D02*
X0321414Y0032906D01*
X0321611Y0033103D02*
X0334131Y0033103D01*
X0334131Y0023103D02*
X0321611Y0023103D01*
X0321414Y0022906D01*
X0364131Y0013103D02*
X0388225Y0013103D01*
X0389249Y0014127D01*
X0389249Y0022709D01*
X0389131Y0022828D01*
X0070351Y0099757D02*
X0056650Y0086056D01*
X0046138Y0086056D01*
X0046138Y0076056D01*
X0046138Y0062552D01*
X0046138Y0052552D01*
X0046138Y0042552D01*
X0046138Y0032552D01*
X0046138Y0022552D01*
X0046138Y0012552D01*
X0070351Y0099757D02*
X0070351Y0171607D01*
X0055627Y0186331D01*
X0055627Y0289166D01*
D34*
X0106305Y0130072D03*
X0094460Y0120060D03*
X0307676Y0224478D03*
X0368579Y0153891D03*
X0368579Y0130269D03*
X0368422Y0106174D03*
D35*
X0410902Y0081056D02*
X0410902Y0072198D01*
X0410902Y0063339D01*
X0410902Y0051528D01*
X0410902Y0042670D01*
X0410902Y0039717D01*
X0402536Y0031351D01*
X0394170Y0022985D01*
X0389288Y0022985D01*
X0389131Y0022828D01*
X0410902Y0081056D02*
X0410902Y0164717D01*
X0400075Y0175544D01*
X0365627Y0175544D01*
X0355784Y0185387D01*
X0355784Y0191292D01*
X0349879Y0197198D01*
X0341257Y0197198D01*
X0276257Y0243497D02*
X0272180Y0243497D01*
X0271203Y0243497D01*
X0260240Y0254460D01*
X0260240Y0288420D01*
X0244130Y0304530D01*
X0242210Y0306450D01*
X0059524Y0306450D01*
X0051650Y0298576D01*
X0051650Y0295623D01*
X0276257Y0261450D02*
X0288776Y0273969D01*
X0302635Y0273969D01*
X0290981Y0285623D01*
X0278776Y0285623D01*
D36*
X0276453Y0261646D02*
X0276257Y0261450D01*
X0064091Y0289402D02*
X0063855Y0289166D01*
X0055627Y0289166D01*
X0051650Y0293143D01*
X0051650Y0293654D01*
X0047320Y0289324D01*
X0036217Y0289324D01*
X0036217Y0279324D02*
X0039997Y0279324D01*
X0046060Y0273261D01*
X0046060Y0201135D01*
X0046060Y0170072D01*
X0051650Y0293654D02*
X0051650Y0295623D01*
X0389131Y0082828D02*
X0409131Y0082828D01*
X0410902Y0081056D01*
X0410272Y0072828D02*
X0410902Y0072198D01*
X0410272Y0072828D02*
X0389131Y0072828D01*
X0389131Y0062828D02*
X0410390Y0062828D01*
X0410902Y0063339D01*
X0409603Y0052828D02*
X0410902Y0051528D01*
X0409603Y0052828D02*
X0389131Y0052828D01*
X0389131Y0042828D02*
X0410745Y0042828D01*
X0410902Y0042670D01*
X0401060Y0032828D02*
X0402536Y0031351D01*
X0401060Y0032828D02*
X0389131Y0032828D01*
D37*
X0373264Y0236883D02*
X0334733Y0272573D01*
X0333225Y0273969D01*
X0302635Y0273969D01*
D38*
X0188146Y0279284D02*
X0178146Y0279284D01*
X0168146Y0279284D01*
X0158146Y0279284D01*
X0148146Y0279284D01*
X0138146Y0279284D01*
X0128146Y0279284D01*
X0118146Y0279284D01*
X0108146Y0279284D01*
X0098146Y0279284D01*
X0088146Y0279284D01*
X0078146Y0279284D01*
X0078028Y0279402D01*
X0064091Y0279402D01*
D39*
X0046060Y0170072D02*
X0046060Y0160072D01*
X0046060Y0150072D01*
X0046060Y0140072D01*
X0046060Y0130072D01*
X0046060Y0120072D01*
X0046060Y0110072D01*
X0046060Y0100072D01*
M02*
