G75*
%MOIN*%
%OFA0B0*%
%FSLAX25Y25*%
%IPPOS*%
%LPD*%
%AMOC8*
5,1,8,0,0,1.08239X$1,22.5*
%
%ADD10C,0.00400*%
%ADD11C,0.00600*%
%ADD12C,0.00500*%
D10*
X0119785Y0033554D02*
X0119785Y0036156D01*
X0120653Y0037023D01*
X0121520Y0036156D01*
X0121520Y0033554D01*
X0123255Y0033554D02*
X0123255Y0037023D01*
X0122387Y0037023D01*
X0121520Y0036156D01*
X0124958Y0033554D02*
X0126692Y0033554D01*
X0125825Y0033554D02*
X0125825Y0037023D01*
X0126692Y0037023D01*
X0125825Y0038758D02*
X0125825Y0039625D01*
X0131849Y0038758D02*
X0131849Y0033554D01*
X0128379Y0033554D01*
X0138692Y0033554D02*
X0138692Y0036156D01*
X0139559Y0037023D01*
X0142162Y0037023D01*
X0142162Y0033554D01*
X0143848Y0033554D02*
X0143848Y0036156D01*
X0144716Y0037023D01*
X0146451Y0037023D01*
X0147318Y0036156D01*
X0149005Y0036156D02*
X0149872Y0037023D01*
X0151607Y0037023D01*
X0152474Y0036156D01*
X0152474Y0034421D01*
X0151607Y0033554D01*
X0149872Y0033554D01*
X0149005Y0034421D01*
X0149005Y0036156D01*
X0147318Y0038758D02*
X0147318Y0033554D01*
X0155029Y0034421D02*
X0155029Y0038758D01*
X0155896Y0038758D02*
X0154161Y0038758D01*
X0155029Y0034421D02*
X0155896Y0033554D01*
X0156763Y0033554D01*
X0157631Y0034421D01*
X0164474Y0033554D02*
X0167076Y0033554D01*
X0167944Y0034421D01*
X0167944Y0037023D01*
X0169630Y0036156D02*
X0170498Y0037023D01*
X0173100Y0037023D01*
X0173100Y0038758D02*
X0173100Y0033554D01*
X0170498Y0033554D01*
X0169630Y0034421D01*
X0169630Y0036156D01*
X0164474Y0037023D02*
X0164474Y0032686D01*
X0165341Y0031819D01*
X0166209Y0031819D01*
X0179943Y0033554D02*
X0182545Y0033554D01*
X0183413Y0034421D01*
X0183413Y0036156D01*
X0182545Y0037023D01*
X0179943Y0037023D01*
X0179943Y0038758D02*
X0179943Y0033554D01*
X0185100Y0035288D02*
X0188569Y0035288D01*
X0188569Y0034421D02*
X0188569Y0036156D01*
X0187702Y0037023D01*
X0185967Y0037023D01*
X0185100Y0036156D01*
X0185100Y0035288D01*
X0185967Y0033554D02*
X0187702Y0033554D01*
X0188569Y0034421D01*
X0190256Y0033554D02*
X0190256Y0036156D01*
X0191123Y0037023D01*
X0193726Y0037023D01*
X0193726Y0033554D01*
X0195412Y0033554D02*
X0198015Y0033554D01*
X0198882Y0034421D01*
X0198882Y0036156D01*
X0198015Y0037023D01*
X0195412Y0037023D01*
X0195412Y0032686D01*
X0196280Y0031819D01*
X0197147Y0031819D01*
X0198850Y0030358D02*
X0198850Y0029491D01*
X0202320Y0026021D01*
X0202320Y0025154D01*
X0204006Y0025154D02*
X0207476Y0025154D01*
X0205741Y0025154D02*
X0205741Y0030358D01*
X0207476Y0028623D01*
X0209163Y0029491D02*
X0212632Y0026021D01*
X0211765Y0025154D01*
X0210030Y0025154D01*
X0209163Y0026021D01*
X0209163Y0029491D01*
X0210030Y0030358D01*
X0211765Y0030358D01*
X0212632Y0029491D01*
X0212632Y0026021D01*
X0214319Y0025154D02*
X0217789Y0025154D01*
X0214319Y0028623D01*
X0214319Y0029491D01*
X0215187Y0030358D01*
X0216921Y0030358D01*
X0217789Y0029491D01*
X0217789Y0033554D02*
X0215187Y0033554D01*
X0214319Y0034421D01*
X0214319Y0037891D01*
X0215187Y0038758D01*
X0217789Y0038758D01*
X0217789Y0033554D01*
X0212632Y0034421D02*
X0212632Y0036156D01*
X0211765Y0037023D01*
X0210030Y0037023D01*
X0209163Y0036156D01*
X0209163Y0035288D01*
X0212632Y0035288D01*
X0212632Y0034421D02*
X0211765Y0033554D01*
X0210030Y0033554D01*
X0207476Y0033554D02*
X0204874Y0033554D01*
X0204006Y0034421D01*
X0204874Y0035288D01*
X0206609Y0035288D01*
X0207476Y0036156D01*
X0206609Y0037023D01*
X0204006Y0037023D01*
X0202320Y0037023D02*
X0201452Y0037023D01*
X0201452Y0033554D01*
X0200585Y0033554D02*
X0202320Y0033554D01*
X0202320Y0030358D02*
X0198850Y0030358D01*
X0201452Y0038758D02*
X0201452Y0039625D01*
X0201297Y0045732D02*
X0200429Y0046600D01*
X0201297Y0047467D01*
X0203032Y0047467D01*
X0203899Y0048334D01*
X0203032Y0049202D01*
X0200429Y0049202D01*
X0198743Y0049202D02*
X0197875Y0049202D01*
X0197875Y0045732D01*
X0197008Y0045732D02*
X0198743Y0045732D01*
X0201297Y0045732D02*
X0203899Y0045732D01*
X0205594Y0049202D02*
X0206461Y0049202D01*
X0208196Y0047467D01*
X0209883Y0047467D02*
X0213352Y0047467D01*
X0213352Y0048334D02*
X0212485Y0049202D01*
X0210750Y0049202D01*
X0209883Y0048334D01*
X0209883Y0047467D01*
X0210750Y0045732D02*
X0212485Y0045732D01*
X0213352Y0046600D01*
X0213352Y0048334D01*
X0215039Y0047467D02*
X0215039Y0050937D01*
X0218509Y0050937D02*
X0218509Y0047467D01*
X0216774Y0045732D01*
X0215039Y0047467D01*
X0213352Y0054132D02*
X0213352Y0059337D01*
X0209883Y0059337D01*
X0208196Y0058469D02*
X0208196Y0055000D01*
X0207329Y0054132D01*
X0205594Y0054132D01*
X0204726Y0055000D01*
X0204726Y0058469D02*
X0205594Y0059337D01*
X0207329Y0059337D01*
X0208196Y0058469D01*
X0211618Y0056734D02*
X0213352Y0056734D01*
X0215039Y0056734D02*
X0215907Y0055867D01*
X0218509Y0055867D01*
X0218509Y0054132D02*
X0218509Y0059337D01*
X0215907Y0059337D01*
X0215039Y0058469D01*
X0215039Y0056734D01*
X0215039Y0062532D02*
X0218509Y0062532D01*
X0218509Y0067737D01*
X0213352Y0066002D02*
X0212485Y0066002D01*
X0212485Y0062532D01*
X0213352Y0062532D02*
X0211618Y0062532D01*
X0209047Y0062532D02*
X0209047Y0066869D01*
X0208180Y0067737D01*
X0208180Y0065134D02*
X0209915Y0065134D01*
X0206477Y0065134D02*
X0205610Y0066002D01*
X0203875Y0066002D01*
X0203008Y0065134D01*
X0203008Y0064267D01*
X0206477Y0064267D01*
X0206477Y0063400D02*
X0206477Y0065134D01*
X0206477Y0063400D02*
X0205610Y0062532D01*
X0203875Y0062532D01*
X0197883Y0059337D02*
X0195281Y0059337D01*
X0194414Y0058469D01*
X0194414Y0057602D01*
X0195281Y0056734D01*
X0197883Y0056734D01*
X0197883Y0054132D02*
X0195281Y0054132D01*
X0194414Y0055000D01*
X0194414Y0055867D01*
X0195281Y0056734D01*
X0192727Y0055867D02*
X0190992Y0057602D01*
X0190125Y0057602D01*
X0188430Y0056734D02*
X0188430Y0055000D01*
X0187562Y0054132D01*
X0185828Y0054132D01*
X0184960Y0055867D02*
X0188430Y0055867D01*
X0188430Y0056734D02*
X0187562Y0057602D01*
X0185828Y0057602D01*
X0184960Y0056734D01*
X0184960Y0055867D01*
X0183273Y0055000D02*
X0182406Y0055867D01*
X0179804Y0055867D01*
X0179804Y0056734D02*
X0179804Y0054132D01*
X0182406Y0054132D01*
X0183273Y0055000D01*
X0182406Y0057602D02*
X0180671Y0057602D01*
X0179804Y0056734D01*
X0178117Y0055867D02*
X0175515Y0054132D01*
X0173820Y0055000D02*
X0173820Y0056734D01*
X0172953Y0057602D01*
X0171218Y0057602D01*
X0170350Y0056734D01*
X0170350Y0055000D01*
X0171218Y0054132D01*
X0172953Y0054132D01*
X0173820Y0055000D01*
X0175515Y0057602D02*
X0178117Y0055867D01*
X0178117Y0054132D02*
X0178117Y0059337D01*
X0178944Y0062532D02*
X0178944Y0065134D01*
X0179812Y0066002D01*
X0182414Y0066002D01*
X0182414Y0062532D01*
X0184101Y0062532D02*
X0186703Y0062532D01*
X0187570Y0063400D01*
X0186703Y0064267D01*
X0184101Y0064267D01*
X0184101Y0065134D02*
X0184101Y0062532D01*
X0184101Y0065134D02*
X0184968Y0066002D01*
X0186703Y0066002D01*
X0190141Y0067737D02*
X0190141Y0062532D01*
X0191008Y0062532D02*
X0189273Y0062532D01*
X0192695Y0065134D02*
X0193562Y0064267D01*
X0196164Y0064267D01*
X0196164Y0062532D02*
X0196164Y0067737D01*
X0193562Y0067737D01*
X0192695Y0066869D01*
X0192695Y0065134D01*
X0191008Y0067737D02*
X0190141Y0067737D01*
X0197883Y0059337D02*
X0197883Y0054132D01*
X0197875Y0051804D02*
X0197875Y0050937D01*
X0195305Y0048334D02*
X0195305Y0046600D01*
X0194438Y0045732D01*
X0192703Y0045732D01*
X0191835Y0046600D01*
X0191835Y0048334D01*
X0192703Y0049202D01*
X0194438Y0049202D01*
X0195305Y0048334D01*
X0190149Y0049202D02*
X0187546Y0049202D01*
X0186679Y0048334D01*
X0186679Y0045732D01*
X0190149Y0045732D02*
X0190149Y0049202D01*
X0192727Y0054132D02*
X0192727Y0057602D01*
X0179836Y0049202D02*
X0178101Y0050937D01*
X0178101Y0045732D01*
X0179836Y0045732D02*
X0176366Y0045732D01*
X0174679Y0045732D02*
X0173812Y0045732D01*
X0173812Y0046600D01*
X0174679Y0046600D01*
X0174679Y0045732D01*
X0172101Y0046600D02*
X0168632Y0050069D01*
X0168632Y0046600D01*
X0169499Y0045732D01*
X0171234Y0045732D01*
X0172101Y0046600D01*
X0172101Y0050069D01*
X0171234Y0050937D01*
X0169499Y0050937D01*
X0168632Y0050069D01*
X0167796Y0054132D02*
X0165194Y0054132D01*
X0165194Y0057602D01*
X0163507Y0057602D02*
X0161772Y0057602D01*
X0162640Y0058469D02*
X0162640Y0055000D01*
X0161772Y0054132D01*
X0167796Y0054132D02*
X0168664Y0055000D01*
X0168664Y0057602D01*
X0168664Y0062532D02*
X0168664Y0066002D01*
X0168664Y0064267D02*
X0166929Y0066002D01*
X0166061Y0066002D01*
X0164367Y0065134D02*
X0163499Y0066002D01*
X0160897Y0066002D01*
X0161764Y0064267D02*
X0163499Y0064267D01*
X0164367Y0065134D01*
X0164367Y0062532D02*
X0161764Y0062532D01*
X0160897Y0063400D01*
X0161764Y0064267D01*
X0154913Y0059337D02*
X0152311Y0059337D01*
X0151444Y0058469D01*
X0151444Y0057602D01*
X0152311Y0056734D01*
X0154913Y0056734D01*
X0154913Y0054132D02*
X0152311Y0054132D01*
X0151444Y0055000D01*
X0151444Y0055867D01*
X0152311Y0056734D01*
X0149757Y0056734D02*
X0149757Y0055000D01*
X0148889Y0054132D01*
X0147155Y0054132D01*
X0146287Y0055000D01*
X0146287Y0056734D01*
X0147155Y0057602D01*
X0148889Y0057602D01*
X0149757Y0056734D01*
X0144600Y0055000D02*
X0143733Y0055867D01*
X0141131Y0055867D01*
X0141131Y0056734D02*
X0141131Y0054132D01*
X0143733Y0054132D01*
X0144600Y0055000D01*
X0143733Y0057602D02*
X0141998Y0057602D01*
X0141131Y0056734D01*
X0139444Y0055867D02*
X0137709Y0057602D01*
X0136842Y0057602D01*
X0135147Y0056734D02*
X0134280Y0057602D01*
X0131677Y0057602D01*
X0131677Y0059337D02*
X0131677Y0054132D01*
X0134280Y0054132D01*
X0135147Y0055000D01*
X0135147Y0056734D01*
X0139444Y0057602D02*
X0139444Y0054132D01*
X0154913Y0054132D02*
X0154913Y0059337D01*
X0170350Y0064267D02*
X0173820Y0064267D01*
X0173820Y0065134D02*
X0172953Y0066002D01*
X0171218Y0066002D01*
X0170350Y0065134D01*
X0170350Y0064267D01*
X0171218Y0062532D02*
X0172953Y0062532D01*
X0173820Y0063400D01*
X0173820Y0065134D01*
X0175523Y0066002D02*
X0177258Y0066002D01*
X0176390Y0066869D02*
X0176390Y0063400D01*
X0175523Y0062532D01*
X0208196Y0049202D02*
X0208196Y0045732D01*
X0212485Y0067737D02*
X0212485Y0068604D01*
D11*
X0316414Y0068906D02*
X0317414Y0067906D01*
X0316414Y0066906D01*
X0325414Y0067906D02*
X0326414Y0066906D01*
X0325414Y0067906D02*
X0326414Y0068906D01*
X0326414Y0076906D02*
X0325414Y0077906D01*
X0326414Y0078906D01*
X0317414Y0077906D02*
X0316414Y0078906D01*
X0317414Y0077906D02*
X0316414Y0076906D01*
X0316414Y0087906D02*
X0326414Y0087906D01*
X0326414Y0058906D02*
X0325414Y0057906D01*
X0326414Y0056906D01*
X0326414Y0048906D02*
X0325414Y0047906D01*
X0326414Y0046906D01*
X0326414Y0038906D02*
X0325414Y0037906D01*
X0326414Y0036906D01*
X0326414Y0028906D02*
X0325414Y0027906D01*
X0326414Y0026906D01*
X0326414Y0017906D02*
X0316414Y0017906D01*
X0316414Y0026906D02*
X0317414Y0027906D01*
X0316414Y0028906D01*
X0316414Y0036906D02*
X0317414Y0037906D01*
X0316414Y0038906D01*
X0316414Y0046906D02*
X0317414Y0047906D01*
X0316414Y0048906D01*
X0316414Y0056906D02*
X0317414Y0057906D01*
X0316414Y0058906D01*
X0374131Y0060328D02*
X0376631Y0057828D01*
X0374131Y0055328D01*
X0374131Y0050328D01*
X0376631Y0047828D01*
X0374131Y0045328D01*
X0374131Y0040328D01*
X0376631Y0037828D01*
X0374131Y0035328D01*
X0374131Y0030328D01*
X0376631Y0027828D01*
X0374131Y0025328D01*
X0374131Y0020328D01*
X0376631Y0017828D01*
X0391631Y0017828D01*
X0394131Y0020328D01*
X0394131Y0025328D01*
X0391631Y0027828D01*
X0394131Y0030328D01*
X0394131Y0035328D01*
X0391631Y0037828D01*
X0394131Y0040328D01*
X0394131Y0045328D01*
X0391631Y0047828D01*
X0394131Y0050328D01*
X0394131Y0055328D01*
X0391631Y0057828D01*
X0394131Y0060328D01*
X0394131Y0065328D01*
X0391631Y0067828D01*
X0394131Y0070328D01*
X0394131Y0075328D01*
X0391631Y0077828D01*
X0394131Y0080328D01*
X0394131Y0085328D01*
X0391631Y0087828D01*
X0376631Y0087828D01*
X0374131Y0085328D01*
X0374131Y0080328D01*
X0376631Y0077828D01*
X0374131Y0075328D01*
X0374131Y0070328D01*
X0376631Y0067828D01*
X0374131Y0065328D01*
X0374131Y0060328D01*
D12*
X0332168Y0081156D02*
X0332168Y0084159D01*
X0331417Y0084159D01*
X0328415Y0081156D01*
X0327664Y0081156D01*
X0327664Y0024159D02*
X0327664Y0021156D01*
X0327664Y0022658D02*
X0332168Y0022658D01*
X0330667Y0021156D01*
M02*
