G75*
%MOIN*%
%OFA0B0*%
%FSLAX25Y25*%
%IPPOS*%
%LPD*%
%AMOC8*
5,1,8,0,0,1.08239X$1,22.5*
%
%ADD10C,0.03200*%
%ADD11C,0.00400*%
D10*
X0092065Y0147555D02*
X0092065Y0147690D01*
D11*
X0029421Y0061167D02*
X0029421Y0058565D01*
X0034625Y0058565D01*
X0034625Y0061167D01*
X0033758Y0062035D01*
X0030288Y0062035D01*
X0029421Y0061167D01*
X0032023Y0063721D02*
X0031155Y0064589D01*
X0031155Y0066324D01*
X0032023Y0067191D01*
X0032890Y0067191D01*
X0032890Y0063721D01*
X0032023Y0063721D02*
X0033758Y0063721D01*
X0034625Y0064589D01*
X0034625Y0066324D01*
X0034625Y0068878D02*
X0034625Y0071480D01*
X0033758Y0072347D01*
X0032890Y0071480D01*
X0032890Y0069745D01*
X0032023Y0068878D01*
X0031155Y0069745D01*
X0031155Y0072347D01*
X0031155Y0074034D02*
X0031155Y0074902D01*
X0034625Y0074902D01*
X0034625Y0075769D02*
X0034625Y0074034D01*
X0033758Y0077472D02*
X0034625Y0078339D01*
X0034625Y0080941D01*
X0035492Y0080941D02*
X0031155Y0080941D01*
X0031155Y0078339D01*
X0032023Y0077472D01*
X0033758Y0077472D01*
X0036360Y0079207D02*
X0036360Y0080074D01*
X0035492Y0080941D01*
X0034625Y0082628D02*
X0031155Y0082628D01*
X0031155Y0085230D01*
X0032023Y0086098D01*
X0034625Y0086098D01*
X0033758Y0087785D02*
X0034625Y0088652D01*
X0034625Y0090387D01*
X0033758Y0092941D02*
X0032023Y0092941D01*
X0031155Y0093808D01*
X0031155Y0096411D01*
X0029421Y0096411D02*
X0034625Y0096411D01*
X0034625Y0093808D01*
X0033758Y0092941D01*
X0032890Y0091254D02*
X0032890Y0087785D01*
X0032023Y0087785D02*
X0031155Y0088652D01*
X0031155Y0090387D01*
X0032023Y0091254D01*
X0032890Y0091254D01*
X0033758Y0087785D02*
X0032023Y0087785D01*
X0029421Y0074902D02*
X0028553Y0074902D01*
X0024365Y0075912D02*
X0024365Y0073310D01*
X0022630Y0074177D02*
X0021763Y0073310D01*
X0020895Y0074177D01*
X0020895Y0076779D01*
X0020895Y0078466D02*
X0020895Y0079334D01*
X0024365Y0079334D01*
X0024365Y0080201D02*
X0024365Y0078466D01*
X0023498Y0076779D02*
X0022630Y0075912D01*
X0022630Y0074177D01*
X0024365Y0075912D02*
X0023498Y0076779D01*
X0023498Y0081904D02*
X0021763Y0081904D01*
X0020895Y0082771D01*
X0020895Y0084506D01*
X0021763Y0085373D01*
X0023498Y0085373D01*
X0024365Y0084506D01*
X0024365Y0082771D01*
X0023498Y0081904D01*
X0024365Y0087060D02*
X0020895Y0087060D01*
X0020895Y0089662D01*
X0021763Y0090530D01*
X0024365Y0090530D01*
X0024365Y0097373D02*
X0024365Y0100843D01*
X0024365Y0102529D02*
X0024365Y0103397D01*
X0023498Y0103397D01*
X0023498Y0102529D01*
X0024365Y0102529D01*
X0024365Y0099108D02*
X0019161Y0099108D01*
X0020895Y0097373D01*
X0020028Y0105108D02*
X0019161Y0105975D01*
X0019161Y0107710D01*
X0020028Y0108577D01*
X0023498Y0105108D01*
X0024365Y0105975D01*
X0024365Y0107710D01*
X0023498Y0108577D01*
X0020028Y0108577D01*
X0020028Y0105108D02*
X0023498Y0105108D01*
X0029421Y0103254D02*
X0034625Y0103254D01*
X0034625Y0105856D01*
X0033758Y0106723D01*
X0032023Y0106723D01*
X0031155Y0105856D01*
X0031155Y0103254D01*
X0031155Y0108410D02*
X0033758Y0108410D01*
X0034625Y0109278D01*
X0034625Y0111880D01*
X0035492Y0111880D02*
X0036360Y0111012D01*
X0036360Y0110145D01*
X0035492Y0111880D02*
X0031155Y0111880D01*
X0033758Y0118723D02*
X0034625Y0119590D01*
X0034625Y0120458D01*
X0033758Y0121325D01*
X0029421Y0121325D01*
X0029421Y0120458D02*
X0029421Y0122193D01*
X0031155Y0124747D02*
X0031155Y0126482D01*
X0032023Y0127349D01*
X0033758Y0127349D01*
X0034625Y0126482D01*
X0034625Y0124747D01*
X0033758Y0123879D01*
X0032023Y0123879D01*
X0031155Y0124747D01*
X0032023Y0129036D02*
X0031155Y0129903D01*
X0031155Y0131638D01*
X0032023Y0132505D01*
X0034625Y0132505D01*
X0034625Y0134192D02*
X0031155Y0134192D01*
X0031155Y0136794D01*
X0032023Y0137662D01*
X0034625Y0137662D01*
X0034625Y0144505D02*
X0034625Y0147975D01*
X0034625Y0149661D02*
X0034625Y0151396D01*
X0034625Y0150529D02*
X0031155Y0150529D01*
X0031155Y0149661D01*
X0029421Y0150529D02*
X0028553Y0150529D01*
X0031155Y0153099D02*
X0031155Y0153966D01*
X0032023Y0154834D01*
X0031155Y0155701D01*
X0032023Y0156569D01*
X0034625Y0156569D01*
X0034625Y0154834D02*
X0032023Y0154834D01*
X0031155Y0153099D02*
X0034625Y0153099D01*
X0034625Y0144505D02*
X0029421Y0144505D01*
X0024365Y0136046D02*
X0023498Y0136046D01*
X0020028Y0139516D01*
X0019161Y0139516D01*
X0019161Y0136046D01*
X0019161Y0132624D02*
X0024365Y0132624D01*
X0024365Y0130890D02*
X0024365Y0134359D01*
X0020895Y0130890D02*
X0019161Y0132624D01*
X0020028Y0129203D02*
X0019161Y0128335D01*
X0019161Y0126601D01*
X0020028Y0125733D01*
X0023498Y0125733D01*
X0020028Y0129203D01*
X0023498Y0129203D01*
X0024365Y0128335D01*
X0024365Y0126601D01*
X0023498Y0125733D01*
X0024365Y0124046D02*
X0024365Y0120577D01*
X0020895Y0124046D01*
X0020028Y0124046D01*
X0019161Y0123179D01*
X0019161Y0121444D01*
X0020028Y0120577D01*
X0029421Y0129036D02*
X0034625Y0129036D01*
X0019161Y0079334D02*
X0018293Y0079334D01*
X0020895Y0071615D02*
X0020895Y0070748D01*
X0022630Y0069013D01*
X0022630Y0067326D02*
X0022630Y0063856D01*
X0021763Y0063856D02*
X0020895Y0064724D01*
X0020895Y0066459D01*
X0021763Y0067326D01*
X0022630Y0067326D01*
X0024365Y0066459D02*
X0024365Y0064724D01*
X0023498Y0063856D01*
X0021763Y0063856D01*
X0022630Y0062170D02*
X0019161Y0062170D01*
X0019161Y0058700D02*
X0022630Y0058700D01*
X0024365Y0060435D01*
X0022630Y0062170D01*
X0024365Y0069013D02*
X0020895Y0069013D01*
M02*
