G75*
%MOIN*%
%OFA0B0*%
%FSLAX25Y25*%
%IPPOS*%
%LPD*%
%AMOC8*
5,1,8,0,0,1.08239X$1,22.5*
%
%ADD10C,0.07000*%
%ADD11C,0.06000*%
%ADD12R,0.05150X0.05150*%
%ADD13OC8,0.06000*%
%ADD14C,0.02400*%
%ADD15C,0.03200*%
D10*
X0046705Y0051000D03*
X0046705Y0061000D03*
X0046705Y0071000D03*
X0046705Y0081000D03*
X0046705Y0091000D03*
X0046705Y0101000D03*
X0046705Y0111000D03*
X0046705Y0121000D03*
X0046705Y0131000D03*
X0046705Y0141000D03*
X0046705Y0151000D03*
X0046705Y0161000D03*
X0046705Y0171000D03*
X0046705Y0181000D03*
D11*
X0076705Y0141000D03*
X0076705Y0131000D03*
X0076705Y0121000D03*
X0076705Y0111000D03*
X0076705Y0101000D03*
X0086705Y0101000D03*
X0086705Y0111000D03*
X0086705Y0121000D03*
X0086705Y0131000D03*
X0086705Y0141000D03*
D12*
X0059370Y0030595D03*
X0059370Y0010595D03*
X0039370Y0010595D03*
X0039370Y0030595D03*
D13*
X0024470Y0034025D03*
X0024470Y0024025D03*
X0076265Y0022990D03*
X0076265Y0032990D03*
D14*
X0006200Y0019962D02*
X0006200Y0187038D01*
X0006439Y0186798D01*
X0009061Y0185284D01*
X0011986Y0184501D01*
X0015014Y0184501D01*
X0017939Y0185284D01*
X0020561Y0186798D01*
X0022702Y0188939D01*
X0024216Y0191561D01*
X0024999Y0194486D01*
X0024999Y0197514D01*
X0024216Y0200439D01*
X0022702Y0203061D01*
X0022462Y0203300D01*
X0077743Y0203300D01*
X0077503Y0203061D01*
X0075989Y0200439D01*
X0075206Y0197514D01*
X0075206Y0194486D01*
X0075989Y0191561D01*
X0077503Y0188939D01*
X0079644Y0186798D01*
X0082266Y0185284D01*
X0085191Y0184501D01*
X0088219Y0184501D01*
X0091144Y0185284D01*
X0093766Y0186798D01*
X0094005Y0187038D01*
X0094005Y0113791D01*
X0093744Y0114052D01*
X0092421Y0114600D01*
X0090176Y0114600D01*
X0089537Y0115239D01*
X0087700Y0116000D01*
X0089537Y0116761D01*
X0090944Y0118168D01*
X0091705Y0120005D01*
X0091705Y0121995D01*
X0090944Y0123832D01*
X0089537Y0125239D01*
X0087887Y0125922D01*
X0087923Y0125928D01*
X0088701Y0126181D01*
X0089430Y0126553D01*
X0090093Y0127034D01*
X0090671Y0127612D01*
X0091152Y0128275D01*
X0091524Y0129004D01*
X0091777Y0129782D01*
X0091905Y0130591D01*
X0091905Y0131000D01*
X0091905Y0131409D01*
X0091777Y0132218D01*
X0091524Y0132996D01*
X0091152Y0133725D01*
X0090671Y0134388D01*
X0090093Y0134966D01*
X0089430Y0135447D01*
X0088701Y0135819D01*
X0087923Y0136072D01*
X0087887Y0136078D01*
X0089537Y0136761D01*
X0090944Y0138168D01*
X0091705Y0140005D01*
X0091705Y0141995D01*
X0090944Y0143832D01*
X0089905Y0144871D01*
X0089905Y0146637D01*
X0089418Y0147813D01*
X0084418Y0152813D01*
X0083518Y0153713D01*
X0082342Y0154200D01*
X0051283Y0154200D01*
X0049820Y0155663D01*
X0049006Y0156000D01*
X0049820Y0156337D01*
X0051368Y0157884D01*
X0052205Y0159906D01*
X0052205Y0162094D01*
X0051368Y0164115D01*
X0049820Y0165663D01*
X0049006Y0166000D01*
X0049820Y0166337D01*
X0051368Y0167884D01*
X0052205Y0169906D01*
X0052205Y0172094D01*
X0051368Y0174115D01*
X0049820Y0175663D01*
X0049006Y0176000D01*
X0049820Y0176337D01*
X0051368Y0177884D01*
X0052205Y0179906D01*
X0052205Y0182094D01*
X0051368Y0184115D01*
X0049820Y0185663D01*
X0047799Y0186500D01*
X0045611Y0186500D01*
X0043589Y0185663D01*
X0042042Y0184115D01*
X0041205Y0182094D01*
X0041205Y0179906D01*
X0042042Y0177884D01*
X0043589Y0176337D01*
X0044404Y0176000D01*
X0043589Y0175663D01*
X0042527Y0174600D01*
X0040989Y0174600D01*
X0039666Y0174052D01*
X0034666Y0169052D01*
X0033653Y0168039D01*
X0033105Y0166716D01*
X0033105Y0135284D01*
X0033653Y0133961D01*
X0038653Y0128961D01*
X0039666Y0127948D01*
X0040989Y0127400D01*
X0042527Y0127400D01*
X0043589Y0126337D01*
X0044404Y0126000D01*
X0043589Y0125663D01*
X0042527Y0124600D01*
X0040989Y0124600D01*
X0039666Y0124052D01*
X0038653Y0123039D01*
X0033653Y0118039D01*
X0033105Y0116716D01*
X0033105Y0055284D01*
X0033653Y0053961D01*
X0034666Y0052948D01*
X0039666Y0047948D01*
X0040989Y0047400D01*
X0042527Y0047400D01*
X0043589Y0046337D01*
X0045611Y0045500D01*
X0047799Y0045500D01*
X0049820Y0046337D01*
X0050883Y0047400D01*
X0082421Y0047400D01*
X0083744Y0047948D01*
X0084757Y0048961D01*
X0094005Y0058209D01*
X0094005Y0019962D01*
X0093766Y0020202D01*
X0091144Y0021716D01*
X0088219Y0022499D01*
X0085191Y0022499D01*
X0082266Y0021716D01*
X0081265Y0021137D01*
X0081265Y0025061D01*
X0078477Y0027849D01*
X0081465Y0030836D01*
X0081465Y0032990D01*
X0081465Y0035144D01*
X0078419Y0038190D01*
X0076265Y0038190D01*
X0074111Y0038190D01*
X0071065Y0035144D01*
X0071065Y0032990D01*
X0071065Y0030836D01*
X0074053Y0027849D01*
X0071265Y0025061D01*
X0071265Y0020919D01*
X0074194Y0017990D01*
X0077463Y0017990D01*
X0075989Y0015439D01*
X0075206Y0012514D01*
X0075206Y0009486D01*
X0075989Y0006561D01*
X0076198Y0006200D01*
X0062953Y0006200D01*
X0063945Y0007192D01*
X0063945Y0013998D01*
X0062773Y0015170D01*
X0055967Y0015170D01*
X0054795Y0013998D01*
X0054795Y0007192D01*
X0055787Y0006200D01*
X0042953Y0006200D01*
X0043945Y0007192D01*
X0043945Y0013998D01*
X0042773Y0015170D01*
X0035967Y0015170D01*
X0034795Y0013998D01*
X0034795Y0007192D01*
X0035787Y0006200D01*
X0024007Y0006200D01*
X0024216Y0006561D01*
X0024999Y0009486D01*
X0024999Y0012514D01*
X0024216Y0015439D01*
X0022702Y0018061D01*
X0020561Y0020202D01*
X0017939Y0021716D01*
X0015014Y0022499D01*
X0011986Y0022499D01*
X0009061Y0021716D01*
X0006439Y0020202D01*
X0006200Y0019962D01*
X0006200Y0020498D02*
X0006952Y0020498D01*
X0006200Y0022896D02*
X0019470Y0022896D01*
X0019470Y0021954D02*
X0022399Y0019025D01*
X0026541Y0019025D01*
X0029470Y0021954D01*
X0029470Y0026096D01*
X0026682Y0028884D01*
X0029670Y0031871D01*
X0029670Y0034025D01*
X0029670Y0036179D01*
X0026624Y0039225D01*
X0024470Y0039225D01*
X0022316Y0039225D01*
X0019270Y0036179D01*
X0019270Y0034025D01*
X0019270Y0031871D01*
X0022258Y0028884D01*
X0019470Y0026096D01*
X0019470Y0021954D01*
X0020048Y0020498D02*
X0020926Y0020498D01*
X0022663Y0018099D02*
X0074085Y0018099D01*
X0076141Y0015701D02*
X0024064Y0015701D01*
X0024788Y0013302D02*
X0034795Y0013302D01*
X0034795Y0010904D02*
X0024999Y0010904D01*
X0024736Y0008505D02*
X0034795Y0008505D01*
X0028014Y0020498D02*
X0071686Y0020498D01*
X0071265Y0022896D02*
X0029470Y0022896D01*
X0029470Y0025295D02*
X0071499Y0025295D01*
X0073897Y0027693D02*
X0064135Y0027693D01*
X0064145Y0027731D02*
X0064145Y0030595D01*
X0064145Y0033459D01*
X0063995Y0034019D01*
X0063705Y0034521D01*
X0063296Y0034930D01*
X0062794Y0035220D01*
X0062234Y0035370D01*
X0059370Y0035370D01*
X0056506Y0035370D01*
X0055946Y0035220D01*
X0055444Y0034930D01*
X0055035Y0034521D01*
X0054745Y0034019D01*
X0054595Y0033459D01*
X0054595Y0030595D01*
X0059370Y0030595D01*
X0064145Y0030595D01*
X0059370Y0030595D01*
X0059370Y0030595D01*
X0059370Y0030595D01*
X0059370Y0035370D01*
X0059370Y0030595D01*
X0059370Y0025820D01*
X0062234Y0025820D01*
X0062794Y0025970D01*
X0063296Y0026260D01*
X0063705Y0026669D01*
X0063995Y0027171D01*
X0064145Y0027731D01*
X0064145Y0030092D02*
X0071809Y0030092D01*
X0071065Y0032490D02*
X0064145Y0032490D01*
X0063337Y0034889D02*
X0071065Y0034889D01*
X0071065Y0032990D02*
X0076265Y0032990D01*
X0071065Y0032990D01*
X0073208Y0037287D02*
X0028562Y0037287D01*
X0029670Y0034889D02*
X0035403Y0034889D01*
X0035444Y0034930D02*
X0035035Y0034521D01*
X0034745Y0034019D01*
X0034595Y0033459D01*
X0034595Y0030595D01*
X0039370Y0030595D01*
X0044145Y0030595D01*
X0044145Y0027731D01*
X0043995Y0027171D01*
X0043705Y0026669D01*
X0043296Y0026260D01*
X0042794Y0025970D01*
X0042234Y0025820D01*
X0039370Y0025820D01*
X0039370Y0030595D01*
X0039370Y0030595D01*
X0039370Y0030595D01*
X0039370Y0035370D01*
X0036506Y0035370D01*
X0035946Y0035220D01*
X0035444Y0034930D01*
X0034595Y0032490D02*
X0029670Y0032490D01*
X0029670Y0034025D02*
X0024470Y0034025D01*
X0019270Y0034025D01*
X0024470Y0034025D01*
X0024470Y0034025D01*
X0029670Y0034025D01*
X0027891Y0030092D02*
X0034595Y0030092D01*
X0034595Y0030595D02*
X0034595Y0027731D01*
X0034745Y0027171D01*
X0035035Y0026669D01*
X0035444Y0026260D01*
X0035946Y0025970D01*
X0036506Y0025820D01*
X0039370Y0025820D01*
X0039370Y0030595D01*
X0044145Y0030595D01*
X0044145Y0033459D01*
X0043995Y0034019D01*
X0043705Y0034521D01*
X0043296Y0034930D01*
X0042794Y0035220D01*
X0042234Y0035370D01*
X0039370Y0035370D01*
X0039370Y0030595D01*
X0039370Y0030595D01*
X0039370Y0030595D01*
X0034595Y0030595D01*
X0034605Y0027693D02*
X0027873Y0027693D01*
X0024470Y0034025D02*
X0024470Y0034025D01*
X0024470Y0039225D01*
X0024470Y0034025D01*
X0024470Y0034025D01*
X0024470Y0034889D02*
X0024470Y0034889D01*
X0024470Y0037287D02*
X0024470Y0037287D01*
X0021049Y0030092D02*
X0006200Y0030092D01*
X0006200Y0032490D02*
X0019270Y0032490D01*
X0019270Y0034889D02*
X0006200Y0034889D01*
X0006200Y0037287D02*
X0020378Y0037287D01*
X0021067Y0027693D02*
X0006200Y0027693D01*
X0006200Y0025295D02*
X0019470Y0025295D01*
X0006200Y0039686D02*
X0094005Y0039686D01*
X0094005Y0037287D02*
X0079322Y0037287D01*
X0081465Y0034889D02*
X0094005Y0034889D01*
X0094005Y0032490D02*
X0081465Y0032490D01*
X0081465Y0032990D02*
X0076265Y0032990D01*
X0076265Y0032990D01*
X0076265Y0038190D01*
X0076265Y0032990D01*
X0076265Y0032990D01*
X0081465Y0032990D01*
X0080721Y0030092D02*
X0094005Y0030092D01*
X0094005Y0027693D02*
X0078633Y0027693D01*
X0076265Y0032990D02*
X0076265Y0032990D01*
X0076265Y0034889D02*
X0076265Y0034889D01*
X0076265Y0037287D02*
X0076265Y0037287D01*
X0081031Y0025295D02*
X0094005Y0025295D01*
X0094005Y0022896D02*
X0081265Y0022896D01*
X0075417Y0013302D02*
X0063945Y0013302D01*
X0063945Y0010904D02*
X0075206Y0010904D01*
X0075469Y0008505D02*
X0063945Y0008505D01*
X0054795Y0008505D02*
X0043945Y0008505D01*
X0043945Y0010904D02*
X0054795Y0010904D01*
X0054795Y0013302D02*
X0043945Y0013302D01*
X0044135Y0027693D02*
X0054605Y0027693D01*
X0054595Y0027731D02*
X0054745Y0027171D01*
X0055035Y0026669D01*
X0055444Y0026260D01*
X0055946Y0025970D01*
X0056506Y0025820D01*
X0059370Y0025820D01*
X0059370Y0030595D01*
X0059370Y0030595D01*
X0059370Y0030595D01*
X0054595Y0030595D01*
X0054595Y0027731D01*
X0054595Y0030092D02*
X0044145Y0030092D01*
X0044145Y0032490D02*
X0054595Y0032490D01*
X0055403Y0034889D02*
X0043337Y0034889D01*
X0039370Y0034889D02*
X0039370Y0034889D01*
X0039370Y0032490D02*
X0039370Y0032490D01*
X0039370Y0030092D02*
X0039370Y0030092D01*
X0039370Y0027693D02*
X0039370Y0027693D01*
X0043046Y0046881D02*
X0006200Y0046881D01*
X0006200Y0044483D02*
X0094005Y0044483D01*
X0094005Y0046881D02*
X0050364Y0046881D01*
X0050883Y0054600D02*
X0049820Y0055663D01*
X0049249Y0055899D01*
X0049692Y0056125D01*
X0050418Y0056652D01*
X0051053Y0057287D01*
X0051580Y0058013D01*
X0051987Y0058812D01*
X0052265Y0059665D01*
X0052405Y0060551D01*
X0052405Y0061000D01*
X0052405Y0061449D01*
X0052265Y0062335D01*
X0051987Y0063188D01*
X0051580Y0063987D01*
X0051053Y0064713D01*
X0050418Y0065348D01*
X0049692Y0065875D01*
X0049249Y0066101D01*
X0049820Y0066337D01*
X0050883Y0067400D01*
X0077421Y0067400D01*
X0078744Y0067948D01*
X0088744Y0077948D01*
X0089757Y0078961D01*
X0090305Y0080284D01*
X0090305Y0097529D01*
X0090944Y0098168D01*
X0091705Y0100005D01*
X0091705Y0101995D01*
X0090944Y0103832D01*
X0089537Y0105239D01*
X0087700Y0106000D01*
X0085710Y0106000D01*
X0083873Y0105239D01*
X0082466Y0103832D01*
X0081705Y0101995D01*
X0080944Y0103832D01*
X0079537Y0105239D01*
X0077700Y0106000D01*
X0079537Y0106761D01*
X0080944Y0108168D01*
X0081705Y0110005D01*
X0081705Y0111995D01*
X0080944Y0113832D01*
X0079537Y0115239D01*
X0077700Y0116000D01*
X0075710Y0116000D01*
X0073873Y0115239D01*
X0072466Y0113832D01*
X0071705Y0111995D01*
X0071705Y0110005D01*
X0072466Y0108168D01*
X0073873Y0106761D01*
X0075710Y0106000D01*
X0077700Y0106000D01*
X0075710Y0106000D01*
X0073873Y0105239D01*
X0072466Y0103832D01*
X0071705Y0101995D01*
X0071705Y0101091D01*
X0065214Y0094600D01*
X0050883Y0094600D01*
X0049820Y0095663D01*
X0049006Y0096000D01*
X0049820Y0096337D01*
X0050883Y0097400D01*
X0057421Y0097400D01*
X0058744Y0097948D01*
X0059757Y0098961D01*
X0064757Y0103961D01*
X0065305Y0105284D01*
X0065305Y0114509D01*
X0068196Y0117400D01*
X0073234Y0117400D01*
X0073873Y0116761D01*
X0075710Y0116000D01*
X0077700Y0116000D01*
X0079537Y0116761D01*
X0080944Y0118168D01*
X0081705Y0120005D01*
X0082466Y0118168D01*
X0083873Y0116761D01*
X0085710Y0116000D01*
X0087700Y0116000D01*
X0085710Y0116000D01*
X0083873Y0115239D01*
X0082466Y0113832D01*
X0081705Y0111995D01*
X0081705Y0110005D01*
X0082466Y0108168D01*
X0083873Y0106761D01*
X0085710Y0106000D01*
X0087700Y0106000D01*
X0089537Y0106761D01*
X0090176Y0107400D01*
X0090214Y0107400D01*
X0093105Y0104509D01*
X0093105Y0067491D01*
X0080214Y0054600D01*
X0050883Y0054600D01*
X0050175Y0056475D02*
X0082089Y0056475D01*
X0084488Y0058874D02*
X0052007Y0058874D01*
X0052405Y0061000D02*
X0046705Y0061000D01*
X0052405Y0061000D01*
X0052405Y0061272D02*
X0086886Y0061272D01*
X0089285Y0063671D02*
X0051741Y0063671D01*
X0049311Y0066069D02*
X0091683Y0066069D01*
X0093105Y0068468D02*
X0079264Y0068468D01*
X0081663Y0070866D02*
X0093105Y0070866D01*
X0093105Y0073265D02*
X0084061Y0073265D01*
X0086460Y0075663D02*
X0093105Y0075663D01*
X0093105Y0078062D02*
X0088858Y0078062D01*
X0090305Y0080460D02*
X0093105Y0080460D01*
X0093105Y0082859D02*
X0090305Y0082859D01*
X0090305Y0085257D02*
X0093105Y0085257D01*
X0093105Y0087656D02*
X0090305Y0087656D01*
X0090305Y0090055D02*
X0093105Y0090055D01*
X0093105Y0092453D02*
X0090305Y0092453D01*
X0090305Y0094852D02*
X0093105Y0094852D01*
X0093105Y0097250D02*
X0090305Y0097250D01*
X0091557Y0099649D02*
X0093105Y0099649D01*
X0093105Y0102047D02*
X0091683Y0102047D01*
X0090330Y0104446D02*
X0093105Y0104446D01*
X0090770Y0106844D02*
X0089620Y0106844D01*
X0093757Y0114040D02*
X0094005Y0114040D01*
X0094005Y0116438D02*
X0088757Y0116438D01*
X0091221Y0118837D02*
X0094005Y0118837D01*
X0094005Y0121235D02*
X0091705Y0121235D01*
X0091026Y0123634D02*
X0094005Y0123634D01*
X0094005Y0126032D02*
X0088243Y0126032D01*
X0085523Y0125922D02*
X0083873Y0125239D01*
X0082466Y0123832D01*
X0081705Y0121995D01*
X0081705Y0120005D01*
X0081705Y0121995D01*
X0080944Y0123832D01*
X0079537Y0125239D01*
X0077700Y0126000D01*
X0079537Y0126761D01*
X0080944Y0128168D01*
X0081627Y0129818D01*
X0081633Y0129782D01*
X0081886Y0129004D01*
X0082258Y0128275D01*
X0082739Y0127612D01*
X0083317Y0127034D01*
X0083980Y0126553D01*
X0084709Y0126181D01*
X0085487Y0125928D01*
X0085523Y0125922D01*
X0085167Y0126032D02*
X0077777Y0126032D01*
X0077700Y0126000D02*
X0075710Y0126000D01*
X0073873Y0126761D01*
X0073234Y0127400D01*
X0050883Y0127400D01*
X0049820Y0126337D01*
X0049006Y0126000D01*
X0049820Y0125663D01*
X0051368Y0124115D01*
X0052205Y0122094D01*
X0052205Y0119906D01*
X0051368Y0117884D01*
X0049820Y0116337D01*
X0049006Y0116000D01*
X0049820Y0115663D01*
X0051368Y0114115D01*
X0052205Y0112094D01*
X0052205Y0109906D01*
X0051368Y0107884D01*
X0049820Y0106337D01*
X0049006Y0106000D01*
X0049820Y0105663D01*
X0050883Y0104600D01*
X0055214Y0104600D01*
X0058105Y0107491D01*
X0058105Y0116716D01*
X0058653Y0118039D01*
X0059666Y0119052D01*
X0059666Y0119052D01*
X0064666Y0124052D01*
X0065989Y0124600D01*
X0073234Y0124600D01*
X0073873Y0125239D01*
X0075710Y0126000D01*
X0077700Y0126000D01*
X0075633Y0126032D02*
X0049084Y0126032D01*
X0051567Y0123634D02*
X0064248Y0123634D01*
X0061849Y0121235D02*
X0052205Y0121235D01*
X0051762Y0118837D02*
X0059450Y0118837D01*
X0058105Y0116438D02*
X0049921Y0116438D01*
X0051399Y0114040D02*
X0058105Y0114040D01*
X0058105Y0111641D02*
X0052205Y0111641D01*
X0051930Y0109243D02*
X0058105Y0109243D01*
X0057458Y0106844D02*
X0050327Y0106844D01*
X0050733Y0097250D02*
X0067864Y0097250D01*
X0070262Y0099649D02*
X0060445Y0099649D01*
X0062843Y0102047D02*
X0071727Y0102047D01*
X0073080Y0104446D02*
X0064958Y0104446D01*
X0065305Y0106844D02*
X0073790Y0106844D01*
X0072021Y0109243D02*
X0065305Y0109243D01*
X0065305Y0111641D02*
X0071705Y0111641D01*
X0072674Y0114040D02*
X0065305Y0114040D01*
X0067234Y0116438D02*
X0074653Y0116438D01*
X0078757Y0116438D02*
X0084653Y0116438D01*
X0082674Y0114040D02*
X0080736Y0114040D01*
X0081705Y0111641D02*
X0081705Y0111641D01*
X0081389Y0109243D02*
X0082021Y0109243D01*
X0083790Y0106844D02*
X0079620Y0106844D01*
X0080330Y0104446D02*
X0083080Y0104446D01*
X0081727Y0102047D02*
X0081683Y0102047D01*
X0081705Y0101995D02*
X0081705Y0100005D01*
X0080944Y0098168D01*
X0079537Y0096761D01*
X0077700Y0096000D01*
X0076796Y0096000D01*
X0069757Y0088961D01*
X0068744Y0087948D01*
X0067421Y0087400D01*
X0050883Y0087400D01*
X0049820Y0086337D01*
X0049006Y0086000D01*
X0049820Y0085663D01*
X0051368Y0084115D01*
X0052205Y0082094D01*
X0052205Y0079906D01*
X0051368Y0077884D01*
X0049820Y0076337D01*
X0049006Y0076000D01*
X0049820Y0075663D01*
X0050883Y0074600D01*
X0075214Y0074600D01*
X0083105Y0082491D01*
X0083105Y0097529D01*
X0082466Y0098168D01*
X0081705Y0100005D01*
X0081705Y0101995D01*
X0081557Y0099649D02*
X0081853Y0099649D01*
X0083105Y0097250D02*
X0080026Y0097250D01*
X0083105Y0094852D02*
X0075648Y0094852D01*
X0073249Y0092453D02*
X0083105Y0092453D01*
X0083105Y0090055D02*
X0070851Y0090055D01*
X0068039Y0087656D02*
X0083105Y0087656D01*
X0083105Y0085257D02*
X0050226Y0085257D01*
X0051888Y0082859D02*
X0083105Y0082859D01*
X0081074Y0080460D02*
X0052205Y0080460D01*
X0051441Y0078062D02*
X0078676Y0078062D01*
X0076277Y0075663D02*
X0049819Y0075663D01*
X0044404Y0076000D02*
X0043589Y0075663D01*
X0042042Y0074115D01*
X0041205Y0072094D01*
X0041205Y0069906D01*
X0042042Y0067884D01*
X0043589Y0066337D01*
X0044161Y0066101D01*
X0043718Y0065875D01*
X0042992Y0065348D01*
X0042357Y0064713D01*
X0041830Y0063987D01*
X0041423Y0063188D01*
X0041145Y0062335D01*
X0041005Y0061449D01*
X0041005Y0061000D01*
X0046705Y0061000D01*
X0046705Y0061000D01*
X0046705Y0061000D01*
X0041005Y0061000D01*
X0041005Y0060551D01*
X0041145Y0059665D01*
X0041423Y0058812D01*
X0041830Y0058013D01*
X0042357Y0057287D01*
X0042992Y0056652D01*
X0043718Y0056125D01*
X0044161Y0055899D01*
X0043589Y0055663D01*
X0042861Y0054935D01*
X0040305Y0057491D01*
X0040305Y0114509D01*
X0042861Y0117065D01*
X0043589Y0116337D01*
X0044404Y0116000D01*
X0043589Y0115663D01*
X0042042Y0114115D01*
X0041205Y0112094D01*
X0041205Y0109906D01*
X0042042Y0107884D01*
X0043589Y0106337D01*
X0044404Y0106000D01*
X0043589Y0105663D01*
X0042042Y0104115D01*
X0041205Y0102094D01*
X0041205Y0099906D01*
X0042042Y0097884D01*
X0043589Y0096337D01*
X0044404Y0096000D01*
X0043589Y0095663D01*
X0042042Y0094115D01*
X0041205Y0092094D01*
X0041205Y0089906D01*
X0042042Y0087884D01*
X0043589Y0086337D01*
X0044404Y0086000D01*
X0043589Y0085663D01*
X0042042Y0084115D01*
X0041205Y0082094D01*
X0041205Y0079906D01*
X0042042Y0077884D01*
X0043589Y0076337D01*
X0044404Y0076000D01*
X0043591Y0075663D02*
X0040305Y0075663D01*
X0040305Y0078062D02*
X0041969Y0078062D01*
X0041205Y0080460D02*
X0040305Y0080460D01*
X0040305Y0082859D02*
X0041522Y0082859D01*
X0040305Y0085257D02*
X0043184Y0085257D01*
X0042271Y0087656D02*
X0040305Y0087656D01*
X0040305Y0090055D02*
X0041205Y0090055D01*
X0041354Y0092453D02*
X0040305Y0092453D01*
X0040305Y0094852D02*
X0042778Y0094852D01*
X0042677Y0097250D02*
X0040305Y0097250D01*
X0040305Y0099649D02*
X0041312Y0099649D01*
X0041205Y0102047D02*
X0040305Y0102047D01*
X0040305Y0104446D02*
X0042372Y0104446D01*
X0043083Y0106844D02*
X0040305Y0106844D01*
X0040305Y0109243D02*
X0041480Y0109243D01*
X0041205Y0111641D02*
X0040305Y0111641D01*
X0040305Y0114040D02*
X0042011Y0114040D01*
X0042234Y0116438D02*
X0043489Y0116438D01*
X0039247Y0123634D02*
X0006200Y0123634D01*
X0006200Y0126032D02*
X0044326Y0126032D01*
X0039183Y0128431D02*
X0006200Y0128431D01*
X0006200Y0130829D02*
X0036785Y0130829D01*
X0034386Y0133228D02*
X0006200Y0133228D01*
X0006200Y0135626D02*
X0033105Y0135626D01*
X0033105Y0138025D02*
X0006200Y0138025D01*
X0006200Y0140423D02*
X0033105Y0140423D01*
X0033105Y0142822D02*
X0006200Y0142822D01*
X0006200Y0145220D02*
X0033105Y0145220D01*
X0033105Y0147619D02*
X0006200Y0147619D01*
X0006200Y0150017D02*
X0033105Y0150017D01*
X0033105Y0152416D02*
X0006200Y0152416D01*
X0006200Y0154814D02*
X0033105Y0154814D01*
X0033105Y0157213D02*
X0006200Y0157213D01*
X0006200Y0159611D02*
X0033105Y0159611D01*
X0033105Y0162010D02*
X0006200Y0162010D01*
X0006200Y0164408D02*
X0033105Y0164408D01*
X0033143Y0166807D02*
X0006200Y0166807D01*
X0006200Y0169205D02*
X0034819Y0169205D01*
X0037218Y0171604D02*
X0006200Y0171604D01*
X0006200Y0174002D02*
X0039616Y0174002D01*
X0041663Y0178799D02*
X0006200Y0178799D01*
X0006200Y0176401D02*
X0043526Y0176401D01*
X0041205Y0181198D02*
X0006200Y0181198D01*
X0006200Y0183596D02*
X0041827Y0183596D01*
X0044392Y0185995D02*
X0019169Y0185995D01*
X0022156Y0188393D02*
X0078049Y0188393D01*
X0076434Y0190792D02*
X0023771Y0190792D01*
X0024652Y0193190D02*
X0075553Y0193190D01*
X0075206Y0195589D02*
X0024999Y0195589D01*
X0024872Y0197988D02*
X0075333Y0197988D01*
X0075975Y0200386D02*
X0024230Y0200386D01*
X0022861Y0202785D02*
X0077344Y0202785D01*
X0081036Y0185995D02*
X0049018Y0185995D01*
X0051583Y0183596D02*
X0094005Y0183596D01*
X0094005Y0181198D02*
X0052205Y0181198D01*
X0051747Y0178799D02*
X0094005Y0178799D01*
X0094005Y0176401D02*
X0049884Y0176401D01*
X0051415Y0174002D02*
X0094005Y0174002D01*
X0094005Y0171604D02*
X0052205Y0171604D01*
X0051915Y0169205D02*
X0094005Y0169205D01*
X0094005Y0166807D02*
X0050290Y0166807D01*
X0051075Y0164408D02*
X0094005Y0164408D01*
X0094005Y0162010D02*
X0052205Y0162010D01*
X0052083Y0159611D02*
X0094005Y0159611D01*
X0094005Y0157213D02*
X0050696Y0157213D01*
X0050669Y0154814D02*
X0094005Y0154814D01*
X0094005Y0152416D02*
X0084815Y0152416D01*
X0087213Y0150017D02*
X0094005Y0150017D01*
X0094005Y0147619D02*
X0089498Y0147619D01*
X0089905Y0145220D02*
X0094005Y0145220D01*
X0094005Y0142822D02*
X0091362Y0142822D01*
X0091705Y0140423D02*
X0094005Y0140423D01*
X0094005Y0138025D02*
X0090801Y0138025D01*
X0089080Y0135626D02*
X0094005Y0135626D01*
X0094005Y0133228D02*
X0091406Y0133228D01*
X0091905Y0131000D02*
X0086705Y0131000D01*
X0086705Y0131000D01*
X0091905Y0131000D01*
X0091905Y0130829D02*
X0094005Y0130829D01*
X0094005Y0128431D02*
X0091232Y0128431D01*
X0086705Y0141000D02*
X0086705Y0146000D01*
X0081705Y0151000D01*
X0046705Y0151000D01*
X0036849Y0121235D02*
X0006200Y0121235D01*
X0006200Y0118837D02*
X0034450Y0118837D01*
X0033105Y0116438D02*
X0006200Y0116438D01*
X0006200Y0114040D02*
X0033105Y0114040D01*
X0033105Y0111641D02*
X0006200Y0111641D01*
X0006200Y0109243D02*
X0033105Y0109243D01*
X0033105Y0106844D02*
X0006200Y0106844D01*
X0006200Y0104446D02*
X0033105Y0104446D01*
X0033105Y0102047D02*
X0006200Y0102047D01*
X0006200Y0099649D02*
X0033105Y0099649D01*
X0033105Y0097250D02*
X0006200Y0097250D01*
X0006200Y0094852D02*
X0033105Y0094852D01*
X0033105Y0092453D02*
X0006200Y0092453D01*
X0006200Y0090055D02*
X0033105Y0090055D01*
X0033105Y0087656D02*
X0006200Y0087656D01*
X0006200Y0085257D02*
X0033105Y0085257D01*
X0033105Y0082859D02*
X0006200Y0082859D01*
X0006200Y0080460D02*
X0033105Y0080460D01*
X0033105Y0078062D02*
X0006200Y0078062D01*
X0006200Y0075663D02*
X0033105Y0075663D01*
X0033105Y0073265D02*
X0006200Y0073265D01*
X0006200Y0070866D02*
X0033105Y0070866D01*
X0033105Y0068468D02*
X0006200Y0068468D01*
X0006200Y0066069D02*
X0033105Y0066069D01*
X0033105Y0063671D02*
X0006200Y0063671D01*
X0006200Y0061272D02*
X0033105Y0061272D01*
X0033105Y0058874D02*
X0006200Y0058874D01*
X0006200Y0056475D02*
X0033105Y0056475D01*
X0033605Y0054077D02*
X0006200Y0054077D01*
X0006200Y0051678D02*
X0035935Y0051678D01*
X0038334Y0049280D02*
X0006200Y0049280D01*
X0006200Y0042084D02*
X0094005Y0042084D01*
X0094005Y0049280D02*
X0085076Y0049280D01*
X0087474Y0051678D02*
X0094005Y0051678D01*
X0094005Y0054077D02*
X0089873Y0054077D01*
X0092271Y0056475D02*
X0094005Y0056475D01*
X0094005Y0020498D02*
X0093253Y0020498D01*
X0059370Y0027693D02*
X0059370Y0027693D01*
X0059370Y0030092D02*
X0059370Y0030092D01*
X0059370Y0032490D02*
X0059370Y0032490D01*
X0059370Y0034889D02*
X0059370Y0034889D01*
X0043235Y0056475D02*
X0041321Y0056475D01*
X0041402Y0058874D02*
X0040305Y0058874D01*
X0040305Y0061272D02*
X0041005Y0061272D01*
X0041669Y0063671D02*
X0040305Y0063671D01*
X0040305Y0066069D02*
X0044099Y0066069D01*
X0041801Y0068468D02*
X0040305Y0068468D01*
X0040305Y0070866D02*
X0041205Y0070866D01*
X0041690Y0073265D02*
X0040305Y0073265D01*
X0050632Y0094852D02*
X0065465Y0094852D01*
X0081221Y0118837D02*
X0082189Y0118837D01*
X0081705Y0121235D02*
X0081705Y0121235D01*
X0081026Y0123634D02*
X0082384Y0123634D01*
X0082178Y0128431D02*
X0081053Y0128431D01*
X0092374Y0185995D02*
X0094005Y0185995D01*
X0007831Y0185995D02*
X0006200Y0185995D01*
D15*
X0036705Y0166000D02*
X0036705Y0136000D01*
X0041705Y0131000D01*
X0046705Y0131000D01*
X0076705Y0131000D01*
X0076705Y0121000D02*
X0066705Y0121000D01*
X0061705Y0116000D01*
X0061705Y0106000D01*
X0056705Y0101000D01*
X0046705Y0101000D01*
X0046705Y0091000D02*
X0066705Y0091000D01*
X0076705Y0101000D01*
X0086705Y0101000D02*
X0086705Y0081000D01*
X0076705Y0071000D01*
X0046705Y0071000D01*
X0036705Y0056000D02*
X0041705Y0051000D01*
X0046705Y0051000D01*
X0081705Y0051000D01*
X0096705Y0066000D01*
X0096705Y0106000D01*
X0091705Y0111000D01*
X0086705Y0111000D01*
X0076705Y0141000D02*
X0046705Y0141000D01*
X0046705Y0121000D02*
X0041705Y0121000D01*
X0036705Y0116000D01*
X0036705Y0056000D01*
X0036705Y0166000D02*
X0041705Y0171000D01*
X0046705Y0171000D01*
M02*
