%
M48
M72
T01C0.03150
T02C0.04000
T03C0.12598
%
T01
X39370Y10595
X39370Y30595
X59370Y30595
X59370Y10595
T02
X76265Y22990
X76265Y32990
X46705Y51000
X46705Y61000
X46705Y71000
X46705Y81000
X46705Y91000
X46705Y101000
X46705Y111000
X46705Y121000
X46705Y131000
X46705Y141000
X46705Y151000
X46705Y161000
X46705Y171000
X46705Y181000
X76705Y141000
X76705Y131000
X76705Y121000
X76705Y111000
X76705Y101000
X86705Y101000
X86705Y111000
X86705Y121000
X86705Y131000
X86705Y141000
X24470Y34025
X24470Y24025
T03
X13500Y11000
X86705Y11000
X86705Y196000
X13500Y196000
M30
