G75*
%MOIN*%
%OFA0B0*%
%FSLAX25Y25*%
%IPPOS*%
%LPD*%
%AMOC8*
5,1,8,0,0,1.08239X$1,22.5*
%
%ADD10C,0.00600*%
%ADD11C,0.02400*%
%ADD12C,0.00400*%
D10*
X0064095Y0069983D02*
X0081095Y0069983D01*
X0081155Y0069985D01*
X0081216Y0069990D01*
X0081275Y0069999D01*
X0081334Y0070012D01*
X0081393Y0070028D01*
X0081450Y0070048D01*
X0081505Y0070071D01*
X0081560Y0070098D01*
X0081612Y0070127D01*
X0081663Y0070160D01*
X0081712Y0070196D01*
X0081758Y0070234D01*
X0081802Y0070276D01*
X0081844Y0070320D01*
X0081882Y0070366D01*
X0081918Y0070415D01*
X0081951Y0070466D01*
X0081980Y0070518D01*
X0082007Y0070573D01*
X0082030Y0070628D01*
X0082050Y0070685D01*
X0082066Y0070744D01*
X0082079Y0070803D01*
X0082088Y0070862D01*
X0082093Y0070923D01*
X0082095Y0070983D01*
X0082095Y0076983D01*
X0082093Y0077043D01*
X0082088Y0077104D01*
X0082079Y0077163D01*
X0082066Y0077222D01*
X0082050Y0077281D01*
X0082030Y0077338D01*
X0082007Y0077393D01*
X0081980Y0077448D01*
X0081951Y0077500D01*
X0081918Y0077551D01*
X0081882Y0077600D01*
X0081844Y0077646D01*
X0081802Y0077690D01*
X0081758Y0077732D01*
X0081712Y0077770D01*
X0081663Y0077806D01*
X0081612Y0077839D01*
X0081560Y0077868D01*
X0081505Y0077895D01*
X0081450Y0077918D01*
X0081393Y0077938D01*
X0081334Y0077954D01*
X0081275Y0077967D01*
X0081216Y0077976D01*
X0081155Y0077981D01*
X0081095Y0077983D01*
X0064095Y0077983D01*
X0064035Y0077981D01*
X0063974Y0077976D01*
X0063915Y0077967D01*
X0063856Y0077954D01*
X0063797Y0077938D01*
X0063740Y0077918D01*
X0063685Y0077895D01*
X0063630Y0077868D01*
X0063578Y0077839D01*
X0063527Y0077806D01*
X0063478Y0077770D01*
X0063432Y0077732D01*
X0063388Y0077690D01*
X0063346Y0077646D01*
X0063308Y0077600D01*
X0063272Y0077551D01*
X0063239Y0077500D01*
X0063210Y0077448D01*
X0063183Y0077393D01*
X0063160Y0077338D01*
X0063140Y0077281D01*
X0063124Y0077222D01*
X0063111Y0077163D01*
X0063102Y0077104D01*
X0063097Y0077043D01*
X0063095Y0076983D01*
X0063095Y0070983D01*
X0063097Y0070923D01*
X0063102Y0070862D01*
X0063111Y0070803D01*
X0063124Y0070744D01*
X0063140Y0070685D01*
X0063160Y0070628D01*
X0063183Y0070573D01*
X0063210Y0070518D01*
X0063239Y0070466D01*
X0063272Y0070415D01*
X0063308Y0070366D01*
X0063346Y0070320D01*
X0063388Y0070276D01*
X0063432Y0070234D01*
X0063478Y0070196D01*
X0063527Y0070160D01*
X0063578Y0070127D01*
X0063630Y0070098D01*
X0063685Y0070071D01*
X0063740Y0070048D01*
X0063797Y0070028D01*
X0063856Y0070012D01*
X0063915Y0069999D01*
X0063974Y0069990D01*
X0064035Y0069985D01*
X0064095Y0069983D01*
X0119838Y0122273D02*
X0123041Y0122273D01*
X0124108Y0123341D01*
X0123041Y0124408D01*
X0119838Y0124408D01*
X0119838Y0125476D02*
X0119838Y0122273D01*
X0119838Y0125476D02*
X0120906Y0126543D01*
X0123041Y0126543D01*
X0126284Y0126543D02*
X0126284Y0127611D01*
X0127351Y0128679D01*
X0129486Y0128679D01*
X0130554Y0127611D01*
X0126284Y0126543D02*
X0130554Y0122273D01*
X0126284Y0122273D01*
X0125203Y0132773D02*
X0128405Y0134908D01*
X0125203Y0137043D01*
X0123034Y0135976D02*
X0123034Y0133841D01*
X0121967Y0132773D01*
X0119831Y0132773D01*
X0118764Y0133841D01*
X0118764Y0135976D01*
X0119831Y0137043D01*
X0121967Y0137043D01*
X0123034Y0135976D01*
X0128405Y0132773D02*
X0128405Y0139179D01*
X0130581Y0135976D02*
X0130581Y0132773D01*
X0133783Y0132773D01*
X0134851Y0133841D01*
X0133783Y0134908D01*
X0130581Y0134908D01*
X0130581Y0135976D02*
X0131648Y0137043D01*
X0133783Y0137043D01*
X0137026Y0135976D02*
X0137026Y0134908D01*
X0141296Y0134908D01*
X0141296Y0133841D02*
X0141296Y0135976D01*
X0140229Y0137043D01*
X0138094Y0137043D01*
X0137026Y0135976D01*
X0138094Y0132773D02*
X0140229Y0132773D01*
X0141296Y0133841D01*
X0143465Y0137043D02*
X0144533Y0137043D01*
X0146668Y0134908D01*
X0146668Y0132773D02*
X0146668Y0137043D01*
X0148843Y0137043D02*
X0148843Y0138111D01*
X0149910Y0139179D01*
X0153113Y0139179D01*
X0153113Y0132773D01*
X0149910Y0132773D01*
X0148843Y0133841D01*
X0148843Y0134908D01*
X0149910Y0135976D01*
X0153113Y0135976D01*
X0149910Y0135976D02*
X0148843Y0137043D01*
X0153120Y0129746D02*
X0153120Y0128679D01*
X0153120Y0126543D02*
X0153120Y0122273D01*
X0154187Y0122273D02*
X0152052Y0122273D01*
X0149890Y0123341D02*
X0149890Y0125476D01*
X0148823Y0126543D01*
X0146688Y0126543D01*
X0145620Y0125476D01*
X0145620Y0123341D01*
X0146688Y0122273D01*
X0148823Y0122273D01*
X0149890Y0123341D01*
X0153120Y0126543D02*
X0154187Y0126543D01*
X0156363Y0126543D02*
X0159565Y0126543D01*
X0160633Y0125476D01*
X0159565Y0124408D01*
X0157430Y0124408D01*
X0156363Y0123341D01*
X0157430Y0122273D01*
X0160633Y0122273D01*
X0162801Y0126543D02*
X0163869Y0126543D01*
X0166004Y0124408D01*
X0166004Y0122273D02*
X0166004Y0126543D01*
X0168179Y0125476D02*
X0168179Y0124408D01*
X0172450Y0124408D01*
X0172450Y0123341D02*
X0172450Y0125476D01*
X0171382Y0126543D01*
X0169247Y0126543D01*
X0168179Y0125476D01*
X0169247Y0122273D02*
X0171382Y0122273D01*
X0172450Y0123341D01*
X0174625Y0124408D02*
X0174625Y0128679D01*
X0174625Y0124408D02*
X0176760Y0122273D01*
X0178895Y0124408D01*
X0178895Y0128679D01*
X0178895Y0132773D02*
X0178895Y0139179D01*
X0175692Y0139179D01*
X0174625Y0138111D01*
X0174625Y0135976D01*
X0175692Y0134908D01*
X0178895Y0134908D01*
X0172450Y0135976D02*
X0170314Y0135976D01*
X0172450Y0139179D02*
X0168179Y0139179D01*
X0166004Y0138111D02*
X0166004Y0133841D01*
X0164937Y0132773D01*
X0162801Y0132773D01*
X0161734Y0133841D01*
X0161734Y0138111D02*
X0162801Y0139179D01*
X0164937Y0139179D01*
X0166004Y0138111D01*
X0167085Y0143273D02*
X0167085Y0148611D01*
X0166017Y0149679D01*
X0166017Y0146476D02*
X0168153Y0146476D01*
X0171382Y0147543D02*
X0171382Y0143273D01*
X0172450Y0143273D02*
X0170314Y0143273D01*
X0174625Y0143273D02*
X0178895Y0143273D01*
X0178895Y0149679D01*
X0172450Y0147543D02*
X0171382Y0147543D01*
X0171382Y0149679D02*
X0171382Y0150746D01*
X0163856Y0146476D02*
X0162788Y0147543D01*
X0160653Y0147543D01*
X0159585Y0146476D01*
X0159585Y0145408D01*
X0163856Y0145408D01*
X0163856Y0144341D02*
X0163856Y0146476D01*
X0163856Y0144341D02*
X0162788Y0143273D01*
X0160653Y0143273D01*
X0150965Y0143273D02*
X0150965Y0149679D01*
X0147762Y0149679D01*
X0146694Y0148611D01*
X0146694Y0146476D01*
X0147762Y0145408D01*
X0150965Y0145408D01*
X0144519Y0143273D02*
X0142384Y0143273D01*
X0143452Y0143273D02*
X0143452Y0149679D01*
X0144519Y0149679D01*
X0139155Y0147543D02*
X0137019Y0147543D01*
X0135952Y0146476D01*
X0135952Y0143273D01*
X0139155Y0143273D01*
X0140222Y0144341D01*
X0139155Y0145408D01*
X0135952Y0145408D01*
X0133777Y0143273D02*
X0133777Y0147543D01*
X0130574Y0147543D01*
X0129506Y0146476D01*
X0129506Y0143273D01*
X0126264Y0144341D02*
X0125196Y0143273D01*
X0126264Y0144341D02*
X0126264Y0148611D01*
X0127331Y0147543D02*
X0125196Y0147543D01*
X0123034Y0146476D02*
X0123034Y0144341D01*
X0121967Y0143273D01*
X0119831Y0143273D01*
X0118764Y0145408D02*
X0123034Y0145408D01*
X0123034Y0146476D02*
X0121967Y0147543D01*
X0119831Y0147543D01*
X0118764Y0146476D01*
X0118764Y0145408D01*
X0116589Y0145408D02*
X0114454Y0147543D01*
X0113386Y0147543D01*
X0111217Y0146476D02*
X0110150Y0147543D01*
X0106947Y0147543D01*
X0108015Y0145408D02*
X0110150Y0145408D01*
X0111217Y0146476D01*
X0111217Y0143273D02*
X0108015Y0143273D01*
X0106947Y0144341D01*
X0108015Y0145408D01*
X0116589Y0143273D02*
X0116589Y0147543D01*
X0109076Y0138111D02*
X0109076Y0133841D01*
X0108008Y0132773D01*
X0108008Y0137043D02*
X0110143Y0137043D01*
X0112318Y0137043D02*
X0112318Y0132773D01*
X0115521Y0132773D01*
X0116589Y0133841D01*
X0116589Y0137043D01*
X0099401Y0135976D02*
X0096198Y0135976D01*
X0095130Y0134908D01*
X0095130Y0133841D01*
X0096198Y0132773D01*
X0099401Y0132773D01*
X0099401Y0139179D01*
X0096198Y0139179D01*
X0095130Y0138111D01*
X0095130Y0137043D01*
X0096198Y0135976D01*
X0092955Y0135976D02*
X0092955Y0133841D01*
X0091888Y0132773D01*
X0089752Y0132773D01*
X0088685Y0133841D01*
X0088685Y0135976D01*
X0089752Y0137043D01*
X0091888Y0137043D01*
X0092955Y0135976D01*
X0086510Y0133841D02*
X0085442Y0134908D01*
X0082239Y0134908D01*
X0082239Y0135976D02*
X0082239Y0132773D01*
X0085442Y0132773D01*
X0086510Y0133841D01*
X0085442Y0137043D02*
X0083307Y0137043D01*
X0082239Y0135976D01*
X0080064Y0137043D02*
X0080064Y0132773D01*
X0080064Y0134908D02*
X0077929Y0137043D01*
X0076861Y0137043D01*
X0074693Y0135976D02*
X0074693Y0133841D01*
X0073625Y0132773D01*
X0070423Y0132773D01*
X0070423Y0139179D01*
X0070423Y0137043D02*
X0073625Y0137043D01*
X0074693Y0135976D01*
X0139175Y0125476D02*
X0139175Y0122273D01*
X0139175Y0125476D02*
X0140242Y0126543D01*
X0143445Y0126543D01*
X0143445Y0122273D01*
X0172450Y0132773D02*
X0172450Y0139179D01*
D11*
X0075095Y0096433D02*
X0072595Y0093933D01*
X0072595Y0078933D01*
D12*
X0064739Y0066838D02*
X0061269Y0061633D01*
X0064739Y0061633D02*
X0061269Y0066838D01*
X0066426Y0066838D02*
X0069895Y0066838D01*
X0068160Y0066838D02*
X0068160Y0061633D01*
X0076269Y0061633D02*
X0079739Y0066838D01*
X0081426Y0065970D02*
X0081426Y0064235D01*
X0082293Y0063368D01*
X0084895Y0063368D01*
X0083160Y0063368D02*
X0081426Y0061633D01*
X0079739Y0061633D02*
X0076269Y0066838D01*
X0081426Y0065970D02*
X0082293Y0066838D01*
X0084895Y0066838D01*
X0084895Y0061633D01*
X0089326Y0084133D02*
X0087791Y0085668D01*
X0092395Y0085668D01*
X0092395Y0087202D02*
X0092395Y0084133D01*
X0092395Y0088737D02*
X0087791Y0091806D01*
X0090093Y0093341D02*
X0087791Y0095643D01*
X0092395Y0095643D01*
X0090093Y0096410D02*
X0090093Y0093341D01*
X0092395Y0091806D02*
X0087791Y0088737D01*
X0090093Y0097945D02*
X0090093Y0101014D01*
X0090093Y0102549D02*
X0090093Y0104851D01*
X0090861Y0105618D01*
X0091628Y0105618D01*
X0092395Y0104851D01*
X0092395Y0102549D01*
X0087791Y0102549D01*
X0087791Y0104851D01*
X0088559Y0105618D01*
X0089326Y0105618D01*
X0090093Y0104851D01*
X0087791Y0107153D02*
X0087791Y0108687D01*
X0087791Y0107920D02*
X0092395Y0107920D01*
X0092395Y0107153D02*
X0092395Y0108687D01*
X0091628Y0110222D02*
X0088559Y0110222D01*
X0087791Y0110989D01*
X0087791Y0112524D01*
X0088559Y0113291D01*
X0090093Y0113291D02*
X0090093Y0111757D01*
X0090093Y0113291D02*
X0091628Y0113291D01*
X0092395Y0112524D01*
X0092395Y0110989D01*
X0091628Y0110222D01*
X0143226Y0178993D02*
X0141691Y0180527D01*
X0146295Y0180527D01*
X0146295Y0178993D02*
X0146295Y0182062D01*
X0146295Y0183596D02*
X0141691Y0183596D01*
X0143226Y0185898D02*
X0144761Y0183596D01*
X0146295Y0185898D01*
X0121260Y0207400D02*
X0120493Y0206633D01*
X0118958Y0206633D01*
X0118191Y0207400D01*
X0118191Y0210470D01*
X0118958Y0211237D01*
X0120493Y0211237D01*
X0121260Y0210470D01*
X0121260Y0208935D02*
X0119726Y0208935D01*
X0121260Y0208935D02*
X0121260Y0207400D01*
X0116657Y0206633D02*
X0115122Y0206633D01*
X0115889Y0206633D02*
X0115889Y0211237D01*
X0115122Y0211237D02*
X0116657Y0211237D01*
X0113587Y0210470D02*
X0113587Y0209702D01*
X0112820Y0208935D01*
X0110518Y0208935D01*
X0108983Y0208935D02*
X0105914Y0208935D01*
X0104379Y0208935D02*
X0101310Y0208935D01*
X0103612Y0211237D01*
X0103612Y0206633D01*
X0099775Y0206633D02*
X0096706Y0211237D01*
X0093637Y0211237D02*
X0093637Y0206633D01*
X0092102Y0206633D02*
X0095172Y0206633D01*
X0096706Y0206633D02*
X0099775Y0211237D01*
X0099775Y0216633D02*
X0096706Y0221237D01*
X0093637Y0221237D02*
X0093637Y0216633D01*
X0092102Y0216633D02*
X0095172Y0216633D01*
X0096706Y0216633D02*
X0099775Y0221237D01*
X0101310Y0218935D02*
X0104379Y0218935D01*
X0105914Y0218935D02*
X0108983Y0218935D01*
X0110518Y0218935D02*
X0112820Y0218935D01*
X0113587Y0218168D01*
X0113587Y0217400D01*
X0112820Y0216633D01*
X0110518Y0216633D01*
X0110518Y0221237D01*
X0112820Y0221237D01*
X0113587Y0220470D01*
X0113587Y0219702D01*
X0112820Y0218935D01*
X0115122Y0216633D02*
X0116657Y0216633D01*
X0115889Y0216633D02*
X0115889Y0221237D01*
X0115122Y0221237D02*
X0116657Y0221237D01*
X0118191Y0220470D02*
X0118191Y0217400D01*
X0118958Y0216633D01*
X0120493Y0216633D01*
X0121260Y0217400D01*
X0121260Y0218935D01*
X0119726Y0218935D01*
X0121260Y0220470D02*
X0120493Y0221237D01*
X0118958Y0221237D01*
X0118191Y0220470D01*
X0118958Y0226633D02*
X0120493Y0226633D01*
X0121260Y0227400D01*
X0121260Y0228935D01*
X0119726Y0228935D01*
X0121260Y0230470D02*
X0120493Y0231237D01*
X0118958Y0231237D01*
X0118191Y0230470D01*
X0118191Y0227400D01*
X0118958Y0226633D01*
X0116657Y0226633D02*
X0115122Y0226633D01*
X0115889Y0226633D02*
X0115889Y0231237D01*
X0115122Y0231237D02*
X0116657Y0231237D01*
X0113587Y0230470D02*
X0113587Y0229702D01*
X0112820Y0228935D01*
X0110518Y0228935D01*
X0108983Y0228935D02*
X0105914Y0228935D01*
X0104379Y0228935D02*
X0101310Y0228935D01*
X0103612Y0231237D01*
X0103612Y0226633D01*
X0099775Y0226633D02*
X0096706Y0231237D01*
X0093637Y0231237D02*
X0093637Y0226633D01*
X0092102Y0226633D02*
X0095172Y0226633D01*
X0096706Y0226633D02*
X0099775Y0231237D01*
X0093637Y0231237D02*
X0092102Y0229702D01*
X0093637Y0221237D02*
X0092102Y0219702D01*
X0093637Y0211237D02*
X0092102Y0209702D01*
X0101310Y0218935D02*
X0103612Y0221237D01*
X0103612Y0216633D01*
X0110518Y0211237D02*
X0112820Y0211237D01*
X0113587Y0210470D01*
X0112820Y0208935D02*
X0113587Y0208168D01*
X0113587Y0207400D01*
X0112820Y0206633D01*
X0110518Y0206633D01*
X0110518Y0211237D01*
X0110518Y0226633D02*
X0112820Y0226633D01*
X0113587Y0227400D01*
X0113587Y0228168D01*
X0112820Y0228935D01*
X0113587Y0230470D02*
X0112820Y0231237D01*
X0110518Y0231237D01*
X0110518Y0226633D01*
M02*
