G75*
%MOIN*%
%OFA0B0*%
%FSLAX25Y25*%
%IPPOS*%
%LPD*%
%AMOC8*
5,1,8,0,0,1.08239X$1,22.5*
%
%ADD10C,0.00400*%
%ADD11C,0.00300*%
%ADD12R,0.00320X0.00080*%
%ADD13R,0.01920X0.00080*%
%ADD14R,0.00800X0.00080*%
%ADD15R,0.00320X0.00080*%
%ADD16R,0.00640X0.00080*%
%ADD17R,0.00720X0.00080*%
%ADD18R,0.00400X0.00080*%
%ADD19R,0.00480X0.00080*%
%ADD20R,0.01840X0.00080*%
%ADD21R,0.00560X0.00080*%
%ADD22R,0.00160X0.00080*%
%ADD23R,0.01920X0.00080*%
%ADD24R,0.00640X0.00080*%
%ADD25R,0.01200X0.00080*%
%ADD26R,0.01280X0.00080*%
%ADD27R,0.00240X0.00080*%
%ADD28R,0.01440X0.00080*%
%ADD29R,0.01520X0.00080*%
%ADD30R,0.00880X0.00080*%
%ADD31R,0.01760X0.00080*%
%ADD32R,0.01840X0.00080*%
%ADD33R,0.00720X0.00080*%
%ADD34R,0.02000X0.00080*%
%ADD35R,0.01360X0.00080*%
%ADD36R,0.02160X0.00080*%
%ADD37R,0.02240X0.00080*%
%ADD38R,0.01040X0.00080*%
%ADD39R,0.02400X0.00080*%
%ADD40R,0.02560X0.00080*%
%ADD41R,0.00960X0.00080*%
%ADD42R,0.02480X0.00080*%
%ADD43R,0.02640X0.00080*%
%ADD44R,0.01120X0.00080*%
%ADD45R,0.01040X0.00080*%
%ADD46R,0.01120X0.00080*%
%ADD47R,0.00080X0.00080*%
%ADD48R,0.02080X0.00080*%
%ADD49R,0.01520X0.00080*%
%ADD50R,0.01600X0.00080*%
%ADD51R,0.01680X0.00080*%
%ADD52R,0.03360X0.00080*%
%ADD53R,0.00240X0.00080*%
%ADD54R,0.02720X0.00080*%
%ADD55R,0.02320X0.00080*%
%ADD56R,0.03760X0.00080*%
%ADD57R,0.03680X0.00080*%
%ADD58R,0.03840X0.00080*%
%ADD59R,0.01440X0.00080*%
%ADD60R,0.02800X0.00080*%
%ADD61R,0.02960X0.00080*%
%ADD62R,0.05440X0.00080*%
%ADD63R,0.05360X0.00080*%
%ADD64R,0.03120X0.00080*%
%ADD65R,0.05280X0.00080*%
%ADD66R,0.03200X0.00080*%
%ADD67R,0.05200X0.00080*%
%ADD68R,0.03280X0.00080*%
%ADD69R,0.05040X0.00080*%
%ADD70R,0.03440X0.00080*%
%ADD71R,0.04960X0.00080*%
%ADD72R,0.04880X0.00080*%
%ADD73R,0.04720X0.00080*%
%ADD74R,0.04240X0.00080*%
%ADD75R,0.04560X0.00080*%
%ADD76R,0.04160X0.00080*%
%ADD77R,0.02320X0.00080*%
%ADD78R,0.03440X0.00080*%
%ADD79R,0.04480X0.00080*%
%ADD80R,0.04080X0.00080*%
%ADD81R,0.03520X0.00080*%
%ADD82R,0.04320X0.00080*%
%ADD83R,0.04000X0.00080*%
%ADD84R,0.02640X0.00080*%
%ADD85R,0.02720X0.00080*%
%ADD86R,0.02880X0.00080*%
%ADD87R,0.03040X0.00080*%
%ADD88R,0.04320X0.00080*%
%ADD89R,0.03120X0.00080*%
%ADD90R,0.04400X0.00080*%
%ADD91R,0.05040X0.00080*%
%ADD92R,0.04720X0.00080*%
%ADD93R,0.03920X0.00080*%
%ADD94R,0.03920X0.00080*%
%ADD95R,0.03600X0.00080*%
%ADD96R,0.10800X0.00080*%
%ADD97R,0.35120X0.00080*%
%ADD98R,0.34080X0.00080*%
%ADD99R,0.34000X0.00080*%
%ADD100R,0.25760X0.00080*%
%ADD101R,0.03520X0.00080*%
%ADD102R,0.13120X0.00080*%
%ADD103R,0.13040X0.00080*%
%ADD104R,0.12880X0.00080*%
%ADD105R,0.12800X0.00080*%
%ADD106R,0.12720X0.00080*%
%ADD107R,0.12640X0.00080*%
%ADD108R,0.12560X0.00080*%
%ADD109R,0.12480X0.00080*%
%ADD110R,0.12400X0.00080*%
%ADD111R,0.12320X0.00080*%
%ADD112R,0.12240X0.00080*%
%ADD113R,0.04240X0.00080*%
%ADD114R,0.03040X0.00080*%
%ADD115R,0.05120X0.00080*%
%ADD116R,0.04800X0.00080*%
%ADD117R,0.04640X0.00080*%
%ADD118C,0.01000*%
%ADD119C,0.02400*%
%ADD120C,0.00800*%
%ADD121R,0.00591X0.01181*%
%ADD122R,0.01181X0.01181*%
%ADD123C,0.00600*%
D10*
X0075095Y0061933D02*
X0075095Y0066537D01*
X0077397Y0066537D01*
X0078164Y0065770D01*
X0078164Y0064235D01*
X0077397Y0063468D01*
X0075095Y0063468D01*
X0076630Y0063468D02*
X0078164Y0061933D01*
X0079699Y0061933D02*
X0082768Y0066537D01*
X0079699Y0066537D02*
X0082768Y0061933D01*
X0069968Y0062633D02*
X0066899Y0067237D01*
X0069968Y0062633D01*
X0066899Y0062633D02*
X0069968Y0067237D01*
X0066899Y0062633D01*
X0063830Y0062633D02*
X0063830Y0067237D01*
X0063830Y0062633D01*
X0065364Y0067237D02*
X0062295Y0067237D01*
X0065364Y0067237D01*
X0105191Y0069579D02*
X0107793Y0066977D01*
X0107793Y0070446D01*
X0110395Y0069579D02*
X0105191Y0069579D01*
X0106058Y0065290D02*
X0105191Y0064422D01*
X0105191Y0061820D01*
X0110395Y0061820D01*
X0110395Y0064422D01*
X0109528Y0065290D01*
X0106058Y0065290D01*
X0115191Y0064422D02*
X0115191Y0061820D01*
X0120395Y0061820D01*
X0120395Y0064422D01*
X0119528Y0065290D01*
X0116058Y0065290D01*
X0115191Y0064422D01*
X0115191Y0066977D02*
X0117793Y0066977D01*
X0116926Y0068711D01*
X0116926Y0069579D01*
X0117793Y0070446D01*
X0119528Y0070446D01*
X0120395Y0069579D01*
X0120395Y0067844D01*
X0119528Y0066977D01*
X0115191Y0066977D02*
X0115191Y0070446D01*
X0125191Y0070446D02*
X0126058Y0068711D01*
X0127793Y0066977D01*
X0127793Y0069579D01*
X0128660Y0070446D01*
X0129528Y0070446D01*
X0130395Y0069579D01*
X0130395Y0067844D01*
X0129528Y0066977D01*
X0127793Y0066977D01*
X0129528Y0065290D02*
X0126058Y0065290D01*
X0125191Y0064422D01*
X0125191Y0061820D01*
X0130395Y0061820D01*
X0130395Y0064422D01*
X0129528Y0065290D01*
X0135191Y0064422D02*
X0135191Y0061820D01*
X0140395Y0061820D01*
X0140395Y0064422D01*
X0139528Y0065290D01*
X0136058Y0065290D01*
X0135191Y0064422D01*
X0135191Y0066977D02*
X0135191Y0070446D01*
X0136058Y0070446D01*
X0139528Y0066977D01*
X0140395Y0066977D01*
X0151191Y0067844D02*
X0151191Y0069579D01*
X0152058Y0070446D01*
X0152926Y0070446D01*
X0153793Y0069579D01*
X0153793Y0067844D01*
X0152926Y0066977D01*
X0152058Y0066977D01*
X0151191Y0067844D01*
X0153793Y0067844D02*
X0154660Y0066977D01*
X0155528Y0066977D01*
X0156395Y0067844D01*
X0156395Y0069579D01*
X0155528Y0070446D01*
X0154660Y0070446D01*
X0153793Y0069579D01*
X0155528Y0065290D02*
X0152058Y0065290D01*
X0151191Y0064422D01*
X0151191Y0061820D01*
X0156395Y0061820D01*
X0156395Y0064422D01*
X0155528Y0065290D01*
X0161191Y0064422D02*
X0161191Y0061820D01*
X0166395Y0061820D01*
X0166395Y0064422D01*
X0165528Y0065290D01*
X0162058Y0065290D01*
X0161191Y0064422D01*
X0162058Y0066977D02*
X0162926Y0066977D01*
X0163793Y0067844D01*
X0163793Y0070446D01*
X0165528Y0070446D02*
X0162058Y0070446D01*
X0161191Y0069579D01*
X0161191Y0067844D01*
X0162058Y0066977D01*
X0165528Y0066977D02*
X0166395Y0067844D01*
X0166395Y0069579D01*
X0165528Y0070446D01*
X0171191Y0068555D02*
X0176395Y0068555D01*
X0176395Y0066820D02*
X0176395Y0070290D01*
X0175528Y0071977D02*
X0172058Y0075446D01*
X0175528Y0075446D01*
X0176395Y0074579D01*
X0176395Y0072844D01*
X0175528Y0071977D01*
X0172058Y0071977D01*
X0171191Y0072844D01*
X0171191Y0074579D01*
X0172058Y0075446D01*
X0181191Y0073711D02*
X0186395Y0073711D01*
X0186395Y0071977D02*
X0186395Y0075446D01*
X0191191Y0074579D02*
X0191191Y0072844D01*
X0192058Y0071977D01*
X0191191Y0074579D02*
X0192058Y0075446D01*
X0192926Y0075446D01*
X0196395Y0071977D01*
X0196395Y0075446D01*
X0201191Y0074579D02*
X0202058Y0075446D01*
X0202926Y0075446D01*
X0203793Y0074579D01*
X0204660Y0075446D01*
X0205528Y0075446D01*
X0206395Y0074579D01*
X0206395Y0072844D01*
X0205528Y0071977D01*
X0206395Y0070290D02*
X0206395Y0066820D01*
X0206395Y0068555D02*
X0201191Y0068555D01*
X0202926Y0066820D01*
X0202058Y0065133D02*
X0205528Y0065133D01*
X0206395Y0064266D01*
X0206395Y0061664D01*
X0201191Y0061664D01*
X0201191Y0064266D01*
X0202058Y0065133D01*
X0196395Y0064266D02*
X0195528Y0065133D01*
X0192058Y0065133D01*
X0191191Y0064266D01*
X0191191Y0061664D01*
X0196395Y0061664D01*
X0196395Y0064266D01*
X0196395Y0066820D02*
X0196395Y0070290D01*
X0196395Y0068555D02*
X0191191Y0068555D01*
X0192926Y0066820D01*
X0186395Y0066820D02*
X0186395Y0070290D01*
X0186395Y0068555D02*
X0181191Y0068555D01*
X0182926Y0066820D01*
X0182058Y0065133D02*
X0185528Y0065133D01*
X0186395Y0064266D01*
X0186395Y0061664D01*
X0181191Y0061664D01*
X0181191Y0064266D01*
X0182058Y0065133D01*
X0176395Y0064266D02*
X0175528Y0065133D01*
X0172058Y0065133D01*
X0171191Y0064266D01*
X0171191Y0061664D01*
X0176395Y0061664D01*
X0176395Y0064266D01*
X0172926Y0066820D02*
X0171191Y0068555D01*
X0181191Y0073711D02*
X0182926Y0071977D01*
X0201191Y0072844D02*
X0202058Y0071977D01*
X0201191Y0072844D02*
X0201191Y0074579D01*
X0203793Y0074579D02*
X0203793Y0073711D01*
X0250795Y0086900D02*
X0251562Y0086133D01*
X0253097Y0086133D01*
X0253864Y0086900D01*
X0253864Y0087668D01*
X0253097Y0088435D01*
X0251562Y0088435D01*
X0250795Y0089202D01*
X0250795Y0089970D01*
X0251562Y0090737D01*
X0253097Y0090737D01*
X0253864Y0089970D01*
X0255399Y0090737D02*
X0255399Y0086133D01*
X0257701Y0086133D01*
X0258468Y0086900D01*
X0258468Y0089970D01*
X0257701Y0090737D01*
X0255399Y0090737D01*
X0260003Y0089202D02*
X0261538Y0090737D01*
X0263072Y0089202D01*
X0263072Y0086133D01*
X0263072Y0088435D02*
X0260003Y0088435D01*
X0260003Y0089202D02*
X0260003Y0086133D01*
X0260003Y0096133D02*
X0263072Y0096133D01*
X0260003Y0096133D02*
X0260003Y0100737D01*
X0258468Y0099970D02*
X0257701Y0100737D01*
X0256166Y0100737D01*
X0255399Y0099970D01*
X0255399Y0096900D01*
X0256166Y0096133D01*
X0257701Y0096133D01*
X0258468Y0096900D01*
X0253864Y0096900D02*
X0253097Y0096133D01*
X0251562Y0096133D01*
X0250795Y0096900D01*
X0251562Y0098435D02*
X0250795Y0099202D01*
X0250795Y0099970D01*
X0251562Y0100737D01*
X0253097Y0100737D01*
X0253864Y0099970D01*
X0253097Y0098435D02*
X0253864Y0097668D01*
X0253864Y0096900D01*
X0253097Y0098435D02*
X0251562Y0098435D01*
X0251562Y0106133D02*
X0253097Y0106133D01*
X0253864Y0106900D01*
X0253864Y0108435D01*
X0252330Y0108435D01*
X0253864Y0109970D02*
X0253097Y0110737D01*
X0251562Y0110737D01*
X0250795Y0109970D01*
X0250795Y0106900D01*
X0251562Y0106133D01*
X0255399Y0106133D02*
X0255399Y0109202D01*
X0257701Y0109202D01*
X0258468Y0108435D01*
X0258468Y0106133D01*
X0260003Y0106900D02*
X0260770Y0106133D01*
X0263072Y0106133D01*
X0263072Y0110737D01*
X0263072Y0109202D02*
X0260770Y0109202D01*
X0260003Y0108435D01*
X0260003Y0106900D01*
X0257686Y0116133D02*
X0259421Y0117868D01*
X0259421Y0121338D01*
X0255952Y0121338D02*
X0255952Y0117868D01*
X0257686Y0116133D01*
X0254265Y0117000D02*
X0253397Y0116133D01*
X0251663Y0116133D01*
X0250795Y0117000D01*
X0250795Y0118735D02*
X0252530Y0119603D01*
X0253397Y0119603D01*
X0254265Y0118735D01*
X0254265Y0117000D01*
X0250795Y0118735D02*
X0250795Y0121338D01*
X0254265Y0121338D01*
X0245877Y0161273D02*
X0243575Y0161273D01*
X0242808Y0162040D01*
X0242808Y0163575D01*
X0243575Y0164342D01*
X0245877Y0164342D01*
X0245877Y0165877D02*
X0245877Y0161273D01*
X0241273Y0161273D02*
X0239739Y0161273D01*
X0240506Y0161273D02*
X0240506Y0165877D01*
X0239739Y0165877D01*
X0238204Y0163575D02*
X0238204Y0162808D01*
X0235135Y0162808D01*
X0235135Y0163575D02*
X0235135Y0162040D01*
X0235902Y0161273D01*
X0237437Y0161273D01*
X0238204Y0163575D02*
X0237437Y0164342D01*
X0235902Y0164342D01*
X0235135Y0163575D01*
X0232833Y0164342D02*
X0232833Y0161273D01*
X0233600Y0161273D02*
X0232065Y0161273D01*
X0230531Y0161273D02*
X0230531Y0163575D01*
X0229763Y0164342D01*
X0228229Y0164342D01*
X0227461Y0163575D01*
X0225927Y0162808D02*
X0225927Y0162040D01*
X0225160Y0161273D01*
X0223625Y0161273D01*
X0222858Y0162040D01*
X0223625Y0163575D02*
X0222858Y0164342D01*
X0222858Y0165110D01*
X0223625Y0165877D01*
X0225160Y0165877D01*
X0225927Y0165110D01*
X0227461Y0165877D02*
X0227461Y0161273D01*
X0225927Y0162808D02*
X0225160Y0163575D01*
X0223625Y0163575D01*
X0216719Y0164342D02*
X0214417Y0164342D01*
X0213650Y0163575D01*
X0214417Y0162808D01*
X0215952Y0162808D01*
X0216719Y0162040D01*
X0215952Y0161273D01*
X0213650Y0161273D01*
X0212115Y0162040D02*
X0212115Y0163575D01*
X0211348Y0164342D01*
X0209813Y0164342D01*
X0209046Y0163575D01*
X0209046Y0162040D01*
X0209813Y0161273D01*
X0211348Y0161273D01*
X0212115Y0162040D01*
X0207511Y0161273D02*
X0207511Y0165877D01*
X0205977Y0164342D01*
X0204442Y0165877D01*
X0204442Y0161273D01*
X0202907Y0162808D02*
X0199838Y0162808D01*
X0199838Y0163575D02*
X0199838Y0162040D01*
X0200605Y0161273D01*
X0202140Y0161273D01*
X0202907Y0162808D02*
X0202907Y0163575D01*
X0202140Y0164342D01*
X0200605Y0164342D01*
X0199838Y0163575D01*
X0198303Y0161273D02*
X0198303Y0165877D01*
X0195234Y0165877D02*
X0195234Y0161273D01*
X0196769Y0162808D01*
X0198303Y0161273D01*
X0189095Y0162040D02*
X0188328Y0161273D01*
X0186793Y0161273D01*
X0186026Y0162040D01*
X0186026Y0165110D01*
X0186793Y0165877D01*
X0188328Y0165877D01*
X0189095Y0165110D01*
X0184492Y0165877D02*
X0181422Y0165877D01*
X0181422Y0161273D01*
X0181422Y0163575D02*
X0182957Y0163575D01*
X0179888Y0163575D02*
X0179120Y0162808D01*
X0176818Y0162808D01*
X0176818Y0161273D02*
X0176818Y0165877D01*
X0179120Y0165877D01*
X0179888Y0165110D01*
X0179888Y0163575D01*
X0198411Y0196053D02*
X0199945Y0196053D01*
X0200713Y0196820D01*
X0200713Y0198355D01*
X0199178Y0198355D01*
X0200713Y0199890D02*
X0199945Y0200657D01*
X0198411Y0200657D01*
X0197643Y0199890D01*
X0197643Y0196820D01*
X0198411Y0196053D01*
X0202247Y0196053D02*
X0202247Y0200657D01*
X0205317Y0196053D01*
X0205317Y0200657D01*
X0206851Y0200657D02*
X0209153Y0200657D01*
X0209920Y0199890D01*
X0209920Y0196820D01*
X0209153Y0196053D01*
X0206851Y0196053D01*
X0206851Y0200657D01*
X0208198Y0206733D02*
X0208198Y0211337D01*
X0209732Y0211337D02*
X0206663Y0211337D01*
X0205128Y0210570D02*
X0204361Y0211337D01*
X0202826Y0211337D01*
X0202059Y0210570D01*
X0202059Y0209802D01*
X0202826Y0209035D01*
X0204361Y0209035D01*
X0205128Y0208268D01*
X0205128Y0207500D01*
X0204361Y0206733D01*
X0202826Y0206733D01*
X0202059Y0207500D01*
X0200524Y0206733D02*
X0198990Y0208268D01*
X0199757Y0208268D02*
X0197455Y0208268D01*
X0197455Y0206733D02*
X0197455Y0211337D01*
X0199757Y0211337D01*
X0200524Y0210570D01*
X0200524Y0209035D01*
X0199757Y0208268D01*
X0199528Y0223320D02*
X0200395Y0224188D01*
X0200395Y0225922D01*
X0199528Y0226790D01*
X0197793Y0226790D01*
X0196926Y0225922D01*
X0196926Y0225055D01*
X0197793Y0223320D01*
X0195191Y0223320D01*
X0195191Y0226790D01*
X0195191Y0228477D02*
X0198660Y0228477D01*
X0200395Y0230211D01*
X0198660Y0231946D01*
X0195191Y0231946D01*
X0190395Y0231079D02*
X0190395Y0229344D01*
X0189528Y0228477D01*
X0190395Y0226790D02*
X0188660Y0225055D01*
X0188660Y0225922D02*
X0188660Y0223320D01*
X0190395Y0223320D02*
X0185191Y0223320D01*
X0185191Y0225922D01*
X0186058Y0226790D01*
X0187793Y0226790D01*
X0188660Y0225922D01*
X0186926Y0228477D02*
X0187793Y0229344D01*
X0187793Y0231079D01*
X0188660Y0231946D01*
X0189528Y0231946D01*
X0190395Y0231079D01*
X0186926Y0228477D02*
X0186058Y0228477D01*
X0185191Y0229344D01*
X0185191Y0231079D01*
X0186058Y0231946D01*
X0180395Y0231079D02*
X0180395Y0229344D01*
X0179528Y0228477D01*
X0179528Y0226766D02*
X0180395Y0226766D01*
X0180395Y0225898D01*
X0179528Y0225898D01*
X0179528Y0226766D01*
X0179528Y0224212D02*
X0178660Y0224212D01*
X0177793Y0223344D01*
X0177793Y0222477D01*
X0177793Y0223344D02*
X0176926Y0224212D01*
X0176058Y0224212D01*
X0175191Y0223344D01*
X0175191Y0221609D01*
X0176058Y0220742D01*
X0179528Y0220742D02*
X0180395Y0221609D01*
X0180395Y0223344D01*
X0179528Y0224212D01*
X0176058Y0228477D02*
X0175191Y0229344D01*
X0175191Y0231079D01*
X0176058Y0231946D01*
X0176926Y0231946D01*
X0177793Y0231079D01*
X0178660Y0231946D01*
X0179528Y0231946D01*
X0180395Y0231079D01*
X0177793Y0231079D02*
X0177793Y0230211D01*
X0170395Y0230211D02*
X0168660Y0231946D01*
X0165191Y0231946D01*
X0165191Y0228477D02*
X0168660Y0228477D01*
X0170395Y0230211D01*
X0169528Y0226790D02*
X0167793Y0226790D01*
X0166926Y0225922D01*
X0166926Y0225055D01*
X0167793Y0223320D01*
X0165191Y0223320D01*
X0165191Y0226790D01*
X0169528Y0226790D02*
X0170395Y0225922D01*
X0170395Y0224188D01*
X0169528Y0223320D01*
X0161078Y0221238D02*
X0161078Y0216033D01*
X0158475Y0216033D01*
X0157608Y0216900D01*
X0157608Y0218635D01*
X0158475Y0219503D01*
X0161078Y0219503D01*
X0155921Y0218635D02*
X0155921Y0216033D01*
X0155921Y0218635D02*
X0155054Y0219503D01*
X0152452Y0219503D01*
X0152452Y0216033D01*
X0150765Y0216900D02*
X0150765Y0218635D01*
X0149030Y0218635D01*
X0150765Y0216900D02*
X0149897Y0216033D01*
X0148163Y0216033D01*
X0147295Y0216900D01*
X0147295Y0220370D01*
X0148163Y0221238D01*
X0149897Y0221238D01*
X0150765Y0220370D01*
X0139395Y0220446D02*
X0136793Y0220446D01*
X0135926Y0219579D01*
X0135926Y0216977D01*
X0139395Y0216977D01*
X0139395Y0215274D02*
X0139395Y0213539D01*
X0139395Y0214406D02*
X0135926Y0214406D01*
X0135926Y0213539D01*
X0134191Y0214406D02*
X0133323Y0214406D01*
X0134191Y0211852D02*
X0137660Y0211852D01*
X0139395Y0210117D01*
X0137660Y0208383D01*
X0134191Y0208383D01*
X0120395Y0225820D02*
X0116926Y0225820D01*
X0115191Y0227555D01*
X0116926Y0229290D01*
X0120395Y0229290D01*
X0119528Y0230977D02*
X0116058Y0234446D01*
X0119528Y0234446D01*
X0120395Y0233579D01*
X0120395Y0231844D01*
X0119528Y0230977D01*
X0116058Y0230977D01*
X0115191Y0231844D01*
X0115191Y0233579D01*
X0116058Y0234446D01*
X0110395Y0234446D02*
X0110395Y0230977D01*
X0110395Y0229290D02*
X0106926Y0229290D01*
X0105191Y0227555D01*
X0106926Y0225820D01*
X0110395Y0225820D01*
X0107793Y0225820D02*
X0107793Y0229290D01*
X0106926Y0230977D02*
X0105191Y0232711D01*
X0110395Y0232711D01*
X0117793Y0229290D02*
X0117793Y0225820D01*
X0100395Y0225820D02*
X0096926Y0225820D01*
X0095191Y0227555D01*
X0096926Y0229290D01*
X0100395Y0229290D01*
X0100395Y0230977D02*
X0096926Y0234446D01*
X0096058Y0234446D01*
X0095191Y0233579D01*
X0095191Y0231844D01*
X0096058Y0230977D01*
X0097793Y0229290D02*
X0097793Y0225820D01*
X0100395Y0230977D02*
X0100395Y0234446D01*
X0090395Y0233579D02*
X0090395Y0231844D01*
X0089528Y0230977D01*
X0090395Y0229290D02*
X0086926Y0229290D01*
X0085191Y0227555D01*
X0086926Y0225820D01*
X0090395Y0225820D01*
X0087793Y0225820D02*
X0087793Y0229290D01*
X0086058Y0230977D02*
X0085191Y0231844D01*
X0085191Y0233579D01*
X0086058Y0234446D01*
X0086926Y0234446D01*
X0087793Y0233579D01*
X0088660Y0234446D01*
X0089528Y0234446D01*
X0090395Y0233579D01*
X0087793Y0233579D02*
X0087793Y0232711D01*
X0076791Y0222218D02*
X0075057Y0222218D01*
X0074189Y0221350D01*
X0074189Y0217880D01*
X0075057Y0217013D01*
X0076791Y0217013D01*
X0077659Y0217880D01*
X0077659Y0219615D01*
X0075924Y0219615D01*
X0077659Y0221350D02*
X0076791Y0222218D01*
X0072486Y0222218D02*
X0070752Y0222218D01*
X0071619Y0222218D02*
X0071619Y0217013D01*
X0070752Y0217013D02*
X0072486Y0217013D01*
X0069065Y0217880D02*
X0068197Y0217013D01*
X0066463Y0217013D01*
X0065595Y0217880D01*
X0066463Y0219615D02*
X0068197Y0219615D01*
X0069065Y0218748D01*
X0069065Y0217880D01*
X0066463Y0219615D02*
X0065595Y0220483D01*
X0065595Y0221350D01*
X0066463Y0222218D01*
X0068197Y0222218D01*
X0069065Y0221350D01*
X0070045Y0211977D02*
X0066575Y0211977D01*
X0066575Y0209375D01*
X0068310Y0210243D01*
X0069177Y0210243D01*
X0070045Y0209375D01*
X0070045Y0207640D01*
X0069177Y0206773D01*
X0067443Y0206773D01*
X0066575Y0207640D01*
X0071732Y0208508D02*
X0071732Y0211977D01*
X0071732Y0208508D02*
X0073466Y0206773D01*
X0075201Y0208508D01*
X0075201Y0211977D01*
X0075368Y0201737D02*
X0077970Y0201737D01*
X0078838Y0200870D01*
X0078838Y0197400D01*
X0077970Y0196533D01*
X0075368Y0196533D01*
X0075368Y0201737D01*
X0073681Y0201737D02*
X0073681Y0196533D01*
X0070212Y0201737D01*
X0070212Y0196533D01*
X0068525Y0197400D02*
X0068525Y0199135D01*
X0066790Y0199135D01*
X0068525Y0197400D02*
X0067657Y0196533D01*
X0065923Y0196533D01*
X0065055Y0197400D01*
X0065055Y0200870D01*
X0065923Y0201737D01*
X0067657Y0201737D01*
X0068525Y0200870D01*
X0088062Y0121737D02*
X0087295Y0120970D01*
X0087295Y0117900D01*
X0088062Y0117133D01*
X0089597Y0117133D01*
X0090364Y0117900D01*
X0090364Y0119435D01*
X0088830Y0119435D01*
X0090364Y0120970D02*
X0089597Y0121737D01*
X0088062Y0121737D01*
X0091899Y0120202D02*
X0094201Y0120202D01*
X0094968Y0119435D01*
X0094968Y0117133D01*
X0096503Y0117900D02*
X0096503Y0119435D01*
X0097270Y0120202D01*
X0099572Y0120202D01*
X0099572Y0121737D02*
X0099572Y0117133D01*
X0097270Y0117133D01*
X0096503Y0117900D01*
X0091899Y0117133D02*
X0091899Y0120202D01*
X0091265Y0111338D02*
X0087795Y0111338D01*
X0087795Y0108735D01*
X0089530Y0109603D01*
X0090397Y0109603D01*
X0091265Y0108735D01*
X0091265Y0107000D01*
X0090397Y0106133D01*
X0088663Y0106133D01*
X0087795Y0107000D01*
X0092952Y0107868D02*
X0094686Y0106133D01*
X0096421Y0107868D01*
X0096421Y0111338D01*
X0092952Y0111338D02*
X0092952Y0107868D01*
X0123595Y0081350D02*
X0123595Y0080483D01*
X0124463Y0079615D01*
X0126197Y0079615D01*
X0127065Y0078748D01*
X0127065Y0077880D01*
X0126197Y0077013D01*
X0124463Y0077013D01*
X0123595Y0077880D01*
X0123595Y0081350D02*
X0124463Y0082218D01*
X0126197Y0082218D01*
X0127065Y0081350D01*
X0128752Y0081350D02*
X0128752Y0077880D01*
X0129619Y0077013D01*
X0131354Y0077013D01*
X0132221Y0077880D01*
X0133908Y0077013D02*
X0133908Y0082218D01*
X0136510Y0082218D01*
X0137378Y0081350D01*
X0137378Y0079615D01*
X0136510Y0078748D01*
X0133908Y0078748D01*
X0135643Y0078748D02*
X0137378Y0077013D01*
X0139064Y0077013D02*
X0142534Y0077013D01*
X0144221Y0077013D02*
X0147690Y0077013D01*
X0149377Y0077013D02*
X0149377Y0082218D01*
X0152847Y0077013D01*
X0152847Y0082218D01*
X0147690Y0082218D02*
X0144221Y0082218D01*
X0144221Y0077013D01*
X0144221Y0079615D02*
X0145956Y0079615D01*
X0142534Y0082218D02*
X0139064Y0082218D01*
X0139064Y0077013D01*
X0139064Y0079615D02*
X0140799Y0079615D01*
X0132221Y0081350D02*
X0131354Y0082218D01*
X0129619Y0082218D01*
X0128752Y0081350D01*
X0232065Y0164342D02*
X0232833Y0164342D01*
X0232833Y0165877D02*
X0232833Y0166644D01*
D11*
X0242751Y0153043D02*
X0242751Y0152426D01*
X0242751Y0151192D02*
X0242751Y0148723D01*
X0242134Y0148723D02*
X0243368Y0148723D01*
X0244589Y0148723D02*
X0244589Y0151192D01*
X0245207Y0151192D01*
X0245824Y0150575D01*
X0246441Y0151192D01*
X0247058Y0150575D01*
X0247058Y0148723D01*
X0245824Y0148723D02*
X0245824Y0150575D01*
X0242751Y0151192D02*
X0242134Y0151192D01*
X0240920Y0148723D02*
X0238451Y0148723D01*
X0238451Y0152426D01*
X0233553Y0150575D02*
X0233553Y0148723D01*
X0233553Y0150575D02*
X0232936Y0151192D01*
X0231085Y0151192D01*
X0231085Y0148723D01*
X0229870Y0148723D02*
X0229870Y0150575D01*
X0229253Y0151192D01*
X0228019Y0151192D01*
X0227401Y0150575D01*
X0226187Y0150575D02*
X0226187Y0149340D01*
X0225570Y0148723D01*
X0224335Y0148723D01*
X0223718Y0149340D01*
X0223718Y0150575D01*
X0224335Y0151192D01*
X0225570Y0151192D01*
X0226187Y0150575D01*
X0227401Y0152426D02*
X0227401Y0148723D01*
X0221887Y0149340D02*
X0221887Y0152426D01*
X0221270Y0152426D02*
X0222504Y0152426D01*
X0221887Y0149340D02*
X0221270Y0148723D01*
X0220652Y0148723D01*
X0220035Y0149340D01*
X0215138Y0148723D02*
X0213286Y0148723D01*
X0212669Y0149340D01*
X0212669Y0151192D01*
X0211455Y0150575D02*
X0210837Y0151192D01*
X0208986Y0151192D01*
X0208986Y0152426D02*
X0208986Y0148723D01*
X0210837Y0148723D01*
X0211455Y0149340D01*
X0211455Y0150575D01*
X0215138Y0151192D02*
X0215138Y0148106D01*
X0214520Y0147489D01*
X0213903Y0147489D01*
X0204088Y0148723D02*
X0202237Y0148723D01*
X0201619Y0149340D01*
X0201619Y0150575D01*
X0202237Y0151192D01*
X0204088Y0151192D01*
X0204088Y0152426D02*
X0204088Y0148723D01*
X0200405Y0149957D02*
X0200405Y0150575D01*
X0199788Y0151192D01*
X0198553Y0151192D01*
X0197936Y0150575D01*
X0197936Y0149340D01*
X0198553Y0148723D01*
X0199788Y0148723D01*
X0200405Y0149957D02*
X0197936Y0149957D01*
X0196722Y0150575D02*
X0196722Y0148723D01*
X0196722Y0150575D02*
X0196105Y0151192D01*
X0194253Y0151192D01*
X0194253Y0148723D01*
X0193039Y0148723D02*
X0191187Y0148723D01*
X0190570Y0149340D01*
X0190570Y0150575D01*
X0191187Y0151192D01*
X0193039Y0151192D01*
X0193039Y0148106D01*
X0192422Y0147489D01*
X0191804Y0147489D01*
X0189349Y0148723D02*
X0188115Y0148723D01*
X0188732Y0148723D02*
X0188732Y0151192D01*
X0188115Y0151192D01*
X0186900Y0151192D02*
X0185049Y0151192D01*
X0184431Y0150575D01*
X0185049Y0149957D01*
X0186283Y0149957D01*
X0186900Y0149340D01*
X0186283Y0148723D01*
X0184431Y0148723D01*
X0183217Y0149957D02*
X0180748Y0149957D01*
X0180748Y0149340D02*
X0180748Y0150575D01*
X0181365Y0151192D01*
X0182600Y0151192D01*
X0183217Y0150575D01*
X0183217Y0149957D01*
X0182600Y0148723D02*
X0181365Y0148723D01*
X0180748Y0149340D01*
X0179534Y0149340D02*
X0179534Y0151809D01*
X0178917Y0152426D01*
X0177065Y0152426D01*
X0177065Y0148723D01*
X0178917Y0148723D01*
X0179534Y0149340D01*
X0188732Y0152426D02*
X0188732Y0153043D01*
X0232976Y0075418D02*
X0235445Y0075418D01*
X0233594Y0075418D02*
X0233594Y0072949D01*
X0232976Y0072949D02*
X0231742Y0074184D01*
X0232976Y0075418D01*
X0232976Y0072949D02*
X0235445Y0072949D01*
X0234828Y0071735D02*
X0232359Y0071735D01*
X0231742Y0071118D01*
X0231742Y0069266D01*
X0235445Y0069266D01*
X0235445Y0071118D01*
X0234828Y0071735D01*
X0234828Y0068052D02*
X0235445Y0067435D01*
X0235445Y0066200D01*
X0234828Y0065583D01*
X0233594Y0066200D02*
X0233594Y0067435D01*
X0234211Y0068052D01*
X0234828Y0068052D01*
X0233594Y0066200D02*
X0232976Y0065583D01*
X0232359Y0065583D01*
X0231742Y0066200D01*
X0231742Y0067435D01*
X0232359Y0068052D01*
X0241742Y0067435D02*
X0241742Y0066200D01*
X0242359Y0065583D01*
X0242976Y0065583D01*
X0243594Y0066200D01*
X0243594Y0067435D01*
X0244211Y0068052D01*
X0244828Y0068052D01*
X0245445Y0067435D01*
X0245445Y0066200D01*
X0244828Y0065583D01*
X0242359Y0068052D02*
X0241742Y0067435D01*
X0242359Y0069266D02*
X0244828Y0069266D01*
X0245445Y0069883D01*
X0245445Y0071118D01*
X0244828Y0071735D01*
X0245445Y0072949D02*
X0241742Y0072949D01*
X0242359Y0071735D02*
X0241742Y0071118D01*
X0241742Y0069883D01*
X0242359Y0069266D01*
X0245445Y0072949D02*
X0245445Y0075418D01*
D12*
X0167015Y0115233D03*
X0159975Y0114993D03*
X0143815Y0114433D03*
X0139015Y0117073D03*
X0139015Y0117153D03*
X0121015Y0114193D03*
X0153575Y0143393D03*
X0148375Y0159313D03*
X0148215Y0159393D03*
X0147975Y0159553D03*
X0148215Y0164433D03*
X0151015Y0164353D03*
D13*
X0143655Y0124513D03*
X0151735Y0117073D03*
X0162855Y0117073D03*
X0168055Y0120273D03*
X0132695Y0117073D03*
X0129895Y0117073D03*
X0129895Y0116993D03*
X0129895Y0116913D03*
X0129895Y0116833D03*
X0129895Y0117153D03*
X0129895Y0117233D03*
X0129895Y0117313D03*
X0129895Y0117393D03*
X0129895Y0114673D03*
X0129895Y0114593D03*
X0129895Y0114513D03*
X0129895Y0114433D03*
X0129895Y0114353D03*
X0129895Y0114273D03*
X0129895Y0114193D03*
X0122935Y0114193D03*
X0122935Y0114273D03*
X0122935Y0114353D03*
X0122935Y0114433D03*
X0122935Y0114513D03*
X0122935Y0114593D03*
X0122935Y0114673D03*
X0122935Y0114753D03*
X0122935Y0114833D03*
D14*
X0125015Y0114833D03*
X0125015Y0114753D03*
X0125015Y0114673D03*
X0125015Y0114593D03*
X0125015Y0114513D03*
X0125015Y0114433D03*
X0125015Y0114353D03*
X0125015Y0114273D03*
X0125015Y0114193D03*
X0125015Y0114913D03*
X0125015Y0114993D03*
X0125015Y0115073D03*
X0125015Y0115153D03*
X0125015Y0115233D03*
X0125015Y0115313D03*
X0125015Y0115393D03*
X0125015Y0115473D03*
X0125015Y0115553D03*
X0125015Y0115633D03*
X0125015Y0115713D03*
X0125015Y0115793D03*
X0125015Y0115873D03*
X0125015Y0115953D03*
X0125015Y0116033D03*
X0125015Y0116113D03*
X0125015Y0116193D03*
X0125015Y0116273D03*
X0125015Y0116353D03*
X0125015Y0116433D03*
X0125015Y0116513D03*
X0125015Y0116593D03*
X0125015Y0116673D03*
X0125015Y0116753D03*
X0125015Y0116833D03*
X0125015Y0116913D03*
X0125015Y0116993D03*
X0125015Y0117073D03*
X0125015Y0117153D03*
X0125015Y0117233D03*
X0125015Y0117313D03*
X0125015Y0117393D03*
X0126615Y0116753D03*
X0126615Y0116673D03*
X0126615Y0116593D03*
X0126615Y0116513D03*
X0126615Y0116433D03*
X0126615Y0116353D03*
X0126615Y0116273D03*
X0126615Y0116193D03*
X0126615Y0115473D03*
X0126615Y0115393D03*
X0126615Y0115313D03*
X0126615Y0115233D03*
X0126615Y0115153D03*
X0126615Y0115073D03*
X0126615Y0114993D03*
X0126615Y0114913D03*
X0126615Y0114833D03*
X0126615Y0114753D03*
X0126615Y0114673D03*
X0126615Y0114593D03*
X0126615Y0114513D03*
X0126615Y0114433D03*
X0126615Y0114353D03*
X0126615Y0114273D03*
X0126615Y0114193D03*
X0129335Y0114753D03*
X0129335Y0115473D03*
X0129335Y0116753D03*
X0139015Y0116673D03*
X0141735Y0116673D03*
X0143575Y0114913D03*
X0148455Y0115553D03*
X0155095Y0114353D03*
X0155495Y0115553D03*
X0158215Y0115553D03*
X0158215Y0115473D03*
X0158215Y0115393D03*
X0158295Y0115313D03*
X0158215Y0116033D03*
X0158215Y0116113D03*
X0158295Y0116273D03*
X0161655Y0116033D03*
X0161735Y0116193D03*
X0161735Y0116273D03*
X0161655Y0115553D03*
X0161735Y0115313D03*
X0162855Y0114193D03*
X0163975Y0115233D03*
X0163975Y0115313D03*
X0164055Y0115393D03*
X0164055Y0115473D03*
X0164055Y0115553D03*
X0164055Y0116033D03*
X0164055Y0116113D03*
X0163975Y0116273D03*
X0165735Y0115793D03*
X0165735Y0116913D03*
X0167015Y0115473D03*
X0168295Y0115793D03*
X0168295Y0116913D03*
X0143095Y0125633D03*
X0138455Y0125713D03*
X0117735Y0115953D03*
X0117735Y0115873D03*
X0116775Y0114673D03*
X0112935Y0114673D03*
X0112055Y0115873D03*
X0112055Y0115953D03*
X0111175Y0114753D03*
X0111175Y0114673D03*
X0105575Y0114673D03*
X0105575Y0114753D03*
X0149575Y0158993D03*
X0149575Y0160673D03*
X0118615Y0179393D03*
X0118615Y0179473D03*
D15*
X0118855Y0178673D03*
X0119335Y0174593D03*
X0147735Y0164113D03*
X0148055Y0164353D03*
X0148295Y0164513D03*
X0150855Y0164433D03*
X0148535Y0159233D03*
X0150855Y0143393D03*
X0168055Y0125953D03*
X0168535Y0117393D03*
X0162855Y0117393D03*
X0156935Y0114193D03*
X0152935Y0116513D03*
X0141495Y0117153D03*
X0133895Y0116513D03*
X0133895Y0115953D03*
X0117655Y0116433D03*
X0112055Y0116513D03*
D16*
X0112055Y0116113D03*
X0112055Y0116033D03*
X0113415Y0115473D03*
X0113575Y0115793D03*
X0113575Y0115873D03*
X0113735Y0116273D03*
X0113815Y0116433D03*
X0114055Y0116833D03*
X0114135Y0116993D03*
X0114135Y0117073D03*
X0114215Y0117153D03*
X0114215Y0117233D03*
X0115575Y0117233D03*
X0115575Y0117153D03*
X0115735Y0116833D03*
X0115815Y0116593D03*
X0115815Y0116513D03*
X0115975Y0116273D03*
X0115975Y0116193D03*
X0116375Y0115393D03*
X0116775Y0114513D03*
X0117735Y0116033D03*
X0117735Y0116113D03*
X0119175Y0115713D03*
X0119335Y0116113D03*
X0119415Y0116273D03*
X0119415Y0116353D03*
X0119575Y0116593D03*
X0119575Y0116673D03*
X0118615Y0114513D03*
X0112935Y0114513D03*
X0112935Y0114433D03*
X0111175Y0114433D03*
X0111175Y0114513D03*
X0111175Y0114593D03*
X0110615Y0115633D03*
X0110615Y0115713D03*
X0110535Y0115793D03*
X0110535Y0115873D03*
X0110455Y0115953D03*
X0110455Y0116033D03*
X0110055Y0116833D03*
X0109975Y0116993D03*
X0109975Y0117073D03*
X0109815Y0117313D03*
X0108615Y0117153D03*
X0108535Y0116993D03*
X0108455Y0116833D03*
X0108375Y0116593D03*
X0108135Y0116033D03*
X0107815Y0115473D03*
X0106455Y0116033D03*
X0105175Y0115473D03*
X0104935Y0115873D03*
X0104855Y0116033D03*
X0104775Y0116193D03*
X0104775Y0116273D03*
X0104775Y0116353D03*
X0104615Y0116593D03*
X0104615Y0116673D03*
X0104535Y0116833D03*
X0104455Y0116993D03*
X0132055Y0116753D03*
X0132055Y0116673D03*
X0132055Y0116593D03*
X0132055Y0116513D03*
X0132055Y0116433D03*
X0132055Y0116353D03*
X0132055Y0116273D03*
X0132055Y0116193D03*
X0132055Y0116113D03*
X0132055Y0116033D03*
X0132055Y0115953D03*
X0132055Y0115873D03*
X0132055Y0115793D03*
X0132055Y0115713D03*
X0132055Y0115633D03*
X0132055Y0115153D03*
X0132055Y0115073D03*
X0132055Y0114993D03*
X0132055Y0114913D03*
X0132055Y0114833D03*
X0132055Y0114753D03*
X0132055Y0114673D03*
X0132055Y0114593D03*
X0132055Y0114513D03*
X0132055Y0114433D03*
X0132055Y0114353D03*
X0132055Y0114273D03*
X0135175Y0114833D03*
X0135175Y0114913D03*
X0138215Y0115233D03*
X0139015Y0116833D03*
X0141655Y0116833D03*
X0141655Y0115713D03*
X0141655Y0115633D03*
X0141655Y0115553D03*
X0141655Y0115473D03*
X0141655Y0115393D03*
X0141655Y0115313D03*
X0141655Y0115233D03*
X0141655Y0115153D03*
X0141655Y0115073D03*
X0141655Y0114993D03*
X0141655Y0114913D03*
X0141655Y0114833D03*
X0141655Y0114753D03*
X0141655Y0114673D03*
X0141655Y0114593D03*
X0141655Y0114513D03*
X0141655Y0114433D03*
X0141655Y0114353D03*
X0141655Y0114273D03*
X0143655Y0114753D03*
X0143655Y0116273D03*
X0143655Y0116353D03*
X0143655Y0116433D03*
X0143655Y0116513D03*
X0143655Y0116593D03*
X0143655Y0116673D03*
X0143655Y0116753D03*
X0143655Y0116833D03*
X0143655Y0116913D03*
X0143655Y0116993D03*
X0143655Y0117073D03*
X0143655Y0117153D03*
X0143655Y0117233D03*
X0143655Y0117313D03*
X0146055Y0116673D03*
X0146055Y0116593D03*
X0146055Y0116513D03*
X0146055Y0116433D03*
X0146055Y0116353D03*
X0146055Y0116273D03*
X0146055Y0116193D03*
X0146055Y0116113D03*
X0146055Y0116033D03*
X0146055Y0115953D03*
X0146055Y0115873D03*
X0146055Y0115793D03*
X0146055Y0115713D03*
X0146055Y0115633D03*
X0146055Y0115553D03*
X0146055Y0115473D03*
X0146055Y0115393D03*
X0146055Y0115313D03*
X0146055Y0115233D03*
X0146055Y0115153D03*
X0146055Y0115073D03*
X0146055Y0114993D03*
X0146055Y0114913D03*
X0146055Y0114833D03*
X0146055Y0114753D03*
X0146055Y0114673D03*
X0146055Y0114593D03*
X0146055Y0114513D03*
X0146055Y0114433D03*
X0146055Y0114353D03*
X0146055Y0114273D03*
X0148375Y0114753D03*
X0148375Y0114833D03*
X0148375Y0114913D03*
X0148375Y0114993D03*
X0148375Y0115073D03*
X0148375Y0115153D03*
X0148375Y0115233D03*
X0148375Y0115313D03*
X0148375Y0115393D03*
X0148375Y0115473D03*
X0148375Y0116113D03*
X0148375Y0116193D03*
X0148375Y0116273D03*
X0148375Y0116353D03*
X0148375Y0116433D03*
X0148375Y0116513D03*
X0148375Y0116593D03*
X0148375Y0116673D03*
X0148375Y0116753D03*
X0148375Y0116833D03*
X0152615Y0114993D03*
X0152775Y0114673D03*
X0152855Y0114593D03*
X0152935Y0114433D03*
X0159415Y0114193D03*
X0165655Y0117073D03*
X0167015Y0115393D03*
X0168375Y0117073D03*
X0143015Y0125793D03*
X0138535Y0125953D03*
X0148775Y0164673D03*
X0148935Y0164753D03*
D17*
X0118655Y0179233D03*
X0118655Y0179313D03*
X0138495Y0125873D03*
X0138495Y0125793D03*
X0143055Y0125713D03*
X0141695Y0116753D03*
X0141695Y0115793D03*
X0151135Y0115153D03*
X0151135Y0115073D03*
X0151135Y0116833D03*
X0155135Y0117153D03*
X0161695Y0116113D03*
X0161695Y0115473D03*
X0161695Y0115393D03*
X0164095Y0115633D03*
X0164095Y0115713D03*
X0164095Y0115793D03*
X0164095Y0115873D03*
X0164095Y0115953D03*
X0165695Y0115713D03*
X0165695Y0115633D03*
X0165695Y0115553D03*
X0165695Y0115473D03*
X0165695Y0115393D03*
X0165695Y0115313D03*
X0165695Y0115233D03*
X0165695Y0115153D03*
X0165695Y0115073D03*
X0165695Y0114993D03*
X0165695Y0114913D03*
X0165695Y0114833D03*
X0165695Y0114753D03*
X0165695Y0114673D03*
X0165695Y0114593D03*
X0165695Y0114513D03*
X0165695Y0114433D03*
X0165695Y0114353D03*
X0165695Y0114273D03*
X0165695Y0114193D03*
X0168335Y0114193D03*
X0168335Y0114273D03*
X0168335Y0114353D03*
X0168335Y0114433D03*
X0168335Y0114513D03*
X0168335Y0114593D03*
X0168335Y0114673D03*
X0168335Y0114753D03*
X0168335Y0114833D03*
X0168335Y0114913D03*
X0168335Y0114993D03*
X0168335Y0115073D03*
X0168335Y0115153D03*
X0168335Y0115233D03*
X0168335Y0115313D03*
X0168335Y0115393D03*
X0168335Y0115473D03*
X0168335Y0115553D03*
X0168335Y0115633D03*
X0168335Y0115713D03*
X0168335Y0116993D03*
X0165695Y0116993D03*
X0168095Y0120033D03*
X0132095Y0116833D03*
X0129295Y0116673D03*
X0129295Y0116593D03*
X0129295Y0116513D03*
X0129295Y0116433D03*
X0129295Y0116353D03*
X0129295Y0116273D03*
X0129295Y0116193D03*
X0129295Y0115393D03*
X0129295Y0115313D03*
X0129295Y0115233D03*
X0129295Y0115153D03*
X0129295Y0115073D03*
X0129295Y0114993D03*
X0129295Y0114913D03*
X0129295Y0114833D03*
X0122335Y0114913D03*
X0122335Y0114993D03*
X0122335Y0115073D03*
X0122335Y0115153D03*
X0122335Y0115233D03*
X0122335Y0115313D03*
X0122335Y0115393D03*
X0122335Y0115473D03*
X0122335Y0115553D03*
X0122335Y0115633D03*
X0122335Y0115713D03*
X0122335Y0115793D03*
X0122335Y0115873D03*
X0122335Y0115953D03*
X0122335Y0116033D03*
X0122335Y0116113D03*
X0122335Y0116193D03*
X0122335Y0116273D03*
X0122335Y0116353D03*
X0122335Y0116433D03*
X0122335Y0116513D03*
X0122335Y0116593D03*
X0122335Y0116673D03*
X0122335Y0116753D03*
X0122335Y0116833D03*
X0122335Y0116913D03*
X0122335Y0116993D03*
X0122335Y0117073D03*
X0122335Y0117153D03*
X0122335Y0117233D03*
X0122335Y0117313D03*
X0122335Y0117393D03*
X0112895Y0114593D03*
D18*
X0111135Y0114273D03*
X0112015Y0116353D03*
X0112015Y0116433D03*
X0107375Y0114273D03*
X0105615Y0114273D03*
X0106495Y0116273D03*
X0106495Y0116353D03*
X0116815Y0114353D03*
X0116815Y0114273D03*
X0117695Y0116353D03*
X0120975Y0114673D03*
X0133855Y0115873D03*
X0133935Y0116033D03*
X0133935Y0116113D03*
X0133935Y0116193D03*
X0133935Y0116273D03*
X0133935Y0116353D03*
X0133935Y0116433D03*
X0133855Y0116593D03*
X0138335Y0115553D03*
X0138415Y0115713D03*
X0141535Y0117073D03*
X0143775Y0114513D03*
X0152975Y0116033D03*
X0152975Y0116113D03*
X0152975Y0116193D03*
X0152975Y0116273D03*
X0152975Y0116353D03*
X0152975Y0116433D03*
X0152895Y0116593D03*
X0154495Y0116593D03*
X0154495Y0116513D03*
X0154495Y0116433D03*
X0154495Y0116353D03*
X0154575Y0116673D03*
X0156895Y0114673D03*
X0159935Y0116593D03*
X0159455Y0117393D03*
X0165535Y0117313D03*
X0168495Y0117313D03*
X0158255Y0123633D03*
X0157535Y0123633D03*
X0118815Y0144673D03*
X0118815Y0144753D03*
X0118815Y0144833D03*
X0118815Y0144913D03*
X0118815Y0144993D03*
X0118815Y0145073D03*
X0118815Y0145153D03*
X0118815Y0145233D03*
X0118815Y0145313D03*
X0118815Y0145393D03*
X0118815Y0145473D03*
X0118815Y0145553D03*
X0118815Y0145633D03*
X0118815Y0145713D03*
X0118815Y0145793D03*
X0118815Y0145873D03*
X0118815Y0145953D03*
X0118815Y0146033D03*
X0118815Y0146113D03*
X0118815Y0146193D03*
X0118815Y0146273D03*
X0118815Y0146353D03*
X0118815Y0146433D03*
X0118815Y0146513D03*
X0118815Y0146593D03*
X0118815Y0146673D03*
X0118815Y0146753D03*
X0118815Y0146833D03*
X0118815Y0146913D03*
X0118815Y0146993D03*
X0118815Y0147073D03*
X0118815Y0147153D03*
X0118815Y0147233D03*
X0118815Y0147313D03*
X0118815Y0147393D03*
X0118815Y0147473D03*
X0118815Y0147553D03*
X0118815Y0147633D03*
X0118815Y0147713D03*
X0118815Y0147793D03*
X0118815Y0147873D03*
X0118815Y0147953D03*
X0118815Y0148033D03*
X0118815Y0148113D03*
X0118815Y0148193D03*
X0118815Y0148273D03*
X0118815Y0148353D03*
X0118815Y0148433D03*
X0118815Y0148513D03*
X0118815Y0148593D03*
X0118815Y0148673D03*
X0118815Y0148753D03*
X0118815Y0148833D03*
X0118815Y0148913D03*
X0118815Y0148993D03*
X0118815Y0149073D03*
X0118815Y0149153D03*
X0118815Y0149233D03*
X0118815Y0149313D03*
X0118815Y0149393D03*
X0118815Y0149473D03*
X0118815Y0149553D03*
X0118815Y0149633D03*
X0118815Y0149713D03*
X0118815Y0149793D03*
X0118815Y0149873D03*
X0118815Y0149953D03*
X0118815Y0150033D03*
X0118815Y0150113D03*
X0118815Y0150193D03*
X0118815Y0150273D03*
X0118815Y0150353D03*
X0118815Y0150433D03*
X0118815Y0150513D03*
X0118815Y0150593D03*
X0118815Y0150673D03*
X0118815Y0150753D03*
X0118815Y0150833D03*
X0118815Y0150913D03*
X0118815Y0150993D03*
X0118815Y0151073D03*
X0118815Y0151153D03*
X0118815Y0151233D03*
X0118815Y0151313D03*
X0118815Y0151393D03*
X0118815Y0151473D03*
X0118815Y0151553D03*
X0118815Y0151633D03*
X0118815Y0151713D03*
X0118815Y0151793D03*
X0118815Y0151873D03*
X0118815Y0151953D03*
X0118815Y0152033D03*
X0118815Y0152113D03*
X0118815Y0152193D03*
X0118815Y0152273D03*
X0118815Y0152353D03*
X0118815Y0152433D03*
X0118815Y0152513D03*
X0118815Y0152593D03*
X0118815Y0152673D03*
X0118815Y0152753D03*
X0118815Y0152833D03*
X0118815Y0152913D03*
X0118815Y0152993D03*
X0118815Y0153073D03*
X0118815Y0153153D03*
X0118815Y0153233D03*
X0118815Y0153313D03*
X0118815Y0153393D03*
X0118815Y0153473D03*
X0118815Y0153553D03*
X0118815Y0153633D03*
X0118815Y0153713D03*
X0118815Y0153793D03*
X0118815Y0153873D03*
X0118815Y0153953D03*
X0118815Y0154033D03*
X0118815Y0154113D03*
X0118815Y0154193D03*
X0118815Y0154273D03*
X0118815Y0154353D03*
X0118815Y0154433D03*
X0118815Y0154513D03*
X0118815Y0154593D03*
X0118815Y0154673D03*
X0118815Y0154753D03*
X0118815Y0154833D03*
X0118815Y0154913D03*
X0118815Y0154993D03*
X0118815Y0155073D03*
X0118815Y0155153D03*
X0118815Y0155233D03*
X0118815Y0155313D03*
X0118815Y0155393D03*
X0118815Y0155473D03*
X0118815Y0155553D03*
X0118815Y0155633D03*
X0118815Y0155713D03*
X0118815Y0155793D03*
X0118815Y0155873D03*
X0118815Y0155953D03*
X0118815Y0156033D03*
X0118815Y0156113D03*
X0118815Y0156193D03*
X0118815Y0156273D03*
X0118815Y0156353D03*
X0118815Y0156433D03*
X0118815Y0156513D03*
X0118815Y0156593D03*
X0118815Y0156673D03*
X0118815Y0156753D03*
X0118815Y0156833D03*
X0118815Y0156913D03*
X0118815Y0156993D03*
X0118815Y0157073D03*
X0118815Y0157153D03*
X0118815Y0157233D03*
X0118815Y0157313D03*
X0118815Y0157393D03*
X0118815Y0157473D03*
X0118815Y0157553D03*
X0118815Y0157633D03*
X0118815Y0157713D03*
X0118815Y0157793D03*
X0118815Y0157873D03*
X0118815Y0157953D03*
X0118815Y0158033D03*
X0118815Y0158113D03*
X0118815Y0158193D03*
X0118815Y0158273D03*
X0118815Y0158353D03*
X0118815Y0158433D03*
X0118815Y0158513D03*
X0118815Y0158593D03*
X0118815Y0158673D03*
X0118815Y0158753D03*
X0118815Y0158833D03*
X0118815Y0158913D03*
X0118815Y0158993D03*
X0118815Y0159073D03*
X0118815Y0159153D03*
X0118815Y0159233D03*
X0118815Y0159313D03*
X0118815Y0159393D03*
X0118815Y0159473D03*
X0118815Y0159553D03*
X0118815Y0159633D03*
X0118815Y0159713D03*
X0118815Y0159793D03*
X0118815Y0159873D03*
X0118815Y0159953D03*
X0118815Y0160033D03*
X0118815Y0160113D03*
X0118815Y0160193D03*
X0118815Y0160273D03*
X0118815Y0160353D03*
X0118815Y0160433D03*
X0118815Y0160513D03*
X0118815Y0160593D03*
X0118815Y0160673D03*
X0118815Y0160753D03*
X0118815Y0160833D03*
X0118815Y0160913D03*
X0118815Y0160993D03*
X0118815Y0161073D03*
X0118815Y0161153D03*
X0118815Y0161233D03*
X0118815Y0161313D03*
X0118815Y0161393D03*
X0118815Y0161473D03*
X0118815Y0161553D03*
X0118815Y0161633D03*
X0118815Y0161713D03*
X0118815Y0161793D03*
X0118815Y0161873D03*
X0118815Y0161953D03*
X0118815Y0162033D03*
X0118815Y0162113D03*
X0118815Y0162193D03*
X0118815Y0162273D03*
X0118815Y0162353D03*
X0118815Y0162433D03*
X0118815Y0162513D03*
X0118815Y0162593D03*
X0118815Y0162673D03*
X0118815Y0162753D03*
X0118815Y0162833D03*
X0118815Y0162913D03*
X0118815Y0162993D03*
X0118815Y0163073D03*
X0118815Y0163153D03*
X0118815Y0163233D03*
X0118815Y0163313D03*
X0118815Y0163393D03*
X0118815Y0163473D03*
X0118815Y0163553D03*
X0118815Y0163633D03*
X0118815Y0163713D03*
X0118815Y0163793D03*
X0118815Y0163873D03*
X0118815Y0163953D03*
X0118815Y0164033D03*
X0118815Y0164113D03*
X0118815Y0164193D03*
X0118815Y0164273D03*
X0118815Y0164353D03*
X0118815Y0164433D03*
X0118815Y0164513D03*
X0118815Y0164593D03*
X0118815Y0164673D03*
X0118815Y0164753D03*
X0118815Y0164833D03*
X0118815Y0164913D03*
X0118815Y0164993D03*
X0118815Y0165073D03*
X0118815Y0165153D03*
X0118815Y0165233D03*
X0118815Y0165313D03*
X0118815Y0165393D03*
X0118815Y0165473D03*
X0118815Y0165553D03*
X0118815Y0165633D03*
X0118815Y0165713D03*
X0118815Y0165793D03*
X0118815Y0165873D03*
X0118815Y0165953D03*
X0118815Y0166033D03*
X0118815Y0166113D03*
X0118815Y0166193D03*
X0118815Y0166273D03*
X0118815Y0166353D03*
X0118815Y0166433D03*
X0118815Y0166513D03*
X0118815Y0166593D03*
X0118815Y0166673D03*
X0118815Y0166753D03*
X0118815Y0166833D03*
X0118815Y0166913D03*
X0118815Y0166993D03*
X0118815Y0167073D03*
X0118815Y0167153D03*
X0118815Y0167233D03*
X0118815Y0167313D03*
X0118815Y0167393D03*
X0118815Y0167473D03*
X0118815Y0167553D03*
X0118815Y0167633D03*
X0118815Y0167713D03*
X0118815Y0167793D03*
X0118815Y0167873D03*
X0118815Y0167953D03*
X0118815Y0168033D03*
X0118815Y0168113D03*
X0118815Y0168193D03*
X0118815Y0168273D03*
X0118815Y0168353D03*
X0118815Y0168433D03*
X0118815Y0168513D03*
X0118815Y0168593D03*
X0118815Y0168673D03*
X0118815Y0168753D03*
X0118815Y0168833D03*
X0118815Y0168913D03*
X0118815Y0168993D03*
X0118815Y0169073D03*
X0118815Y0169153D03*
X0118815Y0169233D03*
X0118815Y0169313D03*
X0118815Y0169393D03*
X0118815Y0169473D03*
X0118815Y0169553D03*
X0118815Y0169633D03*
X0118815Y0169713D03*
X0118815Y0169793D03*
X0118815Y0169873D03*
X0118815Y0169953D03*
X0118815Y0170033D03*
X0118815Y0170113D03*
X0118815Y0170193D03*
X0118815Y0170273D03*
X0118815Y0170353D03*
X0118815Y0170433D03*
X0118815Y0170513D03*
X0118815Y0170593D03*
X0118815Y0170673D03*
X0118815Y0170753D03*
X0118815Y0170833D03*
X0118815Y0170913D03*
X0118815Y0170993D03*
X0118815Y0171073D03*
X0118815Y0171153D03*
X0118815Y0171233D03*
X0118815Y0171313D03*
X0118815Y0171393D03*
X0118815Y0171473D03*
X0118815Y0171553D03*
X0118815Y0171633D03*
X0118815Y0171713D03*
X0118815Y0171793D03*
X0118815Y0171873D03*
X0118815Y0171953D03*
X0118815Y0172033D03*
X0118815Y0172113D03*
X0118815Y0172193D03*
X0118815Y0172273D03*
X0118815Y0172353D03*
X0118815Y0172433D03*
X0118815Y0172513D03*
X0118815Y0172593D03*
X0118815Y0172673D03*
X0118815Y0172753D03*
X0118815Y0172833D03*
X0118815Y0172913D03*
X0118815Y0172993D03*
X0118815Y0173073D03*
X0118815Y0173153D03*
X0118815Y0173233D03*
X0118815Y0173313D03*
X0118815Y0173393D03*
X0118815Y0173473D03*
X0118815Y0173553D03*
X0118815Y0173633D03*
X0118815Y0173713D03*
X0118815Y0173793D03*
X0118815Y0173873D03*
X0118815Y0173953D03*
X0118815Y0174033D03*
X0118815Y0174113D03*
X0118815Y0174193D03*
X0118815Y0174273D03*
X0118815Y0174353D03*
X0118815Y0174433D03*
X0118815Y0174513D03*
X0118815Y0174593D03*
X0118815Y0178753D03*
X0118815Y0178833D03*
X0112735Y0183873D03*
X0148495Y0164593D03*
X0150575Y0164593D03*
X0148095Y0159473D03*
D19*
X0118855Y0144593D03*
X0147495Y0120033D03*
X0141575Y0116993D03*
X0139495Y0115953D03*
X0139495Y0115873D03*
X0139575Y0115793D03*
X0139575Y0115713D03*
X0139655Y0115473D03*
X0139735Y0115393D03*
X0139735Y0115313D03*
X0139415Y0116033D03*
X0138535Y0115953D03*
X0138535Y0115873D03*
X0138455Y0115793D03*
X0138375Y0115633D03*
X0138295Y0115473D03*
X0138295Y0115393D03*
X0138295Y0115313D03*
X0137895Y0114593D03*
X0137895Y0114513D03*
X0137815Y0114353D03*
X0137735Y0114273D03*
X0140135Y0114513D03*
X0139015Y0116913D03*
X0139015Y0116993D03*
X0143735Y0114593D03*
X0152855Y0115873D03*
X0152935Y0115953D03*
X0152855Y0116673D03*
X0152775Y0116753D03*
X0154535Y0116273D03*
X0154535Y0116193D03*
X0154535Y0116113D03*
X0154615Y0116753D03*
X0155655Y0116753D03*
X0155735Y0116673D03*
X0155655Y0115473D03*
X0155735Y0115313D03*
X0155735Y0115233D03*
X0155735Y0115153D03*
X0155735Y0115073D03*
X0155735Y0114993D03*
X0155735Y0114913D03*
X0154615Y0114833D03*
X0154535Y0114913D03*
X0156935Y0114593D03*
X0156935Y0114273D03*
X0165575Y0117233D03*
X0167015Y0115313D03*
X0168455Y0117233D03*
X0133815Y0116673D03*
X0133735Y0116753D03*
X0133815Y0115793D03*
X0133735Y0115713D03*
X0121015Y0114273D03*
X0118615Y0114273D03*
X0117655Y0116273D03*
X0116215Y0115713D03*
X0116135Y0115873D03*
X0112935Y0114353D03*
X0112935Y0114273D03*
X0111175Y0114353D03*
X0112055Y0116193D03*
X0112055Y0116273D03*
X0110295Y0116353D03*
X0110215Y0116513D03*
X0110135Y0116673D03*
X0107335Y0114353D03*
X0104375Y0117153D03*
X0104295Y0117313D03*
X0119815Y0117153D03*
X0118775Y0178913D03*
D20*
X0117375Y0181073D03*
X0113535Y0183233D03*
X0113535Y0183313D03*
X0152815Y0160673D03*
X0143615Y0124593D03*
X0146815Y0121393D03*
X0148975Y0116913D03*
X0135775Y0114753D03*
X0135775Y0114673D03*
X0135775Y0114593D03*
X0135775Y0114513D03*
X0135775Y0114433D03*
X0135775Y0114353D03*
X0135775Y0114273D03*
X0132655Y0115313D03*
X0129855Y0115553D03*
X0129855Y0115633D03*
X0129855Y0115713D03*
X0129855Y0115793D03*
X0129855Y0115873D03*
X0129855Y0115953D03*
X0129855Y0116033D03*
X0127135Y0116033D03*
X0127135Y0115953D03*
X0127135Y0115873D03*
X0127135Y0115793D03*
X0127135Y0115713D03*
X0127135Y0115633D03*
X0127135Y0115553D03*
X0127135Y0116113D03*
D21*
X0120975Y0114593D03*
X0120975Y0114513D03*
X0120975Y0114433D03*
X0120975Y0114353D03*
X0119055Y0115473D03*
X0119055Y0115553D03*
X0119135Y0115633D03*
X0119215Y0115793D03*
X0119215Y0115873D03*
X0119295Y0115953D03*
X0119295Y0116033D03*
X0119375Y0116193D03*
X0119615Y0116753D03*
X0119615Y0116833D03*
X0119695Y0116913D03*
X0119695Y0116993D03*
X0119775Y0117073D03*
X0119855Y0117233D03*
X0119855Y0117313D03*
X0118975Y0115393D03*
X0118575Y0114433D03*
X0118575Y0114353D03*
X0116815Y0114433D03*
X0116335Y0115473D03*
X0116335Y0115553D03*
X0116255Y0115633D03*
X0116175Y0115793D03*
X0116095Y0115953D03*
X0116095Y0116033D03*
X0116015Y0116113D03*
X0115775Y0116673D03*
X0115775Y0116753D03*
X0115695Y0116913D03*
X0115615Y0116993D03*
X0115615Y0117073D03*
X0114255Y0117313D03*
X0114095Y0116913D03*
X0114015Y0116753D03*
X0113935Y0116673D03*
X0113935Y0116593D03*
X0113855Y0116513D03*
X0113775Y0116353D03*
X0113695Y0116193D03*
X0113695Y0116113D03*
X0113615Y0116033D03*
X0113615Y0115953D03*
X0113455Y0115553D03*
X0113375Y0115393D03*
X0110735Y0115393D03*
X0110655Y0115473D03*
X0110655Y0115553D03*
X0110415Y0116113D03*
X0110415Y0116193D03*
X0110335Y0116273D03*
X0110255Y0116433D03*
X0110175Y0116593D03*
X0110095Y0116753D03*
X0110015Y0116913D03*
X0108735Y0117313D03*
X0108655Y0117233D03*
X0108575Y0117073D03*
X0108495Y0116913D03*
X0108415Y0116753D03*
X0108415Y0116673D03*
X0108255Y0116353D03*
X0108255Y0116273D03*
X0108175Y0116193D03*
X0108175Y0116113D03*
X0108095Y0115953D03*
X0108015Y0115873D03*
X0108015Y0115793D03*
X0107935Y0115713D03*
X0107855Y0115553D03*
X0107775Y0115393D03*
X0107375Y0114433D03*
X0105615Y0114433D03*
X0105615Y0114353D03*
X0105215Y0115393D03*
X0105135Y0115553D03*
X0105055Y0115633D03*
X0105055Y0115713D03*
X0104975Y0115793D03*
X0104895Y0115953D03*
X0104815Y0116113D03*
X0104655Y0116513D03*
X0104575Y0116753D03*
X0104495Y0116913D03*
X0104415Y0117073D03*
X0104335Y0117233D03*
X0106495Y0116193D03*
X0106495Y0116113D03*
X0117695Y0116193D03*
X0133615Y0115633D03*
X0133615Y0116833D03*
X0135135Y0116833D03*
X0135135Y0116753D03*
X0135135Y0116673D03*
X0135135Y0116593D03*
X0135135Y0116513D03*
X0135135Y0116433D03*
X0135135Y0116353D03*
X0135135Y0116273D03*
X0135135Y0116193D03*
X0135135Y0116113D03*
X0135135Y0116033D03*
X0135135Y0115953D03*
X0135135Y0115873D03*
X0135135Y0115793D03*
X0135135Y0115713D03*
X0135135Y0115633D03*
X0135135Y0115553D03*
X0135135Y0115473D03*
X0135135Y0115393D03*
X0135135Y0115313D03*
X0135135Y0115233D03*
X0135135Y0115153D03*
X0135135Y0115073D03*
X0135135Y0114993D03*
X0135135Y0116913D03*
X0135135Y0116993D03*
X0135135Y0117073D03*
X0135135Y0117153D03*
X0135135Y0117233D03*
X0135135Y0117313D03*
X0138575Y0116033D03*
X0139615Y0115633D03*
X0139615Y0115553D03*
X0139775Y0115233D03*
X0140095Y0114593D03*
X0140175Y0114433D03*
X0140175Y0114353D03*
X0140255Y0114273D03*
X0137855Y0114433D03*
X0141615Y0116913D03*
X0143695Y0116193D03*
X0143695Y0116113D03*
X0143695Y0116033D03*
X0143695Y0115953D03*
X0143695Y0115873D03*
X0143695Y0114673D03*
X0147455Y0120113D03*
X0152655Y0116833D03*
X0152815Y0115793D03*
X0152735Y0115713D03*
X0152735Y0115633D03*
X0152735Y0114753D03*
X0152895Y0114513D03*
X0152975Y0114353D03*
X0153055Y0114273D03*
X0154655Y0114753D03*
X0155615Y0114753D03*
X0155695Y0114833D03*
X0155695Y0115393D03*
X0156895Y0114513D03*
X0156895Y0114433D03*
X0156895Y0114353D03*
X0155135Y0117233D03*
X0165615Y0117153D03*
X0168415Y0117153D03*
X0142975Y0125873D03*
X0142975Y0125953D03*
X0148815Y0159153D03*
X0150255Y0159153D03*
X0149615Y0163073D03*
X0150095Y0164753D03*
X0150335Y0164673D03*
X0118735Y0178993D03*
X0112815Y0183793D03*
D22*
X0112615Y0183953D03*
X0116535Y0176673D03*
X0118055Y0175473D03*
X0118935Y0178353D03*
X0147255Y0163553D03*
X0147335Y0163633D03*
X0147175Y0163393D03*
X0147095Y0163233D03*
X0147095Y0163153D03*
X0147015Y0163073D03*
X0147015Y0162993D03*
X0146935Y0162913D03*
X0151495Y0163953D03*
X0151735Y0163633D03*
X0151815Y0163473D03*
X0151895Y0163393D03*
X0151975Y0163233D03*
X0152055Y0163073D03*
X0152055Y0162993D03*
X0152135Y0162913D03*
X0152135Y0162833D03*
X0151655Y0143393D03*
X0150055Y0143393D03*
X0141415Y0117313D03*
X0139015Y0117313D03*
X0139015Y0117233D03*
X0143895Y0114273D03*
X0159975Y0115073D03*
X0159975Y0116513D03*
X0167015Y0115153D03*
X0117655Y0116593D03*
X0112055Y0116673D03*
D23*
X0127175Y0116833D03*
X0146775Y0121473D03*
X0149015Y0117313D03*
X0149015Y0117233D03*
X0149015Y0117153D03*
X0149015Y0117073D03*
X0149015Y0116993D03*
X0149015Y0114593D03*
X0149015Y0114513D03*
X0149015Y0114433D03*
X0149015Y0114353D03*
X0149015Y0114273D03*
X0159415Y0117073D03*
X0152775Y0160513D03*
X0152775Y0160593D03*
X0149575Y0161073D03*
X0149575Y0162673D03*
D24*
X0149495Y0164913D03*
X0118695Y0179073D03*
X0118695Y0179153D03*
X0115495Y0117313D03*
X0115895Y0116433D03*
X0115895Y0116353D03*
X0113495Y0115713D03*
X0113495Y0115633D03*
X0119495Y0116433D03*
X0119495Y0116513D03*
X0109895Y0117153D03*
X0109895Y0117233D03*
X0108295Y0116513D03*
X0108295Y0116433D03*
X0107895Y0115633D03*
X0104695Y0116433D03*
X0151095Y0116433D03*
X0151095Y0116353D03*
X0151095Y0116273D03*
X0151095Y0116193D03*
X0151095Y0116113D03*
X0151095Y0116033D03*
X0151095Y0115953D03*
X0151095Y0115873D03*
X0151095Y0115793D03*
X0151095Y0115713D03*
X0151095Y0115633D03*
X0151095Y0114993D03*
X0151095Y0114913D03*
X0151095Y0114833D03*
X0151095Y0114753D03*
X0151095Y0114673D03*
X0151095Y0114593D03*
X0151095Y0114513D03*
X0151095Y0114433D03*
X0151095Y0114353D03*
X0151095Y0114273D03*
X0152695Y0114833D03*
X0152695Y0114913D03*
X0151095Y0116513D03*
X0151095Y0116593D03*
X0151095Y0116673D03*
X0151095Y0116753D03*
X0155095Y0114273D03*
D25*
X0155135Y0116993D03*
X0159455Y0114273D03*
X0162095Y0114913D03*
X0163615Y0114913D03*
X0166975Y0115633D03*
X0168095Y0116593D03*
X0164095Y0123313D03*
X0164175Y0123473D03*
X0164175Y0123553D03*
X0164175Y0123633D03*
X0164175Y0123713D03*
X0164175Y0123793D03*
X0164175Y0123873D03*
X0164175Y0123953D03*
X0164175Y0124033D03*
X0164175Y0124113D03*
X0164175Y0124193D03*
X0164095Y0124353D03*
X0164095Y0124433D03*
X0168095Y0125873D03*
X0169295Y0124353D03*
X0147135Y0120753D03*
X0147135Y0120673D03*
X0143295Y0125233D03*
X0141935Y0116273D03*
X0143375Y0115313D03*
X0138975Y0116193D03*
X0128975Y0123393D03*
X0128975Y0123473D03*
X0128975Y0123553D03*
X0128895Y0123313D03*
X0128975Y0124193D03*
X0128975Y0124273D03*
X0128895Y0124353D03*
X0128895Y0124433D03*
X0118575Y0115073D03*
X0117695Y0115473D03*
X0116815Y0115153D03*
X0116815Y0115073D03*
X0116815Y0114993D03*
X0112895Y0115153D03*
X0112015Y0115473D03*
X0111135Y0115073D03*
X0107375Y0115073D03*
X0107375Y0115153D03*
X0106495Y0115393D03*
X0106495Y0115473D03*
X0106495Y0115553D03*
X0105615Y0115153D03*
X0105615Y0115073D03*
X0118335Y0179953D03*
X0118255Y0180033D03*
X0113135Y0183553D03*
D26*
X0118215Y0180113D03*
X0128775Y0124593D03*
X0128855Y0124513D03*
X0128855Y0123233D03*
X0136375Y0120753D03*
X0137655Y0123393D03*
X0139495Y0123073D03*
X0139575Y0122913D03*
X0139575Y0122833D03*
X0140695Y0120433D03*
X0141975Y0116193D03*
X0143335Y0115393D03*
X0139015Y0116113D03*
X0138295Y0114673D03*
X0138455Y0125233D03*
X0138455Y0125313D03*
X0143335Y0125153D03*
X0155095Y0114513D03*
X0162855Y0114273D03*
X0165975Y0116513D03*
X0168055Y0116513D03*
X0168055Y0120113D03*
X0167015Y0121393D03*
X0166935Y0121473D03*
X0166935Y0121553D03*
X0166935Y0121633D03*
X0166935Y0121713D03*
X0167015Y0123713D03*
X0167015Y0123793D03*
X0166935Y0123953D03*
X0166935Y0124033D03*
X0166935Y0124113D03*
X0166935Y0124193D03*
X0166935Y0124273D03*
X0166935Y0124353D03*
X0166935Y0124433D03*
X0166935Y0124513D03*
X0167015Y0124593D03*
X0169255Y0124513D03*
X0169255Y0124433D03*
X0169175Y0122193D03*
X0169255Y0122113D03*
X0169255Y0122033D03*
X0169255Y0121953D03*
X0169255Y0121873D03*
X0169255Y0121793D03*
X0169255Y0121713D03*
X0169255Y0121633D03*
X0169255Y0121553D03*
X0164055Y0123153D03*
X0164055Y0123233D03*
X0164135Y0123393D03*
X0164055Y0124513D03*
X0163975Y0124593D03*
X0118535Y0115153D03*
X0117655Y0115393D03*
X0116855Y0115233D03*
X0112935Y0115233D03*
X0111975Y0115393D03*
X0111175Y0115233D03*
X0111175Y0115153D03*
X0107335Y0115233D03*
D27*
X0112015Y0116593D03*
X0141455Y0117233D03*
X0143855Y0114353D03*
X0155135Y0117313D03*
X0165455Y0117393D03*
X0147855Y0159633D03*
X0147775Y0159713D03*
X0147135Y0163313D03*
X0147215Y0163473D03*
X0147375Y0163713D03*
X0147455Y0163793D03*
X0147535Y0163873D03*
X0147535Y0163953D03*
X0147615Y0164033D03*
X0147855Y0164193D03*
X0147935Y0164273D03*
X0150735Y0164513D03*
X0151135Y0164273D03*
X0151215Y0164193D03*
X0151375Y0164033D03*
X0151535Y0163873D03*
X0151615Y0163793D03*
X0151775Y0163553D03*
X0151935Y0163313D03*
X0152015Y0163153D03*
X0116015Y0176753D03*
D28*
X0118055Y0180353D03*
X0117975Y0180513D03*
X0113335Y0183473D03*
X0120455Y0174433D03*
X0120455Y0174353D03*
X0120455Y0174273D03*
X0120455Y0174193D03*
X0120455Y0174113D03*
X0120455Y0174033D03*
X0120455Y0173953D03*
X0120455Y0173873D03*
X0120455Y0173793D03*
X0120455Y0173713D03*
X0120455Y0173633D03*
X0120455Y0172913D03*
X0120455Y0172833D03*
X0120455Y0172753D03*
X0131415Y0125953D03*
X0131415Y0125873D03*
X0131415Y0125793D03*
X0131415Y0125713D03*
X0131415Y0125633D03*
X0131415Y0125553D03*
X0131415Y0125473D03*
X0131415Y0125393D03*
X0131415Y0125313D03*
X0131415Y0125233D03*
X0131415Y0125153D03*
X0131415Y0125073D03*
X0131415Y0124993D03*
X0131415Y0124913D03*
X0131415Y0124833D03*
X0131415Y0124753D03*
X0131415Y0124673D03*
X0131415Y0124593D03*
X0131415Y0124513D03*
X0131415Y0124433D03*
X0131415Y0124353D03*
X0131415Y0124273D03*
X0131415Y0124193D03*
X0131415Y0124113D03*
X0131415Y0124033D03*
X0131415Y0123953D03*
X0131415Y0123873D03*
X0131415Y0123793D03*
X0131415Y0123713D03*
X0131415Y0123633D03*
X0131415Y0123553D03*
X0131415Y0123473D03*
X0131415Y0123393D03*
X0131415Y0123313D03*
X0131415Y0123233D03*
X0131415Y0123153D03*
X0131415Y0123073D03*
X0131415Y0122993D03*
X0131415Y0122913D03*
X0131415Y0122833D03*
X0131415Y0122753D03*
X0131415Y0122673D03*
X0131415Y0122593D03*
X0131415Y0122513D03*
X0131415Y0122433D03*
X0131415Y0122353D03*
X0131415Y0122273D03*
X0131415Y0122193D03*
X0131415Y0122113D03*
X0131415Y0122033D03*
X0131415Y0121953D03*
X0131415Y0121873D03*
X0131415Y0121793D03*
X0131415Y0121713D03*
X0131415Y0121633D03*
X0131415Y0121553D03*
X0131415Y0121473D03*
X0137175Y0122353D03*
X0139415Y0123153D03*
X0139815Y0122273D03*
X0139815Y0122193D03*
X0140775Y0120273D03*
X0140775Y0120193D03*
X0140855Y0120113D03*
X0143415Y0120113D03*
X0143415Y0120033D03*
X0143415Y0120193D03*
X0143415Y0120273D03*
X0143415Y0120353D03*
X0143415Y0120433D03*
X0143415Y0120513D03*
X0143415Y0120593D03*
X0143415Y0120673D03*
X0143415Y0120753D03*
X0143415Y0120833D03*
X0143415Y0120913D03*
X0143415Y0120993D03*
X0143415Y0121073D03*
X0143415Y0121153D03*
X0143415Y0121233D03*
X0143415Y0121313D03*
X0143415Y0121393D03*
X0143415Y0121473D03*
X0143415Y0121553D03*
X0143415Y0121633D03*
X0143415Y0121713D03*
X0143415Y0121793D03*
X0143415Y0121873D03*
X0143415Y0121953D03*
X0143415Y0122033D03*
X0143415Y0122113D03*
X0143415Y0122193D03*
X0143415Y0122273D03*
X0143415Y0122353D03*
X0143415Y0122433D03*
X0143415Y0122513D03*
X0143415Y0122593D03*
X0143415Y0122673D03*
X0143415Y0122753D03*
X0143415Y0124993D03*
X0147015Y0124993D03*
X0147015Y0124913D03*
X0147015Y0124833D03*
X0147015Y0124753D03*
X0147015Y0124673D03*
X0147015Y0124593D03*
X0147015Y0124513D03*
X0147015Y0124433D03*
X0147015Y0124353D03*
X0147015Y0124273D03*
X0147015Y0124193D03*
X0147015Y0124113D03*
X0147015Y0124033D03*
X0147015Y0123953D03*
X0147015Y0123873D03*
X0147015Y0123793D03*
X0147015Y0123713D03*
X0147015Y0123633D03*
X0147015Y0123553D03*
X0147015Y0123473D03*
X0147015Y0123393D03*
X0147015Y0123313D03*
X0147015Y0125073D03*
X0147015Y0125153D03*
X0147015Y0125233D03*
X0147015Y0125313D03*
X0147015Y0125393D03*
X0147015Y0125473D03*
X0147015Y0125553D03*
X0147015Y0125633D03*
X0147015Y0125713D03*
X0147015Y0125793D03*
X0147015Y0125873D03*
X0147015Y0125953D03*
X0151415Y0124513D03*
X0151415Y0124433D03*
X0151415Y0124353D03*
X0151415Y0124273D03*
X0151415Y0124193D03*
X0151415Y0124113D03*
X0151415Y0124033D03*
X0151415Y0123953D03*
X0151415Y0123873D03*
X0151415Y0123793D03*
X0151415Y0123713D03*
X0151415Y0123633D03*
X0151415Y0123553D03*
X0151415Y0123473D03*
X0151415Y0123393D03*
X0151415Y0123313D03*
X0151415Y0123233D03*
X0151415Y0123153D03*
X0151415Y0123073D03*
X0151415Y0122993D03*
X0151415Y0122913D03*
X0151415Y0122833D03*
X0151415Y0122753D03*
X0151415Y0122673D03*
X0151415Y0122593D03*
X0151415Y0122513D03*
X0151415Y0122433D03*
X0151415Y0122353D03*
X0151415Y0122273D03*
X0151415Y0122193D03*
X0151415Y0122113D03*
X0151415Y0122033D03*
X0151415Y0121953D03*
X0151415Y0121873D03*
X0151415Y0121793D03*
X0151415Y0121713D03*
X0151415Y0121633D03*
X0151415Y0121553D03*
X0151415Y0121473D03*
X0151415Y0121393D03*
X0151415Y0121313D03*
X0151415Y0121233D03*
X0151415Y0121153D03*
X0151415Y0121073D03*
X0151415Y0120993D03*
X0151415Y0120913D03*
X0151415Y0120833D03*
X0151415Y0120753D03*
X0151415Y0120673D03*
X0151415Y0120593D03*
X0151415Y0120513D03*
X0151415Y0120433D03*
X0151415Y0120353D03*
X0151415Y0120273D03*
X0151415Y0120193D03*
X0151415Y0120113D03*
X0151415Y0120033D03*
X0155815Y0121153D03*
X0155815Y0121233D03*
X0155815Y0121313D03*
X0155815Y0121393D03*
X0155815Y0121473D03*
X0155815Y0121553D03*
X0155815Y0121633D03*
X0155815Y0121713D03*
X0155815Y0121793D03*
X0155815Y0121873D03*
X0155815Y0121953D03*
X0155815Y0122033D03*
X0155815Y0122113D03*
X0155815Y0122193D03*
X0155815Y0122273D03*
X0155815Y0122353D03*
X0155815Y0123713D03*
X0155815Y0123793D03*
X0155815Y0123873D03*
X0155815Y0123953D03*
X0155815Y0124033D03*
X0155815Y0124113D03*
X0155815Y0124193D03*
X0155815Y0124273D03*
X0155815Y0124353D03*
X0155815Y0124433D03*
X0155815Y0124513D03*
X0155815Y0124593D03*
X0155815Y0124673D03*
X0155815Y0124753D03*
X0155815Y0124833D03*
X0160775Y0124753D03*
X0160775Y0124673D03*
X0160775Y0124593D03*
X0160775Y0124513D03*
X0160775Y0124433D03*
X0160775Y0124353D03*
X0160775Y0124273D03*
X0160775Y0124193D03*
X0160775Y0124113D03*
X0160775Y0124033D03*
X0160775Y0123953D03*
X0160775Y0123873D03*
X0160775Y0123793D03*
X0160775Y0123713D03*
X0160775Y0123633D03*
X0160775Y0123553D03*
X0160775Y0123473D03*
X0160775Y0123393D03*
X0160775Y0123313D03*
X0160775Y0123233D03*
X0160775Y0123153D03*
X0160775Y0123073D03*
X0160775Y0122993D03*
X0160775Y0121473D03*
X0160775Y0121393D03*
X0160775Y0121313D03*
X0160775Y0121233D03*
X0160775Y0121153D03*
X0160775Y0121073D03*
X0160775Y0120993D03*
X0160775Y0120913D03*
X0160775Y0120833D03*
X0160775Y0120753D03*
X0160775Y0120673D03*
X0160775Y0120593D03*
X0160775Y0120513D03*
X0160775Y0120433D03*
X0160775Y0120353D03*
X0160775Y0120273D03*
X0160775Y0120193D03*
X0160775Y0120113D03*
X0160775Y0120033D03*
X0159415Y0117233D03*
X0159415Y0114353D03*
X0166055Y0116353D03*
X0167975Y0116353D03*
X0147015Y0120913D03*
X0143255Y0115553D03*
X0142055Y0116033D03*
X0138455Y0125073D03*
X0125655Y0124833D03*
X0125655Y0124753D03*
X0125655Y0124673D03*
X0125655Y0124593D03*
X0125655Y0124513D03*
X0125655Y0124433D03*
X0125655Y0124353D03*
X0125655Y0124273D03*
X0125655Y0124193D03*
X0125655Y0124113D03*
X0125655Y0124033D03*
X0125655Y0123953D03*
X0125655Y0123873D03*
X0125655Y0123793D03*
X0125655Y0123713D03*
X0125655Y0123633D03*
X0125655Y0123553D03*
X0125655Y0123473D03*
X0125655Y0123393D03*
X0125655Y0123313D03*
X0125655Y0123233D03*
X0125655Y0123153D03*
X0125655Y0123073D03*
X0125655Y0122993D03*
X0125655Y0122913D03*
X0125655Y0121553D03*
X0125655Y0121473D03*
X0125655Y0121393D03*
X0125655Y0121313D03*
X0125655Y0121233D03*
X0125655Y0121153D03*
X0125655Y0121073D03*
X0125655Y0120993D03*
X0125655Y0120913D03*
X0125655Y0120833D03*
X0125655Y0120753D03*
X0125655Y0120673D03*
X0125655Y0120593D03*
X0125655Y0120513D03*
X0125655Y0120433D03*
X0125655Y0120353D03*
X0125655Y0120273D03*
X0125655Y0120193D03*
X0125655Y0120113D03*
X0125655Y0120033D03*
X0111815Y0119953D03*
X0111815Y0120433D03*
X0111815Y0120513D03*
X0111815Y0120593D03*
X0111815Y0120673D03*
X0111815Y0120753D03*
X0111815Y0120833D03*
X0111815Y0120913D03*
X0111815Y0120993D03*
X0111815Y0121073D03*
X0111815Y0121153D03*
X0111815Y0121233D03*
X0111815Y0121313D03*
X0111815Y0121393D03*
X0111815Y0121473D03*
X0111815Y0121553D03*
X0111815Y0121633D03*
X0111815Y0121713D03*
X0111815Y0121793D03*
X0111815Y0121873D03*
X0111815Y0121953D03*
X0111815Y0122113D03*
X0111815Y0122193D03*
X0111815Y0123953D03*
X0111815Y0124033D03*
X0111815Y0124113D03*
X0111815Y0124193D03*
X0111815Y0124273D03*
X0111815Y0124353D03*
X0111815Y0124433D03*
X0111815Y0124513D03*
X0111815Y0124593D03*
X0108935Y0119953D03*
D29*
X0111855Y0120033D03*
X0111855Y0120113D03*
X0111855Y0120193D03*
X0111855Y0120273D03*
X0111855Y0120353D03*
X0111855Y0122033D03*
X0111855Y0122273D03*
X0111855Y0122353D03*
X0111855Y0123713D03*
X0111855Y0123793D03*
X0111855Y0123873D03*
X0111855Y0124673D03*
X0111855Y0124753D03*
X0116895Y0124753D03*
X0116895Y0124673D03*
X0116895Y0124593D03*
X0116895Y0124513D03*
X0116895Y0124433D03*
X0116895Y0124353D03*
X0116895Y0124273D03*
X0116895Y0124193D03*
X0116895Y0124113D03*
X0116895Y0124033D03*
X0116895Y0123953D03*
X0116895Y0123873D03*
X0116895Y0123793D03*
X0116895Y0122353D03*
X0116895Y0122273D03*
X0116895Y0122193D03*
X0116895Y0122113D03*
X0116895Y0122033D03*
X0116895Y0121953D03*
X0116895Y0121873D03*
X0116895Y0121793D03*
X0116895Y0121713D03*
X0116895Y0121633D03*
X0116895Y0121553D03*
X0116895Y0121473D03*
X0116895Y0121393D03*
X0116895Y0121313D03*
X0116895Y0121233D03*
X0132495Y0117313D03*
X0132495Y0115233D03*
X0137135Y0122033D03*
X0139855Y0122033D03*
X0139855Y0122113D03*
X0138495Y0124993D03*
X0143455Y0124913D03*
X0151535Y0117313D03*
X0155135Y0116833D03*
X0155855Y0122433D03*
X0155855Y0123633D03*
X0163855Y0122913D03*
X0164095Y0120593D03*
X0166095Y0116273D03*
X0167935Y0116273D03*
X0162895Y0114353D03*
X0167135Y0124753D03*
X0168095Y0125793D03*
X0142095Y0115953D03*
X0149535Y0159073D03*
X0117855Y0180593D03*
D30*
X0118575Y0179553D03*
X0112975Y0183713D03*
X0143135Y0125553D03*
X0147295Y0120353D03*
X0141775Y0116593D03*
X0129375Y0116113D03*
X0118575Y0114833D03*
X0118575Y0114753D03*
X0117695Y0115793D03*
X0116815Y0114753D03*
X0112895Y0114753D03*
X0107375Y0114753D03*
X0107375Y0114673D03*
X0106495Y0115873D03*
X0106495Y0115953D03*
X0154815Y0116033D03*
X0155135Y0114433D03*
X0158335Y0115233D03*
X0158255Y0116193D03*
X0158335Y0116353D03*
X0158415Y0116433D03*
X0161775Y0116353D03*
X0161855Y0116433D03*
X0161775Y0115233D03*
X0163935Y0115153D03*
X0163935Y0116353D03*
X0163855Y0116433D03*
X0165775Y0116833D03*
X0168255Y0116833D03*
D31*
X0159415Y0114433D03*
X0148935Y0115633D03*
X0148935Y0115713D03*
X0148935Y0115793D03*
X0148935Y0115873D03*
X0148935Y0115953D03*
X0148935Y0116033D03*
X0146855Y0121233D03*
X0146855Y0121313D03*
X0143575Y0124673D03*
X0138535Y0124753D03*
X0132615Y0117153D03*
X0149575Y0160993D03*
X0149575Y0162753D03*
X0152855Y0160833D03*
X0152855Y0160753D03*
X0117415Y0180993D03*
X0117335Y0181153D03*
X0116615Y0176833D03*
D32*
X0138495Y0124673D03*
X0138495Y0124593D03*
X0151695Y0117153D03*
X0162895Y0114433D03*
X0168095Y0125713D03*
D33*
X0164015Y0116193D03*
X0161615Y0115953D03*
X0161615Y0115873D03*
X0161615Y0115793D03*
X0161615Y0115713D03*
X0161615Y0115633D03*
X0158175Y0115633D03*
X0158175Y0115713D03*
X0158175Y0115793D03*
X0158175Y0115873D03*
X0158175Y0115953D03*
X0152575Y0115073D03*
X0148415Y0114673D03*
X0143615Y0114833D03*
X0138975Y0116753D03*
X0147375Y0120193D03*
X0147375Y0120273D03*
X0118575Y0114673D03*
X0118575Y0114593D03*
X0116815Y0114593D03*
X0107375Y0114593D03*
X0107375Y0114513D03*
X0105615Y0114513D03*
X0105615Y0114593D03*
D34*
X0127215Y0116913D03*
X0127215Y0116993D03*
X0127215Y0117073D03*
X0127215Y0117153D03*
X0127215Y0117233D03*
X0127215Y0117313D03*
X0127215Y0117393D03*
X0132735Y0116993D03*
X0132735Y0115393D03*
X0138495Y0124433D03*
X0138495Y0124513D03*
X0143695Y0124433D03*
X0159455Y0114513D03*
X0162895Y0114513D03*
X0168095Y0125633D03*
X0152735Y0160353D03*
X0152735Y0160433D03*
X0149615Y0162593D03*
D35*
X0149615Y0162913D03*
X0149535Y0164833D03*
X0149615Y0160833D03*
X0118175Y0180193D03*
X0118175Y0180273D03*
X0138495Y0125153D03*
X0139295Y0123393D03*
X0139375Y0123313D03*
X0139375Y0123233D03*
X0139535Y0122993D03*
X0139615Y0122753D03*
X0139615Y0122673D03*
X0139695Y0122593D03*
X0139695Y0122513D03*
X0139775Y0122433D03*
X0139775Y0122353D03*
X0140575Y0120753D03*
X0140575Y0120673D03*
X0140655Y0120593D03*
X0140655Y0120513D03*
X0140735Y0120353D03*
X0140895Y0120033D03*
X0137135Y0122273D03*
X0137215Y0122433D03*
X0137215Y0122513D03*
X0137295Y0122593D03*
X0137295Y0122673D03*
X0137375Y0122753D03*
X0137375Y0122833D03*
X0137455Y0122913D03*
X0137455Y0122993D03*
X0137535Y0123073D03*
X0137535Y0123153D03*
X0137615Y0123233D03*
X0137615Y0123313D03*
X0136335Y0120673D03*
X0136335Y0120593D03*
X0136255Y0120433D03*
X0136255Y0120353D03*
X0136175Y0120273D03*
X0136175Y0120193D03*
X0136095Y0120113D03*
X0136095Y0120033D03*
X0142015Y0116113D03*
X0143295Y0115473D03*
X0147055Y0120833D03*
X0143375Y0125073D03*
X0155135Y0116913D03*
X0155135Y0114673D03*
X0155135Y0114593D03*
X0162895Y0117233D03*
X0166015Y0116433D03*
X0166975Y0115713D03*
X0168015Y0116433D03*
X0167055Y0121313D03*
X0169135Y0121313D03*
X0169135Y0121393D03*
X0169215Y0121473D03*
X0169135Y0122273D03*
X0169215Y0124593D03*
X0169135Y0124673D03*
X0166975Y0123873D03*
X0163935Y0123073D03*
X0128815Y0123153D03*
X0128735Y0123073D03*
X0128655Y0122913D03*
X0118575Y0115313D03*
X0118575Y0115233D03*
X0116815Y0115313D03*
X0112975Y0115313D03*
X0111135Y0115313D03*
X0107375Y0115313D03*
X0105615Y0115313D03*
X0105615Y0115233D03*
D36*
X0132815Y0115553D03*
X0138975Y0115153D03*
X0146655Y0121633D03*
X0143775Y0124273D03*
X0138495Y0124273D03*
X0151855Y0116913D03*
X0151855Y0115553D03*
X0159135Y0114913D03*
X0159215Y0114833D03*
X0159375Y0114593D03*
X0159135Y0116673D03*
X0159215Y0116753D03*
X0159295Y0116833D03*
X0159375Y0116913D03*
X0168735Y0122433D03*
X0152655Y0160113D03*
X0152655Y0160193D03*
X0149615Y0161233D03*
X0149615Y0162433D03*
D37*
X0149575Y0162353D03*
X0149575Y0161313D03*
X0152615Y0160033D03*
X0113735Y0183153D03*
X0168135Y0125553D03*
X0167575Y0123473D03*
X0162855Y0114593D03*
X0159335Y0114673D03*
X0159255Y0114753D03*
X0146615Y0121713D03*
X0143815Y0124193D03*
X0138455Y0124193D03*
D38*
X0143215Y0125393D03*
X0147215Y0120513D03*
X0143455Y0115153D03*
X0141855Y0116433D03*
X0139775Y0114673D03*
X0152335Y0115153D03*
X0158575Y0116593D03*
X0161935Y0116513D03*
X0162015Y0116593D03*
X0161935Y0114993D03*
X0163775Y0114993D03*
X0165855Y0116673D03*
X0168175Y0116753D03*
X0118575Y0114993D03*
X0118575Y0114913D03*
X0116815Y0114913D03*
X0116815Y0114833D03*
X0107375Y0114833D03*
X0105615Y0114993D03*
X0149615Y0162993D03*
X0113055Y0183633D03*
D39*
X0149575Y0162113D03*
X0149575Y0162033D03*
X0149575Y0161633D03*
X0152535Y0159873D03*
X0144215Y0147233D03*
X0144215Y0147153D03*
X0144215Y0143313D03*
X0143895Y0124033D03*
X0146535Y0121873D03*
X0146055Y0117233D03*
X0146055Y0117153D03*
X0146055Y0117073D03*
X0146055Y0116993D03*
X0146055Y0116913D03*
X0146055Y0116833D03*
X0146055Y0116753D03*
X0139015Y0115073D03*
X0139015Y0114993D03*
X0139015Y0114913D03*
X0138455Y0124033D03*
X0162855Y0116833D03*
X0162855Y0114673D03*
X0168455Y0122673D03*
D40*
X0167815Y0123313D03*
X0168055Y0125473D03*
X0162855Y0116753D03*
X0162855Y0114753D03*
X0146455Y0122033D03*
X0143975Y0123873D03*
X0138455Y0123873D03*
X0138455Y0123953D03*
X0139015Y0114753D03*
X0144295Y0143393D03*
X0128135Y0143393D03*
X0128135Y0143313D03*
X0128135Y0147153D03*
X0119895Y0174673D03*
X0119895Y0174753D03*
X0119895Y0174833D03*
X0119895Y0174913D03*
X0119895Y0174993D03*
X0119895Y0175073D03*
X0119895Y0175153D03*
X0119895Y0175233D03*
X0119895Y0175313D03*
X0119895Y0175393D03*
D41*
X0118375Y0176753D03*
X0118295Y0176833D03*
X0116695Y0176753D03*
X0118535Y0179633D03*
X0138455Y0125633D03*
X0138455Y0125553D03*
X0143175Y0125473D03*
X0147255Y0120433D03*
X0143495Y0115073D03*
X0143495Y0114993D03*
X0141815Y0116513D03*
X0139015Y0116513D03*
X0139015Y0116433D03*
X0139015Y0116593D03*
X0158375Y0115153D03*
X0158455Y0115073D03*
X0158455Y0116513D03*
X0161815Y0115153D03*
X0161895Y0115073D03*
X0163815Y0115073D03*
X0163815Y0116513D03*
X0165815Y0116753D03*
X0167015Y0115553D03*
X0112935Y0114833D03*
X0112055Y0115713D03*
X0112055Y0115793D03*
X0111175Y0114913D03*
X0111175Y0114833D03*
X0105575Y0114833D03*
X0105575Y0114913D03*
D42*
X0138975Y0114833D03*
X0146495Y0121953D03*
X0143935Y0123953D03*
X0167695Y0123393D03*
X0168495Y0122593D03*
X0168095Y0120513D03*
X0144175Y0147073D03*
X0128095Y0147073D03*
X0128095Y0147233D03*
X0149615Y0161713D03*
X0149615Y0161793D03*
X0149615Y0161873D03*
X0149615Y0161953D03*
X0152495Y0159793D03*
X0113855Y0182993D03*
D43*
X0128095Y0143473D03*
X0138495Y0123793D03*
X0162895Y0114833D03*
X0168095Y0120593D03*
X0168095Y0122993D03*
D44*
X0164135Y0124273D03*
X0162855Y0117313D03*
X0163735Y0116593D03*
X0165895Y0116593D03*
X0168135Y0116673D03*
X0158535Y0114993D03*
X0155095Y0115793D03*
X0155095Y0117073D03*
X0141895Y0116353D03*
X0143255Y0125313D03*
X0138455Y0125393D03*
X0138455Y0125473D03*
X0117655Y0115553D03*
X0112935Y0115073D03*
X0112055Y0115553D03*
X0112055Y0115633D03*
X0107335Y0114993D03*
X0107335Y0114913D03*
X0118455Y0179793D03*
D45*
X0118495Y0179713D03*
X0117695Y0115713D03*
X0117695Y0115633D03*
X0112895Y0114993D03*
X0112895Y0114913D03*
X0106495Y0115633D03*
X0106495Y0115713D03*
X0106495Y0115793D03*
X0154895Y0115953D03*
X0155295Y0115633D03*
D46*
X0155175Y0115713D03*
X0155015Y0115873D03*
X0159415Y0117313D03*
X0147175Y0120593D03*
X0143415Y0115233D03*
X0139015Y0116273D03*
X0139015Y0116353D03*
X0129015Y0123633D03*
X0129015Y0123713D03*
X0129015Y0123793D03*
X0129015Y0123873D03*
X0129015Y0123953D03*
X0129015Y0124033D03*
X0129015Y0124113D03*
X0111175Y0114993D03*
X0149575Y0160753D03*
X0118375Y0179873D03*
D47*
X0112575Y0184033D03*
X0154015Y0152353D03*
X0150415Y0143393D03*
X0149855Y0143393D03*
X0149695Y0143393D03*
X0148895Y0143393D03*
X0148095Y0143393D03*
X0147695Y0143393D03*
X0146655Y0143393D03*
X0158335Y0122433D03*
X0152495Y0117233D03*
X0154335Y0114993D03*
X0154655Y0114993D03*
X0119775Y0126033D03*
X0116175Y0126033D03*
X0114735Y0126033D03*
X0111135Y0126033D03*
X0109615Y0126033D03*
X0108255Y0126033D03*
X0104575Y0126033D03*
X0103215Y0126033D03*
X0106815Y0121473D03*
X0106495Y0116673D03*
X0117695Y0116673D03*
D48*
X0132775Y0116913D03*
X0132775Y0115473D03*
X0138455Y0124353D03*
X0143735Y0124353D03*
X0146695Y0121553D03*
X0151815Y0116993D03*
X0151815Y0115473D03*
X0151815Y0115393D03*
X0151815Y0115313D03*
X0151815Y0115233D03*
X0159415Y0116993D03*
X0162855Y0116993D03*
X0168055Y0120353D03*
X0167415Y0123553D03*
X0152695Y0160273D03*
X0149575Y0161153D03*
X0149575Y0162513D03*
D49*
X0152975Y0162353D03*
X0152975Y0162273D03*
X0152975Y0162193D03*
X0152975Y0162113D03*
X0152975Y0162033D03*
X0152975Y0161953D03*
X0152975Y0161873D03*
X0152975Y0161793D03*
X0152975Y0161713D03*
X0152975Y0161633D03*
X0152975Y0161553D03*
X0120415Y0161553D03*
X0120415Y0161473D03*
X0120415Y0161393D03*
X0120415Y0161313D03*
X0120415Y0161233D03*
X0120415Y0161153D03*
X0120415Y0161073D03*
X0120415Y0160993D03*
X0120415Y0160913D03*
X0120415Y0160833D03*
X0120415Y0160753D03*
X0120415Y0160673D03*
X0120415Y0160593D03*
X0120415Y0160513D03*
X0120415Y0160433D03*
X0120415Y0160353D03*
X0120415Y0160273D03*
X0120415Y0160193D03*
X0120415Y0160113D03*
X0120415Y0160033D03*
X0120415Y0159953D03*
X0120415Y0159873D03*
X0120415Y0159793D03*
X0120415Y0159713D03*
X0120415Y0159633D03*
X0120415Y0159553D03*
X0120415Y0159473D03*
X0120415Y0159393D03*
X0120415Y0159313D03*
X0120415Y0159233D03*
X0120415Y0159153D03*
X0120415Y0159073D03*
X0120415Y0158993D03*
X0120415Y0158913D03*
X0120415Y0158833D03*
X0120415Y0158753D03*
X0120415Y0158673D03*
X0120415Y0158593D03*
X0120415Y0158513D03*
X0120415Y0158433D03*
X0120415Y0158353D03*
X0120415Y0158273D03*
X0120415Y0158193D03*
X0120415Y0158113D03*
X0120415Y0158033D03*
X0120415Y0157953D03*
X0120415Y0157873D03*
X0120415Y0157793D03*
X0120415Y0157713D03*
X0120415Y0157633D03*
X0120415Y0157553D03*
X0120415Y0157473D03*
X0120415Y0157393D03*
X0120415Y0157313D03*
X0120415Y0157233D03*
X0120415Y0157153D03*
X0120415Y0157073D03*
X0120415Y0156993D03*
X0120415Y0156913D03*
X0120415Y0156833D03*
X0120415Y0156753D03*
X0120415Y0156673D03*
X0120415Y0156593D03*
X0120415Y0156513D03*
X0120415Y0156433D03*
X0120415Y0156353D03*
X0120415Y0156273D03*
X0120415Y0156193D03*
X0120415Y0156113D03*
X0120415Y0156033D03*
X0120415Y0155953D03*
X0120415Y0155873D03*
X0120415Y0155793D03*
X0120415Y0155713D03*
X0120415Y0155633D03*
X0120415Y0155553D03*
X0120415Y0155473D03*
X0120415Y0155393D03*
X0120415Y0155313D03*
X0120415Y0155233D03*
X0120415Y0155153D03*
X0120415Y0155073D03*
X0120415Y0154993D03*
X0120415Y0154913D03*
X0120415Y0154833D03*
X0120415Y0154753D03*
X0120415Y0154673D03*
X0120415Y0154593D03*
X0120415Y0154513D03*
X0120415Y0154433D03*
X0120415Y0154353D03*
X0120415Y0154273D03*
X0120415Y0154193D03*
X0120415Y0154113D03*
X0120415Y0154033D03*
X0120415Y0153953D03*
X0120415Y0153873D03*
X0120415Y0153793D03*
X0120415Y0153713D03*
X0120415Y0153633D03*
X0120415Y0153553D03*
X0120415Y0153473D03*
X0120415Y0153393D03*
X0120415Y0153313D03*
X0120415Y0153233D03*
X0120415Y0153153D03*
X0120415Y0153073D03*
X0120415Y0152993D03*
X0120415Y0152913D03*
X0120415Y0152833D03*
X0120415Y0152753D03*
X0120415Y0152673D03*
X0120415Y0152593D03*
X0120415Y0152513D03*
X0120415Y0152433D03*
X0120415Y0152353D03*
X0120415Y0152273D03*
X0120415Y0152193D03*
X0120415Y0152113D03*
X0120415Y0152033D03*
X0120415Y0151953D03*
X0120415Y0151873D03*
X0120415Y0151793D03*
X0120415Y0151713D03*
X0120415Y0151633D03*
X0120415Y0151553D03*
X0120415Y0151473D03*
X0120415Y0151393D03*
X0120415Y0151313D03*
X0120415Y0151233D03*
X0120415Y0151153D03*
X0120415Y0151073D03*
X0120415Y0150993D03*
X0120415Y0150913D03*
X0120415Y0150833D03*
X0120415Y0150753D03*
X0120415Y0150673D03*
X0120415Y0150593D03*
X0120415Y0150513D03*
X0120415Y0150433D03*
X0120415Y0150353D03*
X0120415Y0150273D03*
X0120415Y0150193D03*
X0120415Y0150113D03*
X0120415Y0150033D03*
X0120415Y0149953D03*
X0120415Y0149873D03*
X0120415Y0149793D03*
X0120415Y0149713D03*
X0120415Y0149633D03*
X0120415Y0149553D03*
X0120415Y0149473D03*
X0120415Y0149393D03*
X0120415Y0149313D03*
X0120415Y0149233D03*
X0120415Y0149153D03*
X0120415Y0149073D03*
X0120415Y0148993D03*
X0120415Y0148913D03*
X0120415Y0148833D03*
X0120415Y0148753D03*
X0120415Y0148673D03*
X0120415Y0148593D03*
X0120415Y0148513D03*
X0120415Y0148433D03*
X0120415Y0148353D03*
X0120415Y0148273D03*
X0120415Y0148193D03*
X0120415Y0148113D03*
X0120415Y0148033D03*
X0120415Y0147953D03*
X0120415Y0147873D03*
X0120415Y0147793D03*
X0120415Y0147713D03*
X0120415Y0147633D03*
X0120415Y0147553D03*
X0120415Y0147473D03*
X0120415Y0147393D03*
X0120415Y0147313D03*
X0120415Y0147233D03*
X0120415Y0147153D03*
X0120415Y0147073D03*
X0120415Y0161633D03*
X0120415Y0161713D03*
X0120415Y0161793D03*
X0120415Y0161873D03*
X0120415Y0161953D03*
X0120415Y0162033D03*
X0120415Y0162113D03*
X0120415Y0162193D03*
X0120415Y0162273D03*
X0120415Y0162353D03*
X0120415Y0162433D03*
X0120415Y0162513D03*
X0120415Y0162593D03*
X0120415Y0162673D03*
X0120415Y0162753D03*
X0120415Y0162833D03*
X0120415Y0162913D03*
X0120415Y0162993D03*
X0120415Y0163073D03*
X0120415Y0163153D03*
X0120415Y0163233D03*
X0120415Y0163313D03*
X0120415Y0163393D03*
X0120415Y0163473D03*
X0120415Y0163553D03*
X0120415Y0163633D03*
X0120415Y0163713D03*
X0120415Y0163793D03*
X0120415Y0163873D03*
X0120415Y0163953D03*
X0120415Y0164033D03*
X0120415Y0164113D03*
X0120415Y0164193D03*
X0120415Y0164273D03*
X0120415Y0164353D03*
X0120415Y0164433D03*
X0120415Y0164513D03*
X0120415Y0164593D03*
X0120415Y0164673D03*
X0120415Y0164753D03*
X0120415Y0164833D03*
X0120415Y0164913D03*
X0120415Y0164993D03*
X0120415Y0165073D03*
X0120415Y0165153D03*
X0120415Y0165233D03*
X0120415Y0165313D03*
X0120415Y0165393D03*
X0120415Y0165473D03*
X0120415Y0165553D03*
X0120415Y0165633D03*
X0120415Y0165713D03*
X0120415Y0165793D03*
X0120415Y0165873D03*
X0120415Y0165953D03*
X0120415Y0166033D03*
X0120415Y0166113D03*
X0120415Y0166193D03*
X0120415Y0166273D03*
X0120415Y0166353D03*
X0120415Y0166433D03*
X0120415Y0166513D03*
X0120415Y0166593D03*
X0120415Y0166673D03*
X0120415Y0166753D03*
X0120415Y0166833D03*
X0120415Y0166913D03*
X0120415Y0166993D03*
X0120415Y0167073D03*
X0120415Y0167153D03*
X0120415Y0167233D03*
X0120415Y0167313D03*
X0120415Y0167393D03*
X0120415Y0167473D03*
X0120415Y0167553D03*
X0120415Y0167633D03*
X0120415Y0167713D03*
X0120415Y0167793D03*
X0120415Y0167873D03*
X0120415Y0167953D03*
X0120415Y0168033D03*
X0120415Y0168113D03*
X0120415Y0168193D03*
X0120415Y0168273D03*
X0120415Y0168353D03*
X0120415Y0168433D03*
X0120415Y0168513D03*
X0120415Y0168593D03*
X0120415Y0168673D03*
X0120415Y0168753D03*
X0120415Y0168833D03*
X0120415Y0168913D03*
X0120415Y0168993D03*
X0120415Y0169073D03*
X0120415Y0169153D03*
X0120415Y0169233D03*
X0120415Y0169313D03*
X0120415Y0169393D03*
X0120415Y0169473D03*
X0120415Y0169553D03*
X0120415Y0169633D03*
X0120415Y0169713D03*
X0120415Y0169793D03*
X0120415Y0169873D03*
X0120415Y0169953D03*
X0120415Y0170033D03*
X0120415Y0170113D03*
X0120415Y0170193D03*
X0120415Y0170273D03*
X0120415Y0170353D03*
X0120415Y0170433D03*
X0120415Y0170513D03*
X0120415Y0170593D03*
X0120415Y0170673D03*
X0120415Y0170753D03*
X0120415Y0170833D03*
X0120415Y0170913D03*
X0120415Y0170993D03*
X0120415Y0171073D03*
X0120415Y0171153D03*
X0120415Y0171233D03*
X0120415Y0171313D03*
X0120415Y0171393D03*
X0120415Y0171473D03*
X0120415Y0171553D03*
X0120415Y0171633D03*
X0120415Y0171713D03*
X0120415Y0171793D03*
X0120415Y0171873D03*
X0120415Y0171953D03*
X0120415Y0172033D03*
X0120415Y0172113D03*
X0120415Y0172193D03*
X0120415Y0172273D03*
X0120415Y0172353D03*
X0120415Y0172433D03*
X0120415Y0172513D03*
X0120415Y0172593D03*
X0120415Y0172673D03*
X0120415Y0172993D03*
X0120415Y0173073D03*
X0120415Y0173153D03*
X0120415Y0173233D03*
X0120415Y0173313D03*
X0120415Y0173393D03*
X0120415Y0173473D03*
X0120415Y0173553D03*
X0120415Y0174513D03*
X0118015Y0180433D03*
X0117775Y0180673D03*
X0108975Y0125873D03*
X0108975Y0125793D03*
X0108975Y0125713D03*
X0108975Y0125633D03*
X0108975Y0125553D03*
X0108975Y0125473D03*
X0108975Y0125393D03*
X0108975Y0125313D03*
X0108975Y0125233D03*
X0108975Y0125153D03*
X0108975Y0125073D03*
X0108975Y0124993D03*
X0108975Y0124913D03*
X0108975Y0124833D03*
X0108975Y0124753D03*
X0108975Y0124673D03*
X0108975Y0124593D03*
X0108975Y0124513D03*
X0108975Y0124433D03*
X0108975Y0124353D03*
X0108975Y0124273D03*
X0108975Y0124193D03*
X0108975Y0124113D03*
X0108975Y0124033D03*
X0108975Y0123953D03*
X0108975Y0123873D03*
X0108975Y0123793D03*
X0108975Y0123713D03*
X0108975Y0123633D03*
X0108975Y0123553D03*
X0108975Y0123473D03*
X0108975Y0123393D03*
X0108975Y0123313D03*
X0108975Y0123233D03*
X0108975Y0123153D03*
X0108975Y0123073D03*
X0108975Y0122993D03*
X0108975Y0122913D03*
X0108975Y0122833D03*
X0108975Y0122753D03*
X0108975Y0122673D03*
X0108975Y0122593D03*
X0108975Y0122513D03*
X0108975Y0122433D03*
X0108975Y0122353D03*
X0108975Y0122273D03*
X0108975Y0122193D03*
X0108975Y0122113D03*
X0108975Y0122033D03*
X0108975Y0121953D03*
X0108975Y0121873D03*
X0108975Y0121793D03*
X0108975Y0121713D03*
X0108975Y0121633D03*
X0108975Y0121553D03*
X0108975Y0121473D03*
X0108975Y0121393D03*
X0108975Y0121313D03*
X0108975Y0121233D03*
X0108975Y0121153D03*
X0108975Y0121073D03*
X0108975Y0120993D03*
X0108975Y0120913D03*
X0108975Y0120833D03*
X0108975Y0120753D03*
X0108975Y0120673D03*
X0108975Y0120593D03*
X0108975Y0120513D03*
X0108975Y0120433D03*
X0108975Y0120353D03*
X0108975Y0120273D03*
X0108975Y0120193D03*
X0108975Y0120113D03*
X0108975Y0120033D03*
X0143215Y0115633D03*
X0146975Y0120993D03*
X0160815Y0121553D03*
X0160815Y0122913D03*
X0160815Y0124833D03*
X0166975Y0115793D03*
D50*
X0166135Y0116193D03*
X0167895Y0116193D03*
X0168055Y0120193D03*
X0169015Y0122353D03*
X0167175Y0123633D03*
X0163815Y0124753D03*
X0163575Y0121553D03*
X0163655Y0121473D03*
X0163655Y0121393D03*
X0163735Y0121313D03*
X0163735Y0121233D03*
X0163815Y0121153D03*
X0163975Y0120833D03*
X0164055Y0120753D03*
X0164055Y0120673D03*
X0164215Y0120433D03*
X0164295Y0120273D03*
X0164295Y0120193D03*
X0164375Y0120113D03*
X0164455Y0120033D03*
X0159415Y0117153D03*
X0151575Y0117233D03*
X0146935Y0121073D03*
X0143495Y0124833D03*
X0138455Y0124913D03*
X0128535Y0124753D03*
X0116935Y0123713D03*
X0108935Y0125953D03*
X0103895Y0125953D03*
X0103895Y0125873D03*
X0103895Y0125793D03*
X0103895Y0125713D03*
X0103895Y0125633D03*
X0103895Y0125553D03*
X0103895Y0125473D03*
X0103895Y0125393D03*
X0103895Y0125313D03*
X0103895Y0125233D03*
X0103895Y0125153D03*
X0103895Y0125073D03*
X0103895Y0124993D03*
X0103895Y0124913D03*
X0103895Y0124833D03*
X0103895Y0124753D03*
X0103895Y0124673D03*
X0103895Y0124593D03*
X0103895Y0124513D03*
X0103895Y0124433D03*
X0103895Y0124353D03*
X0103895Y0124273D03*
X0103895Y0124193D03*
X0103895Y0124113D03*
X0103895Y0124033D03*
X0103895Y0123953D03*
X0103895Y0123873D03*
X0103895Y0123793D03*
X0103895Y0123713D03*
X0103895Y0123633D03*
X0103895Y0123553D03*
X0103895Y0123473D03*
X0103895Y0123393D03*
X0103895Y0123313D03*
X0103895Y0123233D03*
X0103895Y0123153D03*
X0103895Y0123073D03*
X0103895Y0122993D03*
X0103895Y0122913D03*
X0103895Y0122833D03*
X0103895Y0122753D03*
X0103895Y0122673D03*
X0103895Y0122593D03*
X0103895Y0122513D03*
X0103895Y0122433D03*
X0103895Y0122353D03*
X0103895Y0122273D03*
X0103895Y0122193D03*
X0103895Y0122113D03*
X0103895Y0122033D03*
X0103895Y0121953D03*
X0103895Y0121873D03*
X0103895Y0121793D03*
X0103895Y0121713D03*
X0103895Y0121633D03*
X0103895Y0121553D03*
X0142135Y0115873D03*
X0143175Y0115713D03*
X0149575Y0160913D03*
X0149575Y0162833D03*
X0152935Y0162673D03*
X0152935Y0162593D03*
X0152935Y0162513D03*
X0152935Y0162433D03*
X0152935Y0161473D03*
X0152935Y0161393D03*
X0152935Y0161313D03*
X0152935Y0161233D03*
X0120375Y0174593D03*
X0117735Y0180753D03*
X0117655Y0180833D03*
X0117575Y0180913D03*
D51*
X0113455Y0183393D03*
X0152895Y0162753D03*
X0152895Y0161153D03*
X0152895Y0161073D03*
X0152895Y0160993D03*
X0152895Y0160913D03*
X0143535Y0124753D03*
X0138495Y0124833D03*
X0146895Y0121153D03*
X0143135Y0115793D03*
X0132575Y0117233D03*
X0128495Y0124833D03*
X0103935Y0121473D03*
X0162895Y0117153D03*
X0164255Y0120353D03*
X0164175Y0120513D03*
X0163935Y0120913D03*
X0163855Y0120993D03*
X0163855Y0121073D03*
X0163695Y0124833D03*
D52*
X0168135Y0124833D03*
X0168055Y0121153D03*
X0167015Y0116113D03*
X0167015Y0116033D03*
X0167015Y0115953D03*
X0167015Y0115873D03*
X0156775Y0122513D03*
X0156775Y0122593D03*
X0156775Y0122673D03*
X0156775Y0122753D03*
X0156775Y0122833D03*
X0156775Y0122913D03*
X0156775Y0122993D03*
X0156775Y0123073D03*
X0156775Y0123153D03*
X0156775Y0123233D03*
X0156775Y0123313D03*
X0156775Y0123393D03*
X0156775Y0123473D03*
X0156775Y0123553D03*
X0126615Y0125793D03*
X0136375Y0161473D03*
X0136375Y0161553D03*
X0136375Y0161633D03*
X0136375Y0161713D03*
X0136375Y0161793D03*
X0136375Y0161873D03*
X0136375Y0161953D03*
X0136375Y0162033D03*
X0136375Y0162113D03*
X0117015Y0176913D03*
D53*
X0118895Y0178433D03*
X0118895Y0178513D03*
X0118895Y0178593D03*
X0121695Y0175473D03*
X0146895Y0162833D03*
X0147695Y0159793D03*
X0151695Y0163713D03*
X0151295Y0164113D03*
X0106495Y0116593D03*
X0106495Y0116513D03*
X0106495Y0116433D03*
X0117695Y0116513D03*
D54*
X0126295Y0125953D03*
X0138455Y0123713D03*
X0144055Y0123713D03*
X0162855Y0116673D03*
X0168135Y0122913D03*
X0168055Y0125393D03*
X0119895Y0175473D03*
D55*
X0138495Y0124113D03*
X0143855Y0124113D03*
X0146095Y0117313D03*
X0162895Y0116913D03*
X0168095Y0120433D03*
D56*
X0161935Y0125633D03*
X0156895Y0125953D03*
X0126815Y0125553D03*
X0126815Y0122113D03*
X0126815Y0122033D03*
X0118015Y0121073D03*
X0118015Y0120993D03*
X0118015Y0120913D03*
X0118015Y0120833D03*
X0118015Y0120753D03*
X0118015Y0120673D03*
X0118015Y0120593D03*
X0118015Y0120513D03*
X0118015Y0120433D03*
X0118015Y0120353D03*
X0118015Y0120273D03*
X0118015Y0120193D03*
X0118015Y0120113D03*
X0118015Y0120033D03*
X0118015Y0124913D03*
X0118015Y0124993D03*
X0118015Y0125073D03*
X0118015Y0125153D03*
X0118015Y0125233D03*
X0118015Y0125313D03*
X0118015Y0125393D03*
X0118015Y0125473D03*
X0118015Y0125553D03*
X0118015Y0125633D03*
X0118015Y0125713D03*
X0118015Y0125793D03*
X0118015Y0125873D03*
X0118015Y0125953D03*
X0112975Y0125953D03*
X0112975Y0125873D03*
X0112975Y0125793D03*
X0112975Y0125713D03*
X0112975Y0125633D03*
X0112975Y0125553D03*
X0112975Y0125473D03*
X0112975Y0125393D03*
X0112975Y0125313D03*
X0112975Y0125233D03*
X0112975Y0125153D03*
X0112975Y0125073D03*
X0112975Y0124993D03*
X0112975Y0124913D03*
X0112975Y0124833D03*
X0105055Y0119953D03*
X0116735Y0177233D03*
X0116655Y0177313D03*
X0114975Y0180193D03*
X0114895Y0180273D03*
D57*
X0114855Y0180353D03*
X0116775Y0177153D03*
X0117975Y0124833D03*
X0117975Y0121153D03*
X0117975Y0119953D03*
X0132535Y0120033D03*
X0132535Y0120113D03*
X0132535Y0120193D03*
X0132535Y0120273D03*
X0132535Y0120353D03*
X0132535Y0120433D03*
X0132535Y0120513D03*
X0132535Y0120593D03*
X0132535Y0120673D03*
X0132535Y0120753D03*
X0132535Y0120833D03*
X0132535Y0120913D03*
X0132535Y0120993D03*
X0132535Y0121073D03*
X0132535Y0121153D03*
X0132535Y0121233D03*
X0132535Y0121313D03*
X0132535Y0121393D03*
X0156935Y0121073D03*
X0156935Y0120993D03*
X0156935Y0120913D03*
X0156935Y0120833D03*
X0156935Y0120753D03*
X0156935Y0120673D03*
X0156935Y0120593D03*
X0156935Y0120513D03*
X0156935Y0120433D03*
X0156935Y0120353D03*
X0156935Y0120273D03*
X0156935Y0120193D03*
X0156935Y0120113D03*
X0156935Y0120033D03*
X0156935Y0124913D03*
X0156935Y0124993D03*
X0156935Y0125073D03*
X0156935Y0125153D03*
X0156935Y0125233D03*
X0156935Y0125313D03*
X0156935Y0125393D03*
X0156935Y0125473D03*
X0156935Y0125553D03*
X0156935Y0125633D03*
X0156935Y0125713D03*
X0156935Y0125793D03*
X0156935Y0125873D03*
D58*
X0161975Y0125553D03*
X0126855Y0125473D03*
X0126855Y0122193D03*
X0105015Y0121393D03*
X0105015Y0121313D03*
X0105015Y0121233D03*
X0105015Y0121153D03*
X0105015Y0121073D03*
X0105015Y0120993D03*
X0105015Y0120913D03*
X0105015Y0120833D03*
X0105015Y0120753D03*
X0105015Y0120673D03*
X0105015Y0120593D03*
X0105015Y0120513D03*
X0105015Y0120433D03*
X0105015Y0120353D03*
X0105015Y0120273D03*
X0105015Y0120193D03*
X0105015Y0120113D03*
X0105015Y0120033D03*
X0115015Y0180113D03*
X0114615Y0182353D03*
D59*
X0128695Y0124673D03*
X0128695Y0122993D03*
X0136295Y0120513D03*
X0137095Y0122113D03*
X0137095Y0122193D03*
X0163895Y0122993D03*
X0163895Y0124673D03*
X0167095Y0124673D03*
X0169095Y0124753D03*
D60*
X0168095Y0125233D03*
X0168095Y0125313D03*
X0168095Y0120673D03*
X0161455Y0125953D03*
X0146335Y0122273D03*
X0144095Y0123633D03*
X0138495Y0123633D03*
X0136175Y0133553D03*
X0136175Y0133633D03*
X0136175Y0133713D03*
X0136175Y0133793D03*
X0136175Y0133873D03*
X0136175Y0133953D03*
X0136175Y0134033D03*
X0136175Y0134113D03*
X0136175Y0134193D03*
X0136175Y0134273D03*
X0136175Y0134353D03*
X0136175Y0134433D03*
X0136175Y0134513D03*
X0136175Y0134593D03*
X0136175Y0134673D03*
X0136175Y0134753D03*
X0136175Y0134833D03*
X0126335Y0121633D03*
X0152335Y0159553D03*
D61*
X0152255Y0159473D03*
X0152255Y0159073D03*
X0152255Y0158993D03*
X0152255Y0158913D03*
X0152255Y0158833D03*
X0152255Y0158753D03*
X0152255Y0158673D03*
X0152255Y0158593D03*
X0152255Y0158513D03*
X0152255Y0158433D03*
X0152255Y0158353D03*
X0152255Y0158273D03*
X0152255Y0158193D03*
X0152255Y0158113D03*
X0152255Y0158033D03*
X0152255Y0157953D03*
X0152255Y0157873D03*
X0152255Y0157793D03*
X0152255Y0157713D03*
X0152255Y0157633D03*
X0152255Y0157553D03*
X0152255Y0157473D03*
X0152255Y0157393D03*
X0152255Y0157313D03*
X0152255Y0157233D03*
X0152255Y0157153D03*
X0152255Y0157073D03*
X0152255Y0156993D03*
X0152255Y0156913D03*
X0152255Y0156833D03*
X0152255Y0156753D03*
X0152255Y0156673D03*
X0152255Y0156593D03*
X0152255Y0156513D03*
X0152255Y0156433D03*
X0152255Y0156353D03*
X0152255Y0156273D03*
X0152255Y0156193D03*
X0152255Y0156113D03*
X0152255Y0156033D03*
X0152255Y0155953D03*
X0152255Y0155873D03*
X0152255Y0155793D03*
X0152255Y0155713D03*
X0152255Y0155633D03*
X0152255Y0155553D03*
X0152255Y0155473D03*
X0152255Y0155393D03*
X0152255Y0155313D03*
X0152255Y0155233D03*
X0152255Y0155153D03*
X0152255Y0155073D03*
X0152255Y0154993D03*
X0152255Y0152193D03*
X0152255Y0151873D03*
X0152255Y0151793D03*
X0152255Y0151713D03*
X0152255Y0151633D03*
X0152255Y0147153D03*
X0152255Y0147073D03*
X0136175Y0147153D03*
X0136175Y0147233D03*
X0136175Y0147393D03*
X0136175Y0147473D03*
X0136175Y0147553D03*
X0136175Y0148593D03*
X0136175Y0148673D03*
X0136175Y0148753D03*
X0136175Y0148833D03*
X0136175Y0148913D03*
X0136175Y0148993D03*
X0136175Y0149073D03*
X0136175Y0149153D03*
X0136175Y0149313D03*
X0136175Y0149393D03*
X0136175Y0150753D03*
X0136175Y0150833D03*
X0136175Y0150913D03*
X0136175Y0150993D03*
X0136175Y0151073D03*
X0136175Y0151153D03*
X0136175Y0151233D03*
X0136175Y0152193D03*
X0136175Y0152273D03*
X0136095Y0155153D03*
X0136095Y0155233D03*
X0136095Y0155313D03*
X0136095Y0155393D03*
X0136095Y0155473D03*
X0136095Y0155553D03*
X0136095Y0155633D03*
X0136095Y0155713D03*
X0136095Y0155793D03*
X0136095Y0155873D03*
X0136095Y0155953D03*
X0136095Y0156033D03*
X0136095Y0156113D03*
X0136095Y0156193D03*
X0136095Y0156273D03*
X0136095Y0156353D03*
X0136095Y0156433D03*
X0136095Y0156513D03*
X0136095Y0156593D03*
X0136095Y0156673D03*
X0136095Y0156753D03*
X0136095Y0156833D03*
X0136095Y0156913D03*
X0136095Y0156993D03*
X0136095Y0157073D03*
X0136095Y0157153D03*
X0136095Y0157233D03*
X0136095Y0157313D03*
X0136095Y0157393D03*
X0136095Y0157473D03*
X0136095Y0157553D03*
X0136095Y0157633D03*
X0136095Y0157713D03*
X0136095Y0157953D03*
X0136095Y0158033D03*
X0136095Y0158113D03*
X0136095Y0158353D03*
X0136095Y0158433D03*
X0136095Y0158513D03*
X0136175Y0158673D03*
X0136175Y0158753D03*
X0136175Y0158833D03*
X0136175Y0158913D03*
X0136175Y0158993D03*
X0136175Y0159073D03*
X0136175Y0159153D03*
X0136175Y0159233D03*
X0136175Y0159313D03*
X0136175Y0143473D03*
X0136175Y0143233D03*
X0136175Y0143153D03*
X0136175Y0143073D03*
X0136175Y0139233D03*
X0136175Y0139153D03*
X0136175Y0139073D03*
X0136175Y0138993D03*
X0136175Y0138913D03*
X0136175Y0138833D03*
X0136175Y0138753D03*
X0136175Y0138673D03*
X0136175Y0138593D03*
X0136175Y0138513D03*
X0136175Y0138353D03*
X0136175Y0138273D03*
X0136175Y0138193D03*
X0136175Y0135553D03*
X0136175Y0135393D03*
X0136175Y0135073D03*
X0136175Y0134993D03*
X0138495Y0123473D03*
X0144175Y0123473D03*
X0146255Y0122513D03*
X0146255Y0122433D03*
X0168095Y0120833D03*
X0168095Y0120753D03*
X0168095Y0125153D03*
X0114655Y0180913D03*
X0114655Y0180993D03*
D62*
X0138455Y0120833D03*
D63*
X0138495Y0120913D03*
D64*
X0144255Y0123313D03*
X0126495Y0121713D03*
X0126495Y0125873D03*
X0168095Y0125073D03*
X0168095Y0124993D03*
X0168095Y0120913D03*
D65*
X0138455Y0120993D03*
D66*
X0161655Y0125873D03*
X0168055Y0120993D03*
X0152215Y0152353D03*
X0152135Y0159313D03*
X0114775Y0180673D03*
D67*
X0138495Y0121073D03*
D68*
X0146095Y0122753D03*
X0126575Y0121793D03*
X0168095Y0121073D03*
X0168095Y0124913D03*
X0114815Y0180593D03*
X0114255Y0182673D03*
D69*
X0138495Y0121233D03*
X0138495Y0121153D03*
D70*
X0168095Y0121233D03*
X0116895Y0176993D03*
D71*
X0115495Y0181393D03*
X0115415Y0181473D03*
X0138535Y0121313D03*
D72*
X0138495Y0121393D03*
X0138495Y0121473D03*
X0115375Y0181553D03*
D73*
X0138495Y0121633D03*
X0138495Y0121553D03*
D74*
X0127055Y0122513D03*
X0127055Y0122593D03*
X0127055Y0125073D03*
X0162175Y0125153D03*
X0162175Y0122513D03*
X0162175Y0121633D03*
X0116255Y0177873D03*
X0116175Y0178033D03*
X0115615Y0178993D03*
X0115535Y0179073D03*
X0115455Y0179233D03*
X0115455Y0179313D03*
X0115375Y0179393D03*
D75*
X0115135Y0181793D03*
X0138495Y0121793D03*
X0138495Y0121713D03*
D76*
X0127015Y0122433D03*
X0127015Y0125153D03*
X0162135Y0125233D03*
X0162135Y0122433D03*
X0162135Y0121793D03*
X0162135Y0121713D03*
X0116295Y0177713D03*
X0116295Y0177793D03*
X0115495Y0179153D03*
X0115255Y0179633D03*
X0114855Y0182113D03*
X0114775Y0182193D03*
D77*
X0113775Y0183073D03*
X0149615Y0162273D03*
X0149615Y0162193D03*
X0149615Y0161553D03*
X0149615Y0161473D03*
X0149615Y0161393D03*
X0152575Y0159953D03*
X0146575Y0121793D03*
X0168575Y0122513D03*
D78*
X0161775Y0125793D03*
X0126655Y0121873D03*
X0117855Y0122433D03*
X0117855Y0122993D03*
X0117855Y0123233D03*
X0117855Y0123313D03*
X0117855Y0123393D03*
X0112815Y0122433D03*
X0152015Y0159233D03*
X0114815Y0180513D03*
X0114415Y0182593D03*
D79*
X0115015Y0182033D03*
X0115015Y0181953D03*
X0138455Y0121873D03*
X0162295Y0122833D03*
D80*
X0162095Y0122353D03*
X0162095Y0122273D03*
X0162095Y0121873D03*
X0162095Y0125313D03*
X0136175Y0128193D03*
X0136175Y0128273D03*
X0136175Y0128353D03*
X0136175Y0128433D03*
X0136175Y0128513D03*
X0136175Y0128593D03*
X0136175Y0128673D03*
X0136175Y0128753D03*
X0136175Y0128833D03*
X0136175Y0128913D03*
X0136175Y0128993D03*
X0136175Y0129073D03*
X0136175Y0129153D03*
X0136175Y0129233D03*
X0136175Y0135633D03*
X0136175Y0135713D03*
X0136175Y0135793D03*
X0136175Y0135873D03*
X0136175Y0135953D03*
X0136175Y0136033D03*
X0136175Y0136113D03*
X0136175Y0136193D03*
X0136175Y0136273D03*
X0136175Y0136353D03*
X0136175Y0136433D03*
X0136175Y0136513D03*
X0136175Y0136593D03*
X0136175Y0136673D03*
X0136175Y0136753D03*
X0136175Y0136833D03*
X0136175Y0136913D03*
X0136175Y0136993D03*
X0136175Y0137073D03*
X0136175Y0137153D03*
X0136175Y0137233D03*
X0136175Y0137313D03*
X0136175Y0137393D03*
X0136175Y0137473D03*
X0136175Y0137553D03*
X0136175Y0137633D03*
X0136175Y0137713D03*
X0136175Y0137793D03*
X0136175Y0137873D03*
X0136175Y0137953D03*
X0136175Y0138033D03*
X0136175Y0138113D03*
X0136175Y0152433D03*
X0136175Y0152513D03*
X0136175Y0152593D03*
X0136175Y0152673D03*
X0136175Y0152753D03*
X0136175Y0152833D03*
X0136175Y0152913D03*
X0136175Y0152993D03*
X0136175Y0153073D03*
X0136175Y0153153D03*
X0136175Y0153233D03*
X0136175Y0153313D03*
X0136175Y0153393D03*
X0136175Y0153473D03*
X0136175Y0153553D03*
X0136175Y0153633D03*
X0136175Y0153713D03*
X0136175Y0153793D03*
X0136175Y0153873D03*
X0136175Y0153953D03*
X0136175Y0154033D03*
X0136175Y0154113D03*
X0136175Y0154193D03*
X0136175Y0154273D03*
X0136175Y0154353D03*
X0136175Y0154433D03*
X0136175Y0154513D03*
X0136175Y0154593D03*
X0136175Y0154673D03*
X0136175Y0154753D03*
X0136175Y0154833D03*
X0116415Y0177633D03*
X0115295Y0179473D03*
X0115295Y0179553D03*
X0115215Y0179713D03*
X0126975Y0125233D03*
X0126975Y0122353D03*
D81*
X0126695Y0121953D03*
X0126695Y0125713D03*
X0117895Y0123633D03*
X0117895Y0123553D03*
X0117895Y0123473D03*
X0117895Y0123153D03*
X0117895Y0123073D03*
X0117895Y0122913D03*
X0117895Y0122833D03*
X0117895Y0122753D03*
X0117895Y0122673D03*
X0117895Y0122593D03*
X0117895Y0122513D03*
X0112855Y0122513D03*
X0112855Y0122593D03*
X0112855Y0122673D03*
X0112855Y0122753D03*
X0112855Y0122833D03*
X0112855Y0122913D03*
X0112855Y0122993D03*
X0112855Y0123073D03*
X0112855Y0123153D03*
X0112855Y0123233D03*
X0112855Y0123313D03*
X0112855Y0123393D03*
X0112855Y0123473D03*
X0112855Y0123553D03*
X0112855Y0123633D03*
X0116855Y0177073D03*
X0114455Y0182513D03*
D82*
X0115655Y0178913D03*
X0115655Y0178833D03*
X0115735Y0178753D03*
X0115895Y0178513D03*
X0116055Y0178193D03*
X0127095Y0124993D03*
X0127095Y0124913D03*
X0127095Y0122753D03*
X0127095Y0122673D03*
X0138455Y0121953D03*
D83*
X0126935Y0122273D03*
X0126935Y0125313D03*
X0152135Y0152433D03*
X0152135Y0152513D03*
X0152135Y0152593D03*
X0152135Y0152673D03*
X0152135Y0152753D03*
X0152135Y0152833D03*
X0152135Y0152913D03*
X0152135Y0152993D03*
X0152135Y0153073D03*
X0152135Y0153153D03*
X0152135Y0153233D03*
X0152135Y0153313D03*
X0152135Y0153393D03*
X0152135Y0153473D03*
X0152135Y0153553D03*
X0152135Y0153633D03*
X0152135Y0153713D03*
X0152135Y0153793D03*
X0152135Y0153873D03*
X0152135Y0153953D03*
X0152135Y0154033D03*
X0152135Y0154113D03*
X0152135Y0154193D03*
X0152135Y0154273D03*
X0152135Y0154353D03*
X0152135Y0154433D03*
X0152135Y0154513D03*
X0152135Y0154593D03*
X0152135Y0154673D03*
X0152135Y0154753D03*
X0162055Y0125393D03*
X0162055Y0122193D03*
X0162055Y0122113D03*
X0162055Y0122033D03*
X0162055Y0121953D03*
X0116455Y0177553D03*
X0115175Y0179793D03*
D84*
X0113935Y0182913D03*
X0152415Y0159713D03*
X0152415Y0159633D03*
X0144015Y0123793D03*
X0146415Y0122113D03*
X0167855Y0123233D03*
X0167935Y0123153D03*
X0168015Y0123073D03*
X0168255Y0122833D03*
X0168335Y0122753D03*
D85*
X0146375Y0122193D03*
D86*
X0146295Y0122353D03*
X0144135Y0123553D03*
X0138455Y0123553D03*
X0136215Y0129393D03*
X0136215Y0129473D03*
X0136215Y0129553D03*
X0136215Y0129633D03*
X0136215Y0129713D03*
X0136215Y0129793D03*
X0136215Y0129873D03*
X0136215Y0129953D03*
X0136215Y0130033D03*
X0136215Y0130113D03*
X0136215Y0130193D03*
X0136215Y0130273D03*
X0136215Y0130353D03*
X0136215Y0130433D03*
X0136215Y0130513D03*
X0136215Y0130593D03*
X0136215Y0130673D03*
X0136215Y0130753D03*
X0136215Y0130833D03*
X0136215Y0130913D03*
X0136215Y0130993D03*
X0136215Y0131073D03*
X0136215Y0131153D03*
X0136215Y0131233D03*
X0136215Y0131313D03*
X0136215Y0131393D03*
X0136215Y0131473D03*
X0136215Y0131553D03*
X0136215Y0131633D03*
X0136215Y0131713D03*
X0136215Y0131793D03*
X0136215Y0131873D03*
X0136215Y0131953D03*
X0136215Y0132033D03*
X0136215Y0132113D03*
X0136215Y0132193D03*
X0136215Y0132273D03*
X0136215Y0132353D03*
X0136215Y0132433D03*
X0136215Y0132513D03*
X0136215Y0132593D03*
X0136215Y0132673D03*
X0136215Y0132753D03*
X0136215Y0132833D03*
X0136215Y0132913D03*
X0136215Y0132993D03*
X0136215Y0133073D03*
X0136215Y0133153D03*
X0136215Y0133233D03*
X0136215Y0133313D03*
X0136215Y0133393D03*
X0136215Y0133473D03*
X0136215Y0134913D03*
X0136215Y0135153D03*
X0136215Y0135233D03*
X0136215Y0135313D03*
X0136215Y0135473D03*
X0136215Y0138433D03*
X0136215Y0139313D03*
X0136215Y0139393D03*
X0136215Y0139473D03*
X0136215Y0139553D03*
X0136215Y0139633D03*
X0136215Y0139713D03*
X0136215Y0139793D03*
X0136215Y0139873D03*
X0136215Y0139953D03*
X0136215Y0140033D03*
X0136215Y0140113D03*
X0136215Y0140193D03*
X0136215Y0140273D03*
X0136215Y0140353D03*
X0136215Y0140433D03*
X0136215Y0140513D03*
X0136215Y0140593D03*
X0136215Y0140673D03*
X0136215Y0140753D03*
X0136215Y0140833D03*
X0136215Y0140913D03*
X0136215Y0140993D03*
X0136215Y0141073D03*
X0136215Y0141153D03*
X0136215Y0141233D03*
X0136215Y0141313D03*
X0136215Y0141393D03*
X0136215Y0141473D03*
X0136215Y0141553D03*
X0136215Y0141633D03*
X0136215Y0141713D03*
X0136215Y0141793D03*
X0136215Y0141873D03*
X0136215Y0141953D03*
X0136215Y0142033D03*
X0136215Y0142113D03*
X0136215Y0142193D03*
X0136215Y0142273D03*
X0136215Y0142353D03*
X0136215Y0142433D03*
X0136215Y0142513D03*
X0136215Y0142593D03*
X0136215Y0142673D03*
X0136215Y0142753D03*
X0136215Y0142833D03*
X0136215Y0142913D03*
X0136215Y0142993D03*
X0136215Y0143313D03*
X0136215Y0143393D03*
X0136215Y0147073D03*
X0136215Y0147313D03*
X0136215Y0147633D03*
X0136215Y0147713D03*
X0136215Y0147793D03*
X0136215Y0147873D03*
X0136215Y0147953D03*
X0136215Y0148033D03*
X0136215Y0148113D03*
X0136215Y0148193D03*
X0136215Y0148273D03*
X0136215Y0148353D03*
X0136215Y0148433D03*
X0136215Y0148513D03*
X0136215Y0149233D03*
X0136215Y0149473D03*
X0136215Y0149553D03*
X0136215Y0149633D03*
X0136215Y0149713D03*
X0136215Y0149793D03*
X0136215Y0149873D03*
X0136215Y0149953D03*
X0136215Y0150033D03*
X0136215Y0150113D03*
X0136215Y0150193D03*
X0136215Y0150273D03*
X0136215Y0150353D03*
X0136215Y0150433D03*
X0136215Y0150513D03*
X0136215Y0150593D03*
X0136215Y0150673D03*
X0136215Y0151313D03*
X0136215Y0151393D03*
X0136215Y0151473D03*
X0136215Y0151553D03*
X0136215Y0151633D03*
X0136215Y0151713D03*
X0136215Y0151793D03*
X0136215Y0151873D03*
X0136215Y0151953D03*
X0136215Y0152033D03*
X0136215Y0152113D03*
X0114055Y0182833D03*
D87*
X0114615Y0181153D03*
X0114615Y0181073D03*
X0136135Y0159793D03*
X0136135Y0159713D03*
X0136135Y0159633D03*
X0136135Y0159553D03*
X0136135Y0159473D03*
X0136135Y0159393D03*
X0136135Y0158593D03*
X0136135Y0158273D03*
X0136135Y0158193D03*
X0136135Y0157873D03*
X0136135Y0157793D03*
X0136135Y0155073D03*
X0136135Y0154993D03*
X0136135Y0154913D03*
X0136215Y0152353D03*
X0152215Y0152273D03*
X0152215Y0152113D03*
X0152215Y0152033D03*
X0152215Y0151953D03*
X0152215Y0151553D03*
X0152215Y0151473D03*
X0152215Y0151393D03*
X0152215Y0151313D03*
X0152215Y0151233D03*
X0152215Y0151153D03*
X0152215Y0151073D03*
X0152215Y0150993D03*
X0152215Y0150913D03*
X0152215Y0150833D03*
X0152215Y0150753D03*
X0152215Y0150673D03*
X0152215Y0150593D03*
X0152215Y0150513D03*
X0152215Y0150433D03*
X0152215Y0150353D03*
X0152215Y0150273D03*
X0152215Y0150193D03*
X0152215Y0150113D03*
X0152215Y0150033D03*
X0152215Y0149953D03*
X0152215Y0149873D03*
X0152215Y0149793D03*
X0152215Y0149713D03*
X0152215Y0149633D03*
X0152215Y0149553D03*
X0152215Y0149473D03*
X0152215Y0149393D03*
X0152215Y0149313D03*
X0152215Y0149233D03*
X0152215Y0149153D03*
X0152215Y0149073D03*
X0152215Y0148993D03*
X0152215Y0148913D03*
X0152215Y0148833D03*
X0152215Y0148753D03*
X0152215Y0148673D03*
X0152215Y0148593D03*
X0152215Y0148513D03*
X0152215Y0148433D03*
X0152215Y0148353D03*
X0152215Y0148273D03*
X0152215Y0148193D03*
X0152215Y0148113D03*
X0152215Y0148033D03*
X0152215Y0147953D03*
X0152215Y0147873D03*
X0152215Y0147793D03*
X0152215Y0147713D03*
X0152215Y0147633D03*
X0152215Y0147553D03*
X0152215Y0147473D03*
X0152215Y0147393D03*
X0152215Y0147313D03*
X0152215Y0147233D03*
X0152215Y0146993D03*
X0152215Y0146913D03*
X0152215Y0146833D03*
X0152215Y0154913D03*
X0152215Y0159153D03*
X0152215Y0159393D03*
X0136215Y0129313D03*
X0144215Y0123393D03*
X0146215Y0122593D03*
D88*
X0162215Y0122593D03*
X0162215Y0124993D03*
X0162215Y0125073D03*
X0116215Y0177953D03*
X0115975Y0178273D03*
X0115975Y0178353D03*
D89*
X0114175Y0182753D03*
X0146175Y0122673D03*
D90*
X0162255Y0122673D03*
X0162255Y0122753D03*
X0162255Y0124913D03*
X0127135Y0122833D03*
X0115935Y0178433D03*
X0115855Y0178593D03*
X0115775Y0178673D03*
D91*
X0115535Y0181313D03*
X0145215Y0123233D03*
X0145215Y0123153D03*
X0145215Y0123073D03*
X0145215Y0122993D03*
X0145215Y0122913D03*
X0145215Y0122833D03*
D92*
X0151375Y0124593D03*
X0151375Y0124673D03*
X0151375Y0124753D03*
X0151375Y0124833D03*
X0151375Y0124913D03*
X0151375Y0124993D03*
X0151375Y0125073D03*
X0151375Y0125153D03*
X0151375Y0125233D03*
X0151375Y0125313D03*
X0151375Y0125393D03*
X0151375Y0125473D03*
X0151375Y0125553D03*
X0151375Y0125633D03*
X0151375Y0125713D03*
X0151375Y0125793D03*
X0151375Y0125873D03*
X0151375Y0125953D03*
D93*
X0126895Y0125393D03*
X0119855Y0175553D03*
X0119855Y0175633D03*
X0119855Y0175713D03*
X0119855Y0175793D03*
X0119855Y0175873D03*
X0119855Y0175953D03*
X0119855Y0176033D03*
X0119855Y0176113D03*
X0119855Y0176193D03*
X0119855Y0176273D03*
X0119855Y0176353D03*
X0119855Y0176433D03*
X0119855Y0176513D03*
X0119855Y0176593D03*
X0119855Y0176673D03*
X0116495Y0177473D03*
X0115135Y0179873D03*
X0115135Y0179953D03*
X0115055Y0180033D03*
X0114655Y0182273D03*
D94*
X0116575Y0177393D03*
X0162015Y0125473D03*
D95*
X0161855Y0125713D03*
X0126735Y0125633D03*
X0114815Y0180433D03*
X0114495Y0182433D03*
D96*
X0148335Y0143473D03*
D97*
X0136175Y0143553D03*
X0136175Y0143633D03*
X0136175Y0143713D03*
X0136175Y0143793D03*
X0136175Y0143873D03*
X0136175Y0143953D03*
X0136175Y0144033D03*
X0136175Y0144113D03*
X0136175Y0144193D03*
X0136175Y0144273D03*
X0136175Y0144353D03*
X0136175Y0144433D03*
X0136175Y0144513D03*
D98*
X0136695Y0144593D03*
X0136695Y0144833D03*
X0136695Y0144913D03*
X0136695Y0144993D03*
X0136695Y0145073D03*
X0136695Y0145153D03*
X0136695Y0145393D03*
X0136695Y0145473D03*
X0136695Y0145553D03*
X0136695Y0145633D03*
X0136695Y0145713D03*
X0136695Y0145793D03*
X0136695Y0145873D03*
X0136695Y0145953D03*
X0136695Y0146033D03*
X0136695Y0146113D03*
X0136695Y0146193D03*
X0136695Y0146273D03*
X0136695Y0146353D03*
X0136695Y0146433D03*
X0136695Y0146513D03*
X0136695Y0146593D03*
X0136695Y0146673D03*
X0136695Y0146753D03*
D99*
X0136735Y0145313D03*
X0136735Y0145233D03*
X0136735Y0144753D03*
X0136735Y0144673D03*
D100*
X0132535Y0146833D03*
X0132535Y0146913D03*
X0132535Y0146993D03*
D101*
X0152375Y0154833D03*
D102*
X0141175Y0159873D03*
D103*
X0141135Y0159953D03*
D104*
X0141135Y0160033D03*
D105*
X0141095Y0160113D03*
D106*
X0141055Y0160193D03*
X0141055Y0160273D03*
D107*
X0141015Y0160353D03*
D108*
X0140975Y0160433D03*
X0140975Y0160513D03*
D109*
X0140935Y0160593D03*
X0140935Y0160673D03*
D110*
X0140895Y0160753D03*
X0140895Y0160833D03*
X0140895Y0160913D03*
D111*
X0140855Y0160993D03*
X0140855Y0161073D03*
X0140855Y0161153D03*
X0140855Y0162753D03*
D112*
X0140815Y0162673D03*
X0140815Y0162593D03*
X0140815Y0162513D03*
X0140815Y0162433D03*
X0140815Y0162353D03*
X0140815Y0162273D03*
X0140815Y0162193D03*
X0140815Y0161393D03*
X0140815Y0161313D03*
X0140815Y0161233D03*
D113*
X0116095Y0178113D03*
D114*
X0114695Y0180753D03*
X0114695Y0180833D03*
D115*
X0115575Y0181233D03*
D116*
X0115335Y0181633D03*
X0115255Y0181713D03*
D117*
X0115095Y0181873D03*
D118*
X0176135Y0171413D02*
X0248615Y0171413D01*
X0248615Y0156413D02*
X0176135Y0156413D01*
X0176135Y0143913D02*
X0248615Y0143913D01*
D119*
X0113095Y0103633D02*
X0112595Y0103633D01*
X0075095Y0088933D02*
X0072595Y0086433D01*
X0072595Y0078933D01*
D120*
X0062595Y0051433D02*
X0065095Y0048933D01*
X0070095Y0048933D01*
X0072595Y0051433D01*
X0075095Y0048933D01*
X0080095Y0048933D01*
X0082595Y0051433D01*
X0085095Y0048933D01*
X0090095Y0048933D01*
X0092595Y0051433D01*
X0095095Y0048933D01*
X0100095Y0048933D01*
X0102595Y0051433D01*
X0105095Y0048933D01*
X0110095Y0048933D01*
X0112595Y0051433D01*
X0115095Y0048933D01*
X0120095Y0048933D01*
X0122595Y0051433D01*
X0125095Y0048933D01*
X0130095Y0048933D01*
X0132595Y0051433D01*
X0135095Y0048933D01*
X0140095Y0048933D01*
X0142595Y0051433D01*
X0142595Y0056433D01*
X0140095Y0058933D01*
X0135095Y0058933D01*
X0132595Y0056433D01*
X0130095Y0058933D01*
X0125095Y0058933D01*
X0122595Y0056433D01*
X0120095Y0058933D01*
X0115095Y0058933D01*
X0112595Y0056433D01*
X0110095Y0058933D01*
X0105095Y0058933D01*
X0102595Y0056433D01*
X0100095Y0058933D01*
X0095095Y0058933D01*
X0092595Y0056433D01*
X0090095Y0058933D01*
X0085095Y0058933D01*
X0082595Y0056433D01*
X0080095Y0058933D01*
X0075095Y0058933D01*
X0072595Y0056433D01*
X0070095Y0058933D01*
X0065095Y0058933D01*
X0062595Y0056433D01*
X0062595Y0051433D01*
X0077595Y0083933D02*
X0075095Y0086433D01*
X0075095Y0091433D01*
X0077595Y0093933D01*
X0075095Y0096433D01*
X0075095Y0101433D01*
X0077595Y0103933D01*
X0075095Y0106433D01*
X0075095Y0111433D01*
X0077595Y0113933D01*
X0075095Y0116433D01*
X0075095Y0121433D01*
X0077595Y0123933D01*
X0082595Y0123933D01*
X0085095Y0121433D01*
X0085095Y0116433D01*
X0082595Y0113933D01*
X0085095Y0111433D01*
X0085095Y0106433D01*
X0082595Y0103933D01*
X0085095Y0101433D01*
X0085095Y0096433D01*
X0082595Y0093933D01*
X0085095Y0091433D01*
X0085095Y0086433D01*
X0082595Y0083933D01*
X0077595Y0083933D01*
X0148595Y0056433D02*
X0148595Y0051433D01*
X0151095Y0048933D01*
X0156095Y0048933D01*
X0158595Y0051433D01*
X0161095Y0048933D01*
X0166095Y0048933D01*
X0168595Y0051433D01*
X0171095Y0048933D01*
X0176095Y0048933D01*
X0178595Y0051433D01*
X0181095Y0048933D01*
X0186095Y0048933D01*
X0188595Y0051433D01*
X0191095Y0048933D01*
X0196095Y0048933D01*
X0198595Y0051433D01*
X0201095Y0048933D01*
X0206095Y0048933D01*
X0208595Y0051433D01*
X0211095Y0048933D01*
X0216095Y0048933D01*
X0218595Y0051433D01*
X0221095Y0048933D01*
X0226095Y0048933D01*
X0228595Y0051433D01*
X0231095Y0048933D01*
X0236095Y0048933D01*
X0238595Y0051433D01*
X0241095Y0048933D01*
X0246095Y0048933D01*
X0248595Y0051433D01*
X0248595Y0056433D01*
X0246095Y0058933D01*
X0241095Y0058933D01*
X0238595Y0056433D01*
X0236095Y0058933D01*
X0231095Y0058933D01*
X0228595Y0056433D01*
X0226095Y0058933D01*
X0221095Y0058933D01*
X0218595Y0056433D01*
X0216095Y0058933D01*
X0211095Y0058933D01*
X0208595Y0056433D01*
X0206095Y0058933D01*
X0201095Y0058933D01*
X0198595Y0056433D01*
X0196095Y0058933D01*
X0191095Y0058933D01*
X0188595Y0056433D01*
X0186095Y0058933D01*
X0181095Y0058933D01*
X0178595Y0056433D01*
X0176095Y0058933D01*
X0171095Y0058933D01*
X0168595Y0056433D01*
X0166095Y0058933D01*
X0161095Y0058933D01*
X0158595Y0056433D01*
X0156095Y0058933D01*
X0151095Y0058933D01*
X0148595Y0056433D01*
X0120095Y0193933D02*
X0115095Y0193933D01*
X0112595Y0196433D01*
X0110095Y0193933D01*
X0105095Y0193933D01*
X0102595Y0196433D01*
X0100095Y0193933D01*
X0095095Y0193933D01*
X0092595Y0196433D01*
X0090095Y0193933D01*
X0085095Y0193933D01*
X0082595Y0196433D01*
X0082595Y0201433D01*
X0085095Y0203933D01*
X0090095Y0203933D01*
X0092595Y0201433D01*
X0095095Y0203933D01*
X0100095Y0203933D01*
X0102595Y0201433D01*
X0105095Y0203933D01*
X0110095Y0203933D01*
X0112595Y0201433D01*
X0115095Y0203933D01*
X0120095Y0203933D01*
X0122595Y0201433D01*
X0122595Y0196433D01*
X0120095Y0193933D01*
X0120095Y0203933D02*
X0115095Y0203933D01*
X0112595Y0206433D01*
X0110095Y0203933D01*
X0105095Y0203933D01*
X0102595Y0206433D01*
X0100095Y0203933D01*
X0095095Y0203933D01*
X0092595Y0206433D01*
X0090095Y0203933D01*
X0085095Y0203933D01*
X0082595Y0206433D01*
X0082595Y0211433D01*
X0085095Y0213933D01*
X0082595Y0216433D01*
X0082595Y0221433D01*
X0085095Y0223933D01*
X0090095Y0223933D01*
X0092595Y0221433D01*
X0095095Y0223933D01*
X0100095Y0223933D01*
X0102595Y0221433D01*
X0105095Y0223933D01*
X0110095Y0223933D01*
X0112595Y0221433D01*
X0115095Y0223933D01*
X0120095Y0223933D01*
X0122595Y0221433D01*
X0122595Y0216433D01*
X0120095Y0213933D01*
X0115095Y0213933D01*
X0112595Y0216433D01*
X0110095Y0213933D01*
X0105095Y0213933D01*
X0102595Y0216433D01*
X0100095Y0213933D01*
X0095095Y0213933D01*
X0092595Y0216433D01*
X0090095Y0213933D01*
X0085095Y0213933D01*
X0090095Y0213933D01*
X0092595Y0211433D01*
X0095095Y0213933D01*
X0100095Y0213933D01*
X0102595Y0211433D01*
X0105095Y0213933D01*
X0110095Y0213933D01*
X0112595Y0211433D01*
X0115095Y0213933D01*
X0120095Y0213933D01*
X0122595Y0211433D01*
X0122595Y0206433D01*
X0120095Y0203933D01*
X0120095Y0238933D02*
X0115095Y0238933D01*
X0112595Y0241433D01*
X0110095Y0238933D01*
X0105095Y0238933D01*
X0102595Y0241433D01*
X0100095Y0238933D01*
X0095095Y0238933D01*
X0092595Y0241433D01*
X0090095Y0238933D01*
X0085095Y0238933D01*
X0082595Y0241433D01*
X0080095Y0238933D01*
X0075095Y0238933D01*
X0072595Y0241433D01*
X0070095Y0238933D01*
X0065095Y0238933D01*
X0062595Y0241433D01*
X0062595Y0246433D01*
X0065095Y0248933D01*
X0070095Y0248933D01*
X0072595Y0246433D01*
X0075095Y0248933D01*
X0080095Y0248933D01*
X0082595Y0246433D01*
X0085095Y0248933D01*
X0090095Y0248933D01*
X0092595Y0246433D01*
X0095095Y0248933D01*
X0100095Y0248933D01*
X0102595Y0246433D01*
X0105095Y0248933D01*
X0110095Y0248933D01*
X0112595Y0246433D01*
X0115095Y0248933D01*
X0120095Y0248933D01*
X0122595Y0246433D01*
X0122595Y0241433D01*
X0120095Y0238933D01*
X0132595Y0241433D02*
X0132595Y0246433D01*
X0135095Y0248933D01*
X0140095Y0248933D01*
X0142595Y0246433D01*
X0145095Y0248933D01*
X0150095Y0248933D01*
X0152595Y0246433D01*
X0155095Y0248933D01*
X0160095Y0248933D01*
X0162595Y0246433D01*
X0165095Y0248933D01*
X0170095Y0248933D01*
X0172595Y0246433D01*
X0175095Y0248933D01*
X0180095Y0248933D01*
X0182595Y0246433D01*
X0185095Y0248933D01*
X0190095Y0248933D01*
X0192595Y0246433D01*
X0195095Y0248933D01*
X0200095Y0248933D01*
X0202595Y0246433D01*
X0205095Y0248933D01*
X0210095Y0248933D01*
X0212595Y0246433D01*
X0212595Y0241433D01*
X0210095Y0238933D01*
X0205095Y0238933D01*
X0202595Y0241433D01*
X0200095Y0238933D01*
X0195095Y0238933D01*
X0192595Y0241433D01*
X0190095Y0238933D01*
X0185095Y0238933D01*
X0182595Y0241433D01*
X0180095Y0238933D01*
X0175095Y0238933D01*
X0172595Y0241433D01*
X0170095Y0238933D01*
X0165095Y0238933D01*
X0162595Y0241433D01*
X0160095Y0238933D01*
X0155095Y0238933D01*
X0152595Y0241433D01*
X0150095Y0238933D01*
X0145095Y0238933D01*
X0142595Y0241433D01*
X0140095Y0238933D01*
X0135095Y0238933D01*
X0132595Y0241433D01*
D121*
X0139020Y0185024D03*
X0141973Y0185024D03*
D122*
X0140496Y0185024D03*
D123*
X0182595Y0196433D02*
X0185095Y0193933D01*
X0190095Y0193933D01*
X0192595Y0196433D01*
X0192595Y0211433D01*
X0190095Y0213933D01*
X0185095Y0213933D01*
X0182595Y0211433D01*
X0182595Y0196433D01*
X0150095Y0226433D02*
X0135095Y0226433D01*
X0132595Y0228933D01*
X0132595Y0233933D01*
X0135095Y0236433D01*
X0150095Y0236433D01*
X0152595Y0233933D01*
X0152595Y0228933D01*
X0150095Y0226433D01*
X0191095Y0123933D02*
X0188595Y0121433D01*
X0188595Y0116433D01*
X0191095Y0113933D01*
X0188595Y0111433D01*
X0188595Y0106433D01*
X0191095Y0103933D01*
X0188595Y0101433D01*
X0188595Y0096433D01*
X0191095Y0093933D01*
X0196095Y0093933D01*
X0198595Y0096433D01*
X0201095Y0093933D01*
X0206095Y0093933D01*
X0208595Y0096433D01*
X0208595Y0101433D01*
X0206095Y0103933D01*
X0201095Y0103933D01*
X0198595Y0101433D01*
X0198595Y0096433D01*
X0196095Y0093933D02*
X0198595Y0091433D01*
X0201095Y0093933D01*
X0206095Y0093933D01*
X0208595Y0091433D01*
X0208595Y0086433D01*
X0206095Y0083933D01*
X0201095Y0083933D01*
X0198595Y0086433D01*
X0196095Y0083933D01*
X0191095Y0083933D01*
X0188595Y0086433D01*
X0188595Y0091433D01*
X0191095Y0093933D01*
X0196095Y0093933D01*
X0198595Y0091433D02*
X0198595Y0086433D01*
X0208595Y0086433D02*
X0211095Y0083933D01*
X0216095Y0083933D01*
X0218595Y0086433D01*
X0221095Y0083933D01*
X0226095Y0083933D01*
X0228595Y0086433D01*
X0231095Y0083933D01*
X0236095Y0083933D01*
X0238595Y0086433D01*
X0241095Y0083933D01*
X0246095Y0083933D01*
X0248595Y0086433D01*
X0248595Y0091433D01*
X0246095Y0093933D01*
X0241095Y0093933D01*
X0238595Y0096433D01*
X0236095Y0093933D01*
X0231095Y0093933D01*
X0228595Y0096433D01*
X0226095Y0093933D01*
X0221095Y0093933D01*
X0218595Y0096433D01*
X0216095Y0093933D01*
X0211095Y0093933D01*
X0208595Y0096433D01*
X0211095Y0093933D02*
X0216095Y0093933D01*
X0218595Y0091433D01*
X0221095Y0093933D01*
X0226095Y0093933D01*
X0228595Y0091433D01*
X0231095Y0093933D01*
X0236095Y0093933D01*
X0238595Y0091433D01*
X0241095Y0093933D01*
X0246095Y0093933D01*
X0248595Y0096433D01*
X0248595Y0101433D01*
X0246095Y0103933D01*
X0241095Y0103933D01*
X0238595Y0101433D01*
X0238595Y0096433D01*
X0238595Y0091433D02*
X0238595Y0086433D01*
X0228595Y0086433D02*
X0228595Y0091433D01*
X0228595Y0096433D02*
X0228595Y0101433D01*
X0231095Y0103933D01*
X0236095Y0103933D01*
X0238595Y0101433D01*
X0236095Y0103933D02*
X0231095Y0103933D01*
X0228595Y0106433D01*
X0226095Y0103933D01*
X0228595Y0101433D01*
X0226095Y0103933D02*
X0221095Y0103933D01*
X0218595Y0101433D01*
X0218595Y0096433D01*
X0218595Y0091433D02*
X0218595Y0086433D01*
X0211095Y0093933D02*
X0208595Y0091433D01*
X0208595Y0101433D02*
X0211095Y0103933D01*
X0216095Y0103933D01*
X0218595Y0101433D01*
X0216095Y0103933D02*
X0211095Y0103933D01*
X0208595Y0106433D01*
X0206095Y0103933D01*
X0201095Y0103933D01*
X0198595Y0106433D01*
X0196095Y0103933D01*
X0198595Y0101433D01*
X0196095Y0103933D02*
X0191095Y0103933D01*
X0196095Y0103933D01*
X0198595Y0106433D02*
X0198595Y0111433D01*
X0201095Y0113933D01*
X0206095Y0113933D01*
X0208595Y0111433D01*
X0208595Y0106433D01*
X0208595Y0111433D02*
X0211095Y0113933D01*
X0216095Y0113933D01*
X0218595Y0111433D01*
X0221095Y0113933D01*
X0226095Y0113933D01*
X0228595Y0111433D01*
X0231095Y0113933D01*
X0236095Y0113933D01*
X0238595Y0111433D01*
X0241095Y0113933D01*
X0246095Y0113933D01*
X0248595Y0111433D01*
X0248595Y0106433D01*
X0246095Y0103933D01*
X0241095Y0103933D01*
X0238595Y0106433D01*
X0236095Y0103933D01*
X0238595Y0106433D02*
X0238595Y0111433D01*
X0236095Y0113933D02*
X0231095Y0113933D01*
X0228595Y0116433D01*
X0226095Y0113933D01*
X0221095Y0113933D01*
X0218595Y0116433D01*
X0216095Y0113933D01*
X0211095Y0113933D01*
X0208595Y0116433D01*
X0206095Y0113933D01*
X0201095Y0113933D01*
X0198595Y0116433D01*
X0196095Y0113933D01*
X0198595Y0111433D01*
X0196095Y0113933D02*
X0191095Y0113933D01*
X0196095Y0113933D01*
X0198595Y0116433D02*
X0198595Y0121433D01*
X0201095Y0123933D01*
X0206095Y0123933D01*
X0208595Y0121433D01*
X0208595Y0116433D01*
X0208595Y0121433D02*
X0211095Y0123933D01*
X0216095Y0123933D01*
X0218595Y0121433D01*
X0221095Y0123933D01*
X0226095Y0123933D01*
X0228595Y0121433D01*
X0231095Y0123933D01*
X0236095Y0123933D01*
X0238595Y0121433D01*
X0241095Y0123933D01*
X0246095Y0123933D01*
X0248595Y0121433D01*
X0248595Y0116433D01*
X0246095Y0113933D01*
X0241095Y0113933D01*
X0238595Y0116433D01*
X0236095Y0113933D01*
X0238595Y0116433D02*
X0238595Y0121433D01*
X0228595Y0121433D02*
X0228595Y0116433D01*
X0228595Y0111433D02*
X0228595Y0106433D01*
X0226095Y0103933D02*
X0221095Y0103933D01*
X0218595Y0106433D01*
X0216095Y0103933D01*
X0218595Y0106433D02*
X0218595Y0111433D01*
X0218595Y0116433D02*
X0218595Y0121433D01*
X0198595Y0121433D02*
X0196095Y0123933D01*
X0191095Y0123933D01*
X0082095Y0076933D02*
X0082095Y0070933D01*
X0082093Y0070873D01*
X0082088Y0070812D01*
X0082079Y0070753D01*
X0082066Y0070694D01*
X0082050Y0070635D01*
X0082030Y0070578D01*
X0082007Y0070523D01*
X0081980Y0070468D01*
X0081951Y0070416D01*
X0081918Y0070365D01*
X0081882Y0070316D01*
X0081844Y0070270D01*
X0081802Y0070226D01*
X0081758Y0070184D01*
X0081712Y0070146D01*
X0081663Y0070110D01*
X0081612Y0070077D01*
X0081560Y0070048D01*
X0081505Y0070021D01*
X0081450Y0069998D01*
X0081393Y0069978D01*
X0081334Y0069962D01*
X0081275Y0069949D01*
X0081216Y0069940D01*
X0081155Y0069935D01*
X0081095Y0069933D01*
X0064095Y0069933D01*
X0064035Y0069935D01*
X0063974Y0069940D01*
X0063915Y0069949D01*
X0063856Y0069962D01*
X0063797Y0069978D01*
X0063740Y0069998D01*
X0063685Y0070021D01*
X0063630Y0070048D01*
X0063578Y0070077D01*
X0063527Y0070110D01*
X0063478Y0070146D01*
X0063432Y0070184D01*
X0063388Y0070226D01*
X0063346Y0070270D01*
X0063308Y0070316D01*
X0063272Y0070365D01*
X0063239Y0070416D01*
X0063210Y0070468D01*
X0063183Y0070523D01*
X0063160Y0070578D01*
X0063140Y0070635D01*
X0063124Y0070694D01*
X0063111Y0070753D01*
X0063102Y0070812D01*
X0063097Y0070873D01*
X0063095Y0070933D01*
X0063095Y0076933D01*
X0063097Y0076993D01*
X0063102Y0077054D01*
X0063111Y0077113D01*
X0063124Y0077172D01*
X0063140Y0077231D01*
X0063160Y0077288D01*
X0063183Y0077343D01*
X0063210Y0077398D01*
X0063239Y0077450D01*
X0063272Y0077501D01*
X0063308Y0077550D01*
X0063346Y0077596D01*
X0063388Y0077640D01*
X0063432Y0077682D01*
X0063478Y0077720D01*
X0063527Y0077756D01*
X0063578Y0077789D01*
X0063630Y0077818D01*
X0063685Y0077845D01*
X0063740Y0077868D01*
X0063797Y0077888D01*
X0063856Y0077904D01*
X0063915Y0077917D01*
X0063974Y0077926D01*
X0064035Y0077931D01*
X0064095Y0077933D01*
X0081095Y0077933D01*
X0081155Y0077931D01*
X0081216Y0077926D01*
X0081275Y0077917D01*
X0081334Y0077904D01*
X0081393Y0077888D01*
X0081450Y0077868D01*
X0081505Y0077845D01*
X0081560Y0077818D01*
X0081612Y0077789D01*
X0081663Y0077756D01*
X0081712Y0077720D01*
X0081758Y0077682D01*
X0081802Y0077640D01*
X0081844Y0077596D01*
X0081882Y0077550D01*
X0081918Y0077501D01*
X0081951Y0077450D01*
X0081980Y0077398D01*
X0082007Y0077343D01*
X0082030Y0077288D01*
X0082050Y0077231D01*
X0082066Y0077172D01*
X0082079Y0077113D01*
X0082088Y0077054D01*
X0082093Y0076993D01*
X0082095Y0076933D01*
M02*
