G75*
%MOIN*%
%OFA0B0*%
%FSLAX25Y25*%
%IPPOS*%
%LPD*%
%AMOC8*
5,1,8,0,0,1.08239X$1,22.5*
%
%ADD10C,0.07800*%
%ADD11R,0.03950X0.03950*%
%ADD12R,0.05131X0.04737*%
%ADD13R,0.05400X0.07100*%
%ADD14C,0.08200*%
%ADD15OC8,0.06800*%
%ADD16C,0.06800*%
D10*
X0080095Y0088933D03*
X0080095Y0098933D03*
X0080095Y0108933D03*
X0080095Y0118933D03*
X0087595Y0198933D03*
X0097595Y0198933D03*
X0107595Y0198933D03*
X0117595Y0198933D03*
X0117595Y0208933D03*
X0107595Y0208933D03*
X0097595Y0208933D03*
X0087595Y0208933D03*
X0087595Y0218933D03*
X0097595Y0218933D03*
X0107595Y0218933D03*
X0117595Y0218933D03*
D11*
X0140496Y0187387D03*
X0140496Y0181481D03*
D12*
X0148995Y0181387D03*
X0148995Y0188080D03*
D13*
X0078595Y0073933D03*
X0072595Y0073933D03*
X0066595Y0073933D03*
D14*
X0067595Y0053933D03*
X0077595Y0053933D03*
X0087595Y0053933D03*
X0097595Y0053933D03*
X0107595Y0053933D03*
X0117595Y0053933D03*
X0127595Y0053933D03*
X0137595Y0053933D03*
X0153595Y0053933D03*
X0163595Y0053933D03*
X0173595Y0053933D03*
X0183595Y0053933D03*
X0193595Y0053933D03*
X0203595Y0053933D03*
X0213595Y0053933D03*
X0223595Y0053933D03*
X0233595Y0053933D03*
X0243595Y0053933D03*
X0207595Y0243933D03*
X0197595Y0243933D03*
X0187595Y0243933D03*
X0177595Y0243933D03*
X0167595Y0243933D03*
X0157595Y0243933D03*
X0147595Y0243933D03*
X0137595Y0243933D03*
X0117595Y0243933D03*
X0107595Y0243933D03*
X0097595Y0243933D03*
X0087595Y0243933D03*
X0077595Y0243933D03*
X0067595Y0243933D03*
D15*
X0137595Y0231433D03*
X0147595Y0231433D03*
X0187595Y0208933D03*
X0187595Y0198933D03*
X0193595Y0118933D03*
X0193595Y0108933D03*
X0203595Y0108933D03*
X0203595Y0118933D03*
X0213595Y0118933D03*
X0213595Y0108933D03*
X0223595Y0108933D03*
X0233595Y0108933D03*
X0233595Y0118933D03*
X0223595Y0118933D03*
X0243595Y0118933D03*
X0243595Y0108933D03*
X0243595Y0098933D03*
X0233595Y0098933D03*
X0223595Y0098933D03*
X0213595Y0098933D03*
X0203595Y0098933D03*
X0193595Y0098933D03*
X0193595Y0088933D03*
X0203595Y0088933D03*
X0213595Y0088933D03*
X0223595Y0088933D03*
X0233595Y0088933D03*
X0243595Y0088933D03*
D16*
X0157595Y0088933D03*
X0147595Y0088933D03*
X0137595Y0088933D03*
X0127595Y0088933D03*
X0117595Y0088933D03*
X0117595Y0098933D03*
X0127595Y0098933D03*
X0137595Y0098933D03*
X0147595Y0098933D03*
X0157595Y0098933D03*
M02*
