%
M48
M72
T01C0.04000
%
T01
X67595Y53933
X77595Y53933
X87595Y53933
X97595Y53933
X107595Y53933
X117595Y53933
X127595Y53933
X137595Y53933
X153595Y53933
X163595Y53933
X173595Y53933
X183595Y53933
X193595Y53933
X203595Y53933
X213595Y53933
X223595Y53933
X233595Y53933
X243595Y53933
X243595Y88933
X233595Y88933
X223595Y88933
X213595Y88933
X203595Y88933
X193595Y88933
X193595Y98933
X203595Y98933
X213595Y98933
X223595Y98933
X233595Y98933
X243595Y98933
X243595Y108933
X233595Y108933
X223595Y108933
X213595Y108933
X203595Y108933
X193595Y108933
X193595Y118933
X203595Y118933
X213595Y118933
X223595Y118933
X233595Y118933
X243595Y118933
X157595Y98933
X147595Y98933
X137595Y98933
X127595Y98933
X117595Y98933
X117595Y88933
X127595Y88933
X137595Y88933
X147595Y88933
X157595Y88933
X80095Y88933
X80095Y98933
X80095Y108933
X80095Y118933
X87595Y198933
X97595Y198933
X107595Y198933
X117595Y198933
X117595Y208933
X107595Y208933
X97595Y208933
X87595Y208933
X87595Y218933
X97595Y218933
X107595Y218933
X117595Y218933
X137595Y231433
X147595Y231433
X147595Y243933
X137595Y243933
X157595Y243933
X167595Y243933
X177595Y243933
X187595Y243933
X197595Y243933
X207595Y243933
X187595Y208933
X187595Y198933
X117595Y243933
X107595Y243933
X97595Y243933
X87595Y243933
X77595Y243933
X67595Y243933
M30
