G75*
%MOIN*%
%OFA0B0*%
%FSLAX25Y25*%
%IPPOS*%
%LPD*%
%AMOC8*
5,1,8,0,0,1.08239X$1,22.5*
%
%ADD10C,0.07000*%
%ADD11R,0.04331X0.03937*%
%ADD12R,0.04600X0.06300*%
%ADD13C,0.07400*%
%ADD14OC8,0.06000*%
%ADD15C,0.06000*%
%ADD16C,0.01600*%
%ADD17C,0.02400*%
%ADD18C,0.04000*%
%ADD19C,0.05000*%
%ADD20C,0.05600*%
D10*
X0080095Y0088933D03*
X0080095Y0098933D03*
X0080095Y0108933D03*
X0080095Y0118933D03*
X0087595Y0198933D03*
X0097595Y0198933D03*
X0107595Y0198933D03*
X0117595Y0198933D03*
X0117595Y0208933D03*
X0107595Y0208933D03*
X0097595Y0208933D03*
X0087595Y0208933D03*
X0087595Y0218933D03*
X0097595Y0218933D03*
X0107595Y0218933D03*
X0117595Y0218933D03*
D11*
X0254795Y0110580D03*
X0254795Y0103887D03*
X0182595Y0105580D03*
X0182595Y0098887D03*
D12*
X0078595Y0073983D03*
X0072595Y0073983D03*
X0066595Y0073983D03*
D13*
X0067595Y0053933D03*
X0077595Y0053933D03*
X0087595Y0053933D03*
X0097595Y0053933D03*
X0107595Y0053933D03*
X0117595Y0053933D03*
X0127595Y0053933D03*
X0137595Y0053933D03*
X0153595Y0053933D03*
X0163595Y0053933D03*
X0173595Y0053933D03*
X0183595Y0053933D03*
X0193595Y0053933D03*
X0203595Y0053933D03*
X0213595Y0053933D03*
X0223595Y0053933D03*
X0233595Y0053933D03*
X0243595Y0053933D03*
X0207595Y0243933D03*
X0197595Y0243933D03*
X0187595Y0243933D03*
X0177595Y0243933D03*
X0167595Y0243933D03*
X0157595Y0243933D03*
X0147595Y0243933D03*
X0137595Y0243933D03*
X0117595Y0243933D03*
X0107595Y0243933D03*
X0097595Y0243933D03*
X0087595Y0243933D03*
X0077595Y0243933D03*
X0067595Y0243933D03*
D14*
X0137595Y0231433D03*
X0147595Y0231433D03*
X0187595Y0208933D03*
X0187595Y0198933D03*
X0193595Y0118933D03*
X0193595Y0108933D03*
X0203595Y0108933D03*
X0203595Y0118933D03*
X0213595Y0118933D03*
X0213595Y0108933D03*
X0223595Y0108933D03*
X0233595Y0108933D03*
X0233595Y0118933D03*
X0223595Y0118933D03*
X0243595Y0118933D03*
X0243595Y0108933D03*
X0243595Y0098933D03*
X0233595Y0098933D03*
X0223595Y0098933D03*
X0213595Y0098933D03*
X0203595Y0098933D03*
X0193595Y0098933D03*
X0193595Y0088933D03*
X0203595Y0088933D03*
X0213595Y0088933D03*
X0223595Y0088933D03*
X0233595Y0088933D03*
X0243595Y0088933D03*
D15*
X0157595Y0088933D03*
X0147595Y0088933D03*
X0137595Y0088933D03*
X0127595Y0088933D03*
X0117595Y0088933D03*
X0117595Y0098933D03*
X0127595Y0098933D03*
X0137595Y0098933D03*
X0147595Y0098933D03*
X0157595Y0098933D03*
D16*
X0059583Y0048733D02*
X0057395Y0050921D01*
X0057395Y0244980D01*
X0060164Y0249133D01*
X0064209Y0249133D01*
X0064140Y0249104D01*
X0062424Y0247388D01*
X0061495Y0245146D01*
X0061495Y0242720D01*
X0062424Y0240478D01*
X0064140Y0238762D01*
X0066382Y0237833D01*
X0068809Y0237833D01*
X0071051Y0238762D01*
X0072595Y0240306D01*
X0074140Y0238762D01*
X0076382Y0237833D01*
X0078809Y0237833D01*
X0081051Y0238762D01*
X0082595Y0240306D01*
X0084140Y0238762D01*
X0086382Y0237833D01*
X0088809Y0237833D01*
X0091051Y0238762D01*
X0092595Y0240306D01*
X0094140Y0238762D01*
X0096382Y0237833D01*
X0098809Y0237833D01*
X0101051Y0238762D01*
X0102595Y0240306D01*
X0104140Y0238762D01*
X0106382Y0237833D01*
X0108809Y0237833D01*
X0111051Y0238762D01*
X0112595Y0240306D01*
X0114140Y0238762D01*
X0116382Y0237833D01*
X0118809Y0237833D01*
X0121051Y0238762D01*
X0122766Y0240478D01*
X0123695Y0242720D01*
X0123695Y0245146D01*
X0122766Y0247388D01*
X0121051Y0249104D01*
X0120981Y0249133D01*
X0134209Y0249133D01*
X0134140Y0249104D01*
X0132424Y0247388D01*
X0131495Y0245146D01*
X0131495Y0242720D01*
X0132424Y0240478D01*
X0134140Y0238762D01*
X0136382Y0237833D01*
X0138809Y0237833D01*
X0141051Y0238762D01*
X0142766Y0240478D01*
X0142963Y0240952D01*
X0143400Y0240350D01*
X0144012Y0239738D01*
X0144713Y0239229D01*
X0145484Y0238836D01*
X0146307Y0238569D01*
X0147162Y0238433D01*
X0147395Y0238433D01*
X0147395Y0243733D01*
X0147795Y0243733D01*
X0147795Y0238433D01*
X0148028Y0238433D01*
X0148883Y0238569D01*
X0149706Y0238836D01*
X0150478Y0239229D01*
X0151178Y0239738D01*
X0151790Y0240350D01*
X0152299Y0241050D01*
X0152595Y0241631D01*
X0152891Y0241050D01*
X0153400Y0240350D01*
X0154012Y0239738D01*
X0154713Y0239229D01*
X0155484Y0238836D01*
X0156307Y0238569D01*
X0157162Y0238433D01*
X0157395Y0238433D01*
X0157395Y0243733D01*
X0147795Y0243733D01*
X0147795Y0244133D01*
X0153095Y0244133D01*
X0157395Y0244133D01*
X0157395Y0243733D01*
X0157795Y0243733D01*
X0157795Y0238433D01*
X0158028Y0238433D01*
X0158883Y0238569D01*
X0159706Y0238836D01*
X0160478Y0239229D01*
X0161178Y0239738D01*
X0161790Y0240350D01*
X0162227Y0240952D01*
X0162395Y0240547D01*
X0162395Y0223587D01*
X0152941Y0214133D01*
X0121139Y0214133D01*
X0122597Y0215591D01*
X0123495Y0217759D01*
X0123495Y0220107D01*
X0122597Y0222275D01*
X0120937Y0223935D01*
X0118769Y0224833D01*
X0116422Y0224833D01*
X0114253Y0223935D01*
X0112595Y0222277D01*
X0110937Y0223935D01*
X0108769Y0224833D01*
X0106422Y0224833D01*
X0104253Y0223935D01*
X0102595Y0222277D01*
X0100937Y0223935D01*
X0098769Y0224833D01*
X0096422Y0224833D01*
X0094253Y0223935D01*
X0092595Y0222277D01*
X0090937Y0223935D01*
X0088769Y0224833D01*
X0086422Y0224833D01*
X0084253Y0223935D01*
X0082593Y0222275D01*
X0081695Y0220107D01*
X0081695Y0217759D01*
X0082593Y0215591D01*
X0084051Y0214133D01*
X0076561Y0214133D01*
X0074650Y0213341D01*
X0063187Y0201879D01*
X0062395Y0199967D01*
X0062395Y0112899D01*
X0063187Y0110987D01*
X0068187Y0105988D01*
X0068187Y0105987D01*
X0069650Y0104525D01*
X0071561Y0103733D01*
X0076551Y0103733D01*
X0075093Y0102275D01*
X0074561Y0100990D01*
X0074543Y0100972D01*
X0069543Y0095972D01*
X0068995Y0094649D01*
X0068995Y0079533D01*
X0063818Y0079533D01*
X0062936Y0079168D01*
X0062261Y0078493D01*
X0061895Y0077610D01*
X0061895Y0070356D01*
X0062261Y0069474D01*
X0062936Y0068798D01*
X0062995Y0068774D01*
X0062995Y0064217D01*
X0063543Y0062894D01*
X0063995Y0062442D01*
X0063995Y0058960D01*
X0062424Y0057388D01*
X0061495Y0055146D01*
X0061495Y0052720D01*
X0062424Y0050478D01*
X0064140Y0048762D01*
X0064209Y0048733D01*
X0059583Y0048733D01*
X0058268Y0050048D02*
X0062853Y0050048D01*
X0061940Y0051647D02*
X0057395Y0051647D01*
X0057395Y0053245D02*
X0061495Y0053245D01*
X0061495Y0054844D02*
X0057395Y0054844D01*
X0057395Y0056442D02*
X0062032Y0056442D01*
X0063076Y0058041D02*
X0057395Y0058041D01*
X0057395Y0059639D02*
X0063995Y0059639D01*
X0063995Y0061238D02*
X0057395Y0061238D01*
X0057395Y0062836D02*
X0063601Y0062836D01*
X0062995Y0064435D02*
X0057395Y0064435D01*
X0057395Y0066033D02*
X0062995Y0066033D01*
X0062995Y0067632D02*
X0057395Y0067632D01*
X0057395Y0069230D02*
X0062504Y0069230D01*
X0061895Y0070829D02*
X0057395Y0070829D01*
X0057395Y0072427D02*
X0061895Y0072427D01*
X0061895Y0074026D02*
X0057395Y0074026D01*
X0057395Y0075624D02*
X0061895Y0075624D01*
X0061895Y0077223D02*
X0057395Y0077223D01*
X0057395Y0078821D02*
X0062589Y0078821D01*
X0057395Y0080420D02*
X0068995Y0080420D01*
X0068995Y0082018D02*
X0057395Y0082018D01*
X0057395Y0083617D02*
X0068995Y0083617D01*
X0068995Y0085215D02*
X0057395Y0085215D01*
X0057395Y0086814D02*
X0068995Y0086814D01*
X0068995Y0088412D02*
X0057395Y0088412D01*
X0057395Y0090011D02*
X0068995Y0090011D01*
X0068995Y0091610D02*
X0057395Y0091610D01*
X0057395Y0093208D02*
X0068995Y0093208D01*
X0069060Y0094807D02*
X0057395Y0094807D01*
X0057395Y0096405D02*
X0069976Y0096405D01*
X0071574Y0098004D02*
X0057395Y0098004D01*
X0057395Y0099602D02*
X0073173Y0099602D01*
X0074648Y0101201D02*
X0057395Y0101201D01*
X0057395Y0102799D02*
X0075617Y0102799D01*
X0069956Y0104398D02*
X0057395Y0104398D01*
X0057395Y0105996D02*
X0068178Y0105996D01*
X0066580Y0107595D02*
X0057395Y0107595D01*
X0057395Y0109193D02*
X0064981Y0109193D01*
X0063383Y0110792D02*
X0057395Y0110792D01*
X0057395Y0112390D02*
X0062606Y0112390D01*
X0062395Y0113989D02*
X0057395Y0113989D01*
X0057395Y0115587D02*
X0062395Y0115587D01*
X0062395Y0117186D02*
X0057395Y0117186D01*
X0057395Y0118784D02*
X0062395Y0118784D01*
X0062395Y0120383D02*
X0057395Y0120383D01*
X0057395Y0121981D02*
X0062395Y0121981D01*
X0062395Y0123580D02*
X0057395Y0123580D01*
X0057395Y0125178D02*
X0062395Y0125178D01*
X0062395Y0126777D02*
X0057395Y0126777D01*
X0057395Y0128375D02*
X0062395Y0128375D01*
X0062395Y0129974D02*
X0057395Y0129974D01*
X0057395Y0131572D02*
X0062395Y0131572D01*
X0062395Y0133171D02*
X0057395Y0133171D01*
X0057395Y0134769D02*
X0062395Y0134769D01*
X0062395Y0136368D02*
X0057395Y0136368D01*
X0057395Y0137966D02*
X0062395Y0137966D01*
X0062395Y0139565D02*
X0057395Y0139565D01*
X0057395Y0141163D02*
X0062395Y0141163D01*
X0062395Y0142762D02*
X0057395Y0142762D01*
X0057395Y0144360D02*
X0062395Y0144360D01*
X0062395Y0145959D02*
X0057395Y0145959D01*
X0057395Y0147557D02*
X0062395Y0147557D01*
X0062395Y0149156D02*
X0057395Y0149156D01*
X0057395Y0150754D02*
X0062395Y0150754D01*
X0062395Y0152353D02*
X0057395Y0152353D01*
X0057395Y0153951D02*
X0062395Y0153951D01*
X0062395Y0155550D02*
X0057395Y0155550D01*
X0057395Y0157148D02*
X0062395Y0157148D01*
X0062395Y0158747D02*
X0057395Y0158747D01*
X0057395Y0160345D02*
X0062395Y0160345D01*
X0062395Y0161944D02*
X0057395Y0161944D01*
X0057395Y0163543D02*
X0062395Y0163543D01*
X0062395Y0165141D02*
X0057395Y0165141D01*
X0057395Y0166740D02*
X0062395Y0166740D01*
X0062395Y0168338D02*
X0057395Y0168338D01*
X0057395Y0169937D02*
X0062395Y0169937D01*
X0062395Y0171535D02*
X0057395Y0171535D01*
X0057395Y0173134D02*
X0062395Y0173134D01*
X0062395Y0174732D02*
X0057395Y0174732D01*
X0057395Y0176331D02*
X0062395Y0176331D01*
X0062395Y0177929D02*
X0057395Y0177929D01*
X0057395Y0179528D02*
X0062395Y0179528D01*
X0062395Y0181126D02*
X0057395Y0181126D01*
X0057395Y0182725D02*
X0062395Y0182725D01*
X0062395Y0184323D02*
X0057395Y0184323D01*
X0057395Y0185922D02*
X0062395Y0185922D01*
X0062395Y0187520D02*
X0057395Y0187520D01*
X0057395Y0189119D02*
X0062395Y0189119D01*
X0062395Y0190717D02*
X0057395Y0190717D01*
X0057395Y0192316D02*
X0062395Y0192316D01*
X0062395Y0193914D02*
X0057395Y0193914D01*
X0057395Y0195513D02*
X0062395Y0195513D01*
X0062395Y0197111D02*
X0057395Y0197111D01*
X0057395Y0198710D02*
X0062395Y0198710D01*
X0062536Y0200308D02*
X0057395Y0200308D01*
X0057395Y0201907D02*
X0063215Y0201907D01*
X0064813Y0203505D02*
X0057395Y0203505D01*
X0057395Y0205104D02*
X0066412Y0205104D01*
X0068010Y0206702D02*
X0057395Y0206702D01*
X0057395Y0208301D02*
X0069609Y0208301D01*
X0071208Y0209899D02*
X0057395Y0209899D01*
X0057395Y0211498D02*
X0072806Y0211498D01*
X0074405Y0213096D02*
X0057395Y0213096D01*
X0057395Y0214695D02*
X0083489Y0214695D01*
X0082302Y0216293D02*
X0057395Y0216293D01*
X0057395Y0217892D02*
X0081695Y0217892D01*
X0081695Y0219490D02*
X0057395Y0219490D01*
X0057395Y0221089D02*
X0082102Y0221089D01*
X0083006Y0222687D02*
X0057395Y0222687D01*
X0057395Y0224286D02*
X0085101Y0224286D01*
X0090090Y0224286D02*
X0095101Y0224286D01*
X0093006Y0222687D02*
X0092185Y0222687D01*
X0100090Y0224286D02*
X0105101Y0224286D01*
X0103006Y0222687D02*
X0102185Y0222687D01*
X0110090Y0224286D02*
X0115101Y0224286D01*
X0113006Y0222687D02*
X0112185Y0222687D01*
X0120090Y0224286D02*
X0162395Y0224286D01*
X0162395Y0225884D02*
X0057395Y0225884D01*
X0057395Y0227483D02*
X0133908Y0227483D01*
X0135358Y0226033D02*
X0132195Y0229196D01*
X0132195Y0233670D01*
X0135358Y0236833D01*
X0139832Y0236833D01*
X0142995Y0233670D01*
X0142995Y0233621D01*
X0145607Y0236233D01*
X0147395Y0236233D01*
X0147395Y0231633D01*
X0147795Y0231633D01*
X0147795Y0236233D01*
X0149583Y0236233D01*
X0152395Y0233421D01*
X0152395Y0231633D01*
X0147795Y0231633D01*
X0147795Y0231233D01*
X0147795Y0226633D01*
X0149583Y0226633D01*
X0152395Y0229445D01*
X0152395Y0231233D01*
X0147795Y0231233D01*
X0147395Y0231233D01*
X0147395Y0226633D01*
X0145607Y0226633D01*
X0142995Y0229245D01*
X0142995Y0229196D01*
X0139832Y0226033D01*
X0135358Y0226033D01*
X0132310Y0229081D02*
X0057395Y0229081D01*
X0057395Y0230680D02*
X0132195Y0230680D01*
X0132195Y0232279D02*
X0057395Y0232279D01*
X0057395Y0233877D02*
X0132402Y0233877D01*
X0134001Y0235476D02*
X0057395Y0235476D01*
X0057395Y0237074D02*
X0162395Y0237074D01*
X0162395Y0235476D02*
X0150341Y0235476D01*
X0151939Y0233877D02*
X0162395Y0233877D01*
X0162395Y0232279D02*
X0152395Y0232279D01*
X0152395Y0230680D02*
X0162395Y0230680D01*
X0162395Y0229081D02*
X0152032Y0229081D01*
X0150433Y0227483D02*
X0162395Y0227483D01*
X0161496Y0222687D02*
X0122185Y0222687D01*
X0123088Y0221089D02*
X0159897Y0221089D01*
X0158299Y0219490D02*
X0123495Y0219490D01*
X0123495Y0217892D02*
X0156700Y0217892D01*
X0155102Y0216293D02*
X0122888Y0216293D01*
X0121701Y0214695D02*
X0153503Y0214695D01*
X0160218Y0206702D02*
X0182195Y0206702D01*
X0182195Y0206696D02*
X0185358Y0203533D01*
X0185407Y0203533D01*
X0182795Y0200921D01*
X0182795Y0199133D01*
X0187395Y0199133D01*
X0187395Y0198733D01*
X0182795Y0198733D01*
X0182795Y0196945D01*
X0185607Y0194133D01*
X0187395Y0194133D01*
X0187395Y0198733D01*
X0187795Y0198733D01*
X0187795Y0194133D01*
X0189583Y0194133D01*
X0192395Y0196945D01*
X0192395Y0198733D01*
X0187795Y0198733D01*
X0187795Y0199133D01*
X0192395Y0199133D01*
X0192395Y0200921D01*
X0189783Y0203533D01*
X0189832Y0203533D01*
X0192995Y0206696D01*
X0192995Y0211170D01*
X0189832Y0214333D01*
X0185358Y0214333D01*
X0182195Y0211170D01*
X0182195Y0206696D01*
X0182195Y0208301D02*
X0161817Y0208301D01*
X0163415Y0209899D02*
X0182195Y0209899D01*
X0182523Y0211498D02*
X0165014Y0211498D01*
X0166612Y0213096D02*
X0184122Y0213096D01*
X0191069Y0213096D02*
X0206502Y0213096D01*
X0208101Y0211498D02*
X0192667Y0211498D01*
X0192995Y0209899D02*
X0209699Y0209899D01*
X0211298Y0208301D02*
X0192995Y0208301D01*
X0192995Y0206702D02*
X0212896Y0206702D01*
X0214495Y0205104D02*
X0191403Y0205104D01*
X0189811Y0203505D02*
X0216093Y0203505D01*
X0217692Y0201907D02*
X0191410Y0201907D01*
X0192395Y0200308D02*
X0218695Y0200308D01*
X0218695Y0200903D02*
X0218695Y0123333D01*
X0216832Y0123333D01*
X0215832Y0124333D01*
X0211358Y0124333D01*
X0210358Y0123333D01*
X0206832Y0123333D01*
X0205832Y0124333D01*
X0201358Y0124333D01*
X0200358Y0123333D01*
X0196832Y0123333D01*
X0195832Y0124333D01*
X0191358Y0124333D01*
X0190858Y0123833D01*
X0156620Y0123833D01*
X0154820Y0123087D01*
X0153441Y0121709D01*
X0153441Y0121709D01*
X0143441Y0111709D01*
X0142695Y0109908D01*
X0142695Y0101214D01*
X0142595Y0100973D01*
X0142173Y0101992D01*
X0140654Y0103511D01*
X0138669Y0104333D01*
X0136521Y0104333D01*
X0134536Y0103511D01*
X0133017Y0101992D01*
X0132250Y0100140D01*
X0132043Y0100776D01*
X0131700Y0101449D01*
X0131256Y0102060D01*
X0130722Y0102594D01*
X0130111Y0103038D01*
X0129438Y0103381D01*
X0128719Y0103615D01*
X0127973Y0103733D01*
X0127795Y0103733D01*
X0127795Y0099133D01*
X0127395Y0099133D01*
X0127395Y0103733D01*
X0127217Y0103733D01*
X0126471Y0103615D01*
X0125753Y0103381D01*
X0125079Y0103038D01*
X0124468Y0102594D01*
X0123934Y0102060D01*
X0123490Y0101449D01*
X0123147Y0100776D01*
X0122940Y0100140D01*
X0122173Y0101992D01*
X0120654Y0103511D01*
X0118669Y0104333D01*
X0116521Y0104333D01*
X0114536Y0103511D01*
X0113558Y0102533D01*
X0111879Y0102533D01*
X0110556Y0101985D01*
X0107043Y0098472D01*
X0106495Y0097149D01*
X0106495Y0072924D01*
X0103604Y0070033D01*
X0091879Y0070033D01*
X0090556Y0069485D01*
X0089543Y0068472D01*
X0084543Y0063472D01*
X0083995Y0062149D01*
X0083995Y0058960D01*
X0082595Y0057560D01*
X0081195Y0058960D01*
X0081195Y0062542D01*
X0081647Y0062994D01*
X0082195Y0064317D01*
X0082195Y0068774D01*
X0082255Y0068798D01*
X0082930Y0069474D01*
X0083295Y0070356D01*
X0083295Y0077610D01*
X0082930Y0078493D01*
X0082255Y0079168D01*
X0081373Y0079533D01*
X0076195Y0079533D01*
X0076195Y0084489D01*
X0076753Y0083931D01*
X0078922Y0083033D01*
X0081269Y0083033D01*
X0083437Y0083931D01*
X0085097Y0085591D01*
X0085995Y0087759D01*
X0085995Y0090107D01*
X0085097Y0092275D01*
X0083439Y0093933D01*
X0085097Y0095591D01*
X0085995Y0097759D01*
X0085995Y0100107D01*
X0085097Y0102275D01*
X0083439Y0103933D01*
X0085097Y0105591D01*
X0085995Y0107759D01*
X0085995Y0110107D01*
X0085097Y0112275D01*
X0083437Y0113935D01*
X0082622Y0114272D01*
X0082873Y0114400D01*
X0083548Y0114890D01*
X0084138Y0115480D01*
X0084628Y0116155D01*
X0085007Y0116899D01*
X0085265Y0117692D01*
X0085395Y0118516D01*
X0085395Y0118733D01*
X0080295Y0118733D01*
X0080295Y0119133D01*
X0079895Y0119133D01*
X0079895Y0118733D01*
X0074795Y0118733D01*
X0074795Y0118516D01*
X0074926Y0117692D01*
X0075183Y0116899D01*
X0075562Y0116155D01*
X0076053Y0115480D01*
X0076642Y0114890D01*
X0077317Y0114400D01*
X0077568Y0114272D01*
X0077232Y0114133D01*
X0074749Y0114133D01*
X0072795Y0116087D01*
X0072795Y0196779D01*
X0079749Y0203733D01*
X0084732Y0203733D01*
X0085068Y0203594D01*
X0084817Y0203466D01*
X0084142Y0202976D01*
X0083553Y0202386D01*
X0083062Y0201711D01*
X0082683Y0200968D01*
X0082426Y0200174D01*
X0082295Y0199350D01*
X0082295Y0199133D01*
X0087395Y0199133D01*
X0087395Y0198733D01*
X0082295Y0198733D01*
X0082295Y0198516D01*
X0082426Y0197692D01*
X0082683Y0196899D01*
X0083062Y0196155D01*
X0083553Y0195480D01*
X0084142Y0194890D01*
X0084817Y0194400D01*
X0085561Y0194021D01*
X0086354Y0193764D01*
X0087178Y0193633D01*
X0087395Y0193633D01*
X0087395Y0198733D01*
X0087795Y0198733D01*
X0087795Y0193633D01*
X0088012Y0193633D01*
X0088836Y0193764D01*
X0089630Y0194021D01*
X0090373Y0194400D01*
X0091048Y0194890D01*
X0091638Y0195480D01*
X0092128Y0196155D01*
X0092507Y0196899D01*
X0092595Y0197170D01*
X0092683Y0196899D01*
X0093062Y0196155D01*
X0093553Y0195480D01*
X0094142Y0194890D01*
X0094817Y0194400D01*
X0095561Y0194021D01*
X0096354Y0193764D01*
X0097178Y0193633D01*
X0097395Y0193633D01*
X0097395Y0198733D01*
X0087795Y0198733D01*
X0087795Y0199133D01*
X0092895Y0199133D01*
X0097395Y0199133D01*
X0097395Y0198733D01*
X0097795Y0198733D01*
X0097795Y0193633D01*
X0098012Y0193633D01*
X0098836Y0193764D01*
X0099630Y0194021D01*
X0100373Y0194400D01*
X0101048Y0194890D01*
X0101638Y0195480D01*
X0102128Y0196155D01*
X0102507Y0196899D01*
X0102595Y0197170D01*
X0102683Y0196899D01*
X0103062Y0196155D01*
X0103553Y0195480D01*
X0104142Y0194890D01*
X0104817Y0194400D01*
X0105561Y0194021D01*
X0106354Y0193764D01*
X0107178Y0193633D01*
X0107395Y0193633D01*
X0107395Y0198733D01*
X0097795Y0198733D01*
X0097795Y0199133D01*
X0102895Y0199133D01*
X0107395Y0199133D01*
X0107395Y0198733D01*
X0107795Y0198733D01*
X0107795Y0193633D01*
X0108012Y0193633D01*
X0108836Y0193764D01*
X0109630Y0194021D01*
X0110373Y0194400D01*
X0111048Y0194890D01*
X0111638Y0195480D01*
X0112128Y0196155D01*
X0112507Y0196899D01*
X0112595Y0197170D01*
X0112683Y0196899D01*
X0113062Y0196155D01*
X0113553Y0195480D01*
X0114142Y0194890D01*
X0114817Y0194400D01*
X0115561Y0194021D01*
X0116354Y0193764D01*
X0117178Y0193633D01*
X0117395Y0193633D01*
X0117395Y0198733D01*
X0107795Y0198733D01*
X0107795Y0199133D01*
X0112895Y0199133D01*
X0117395Y0199133D01*
X0117395Y0198733D01*
X0117795Y0198733D01*
X0117795Y0193633D01*
X0118012Y0193633D01*
X0118836Y0193764D01*
X0119630Y0194021D01*
X0120373Y0194400D01*
X0121048Y0194890D01*
X0121638Y0195480D01*
X0122128Y0196155D01*
X0122507Y0196899D01*
X0122765Y0197692D01*
X0122895Y0198516D01*
X0122895Y0198733D01*
X0117795Y0198733D01*
X0117795Y0199133D01*
X0122895Y0199133D01*
X0122895Y0199350D01*
X0122765Y0200174D01*
X0122507Y0200968D01*
X0122128Y0201711D01*
X0121638Y0202386D01*
X0121048Y0202976D01*
X0120373Y0203466D01*
X0120122Y0203594D01*
X0120459Y0203733D01*
X0156129Y0203733D01*
X0158041Y0204525D01*
X0159503Y0205987D01*
X0170541Y0217025D01*
X0172003Y0218487D01*
X0172795Y0220399D01*
X0172795Y0240106D01*
X0174140Y0238762D01*
X0176382Y0237833D01*
X0178809Y0237833D01*
X0181051Y0238762D01*
X0182595Y0240306D01*
X0184140Y0238762D01*
X0186382Y0237833D01*
X0188809Y0237833D01*
X0191051Y0238762D01*
X0192595Y0240306D01*
X0192695Y0240206D01*
X0192695Y0227958D01*
X0193441Y0226157D01*
X0218041Y0201557D01*
X0218695Y0200903D01*
X0218695Y0198710D02*
X0192395Y0198710D01*
X0192395Y0197111D02*
X0218695Y0197111D01*
X0218695Y0195513D02*
X0190963Y0195513D01*
X0187795Y0195513D02*
X0187395Y0195513D01*
X0187395Y0197111D02*
X0187795Y0197111D01*
X0187795Y0198710D02*
X0187395Y0198710D01*
X0184227Y0195513D02*
X0121661Y0195513D01*
X0122576Y0197111D02*
X0182795Y0197111D01*
X0182795Y0198710D02*
X0122895Y0198710D01*
X0122721Y0200308D02*
X0182795Y0200308D01*
X0183781Y0201907D02*
X0121986Y0201907D01*
X0120296Y0203505D02*
X0185379Y0203505D01*
X0183788Y0205104D02*
X0158620Y0205104D01*
X0168211Y0214695D02*
X0204904Y0214695D01*
X0203305Y0216293D02*
X0169809Y0216293D01*
X0171408Y0217892D02*
X0201707Y0217892D01*
X0200108Y0219490D02*
X0172419Y0219490D01*
X0172795Y0221089D02*
X0198510Y0221089D01*
X0196911Y0222687D02*
X0172795Y0222687D01*
X0172795Y0224286D02*
X0195313Y0224286D01*
X0193714Y0225884D02*
X0172795Y0225884D01*
X0172795Y0227483D02*
X0192892Y0227483D01*
X0192695Y0229081D02*
X0172795Y0229081D01*
X0172795Y0230680D02*
X0192695Y0230680D01*
X0192695Y0232279D02*
X0172795Y0232279D01*
X0172795Y0233877D02*
X0192695Y0233877D01*
X0192695Y0235476D02*
X0172795Y0235476D01*
X0172795Y0237074D02*
X0192695Y0237074D01*
X0192695Y0238673D02*
X0190835Y0238673D01*
X0192560Y0240271D02*
X0192630Y0240271D01*
X0202495Y0240206D02*
X0202595Y0240306D01*
X0204140Y0238762D01*
X0206382Y0237833D01*
X0208809Y0237833D01*
X0211051Y0238762D01*
X0212766Y0240478D01*
X0213695Y0242720D01*
X0213695Y0245146D01*
X0212766Y0247388D01*
X0211051Y0249104D01*
X0210981Y0249133D01*
X0262607Y0249133D01*
X0264795Y0246945D01*
X0264795Y0050921D01*
X0262607Y0048733D01*
X0246981Y0048733D01*
X0247051Y0048762D01*
X0248766Y0050478D01*
X0249695Y0052720D01*
X0249695Y0055146D01*
X0248766Y0057388D01*
X0247051Y0059104D01*
X0244809Y0060033D01*
X0242382Y0060033D01*
X0240140Y0059104D01*
X0238595Y0057560D01*
X0237051Y0059104D01*
X0234809Y0060033D01*
X0232382Y0060033D01*
X0230140Y0059104D01*
X0228595Y0057560D01*
X0227051Y0059104D01*
X0224809Y0060033D01*
X0222382Y0060033D01*
X0220140Y0059104D01*
X0218424Y0057388D01*
X0218227Y0056914D01*
X0217790Y0057516D01*
X0217178Y0058128D01*
X0216478Y0058637D01*
X0215706Y0059030D01*
X0214883Y0059298D01*
X0214028Y0059433D01*
X0213795Y0059433D01*
X0213795Y0054133D01*
X0213395Y0054133D01*
X0213395Y0059433D01*
X0213162Y0059433D01*
X0212307Y0059298D01*
X0211484Y0059030D01*
X0210712Y0058637D01*
X0210012Y0058128D01*
X0209400Y0057516D01*
X0208963Y0056914D01*
X0208766Y0057388D01*
X0207051Y0059104D01*
X0204809Y0060033D01*
X0202382Y0060033D01*
X0200140Y0059104D01*
X0198595Y0057560D01*
X0197051Y0059104D01*
X0194809Y0060033D01*
X0192382Y0060033D01*
X0190140Y0059104D01*
X0188595Y0057560D01*
X0187051Y0059104D01*
X0184809Y0060033D01*
X0182382Y0060033D01*
X0180140Y0059104D01*
X0178595Y0057560D01*
X0177051Y0059104D01*
X0174809Y0060033D01*
X0172382Y0060033D01*
X0170140Y0059104D01*
X0168595Y0057560D01*
X0167051Y0059104D01*
X0164809Y0060033D01*
X0162382Y0060033D01*
X0160140Y0059104D01*
X0158595Y0057560D01*
X0157051Y0059104D01*
X0154809Y0060033D01*
X0152382Y0060033D01*
X0150140Y0059104D01*
X0148424Y0057388D01*
X0147495Y0055146D01*
X0147495Y0052720D01*
X0148424Y0050478D01*
X0150140Y0048762D01*
X0150209Y0048733D01*
X0140981Y0048733D01*
X0141051Y0048762D01*
X0142766Y0050478D01*
X0143695Y0052720D01*
X0143695Y0055146D01*
X0142766Y0057388D01*
X0141051Y0059104D01*
X0138809Y0060033D01*
X0136382Y0060033D01*
X0134140Y0059104D01*
X0132595Y0057560D01*
X0131051Y0059104D01*
X0128809Y0060033D01*
X0126382Y0060033D01*
X0124140Y0059104D01*
X0122595Y0057560D01*
X0121051Y0059104D01*
X0118809Y0060033D01*
X0116382Y0060033D01*
X0114140Y0059104D01*
X0112595Y0057560D01*
X0111051Y0059104D01*
X0108809Y0060033D01*
X0106382Y0060033D01*
X0104140Y0059104D01*
X0102595Y0057560D01*
X0101051Y0059104D01*
X0098809Y0060033D01*
X0096382Y0060033D01*
X0094140Y0059104D01*
X0092595Y0057560D01*
X0091195Y0058960D01*
X0091195Y0059942D01*
X0094086Y0062833D01*
X0105811Y0062833D01*
X0107134Y0063381D01*
X0112134Y0068381D01*
X0113147Y0069394D01*
X0113695Y0070717D01*
X0113695Y0085196D01*
X0114536Y0084355D01*
X0116521Y0083533D01*
X0118669Y0083533D01*
X0120654Y0084355D01*
X0122173Y0085874D01*
X0122595Y0086893D01*
X0123017Y0085874D01*
X0124536Y0084355D01*
X0126521Y0083533D01*
X0128669Y0083533D01*
X0130654Y0084355D01*
X0132173Y0085874D01*
X0132595Y0086893D01*
X0133017Y0085874D01*
X0134536Y0084355D01*
X0136521Y0083533D01*
X0138669Y0083533D01*
X0140654Y0084355D01*
X0142173Y0085874D01*
X0142595Y0086893D01*
X0143017Y0085874D01*
X0144536Y0084355D01*
X0146521Y0083533D01*
X0148669Y0083533D01*
X0150654Y0084355D01*
X0152173Y0085874D01*
X0152595Y0086893D01*
X0153017Y0085874D01*
X0154536Y0084355D01*
X0156521Y0083533D01*
X0158669Y0083533D01*
X0160654Y0084355D01*
X0162173Y0085874D01*
X0162995Y0087859D01*
X0162995Y0090007D01*
X0162173Y0091992D01*
X0160654Y0093511D01*
X0159635Y0093933D01*
X0160654Y0094355D01*
X0162173Y0095874D01*
X0162995Y0097859D01*
X0162995Y0100007D01*
X0162173Y0101992D01*
X0160654Y0103511D01*
X0158669Y0104333D01*
X0156521Y0104333D01*
X0154536Y0103511D01*
X0153017Y0101992D01*
X0152595Y0100973D01*
X0152495Y0101214D01*
X0152495Y0106903D01*
X0159625Y0114033D01*
X0178995Y0114033D01*
X0178995Y0109507D01*
X0178395Y0108908D01*
X0178030Y0108025D01*
X0178030Y0103134D01*
X0178395Y0102252D01*
X0178414Y0102233D01*
X0178395Y0102215D01*
X0178030Y0101333D01*
X0178030Y0096441D01*
X0178395Y0095559D01*
X0178995Y0094959D01*
X0178995Y0093217D01*
X0179543Y0091894D01*
X0184543Y0086894D01*
X0185556Y0085881D01*
X0186879Y0085333D01*
X0189558Y0085333D01*
X0191358Y0083533D01*
X0195832Y0083533D01*
X0198595Y0086296D01*
X0201358Y0083533D01*
X0205832Y0083533D01*
X0208595Y0086296D01*
X0211358Y0083533D01*
X0215832Y0083533D01*
X0218595Y0086296D01*
X0221358Y0083533D01*
X0225832Y0083533D01*
X0228595Y0086296D01*
X0231358Y0083533D01*
X0235832Y0083533D01*
X0238595Y0086296D01*
X0241358Y0083533D01*
X0245832Y0083533D01*
X0248995Y0086696D01*
X0248995Y0091170D01*
X0246232Y0093933D01*
X0247632Y0095333D01*
X0253311Y0095333D01*
X0254634Y0095881D01*
X0255647Y0096894D01*
X0257847Y0099094D01*
X0258144Y0099811D01*
X0258320Y0099883D01*
X0258995Y0100559D01*
X0259360Y0101441D01*
X0259360Y0106333D01*
X0258995Y0107215D01*
X0258977Y0107233D01*
X0258995Y0107252D01*
X0259360Y0108134D01*
X0259360Y0113025D01*
X0258995Y0113908D01*
X0258395Y0114507D01*
X0258395Y0115649D01*
X0257847Y0116972D01*
X0256834Y0117985D01*
X0252834Y0121985D01*
X0251511Y0122533D01*
X0247632Y0122533D01*
X0245832Y0124333D01*
X0241358Y0124333D01*
X0240358Y0123333D01*
X0236832Y0123333D01*
X0235832Y0124333D01*
X0231358Y0124333D01*
X0230358Y0123333D01*
X0228495Y0123333D01*
X0228495Y0205308D01*
X0227749Y0207109D01*
X0226371Y0208487D01*
X0224570Y0209233D01*
X0224225Y0209233D01*
X0202495Y0230963D01*
X0202495Y0240206D01*
X0202560Y0240271D02*
X0202630Y0240271D01*
X0202495Y0238673D02*
X0204355Y0238673D01*
X0202495Y0237074D02*
X0264795Y0237074D01*
X0264795Y0235476D02*
X0202495Y0235476D01*
X0202495Y0233877D02*
X0264795Y0233877D01*
X0264795Y0232279D02*
X0202495Y0232279D01*
X0202778Y0230680D02*
X0264795Y0230680D01*
X0264795Y0229081D02*
X0204376Y0229081D01*
X0205975Y0227483D02*
X0264795Y0227483D01*
X0264795Y0225884D02*
X0207573Y0225884D01*
X0209172Y0224286D02*
X0264795Y0224286D01*
X0264795Y0222687D02*
X0210770Y0222687D01*
X0212369Y0221089D02*
X0264795Y0221089D01*
X0264795Y0219490D02*
X0213967Y0219490D01*
X0215566Y0217892D02*
X0264795Y0217892D01*
X0264795Y0216293D02*
X0217164Y0216293D01*
X0218763Y0214695D02*
X0264795Y0214695D01*
X0264795Y0213096D02*
X0220361Y0213096D01*
X0221960Y0211498D02*
X0264795Y0211498D01*
X0264795Y0209899D02*
X0223558Y0209899D01*
X0226557Y0208301D02*
X0264795Y0208301D01*
X0264795Y0206702D02*
X0227917Y0206702D01*
X0228495Y0205104D02*
X0264795Y0205104D01*
X0264795Y0203505D02*
X0228495Y0203505D01*
X0228495Y0201907D02*
X0264795Y0201907D01*
X0264795Y0200308D02*
X0228495Y0200308D01*
X0228495Y0198710D02*
X0264795Y0198710D01*
X0264795Y0197111D02*
X0228495Y0197111D01*
X0228495Y0195513D02*
X0264795Y0195513D01*
X0264795Y0193914D02*
X0228495Y0193914D01*
X0228495Y0192316D02*
X0264795Y0192316D01*
X0264795Y0190717D02*
X0228495Y0190717D01*
X0228495Y0189119D02*
X0264795Y0189119D01*
X0264795Y0187520D02*
X0228495Y0187520D01*
X0228495Y0185922D02*
X0264795Y0185922D01*
X0264795Y0184323D02*
X0228495Y0184323D01*
X0228495Y0182725D02*
X0264795Y0182725D01*
X0264795Y0181126D02*
X0228495Y0181126D01*
X0228495Y0179528D02*
X0264795Y0179528D01*
X0264795Y0177929D02*
X0228495Y0177929D01*
X0228495Y0176331D02*
X0264795Y0176331D01*
X0264795Y0174732D02*
X0228495Y0174732D01*
X0228495Y0173134D02*
X0264795Y0173134D01*
X0264795Y0171535D02*
X0228495Y0171535D01*
X0228495Y0169937D02*
X0264795Y0169937D01*
X0264795Y0168338D02*
X0228495Y0168338D01*
X0228495Y0166740D02*
X0264795Y0166740D01*
X0264795Y0165141D02*
X0228495Y0165141D01*
X0228495Y0163543D02*
X0264795Y0163543D01*
X0264795Y0161944D02*
X0228495Y0161944D01*
X0228495Y0160345D02*
X0264795Y0160345D01*
X0264795Y0158747D02*
X0228495Y0158747D01*
X0228495Y0157148D02*
X0264795Y0157148D01*
X0264795Y0155550D02*
X0228495Y0155550D01*
X0228495Y0153951D02*
X0264795Y0153951D01*
X0264795Y0152353D02*
X0228495Y0152353D01*
X0228495Y0150754D02*
X0264795Y0150754D01*
X0264795Y0149156D02*
X0228495Y0149156D01*
X0228495Y0147557D02*
X0264795Y0147557D01*
X0264795Y0145959D02*
X0228495Y0145959D01*
X0228495Y0144360D02*
X0264795Y0144360D01*
X0264795Y0142762D02*
X0228495Y0142762D01*
X0228495Y0141163D02*
X0264795Y0141163D01*
X0264795Y0139565D02*
X0228495Y0139565D01*
X0228495Y0137966D02*
X0264795Y0137966D01*
X0264795Y0136368D02*
X0228495Y0136368D01*
X0228495Y0134769D02*
X0264795Y0134769D01*
X0264795Y0133171D02*
X0228495Y0133171D01*
X0228495Y0131572D02*
X0264795Y0131572D01*
X0264795Y0129974D02*
X0228495Y0129974D01*
X0228495Y0128375D02*
X0264795Y0128375D01*
X0264795Y0126777D02*
X0228495Y0126777D01*
X0228495Y0125178D02*
X0264795Y0125178D01*
X0264795Y0123580D02*
X0246585Y0123580D01*
X0240605Y0123580D02*
X0236585Y0123580D01*
X0230605Y0123580D02*
X0228495Y0123580D01*
X0226832Y0114533D02*
X0230358Y0114533D01*
X0231358Y0113533D01*
X0231407Y0113533D01*
X0228795Y0110921D01*
X0228795Y0109133D01*
X0233395Y0109133D01*
X0233395Y0108733D01*
X0228795Y0108733D01*
X0228795Y0106945D01*
X0231407Y0104333D01*
X0231358Y0104333D01*
X0228595Y0101570D01*
X0225832Y0104333D01*
X0225783Y0104333D01*
X0228395Y0106945D01*
X0228395Y0108733D01*
X0223795Y0108733D01*
X0223795Y0109133D01*
X0228395Y0109133D01*
X0228395Y0110921D01*
X0225783Y0113533D01*
X0225832Y0113533D01*
X0226832Y0114533D01*
X0226287Y0113989D02*
X0230903Y0113989D01*
X0230264Y0112390D02*
X0226926Y0112390D01*
X0228395Y0110792D02*
X0228795Y0110792D01*
X0228795Y0109193D02*
X0228395Y0109193D01*
X0228395Y0107595D02*
X0228795Y0107595D01*
X0229744Y0105996D02*
X0227446Y0105996D01*
X0225848Y0104398D02*
X0231342Y0104398D01*
X0229824Y0102799D02*
X0227366Y0102799D01*
X0221407Y0104333D02*
X0221358Y0104333D01*
X0218595Y0101570D01*
X0215832Y0104333D01*
X0215783Y0104333D01*
X0218395Y0106945D01*
X0218395Y0108733D01*
X0213795Y0108733D01*
X0213795Y0109133D01*
X0218395Y0109133D01*
X0218395Y0110921D01*
X0215783Y0113533D01*
X0215832Y0113533D01*
X0216832Y0114533D01*
X0220358Y0114533D01*
X0221358Y0113533D01*
X0221407Y0113533D01*
X0218795Y0110921D01*
X0218795Y0109133D01*
X0223395Y0109133D01*
X0223395Y0108733D01*
X0218795Y0108733D01*
X0218795Y0106945D01*
X0221407Y0104333D01*
X0221342Y0104398D02*
X0215848Y0104398D01*
X0217366Y0102799D02*
X0219824Y0102799D01*
X0219744Y0105996D02*
X0217446Y0105996D01*
X0218395Y0107595D02*
X0218795Y0107595D01*
X0218795Y0109193D02*
X0218395Y0109193D01*
X0218395Y0110792D02*
X0218795Y0110792D01*
X0220264Y0112390D02*
X0216926Y0112390D01*
X0216287Y0113989D02*
X0220903Y0113989D01*
X0213395Y0109133D02*
X0213395Y0108733D01*
X0208795Y0108733D01*
X0208795Y0106945D01*
X0211407Y0104333D01*
X0211358Y0104333D01*
X0208595Y0101570D01*
X0205832Y0104333D01*
X0205783Y0104333D01*
X0208395Y0106945D01*
X0208395Y0108733D01*
X0203795Y0108733D01*
X0203795Y0109133D01*
X0208395Y0109133D01*
X0208395Y0110921D01*
X0205783Y0113533D01*
X0205832Y0113533D01*
X0206832Y0114533D01*
X0210358Y0114533D01*
X0211358Y0113533D01*
X0211407Y0113533D01*
X0208795Y0110921D01*
X0208795Y0109133D01*
X0213395Y0109133D01*
X0210264Y0112390D02*
X0206926Y0112390D01*
X0206287Y0113989D02*
X0210903Y0113989D01*
X0208795Y0110792D02*
X0208395Y0110792D01*
X0208395Y0109193D02*
X0208795Y0109193D01*
X0208795Y0107595D02*
X0208395Y0107595D01*
X0207446Y0105996D02*
X0209744Y0105996D01*
X0211342Y0104398D02*
X0205848Y0104398D01*
X0207366Y0102799D02*
X0209824Y0102799D01*
X0203395Y0108733D02*
X0198795Y0108733D01*
X0198795Y0106945D01*
X0201407Y0104333D01*
X0201358Y0104333D01*
X0198595Y0101570D01*
X0195832Y0104333D01*
X0195783Y0104333D01*
X0198395Y0106945D01*
X0198395Y0108733D01*
X0193795Y0108733D01*
X0193795Y0109133D01*
X0198395Y0109133D01*
X0198395Y0110921D01*
X0195783Y0113533D01*
X0195832Y0113533D01*
X0196832Y0114533D01*
X0200358Y0114533D01*
X0201358Y0113533D01*
X0201407Y0113533D01*
X0198795Y0110921D01*
X0198795Y0109133D01*
X0203395Y0109133D01*
X0203395Y0108733D01*
X0199744Y0105996D02*
X0197446Y0105996D01*
X0198395Y0107595D02*
X0198795Y0107595D01*
X0198795Y0109193D02*
X0198395Y0109193D01*
X0198395Y0110792D02*
X0198795Y0110792D01*
X0200264Y0112390D02*
X0196926Y0112390D01*
X0196287Y0113989D02*
X0200903Y0113989D01*
X0193395Y0109133D02*
X0193395Y0108733D01*
X0188795Y0108733D01*
X0188795Y0106945D01*
X0191407Y0104333D01*
X0191358Y0104333D01*
X0188195Y0101170D01*
X0188195Y0096696D01*
X0190958Y0093933D01*
X0189558Y0092533D01*
X0189086Y0092533D01*
X0186428Y0095191D01*
X0186795Y0095559D01*
X0187160Y0096441D01*
X0187160Y0101333D01*
X0186795Y0102215D01*
X0186777Y0102233D01*
X0186795Y0102252D01*
X0187160Y0103134D01*
X0187160Y0108025D01*
X0186795Y0108908D01*
X0186195Y0109507D01*
X0186195Y0114033D01*
X0190858Y0114033D01*
X0191358Y0113533D01*
X0191407Y0113533D01*
X0188795Y0110921D01*
X0188795Y0109133D01*
X0193395Y0109133D01*
X0190264Y0112390D02*
X0186195Y0112390D01*
X0186195Y0110792D02*
X0188795Y0110792D01*
X0188795Y0109193D02*
X0186509Y0109193D01*
X0187160Y0107595D02*
X0188795Y0107595D01*
X0189744Y0105996D02*
X0187160Y0105996D01*
X0187160Y0104398D02*
X0191342Y0104398D01*
X0189824Y0102799D02*
X0187022Y0102799D01*
X0187160Y0101201D02*
X0188226Y0101201D01*
X0188195Y0099602D02*
X0187160Y0099602D01*
X0187160Y0098004D02*
X0188195Y0098004D01*
X0188486Y0096405D02*
X0187146Y0096405D01*
X0186813Y0094807D02*
X0190085Y0094807D01*
X0190233Y0093208D02*
X0188411Y0093208D01*
X0183025Y0088412D02*
X0162995Y0088412D01*
X0162994Y0090011D02*
X0181426Y0090011D01*
X0179828Y0091610D02*
X0162331Y0091610D01*
X0160957Y0093208D02*
X0178999Y0093208D01*
X0178995Y0094807D02*
X0161105Y0094807D01*
X0162393Y0096405D02*
X0178045Y0096405D01*
X0178030Y0098004D02*
X0162995Y0098004D01*
X0162995Y0099602D02*
X0178030Y0099602D01*
X0178030Y0101201D02*
X0162501Y0101201D01*
X0161366Y0102799D02*
X0178168Y0102799D01*
X0178030Y0104398D02*
X0152495Y0104398D01*
X0152495Y0105996D02*
X0178030Y0105996D01*
X0178030Y0107595D02*
X0153186Y0107595D01*
X0154785Y0109193D02*
X0178681Y0109193D01*
X0178995Y0110792D02*
X0156383Y0110792D01*
X0157982Y0112390D02*
X0178995Y0112390D01*
X0178995Y0113989D02*
X0159580Y0113989D01*
X0152115Y0120383D02*
X0085197Y0120383D01*
X0085265Y0120174D02*
X0085007Y0120968D01*
X0084628Y0121711D01*
X0084138Y0122386D01*
X0083548Y0122976D01*
X0082873Y0123466D01*
X0082130Y0123845D01*
X0081336Y0124103D01*
X0080512Y0124233D01*
X0080295Y0124233D01*
X0080295Y0119133D01*
X0085395Y0119133D01*
X0085395Y0119350D01*
X0085265Y0120174D01*
X0084432Y0121981D02*
X0153714Y0121981D01*
X0156009Y0123580D02*
X0082650Y0123580D01*
X0080295Y0123580D02*
X0079895Y0123580D01*
X0079895Y0124233D02*
X0079678Y0124233D01*
X0078854Y0124103D01*
X0078061Y0123845D01*
X0077317Y0123466D01*
X0076642Y0122976D01*
X0076053Y0122386D01*
X0075562Y0121711D01*
X0075183Y0120968D01*
X0074926Y0120174D01*
X0074795Y0119350D01*
X0074795Y0119133D01*
X0079895Y0119133D01*
X0079895Y0124233D01*
X0079895Y0121981D02*
X0080295Y0121981D01*
X0080295Y0120383D02*
X0079895Y0120383D01*
X0079895Y0118784D02*
X0072795Y0118784D01*
X0072795Y0117186D02*
X0075090Y0117186D01*
X0075975Y0115587D02*
X0073295Y0115587D01*
X0072795Y0120383D02*
X0074993Y0120383D01*
X0075759Y0121981D02*
X0072795Y0121981D01*
X0072795Y0123580D02*
X0077541Y0123580D01*
X0072795Y0125178D02*
X0218695Y0125178D01*
X0218695Y0123580D02*
X0216585Y0123580D01*
X0218695Y0126777D02*
X0072795Y0126777D01*
X0072795Y0128375D02*
X0218695Y0128375D01*
X0218695Y0129974D02*
X0072795Y0129974D01*
X0072795Y0131572D02*
X0218695Y0131572D01*
X0218695Y0133171D02*
X0072795Y0133171D01*
X0072795Y0134769D02*
X0218695Y0134769D01*
X0218695Y0136368D02*
X0072795Y0136368D01*
X0072795Y0137966D02*
X0218695Y0137966D01*
X0218695Y0139565D02*
X0072795Y0139565D01*
X0072795Y0141163D02*
X0218695Y0141163D01*
X0218695Y0142762D02*
X0072795Y0142762D01*
X0072795Y0144360D02*
X0218695Y0144360D01*
X0218695Y0145959D02*
X0072795Y0145959D01*
X0072795Y0147557D02*
X0218695Y0147557D01*
X0218695Y0149156D02*
X0072795Y0149156D01*
X0072795Y0150754D02*
X0218695Y0150754D01*
X0218695Y0152353D02*
X0072795Y0152353D01*
X0072795Y0153951D02*
X0218695Y0153951D01*
X0218695Y0155550D02*
X0072795Y0155550D01*
X0072795Y0157148D02*
X0218695Y0157148D01*
X0218695Y0158747D02*
X0072795Y0158747D01*
X0072795Y0160345D02*
X0218695Y0160345D01*
X0218695Y0161944D02*
X0072795Y0161944D01*
X0072795Y0163543D02*
X0218695Y0163543D01*
X0218695Y0165141D02*
X0072795Y0165141D01*
X0072795Y0166740D02*
X0218695Y0166740D01*
X0218695Y0168338D02*
X0072795Y0168338D01*
X0072795Y0169937D02*
X0218695Y0169937D01*
X0218695Y0171535D02*
X0072795Y0171535D01*
X0072795Y0173134D02*
X0218695Y0173134D01*
X0218695Y0174732D02*
X0072795Y0174732D01*
X0072795Y0176331D02*
X0218695Y0176331D01*
X0218695Y0177929D02*
X0072795Y0177929D01*
X0072795Y0179528D02*
X0218695Y0179528D01*
X0218695Y0181126D02*
X0072795Y0181126D01*
X0072795Y0182725D02*
X0218695Y0182725D01*
X0218695Y0184323D02*
X0072795Y0184323D01*
X0072795Y0185922D02*
X0218695Y0185922D01*
X0218695Y0187520D02*
X0072795Y0187520D01*
X0072795Y0189119D02*
X0218695Y0189119D01*
X0218695Y0190717D02*
X0072795Y0190717D01*
X0072795Y0192316D02*
X0218695Y0192316D01*
X0218695Y0193914D02*
X0119300Y0193914D01*
X0117795Y0193914D02*
X0117395Y0193914D01*
X0115890Y0193914D02*
X0109300Y0193914D01*
X0107795Y0193914D02*
X0107395Y0193914D01*
X0105890Y0193914D02*
X0099300Y0193914D01*
X0097795Y0193914D02*
X0097395Y0193914D01*
X0095890Y0193914D02*
X0089300Y0193914D01*
X0087795Y0193914D02*
X0087395Y0193914D01*
X0085890Y0193914D02*
X0072795Y0193914D01*
X0072795Y0195513D02*
X0083529Y0195513D01*
X0082614Y0197111D02*
X0073127Y0197111D01*
X0074726Y0198710D02*
X0082295Y0198710D01*
X0082469Y0200308D02*
X0076324Y0200308D01*
X0077923Y0201907D02*
X0083205Y0201907D01*
X0084894Y0203505D02*
X0079521Y0203505D01*
X0087395Y0198710D02*
X0087795Y0198710D01*
X0087795Y0197111D02*
X0087395Y0197111D01*
X0087395Y0195513D02*
X0087795Y0195513D01*
X0091661Y0195513D02*
X0093529Y0195513D01*
X0092614Y0197111D02*
X0092576Y0197111D01*
X0097395Y0197111D02*
X0097795Y0197111D01*
X0097795Y0195513D02*
X0097395Y0195513D01*
X0097395Y0198710D02*
X0097795Y0198710D01*
X0101661Y0195513D02*
X0103529Y0195513D01*
X0102614Y0197111D02*
X0102576Y0197111D01*
X0107395Y0197111D02*
X0107795Y0197111D01*
X0107795Y0195513D02*
X0107395Y0195513D01*
X0107395Y0198710D02*
X0107795Y0198710D01*
X0111661Y0195513D02*
X0113529Y0195513D01*
X0112614Y0197111D02*
X0112576Y0197111D01*
X0117395Y0197111D02*
X0117795Y0197111D01*
X0117795Y0195513D02*
X0117395Y0195513D01*
X0117395Y0198710D02*
X0117795Y0198710D01*
X0141282Y0227483D02*
X0144757Y0227483D01*
X0143159Y0229081D02*
X0142880Y0229081D01*
X0147395Y0229081D02*
X0147795Y0229081D01*
X0147795Y0227483D02*
X0147395Y0227483D01*
X0147395Y0230680D02*
X0147795Y0230680D01*
X0147795Y0232279D02*
X0147395Y0232279D01*
X0147395Y0233877D02*
X0147795Y0233877D01*
X0147795Y0235476D02*
X0147395Y0235476D01*
X0144849Y0235476D02*
X0141189Y0235476D01*
X0142788Y0233877D02*
X0143251Y0233877D01*
X0140835Y0238673D02*
X0145987Y0238673D01*
X0147395Y0238673D02*
X0147795Y0238673D01*
X0149203Y0238673D02*
X0155987Y0238673D01*
X0157395Y0238673D02*
X0157795Y0238673D01*
X0159203Y0238673D02*
X0162395Y0238673D01*
X0162395Y0240271D02*
X0161711Y0240271D01*
X0157795Y0240271D02*
X0157395Y0240271D01*
X0157395Y0241870D02*
X0157795Y0241870D01*
X0157795Y0243468D02*
X0157395Y0243468D01*
X0153479Y0240271D02*
X0151711Y0240271D01*
X0147795Y0240271D02*
X0147395Y0240271D01*
X0147395Y0241870D02*
X0147795Y0241870D01*
X0147795Y0243468D02*
X0147395Y0243468D01*
X0143479Y0240271D02*
X0142560Y0240271D01*
X0134355Y0238673D02*
X0120835Y0238673D01*
X0122560Y0240271D02*
X0132630Y0240271D01*
X0131847Y0241870D02*
X0123343Y0241870D01*
X0123695Y0243468D02*
X0131495Y0243468D01*
X0131495Y0245067D02*
X0123695Y0245067D01*
X0123066Y0246665D02*
X0132124Y0246665D01*
X0133299Y0248264D02*
X0121891Y0248264D01*
X0114355Y0238673D02*
X0110835Y0238673D01*
X0112560Y0240271D02*
X0112630Y0240271D01*
X0104355Y0238673D02*
X0100835Y0238673D01*
X0102560Y0240271D02*
X0102630Y0240271D01*
X0094355Y0238673D02*
X0090835Y0238673D01*
X0092560Y0240271D02*
X0092630Y0240271D01*
X0084355Y0238673D02*
X0080835Y0238673D01*
X0082560Y0240271D02*
X0082630Y0240271D01*
X0074355Y0238673D02*
X0070835Y0238673D01*
X0072560Y0240271D02*
X0072630Y0240271D01*
X0064355Y0238673D02*
X0057395Y0238673D01*
X0057395Y0240271D02*
X0062630Y0240271D01*
X0061847Y0241870D02*
X0057395Y0241870D01*
X0057395Y0243468D02*
X0061495Y0243468D01*
X0061495Y0245067D02*
X0057453Y0245067D01*
X0058519Y0246665D02*
X0062124Y0246665D01*
X0063299Y0248264D02*
X0059584Y0248264D01*
X0172795Y0238673D02*
X0174355Y0238673D01*
X0180835Y0238673D02*
X0184355Y0238673D01*
X0182630Y0240271D02*
X0182560Y0240271D01*
X0210835Y0238673D02*
X0264795Y0238673D01*
X0264795Y0240271D02*
X0212560Y0240271D01*
X0213343Y0241870D02*
X0264795Y0241870D01*
X0264795Y0243468D02*
X0213695Y0243468D01*
X0213695Y0245067D02*
X0264795Y0245067D01*
X0264795Y0246665D02*
X0213066Y0246665D01*
X0211891Y0248264D02*
X0263476Y0248264D01*
X0264795Y0121981D02*
X0252838Y0121981D01*
X0254437Y0120383D02*
X0264795Y0120383D01*
X0264795Y0118784D02*
X0256035Y0118784D01*
X0257634Y0117186D02*
X0264795Y0117186D01*
X0264795Y0115587D02*
X0258395Y0115587D01*
X0258914Y0113989D02*
X0264795Y0113989D01*
X0264795Y0112390D02*
X0259360Y0112390D01*
X0259360Y0110792D02*
X0264795Y0110792D01*
X0264795Y0109193D02*
X0259360Y0109193D01*
X0259137Y0107595D02*
X0264795Y0107595D01*
X0264795Y0105996D02*
X0259360Y0105996D01*
X0259360Y0104398D02*
X0264795Y0104398D01*
X0264795Y0102799D02*
X0259360Y0102799D01*
X0259261Y0101201D02*
X0264795Y0101201D01*
X0264795Y0099602D02*
X0258058Y0099602D01*
X0256757Y0098004D02*
X0264795Y0098004D01*
X0264795Y0096405D02*
X0255158Y0096405D01*
X0250230Y0102533D02*
X0247632Y0102533D01*
X0245832Y0104333D01*
X0245783Y0104333D01*
X0248395Y0106945D01*
X0248395Y0108733D01*
X0243795Y0108733D01*
X0243795Y0109133D01*
X0248395Y0109133D01*
X0248395Y0110921D01*
X0245783Y0113533D01*
X0245832Y0113533D01*
X0247632Y0115333D01*
X0249304Y0115333D01*
X0250662Y0113975D01*
X0250595Y0113908D01*
X0250230Y0113025D01*
X0250230Y0108134D01*
X0250595Y0107252D01*
X0250614Y0107233D01*
X0250595Y0107215D01*
X0250230Y0106333D01*
X0250230Y0102533D01*
X0250230Y0102799D02*
X0247366Y0102799D01*
X0245848Y0104398D02*
X0250230Y0104398D01*
X0250230Y0105996D02*
X0247446Y0105996D01*
X0248395Y0107595D02*
X0250453Y0107595D01*
X0250230Y0109193D02*
X0248395Y0109193D01*
X0248395Y0110792D02*
X0250230Y0110792D01*
X0250230Y0112390D02*
X0246926Y0112390D01*
X0246287Y0113989D02*
X0250648Y0113989D01*
X0243395Y0109133D02*
X0243395Y0108733D01*
X0238795Y0108733D01*
X0238795Y0106945D01*
X0241407Y0104333D01*
X0241358Y0104333D01*
X0238595Y0101570D01*
X0235832Y0104333D01*
X0235783Y0104333D01*
X0238395Y0106945D01*
X0238395Y0108733D01*
X0233795Y0108733D01*
X0233795Y0109133D01*
X0238395Y0109133D01*
X0238395Y0110921D01*
X0235783Y0113533D01*
X0235832Y0113533D01*
X0236832Y0114533D01*
X0240358Y0114533D01*
X0241358Y0113533D01*
X0241407Y0113533D01*
X0238795Y0110921D01*
X0238795Y0109133D01*
X0243395Y0109133D01*
X0240264Y0112390D02*
X0236926Y0112390D01*
X0236287Y0113989D02*
X0240903Y0113989D01*
X0238795Y0110792D02*
X0238395Y0110792D01*
X0238395Y0109193D02*
X0238795Y0109193D01*
X0238795Y0107595D02*
X0238395Y0107595D01*
X0237446Y0105996D02*
X0239744Y0105996D01*
X0241342Y0104398D02*
X0235848Y0104398D01*
X0237366Y0102799D02*
X0239824Y0102799D01*
X0247105Y0094807D02*
X0264795Y0094807D01*
X0264795Y0093208D02*
X0246957Y0093208D01*
X0248555Y0091610D02*
X0264795Y0091610D01*
X0264795Y0090011D02*
X0248995Y0090011D01*
X0248995Y0088412D02*
X0264795Y0088412D01*
X0264795Y0086814D02*
X0248995Y0086814D01*
X0247514Y0085215D02*
X0264795Y0085215D01*
X0264795Y0083617D02*
X0245916Y0083617D01*
X0241275Y0083617D02*
X0235916Y0083617D01*
X0237514Y0085215D02*
X0239676Y0085215D01*
X0231275Y0083617D02*
X0225916Y0083617D01*
X0227514Y0085215D02*
X0229676Y0085215D01*
X0221275Y0083617D02*
X0215916Y0083617D01*
X0217514Y0085215D02*
X0219676Y0085215D01*
X0211275Y0083617D02*
X0205916Y0083617D01*
X0207514Y0085215D02*
X0209676Y0085215D01*
X0201275Y0083617D02*
X0195916Y0083617D01*
X0197514Y0085215D02*
X0199676Y0085215D01*
X0191275Y0083617D02*
X0158872Y0083617D01*
X0156318Y0083617D02*
X0148872Y0083617D01*
X0146318Y0083617D02*
X0138872Y0083617D01*
X0136318Y0083617D02*
X0128872Y0083617D01*
X0126318Y0083617D02*
X0118872Y0083617D01*
X0116318Y0083617D02*
X0113695Y0083617D01*
X0113695Y0082018D02*
X0264795Y0082018D01*
X0264795Y0080420D02*
X0113695Y0080420D01*
X0113695Y0078821D02*
X0264795Y0078821D01*
X0264795Y0077223D02*
X0113695Y0077223D01*
X0113695Y0075624D02*
X0264795Y0075624D01*
X0264795Y0074026D02*
X0113695Y0074026D01*
X0113695Y0072427D02*
X0264795Y0072427D01*
X0264795Y0070829D02*
X0113695Y0070829D01*
X0112984Y0069230D02*
X0264795Y0069230D01*
X0264795Y0067632D02*
X0111385Y0067632D01*
X0109787Y0066033D02*
X0264795Y0066033D01*
X0264795Y0064435D02*
X0108188Y0064435D01*
X0105819Y0062836D02*
X0264795Y0062836D01*
X0264795Y0061238D02*
X0092491Y0061238D01*
X0091195Y0059639D02*
X0095431Y0059639D01*
X0093076Y0058041D02*
X0092114Y0058041D01*
X0083995Y0059639D02*
X0081195Y0059639D01*
X0081195Y0061238D02*
X0083995Y0061238D01*
X0084280Y0062836D02*
X0081490Y0062836D01*
X0082195Y0064435D02*
X0085506Y0064435D01*
X0087104Y0066033D02*
X0082195Y0066033D01*
X0082195Y0067632D02*
X0088703Y0067632D01*
X0090301Y0069230D02*
X0082687Y0069230D01*
X0083295Y0070829D02*
X0104400Y0070829D01*
X0105998Y0072427D02*
X0083295Y0072427D01*
X0083295Y0074026D02*
X0106495Y0074026D01*
X0106495Y0075624D02*
X0083295Y0075624D01*
X0083295Y0077223D02*
X0106495Y0077223D01*
X0106495Y0078821D02*
X0082601Y0078821D01*
X0082678Y0083617D02*
X0106495Y0083617D01*
X0106495Y0085215D02*
X0084721Y0085215D01*
X0085603Y0086814D02*
X0106495Y0086814D01*
X0106495Y0088412D02*
X0085995Y0088412D01*
X0085995Y0090011D02*
X0106495Y0090011D01*
X0106495Y0091610D02*
X0085373Y0091610D01*
X0084164Y0093208D02*
X0106495Y0093208D01*
X0106495Y0094807D02*
X0084312Y0094807D01*
X0085434Y0096405D02*
X0106495Y0096405D01*
X0106849Y0098004D02*
X0085995Y0098004D01*
X0085995Y0099602D02*
X0108173Y0099602D01*
X0109771Y0101201D02*
X0085542Y0101201D01*
X0084573Y0102799D02*
X0113824Y0102799D01*
X0121366Y0102799D02*
X0124750Y0102799D01*
X0123363Y0101201D02*
X0122501Y0101201D01*
X0127395Y0101201D02*
X0127795Y0101201D01*
X0127795Y0102799D02*
X0127395Y0102799D01*
X0130440Y0102799D02*
X0133824Y0102799D01*
X0132689Y0101201D02*
X0131827Y0101201D01*
X0127795Y0099602D02*
X0127395Y0099602D01*
X0141366Y0102799D02*
X0142695Y0102799D01*
X0142689Y0101201D02*
X0142501Y0101201D01*
X0142695Y0104398D02*
X0083904Y0104398D01*
X0085265Y0105996D02*
X0142695Y0105996D01*
X0142695Y0107595D02*
X0085927Y0107595D01*
X0085995Y0109193D02*
X0142695Y0109193D01*
X0143061Y0110792D02*
X0085711Y0110792D01*
X0084982Y0112390D02*
X0144123Y0112390D01*
X0145721Y0113989D02*
X0083307Y0113989D01*
X0084215Y0115587D02*
X0147320Y0115587D01*
X0148918Y0117186D02*
X0085100Y0117186D01*
X0080295Y0118784D02*
X0150517Y0118784D01*
X0152495Y0102799D02*
X0153824Y0102799D01*
X0152689Y0101201D02*
X0152501Y0101201D01*
X0152562Y0086814D02*
X0152628Y0086814D01*
X0153676Y0085215D02*
X0151514Y0085215D01*
X0161514Y0085215D02*
X0189676Y0085215D01*
X0184623Y0086814D02*
X0162562Y0086814D01*
X0143676Y0085215D02*
X0141514Y0085215D01*
X0142562Y0086814D02*
X0142628Y0086814D01*
X0133676Y0085215D02*
X0131514Y0085215D01*
X0132562Y0086814D02*
X0132628Y0086814D01*
X0123676Y0085215D02*
X0121514Y0085215D01*
X0122562Y0086814D02*
X0122628Y0086814D01*
X0106495Y0082018D02*
X0076195Y0082018D01*
X0076195Y0080420D02*
X0106495Y0080420D01*
X0105431Y0059639D02*
X0099759Y0059639D01*
X0102114Y0058041D02*
X0103076Y0058041D01*
X0109759Y0059639D02*
X0115431Y0059639D01*
X0113076Y0058041D02*
X0112114Y0058041D01*
X0119759Y0059639D02*
X0125431Y0059639D01*
X0123076Y0058041D02*
X0122114Y0058041D01*
X0129759Y0059639D02*
X0135431Y0059639D01*
X0133076Y0058041D02*
X0132114Y0058041D01*
X0139759Y0059639D02*
X0151431Y0059639D01*
X0149076Y0058041D02*
X0142114Y0058041D01*
X0143158Y0056442D02*
X0148032Y0056442D01*
X0147495Y0054844D02*
X0143695Y0054844D01*
X0143695Y0053245D02*
X0147495Y0053245D01*
X0147940Y0051647D02*
X0143251Y0051647D01*
X0142337Y0050048D02*
X0148853Y0050048D01*
X0158114Y0058041D02*
X0159076Y0058041D01*
X0161431Y0059639D02*
X0155759Y0059639D01*
X0165759Y0059639D02*
X0171431Y0059639D01*
X0169076Y0058041D02*
X0168114Y0058041D01*
X0175759Y0059639D02*
X0181431Y0059639D01*
X0179076Y0058041D02*
X0178114Y0058041D01*
X0185759Y0059639D02*
X0191431Y0059639D01*
X0189076Y0058041D02*
X0188114Y0058041D01*
X0195759Y0059639D02*
X0201431Y0059639D01*
X0199076Y0058041D02*
X0198114Y0058041D01*
X0205759Y0059639D02*
X0221431Y0059639D01*
X0219076Y0058041D02*
X0217266Y0058041D01*
X0213795Y0058041D02*
X0213395Y0058041D01*
X0213395Y0056442D02*
X0213795Y0056442D01*
X0213795Y0054844D02*
X0213395Y0054844D01*
X0209925Y0058041D02*
X0208114Y0058041D01*
X0225759Y0059639D02*
X0231431Y0059639D01*
X0229076Y0058041D02*
X0228114Y0058041D01*
X0235759Y0059639D02*
X0241431Y0059639D01*
X0239076Y0058041D02*
X0238114Y0058041D01*
X0245759Y0059639D02*
X0264795Y0059639D01*
X0264795Y0058041D02*
X0248114Y0058041D01*
X0249158Y0056442D02*
X0264795Y0056442D01*
X0264795Y0054844D02*
X0249695Y0054844D01*
X0249695Y0053245D02*
X0264795Y0053245D01*
X0264795Y0051647D02*
X0249251Y0051647D01*
X0248337Y0050048D02*
X0263922Y0050048D01*
X0199824Y0102799D02*
X0197366Y0102799D01*
X0195848Y0104398D02*
X0201342Y0104398D01*
X0190903Y0113989D02*
X0186195Y0113989D01*
X0196585Y0123580D02*
X0200605Y0123580D01*
X0206585Y0123580D02*
X0210605Y0123580D01*
X0083076Y0058041D02*
X0082114Y0058041D01*
X0077512Y0083617D02*
X0076195Y0083617D01*
D17*
X0078595Y0073983D02*
X0078595Y0065033D01*
X0077595Y0064033D01*
X0077595Y0053933D01*
X0067595Y0053933D02*
X0067595Y0063933D01*
X0066595Y0064933D01*
X0066595Y0073983D01*
X0072595Y0073983D02*
X0072595Y0093933D01*
X0077595Y0098933D01*
X0080095Y0098933D01*
X0110095Y0096433D02*
X0112595Y0098933D01*
X0117595Y0098933D01*
X0110095Y0096433D02*
X0110095Y0071433D01*
X0105095Y0066433D01*
X0092595Y0066433D01*
X0087595Y0061433D01*
X0087595Y0053933D01*
X0182595Y0093933D02*
X0187595Y0088933D01*
X0193595Y0088933D01*
X0182595Y0093933D02*
X0182595Y0098887D01*
X0182595Y0105580D02*
X0182595Y0118933D01*
X0243595Y0118933D02*
X0250795Y0118933D01*
X0254795Y0114933D01*
X0254795Y0110580D01*
X0254795Y0103887D02*
X0254795Y0101133D01*
X0252595Y0098933D01*
X0243595Y0098933D01*
D18*
X0243595Y0118933D02*
X0233595Y0118933D01*
X0223595Y0118933D01*
X0213595Y0118933D01*
X0203595Y0118933D01*
X0193595Y0118933D01*
D19*
X0182595Y0118933D01*
X0157595Y0118933D01*
X0147595Y0108933D01*
X0147595Y0099380D01*
X0147819Y0099157D01*
X0223595Y0118933D02*
X0223595Y0204333D01*
X0222195Y0204333D01*
X0197595Y0228933D01*
X0197595Y0243933D01*
D20*
X0167595Y0243933D02*
X0167595Y0221433D01*
X0155095Y0208933D01*
X0117595Y0208933D01*
X0107595Y0208933D01*
X0097595Y0208933D01*
X0087595Y0208933D01*
X0077595Y0208933D01*
X0067595Y0198933D01*
X0067595Y0113933D01*
X0072595Y0108933D01*
X0080095Y0108933D01*
M02*
