G75*
%MOIN*%
%OFA0B0*%
%FSLAX25Y25*%
%IPPOS*%
%LPD*%
%AMOC8*
5,1,8,0,0,1.08239X$1,22.5*
%
%ADD10C,0.05200*%
%ADD11OC8,0.07000*%
%ADD12C,0.07000*%
%ADD13C,0.06600*%
%ADD14R,0.03937X0.04331*%
%ADD15R,0.04331X0.03937*%
%ADD16OC8,0.06000*%
%ADD17C,0.05150*%
%ADD18C,0.10630*%
%ADD19OC8,0.06600*%
%ADD20R,0.05150X0.05150*%
%ADD21C,0.05150*%
%ADD22C,0.06000*%
%ADD23C,0.04000*%
%ADD24R,0.04750X0.04750*%
%ADD25C,0.02400*%
%ADD26C,0.01200*%
%ADD27C,0.15748*%
%ADD28C,0.08600*%
%ADD29C,0.07600*%
%ADD30C,0.01600*%
%ADD31C,0.07000*%
D10*
X0086581Y0165246D02*
X0086581Y0170446D01*
X0096581Y0170446D02*
X0096581Y0165246D01*
X0106581Y0165246D02*
X0106581Y0170446D01*
X0116581Y0170446D02*
X0116581Y0165246D01*
X0126581Y0165246D02*
X0126581Y0170446D01*
X0136581Y0170446D02*
X0136581Y0165246D01*
X0146581Y0165246D02*
X0146581Y0170446D01*
X0156581Y0170446D02*
X0156581Y0165246D01*
X0166581Y0165246D02*
X0166581Y0170446D01*
X0176581Y0170446D02*
X0176581Y0165246D01*
X0186581Y0165246D02*
X0186581Y0170446D01*
X0196581Y0170446D02*
X0196581Y0165246D01*
X0281334Y0133103D02*
X0286534Y0133103D01*
X0286534Y0123103D02*
X0281334Y0123103D01*
X0281334Y0113103D02*
X0286534Y0113103D01*
X0286534Y0103103D02*
X0281334Y0103103D01*
X0281334Y0093103D02*
X0286534Y0093103D01*
X0286534Y0083103D02*
X0281334Y0083103D01*
X0281334Y0073103D02*
X0286534Y0073103D01*
X0286534Y0063103D02*
X0281334Y0063103D01*
X0281334Y0053103D02*
X0286534Y0053103D01*
X0286534Y0043103D02*
X0281334Y0043103D01*
X0281334Y0033103D02*
X0286534Y0033103D01*
X0286534Y0023103D02*
X0281334Y0023103D01*
X0318814Y0022906D02*
X0324014Y0022906D01*
X0331531Y0023103D02*
X0336731Y0023103D01*
X0336731Y0013103D02*
X0331531Y0013103D01*
X0331531Y0033103D02*
X0336731Y0033103D01*
X0336731Y0043103D02*
X0331531Y0043103D01*
X0324014Y0042906D02*
X0318814Y0042906D01*
X0318814Y0032906D02*
X0324014Y0032906D01*
X0324014Y0052906D02*
X0318814Y0052906D01*
X0318814Y0062906D02*
X0324014Y0062906D01*
X0331531Y0063103D02*
X0336731Y0063103D01*
X0336731Y0073103D02*
X0331531Y0073103D01*
X0324014Y0072906D02*
X0318814Y0072906D01*
X0318814Y0082906D02*
X0324014Y0082906D01*
X0331531Y0083103D02*
X0336731Y0083103D01*
X0361531Y0083103D02*
X0366731Y0083103D01*
X0366731Y0073103D02*
X0361531Y0073103D01*
X0361531Y0063103D02*
X0366731Y0063103D01*
X0366731Y0053103D02*
X0361531Y0053103D01*
X0361531Y0043103D02*
X0366731Y0043103D01*
X0366731Y0033103D02*
X0361531Y0033103D01*
X0361531Y0023103D02*
X0366731Y0023103D01*
X0366731Y0013103D02*
X0361531Y0013103D01*
X0336731Y0053103D02*
X0331531Y0053103D01*
X0329523Y0105111D02*
X0334723Y0105111D01*
X0334723Y0115111D02*
X0329523Y0115111D01*
X0329523Y0125111D02*
X0334723Y0125111D01*
X0334723Y0135111D02*
X0329523Y0135111D01*
X0329523Y0145111D02*
X0334723Y0145111D01*
X0334723Y0155111D02*
X0329523Y0155111D01*
D11*
X0056060Y0160072D03*
X0046060Y0160072D03*
X0036060Y0160072D03*
X0036060Y0150072D03*
X0046060Y0150072D03*
X0056060Y0150072D03*
X0056060Y0140072D03*
X0046060Y0140072D03*
X0036060Y0140072D03*
X0036060Y0130072D03*
X0046060Y0130072D03*
X0056060Y0130072D03*
X0056060Y0120072D03*
X0046060Y0120072D03*
X0036060Y0120072D03*
X0036060Y0110072D03*
X0046060Y0110072D03*
X0056060Y0110072D03*
X0056060Y0100072D03*
X0046060Y0100072D03*
X0036060Y0100072D03*
X0036060Y0170072D03*
X0046060Y0170072D03*
X0056060Y0170072D03*
D12*
X0078146Y0269284D03*
X0088146Y0269284D03*
X0098146Y0269284D03*
X0108146Y0269284D03*
X0118146Y0269284D03*
X0128146Y0269284D03*
X0138146Y0269284D03*
X0148146Y0269284D03*
X0158146Y0269284D03*
X0168146Y0269284D03*
X0178146Y0269284D03*
X0188146Y0269284D03*
X0188146Y0279284D03*
X0178146Y0279284D03*
X0168146Y0279284D03*
X0158146Y0279284D03*
X0148146Y0279284D03*
X0138146Y0279284D03*
X0128146Y0279284D03*
X0118146Y0279284D03*
X0108146Y0279284D03*
X0098146Y0279284D03*
X0088146Y0279284D03*
X0078146Y0279284D03*
X0078146Y0289284D03*
X0088146Y0289284D03*
X0098146Y0289284D03*
X0108146Y0289284D03*
X0118146Y0289284D03*
X0128146Y0289284D03*
X0138146Y0289284D03*
X0148146Y0289284D03*
X0158146Y0289284D03*
X0168146Y0289284D03*
X0178146Y0289284D03*
X0188146Y0289284D03*
D13*
X0064091Y0289402D03*
X0064091Y0279402D03*
X0064091Y0269402D03*
X0036217Y0269324D03*
X0036217Y0279324D03*
X0036217Y0289324D03*
X0046138Y0086056D03*
X0046138Y0076056D03*
X0079209Y0076307D03*
X0079209Y0086307D03*
D14*
X0315509Y0187198D03*
X0322201Y0187198D03*
D15*
X0321729Y0197198D03*
X0315036Y0197198D03*
X0376429Y0189599D03*
X0376429Y0182906D03*
X0385902Y0252316D03*
X0392595Y0252316D03*
X0373501Y0280465D03*
X0373501Y0287158D03*
X0299682Y0299166D03*
X0299682Y0305859D03*
X0237083Y0297591D03*
X0230390Y0297591D03*
D16*
X0379327Y0159717D03*
X0389327Y0159717D03*
X0389327Y0147906D03*
X0379327Y0147906D03*
X0379327Y0136095D03*
X0389327Y0136095D03*
X0389327Y0124284D03*
X0379327Y0124284D03*
X0379327Y0112473D03*
X0389327Y0112473D03*
X0389327Y0100662D03*
X0379327Y0100662D03*
X0379131Y0082828D03*
X0389131Y0082828D03*
X0389131Y0072828D03*
X0379131Y0072828D03*
X0379131Y0062828D03*
X0389131Y0062828D03*
X0389131Y0052828D03*
X0379131Y0052828D03*
X0379131Y0042828D03*
X0389131Y0042828D03*
X0389131Y0032828D03*
X0379131Y0032828D03*
X0379131Y0022828D03*
X0389131Y0022828D03*
X0066020Y0022749D03*
X0055981Y0022552D03*
X0046138Y0022552D03*
X0035902Y0022552D03*
X0035902Y0032552D03*
X0046138Y0032552D03*
X0055981Y0032552D03*
X0066020Y0032749D03*
X0066020Y0042749D03*
X0055981Y0042552D03*
X0046138Y0042552D03*
X0035902Y0042552D03*
X0035902Y0052552D03*
X0035902Y0062552D03*
X0046138Y0062552D03*
X0055981Y0062552D03*
X0055981Y0052552D03*
X0046138Y0052552D03*
X0066020Y0052749D03*
X0066020Y0062749D03*
X0066020Y0012749D03*
X0055981Y0012552D03*
X0046138Y0012552D03*
X0035902Y0012552D03*
D17*
X0066611Y0185646D02*
X0066611Y0190796D01*
X0076611Y0190796D02*
X0076611Y0185646D01*
X0086611Y0185646D02*
X0086611Y0190796D01*
X0096611Y0190796D02*
X0096611Y0185646D01*
X0106611Y0185646D02*
X0106611Y0190796D01*
X0116611Y0190796D02*
X0116611Y0185646D01*
X0126611Y0185646D02*
X0126611Y0190796D01*
X0136611Y0190796D02*
X0136611Y0185646D01*
X0146611Y0185646D02*
X0146611Y0190796D01*
X0156611Y0190796D02*
X0156611Y0185646D01*
X0166611Y0185646D02*
X0166611Y0190796D01*
X0176611Y0190796D02*
X0176611Y0185646D01*
X0186611Y0185646D02*
X0186611Y0190796D01*
X0196611Y0190796D02*
X0196611Y0185646D01*
X0206611Y0185646D02*
X0206611Y0190796D01*
X0206611Y0245646D02*
X0206611Y0250796D01*
X0196611Y0250796D02*
X0196611Y0245646D01*
X0186611Y0245646D02*
X0186611Y0250796D01*
X0176611Y0250796D02*
X0176611Y0245646D01*
X0166611Y0245646D02*
X0166611Y0250796D01*
X0156611Y0250796D02*
X0156611Y0245646D01*
X0146611Y0245646D02*
X0146611Y0250796D01*
X0136611Y0250796D02*
X0136611Y0245646D01*
X0126611Y0245646D02*
X0126611Y0250796D01*
X0116611Y0250796D02*
X0116611Y0245646D01*
X0106611Y0245646D02*
X0106611Y0250796D01*
X0096611Y0250796D02*
X0096611Y0245646D01*
X0086611Y0245646D02*
X0086611Y0250796D01*
X0076611Y0250796D02*
X0076611Y0245646D01*
X0066611Y0245646D02*
X0066611Y0250796D01*
D18*
X0367949Y0236883D02*
X0378579Y0236883D01*
X0378579Y0267985D02*
X0367949Y0267985D01*
D19*
X0363501Y0296607D03*
X0373501Y0306607D03*
X0383501Y0296607D03*
X0376453Y0208182D03*
X0366453Y0198182D03*
X0386453Y0198182D03*
D20*
X0241070Y0245249D03*
X0241070Y0275249D03*
D21*
X0241070Y0265249D03*
X0231070Y0265249D03*
X0231070Y0275249D03*
X0231070Y0255249D03*
X0241070Y0255249D03*
X0231070Y0245249D03*
D22*
X0275776Y0285623D02*
X0281776Y0285623D01*
X0281776Y0295623D02*
X0275776Y0295623D01*
X0275776Y0305623D02*
X0281776Y0305623D01*
X0338257Y0207198D02*
X0344257Y0207198D01*
X0344257Y0197198D02*
X0338257Y0197198D01*
X0338257Y0187198D02*
X0344257Y0187198D01*
D23*
X0035902Y0016552D02*
X0035902Y0012552D01*
X0035902Y0012552D01*
X0035902Y0022552D01*
X0035902Y0032552D01*
X0035902Y0038552D01*
X0035902Y0042552D01*
X0035902Y0048552D01*
X0035902Y0052552D01*
X0035902Y0058552D01*
X0035902Y0062552D01*
X0035902Y0068552D01*
X0033417Y0068552D01*
X0032060Y0067195D01*
X0032060Y0094879D01*
X0033367Y0093572D01*
X0036060Y0093572D01*
X0038752Y0093572D01*
X0040070Y0094889D01*
X0042200Y0092759D01*
X0041777Y0092584D01*
X0039611Y0090418D01*
X0038438Y0087588D01*
X0038438Y0084524D01*
X0039611Y0081694D01*
X0040249Y0081056D01*
X0039611Y0080418D01*
X0038438Y0077588D01*
X0038438Y0074524D01*
X0039611Y0071694D01*
X0041777Y0069528D01*
X0042394Y0069273D01*
X0040030Y0066909D01*
X0038388Y0068552D01*
X0035902Y0068552D01*
X0035902Y0062552D01*
X0035902Y0062552D01*
X0035902Y0062552D01*
X0035902Y0052552D01*
X0035902Y0052552D01*
X0035902Y0052552D01*
X0035902Y0042552D01*
X0035902Y0042552D01*
X0035902Y0042552D01*
X0035902Y0032552D01*
X0035902Y0032552D01*
X0035902Y0032552D01*
X0035902Y0026552D01*
X0035902Y0022552D01*
X0035902Y0022552D01*
X0035902Y0022552D01*
X0035902Y0016552D01*
X0035902Y0015296D02*
X0035902Y0015296D01*
X0035902Y0019294D02*
X0035902Y0019294D01*
X0035902Y0023293D02*
X0035902Y0023293D01*
X0035902Y0027291D02*
X0035902Y0027291D01*
X0035902Y0031290D02*
X0035902Y0031290D01*
X0035902Y0035288D02*
X0035902Y0035288D01*
X0035902Y0039287D02*
X0035902Y0039287D01*
X0035902Y0043285D02*
X0035902Y0043285D01*
X0035902Y0047284D02*
X0035902Y0047284D01*
X0035902Y0051282D02*
X0035902Y0051282D01*
X0035902Y0055281D02*
X0035902Y0055281D01*
X0035902Y0059279D02*
X0035902Y0059279D01*
X0035902Y0063278D02*
X0035902Y0063278D01*
X0035902Y0067276D02*
X0035902Y0067276D01*
X0032141Y0067276D02*
X0032060Y0067276D01*
X0032060Y0071275D02*
X0040030Y0071275D01*
X0039663Y0067276D02*
X0040398Y0067276D01*
X0038438Y0075273D02*
X0032060Y0075273D01*
X0032060Y0079272D02*
X0039136Y0079272D01*
X0038958Y0083270D02*
X0032060Y0083270D01*
X0032060Y0087269D02*
X0038438Y0087269D01*
X0040460Y0091267D02*
X0032060Y0091267D01*
X0036060Y0093572D02*
X0036060Y0100072D01*
X0036060Y0100072D01*
X0036060Y0110072D01*
X0036060Y0110072D01*
X0036060Y0120072D01*
X0036060Y0120072D01*
X0036060Y0130072D01*
X0036060Y0130072D01*
X0036060Y0140072D01*
X0036060Y0140072D01*
X0036060Y0150072D01*
X0036060Y0150072D01*
X0036060Y0160072D01*
X0036060Y0160072D01*
X0036060Y0170072D01*
X0036060Y0170072D01*
X0036060Y0176572D01*
X0038752Y0176572D01*
X0040070Y0175254D01*
X0042787Y0177972D01*
X0049332Y0177972D01*
X0051060Y0176244D01*
X0052787Y0177972D01*
X0059332Y0177972D01*
X0062032Y0175272D01*
X0065132Y0175272D01*
X0065345Y0175360D01*
X0068134Y0175360D01*
X0070045Y0174568D01*
X0071411Y0173203D01*
X0071411Y0180583D01*
X0070562Y0179734D01*
X0067998Y0178672D01*
X0065223Y0178672D01*
X0062660Y0179734D01*
X0060698Y0181696D01*
X0059636Y0184259D01*
X0059636Y0192183D01*
X0060698Y0194747D01*
X0062660Y0196709D01*
X0065223Y0197771D01*
X0067998Y0197771D01*
X0070562Y0196709D01*
X0071611Y0195660D01*
X0072068Y0196117D01*
X0072203Y0196442D01*
X0073665Y0197905D01*
X0073665Y0197905D01*
X0082287Y0206527D01*
X0084199Y0207319D01*
X0192213Y0207319D01*
X0225674Y0240780D01*
X0225157Y0241298D01*
X0224095Y0243861D01*
X0224095Y0246636D01*
X0225157Y0249200D01*
X0226206Y0250249D01*
X0225157Y0251298D01*
X0224095Y0253861D01*
X0224095Y0256636D01*
X0225157Y0259200D01*
X0226206Y0260249D01*
X0225157Y0261298D01*
X0224095Y0263861D01*
X0224095Y0266636D01*
X0225157Y0269200D01*
X0226206Y0270249D01*
X0225157Y0271298D01*
X0224095Y0273861D01*
X0224095Y0276636D01*
X0225157Y0279200D01*
X0227119Y0281162D01*
X0229682Y0282224D01*
X0232457Y0282224D01*
X0235020Y0281162D01*
X0236305Y0279877D01*
X0236582Y0280154D01*
X0237074Y0280482D01*
X0237620Y0280708D01*
X0238199Y0280824D01*
X0241069Y0280824D01*
X0241069Y0275249D01*
X0241070Y0275249D01*
X0246644Y0275249D01*
X0246644Y0278119D01*
X0246529Y0278699D01*
X0246303Y0279245D01*
X0245975Y0279736D01*
X0245557Y0280154D01*
X0245065Y0280482D01*
X0244519Y0280708D01*
X0243940Y0280824D01*
X0241070Y0280824D01*
X0241070Y0275249D01*
X0241070Y0275249D01*
X0246644Y0275249D01*
X0246644Y0272379D01*
X0246529Y0271799D01*
X0246303Y0271253D01*
X0245975Y0270762D01*
X0245698Y0270485D01*
X0246982Y0269200D01*
X0248044Y0266636D01*
X0248044Y0263861D01*
X0246982Y0261298D01*
X0245933Y0260249D01*
X0246982Y0259200D01*
X0248044Y0256636D01*
X0248044Y0253861D01*
X0246982Y0251298D01*
X0246688Y0251003D01*
X0247374Y0250316D01*
X0248044Y0248699D01*
X0248044Y0241799D01*
X0247374Y0240182D01*
X0246137Y0238944D01*
X0244520Y0238274D01*
X0237620Y0238274D01*
X0236270Y0238833D01*
X0236270Y0237787D01*
X0235478Y0235876D01*
X0234015Y0234413D01*
X0234015Y0234413D01*
X0198775Y0199173D01*
X0198775Y0199173D01*
X0197312Y0197711D01*
X0195401Y0196919D01*
X0190055Y0196919D01*
X0190562Y0196709D01*
X0192524Y0194747D01*
X0192569Y0194638D01*
X0192979Y0195048D01*
X0193689Y0195564D01*
X0194471Y0195962D01*
X0195305Y0196234D01*
X0196172Y0196371D01*
X0196611Y0196371D01*
X0196611Y0188221D01*
X0196611Y0180072D01*
X0197050Y0180072D01*
X0197916Y0180209D01*
X0198751Y0180480D01*
X0199533Y0180878D01*
X0200243Y0181394D01*
X0200653Y0181804D01*
X0200698Y0181696D01*
X0201011Y0181383D01*
X0201011Y0176871D01*
X0200528Y0176388D01*
X0197973Y0177446D01*
X0195188Y0177446D01*
X0192615Y0176380D01*
X0190646Y0174411D01*
X0190614Y0174332D01*
X0190229Y0174717D01*
X0189516Y0175236D01*
X0188730Y0175636D01*
X0187892Y0175908D01*
X0187021Y0176046D01*
X0186581Y0176046D01*
X0186581Y0167846D01*
X0186581Y0167846D01*
X0186581Y0159646D01*
X0187021Y0159646D01*
X0187892Y0159784D01*
X0188730Y0160056D01*
X0189516Y0160456D01*
X0190229Y0160975D01*
X0190614Y0161360D01*
X0190646Y0161281D01*
X0192615Y0159312D01*
X0195188Y0158246D01*
X0197973Y0158246D01*
X0200546Y0159312D01*
X0202515Y0161281D01*
X0203581Y0163854D01*
X0203581Y0164768D01*
X0205572Y0165593D01*
X0207147Y0167168D01*
X0211358Y0171379D01*
X0212211Y0173437D01*
X0212211Y0181383D01*
X0212524Y0181696D01*
X0212907Y0182621D01*
X0238670Y0182621D01*
X0240728Y0183474D01*
X0276133Y0218878D01*
X0302304Y0218878D01*
X0302809Y0218373D01*
X0304426Y0217704D01*
X0310926Y0217704D01*
X0312543Y0218373D01*
X0313781Y0219611D01*
X0314451Y0221228D01*
X0314451Y0227728D01*
X0313781Y0229346D01*
X0312543Y0230583D01*
X0310926Y0231253D01*
X0304426Y0231253D01*
X0302809Y0230583D01*
X0302304Y0230078D01*
X0272699Y0230078D01*
X0270641Y0229226D01*
X0269065Y0227651D01*
X0235236Y0193821D01*
X0212907Y0193821D01*
X0212524Y0194747D01*
X0210562Y0196709D01*
X0207998Y0197771D01*
X0205223Y0197771D01*
X0202660Y0196709D01*
X0200698Y0194747D01*
X0200653Y0194638D01*
X0200243Y0195048D01*
X0199533Y0195564D01*
X0198751Y0195962D01*
X0197916Y0196234D01*
X0197050Y0196371D01*
X0196611Y0196371D01*
X0196611Y0188221D01*
X0196611Y0188221D01*
X0196611Y0180072D01*
X0196172Y0180072D01*
X0195305Y0180209D01*
X0194471Y0180480D01*
X0193689Y0180878D01*
X0192979Y0181394D01*
X0192569Y0181804D01*
X0192524Y0181696D01*
X0190562Y0179734D01*
X0187998Y0178672D01*
X0185223Y0178672D01*
X0182660Y0179734D01*
X0182230Y0180163D01*
X0182243Y0174683D01*
X0182515Y0174411D01*
X0182548Y0174332D01*
X0182932Y0174717D01*
X0183646Y0175236D01*
X0182242Y0175236D01*
X0183646Y0175236D02*
X0184431Y0175636D01*
X0185269Y0175908D01*
X0186140Y0176046D01*
X0186581Y0176046D01*
X0186581Y0167846D01*
X0186581Y0167846D01*
X0186581Y0159646D01*
X0186140Y0159646D01*
X0185269Y0159784D01*
X0184431Y0160056D01*
X0183646Y0160456D01*
X0182932Y0160975D01*
X0182548Y0161359D01*
X0182515Y0161281D01*
X0180546Y0159312D01*
X0177973Y0158246D01*
X0175188Y0158246D01*
X0172615Y0159312D01*
X0171883Y0160045D01*
X0171925Y0156808D01*
X0171938Y0156775D01*
X0171938Y0155775D01*
X0171951Y0154774D01*
X0171938Y0154742D01*
X0171938Y0154707D01*
X0171555Y0153782D01*
X0171184Y0152853D01*
X0171160Y0152828D01*
X0171146Y0152795D01*
X0170439Y0152088D01*
X0169741Y0151371D01*
X0169709Y0151357D01*
X0114014Y0095663D01*
X0112103Y0094872D01*
X0062032Y0094872D01*
X0059332Y0092172D01*
X0052787Y0092172D01*
X0051060Y0093899D01*
X0049965Y0092805D01*
X0050500Y0092584D01*
X0052666Y0090418D01*
X0053838Y0087588D01*
X0053838Y0084524D01*
X0052666Y0081694D01*
X0052028Y0081056D01*
X0052666Y0080418D01*
X0052814Y0080061D01*
X0062006Y0089253D01*
X0063468Y0090716D01*
X0065380Y0091507D01*
X0073520Y0091507D01*
X0074848Y0092835D01*
X0077678Y0094007D01*
X0080741Y0094007D01*
X0083571Y0092835D01*
X0085737Y0090669D01*
X0086909Y0087839D01*
X0086909Y0084776D01*
X0085737Y0081946D01*
X0085099Y0081307D01*
X0085737Y0080669D01*
X0086909Y0077839D01*
X0086909Y0074776D01*
X0085737Y0071946D01*
X0083571Y0069780D01*
X0080741Y0068607D01*
X0077678Y0068607D01*
X0074848Y0069780D01*
X0073520Y0071107D01*
X0072387Y0071107D01*
X0071220Y0069941D01*
X0071220Y0068014D01*
X0073420Y0065814D01*
X0073420Y0059684D01*
X0071485Y0057749D01*
X0073420Y0055814D01*
X0073420Y0049684D01*
X0071485Y0047749D01*
X0073420Y0045814D01*
X0073420Y0039684D01*
X0071485Y0037749D01*
X0073420Y0035814D01*
X0073420Y0029684D01*
X0071485Y0027749D01*
X0073420Y0025814D01*
X0073420Y0019684D01*
X0071485Y0017749D01*
X0073420Y0015814D01*
X0073420Y0009684D01*
X0073037Y0009300D01*
X0327414Y0009300D01*
X0327259Y0009455D01*
X0326741Y0010168D01*
X0326341Y0010953D01*
X0326068Y0011792D01*
X0325931Y0012662D01*
X0325931Y0013103D01*
X0334130Y0013103D01*
X0334130Y0013103D01*
X0325931Y0013103D01*
X0325931Y0013544D01*
X0326068Y0014414D01*
X0326341Y0015253D01*
X0326741Y0016038D01*
X0327179Y0016640D01*
X0325406Y0015906D01*
X0317422Y0015906D01*
X0314849Y0016972D01*
X0312880Y0018941D01*
X0311814Y0021514D01*
X0311814Y0024299D01*
X0312880Y0026871D01*
X0313915Y0027906D01*
X0312880Y0028941D01*
X0311814Y0031514D01*
X0311814Y0034299D01*
X0312880Y0036871D01*
X0313915Y0037906D01*
X0312880Y0038941D01*
X0311814Y0041514D01*
X0311814Y0044299D01*
X0312880Y0046871D01*
X0313915Y0047906D01*
X0312880Y0048941D01*
X0311814Y0051514D01*
X0311814Y0054299D01*
X0312880Y0056871D01*
X0313915Y0057906D01*
X0312880Y0058941D01*
X0311814Y0061514D01*
X0311814Y0064299D01*
X0312880Y0066871D01*
X0313915Y0067906D01*
X0312880Y0068941D01*
X0311814Y0071514D01*
X0311814Y0074299D01*
X0312880Y0076871D01*
X0313915Y0077906D01*
X0312880Y0078941D01*
X0311814Y0081514D01*
X0311814Y0084299D01*
X0312880Y0086871D01*
X0314849Y0088841D01*
X0317422Y0089906D01*
X0325406Y0089906D01*
X0327547Y0089019D01*
X0327565Y0089037D01*
X0330138Y0090103D01*
X0338123Y0090103D01*
X0340696Y0089037D01*
X0342665Y0087068D01*
X0343731Y0084496D01*
X0343731Y0081711D01*
X0342665Y0079138D01*
X0341630Y0078103D01*
X0342665Y0077068D01*
X0343731Y0074496D01*
X0343731Y0071711D01*
X0342665Y0069138D01*
X0341630Y0068103D01*
X0342665Y0067068D01*
X0343731Y0064496D01*
X0343731Y0061711D01*
X0342665Y0059138D01*
X0341630Y0058103D01*
X0342665Y0057068D01*
X0343731Y0054496D01*
X0343731Y0051711D01*
X0342665Y0049138D01*
X0341630Y0048103D01*
X0342665Y0047068D01*
X0343731Y0044496D01*
X0343731Y0041711D01*
X0342665Y0039138D01*
X0341630Y0038103D01*
X0342665Y0037068D01*
X0343731Y0034496D01*
X0343731Y0031711D01*
X0342665Y0029138D01*
X0341630Y0028103D01*
X0342665Y0027068D01*
X0343731Y0024496D01*
X0343731Y0021711D01*
X0342665Y0019138D01*
X0340696Y0017169D01*
X0340617Y0017136D01*
X0341002Y0016751D01*
X0341520Y0016038D01*
X0341920Y0015253D01*
X0342193Y0014414D01*
X0342331Y0013544D01*
X0342331Y0013103D01*
X0334131Y0013103D01*
X0334131Y0013103D01*
X0342331Y0013103D01*
X0342331Y0012662D01*
X0342193Y0011792D01*
X0341920Y0010953D01*
X0341520Y0010168D01*
X0341002Y0009455D01*
X0340847Y0009300D01*
X0355529Y0009300D01*
X0354531Y0011711D01*
X0354531Y0014496D01*
X0355596Y0017068D01*
X0356631Y0018103D01*
X0355596Y0019138D01*
X0354531Y0021711D01*
X0354531Y0024496D01*
X0355596Y0027068D01*
X0356631Y0028103D01*
X0355596Y0029138D01*
X0354531Y0031711D01*
X0354531Y0034496D01*
X0355596Y0037068D01*
X0356631Y0038103D01*
X0355596Y0039138D01*
X0354531Y0041711D01*
X0354531Y0044496D01*
X0355596Y0047068D01*
X0356631Y0048103D01*
X0355596Y0049138D01*
X0354531Y0051711D01*
X0354531Y0054496D01*
X0355596Y0057068D01*
X0356631Y0058103D01*
X0355596Y0059138D01*
X0354531Y0061711D01*
X0354531Y0064496D01*
X0355596Y0067068D01*
X0356631Y0068103D01*
X0355596Y0069138D01*
X0354531Y0071711D01*
X0354531Y0074496D01*
X0355596Y0077068D01*
X0356631Y0078103D01*
X0355596Y0079138D01*
X0354531Y0081711D01*
X0354531Y0084496D01*
X0355596Y0087068D01*
X0357565Y0089037D01*
X0360138Y0090103D01*
X0368123Y0090103D01*
X0370696Y0089037D01*
X0372665Y0087068D01*
X0372736Y0086898D01*
X0376065Y0090228D01*
X0382196Y0090228D01*
X0384131Y0088293D01*
X0386065Y0090228D01*
X0392196Y0090228D01*
X0396531Y0085893D01*
X0396531Y0079762D01*
X0394596Y0077828D01*
X0396531Y0075893D01*
X0396531Y0069762D01*
X0394596Y0067828D01*
X0396531Y0065893D01*
X0396531Y0059762D01*
X0394596Y0057828D01*
X0396531Y0055893D01*
X0396531Y0049762D01*
X0394596Y0047828D01*
X0396531Y0045893D01*
X0396531Y0039762D01*
X0394596Y0037828D01*
X0396531Y0035893D01*
X0396531Y0029762D01*
X0394596Y0027828D01*
X0396531Y0025893D01*
X0396531Y0019762D01*
X0392196Y0015428D01*
X0386065Y0015428D01*
X0384131Y0017362D01*
X0382196Y0015428D01*
X0376065Y0015428D01*
X0372510Y0018983D01*
X0371630Y0018103D01*
X0372665Y0017068D01*
X0373731Y0014496D01*
X0373731Y0011711D01*
X0372732Y0009300D01*
X0396534Y0009300D01*
X0396488Y0009379D01*
X0395650Y0012508D01*
X0395650Y0015746D01*
X0396488Y0018874D01*
X0398108Y0021679D01*
X0400398Y0023969D01*
X0403202Y0025588D01*
X0406330Y0026426D01*
X0409569Y0026426D01*
X0412697Y0025588D01*
X0413760Y0024974D01*
X0413760Y0090103D01*
X0412376Y0089303D01*
X0409254Y0088467D01*
X0406022Y0088467D01*
X0402900Y0089303D01*
X0400102Y0090919D01*
X0398980Y0092041D01*
X0391248Y0092041D01*
X0391058Y0091962D01*
X0387597Y0091962D01*
X0384399Y0093287D01*
X0383408Y0094278D01*
X0382393Y0093262D01*
X0376262Y0093262D01*
X0371927Y0097597D01*
X0371927Y0103727D01*
X0374768Y0106568D01*
X0371927Y0109408D01*
X0371927Y0115538D01*
X0374768Y0118379D01*
X0371927Y0121219D01*
X0371927Y0127349D01*
X0374768Y0130190D01*
X0371927Y0133030D01*
X0371927Y0139160D01*
X0374768Y0142001D01*
X0371927Y0144841D01*
X0371927Y0150971D01*
X0374768Y0153812D01*
X0371927Y0156652D01*
X0371927Y0162782D01*
X0376262Y0167117D01*
X0382393Y0167117D01*
X0383408Y0166102D01*
X0384399Y0167093D01*
X0387597Y0168417D01*
X0395364Y0168417D01*
X0395364Y0219673D01*
X0390428Y0224609D01*
X0372587Y0224609D01*
X0370982Y0223004D01*
X0370482Y0221797D01*
X0368035Y0219350D01*
X0364837Y0218025D01*
X0357419Y0218025D01*
X0350604Y0211210D01*
X0351657Y0208670D01*
X0351657Y0205726D01*
X0350530Y0203006D01*
X0349722Y0202198D01*
X0350530Y0201389D01*
X0351657Y0198670D01*
X0351657Y0195726D01*
X0350530Y0193006D01*
X0349722Y0192198D01*
X0353398Y0192198D01*
X0358753Y0197553D01*
X0358753Y0201371D01*
X0363264Y0205882D01*
X0368753Y0205882D01*
X0368753Y0211371D01*
X0373264Y0215882D01*
X0379643Y0215882D01*
X0384153Y0211371D01*
X0384153Y0205882D01*
X0389643Y0205882D01*
X0394153Y0201371D01*
X0394153Y0194992D01*
X0389643Y0190482D01*
X0383264Y0190482D01*
X0382994Y0190752D01*
X0382994Y0186755D01*
X0382324Y0185138D01*
X0381594Y0184408D01*
X0381594Y0182906D01*
X0376429Y0182906D01*
X0376429Y0177938D01*
X0378890Y0177938D01*
X0379469Y0178053D01*
X0380015Y0178279D01*
X0380507Y0178608D01*
X0380925Y0179025D01*
X0381253Y0179517D01*
X0381479Y0180063D01*
X0381594Y0180642D01*
X0381594Y0182906D01*
X0376429Y0182906D01*
X0376429Y0182906D01*
X0376429Y0177938D01*
X0373968Y0177938D01*
X0373389Y0178053D01*
X0372843Y0178279D01*
X0372351Y0178608D01*
X0371933Y0179025D01*
X0371605Y0179517D01*
X0371379Y0180063D01*
X0371264Y0180642D01*
X0371264Y0182906D01*
X0376429Y0182906D01*
X0376429Y0182906D01*
X0376429Y0182906D01*
X0371264Y0182906D01*
X0371264Y0184408D01*
X0370534Y0185138D01*
X0369864Y0186755D01*
X0369864Y0190703D01*
X0369643Y0190482D01*
X0365824Y0190482D01*
X0358301Y0182959D01*
X0356464Y0182198D01*
X0349722Y0182198D01*
X0348448Y0180924D01*
X0345729Y0179798D01*
X0336785Y0179798D01*
X0334065Y0180924D01*
X0332791Y0182198D01*
X0327558Y0182198D01*
X0326662Y0181302D01*
X0325045Y0180632D01*
X0319358Y0180632D01*
X0318855Y0180841D01*
X0318352Y0180632D01*
X0312665Y0180632D01*
X0311048Y0181302D01*
X0309810Y0182540D01*
X0309140Y0184157D01*
X0309140Y0190238D01*
X0309810Y0191855D01*
X0310563Y0192609D01*
X0310764Y0193093D01*
X0310540Y0193317D01*
X0310212Y0193808D01*
X0309986Y0194354D01*
X0309871Y0194934D01*
X0309871Y0197198D01*
X0314264Y0197198D01*
X0314264Y0197198D01*
X0309871Y0197198D01*
X0309871Y0199462D01*
X0309986Y0200041D01*
X0310212Y0200587D01*
X0310540Y0201079D01*
X0310958Y0201496D01*
X0311450Y0201825D01*
X0311996Y0202051D01*
X0312575Y0202166D01*
X0315036Y0202166D01*
X0315036Y0197694D01*
X0315036Y0197694D01*
X0315036Y0202166D01*
X0316341Y0202166D01*
X0317071Y0202896D01*
X0318688Y0203566D01*
X0324770Y0203566D01*
X0326387Y0202896D01*
X0327085Y0202198D01*
X0332791Y0202198D01*
X0331983Y0203006D01*
X0330857Y0205726D01*
X0330857Y0208670D01*
X0331983Y0211389D01*
X0332320Y0211727D01*
X0332320Y0215660D01*
X0333645Y0218858D01*
X0336092Y0221305D01*
X0348887Y0234101D01*
X0352085Y0235425D01*
X0358235Y0235425D01*
X0358235Y0238815D01*
X0359714Y0242386D01*
X0362446Y0245119D01*
X0365341Y0246318D01*
X0365728Y0246704D01*
X0368527Y0248320D01*
X0370960Y0248972D01*
X0378542Y0256555D01*
X0380380Y0257316D01*
X0380546Y0257316D01*
X0381244Y0258014D01*
X0382862Y0258684D01*
X0388943Y0258684D01*
X0390560Y0258014D01*
X0391290Y0257284D01*
X0392595Y0257284D01*
X0392595Y0252316D01*
X0392595Y0252316D01*
X0392595Y0257284D01*
X0395056Y0257284D01*
X0395636Y0257169D01*
X0396182Y0256943D01*
X0396673Y0256614D01*
X0397091Y0256197D01*
X0397419Y0255705D01*
X0397645Y0255159D01*
X0397760Y0254580D01*
X0397760Y0252316D01*
X0392595Y0252316D01*
X0392595Y0252316D01*
X0397760Y0252316D01*
X0397760Y0250052D01*
X0397645Y0249472D01*
X0397476Y0249063D01*
X0400250Y0248320D01*
X0403048Y0246704D01*
X0413760Y0235992D01*
X0413760Y0293567D01*
X0406039Y0293979D01*
X0404849Y0294547D01*
X0403202Y0294989D01*
X0400398Y0296608D01*
X0398108Y0298898D01*
X0396488Y0301702D01*
X0395650Y0304830D01*
X0395650Y0308069D01*
X0396488Y0311197D01*
X0397103Y0312261D01*
X0378737Y0312261D01*
X0381201Y0309797D01*
X0381201Y0304307D01*
X0386690Y0304307D01*
X0391201Y0299797D01*
X0391201Y0293418D01*
X0386690Y0288907D01*
X0380311Y0288907D01*
X0380066Y0289152D01*
X0380066Y0284315D01*
X0379396Y0282697D01*
X0378666Y0281967D01*
X0378666Y0280465D01*
X0373501Y0280465D01*
X0373501Y0280465D01*
X0378666Y0280465D01*
X0378666Y0278201D01*
X0378551Y0277622D01*
X0378325Y0277076D01*
X0377996Y0276584D01*
X0377712Y0276300D01*
X0379124Y0276300D01*
X0380205Y0276158D01*
X0381258Y0275876D01*
X0382265Y0275458D01*
X0383209Y0274913D01*
X0384074Y0274250D01*
X0384844Y0273479D01*
X0385508Y0272614D01*
X0386053Y0271671D01*
X0386470Y0270664D01*
X0386752Y0269611D01*
X0386894Y0268530D01*
X0386894Y0267985D01*
X0373265Y0267985D01*
X0386894Y0267985D01*
X0386894Y0267440D01*
X0386752Y0266359D01*
X0386470Y0265307D01*
X0386053Y0264300D01*
X0385508Y0263356D01*
X0384844Y0262491D01*
X0384074Y0261720D01*
X0383209Y0261057D01*
X0382265Y0260512D01*
X0381258Y0260094D01*
X0380205Y0259812D01*
X0379124Y0259670D01*
X0373264Y0259670D01*
X0373264Y0267985D01*
X0359635Y0267985D01*
X0359635Y0267440D01*
X0359777Y0266359D01*
X0360059Y0265307D01*
X0360476Y0264300D01*
X0361021Y0263356D01*
X0361685Y0262491D01*
X0362455Y0261720D01*
X0363320Y0261057D01*
X0364264Y0260512D01*
X0365271Y0260094D01*
X0366324Y0259812D01*
X0367404Y0259670D01*
X0373264Y0259670D01*
X0373264Y0267985D01*
X0373264Y0267985D01*
X0359635Y0267985D01*
X0359635Y0268530D01*
X0359777Y0269611D01*
X0360059Y0270664D01*
X0360476Y0271671D01*
X0361021Y0272614D01*
X0361685Y0273479D01*
X0362455Y0274250D01*
X0363320Y0274913D01*
X0364264Y0275458D01*
X0365271Y0275876D01*
X0366324Y0276158D01*
X0367404Y0276300D01*
X0369290Y0276300D01*
X0369005Y0276584D01*
X0368677Y0277076D01*
X0368451Y0277622D01*
X0368335Y0278201D01*
X0368335Y0280465D01*
X0373501Y0280465D01*
X0373501Y0280465D01*
X0368335Y0280465D01*
X0368335Y0281967D01*
X0367605Y0282697D01*
X0366935Y0284315D01*
X0366935Y0289152D01*
X0366690Y0288907D01*
X0360311Y0288907D01*
X0355801Y0293418D01*
X0355801Y0299797D01*
X0358658Y0302654D01*
X0358658Y0303394D01*
X0354697Y0307355D01*
X0342287Y0307355D01*
X0342601Y0307271D01*
X0345451Y0305625D01*
X0347779Y0303298D01*
X0349424Y0300448D01*
X0350276Y0297268D01*
X0350276Y0293977D01*
X0349424Y0290798D01*
X0347779Y0287948D01*
X0345451Y0285620D01*
X0342601Y0283975D01*
X0339422Y0283123D01*
X0336131Y0283123D01*
X0332951Y0283975D01*
X0330101Y0285620D01*
X0327774Y0287948D01*
X0326128Y0290798D01*
X0325276Y0293977D01*
X0325276Y0297268D01*
X0326128Y0300448D01*
X0327774Y0303298D01*
X0330101Y0305625D01*
X0332951Y0307271D01*
X0333266Y0307355D01*
X0315532Y0307355D01*
X0309797Y0301620D01*
X0307960Y0300859D01*
X0306247Y0300859D01*
X0306247Y0296322D01*
X0305577Y0294705D01*
X0304340Y0293467D01*
X0302722Y0292798D01*
X0300384Y0292798D01*
X0298971Y0291384D01*
X0297133Y0290623D01*
X0287241Y0290623D01*
X0288050Y0289815D01*
X0289176Y0287095D01*
X0289176Y0284151D01*
X0288050Y0281431D01*
X0285968Y0279349D01*
X0283248Y0278223D01*
X0274304Y0278223D01*
X0271584Y0279349D01*
X0269503Y0281431D01*
X0268376Y0284151D01*
X0268376Y0286923D01*
X0252676Y0286923D01*
X0249478Y0288247D01*
X0243452Y0294273D01*
X0242979Y0293130D01*
X0241741Y0291893D01*
X0240124Y0291223D01*
X0234043Y0291223D01*
X0232426Y0291893D01*
X0231695Y0292623D01*
X0230390Y0292623D01*
X0230390Y0297591D01*
X0225225Y0297591D01*
X0225225Y0295327D01*
X0225340Y0294748D01*
X0225566Y0294202D01*
X0225895Y0293710D01*
X0226313Y0293293D01*
X0226804Y0292964D01*
X0227350Y0292738D01*
X0227930Y0292623D01*
X0230390Y0292623D01*
X0230390Y0297591D01*
X0230390Y0297591D01*
X0230390Y0297591D01*
X0225225Y0297591D01*
X0225225Y0298734D01*
X0066583Y0298734D01*
X0065239Y0297102D01*
X0065623Y0297102D01*
X0068453Y0295930D01*
X0070619Y0293764D01*
X0071791Y0290934D01*
X0071791Y0290681D01*
X0071978Y0291378D01*
X0072304Y0292165D01*
X0072730Y0292903D01*
X0073249Y0293579D01*
X0073851Y0294182D01*
X0074527Y0294700D01*
X0075265Y0295126D01*
X0076052Y0295452D01*
X0076876Y0295673D01*
X0077720Y0295784D01*
X0078146Y0295784D01*
X0078146Y0289284D01*
X0078146Y0289284D01*
X0078146Y0289284D01*
X0081646Y0289284D01*
X0088146Y0289284D01*
X0088146Y0289284D01*
X0078146Y0289284D01*
X0078146Y0295784D01*
X0078572Y0295784D01*
X0079417Y0295673D01*
X0080240Y0295452D01*
X0081027Y0295126D01*
X0081765Y0294700D01*
X0082441Y0294182D01*
X0083044Y0293579D01*
X0083146Y0293446D01*
X0083249Y0293579D01*
X0083851Y0294182D01*
X0084527Y0294700D01*
X0085265Y0295126D01*
X0086052Y0295452D01*
X0086876Y0295673D01*
X0087720Y0295784D01*
X0088146Y0295784D01*
X0088146Y0289284D01*
X0088146Y0289284D01*
X0088146Y0289284D01*
X0091646Y0289284D01*
X0098146Y0289284D01*
X0098146Y0289284D01*
X0088146Y0289284D01*
X0088146Y0295784D01*
X0088572Y0295784D01*
X0089417Y0295673D01*
X0090240Y0295452D01*
X0091027Y0295126D01*
X0091765Y0294700D01*
X0092441Y0294182D01*
X0093044Y0293579D01*
X0093146Y0293446D01*
X0093249Y0293579D01*
X0093851Y0294182D01*
X0094527Y0294700D01*
X0095265Y0295126D01*
X0096052Y0295452D01*
X0096876Y0295673D01*
X0097720Y0295784D01*
X0098146Y0295784D01*
X0098146Y0289284D01*
X0098146Y0289284D01*
X0098146Y0289284D01*
X0101646Y0289284D01*
X0108146Y0289284D01*
X0108146Y0289284D01*
X0098146Y0289284D01*
X0098146Y0295784D01*
X0098572Y0295784D01*
X0099417Y0295673D01*
X0100240Y0295452D01*
X0101027Y0295126D01*
X0101765Y0294700D01*
X0102441Y0294182D01*
X0103044Y0293579D01*
X0103146Y0293446D01*
X0103249Y0293579D01*
X0103851Y0294182D01*
X0104527Y0294700D01*
X0105265Y0295126D01*
X0106052Y0295452D01*
X0106876Y0295673D01*
X0107720Y0295784D01*
X0108146Y0295784D01*
X0108146Y0289284D01*
X0108146Y0289284D01*
X0108146Y0289284D01*
X0111646Y0289284D01*
X0118146Y0289284D01*
X0118146Y0289284D01*
X0108146Y0289284D01*
X0108146Y0295784D01*
X0108572Y0295784D01*
X0109417Y0295673D01*
X0110240Y0295452D01*
X0111027Y0295126D01*
X0111765Y0294700D01*
X0112441Y0294182D01*
X0113044Y0293579D01*
X0113146Y0293446D01*
X0113249Y0293579D01*
X0113851Y0294182D01*
X0114527Y0294700D01*
X0115265Y0295126D01*
X0116052Y0295452D01*
X0116876Y0295673D01*
X0117720Y0295784D01*
X0118146Y0295784D01*
X0118146Y0289284D01*
X0118146Y0289284D01*
X0118146Y0289284D01*
X0121646Y0289284D01*
X0128146Y0289284D01*
X0128146Y0289284D01*
X0118146Y0289284D01*
X0118146Y0295784D01*
X0118572Y0295784D01*
X0119417Y0295673D01*
X0120240Y0295452D01*
X0121027Y0295126D01*
X0121765Y0294700D01*
X0122441Y0294182D01*
X0123044Y0293579D01*
X0123146Y0293446D01*
X0123249Y0293579D01*
X0123851Y0294182D01*
X0124527Y0294700D01*
X0125265Y0295126D01*
X0126052Y0295452D01*
X0126876Y0295673D01*
X0127720Y0295784D01*
X0128146Y0295784D01*
X0128146Y0289284D01*
X0128146Y0289284D01*
X0128146Y0289284D01*
X0134646Y0289284D01*
X0138146Y0289284D01*
X0138146Y0289284D01*
X0128146Y0289284D01*
X0128146Y0295784D01*
X0128572Y0295784D01*
X0129417Y0295673D01*
X0130240Y0295452D01*
X0131027Y0295126D01*
X0131765Y0294700D01*
X0132441Y0294182D01*
X0133044Y0293579D01*
X0133146Y0293446D01*
X0133249Y0293579D01*
X0133851Y0294182D01*
X0134527Y0294700D01*
X0135265Y0295126D01*
X0136052Y0295452D01*
X0136876Y0295673D01*
X0137720Y0295784D01*
X0138146Y0295784D01*
X0138146Y0289284D01*
X0138146Y0289284D01*
X0138146Y0289284D01*
X0144646Y0289284D01*
X0148146Y0289284D01*
X0148146Y0289284D01*
X0138146Y0289284D01*
X0138146Y0295784D01*
X0138572Y0295784D01*
X0139417Y0295673D01*
X0140240Y0295452D01*
X0141027Y0295126D01*
X0141765Y0294700D01*
X0142441Y0294182D01*
X0143044Y0293579D01*
X0143146Y0293446D01*
X0143249Y0293579D01*
X0143851Y0294182D01*
X0144527Y0294700D01*
X0145265Y0295126D01*
X0146052Y0295452D01*
X0146876Y0295673D01*
X0147720Y0295784D01*
X0148146Y0295784D01*
X0148146Y0289284D01*
X0148146Y0289284D01*
X0148146Y0289284D01*
X0151646Y0289284D01*
X0158146Y0289284D01*
X0158146Y0289284D01*
X0148146Y0289284D01*
X0148146Y0295784D01*
X0148572Y0295784D01*
X0149417Y0295673D01*
X0150240Y0295452D01*
X0151027Y0295126D01*
X0151765Y0294700D01*
X0152441Y0294182D01*
X0153044Y0293579D01*
X0153146Y0293446D01*
X0153249Y0293579D01*
X0153851Y0294182D01*
X0154527Y0294700D01*
X0155265Y0295126D01*
X0156052Y0295452D01*
X0156876Y0295673D01*
X0157720Y0295784D01*
X0158146Y0295784D01*
X0158146Y0289284D01*
X0158146Y0289284D01*
X0158146Y0289284D01*
X0161646Y0289284D01*
X0168146Y0289284D01*
X0168146Y0289284D01*
X0158146Y0289284D01*
X0158146Y0295784D01*
X0158572Y0295784D01*
X0159417Y0295673D01*
X0160240Y0295452D01*
X0161027Y0295126D01*
X0161765Y0294700D01*
X0162441Y0294182D01*
X0163044Y0293579D01*
X0163146Y0293446D01*
X0163249Y0293579D01*
X0163851Y0294182D01*
X0164527Y0294700D01*
X0165265Y0295126D01*
X0166052Y0295452D01*
X0166876Y0295673D01*
X0167720Y0295784D01*
X0168146Y0295784D01*
X0168146Y0289284D01*
X0168146Y0289284D01*
X0168146Y0289284D01*
X0171646Y0289284D01*
X0178146Y0289284D01*
X0178146Y0289284D01*
X0168146Y0289284D01*
X0168146Y0295784D01*
X0168572Y0295784D01*
X0169417Y0295673D01*
X0170240Y0295452D01*
X0171027Y0295126D01*
X0171765Y0294700D01*
X0172441Y0294182D01*
X0173044Y0293579D01*
X0173146Y0293446D01*
X0173249Y0293579D01*
X0173851Y0294182D01*
X0174527Y0294700D01*
X0175265Y0295126D01*
X0176052Y0295452D01*
X0176876Y0295673D01*
X0177720Y0295784D01*
X0178146Y0295784D01*
X0178146Y0289284D01*
X0178146Y0289284D01*
X0178146Y0289284D01*
X0181646Y0289284D01*
X0188146Y0289284D01*
X0188146Y0289284D01*
X0178146Y0289284D01*
X0178146Y0295784D01*
X0178572Y0295784D01*
X0179417Y0295673D01*
X0180240Y0295452D01*
X0181027Y0295126D01*
X0181765Y0294700D01*
X0182441Y0294182D01*
X0183044Y0293579D01*
X0183146Y0293446D01*
X0183249Y0293579D01*
X0183851Y0294182D01*
X0184527Y0294700D01*
X0185265Y0295126D01*
X0186052Y0295452D01*
X0186876Y0295673D01*
X0187720Y0295784D01*
X0188146Y0295784D01*
X0188146Y0289284D01*
X0188146Y0289284D01*
X0188146Y0289284D01*
X0194646Y0289284D01*
X0194646Y0288858D01*
X0194535Y0288013D01*
X0194315Y0287190D01*
X0193988Y0286403D01*
X0193562Y0285665D01*
X0193291Y0285312D01*
X0194844Y0283759D01*
X0196046Y0280856D01*
X0196046Y0277713D01*
X0194844Y0274809D01*
X0194319Y0274284D01*
X0194844Y0273759D01*
X0196046Y0270856D01*
X0196046Y0267713D01*
X0194844Y0264809D01*
X0192621Y0262587D01*
X0189718Y0261384D01*
X0186575Y0261384D01*
X0183671Y0262587D01*
X0183146Y0263112D01*
X0182621Y0262587D01*
X0179718Y0261384D01*
X0176575Y0261384D01*
X0173671Y0262587D01*
X0173146Y0263112D01*
X0172621Y0262587D01*
X0169718Y0261384D01*
X0166575Y0261384D01*
X0163671Y0262587D01*
X0163146Y0263112D01*
X0162621Y0262587D01*
X0159718Y0261384D01*
X0156575Y0261384D01*
X0153671Y0262587D01*
X0153146Y0263112D01*
X0152621Y0262587D01*
X0149718Y0261384D01*
X0146575Y0261384D01*
X0143671Y0262587D01*
X0143146Y0263112D01*
X0142621Y0262587D01*
X0139718Y0261384D01*
X0136575Y0261384D01*
X0133671Y0262587D01*
X0133146Y0263112D01*
X0132621Y0262587D01*
X0129718Y0261384D01*
X0126575Y0261384D01*
X0123671Y0262587D01*
X0123146Y0263112D01*
X0122621Y0262587D01*
X0119718Y0261384D01*
X0116575Y0261384D01*
X0113671Y0262587D01*
X0113146Y0263112D01*
X0112621Y0262587D01*
X0109718Y0261384D01*
X0106575Y0261384D01*
X0103671Y0262587D01*
X0103146Y0263112D01*
X0102621Y0262587D01*
X0099718Y0261384D01*
X0096575Y0261384D01*
X0093671Y0262587D01*
X0093146Y0263112D01*
X0092621Y0262587D01*
X0089718Y0261384D01*
X0086575Y0261384D01*
X0083671Y0262587D01*
X0083146Y0263112D01*
X0082621Y0262587D01*
X0079718Y0261384D01*
X0076575Y0261384D01*
X0073671Y0262587D01*
X0071449Y0264809D01*
X0071094Y0265666D01*
X0070788Y0264927D01*
X0068527Y0262666D01*
X0065623Y0261463D01*
X0052359Y0261463D01*
X0050428Y0260663D01*
X0046967Y0260663D01*
X0045131Y0261424D01*
X0034646Y0261424D01*
X0032060Y0262495D01*
X0032060Y0175264D01*
X0033367Y0176572D01*
X0036060Y0176572D01*
X0036060Y0170072D01*
X0036060Y0170072D01*
X0036060Y0166572D01*
X0036060Y0160072D01*
X0036060Y0160072D01*
X0036060Y0156572D01*
X0036060Y0150072D01*
X0036060Y0150072D01*
X0036060Y0146572D01*
X0036060Y0140072D01*
X0036060Y0140072D01*
X0036060Y0136572D01*
X0036060Y0130072D01*
X0036060Y0130072D01*
X0036060Y0126572D01*
X0036060Y0120072D01*
X0036060Y0120072D01*
X0036060Y0116572D01*
X0036060Y0110072D01*
X0036060Y0110072D01*
X0036060Y0103572D01*
X0036060Y0100072D01*
X0036060Y0093572D01*
X0036060Y0095266D02*
X0036060Y0095266D01*
X0036060Y0099264D02*
X0036060Y0099264D01*
X0036060Y0100072D02*
X0036060Y0100072D01*
X0036060Y0103263D02*
X0036060Y0103263D01*
X0036060Y0107261D02*
X0036060Y0107261D01*
X0036060Y0111260D02*
X0036060Y0111260D01*
X0036060Y0115258D02*
X0036060Y0115258D01*
X0036060Y0119257D02*
X0036060Y0119257D01*
X0036060Y0123255D02*
X0036060Y0123255D01*
X0036060Y0127254D02*
X0036060Y0127254D01*
X0036060Y0131252D02*
X0036060Y0131252D01*
X0036060Y0135251D02*
X0036060Y0135251D01*
X0036060Y0139249D02*
X0036060Y0139249D01*
X0036060Y0143248D02*
X0036060Y0143248D01*
X0036060Y0147246D02*
X0036060Y0147246D01*
X0036060Y0151245D02*
X0036060Y0151245D01*
X0036060Y0155243D02*
X0036060Y0155243D01*
X0036060Y0159242D02*
X0036060Y0159242D01*
X0036060Y0163240D02*
X0036060Y0163240D01*
X0036060Y0167239D02*
X0036060Y0167239D01*
X0036060Y0171237D02*
X0036060Y0171237D01*
X0036060Y0175236D02*
X0036060Y0175236D01*
X0032060Y0179234D02*
X0063865Y0179234D01*
X0069357Y0179234D02*
X0071411Y0179234D01*
X0071411Y0175236D02*
X0068433Y0175236D01*
X0060061Y0183233D02*
X0032060Y0183233D01*
X0032060Y0187232D02*
X0059636Y0187232D01*
X0059636Y0191230D02*
X0032060Y0191230D01*
X0032060Y0195229D02*
X0061180Y0195229D01*
X0074987Y0199227D02*
X0032060Y0199227D01*
X0032060Y0203226D02*
X0078986Y0203226D01*
X0083970Y0207224D02*
X0032060Y0207224D01*
X0032060Y0211223D02*
X0196117Y0211223D01*
X0200115Y0215221D02*
X0032060Y0215221D01*
X0032060Y0219220D02*
X0204114Y0219220D01*
X0208112Y0223218D02*
X0032060Y0223218D01*
X0032060Y0227217D02*
X0212111Y0227217D01*
X0216109Y0231215D02*
X0032060Y0231215D01*
X0032060Y0235214D02*
X0220108Y0235214D01*
X0224106Y0239212D02*
X0209303Y0239212D01*
X0210562Y0239734D02*
X0207998Y0238672D01*
X0205223Y0238672D01*
X0202660Y0239734D01*
X0201611Y0240783D01*
X0200562Y0239734D01*
X0197998Y0238672D01*
X0195223Y0238672D01*
X0192660Y0239734D01*
X0191611Y0240783D01*
X0190562Y0239734D01*
X0187998Y0238672D01*
X0185223Y0238672D01*
X0182660Y0239734D01*
X0180698Y0241696D01*
X0180653Y0241804D01*
X0180243Y0241394D01*
X0179533Y0240878D01*
X0178751Y0240480D01*
X0177916Y0240209D01*
X0177050Y0240072D01*
X0176611Y0240072D01*
X0176611Y0248221D01*
X0176611Y0248221D01*
X0176611Y0240072D01*
X0176172Y0240072D01*
X0175305Y0240209D01*
X0174471Y0240480D01*
X0173689Y0240878D01*
X0172979Y0241394D01*
X0172569Y0241804D01*
X0172524Y0241696D01*
X0170562Y0239734D01*
X0167998Y0238672D01*
X0165223Y0238672D01*
X0162660Y0239734D01*
X0161611Y0240783D01*
X0160562Y0239734D01*
X0157998Y0238672D01*
X0155223Y0238672D01*
X0152660Y0239734D01*
X0151611Y0240783D01*
X0150562Y0239734D01*
X0147998Y0238672D01*
X0145223Y0238672D01*
X0142660Y0239734D01*
X0141611Y0240783D01*
X0140562Y0239734D01*
X0137998Y0238672D01*
X0135223Y0238672D01*
X0132660Y0239734D01*
X0131611Y0240783D01*
X0130562Y0239734D01*
X0127998Y0238672D01*
X0125223Y0238672D01*
X0122660Y0239734D01*
X0121611Y0240783D01*
X0120562Y0239734D01*
X0117998Y0238672D01*
X0115223Y0238672D01*
X0112660Y0239734D01*
X0111611Y0240783D01*
X0110562Y0239734D01*
X0107998Y0238672D01*
X0105223Y0238672D01*
X0102660Y0239734D01*
X0101611Y0240783D01*
X0100562Y0239734D01*
X0097998Y0238672D01*
X0095223Y0238672D01*
X0092660Y0239734D01*
X0091611Y0240783D01*
X0090562Y0239734D01*
X0087998Y0238672D01*
X0085223Y0238672D01*
X0082660Y0239734D01*
X0081611Y0240783D01*
X0080562Y0239734D01*
X0077998Y0238672D01*
X0075223Y0238672D01*
X0072660Y0239734D01*
X0071611Y0240783D01*
X0070562Y0239734D01*
X0067998Y0238672D01*
X0065223Y0238672D01*
X0062660Y0239734D01*
X0060698Y0241696D01*
X0059636Y0244259D01*
X0059636Y0252183D01*
X0060698Y0254747D01*
X0062660Y0256709D01*
X0065223Y0257771D01*
X0067998Y0257771D01*
X0070562Y0256709D01*
X0071611Y0255660D01*
X0072660Y0256709D01*
X0075223Y0257771D01*
X0077998Y0257771D01*
X0080562Y0256709D01*
X0081611Y0255660D01*
X0082660Y0256709D01*
X0085223Y0257771D01*
X0087998Y0257771D01*
X0090562Y0256709D01*
X0091611Y0255660D01*
X0092660Y0256709D01*
X0095223Y0257771D01*
X0097998Y0257771D01*
X0100562Y0256709D01*
X0101611Y0255660D01*
X0102660Y0256709D01*
X0105223Y0257771D01*
X0107998Y0257771D01*
X0110562Y0256709D01*
X0111611Y0255660D01*
X0112660Y0256709D01*
X0115223Y0257771D01*
X0117998Y0257771D01*
X0120562Y0256709D01*
X0121611Y0255660D01*
X0122660Y0256709D01*
X0125223Y0257771D01*
X0127998Y0257771D01*
X0130562Y0256709D01*
X0131611Y0255660D01*
X0132660Y0256709D01*
X0135223Y0257771D01*
X0137998Y0257771D01*
X0140562Y0256709D01*
X0141611Y0255660D01*
X0142660Y0256709D01*
X0145223Y0257771D01*
X0147998Y0257771D01*
X0150562Y0256709D01*
X0151611Y0255660D01*
X0152660Y0256709D01*
X0155223Y0257771D01*
X0157998Y0257771D01*
X0160562Y0256709D01*
X0161611Y0255660D01*
X0162660Y0256709D01*
X0165223Y0257771D01*
X0167998Y0257771D01*
X0170562Y0256709D01*
X0172524Y0254747D01*
X0172569Y0254638D01*
X0172979Y0255048D01*
X0173689Y0255564D01*
X0174471Y0255962D01*
X0175305Y0256234D01*
X0176172Y0256371D01*
X0176611Y0256371D01*
X0176611Y0248221D01*
X0176611Y0248221D01*
X0176611Y0256371D01*
X0177050Y0256371D01*
X0177916Y0256234D01*
X0178751Y0255962D01*
X0179533Y0255564D01*
X0180243Y0255048D01*
X0180653Y0254638D01*
X0180698Y0254747D01*
X0182660Y0256709D01*
X0185223Y0257771D01*
X0187998Y0257771D01*
X0190562Y0256709D01*
X0191611Y0255660D01*
X0192660Y0256709D01*
X0195223Y0257771D01*
X0197998Y0257771D01*
X0200562Y0256709D01*
X0201611Y0255660D01*
X0202660Y0256709D01*
X0205223Y0257771D01*
X0207998Y0257771D01*
X0210562Y0256709D01*
X0212524Y0254747D01*
X0213586Y0252183D01*
X0213586Y0244259D01*
X0212524Y0241696D01*
X0210562Y0239734D01*
X0213151Y0243211D02*
X0224364Y0243211D01*
X0224332Y0247209D02*
X0213586Y0247209D01*
X0213586Y0251208D02*
X0225247Y0251208D01*
X0224095Y0255206D02*
X0212065Y0255206D01*
X0224367Y0263203D02*
X0193238Y0263203D01*
X0195835Y0267202D02*
X0224329Y0267202D01*
X0225254Y0271200D02*
X0195904Y0271200D01*
X0195005Y0275199D02*
X0224095Y0275199D01*
X0225156Y0279197D02*
X0196046Y0279197D01*
X0195077Y0283196D02*
X0268772Y0283196D01*
X0271952Y0279197D02*
X0246323Y0279197D01*
X0241070Y0279197D02*
X0241069Y0279197D01*
X0246644Y0275199D02*
X0363814Y0275199D01*
X0360281Y0271200D02*
X0246268Y0271200D01*
X0247810Y0267202D02*
X0359666Y0267202D01*
X0361138Y0263203D02*
X0247772Y0263203D01*
X0246977Y0259205D02*
X0413760Y0259205D01*
X0413760Y0263203D02*
X0385391Y0263203D01*
X0386863Y0267202D02*
X0413760Y0267202D01*
X0413760Y0271200D02*
X0386248Y0271200D01*
X0382715Y0275199D02*
X0413760Y0275199D01*
X0413760Y0279197D02*
X0378666Y0279197D01*
X0379603Y0283196D02*
X0413760Y0283196D01*
X0413760Y0287194D02*
X0380066Y0287194D01*
X0388976Y0291193D02*
X0413760Y0291193D01*
X0402851Y0295191D02*
X0391201Y0295191D01*
X0391201Y0299190D02*
X0397939Y0299190D01*
X0396090Y0303188D02*
X0387809Y0303188D01*
X0381201Y0307187D02*
X0395650Y0307187D01*
X0396485Y0311185D02*
X0379812Y0311185D01*
X0358658Y0303188D02*
X0347842Y0303188D01*
X0349761Y0299190D02*
X0355801Y0299190D01*
X0355801Y0295191D02*
X0350276Y0295191D01*
X0349530Y0291193D02*
X0358025Y0291193D01*
X0366935Y0287194D02*
X0347025Y0287194D01*
X0339694Y0283196D02*
X0367399Y0283196D01*
X0368335Y0279197D02*
X0285601Y0279197D01*
X0288781Y0283196D02*
X0335858Y0283196D01*
X0328527Y0287194D02*
X0289135Y0287194D01*
X0298509Y0291193D02*
X0326022Y0291193D01*
X0325276Y0295191D02*
X0305779Y0295191D01*
X0306247Y0299190D02*
X0325791Y0299190D01*
X0327710Y0303188D02*
X0311366Y0303188D01*
X0315364Y0307187D02*
X0332806Y0307187D01*
X0342747Y0307187D02*
X0354866Y0307187D01*
X0373265Y0267985D02*
X0373265Y0267985D01*
X0373264Y0267985D02*
X0373264Y0267985D01*
X0373264Y0267202D02*
X0373264Y0267202D01*
X0373264Y0263203D02*
X0373264Y0263203D01*
X0377194Y0255206D02*
X0248044Y0255206D01*
X0246892Y0251208D02*
X0373196Y0251208D01*
X0366602Y0247209D02*
X0248044Y0247209D01*
X0248044Y0243211D02*
X0360538Y0243211D01*
X0358399Y0239212D02*
X0246405Y0239212D01*
X0234815Y0235214D02*
X0351574Y0235214D01*
X0346002Y0231215D02*
X0311018Y0231215D01*
X0314451Y0227217D02*
X0342003Y0227217D01*
X0338005Y0223218D02*
X0314451Y0223218D01*
X0313389Y0219220D02*
X0334006Y0219220D01*
X0332320Y0215221D02*
X0272475Y0215221D01*
X0275749Y0211223D02*
X0268477Y0211223D01*
X0270504Y0207224D02*
X0264478Y0207224D01*
X0267954Y0203226D02*
X0260480Y0203226D01*
X0256481Y0199227D02*
X0266857Y0199227D01*
X0266857Y0199225D02*
X0266857Y0195170D01*
X0267906Y0191253D01*
X0269933Y0187742D01*
X0272801Y0184875D01*
X0276312Y0182847D01*
X0280229Y0181798D01*
X0284284Y0181798D01*
X0288201Y0182847D01*
X0291712Y0184875D01*
X0294580Y0187742D01*
X0296607Y0191253D01*
X0297657Y0195170D01*
X0297657Y0199225D01*
X0296607Y0203142D01*
X0294580Y0206653D01*
X0291712Y0209521D01*
X0288201Y0211548D01*
X0284284Y0212598D01*
X0280229Y0212598D01*
X0276312Y0211548D01*
X0272801Y0209521D01*
X0269933Y0206653D01*
X0267906Y0203142D01*
X0266857Y0199225D01*
X0266857Y0195229D02*
X0252483Y0195229D01*
X0248484Y0191230D02*
X0267920Y0191230D01*
X0270444Y0187232D02*
X0244486Y0187232D01*
X0240147Y0183233D02*
X0275644Y0183233D01*
X0288869Y0183233D02*
X0309523Y0183233D01*
X0309140Y0187232D02*
X0294069Y0187232D01*
X0296594Y0191230D02*
X0309551Y0191230D01*
X0309871Y0195229D02*
X0297657Y0195229D01*
X0297656Y0199227D02*
X0309871Y0199227D01*
X0315036Y0199227D02*
X0315036Y0199227D01*
X0317866Y0203226D02*
X0296559Y0203226D01*
X0294009Y0207224D02*
X0330857Y0207224D01*
X0331892Y0203226D02*
X0325592Y0203226D01*
X0331914Y0211223D02*
X0288765Y0211223D01*
X0269065Y0227651D02*
X0269065Y0227651D01*
X0268632Y0227217D02*
X0226818Y0227217D01*
X0222820Y0223218D02*
X0264633Y0223218D01*
X0260635Y0219220D02*
X0218821Y0219220D01*
X0214823Y0215221D02*
X0256636Y0215221D01*
X0252638Y0211223D02*
X0210824Y0211223D01*
X0206826Y0207224D02*
X0248639Y0207224D01*
X0244641Y0203226D02*
X0202827Y0203226D01*
X0198829Y0199227D02*
X0240642Y0199227D01*
X0236643Y0195229D02*
X0212042Y0195229D01*
X0201180Y0195229D02*
X0199995Y0195229D01*
X0196611Y0195229D02*
X0196611Y0195229D01*
X0193227Y0195229D02*
X0192042Y0195229D01*
X0196611Y0191230D02*
X0196611Y0191230D01*
X0196611Y0188221D02*
X0196611Y0188221D01*
X0196611Y0187232D02*
X0196611Y0187232D01*
X0196611Y0183233D02*
X0196611Y0183233D01*
X0201011Y0179234D02*
X0189357Y0179234D01*
X0189515Y0175236D02*
X0191471Y0175236D01*
X0186581Y0175236D02*
X0186581Y0175236D01*
X0186581Y0171237D02*
X0186581Y0171237D01*
X0186581Y0167239D02*
X0186581Y0167239D01*
X0186581Y0163240D02*
X0186581Y0163240D01*
X0192784Y0159242D02*
X0180377Y0159242D01*
X0172784Y0159242D02*
X0171893Y0159242D01*
X0171945Y0155243D02*
X0322523Y0155243D01*
X0322523Y0156503D02*
X0322523Y0153719D01*
X0323588Y0151146D01*
X0324623Y0150111D01*
X0323588Y0149076D01*
X0322523Y0146503D01*
X0322523Y0143719D01*
X0323588Y0141146D01*
X0324623Y0140111D01*
X0323588Y0139076D01*
X0322523Y0136503D01*
X0322523Y0133719D01*
X0323588Y0131146D01*
X0324623Y0130111D01*
X0323588Y0129076D01*
X0322523Y0126503D01*
X0322523Y0123719D01*
X0323588Y0121146D01*
X0324623Y0120111D01*
X0323588Y0119076D01*
X0322523Y0116503D01*
X0322523Y0113719D01*
X0323588Y0111146D01*
X0324623Y0110111D01*
X0323588Y0109076D01*
X0322523Y0106503D01*
X0322523Y0103719D01*
X0323588Y0101146D01*
X0325558Y0099177D01*
X0328130Y0098111D01*
X0336115Y0098111D01*
X0338688Y0099177D01*
X0340657Y0101146D01*
X0341723Y0103719D01*
X0341723Y0106503D01*
X0340657Y0109076D01*
X0339622Y0110111D01*
X0340657Y0111146D01*
X0341723Y0113719D01*
X0341723Y0116503D01*
X0340657Y0119076D01*
X0339622Y0120111D01*
X0340657Y0121146D01*
X0341723Y0123719D01*
X0341723Y0126503D01*
X0340657Y0129076D01*
X0339622Y0130111D01*
X0340657Y0131146D01*
X0341723Y0133719D01*
X0341723Y0136503D01*
X0340657Y0139076D01*
X0339622Y0140111D01*
X0340657Y0141146D01*
X0341723Y0143719D01*
X0341723Y0146503D01*
X0340657Y0149076D01*
X0339622Y0150111D01*
X0340657Y0151146D01*
X0341723Y0153719D01*
X0341723Y0156503D01*
X0340657Y0159076D01*
X0338688Y0161045D01*
X0336115Y0162111D01*
X0328130Y0162111D01*
X0325558Y0161045D01*
X0323588Y0159076D01*
X0322523Y0156503D01*
X0323754Y0159242D02*
X0200377Y0159242D01*
X0203327Y0163240D02*
X0372385Y0163240D01*
X0371927Y0159242D02*
X0340491Y0159242D01*
X0341723Y0155243D02*
X0373336Y0155243D01*
X0372201Y0151245D02*
X0340698Y0151245D01*
X0341415Y0147246D02*
X0371927Y0147246D01*
X0373521Y0143248D02*
X0341528Y0143248D01*
X0340484Y0139249D02*
X0372016Y0139249D01*
X0371927Y0135251D02*
X0341723Y0135251D01*
X0340701Y0131252D02*
X0373705Y0131252D01*
X0371927Y0127254D02*
X0341412Y0127254D01*
X0341531Y0123255D02*
X0371927Y0123255D01*
X0373890Y0119257D02*
X0340476Y0119257D01*
X0341723Y0115258D02*
X0371927Y0115258D01*
X0371927Y0111260D02*
X0340704Y0111260D01*
X0341409Y0107261D02*
X0374074Y0107261D01*
X0371927Y0103263D02*
X0341534Y0103263D01*
X0338775Y0099264D02*
X0371927Y0099264D01*
X0374259Y0095266D02*
X0293215Y0095266D01*
X0293534Y0094496D02*
X0292468Y0097068D01*
X0291433Y0098103D01*
X0292468Y0099138D01*
X0293534Y0101711D01*
X0293534Y0104496D01*
X0292468Y0107068D01*
X0291433Y0108103D01*
X0292468Y0109138D01*
X0293534Y0111711D01*
X0293534Y0114496D01*
X0292468Y0117068D01*
X0291433Y0118103D01*
X0292468Y0119138D01*
X0293534Y0121711D01*
X0293534Y0124496D01*
X0292468Y0127068D01*
X0291433Y0128103D01*
X0292468Y0129138D01*
X0293534Y0131711D01*
X0293534Y0134496D01*
X0292468Y0137068D01*
X0290499Y0139037D01*
X0287926Y0140103D01*
X0279941Y0140103D01*
X0277369Y0139037D01*
X0275399Y0137068D01*
X0274334Y0134496D01*
X0274334Y0131711D01*
X0275399Y0129138D01*
X0276434Y0128103D01*
X0275399Y0127068D01*
X0274334Y0124496D01*
X0274334Y0121711D01*
X0275399Y0119138D01*
X0276434Y0118103D01*
X0275399Y0117068D01*
X0274334Y0114496D01*
X0274334Y0111711D01*
X0275399Y0109138D01*
X0276434Y0108103D01*
X0275399Y0107068D01*
X0274334Y0104496D01*
X0274334Y0101711D01*
X0275399Y0099138D01*
X0276434Y0098103D01*
X0275399Y0097068D01*
X0274334Y0094496D01*
X0274334Y0091711D01*
X0275399Y0089138D01*
X0276434Y0088103D01*
X0275399Y0087068D01*
X0274334Y0084496D01*
X0274334Y0081711D01*
X0275399Y0079138D01*
X0276434Y0078103D01*
X0275399Y0077068D01*
X0274334Y0074496D01*
X0274334Y0071711D01*
X0275399Y0069138D01*
X0276434Y0068103D01*
X0275399Y0067068D01*
X0274334Y0064496D01*
X0274334Y0061711D01*
X0275399Y0059138D01*
X0276434Y0058103D01*
X0275399Y0057068D01*
X0274334Y0054496D01*
X0274334Y0051711D01*
X0275399Y0049138D01*
X0276434Y0048103D01*
X0275399Y0047068D01*
X0274334Y0044496D01*
X0274334Y0041711D01*
X0275399Y0039138D01*
X0276434Y0038103D01*
X0275399Y0037068D01*
X0274334Y0034496D01*
X0274334Y0031711D01*
X0275399Y0029138D01*
X0276434Y0028103D01*
X0275399Y0027068D01*
X0274334Y0024496D01*
X0274334Y0021711D01*
X0275399Y0019138D01*
X0277369Y0017169D01*
X0279941Y0016103D01*
X0287926Y0016103D01*
X0290499Y0017169D01*
X0292468Y0019138D01*
X0293534Y0021711D01*
X0293534Y0024496D01*
X0292468Y0027068D01*
X0291433Y0028103D01*
X0292468Y0029138D01*
X0293534Y0031711D01*
X0293534Y0034496D01*
X0292468Y0037068D01*
X0291433Y0038103D01*
X0292468Y0039138D01*
X0293534Y0041711D01*
X0293534Y0044496D01*
X0292468Y0047068D01*
X0291433Y0048103D01*
X0292468Y0049138D01*
X0293534Y0051711D01*
X0293534Y0054496D01*
X0292468Y0057068D01*
X0291433Y0058103D01*
X0292468Y0059138D01*
X0293534Y0061711D01*
X0293534Y0064496D01*
X0292468Y0067068D01*
X0291433Y0068103D01*
X0292468Y0069138D01*
X0293534Y0071711D01*
X0293534Y0074496D01*
X0292468Y0077068D01*
X0291433Y0078103D01*
X0292468Y0079138D01*
X0293534Y0081711D01*
X0293534Y0084496D01*
X0292468Y0087068D01*
X0291433Y0088103D01*
X0292468Y0089138D01*
X0293534Y0091711D01*
X0293534Y0094496D01*
X0293350Y0091267D02*
X0399754Y0091267D01*
X0395155Y0087269D02*
X0413760Y0087269D01*
X0413760Y0083270D02*
X0396531Y0083270D01*
X0396040Y0079272D02*
X0413760Y0079272D01*
X0413760Y0075273D02*
X0396531Y0075273D01*
X0396531Y0071275D02*
X0413760Y0071275D01*
X0413760Y0067276D02*
X0395147Y0067276D01*
X0396531Y0063278D02*
X0413760Y0063278D01*
X0413760Y0059279D02*
X0396047Y0059279D01*
X0396531Y0055281D02*
X0413760Y0055281D01*
X0413760Y0051282D02*
X0396531Y0051282D01*
X0395140Y0047284D02*
X0413760Y0047284D01*
X0413760Y0043285D02*
X0396531Y0043285D01*
X0396055Y0039287D02*
X0413760Y0039287D01*
X0413760Y0035288D02*
X0396531Y0035288D01*
X0396531Y0031290D02*
X0413760Y0031290D01*
X0413760Y0027291D02*
X0395132Y0027291D01*
X0396531Y0023293D02*
X0399722Y0023293D01*
X0396731Y0019294D02*
X0396062Y0019294D01*
X0395650Y0015296D02*
X0373399Y0015296D01*
X0373559Y0011297D02*
X0395975Y0011297D01*
X0355532Y0019294D02*
X0342730Y0019294D01*
X0341899Y0015296D02*
X0354862Y0015296D01*
X0354702Y0011297D02*
X0342032Y0011297D01*
X0343731Y0023293D02*
X0354531Y0023293D01*
X0355819Y0027291D02*
X0342442Y0027291D01*
X0343556Y0031290D02*
X0354705Y0031290D01*
X0354859Y0035288D02*
X0343402Y0035288D01*
X0342726Y0039287D02*
X0355535Y0039287D01*
X0354531Y0043285D02*
X0343731Y0043285D01*
X0342450Y0047284D02*
X0355812Y0047284D01*
X0354708Y0051282D02*
X0343553Y0051282D01*
X0343405Y0055281D02*
X0354856Y0055281D01*
X0355538Y0059279D02*
X0342723Y0059279D01*
X0343731Y0063278D02*
X0354531Y0063278D01*
X0355804Y0067276D02*
X0342457Y0067276D01*
X0343550Y0071275D02*
X0354711Y0071275D01*
X0354853Y0075273D02*
X0343408Y0075273D01*
X0342720Y0079272D02*
X0355541Y0079272D01*
X0354531Y0083270D02*
X0343731Y0083270D01*
X0342464Y0087269D02*
X0355797Y0087269D01*
X0372464Y0087269D02*
X0373107Y0087269D01*
X0325470Y0099264D02*
X0292520Y0099264D01*
X0293534Y0103263D02*
X0322712Y0103263D01*
X0322837Y0107261D02*
X0292275Y0107261D01*
X0293347Y0111260D02*
X0323541Y0111260D01*
X0322523Y0115258D02*
X0293218Y0115258D01*
X0292517Y0119257D02*
X0323769Y0119257D01*
X0322715Y0123255D02*
X0293534Y0123255D01*
X0292282Y0127254D02*
X0322834Y0127254D01*
X0323544Y0131252D02*
X0293344Y0131252D01*
X0293221Y0135251D02*
X0322523Y0135251D01*
X0323762Y0139249D02*
X0289987Y0139249D01*
X0277880Y0139249D02*
X0157600Y0139249D01*
X0153602Y0135251D02*
X0274647Y0135251D01*
X0274524Y0131252D02*
X0149603Y0131252D01*
X0145605Y0127254D02*
X0275585Y0127254D01*
X0274334Y0123255D02*
X0141606Y0123255D01*
X0137608Y0119257D02*
X0275350Y0119257D01*
X0274650Y0115258D02*
X0133609Y0115258D01*
X0129611Y0111260D02*
X0274521Y0111260D01*
X0275592Y0107261D02*
X0125612Y0107261D01*
X0121614Y0103263D02*
X0274334Y0103263D01*
X0275347Y0099264D02*
X0117615Y0099264D01*
X0113055Y0095266D02*
X0274653Y0095266D01*
X0274517Y0091267D02*
X0085139Y0091267D01*
X0086909Y0087269D02*
X0275600Y0087269D01*
X0274334Y0083270D02*
X0086286Y0083270D01*
X0086316Y0079272D02*
X0275344Y0079272D01*
X0274656Y0075273D02*
X0086909Y0075273D01*
X0085066Y0071275D02*
X0274514Y0071275D01*
X0275607Y0067276D02*
X0071958Y0067276D01*
X0073420Y0063278D02*
X0274334Y0063278D01*
X0275341Y0059279D02*
X0073016Y0059279D01*
X0073420Y0055281D02*
X0274659Y0055281D01*
X0274511Y0051282D02*
X0073420Y0051282D01*
X0071951Y0047284D02*
X0275615Y0047284D01*
X0274334Y0043285D02*
X0073420Y0043285D01*
X0073023Y0039287D02*
X0275338Y0039287D01*
X0274662Y0035288D02*
X0073420Y0035288D01*
X0073420Y0031290D02*
X0274508Y0031290D01*
X0275622Y0027291D02*
X0071943Y0027291D01*
X0073420Y0023293D02*
X0274334Y0023293D01*
X0275335Y0019294D02*
X0073031Y0019294D01*
X0073420Y0015296D02*
X0326363Y0015296D01*
X0326229Y0011297D02*
X0073420Y0011297D01*
X0056023Y0083270D02*
X0053319Y0083270D01*
X0053838Y0087269D02*
X0060021Y0087269D01*
X0064800Y0091267D02*
X0051817Y0091267D01*
X0161599Y0143248D02*
X0322718Y0143248D01*
X0322830Y0147246D02*
X0165597Y0147246D01*
X0169596Y0151245D02*
X0323547Y0151245D01*
X0358576Y0183233D02*
X0371264Y0183233D01*
X0371794Y0179234D02*
X0212211Y0179234D01*
X0212211Y0175236D02*
X0395364Y0175236D01*
X0395364Y0179234D02*
X0381064Y0179234D01*
X0381594Y0183233D02*
X0395364Y0183233D01*
X0395364Y0187232D02*
X0382994Y0187232D01*
X0390391Y0191230D02*
X0395364Y0191230D01*
X0395364Y0195229D02*
X0394153Y0195229D01*
X0394153Y0199227D02*
X0395364Y0199227D01*
X0395364Y0203226D02*
X0392299Y0203226D01*
X0395364Y0207224D02*
X0384153Y0207224D01*
X0384153Y0211223D02*
X0395364Y0211223D01*
X0395364Y0215221D02*
X0380304Y0215221D01*
X0372603Y0215221D02*
X0354615Y0215221D01*
X0350617Y0211223D02*
X0368753Y0211223D01*
X0368753Y0207224D02*
X0351657Y0207224D01*
X0350621Y0203226D02*
X0360608Y0203226D01*
X0358753Y0199227D02*
X0351426Y0199227D01*
X0351451Y0195229D02*
X0356429Y0195229D01*
X0362574Y0187232D02*
X0369864Y0187232D01*
X0376429Y0179234D02*
X0376429Y0179234D01*
X0384752Y0167239D02*
X0207218Y0167239D01*
X0211217Y0171237D02*
X0395364Y0171237D01*
X0395364Y0219220D02*
X0367721Y0219220D01*
X0371196Y0223218D02*
X0391818Y0223218D01*
X0410541Y0239212D02*
X0413760Y0239212D01*
X0413760Y0243211D02*
X0406542Y0243211D01*
X0402174Y0247209D02*
X0413760Y0247209D01*
X0413760Y0251208D02*
X0397760Y0251208D01*
X0397626Y0255206D02*
X0413760Y0255206D01*
X0392595Y0255206D02*
X0392595Y0255206D01*
X0304334Y0231215D02*
X0230817Y0231215D01*
X0203919Y0239212D02*
X0199303Y0239212D01*
X0193919Y0239212D02*
X0189303Y0239212D01*
X0183919Y0239212D02*
X0169303Y0239212D01*
X0163919Y0239212D02*
X0159303Y0239212D01*
X0153919Y0239212D02*
X0149303Y0239212D01*
X0143919Y0239212D02*
X0139303Y0239212D01*
X0133919Y0239212D02*
X0129303Y0239212D01*
X0123919Y0239212D02*
X0119303Y0239212D01*
X0113919Y0239212D02*
X0109303Y0239212D01*
X0103919Y0239212D02*
X0099303Y0239212D01*
X0093919Y0239212D02*
X0089303Y0239212D01*
X0083919Y0239212D02*
X0079303Y0239212D01*
X0073919Y0239212D02*
X0069303Y0239212D01*
X0063919Y0239212D02*
X0032060Y0239212D01*
X0032060Y0243211D02*
X0060070Y0243211D01*
X0059636Y0247209D02*
X0032060Y0247209D01*
X0032060Y0251208D02*
X0059636Y0251208D01*
X0061157Y0255206D02*
X0032060Y0255206D01*
X0032060Y0259205D02*
X0225162Y0259205D01*
X0252020Y0287194D02*
X0194316Y0287194D01*
X0194646Y0289284D02*
X0194646Y0289710D01*
X0194535Y0290555D01*
X0194315Y0291378D01*
X0193988Y0292165D01*
X0193562Y0292903D01*
X0193044Y0293579D01*
X0192441Y0294182D01*
X0191765Y0294700D01*
X0191027Y0295126D01*
X0190240Y0295452D01*
X0189417Y0295673D01*
X0188572Y0295784D01*
X0188146Y0295784D01*
X0188146Y0289284D01*
X0194646Y0289284D01*
X0194364Y0291193D02*
X0246533Y0291193D01*
X0230390Y0295191D02*
X0230390Y0295191D01*
X0225252Y0295191D02*
X0190871Y0295191D01*
X0188146Y0295191D02*
X0188146Y0295191D01*
X0185422Y0295191D02*
X0180871Y0295191D01*
X0178146Y0295191D02*
X0178146Y0295191D01*
X0175422Y0295191D02*
X0170871Y0295191D01*
X0168146Y0295191D02*
X0168146Y0295191D01*
X0165422Y0295191D02*
X0160871Y0295191D01*
X0158146Y0295191D02*
X0158146Y0295191D01*
X0155422Y0295191D02*
X0150871Y0295191D01*
X0148146Y0295191D02*
X0148146Y0295191D01*
X0145422Y0295191D02*
X0140871Y0295191D01*
X0138146Y0295191D02*
X0138146Y0295191D01*
X0135422Y0295191D02*
X0130871Y0295191D01*
X0128146Y0295191D02*
X0128146Y0295191D01*
X0125422Y0295191D02*
X0120871Y0295191D01*
X0118146Y0295191D02*
X0118146Y0295191D01*
X0115422Y0295191D02*
X0110871Y0295191D01*
X0108146Y0295191D02*
X0108146Y0295191D01*
X0105422Y0295191D02*
X0100871Y0295191D01*
X0098146Y0295191D02*
X0098146Y0295191D01*
X0095422Y0295191D02*
X0090871Y0295191D01*
X0088146Y0295191D02*
X0088146Y0295191D01*
X0085422Y0295191D02*
X0080871Y0295191D01*
X0078146Y0295191D02*
X0078146Y0295191D01*
X0075422Y0295191D02*
X0069192Y0295191D01*
X0071684Y0291193D02*
X0071928Y0291193D01*
X0078146Y0291193D02*
X0078146Y0291193D01*
X0088146Y0291193D02*
X0088146Y0291193D01*
X0098146Y0291193D02*
X0098146Y0291193D01*
X0108146Y0291193D02*
X0108146Y0291193D01*
X0118146Y0291193D02*
X0118146Y0291193D01*
X0128146Y0291193D02*
X0128146Y0291193D01*
X0138146Y0291193D02*
X0138146Y0291193D01*
X0148146Y0291193D02*
X0148146Y0291193D01*
X0158146Y0291193D02*
X0158146Y0291193D01*
X0168146Y0291193D02*
X0168146Y0291193D01*
X0178146Y0291193D02*
X0178146Y0291193D01*
X0188146Y0291193D02*
X0188146Y0291193D01*
X0181157Y0255206D02*
X0180025Y0255206D01*
X0176611Y0255206D02*
X0176611Y0255206D01*
X0173197Y0255206D02*
X0172065Y0255206D01*
X0176611Y0251208D02*
X0176611Y0251208D01*
X0176611Y0247209D02*
X0176611Y0247209D01*
X0176611Y0243211D02*
X0176611Y0243211D01*
X0182232Y0179234D02*
X0183865Y0179234D01*
X0073055Y0263203D02*
X0069064Y0263203D01*
X0292268Y0087269D02*
X0313277Y0087269D01*
X0311814Y0083270D02*
X0293534Y0083270D01*
X0292523Y0079272D02*
X0312743Y0079272D01*
X0312218Y0075273D02*
X0293212Y0075273D01*
X0293353Y0071275D02*
X0311913Y0071275D01*
X0313284Y0067276D02*
X0292260Y0067276D01*
X0293534Y0063278D02*
X0311814Y0063278D01*
X0312740Y0059279D02*
X0292527Y0059279D01*
X0293209Y0055281D02*
X0312221Y0055281D01*
X0311910Y0051282D02*
X0293356Y0051282D01*
X0292253Y0047284D02*
X0313292Y0047284D01*
X0311814Y0043285D02*
X0293534Y0043285D01*
X0292530Y0039287D02*
X0312737Y0039287D01*
X0312224Y0035288D02*
X0293205Y0035288D01*
X0293359Y0031290D02*
X0311907Y0031290D01*
X0313299Y0027291D02*
X0292245Y0027291D01*
X0293534Y0023293D02*
X0311814Y0023293D01*
X0312734Y0019294D02*
X0292533Y0019294D01*
D24*
X0368422Y0106174D03*
X0368579Y0130269D03*
X0368579Y0153891D03*
X0307676Y0224478D03*
X0106305Y0130072D03*
X0094460Y0120060D03*
D25*
X0096581Y0167846D02*
X0096659Y0167925D01*
X0096611Y0188221D01*
X0106611Y0188221D02*
X0106611Y0167876D01*
X0106581Y0167846D01*
X0116581Y0167846D02*
X0116611Y0167876D01*
X0116611Y0188221D01*
X0126611Y0188221D02*
X0126611Y0167876D01*
X0126581Y0167846D01*
X0116659Y0167925D02*
X0116581Y0167846D01*
X0136581Y0167846D02*
X0136659Y0167925D01*
X0136611Y0188221D01*
X0146611Y0188221D02*
X0146611Y0167876D01*
X0146581Y0167846D01*
X0156581Y0167846D02*
X0156659Y0167925D01*
X0156611Y0188221D01*
X0166611Y0188221D02*
X0166611Y0167876D01*
X0166581Y0167846D01*
X0176581Y0167846D02*
X0176659Y0167925D01*
X0176611Y0188221D01*
X0196667Y0170340D02*
X0196581Y0167846D01*
X0196667Y0170340D02*
X0202400Y0170340D01*
X0206611Y0174551D01*
X0206611Y0188221D01*
X0237556Y0188221D01*
X0273813Y0224478D01*
X0307676Y0224478D01*
X0368579Y0130269D02*
X0368422Y0130111D01*
D26*
X0355469Y0187198D02*
X0341257Y0187198D01*
X0322201Y0187198D01*
X0315509Y0187198D02*
X0315430Y0187276D01*
X0315430Y0191292D01*
X0317398Y0193261D01*
X0320351Y0193261D01*
X0321729Y0194639D01*
X0321729Y0197198D01*
X0341257Y0197198D01*
X0355469Y0187198D02*
X0366453Y0198182D01*
X0315430Y0187749D02*
X0315509Y0187198D01*
X0373264Y0236883D02*
X0373501Y0237119D01*
X0373501Y0244442D01*
X0381375Y0252316D01*
X0385902Y0252316D01*
X0373501Y0287158D02*
X0373501Y0306607D01*
X0363658Y0305465D02*
X0363658Y0296765D01*
X0363501Y0296607D01*
X0363658Y0305465D02*
X0356768Y0312355D01*
X0313461Y0312355D01*
X0306965Y0305859D01*
X0299682Y0305859D01*
X0299446Y0305623D01*
X0278776Y0305623D01*
X0278776Y0295623D02*
X0296138Y0295623D01*
X0299682Y0299166D01*
X0238658Y0307434D02*
X0237083Y0305859D01*
X0237083Y0297591D01*
D27*
X0373264Y0236883D02*
X0395512Y0236883D01*
X0407638Y0224757D01*
X0407638Y0161765D01*
X0407638Y0148969D01*
X0407638Y0136174D01*
X0407638Y0124363D01*
X0407638Y0111568D01*
X0407638Y0100741D01*
D28*
X0389406Y0100741D01*
X0389327Y0100662D01*
X0389327Y0112473D02*
X0406732Y0112473D01*
X0407638Y0111568D01*
X0407559Y0124284D02*
X0407638Y0124363D01*
X0407559Y0124284D02*
X0389327Y0124284D01*
X0389327Y0136095D02*
X0407559Y0136095D01*
X0407638Y0136174D01*
X0406575Y0147906D02*
X0407638Y0148969D01*
X0406575Y0147906D02*
X0389327Y0147906D01*
X0389327Y0159717D02*
X0405591Y0159717D01*
X0407638Y0161765D01*
X0341020Y0207434D02*
X0341020Y0213930D01*
X0353816Y0226725D01*
X0363107Y0226725D01*
X0278776Y0295623D02*
X0254406Y0295623D01*
X0242595Y0307434D01*
X0238658Y0307434D01*
X0062477Y0307434D01*
X0048698Y0290702D01*
X0048698Y0270032D01*
X0048698Y0269363D01*
D29*
X0363107Y0226725D02*
X0373264Y0236883D01*
D30*
X0376453Y0208182D02*
X0376400Y0208128D01*
X0376400Y0193860D01*
X0376429Y0193831D01*
X0376429Y0189599D01*
X0235880Y0247620D02*
X0233540Y0245280D01*
X0231101Y0245280D01*
X0231070Y0245249D01*
X0231070Y0238822D01*
X0194367Y0202119D01*
X0085233Y0202119D01*
X0076611Y0193497D01*
X0076611Y0188221D01*
X0076611Y0172349D01*
X0081200Y0167760D01*
X0086495Y0167760D01*
X0086581Y0167846D01*
X0091226Y0159185D02*
X0096777Y0164736D01*
X0096777Y0167807D01*
X0096581Y0167846D01*
X0106581Y0167846D02*
X0106817Y0167767D01*
X0106817Y0158997D01*
X0102980Y0155160D01*
X0071000Y0155160D01*
X0066140Y0160020D01*
X0056111Y0160020D01*
X0056060Y0160072D01*
X0056060Y0150072D02*
X0105281Y0150072D01*
X0116699Y0161489D01*
X0116699Y0167807D01*
X0116581Y0167846D01*
X0126581Y0167846D02*
X0126738Y0160859D01*
X0105951Y0140072D01*
X0056060Y0140072D01*
X0056060Y0130072D02*
X0106305Y0130072D01*
X0136817Y0160583D01*
X0136817Y0167767D01*
X0136581Y0167846D01*
X0146581Y0167846D02*
X0146777Y0167807D01*
X0146777Y0160111D01*
X0106726Y0120060D01*
X0094460Y0120060D01*
X0094448Y0120072D01*
X0056060Y0120072D01*
X0056060Y0110072D02*
X0108746Y0110072D01*
X0156738Y0158064D01*
X0156581Y0167846D01*
X0166581Y0167846D02*
X0166738Y0155741D01*
X0111069Y0100072D01*
X0056060Y0100072D01*
X0066414Y0086307D02*
X0079209Y0086307D01*
X0066414Y0086307D02*
X0055981Y0075874D01*
X0055981Y0062552D01*
X0055981Y0052552D01*
X0055981Y0042552D01*
X0055981Y0032552D01*
X0055981Y0022552D01*
X0055981Y0012552D01*
X0066020Y0012749D02*
X0066020Y0022749D01*
X0066020Y0032749D01*
X0066020Y0042749D01*
X0066020Y0052749D01*
X0066020Y0062749D01*
X0066020Y0072095D01*
X0070233Y0076307D01*
X0079209Y0076307D01*
X0078080Y0159180D02*
X0082206Y0159180D01*
X0082211Y0159185D01*
X0091226Y0159185D01*
X0078080Y0159180D02*
X0067100Y0170160D01*
X0066380Y0170160D01*
X0066291Y0170072D01*
X0056060Y0170072D01*
X0231070Y0265249D02*
X0233311Y0265249D01*
X0235880Y0262680D01*
X0235880Y0247620D01*
D31*
X0064091Y0269402D02*
X0064052Y0269363D01*
X0048698Y0269363D01*
X0048698Y0270032D02*
X0047989Y0269324D01*
X0036217Y0269324D01*
M02*
